<svg width="35" height="35" viewBox="0 0 35 35" fill="none" xmlns="http://www.w3.org/2000/svg">
<circle cx="17.5" cy="17.5" r="17.5" fill="white"/>
<path d="M19.856 18.4432C19.8624 17.9187 19.856 17.3911 19.856 16.8666C19.856 16.4837 19.7666 15.8209 20.3958 15.8467C20.9899 15.8692 20.91 16.503 20.91 16.8827C20.91 17.4039 20.9037 17.9284 20.91 18.4464H21.501C21.5073 17.9252 21.501 17.4039 21.501 16.8827C21.501 16.503 21.4179 15.8531 22.0376 15.8467C22.6572 15.8402 22.5582 16.4998 22.5582 16.902C22.5582 17.4168 22.5518 17.9348 22.5582 18.4496H23.1747C23.1811 17.9831 23.1747 17.5101 23.1747 17.0436C23.1747 16.5835 23.2098 16.1652 22.999 15.8145C22.6732 15.2707 21.6862 15.068 21.2103 15.8628C21.1432 15.8016 21.0953 15.6568 20.9164 15.5314C20.4884 15.2321 19.856 15.3447 19.2363 15.3447V18.4593L19.856 18.4432Z" fill="black"/>
<path d="M29.3639 17.1456C29.3384 17.4416 29.2425 17.6862 29.086 17.831C28.6548 18.2267 27.6455 18.127 27.7892 16.6791C27.8403 16.1482 28.1789 15.6624 28.7954 15.8361C29.2777 15.968 29.4182 16.5407 29.3639 17.1456ZM27.1504 17.1102C27.2079 17.9661 27.8148 18.6096 28.7347 18.5195C29.6865 18.4262 30.0379 17.6057 29.9963 16.7435C29.8973 14.7743 26.9907 14.7872 27.1504 17.1102Z" fill="black"/>
<path d="M16.7893 15.817C17.393 15.7044 17.6901 16.2159 17.7188 16.7629C17.7476 17.2713 17.6581 17.918 17.064 18.0177C16.4571 18.1175 16.1569 17.6413 16.1313 17.0782C16.1058 16.4572 16.2431 15.9199 16.7893 15.817ZM18.3513 17.075C18.4822 15.4566 16.8756 14.8421 15.9557 15.6947C15.7161 15.9167 15.5404 16.2899 15.5053 16.75C15.4286 17.696 15.9269 18.4296 16.7574 18.5197C17.2972 18.5776 17.7444 18.362 17.9999 18.0499C18.0888 17.9419 18.1619 17.8216 18.2171 17.6928C18.296 17.4959 18.3414 17.2871 18.3513 17.075Z" fill="black"/>
<path d="M12.7516 15.8594C13.5534 15.8014 14.0357 16.046 14.0676 16.8311C14.0996 17.6515 13.7258 17.9765 12.9369 17.9765H12.8155L12.7484 17.9733L12.7516 15.8594ZM12.1479 18.4462C12.6622 18.4784 13.5406 18.4977 13.9814 18.2468C14.3966 18.0119 14.7032 17.5904 14.7032 16.9211C14.7032 15.8787 14.0069 15.4475 13.1477 15.4057C12.9018 15.3928 12.3875 15.3735 12.1479 15.4057V18.4462Z" fill="black"/>
<path d="M24.7902 15.8722H26.3042C26.3106 15.766 26.3266 15.4732 26.2946 15.396H24.3846C24.3079 15.396 24.1865 15.3702 24.1865 15.441V18.443L26.3521 18.4462L26.3617 17.9571H24.7966V17.1109L26.234 17.1077V16.6379H24.7966L24.7902 15.8722Z" fill="black"/>
<path d="M5.30664 10H19.8527V14.6718H19.2426V10.6145H5.61008V24.3822H19.2426V19.1699H19.8527V25H5V10H5.30664Z" fill="#FFD800"/>
</svg>
