<svg width="81" height="122" viewBox="0 0 81 122" fill="none" xmlns="http://www.w3.org/2000/svg">
<path d="M53.7029 61.5776C53.72 60.1441 53.7029 58.7018 53.7029 57.2683C53.7029 56.2218 53.4639 54.4101 55.1456 54.4805C56.7334 54.542 56.52 56.2745 56.52 57.3123C56.52 58.737 56.5029 60.1705 56.52 61.5864H58.0992C58.1163 60.1617 58.0992 58.737 58.0992 57.3123C58.0992 56.2745 57.8773 54.4981 59.5333 54.4805C61.1894 54.4629 60.9248 56.2658 60.9248 57.3651C60.9248 58.7722 60.9077 60.1881 60.9248 61.5952H62.5723C62.5894 60.32 62.5723 59.0272 62.5723 57.752C62.5723 56.4944 62.6662 55.3511 62.1028 54.3925C61.2321 52.9063 58.5943 52.3522 57.3224 54.5244C57.1431 54.3573 57.0151 53.9616 56.537 53.6186C55.3932 52.8007 53.7029 53.1085 52.0469 53.1085V61.6216L53.7029 61.5776Z" fill="white"/>
<path d="M79.1156 58.0315C79.0473 58.8406 78.7912 59.509 78.3729 59.9047C77.2205 60.9864 74.523 60.7138 74.9071 56.7563C75.0437 55.3052 75.9486 53.9772 77.5961 54.4521C78.8851 54.8127 79.2607 56.3781 79.1156 58.0315ZM73.1998 57.9347C73.3535 60.2741 74.9754 62.033 77.4339 61.7867C79.9778 61.5317 80.9168 59.2891 80.8058 56.9322C80.5412 51.5499 72.773 51.5851 73.1998 57.9347Z" fill="white"/>
<path d="M45.507 54.4C47.1204 54.0922 47.9143 55.4905 47.9911 56.9856C48.068 58.3751 47.8289 60.1428 46.2412 60.4154C44.6192 60.6881 43.8168 59.3865 43.7485 57.8474C43.6802 56.1501 44.0473 54.6814 45.507 54.4ZM49.6814 57.8387C50.0313 53.415 45.7375 51.7353 43.279 54.0658C42.6388 54.6726 42.1693 55.6928 42.0754 56.9504C41.8705 59.536 43.2022 61.5411 45.4217 61.7874C46.8643 61.9457 48.0594 61.3565 48.7423 60.5034C48.9799 60.2081 49.1754 59.8794 49.3228 59.5272C49.5337 58.9891 49.6549 58.4183 49.6814 57.8387Z" fill="white"/>
<path d="M34.7176 54.5157C36.8603 54.3574 38.1493 55.0258 38.2347 57.1716C38.32 59.4142 37.3213 60.3025 35.2128 60.3025H34.8884L34.7091 60.2937L34.7176 54.5157ZM33.1042 61.5865C34.4786 61.6744 36.8261 61.7272 38.0042 61.0412C39.1139 60.3992 39.9334 59.2471 39.9334 57.4179C39.9334 54.5685 38.0725 53.39 35.7762 53.2757C35.1189 53.2405 33.7445 53.1877 33.1042 53.2757V61.5865Z" fill="white"/>
<path d="M66.8922 54.5504H70.9385C70.9555 54.2602 70.9982 53.4599 70.9129 53.2488H65.8081C65.6032 53.2488 65.2788 53.1784 65.2788 53.3719V61.5772L71.0665 61.586L71.0921 60.2492H66.9093V57.9363L70.7507 57.9275V56.6435H66.9093L66.8922 54.5504V54.5504Z" fill="white"/>
<path d="M14.8195 38.5H53.6945V51.2696H52.064V40.1798H15.6305V77.8115H52.064V63.5644H53.6945V79.5H14V38.5H14.8195Z" fill="#FFD800"/>
<path d="M37.5 0L34.6132 5H40.3868L37.5 0ZM38 24.5V4.5H37V24.5H38Z" fill="#7B87FF" fill-opacity="0.5"/>
<path d="M37.5469 121.334L40.4336 116.334L34.6601 116.334L37.5469 121.334ZM37.0469 96.834L37.0469 116.834L38.0469 116.834L38.0469 96.834L37.0469 96.834Z" fill="#7B87FF" fill-opacity="0.5"/>
<path d="M74.0469 3.5L69.0747 6.43442L74.1021 9.27324L74.0469 3.5ZM62.4356 25.0796L72.2696 7.66429L71.3988 7.1726L61.5649 24.5879L62.4356 25.0796Z" fill="#7B87FF" fill-opacity="0.5"/>
<path d="M1 117.834L5.97218 114.9L0.944809 112.061L1 117.834ZM12.6112 96.2544L2.77726 113.67L3.64803 114.161L13.482 96.7461L12.6112 96.2544Z" fill="#7B87FF" fill-opacity="0.5"/>
<path d="M1 3.5L5.97218 6.43442L0.944808 9.27324L1 3.5ZM12.6112 25.0796L2.77726 7.66429L3.64803 7.1726L13.482 24.5879L12.6112 25.0796Z" fill="#7B87FF" fill-opacity="0.5"/>
<path d="M74.0469 117.834L69.0747 114.9L74.1021 112.061L74.0469 117.834ZM62.4357 96.2544L72.2696 113.67L71.3988 114.161L61.5649 96.7461L62.4357 96.2544Z" fill="#7B87FF" fill-opacity="0.5"/>
</svg>
