<svg width="96" height="60" viewBox="0 0 96 60" fill="none" xmlns="http://www.w3.org/2000/svg">
<path d="M56.7815 33.6867C56.8059 31.6366 56.7815 29.5739 56.7815 27.5238C56.7815 26.027 56.4397 23.4361 58.8448 23.5367C61.1155 23.6247 60.8103 26.1025 60.8103 27.5866C60.8103 29.6242 60.7859 31.6743 60.8103 33.6993H63.0689C63.0933 31.6618 63.0689 29.6242 63.0689 27.5866C63.0689 26.1025 62.7515 23.5618 65.1199 23.5367C67.4883 23.5115 67.1099 26.0899 67.1099 27.6621C67.1099 29.6745 67.0855 31.6995 67.1099 33.7119H69.4661C69.4905 31.8882 69.4661 30.0393 69.4661 28.2155C69.4661 26.4169 69.6004 24.7819 68.7946 23.4109C67.5494 21.2853 63.777 20.4929 61.9579 23.5996C61.7015 23.3606 61.5184 22.7946 60.8347 22.3041C59.1988 21.1344 56.7815 21.5746 54.4131 21.5746V33.7496L56.7815 33.6867Z" fill="white"/>
<path d="M93.1253 28.6146C93.0277 29.7717 92.6614 30.7276 92.0632 31.2936C90.4151 32.8406 86.5572 32.4507 87.1066 26.7908C87.3019 24.7155 88.596 22.8163 90.9522 23.4955C92.7957 24.0112 93.3329 26.25 93.1253 28.6146ZM84.6649 28.4762C84.8846 31.8218 87.2042 34.3373 90.7203 33.9852C94.3584 33.6204 95.7013 30.4132 95.5426 27.0424C95.1641 19.3449 84.0545 19.3953 84.6649 28.4762Z" fill="white"/>
<path d="M45.0604 23.4211C47.3678 22.9809 48.5032 24.9807 48.6131 27.1189C48.723 29.1061 48.3811 31.6342 46.1104 32.0241C43.7907 32.414 42.6432 30.5525 42.5455 28.3515C42.4478 25.924 42.9728 23.8236 45.0604 23.4211ZM51.0304 28.3389C51.5309 22.0124 45.3901 19.6101 41.874 22.9432C40.9584 23.811 40.2869 25.27 40.1526 27.0686C39.8596 30.7664 41.7641 33.634 44.9383 33.9862C47.0016 34.2126 48.7108 33.3699 49.6874 32.1499C50.0272 31.7276 50.3067 31.2575 50.5176 30.7538C50.8192 29.9843 50.9926 29.1679 51.0304 28.3389Z" fill="white"/>
<path d="M29.6297 23.5869C32.694 23.3605 34.5375 24.3164 34.6595 27.3853C34.7816 30.5926 33.3532 31.8629 30.3378 31.8629H29.8738L29.6175 31.8503L29.6297 23.5869ZM27.3223 33.6992C29.2878 33.825 32.6451 33.9004 34.3299 32.9194C35.917 32.0012 37.089 30.3536 37.089 27.7375C37.089 23.6624 34.4276 21.977 31.1435 21.8135C30.2035 21.7631 28.2379 21.6877 27.3223 21.8135V33.6992Z" fill="white"/>
<path d="M75.6443 23.6369H81.4311C81.4555 23.2218 81.5166 22.0773 81.3945 21.7754H74.0938C73.8008 21.7754 73.3369 21.6748 73.3369 21.9515V33.6863L81.6142 33.6989L81.6509 31.7871H75.6687V28.4792L81.1625 28.4666V26.6303H75.6687L75.6443 23.6369Z" fill="white"/>
<path d="M1.17201 0.681885H56.7693V18.9444H54.4375V3.08419H2.33181V56.9033H54.4375V36.5278H56.7693V59.3182H0V0.681885H1.17201Z" fill="#FFD800"/>
</svg>
