<svg width="67" height="41" viewBox="0 0 67 41" fill="none" xmlns="http://www.w3.org/2000/svg">
<path d="M39.8135 23.0778C39.8306 21.6443 39.8135 20.202 39.8135 18.7685C39.8135 17.722 39.5738 15.9103 41.2602 15.9807C42.8524 16.0422 42.6384 17.7747 42.6384 18.8125C42.6384 20.2372 42.6212 21.6707 42.6384 23.0866H44.222C44.2391 21.6619 44.222 20.2372 44.222 18.8125C44.222 17.7747 43.9994 15.9982 45.6601 15.9807C47.3208 15.9631 47.0554 17.7659 47.0554 18.8653C47.0554 20.2724 47.0383 21.6883 47.0554 23.0954H48.7075C48.7247 21.8202 48.7075 20.5274 48.7075 19.2522C48.7075 17.9946 48.8017 16.8513 48.2367 15.8927C47.3636 14.4064 44.7185 13.8524 43.443 16.0246C43.2633 15.8575 43.1349 15.4618 42.6555 15.1188C41.5084 14.3009 39.8135 14.6087 38.1528 14.6087V23.1218L39.8135 23.0778Z" fill="white"/>
<path d="M65.2964 19.5313C65.2279 20.3404 64.9711 21.0088 64.5516 21.4045C63.396 22.4863 60.691 22.2136 61.0762 18.2561C61.2132 16.805 62.1206 15.477 63.7727 15.9519C65.0653 16.3125 65.4419 17.8779 65.2964 19.5313ZM59.3642 19.4346C59.5183 21.7739 61.1447 23.5328 63.61 23.2866C66.161 23.0315 67.1026 20.7889 66.9913 18.432C66.7259 13.0497 58.9362 13.0849 59.3642 19.4346Z" fill="white"/>
<path d="M31.5947 15.8998C33.2126 15.592 34.0087 16.9903 34.0858 18.4854C34.1628 19.8749 33.9231 21.6426 32.3309 21.9153C30.7045 22.1879 29.8998 20.8863 29.8314 19.3473C29.7629 17.6499 30.131 16.1812 31.5947 15.8998ZM35.7807 19.3385C36.1316 14.9148 31.8259 13.2351 29.3605 15.5656C28.7185 16.1724 28.2477 17.1926 28.1536 18.4502C27.9481 21.0358 29.2835 23.041 31.5091 23.2872C32.9558 23.4455 34.1542 22.8563 34.8391 22.0032C35.0773 21.7079 35.2733 21.3792 35.4211 21.027C35.6326 20.489 35.7542 19.9181 35.7807 19.3385Z" fill="white"/>
<path d="M20.7756 16.0159C22.9242 15.8576 24.2168 16.526 24.3024 18.6718C24.388 20.9144 23.3864 21.8027 21.2721 21.8027H20.9468L20.767 21.7939L20.7756 16.0159ZM19.1577 23.0867C20.5359 23.1746 22.89 23.2274 24.0713 22.5414C25.1841 21.8994 26.0059 20.7473 26.0059 18.9181C26.0059 16.0686 24.1397 14.8902 21.8371 14.7759C21.1779 14.7407 19.7997 14.6879 19.1577 14.7759V23.0867Z" fill="white"/>
<path d="M53.0388 16.0507H57.0963C57.1134 15.7605 57.1562 14.9602 57.0706 14.7491H51.9516C51.7462 14.7491 51.4209 14.6788 51.4209 14.8722V23.0775L57.2247 23.0863L57.2504 21.7495H53.0559V19.4366L56.908 19.4278V18.1438H53.0559L53.0388 16.0507Z" fill="white"/>
<path d="M0.821778 0H39.8049V12.7696H38.1699V1.67975H1.63499V39.3115H38.1699V25.0644H39.8049V41H0V0H0.821778Z" fill="#FFD800"/>
</svg>
