<svg width="65" height="39" viewBox="0 0 65 39" fill="none" xmlns="http://www.w3.org/2000/svg">
<path d="M38.6267 21.9523C38.6433 20.5887 38.6267 19.2167 38.6267 17.8532C38.6267 16.8577 38.3942 15.1344 40.0302 15.2013C41.5749 15.2599 41.3673 16.9079 41.3673 17.895C41.3673 19.2502 41.3507 20.6138 41.3673 21.9606H42.9037C42.9203 20.6054 42.9037 19.2502 42.9037 17.895C42.9037 16.9079 42.6877 15.218 44.2989 15.2013C45.91 15.1846 45.6525 16.8995 45.6525 17.9452C45.6525 19.2837 45.6359 20.6305 45.6525 21.969H47.2553C47.2719 20.756 47.2553 19.5263 47.2553 18.3133C47.2553 17.117 47.3467 16.0295 46.7986 15.1176C45.9515 13.7039 43.3853 13.1768 42.1479 15.2431C41.9735 15.0842 41.849 14.7077 41.3839 14.3815C40.2711 13.6035 38.6267 13.8963 37.0156 13.8963V21.9941L38.6267 21.9523Z" fill="black"/>
<path d="M63.3459 18.5787C63.2794 19.3483 63.0303 19.9841 62.6234 20.3605C61.5022 21.3895 58.8779 21.1301 59.2517 17.3657C59.3845 15.9854 60.2648 14.7222 61.8676 15.1739C63.1217 15.5169 63.4871 17.006 63.3459 18.5787ZM57.5907 18.4866C57.7402 20.7119 59.3181 22.385 61.7099 22.1507C64.1847 21.9081 65.0982 19.7749 64.9902 17.533C64.7328 12.4133 57.1755 12.4468 57.5907 18.4866Z" fill="black"/>
<path d="M30.6516 15.1241C32.2212 14.8314 32.9935 16.1615 33.0683 17.5836C33.143 18.9054 32.9105 20.5868 31.3658 20.8461C29.7879 21.1055 29.0073 19.8674 28.9408 18.4034C28.8744 16.7889 29.2315 15.3918 30.6516 15.1241ZM34.7126 18.3951C35.0531 14.1872 30.8758 12.5894 28.4841 14.8063C27.8612 15.3835 27.4044 16.3539 27.3131 17.5501C27.1138 20.0096 28.4093 21.9169 30.5685 22.1512C31.972 22.3017 33.1347 21.7413 33.7991 20.9298C34.0302 20.6489 34.2203 20.3362 34.3638 20.0012C34.569 19.4894 34.6869 18.9464 34.7126 18.3951Z" fill="black"/>
<path d="M20.1555 15.2344C22.24 15.0838 23.494 15.7196 23.5771 17.7607C23.6601 19.8939 22.6885 20.7389 20.6372 20.7389H20.3216L20.1472 20.7305L20.1555 15.2344ZM18.5859 21.9602C19.923 22.0439 22.2068 22.0941 23.3528 21.4416C24.4325 20.8309 25.2297 19.735 25.2297 17.995C25.2297 15.2845 23.4193 14.1636 21.1853 14.0548C20.5458 14.0214 19.2088 13.9712 18.5859 14.0548V21.9602Z" fill="black"/>
<path d="M51.4563 15.2677H55.3927C55.4093 14.9916 55.4509 14.2303 55.3678 14.0296H50.4016C50.2023 14.0296 49.8867 13.9626 49.8867 14.1467V21.9517L55.5173 21.9601L55.5422 20.6885H51.4729V18.4884L55.21 18.48V17.2587H51.4729L51.4563 15.2677Z" fill="black"/>
<path d="M0.797252 0H38.6169V12.1467H37.0307V1.59781H1.5862V37.3938H37.0307V23.8417H38.6169V39H0V0H0.797252Z" fill="#FFD800"/>
</svg>
