<svg width="35" height="20" viewBox="0 0 35 20" fill="none" xmlns="http://www.w3.org/2000/svg">
<path d="M5.71836 17.28C5.14503 17.28 4.55503 17.2333 3.94836 17.14C3.34169 17.0533 2.77503 16.9367 2.24836 16.79C1.72169 16.6433 1.28836 16.4867 0.948359 16.32L1.22836 13.07C1.67503 13.31 2.14169 13.5133 2.62836 13.68C3.12169 13.8467 3.60503 13.9767 4.07836 14.07C4.55836 14.1633 4.99836 14.21 5.39836 14.21C5.75169 14.21 6.05169 14.1667 6.29836 14.08C6.55169 13.9867 6.74503 13.85 6.87836 13.67C7.01169 13.49 7.07836 13.2567 7.07836 12.97C7.07836 12.6833 6.97169 12.4467 6.75836 12.26C6.54503 12.0667 6.24836 11.9 5.86836 11.76C5.48836 11.62 5.04836 11.48 4.54836 11.34C3.74169 11.12 3.05169 10.85 2.47836 10.53C1.91169 10.2033 1.47503 9.78 1.16836 9.26C0.868359 8.74 0.718359 8.07667 0.718359 7.27C0.718359 6.42333 0.895026 5.68 1.24836 5.04C1.60836 4.4 2.15169 3.90333 2.87836 3.55C3.61169 3.19 4.54503 3.01 5.67836 3.01C6.09836 3.01 6.53169 3.03667 6.97836 3.09C7.42503 3.13667 7.85836 3.20667 8.27836 3.3C8.70503 3.38667 9.10503 3.48667 9.47836 3.6C9.85169 3.70667 10.175 3.82333 10.4484 3.95L10.1884 7.25C9.76836 7.01 9.33836 6.81 8.89836 6.65C8.45836 6.48333 8.03169 6.36 7.61836 6.28C7.20503 6.19333 6.82836 6.15 6.48836 6.15C6.17503 6.15 5.89503 6.19333 5.64836 6.28C5.40836 6.36 5.21836 6.48333 5.07836 6.65C4.93836 6.81667 4.86836 7.03667 4.86836 7.31C4.86836 7.56333 4.93836 7.77333 5.07836 7.94C5.22503 8.10667 5.44836 8.25667 5.74836 8.39C6.05503 8.51667 6.44836 8.65 6.92836 8.79C8.00169 9.09667 8.84836 9.43 9.46836 9.79C10.095 10.15 10.5417 10.5833 10.8084 11.09C11.075 11.5967 11.2084 12.2233 11.2084 12.97C11.2084 13.8633 11.015 14.6333 10.6284 15.28C10.2484 15.92 9.65503 16.4133 8.84836 16.76C8.04169 17.1067 6.99836 17.28 5.71836 17.28ZM4.66836 19.74C4.66836 18.9733 4.66836 18.2367 4.66836 17.53C4.66836 16.83 4.66836 16.1367 4.66836 15.45H7.38836C7.38836 16.1367 7.38836 16.83 7.38836 17.53C7.38836 18.2367 7.38836 18.9733 7.38836 19.74H4.66836ZM4.66836 4.66C4.66836 4.06 4.66836 3.45333 4.66836 2.84C4.66836 2.22667 4.66836 1.59333 4.66836 0.939999H7.38836C7.38836 1.59333 7.38836 2.22667 7.38836 2.84C7.38836 3.45333 7.38836 4.06 7.38836 4.66H4.66836ZM17.3395 17.28C16.7661 17.28 16.1761 17.2333 15.5695 17.14C14.9628 17.0533 14.3961 16.9367 13.8695 16.79C13.3428 16.6433 12.9095 16.4867 12.5695 16.32L12.8495 13.07C13.2961 13.31 13.7628 13.5133 14.2495 13.68C14.7428 13.8467 15.2261 13.9767 15.6995 14.07C16.1795 14.1633 16.6195 14.21 17.0195 14.21C17.3728 14.21 17.6728 14.1667 17.9195 14.08C18.1728 13.9867 18.3661 13.85 18.4995 13.67C18.6328 13.49 18.6995 13.2567 18.6995 12.97C18.6995 12.6833 18.5928 12.4467 18.3795 12.26C18.1661 12.0667 17.8695 11.9 17.4895 11.76C17.1095 11.62 16.6695 11.48 16.1695 11.34C15.3628 11.12 14.6728 10.85 14.0995 10.53C13.5328 10.2033 13.0961 9.78 12.7895 9.26C12.4895 8.74 12.3395 8.07667 12.3395 7.27C12.3395 6.42333 12.5161 5.68 12.8695 5.04C13.2295 4.4 13.7728 3.90333 14.4995 3.55C15.2328 3.19 16.1661 3.01 17.2995 3.01C17.7195 3.01 18.1528 3.03667 18.5995 3.09C19.0461 3.13667 19.4795 3.20667 19.8995 3.3C20.3261 3.38667 20.7261 3.48667 21.0995 3.6C21.4728 3.70667 21.7961 3.82333 22.0695 3.95L21.8095 7.25C21.3895 7.01 20.9595 6.81 20.5195 6.65C20.0795 6.48333 19.6528 6.36 19.2395 6.28C18.8261 6.19333 18.4495 6.15 18.1095 6.15C17.7961 6.15 17.5161 6.19333 17.2695 6.28C17.0295 6.36 16.8395 6.48333 16.6995 6.65C16.5595 6.81667 16.4895 7.03667 16.4895 7.31C16.4895 7.56333 16.5595 7.77333 16.6995 7.94C16.8461 8.10667 17.0695 8.25667 17.3695 8.39C17.6761 8.51667 18.0695 8.65 18.5495 8.79C19.6228 9.09667 20.4695 9.43 21.0895 9.79C21.7161 10.15 22.1628 10.5833 22.4295 11.09C22.6961 11.5967 22.8295 12.2233 22.8295 12.97C22.8295 13.8633 22.6361 14.6333 22.2495 15.28C21.8695 15.92 21.2761 16.4133 20.4695 16.76C19.6628 17.1067 18.6195 17.28 17.3395 17.28ZM16.2895 19.74C16.2895 18.9733 16.2895 18.2367 16.2895 17.53C16.2895 16.83 16.2895 16.1367 16.2895 15.45H19.0095C19.0095 16.1367 19.0095 16.83 19.0095 17.53C19.0095 18.2367 19.0095 18.9733 19.0095 19.74H16.2895ZM16.2895 4.66C16.2895 4.06 16.2895 3.45333 16.2895 2.84C16.2895 2.22667 16.2895 1.59333 16.2895 0.939999H19.0095C19.0095 1.59333 19.0095 2.22667 19.0095 2.84C19.0095 3.45333 19.0095 4.06 19.0095 4.66H16.2895Z" fill="#1B9D4B"/>
<path d="M28.9605 17.28C28.3872 17.28 27.7972 17.2333 27.1905 17.14C26.5839 17.0533 26.0172 16.9367 25.4905 16.79C24.9639 16.6433 24.5305 16.4867 24.1905 16.32L24.4705 13.07C24.9172 13.31 25.3839 13.5133 25.8705 13.68C26.3639 13.8467 26.8472 13.9767 27.3205 14.07C27.8005 14.1633 28.2405 14.21 28.6405 14.21C28.9939 14.21 29.2939 14.1667 29.5405 14.08C29.7939 13.9867 29.9872 13.85 30.1205 13.67C30.2539 13.49 30.3205 13.2567 30.3205 12.97C30.3205 12.6833 30.2139 12.4467 30.0005 12.26C29.7872 12.0667 29.4905 11.9 29.1105 11.76C28.7305 11.62 28.2905 11.48 27.7905 11.34C26.9839 11.12 26.2939 10.85 25.7205 10.53C25.1539 10.2033 24.7172 9.78 24.4105 9.26C24.1105 8.74 23.9605 8.07667 23.9605 7.27C23.9605 6.42333 24.1372 5.68 24.4905 5.04C24.8505 4.4 25.3939 3.90333 26.1205 3.55C26.8539 3.19 27.7872 3.01 28.9205 3.01C29.3405 3.01 29.7739 3.03667 30.2205 3.09C30.6672 3.13667 31.1005 3.20667 31.5205 3.3C31.9472 3.38667 32.3472 3.48667 32.7205 3.6C33.0939 3.70667 33.4172 3.82333 33.6905 3.95L33.4305 7.25C33.0105 7.01 32.5805 6.81 32.1405 6.65C31.7005 6.48333 31.2739 6.36 30.8605 6.28C30.4472 6.19333 30.0705 6.15 29.7305 6.15C29.4172 6.15 29.1372 6.19333 28.8905 6.28C28.6505 6.36 28.4605 6.48333 28.3205 6.65C28.1805 6.81667 28.1105 7.03667 28.1105 7.31C28.1105 7.56333 28.1805 7.77333 28.3205 7.94C28.4672 8.10667 28.6905 8.25667 28.9905 8.39C29.2972 8.51667 29.6905 8.65 30.1705 8.79C31.2439 9.09667 32.0905 9.43 32.7105 9.79C33.3372 10.15 33.7839 10.5833 34.0505 11.09C34.3172 11.5967 34.4505 12.2233 34.4505 12.97C34.4505 13.8633 34.2572 14.6333 33.8705 15.28C33.4905 15.92 32.8972 16.4133 32.0905 16.76C31.2839 17.1067 30.2405 17.28 28.9605 17.28ZM27.9105 19.74C27.9105 18.9733 27.9105 18.2367 27.9105 17.53C27.9105 16.83 27.9105 16.1367 27.9105 15.45H30.6305C30.6305 16.1367 30.6305 16.83 30.6305 17.53C30.6305 18.2367 30.6305 18.9733 30.6305 19.74H27.9105ZM27.9105 4.66C27.9105 4.06 27.9105 3.45333 27.9105 2.84C27.9105 2.22667 27.9105 1.59333 27.9105 0.939999H30.6305C30.6305 1.59333 30.6305 2.22667 30.6305 2.84C30.6305 3.45333 30.6305 4.06 30.6305 4.66H27.9105Z" fill="#7F82A2" fill-opacity="0.6"/>
</svg>
