<svg width="80" height="80" viewBox="0 0 80 80" fill="none" xmlns="http://www.w3.org/2000/svg">
<g clip-path="url(#clip0_295_16259)">
<rect width="80" height="80" rx="40" fill="#282D51"/>
<path d="M44.1298 63.9722L41.6746 67.9192L43.5868 80.9229H35.2954L37.2076 67.9192L34.7523 63.9722L38.4008 59.3291L28.6791 52.2229V47.7634C27.7626 46.2095 27.1379 44.5011 26.8358 42.7225C26.1321 42.669 25.1989 41.6746 24.2046 38.133C22.8354 33.2987 24.2887 32.5873 25.5202 32.702C25.2881 32.0547 25.109 31.3896 24.9847 30.7132C24.5016 28.6193 24.5016 26.4429 24.9847 24.349C25.6004 21.8759 26.8868 19.6207 28.7021 17.8319C29.7127 16.7516 30.8534 15.8009 32.0982 15.0016C33.1286 14.2755 34.2565 13.6986 35.4484 13.2882C36.4357 12.9512 37.4658 12.7555 38.5079 12.7069C41.1645 12.4142 43.8449 12.9798 46.1568 14.3208C47.6708 15.1277 48.9371 16.3306 49.8206 17.8013C49.8206 17.8013 55.9779 18.2373 53.8974 30.7515C53.773 31.4278 53.5939 32.0929 53.362 32.7403C54.5935 32.6255 56.0468 33.3369 54.6776 38.1712C53.6756 41.7052 52.7501 42.6919 52.0464 42.7608C51.7438 44.5224 51.1189 46.2132 50.203 47.7481V52.3377L40.5119 59.3291L44.1298 63.9722ZM9.41932 66.7565C8.67195 67.3658 8.06893 68.1333 7.65364 69.0036C7.23835 69.8739 7.02112 70.8254 7.01758 71.7897V78.5134C7.01758 79.1545 7.27223 79.7693 7.72551 80.2226C8.1788 80.6759 8.79358 80.9306 9.43462 80.9306H31.4863L26.8052 55.3668C20.6475 58.579 14.8237 62.3942 9.41932 66.7565Z" fill="#7F81A1" fill-opacity="0.8"/>
<path d="M69.6713 66.7565C70.4187 67.3658 71.0217 68.1333 71.437 69.0036C71.8523 69.8739 72.0695 70.8254 72.0731 71.7897V78.5134C72.0731 79.1545 71.8184 79.7693 71.3651 80.2226C70.9119 80.6759 70.2971 80.9306 69.656 80.9306H47.6044L52.2855 55.3668C58.4432 58.579 64.267 62.3942 69.6713 66.7565Z" fill="#7F81A1" fill-opacity="0.8"/>
<path d="M41.6742 67.9192L44.1295 63.9722L40.5115 59.3291H38.4005L34.752 63.9722L37.2072 67.9192L35.295 80.923H43.5864L41.6742 67.9192Z" fill="#7B87FF"/>
</g>
<defs>
<clipPath id="clip0_295_16259">
<rect width="80" height="80" rx="40" fill="white"/>
</clipPath>
</defs>
</svg>
