<svg width="80" height="80" viewBox="0 0 80 80" fill="none" xmlns="http://www.w3.org/2000/svg">
<g clip-path="url(#clip0_295_16446)">
<rect width="80" height="80" rx="40" fill="#282D51"/>
<g clip-path="url(#clip1_295_16446)">
<path opacity="0.4" d="M47.6152 60.9552L48.5942 60.8559L49.8028 60.6991C50.2367 60.6251 50.7143 60.5652 51.2091 60.4643C51.4706 60.4172 51.7394 60.3649 52.0154 60.3075C52.0211 60.2819 52.0285 60.2496 52.0372 60.2115C52.0464 60.1642 52.0653 60.109 52.0813 60.05C52.0411 60.0368 52.003 60.0182 51.9687 59.9948C51.7793 59.8631 51.6138 59.7082 51.4789 59.5366C51.3336 59.3593 51.2144 59.1697 51.1243 58.9724C50.8079 58.3388 50.7632 57.5237 50.9274 56.5979C50.9323 56.5668 50.9372 56.536 50.9431 56.5052C51.1254 55.6143 51.9137 54.9599 52.4753 54.4813C52.6908 54.3122 52.8771 54.166 53.0347 54.0489C53.2465 53.8913 53.405 53.7868 53.5108 53.7531C53.54 53.7398 53.5756 53.7367 53.6105 53.7445C53.7417 53.7799 53.973 54.0455 54.1447 54.4361C54.2129 54.5942 54.265 54.7553 54.3002 54.9176C54.4654 55.5669 54.406 56.3823 54.241 57.2241C54.2339 57.2557 54.2268 57.287 54.2187 57.3183C54.0196 58.1123 53.4751 58.7579 53.0629 59.2419C52.9372 59.3799 52.8256 59.5053 52.7187 59.6118C52.4916 59.8433 52.3164 59.9976 52.1799 60.0402C52.1764 60.0509 52.1767 60.0625 52.1748 60.0733C52.1666 60.1332 52.1563 60.187 52.1535 60.2364C52.1522 60.2515 52.1508 60.2654 52.1495 60.2788C52.8884 60.1215 53.6715 59.9262 54.4872 59.6853C55.2559 59.4591 56.0511 59.1904 56.8554 58.8732C56.8564 58.8522 56.8575 58.8285 56.8586 58.8019C56.8597 58.7531 56.8683 58.695 56.8738 58.6339C56.8326 58.6258 56.7924 58.6116 56.7555 58.5919C56.5487 58.4822 56.3611 58.3461 56.2005 58.1895C56.0296 58.029 55.8817 57.8531 55.7606 57.666C55.3455 57.0664 55.1607 56.2497 55.1597 55.2962C55.1593 55.2646 55.159 55.2326 55.1591 55.2008C55.1823 54.2809 55.8354 53.5253 56.2989 52.9749C56.4791 52.7784 56.6346 52.608 56.7659 52.4718C56.9439 52.2869 57.0798 52.1645 57.1777 52.1144C57.2039 52.098 57.2378 52.0913 57.2726 52.0956C57.4062 52.1154 57.6765 52.3548 57.9106 52.728C58.0044 52.8785 58.0832 53.034 58.1461 53.1928C58.4182 53.8271 58.5005 54.6561 58.4856 55.5251C58.4842 55.5578 58.4828 55.5904 58.4806 55.6224C58.4234 56.4463 58.0063 57.1642 57.689 57.7017C57.5886 57.8556 57.5012 57.9958 57.4185 58.1166C57.2398 58.3777 57.0944 58.5543 56.9686 58.6138L56.9697 58.6481C56.9724 58.709 56.9717 58.7644 56.9775 58.8141C56.9763 58.8178 56.9779 58.8224 56.9785 58.8267C57.3596 58.6743 57.742 58.5105 58.1257 58.3353C59.2467 57.8187 60.3068 57.224 61.2964 56.5566L61.2888 56.5064C61.2799 56.4569 61.2768 56.3974 61.2696 56.3367C61.2281 56.3341 61.1866 56.3254 61.147 56.3109C60.9243 56.2281 60.7153 56.1158 60.5286 55.9787C60.3313 55.8409 60.1532 55.684 59.9989 55.5121C59.4785 54.9651 59.1406 54.1684 58.9521 53.2079C58.9451 53.1762 58.9382 53.1442 58.9324 53.112C58.776 52.1823 59.2543 51.3302 59.5951 50.7103C59.7305 50.4876 59.8471 50.2947 59.9484 50.1382C60.0842 49.927 60.1917 49.7827 60.2757 49.722C60.2978 49.7017 60.3292 49.6901 60.3638 49.6896C60.4966 49.6916 60.8049 49.895 61.1041 50.2381C61.2246 50.3767 61.3313 50.5225 61.423 50.6739C61.8107 51.2753 62.0536 52.0972 62.2096 52.9761C62.2148 53.0089 62.2197 53.0423 62.2238 53.0751C62.3313 53.9126 62.0694 54.6933 61.8693 55.2797C61.8046 55.4485 61.746 55.6016 61.6897 55.7351C61.5688 56.023 61.4628 56.2209 61.3553 56.299C61.3582 56.3105 61.3606 56.3219 61.3631 56.333C61.3762 56.3883 61.3856 56.4391 61.3987 56.4851C61.5135 56.4063 61.6278 56.3269 61.7416 56.2468C62.3179 55.8309 62.8761 55.3818 63.4133 54.9047C63.9433 54.4219 64.4508 53.9095 64.9246 53.3681C64.9399 53.3506 64.9548 53.3329 64.9696 53.3152L64.9527 53.2718C64.9321 53.2242 64.9144 53.1641 64.8928 53.1024C64.8528 53.1073 64.8111 53.1059 64.7698 53.0982C64.5389 53.0538 64.3137 52.978 64.1034 52.8739C63.8815 52.7693 63.6733 52.6423 63.4841 52.4961C62.8549 52.0361 62.338 51.294 61.9234 50.361C61.909 50.3302 61.8928 50.2988 61.8814 50.2681C61.5027 49.3606 61.7537 48.422 61.9256 47.7409C61.9999 47.4936 62.0644 47.2798 62.1223 47.1052C62.1987 46.8687 62.267 46.706 62.3327 46.6299C62.3487 46.6059 62.3757 46.589 62.4084 46.5825C62.5356 46.561 62.8789 46.7124 63.2484 47.0059C63.3971 47.1244 63.5346 47.2525 63.6591 47.3887C64.1755 47.9263 64.6083 48.7103 64.972 49.5667C64.9849 49.5991 64.9977 49.6315 65.0096 49.6639C65.317 50.4871 65.258 51.3169 65.2107 51.9409C65.1904 52.1215 65.1719 52.2856 65.1508 52.4292C65.106 52.7392 65.0534 52.9569 64.9679 53.0535L64.9837 53.0864C65.008 53.1351 65.0282 53.1825 65.0498 53.2242C65.9528 52.1665 66.714 51.0207 67.3218 49.8044C67.4209 49.6021 67.5165 49.3983 67.6085 49.1932L67.5268 49.0646C67.4991 49.0229 67.471 48.9701 67.4394 48.9158C67.4048 48.926 67.3675 48.9307 67.3293 48.9297C67.1158 48.9216 66.9008 48.8836 66.6932 48.8174C66.4753 48.752 66.265 48.6638 66.0676 48.5551C65.4153 48.2181 64.8061 47.6032 64.2507 46.7967C64.2313 46.7704 64.2126 46.7435 64.1944 46.7164C63.6739 45.9278 63.7041 45.0192 63.7175 44.3618C63.7328 44.1215 63.7458 43.9131 63.7623 43.7427C63.7829 43.5123 63.8087 43.351 63.8513 43.2708C63.8605 43.2461 63.881 43.2264 63.9087 43.2157C64.0169 43.1775 64.3518 43.2686 64.7391 43.4881C64.8942 43.5767 65.0414 43.6755 65.179 43.7835C65.7465 44.2088 66.2898 44.8752 66.787 45.6183C66.8049 45.6462 66.8226 45.6747 66.8398 45.7032C67.2802 46.4242 67.3979 47.2033 67.4844 47.7916C67.5041 47.9615 67.5202 48.1175 67.5313 48.2543C67.5551 48.5481 67.5525 48.7586 67.4963 48.8606L67.517 48.8889C67.5544 48.9398 67.5868 48.9871 67.62 49.0273L67.6614 49.0815C68.1217 48.0236 68.482 46.9278 68.7392 45.8035C68.8281 45.4235 68.9026 45.0421 68.9627 44.6593L68.8637 44.5652C68.8242 44.5304 68.7847 44.4862 68.74 44.4407C68.7118 44.4578 68.6794 44.4702 68.6445 44.4772C68.4504 44.5152 68.2459 44.5244 68.0394 44.5045C67.8239 44.488 67.6082 44.4478 67.398 44.3852C66.7107 44.1991 65.9772 43.7365 65.2326 43.0774C65.2075 43.0562 65.1826 43.0343 65.1577 43.0123C64.4537 42.3643 64.2055 41.4818 64.0192 40.8461C63.9605 40.6113 63.91 40.4082 63.8728 40.2405C63.822 40.0144 63.7951 39.8528 63.8106 39.7671C63.8115 39.7414 63.8241 39.7181 63.8458 39.702C63.9317 39.6419 64.2602 39.6585 64.6746 39.7879C64.8415 39.8402 65.0043 39.9044 65.1612 39.9798C65.7993 40.2678 66.4882 40.7948 67.1593 41.4048C67.1843 41.428 67.2086 41.4518 67.233 41.4752C67.8456 42.0762 68.1862 42.8017 68.4398 43.3484C68.5085 43.5096 68.5702 43.655 68.6212 43.7843C68.7311 44.063 68.7926 44.2655 68.7727 44.3756L68.7998 44.3987C68.8489 44.4399 68.8922 44.4784 68.9343 44.51L68.9816 44.5473C69.1292 43.6058 69.2038 42.6498 69.2051 41.6849C69.2054 41.2002 69.1878 40.7203 69.1522 40.245L69.1041 40.207C69.0634 40.1759 69.0176 40.1341 68.9677 40.0922C68.9422 40.1119 68.912 40.1271 68.8786 40.137C68.6928 40.1923 68.4931 40.2194 68.2879 40.2171C68.0743 40.2193 67.8576 40.1976 67.6436 40.1524C66.946 40.0247 66.1688 39.622 65.3568 39.0225C65.3295 39.0034 65.3025 38.9833 65.2746 38.9628C64.5019 38.3702 64.1518 37.503 63.8905 36.8779C63.8042 36.6456 63.7291 36.446 63.672 36.2804C63.5946 36.0568 63.5498 35.8968 63.5529 35.8087C63.5506 35.7827 63.5602 35.7581 63.5797 35.7401C63.6564 35.6721 63.9809 35.6605 64.4037 35.7545C64.5739 35.7928 64.7416 35.8434 64.9048 35.9058C65.5666 36.1413 66.308 36.6122 67.0422 37.1686C67.0694 37.1896 67.0963 37.2114 67.1228 37.233C67.7984 37.7852 68.2221 38.4874 68.538 39.0158C68.625 39.1722 68.7034 39.3144 68.7701 39.4394C68.9118 39.7108 68.9969 39.9091 68.9913 40.0222L69.0212 40.0428C69.0653 40.0743 69.1034 40.1025 69.1456 40.1288C69.0821 39.3301 68.9699 38.5295 68.8093 37.7301C68.6488 36.9233 68.4455 36.1468 68.2147 35.4085L68.0897 35.3444C68.0457 35.3237 68 35.2954 67.9487 35.2674C67.9326 35.2893 67.9116 35.3082 67.8866 35.3229C67.7461 35.4034 67.5875 35.4617 67.4173 35.4954C67.2413 35.5345 67.0568 35.553 66.8688 35.5504C66.2608 35.5583 65.5189 35.3403 64.6999 34.9539C64.6728 34.9419 64.6454 34.9293 64.6182 34.9161C63.8335 34.5289 63.3303 33.8276 62.9604 33.3235C62.8321 33.1349 62.719 32.9712 62.6329 32.8355C62.5134 32.6526 62.437 32.5201 62.4181 32.442C62.4097 32.4194 62.4115 32.396 62.423 32.3766C62.4698 32.3038 62.7359 32.2373 63.1083 32.2469C63.2584 32.2506 63.4096 32.266 63.5599 32.2926C64.1649 32.3847 64.8939 32.6697 65.638 33.0319L65.7206 33.0745C66.4137 33.4423 66.9381 33.9865 67.3293 34.3966C67.4419 34.5192 67.5402 34.6282 67.6255 34.7285C67.81 34.9426 67.9289 35.1024 67.9521 35.2019L67.9818 35.2151C68.035 35.2389 68.0825 35.2616 68.1268 35.2783L68.1811 35.3004C68.062 34.9259 67.9367 34.5601 67.8057 34.2067C67.5575 33.538 67.2917 32.911 67.0205 32.3275C66.9079 32.332 66.6893 32.2279 66.4011 32.0457C66.2849 31.973 66.1582 31.8886 66.0211 31.7925C65.5592 31.4569 64.999 30.9903 64.6667 30.3887C64.6542 30.3646 64.6414 30.3397 64.6284 30.3171C64.3098 29.6746 64.0512 29.0581 63.9511 28.5717C63.9233 28.4518 63.9056 28.3315 63.8984 28.2117C63.8806 27.9199 63.9411 27.7183 64.0278 27.6842C64.052 27.6754 64.0803 27.6747 64.1076 27.6822C64.2038 27.6985 64.3734 27.7611 64.5968 27.8611C64.7635 27.9341 64.9593 28.0285 65.1786 28.1398C65.7641 28.4573 66.5183 28.9122 66.8593 29.5909C66.871 29.6143 66.8818 29.6391 66.8929 29.6611C67.2296 30.3686 67.4094 30.9916 67.3819 31.4789C67.3791 31.6281 67.3543 31.7741 67.3079 31.9136C67.2692 32.0458 67.2019 32.1683 67.1089 32.2752C67.1 32.2844 67.0903 32.293 67.0798 32.3009C67.3609 32.8867 67.6372 33.5175 67.8957 34.1905C68.0402 34.5662 68.1788 34.9555 68.31 35.3551C68.3116 35.3503 68.3164 35.3465 68.3205 35.3417C68.3449 35.3116 68.3683 35.2754 68.3957 35.2361C68.3982 35.2283 68.4054 35.2216 68.4104 35.2142C68.3538 35.1207 68.3329 34.9419 68.3251 34.6929C68.3217 34.5778 68.3228 34.447 68.3233 34.3041C68.3435 33.8144 68.3741 33.1638 68.6846 32.6016C68.6969 32.5793 68.7091 32.5571 68.7223 32.5352C69.0795 31.9603 69.4829 31.4563 69.9274 31.1609C70.0353 31.0846 70.1524 31.0175 70.2774 30.9605C70.5875 30.8187 70.8647 30.7824 70.9608 30.8257C70.9852 30.8383 71.0043 30.8574 71.0145 30.8794C71.0577 30.9531 71.0946 31.0933 71.1347 31.2927C71.1637 31.4402 71.1935 31.6194 71.2278 31.8259C71.2998 32.3883 71.404 33.1654 71.032 33.7764C71.0192 33.7972 71.0059 33.8179 70.9917 33.8382C70.5877 34.4606 70.1244 34.9129 69.5989 35.1229C69.4405 35.1924 69.2692 35.2427 69.0893 35.2725C68.9184 35.3046 68.7386 35.3116 68.5574 35.2932C68.5254 35.2896 68.4937 35.2813 68.4638 35.2687C68.442 35.3111 68.4224 35.353 68.4029 35.3851C68.38 35.4243 68.3618 35.4556 68.3506 35.4745C68.581 36.1906 68.7862 36.9424 68.952 37.7235C69.1298 38.5613 69.2551 39.4009 69.3273 40.2386C69.3292 40.2371 69.3309 40.2355 69.3325 40.2337C69.3651 40.2034 69.3975 40.1644 69.435 40.1238C69.4415 40.1161 69.4484 40.1089 69.4554 40.1014C69.4039 39.9907 69.4077 39.7888 69.4382 39.5105C69.4521 39.3814 69.4728 39.2356 69.495 39.0756C69.5923 38.5311 69.7258 37.8083 70.1678 37.213C70.1849 37.1899 70.2032 37.1664 70.2212 37.1436C70.7205 36.5406 71.2586 36.02 71.8152 35.7375C71.9506 35.6635 72.0954 35.6009 72.2476 35.5503C72.6254 35.4271 72.9516 35.4131 73.0528 35.4736C73.0795 35.4899 73.0989 35.5135 73.1072 35.5394C73.1458 35.6255 73.1663 35.7866 73.1801 36.0126C73.1911 36.1796 73.1984 36.3831 73.2069 36.6176C73.2044 37.2535 73.2074 38.1333 72.6865 38.7751C72.6682 38.797 72.6495 38.8187 72.6308 38.8388C72.0737 39.4906 71.471 39.9457 70.8358 40.1243C70.6429 40.1861 70.4378 40.2248 70.2257 40.2395C70.0247 40.2569 69.8174 40.2452 69.6123 40.2048C69.5755 40.1974 69.5397 40.1848 69.5066 40.1674C69.4743 40.2125 69.4462 40.257 69.4185 40.291C69.3813 40.3386 69.3527 40.3752 69.3387 40.3935C69.3726 40.8242 69.3944 41.2592 69.3997 41.6983C69.4114 42.6827 69.3476 43.6587 69.2087 44.6203C69.2422 44.6029 69.2765 44.5833 69.3146 44.5625L69.3431 44.5468C69.3294 44.432 69.4052 44.2477 69.5325 43.9998C69.592 43.8846 69.6621 43.7556 69.7417 43.6145C70.0288 43.1404 70.4149 42.5077 71.0605 42.0705C71.086 42.053 71.1122 42.0362 71.1379 42.0195C71.8461 41.5882 72.5642 41.2439 73.216 41.1238C73.3765 41.0897 73.5421 41.0679 73.7109 41.0589C74.1303 41.0379 74.4569 41.1058 74.5381 41.1876C74.5589 41.2086 74.5703 41.2345 74.57 41.2601C74.5786 41.3495 74.5425 41.5021 74.4774 41.7132C74.4293 41.8698 74.3658 42.0585 74.2915 42.2761C74.0642 42.8587 73.7611 43.6694 73.0179 44.1306C72.9921 44.146 72.9659 44.1612 72.9393 44.1759C72.1575 44.6374 71.3995 44.9071 70.7057 44.9139C70.493 44.9222 70.2763 44.9063 70.0613 44.8667C69.8545 44.833 69.6516 44.771 69.4608 44.6833C69.4269 44.6674 69.3959 44.6467 69.3694 44.6223C69.3216 44.6555 69.2781 44.6897 69.2384 44.7137C69.22 44.7253 69.2038 44.736 69.1889 44.7459C69.1325 45.1184 69.0645 45.4906 68.985 45.8625C68.7449 46.9858 68.4036 48.0821 67.9639 49.1424L68.0264 49.1218L68.0598 49.1109C68.0738 48.9953 68.1952 48.824 68.3866 48.5989C68.4752 48.4943 68.5795 48.3788 68.6949 48.2509C69.1075 47.8251 69.6588 47.2622 70.4396 46.9345C70.47 46.9218 70.4987 46.9086 70.5318 46.8972C71.3703 46.5853 72.2009 46.3627 72.9094 46.3497C73.0849 46.3425 73.2628 46.3485 73.4411 46.3674C73.8822 46.4155 74.2085 46.538 74.2739 46.6323C74.2903 46.6572 74.2956 46.6852 74.2887 46.7107C74.2759 46.8006 74.2028 46.9466 74.0848 47.1455C73.995 47.2931 73.883 47.4702 73.7556 47.6743C73.3815 48.2152 72.8743 48.9697 71.9912 49.3049C71.9603 49.3157 71.9296 49.3258 71.8986 49.3371C70.974 49.6654 70.1198 49.8075 69.3964 49.7001C69.1727 49.6727 68.9505 49.6211 68.7355 49.5466C68.5285 49.4791 68.3321 49.384 68.1545 49.2654C68.1228 49.2439 68.0951 49.2184 68.0729 49.1899C68.0142 49.2143 67.9634 49.2412 67.9168 49.2584C67.8208 49.4841 67.7203 49.708 67.615 49.9302C67.0231 51.1584 66.2782 52.318 65.3914 53.3918L65.4308 53.3862C65.4753 53.2689 65.6504 53.1133 65.9157 52.9142C66.0389 52.8216 66.1812 52.7204 66.34 52.609C66.8967 52.2416 67.6395 51.7565 68.5703 51.5565C68.6068 51.5487 68.6442 51.5395 68.6791 51.5337C69.6709 51.3603 70.6318 51.2776 71.4067 51.3906C71.599 51.4141 71.7906 51.4517 71.9793 51.5028C72.449 51.6321 72.7725 51.8167 72.8199 51.926C72.8332 51.9541 72.834 51.9839 72.8223 52.0098C72.7864 52.1004 72.6693 52.2383 72.4907 52.4234C72.3586 52.5606 72.191 52.723 72.0019 52.9125C71.4579 53.4058 70.715 54.0969 69.6679 54.2862C69.6318 54.2926 69.5955 54.298 69.5607 54.3039C68.4705 54.479 67.5039 54.474 66.742 54.2328C66.5054 54.1649 66.2766 54.0718 66.0616 53.9562C65.8531 53.8491 65.663 53.7157 65.499 53.5615C65.4702 53.5336 65.4468 53.5022 65.43 53.4689C65.3867 53.4786 65.3457 53.4894 65.3073 53.4983C65.2859 53.5237 65.2649 53.5496 65.2435 53.575C64.7691 54.1292 64.2621 54.6553 63.7311 55.1525C63.1932 55.6441 62.6331 56.1056 62.0529 56.5366C61.9386 56.6201 61.8238 56.7022 61.7084 56.7829L61.7415 56.7842L61.7818 56.785C61.8542 56.6804 62.0666 56.5602 62.3798 56.4137C62.5252 56.3454 62.6925 56.272 62.8773 56.1915C63.523 55.9317 64.3834 55.59 65.3673 55.5523C65.4059 55.5505 65.4448 55.5496 65.4836 55.549C66.5213 55.5458 67.5071 55.6248 68.2601 55.8604C68.4488 55.9145 68.6334 55.9823 68.8117 56.0631C69.2543 56.2637 69.5355 56.4927 69.5585 56.6052C69.5628 56.6345 69.5537 56.6627 69.5331 56.684C69.4755 56.7647 69.3258 56.8778 69.1032 57.025C68.9382 57.1352 68.7338 57.2637 68.4976 57.4122C67.8355 57.795 66.9272 58.3354 65.8303 58.3427C65.7922 58.3427 65.7544 58.3419 65.7166 58.3411C64.5797 58.3294 63.6089 58.1662 62.898 57.8098C62.6759 57.7057 62.4673 57.5792 62.2776 57.4336C62.0931 57.2968 61.9332 57.138 61.8043 56.9635C61.7814 56.9321 61.7651 56.8981 61.756 56.8633C61.6926 56.8665 61.6324 56.872 61.5793 56.8732C60.5908 57.557 59.5306 58.1683 58.4083 58.7017C57.9819 58.9029 57.5564 59.0898 57.1315 59.2624L57.2319 59.2862L57.2725 59.2957C57.3755 59.2124 57.6232 59.1433 57.9796 59.0704C58.143 59.0357 58.3335 59.0021 58.5416 58.9659C59.2584 58.8533 60.2196 58.7102 61.2161 58.8768L61.3337 58.8976C62.3726 59.1107 63.3366 59.3861 64.0223 59.7626C64.1952 59.8526 64.3601 59.9543 64.5153 60.0665C64.8975 60.3441 65.1129 60.6181 65.1024 60.7291C65.0986 60.7576 65.0817 60.7824 65.0552 60.7984C64.9741 60.8626 64.791 60.9375 64.5239 61.0294C64.3265 61.0985 64.0844 61.1772 63.8043 61.2682C63.0296 61.4908 61.9634 61.8097 60.8625 61.5922C60.8245 61.5844 60.7872 61.5756 60.7495 61.5667C59.6146 61.3226 58.6909 60.9682 58.083 60.4874C57.891 60.344 57.7192 60.1823 57.5722 60.0064C57.4273 59.8398 57.3135 59.6576 57.2354 59.4672C57.2223 59.4331 57.2164 59.3981 57.218 59.3639C57.1435 59.3525 57.0721 59.3441 57.0141 59.3323L56.9729 59.3247C56.2099 59.6304 55.4563 59.8929 54.7258 60.1168C53.8705 60.3783 53.0507 60.5913 52.2796 60.7635L52.2949 60.7709C52.3493 60.7975 52.4122 60.8227 52.4803 60.8521L52.5186 60.8686C52.6433 60.8079 52.9091 60.7862 53.2858 60.7808C53.4603 60.778 53.6589 60.7788 53.8781 60.7805C54.6315 60.8044 55.6348 60.8404 56.5916 61.1769C56.6298 61.1893 56.6672 61.2038 56.7042 61.2182C57.6956 61.6047 58.5925 62.0408 59.1853 62.5209C59.3359 62.6375 59.4756 62.7637 59.6028 62.8982C59.918 63.2326 60.065 63.5314 60.025 63.6333C60.0136 63.6596 59.9905 63.6802 59.9601 63.6913C59.8624 63.7378 59.6597 63.7761 59.3691 63.8163C59.156 63.8476 58.8922 63.8788 58.5858 63.9147C57.7505 63.9873 56.5979 64.0993 55.5491 63.6955C55.5131 63.6814 55.4773 63.6666 55.4419 63.6519C54.365 63.2157 53.526 62.7137 53.0356 62.1473C52.8792 61.9766 52.7477 61.792 52.6446 61.5984C52.5412 61.4144 52.4732 61.221 52.4434 61.0261C52.4385 60.9913 52.441 60.9568 52.4509 60.9243C52.3787 60.901 52.3094 60.8786 52.2537 60.8578L52.1026 60.8024C51.8653 60.8537 51.6317 60.9012 51.4046 60.9447C50.9028 61.0528 50.4202 61.1172 49.98 61.1981L48.7547 61.3704L47.7545 61.4821C47.4635 61.5144 47.2182 61.5292 47.0183 61.548L46.4053 61.5997L46.2651 61.0598L46.88 61.0132C47.0796 60.9968 47.3304 60.9838 47.6152 60.9552Z" fill="#757575" fill-opacity="0.58"/>
</g>
<g clip-path="url(#clip2_295_16446)">
<path opacity="0.4" d="M32.2247 60.9853L31.245 60.8937L30.0351 60.7465C29.6006 60.676 29.1226 60.6199 28.627 60.5229C28.3651 60.4779 28.096 60.4277 27.8195 60.3725C27.8136 60.347 27.8059 60.3147 27.7969 60.2767C27.7873 60.2295 27.768 60.1744 27.7515 60.1156C27.7917 60.1021 27.8296 60.0831 27.8637 60.0595C28.052 59.9262 28.2164 59.77 28.3498 59.5974C28.4937 59.419 28.6115 59.2283 28.6999 59.0304C29.0114 58.3943 29.0495 57.5789 28.8781 56.6543C28.8728 56.6233 28.8677 56.5926 28.8616 56.5619C28.6722 55.6724 27.8787 55.0243 27.3133 54.5501C27.0965 54.3828 26.9091 54.238 26.7506 54.1222C26.5376 53.9663 26.3781 53.8631 26.2721 53.8302C26.2428 53.8171 26.2072 53.8143 26.1723 53.8224C26.0415 53.8588 25.8122 54.1263 25.6437 54.5182C25.5767 54.6769 25.5259 54.8384 25.492 55.0009C25.3319 55.6515 25.3979 56.4664 25.5694 57.3069C25.5769 57.3385 25.5842 57.3696 25.5925 57.4009C25.798 58.1933 26.3476 58.8345 26.7635 59.3153C26.8904 59.4523 27.0029 59.5768 27.1107 59.6824C27.3396 59.9121 27.516 60.065 27.6529 60.1065C27.6565 60.1172 27.6562 60.1288 27.6583 60.1395C27.6669 60.1994 27.6777 60.2532 27.6808 60.3025C27.6823 60.3176 27.6838 60.3315 27.6852 60.3449C26.9451 60.1935 26.1604 60.0043 25.3429 59.77C24.5723 59.5499 23.775 59.2875 22.9683 58.9766C22.9671 58.9557 22.9658 58.932 22.9644 58.9054C22.963 58.8567 22.9539 58.7986 22.9479 58.7375C22.9891 58.7291 23.0292 58.7146 23.066 58.6946C23.2719 58.5832 23.4584 58.4457 23.6178 58.2878C23.7874 58.126 23.9338 57.9488 24.0534 57.7609C24.4638 57.1579 24.6421 56.3398 24.6355 55.3864C24.6357 55.3548 24.6357 55.3228 24.6354 55.2909C24.6049 54.3712 23.9458 53.6208 23.4779 53.0741C23.2962 52.8791 23.1393 52.7099 23.0069 52.5747C22.8275 52.3913 22.6906 52.2699 22.5923 52.2206C22.566 52.2044 22.5321 52.198 22.4973 52.2026C22.3638 52.2235 22.0954 52.465 21.8643 52.84C21.7717 52.9913 21.6941 53.1474 21.6325 53.3067C21.3655 53.9432 21.2897 54.7727 21.3115 55.6416C21.3132 55.6743 21.3149 55.7069 21.3173 55.7389C21.381 56.5623 21.8038 57.2768 22.1254 57.8118C22.227 57.965 22.3156 58.1044 22.3992 58.2246C22.58 58.4842 22.7267 58.6597 22.853 58.7182L22.8522 58.7525C22.85 58.8134 22.8511 58.8688 22.8457 58.9185C22.8469 58.9222 22.8454 58.9268 22.8448 58.9311C22.4625 58.7818 22.0788 58.6211 21.6937 58.4489C20.5686 57.9411 19.5039 57.3549 18.509 56.6954L18.5162 56.6451C18.5247 56.5956 18.5273 56.5361 18.5341 56.4752C18.5755 56.4724 18.617 56.4633 18.6565 56.4486C18.8785 56.364 19.0866 56.25 19.2722 56.1115C19.4684 55.972 19.6452 55.8137 19.7982 55.6406C20.3143 55.0895 20.6458 54.2902 20.8267 53.3282C20.8334 53.2965 20.8401 53.2644 20.8457 53.2322C20.9946 52.3013 20.5096 51.4529 20.1638 50.8358C20.0267 50.6141 19.9085 50.4222 19.806 50.2665C19.6686 50.0564 19.56 49.913 19.4754 49.8529C19.4532 49.8328 19.4217 49.8215 19.387 49.8212C19.2543 49.8243 18.9476 50.0301 18.6512 50.3756C18.5318 50.5151 18.4262 50.6618 18.3357 50.8139C17.9528 51.4183 17.7164 52.2422 17.5674 53.1223C17.5625 53.1551 17.5578 53.1886 17.554 53.2214C17.4532 54.0597 17.7212 54.8383 17.926 55.4231C17.992 55.5913 18.0518 55.744 18.1092 55.877C18.2324 56.1639 18.34 56.361 18.4481 56.4382C18.4453 56.4498 18.443 56.4612 18.4405 56.4723C18.4279 56.5277 18.4188 56.5787 18.4061 56.6247C18.2908 56.5468 18.1759 56.4683 18.0614 56.3891C17.4818 55.9779 16.9201 55.5332 16.379 55.0603C15.8453 54.5818 15.3337 54.0734 14.8556 53.5358C14.8401 53.5184 14.8252 53.5008 14.8102 53.4833L14.8267 53.4397C14.847 53.392 14.8642 53.3318 14.8854 53.2698C14.9254 53.2744 14.967 53.2727 15.0083 53.2647C15.2388 53.2185 15.4634 53.1409 15.6729 53.0351C15.8939 52.9288 16.1011 52.8001 16.2891 52.6523C16.9147 52.1874 17.4257 51.4412 17.8328 50.505C17.847 50.4741 17.863 50.4425 17.8741 50.4118C18.2456 49.5013 17.9871 48.5646 17.8099 47.885C17.7336 47.6382 17.6674 47.425 17.6081 47.2508C17.5298 47.0149 17.4602 46.8528 17.394 46.7773C17.3778 46.7534 17.3506 46.7366 17.3179 46.7304C17.1905 46.71 16.8484 46.8641 16.4812 47.1605C16.3335 47.2802 16.1971 47.4093 16.0736 47.5466C15.5615 48.0882 15.1349 48.8756 14.7781 49.7349C14.7655 49.7674 14.7528 49.7999 14.7412 49.8324C14.4403 50.658 14.506 51.4873 14.5582 52.1109C14.58 52.2914 14.5998 52.4553 14.6219 52.5987C14.6692 52.9084 14.7235 53.1256 14.8098 53.2215L14.7943 53.2546C14.7703 53.3035 14.7505 53.351 14.7293 53.3929C13.8179 52.3423 13.0476 51.2027 12.4303 49.9912C12.3295 49.7897 12.2323 49.5867 12.1386 49.3823L12.2194 49.2531C12.2467 49.2112 12.2744 49.1582 12.3056 49.1036C12.3403 49.1135 12.3776 49.1179 12.4158 49.1166C12.6292 49.1068 12.8439 49.0671 13.0509 48.9992C13.2683 48.9322 13.478 48.8423 13.6745 48.732C14.3241 48.3899 14.9283 47.7701 15.4773 46.9593C15.4965 46.9328 15.515 46.9058 15.533 46.8785C16.0473 46.0858 16.0098 45.1774 15.9912 44.5202C15.974 44.28 15.9594 44.0718 15.9415 43.9015C15.919 43.6712 15.892 43.5102 15.8487 43.4303C15.8394 43.4056 15.8187 43.3861 15.7909 43.3757C15.6824 43.3384 15.3482 43.4321 14.9627 43.6547C14.8083 43.7444 14.6619 43.8444 14.5251 43.9535C13.9611 44.3833 13.4231 45.054 12.9318 45.801C12.9141 45.829 12.8967 45.8577 12.8797 45.8863C12.445 46.6108 12.3335 47.3908 12.2517 47.9798C12.2333 48.1498 12.2185 48.3059 12.2084 48.4428C12.187 48.7368 12.1912 48.9473 12.2483 49.0488L12.2277 49.0774C12.1908 49.1286 12.1587 49.1761 12.1258 49.2165L12.0849 49.271C11.6162 48.2168 11.2472 47.124 10.9811 46.0017C10.8892 45.6224 10.8117 45.2416 10.7485 44.8593L10.8468 44.7645C10.886 44.7293 10.9251 44.6848 10.9695 44.6389C10.9979 44.6559 11.0303 44.668 11.0653 44.6747C11.2597 44.7112 11.4643 44.7188 11.6705 44.6972C11.886 44.6789 12.1013 44.6371 12.311 44.5728C12.9968 44.3812 13.7266 43.9128 14.4659 43.2478C14.4909 43.2265 14.5156 43.2043 14.5403 43.1822C15.2392 42.5286 15.4803 41.6441 15.6616 41.007C15.7184 40.7718 15.7674 40.5682 15.8032 40.4002C15.8522 40.1738 15.8778 40.012 15.8616 39.9264C15.8606 39.9007 15.8478 39.8775 15.8259 39.8616C15.7395 39.8022 15.4112 39.8214 14.9978 39.9541C14.8313 40.0076 14.669 40.0732 14.5128 40.1498C13.8769 40.4428 13.1923 40.9753 12.526 41.5907C12.5012 41.614 12.4772 41.638 12.4529 41.6616C11.8451 42.2674 11.5103 42.9957 11.261 43.5443C11.1936 43.706 11.1331 43.8519 11.083 43.9816C10.9754 44.2612 10.9155 44.4642 10.9363 44.5741L10.9094 44.5974C10.8606 44.639 10.8175 44.6779 10.7757 44.7098L10.7287 44.7475C10.5737 43.8072 10.4915 42.8518 10.4825 41.8869C10.4784 41.4023 10.4922 40.9222 10.524 40.4467L10.5718 40.4083C10.6122 40.3768 10.6577 40.3347 10.7073 40.2924C10.733 40.3119 10.7633 40.3268 10.7967 40.3365C10.9829 40.3904 11.1829 40.4159 11.388 40.4119C11.6017 40.4124 11.8181 40.389 12.0318 40.3421C12.7284 40.2089 13.5023 39.8 14.3096 39.194C14.3368 39.1748 14.3636 39.1544 14.3913 39.1337C15.1593 38.5351 15.5024 37.6651 15.7588 37.0379C15.8433 36.8049 15.9167 36.6048 15.9725 36.4387C16.0482 36.2145 16.0917 36.0541 16.0879 35.9661C16.09 35.94 16.0802 35.9156 16.0606 35.8977C15.9833 35.8303 15.6587 35.8212 15.2368 35.9186C15.0668 35.9583 14.8995 36.0102 14.7368 36.0739C14.0769 36.3146 13.3392 36.7914 12.6095 37.3536C12.5825 37.3748 12.5557 37.3968 12.5294 37.4187C11.8582 37.9762 11.4401 38.6817 11.1284 39.2126C11.0426 39.3697 10.9654 39.5126 10.8997 39.638C10.7602 39.9105 10.6767 40.1096 10.6831 40.2226L10.6534 40.2435C10.6095 40.2753 10.5717 40.3038 10.5297 40.3304C10.5868 39.5313 10.6927 38.7298 10.8469 37.9291C11.001 37.1211 11.1982 36.343 11.4231 35.6029L11.5476 35.5378C11.5914 35.5167 11.6369 35.4881 11.688 35.4597C11.7042 35.4815 11.7254 35.5001 11.7505 35.5147C11.8916 35.594 12.0507 35.6511 12.2212 35.6835C12.3975 35.7212 12.5821 35.7382 12.7701 35.7341C13.3781 35.7372 14.1183 35.5133 14.9342 35.1204C14.9612 35.1081 14.9885 35.0954 15.0155 35.0819C15.7972 34.6885 16.2947 33.9833 16.6607 33.4762C16.7875 33.2866 16.8993 33.1221 16.9842 32.9857C17.1023 32.8019 17.1777 32.6687 17.196 32.5905C17.2041 32.5678 17.2022 32.5444 17.1906 32.5251C17.1431 32.4527 16.8765 32.3883 16.5042 32.4008C16.3541 32.4058 16.2031 32.4223 16.053 32.4501C15.4487 32.547 14.7221 32.8378 13.9809 33.2059L13.8986 33.2492C13.2084 33.6224 12.6883 34.1708 12.3004 34.5839C12.1888 34.7075 12.0914 34.8172 12.0069 34.9182C11.824 35.1338 11.7064 35.2945 11.684 35.3942L11.6544 35.4077C11.6014 35.4318 11.5541 35.4549 11.5099 35.472L11.4558 35.4945C11.5719 35.1191 11.6944 34.7523 11.8225 34.3979C12.0654 33.7272 12.3262 33.0981 12.5928 32.5125C12.7054 32.5161 12.9232 32.4103 13.2099 32.2258C13.3256 32.1522 13.4516 32.0668 13.5879 31.9696C14.0471 31.6303 14.6036 31.1592 14.9312 30.5551C14.9435 30.5309 14.956 30.5059 14.9688 30.4832C15.2824 29.8382 15.536 29.2197 15.6323 28.7324C15.6592 28.6124 15.6758 28.4919 15.6821 28.3721C15.6976 28.0801 15.6355 27.879 15.5486 27.8456C15.5243 27.837 15.4959 27.8365 15.4687 27.8442C15.3727 27.8613 15.2036 27.9252 14.981 28.027C14.8149 28.1013 14.6198 28.1972 14.4014 28.3103C13.8184 28.6324 13.0678 29.0934 12.7323 29.7747C12.7208 29.7982 12.7102 29.8231 12.6992 29.8451C12.3681 30.5554 12.1933 31.1797 12.2247 31.6668C12.2286 31.8159 12.2546 31.9617 12.3021 32.1009C12.3418 32.2328 12.4102 32.3547 12.504 32.4609C12.5129 32.47 12.5227 32.4785 12.5333 32.4864C12.2568 33.0744 11.9856 33.7074 11.7324 34.3823C11.5908 34.7592 11.4553 35.1496 11.3273 35.5502C11.3257 35.5454 11.3209 35.5417 11.3168 35.5369C11.2921 35.507 11.2685 35.471 11.2407 35.4319C11.2381 35.4241 11.2309 35.4175 11.2259 35.4102C11.2817 35.3162 11.3012 35.1373 11.307 34.8882C11.3095 34.773 11.3073 34.6422 11.3057 34.4993C11.2816 34.0098 11.2459 33.3595 10.9309 32.7997C10.9185 32.7776 10.9061 32.7555 10.8927 32.7337C10.5309 32.1617 10.1236 31.6609 9.6767 31.369C9.56823 31.2936 9.45058 31.2274 9.32518 31.1714C9.01389 31.0321 8.73648 30.998 8.64071 31.042C8.61642 31.0548 8.59746 31.074 8.58745 31.0962C8.54484 31.1701 8.50907 31.3107 8.47052 31.5103C8.44273 31.6581 8.41428 31.8376 8.38164 32.0443C8.31408 32.6072 8.21612 33.3851 8.59292 33.9932C8.6059 34.0139 8.61933 34.0344 8.63367 34.0547C9.04264 34.6738 9.50951 35.1225 10.0367 35.3282C10.1956 35.3965 10.3673 35.4455 10.5475 35.4738C10.7186 35.5045 10.8984 35.5101 11.0795 35.4903C11.1114 35.4865 11.1431 35.4779 11.1729 35.465C11.195 35.5073 11.215 35.549 11.2347 35.581C11.2579 35.62 11.2764 35.6512 11.2877 35.6699C11.063 36.3879 10.8637 37.1412 10.7042 37.9236C10.5331 38.7628 10.4144 39.6034 10.3488 40.4417C10.3469 40.4402 10.3452 40.4386 10.3437 40.4368C10.3108 40.4068 10.2781 40.368 10.2403 40.3277C10.2337 40.3201 10.2267 40.313 10.2197 40.3055C10.2703 40.1944 10.2649 39.9925 10.2322 39.7145C10.2173 39.5854 10.1954 39.4398 10.1719 39.28C10.0703 38.7363 9.93105 38.0146 9.48433 37.4228C9.46705 37.3998 9.44861 37.3765 9.43041 37.3538C8.92636 36.7548 8.38414 36.2385 7.82534 35.9605C7.68928 35.8876 7.54406 35.826 7.39141 35.7766C7.01269 35.6564 6.68637 35.6451 6.58563 35.7064C6.5591 35.7229 6.53984 35.7466 6.5318 35.7726C6.49382 35.859 6.47459 36.0202 6.46262 36.2463C6.45296 36.4135 6.44724 36.617 6.44062 36.8515C6.44817 37.4875 6.45216 38.3672 6.97819 39.0048C6.9966 39.0266 7.01547 39.0482 7.03431 39.0682C7.59661 39.7155 8.20293 40.1658 8.83949 40.3394C9.03286 40.3996 9.23832 40.4367 9.45048 40.4497C9.65159 40.4655 9.85887 40.4521 10.0636 40.4101C10.1004 40.4025 10.136 40.3895 10.169 40.3719C10.2017 40.4168 10.2301 40.461 10.2581 40.4947C10.2957 40.5421 10.3245 40.5784 10.3387 40.5967C10.3082 41.0276 10.2899 41.4628 10.288 41.9019C10.2842 42.8863 10.3557 43.8618 10.5022 44.8223C10.4686 44.8051 10.4342 44.7858 10.3958 44.7654L10.3673 44.7498C10.38 44.635 10.3028 44.4512 10.1735 44.2044C10.1131 44.0896 10.0419 43.9612 9.96126 43.8208C9.67036 43.3489 9.2793 42.7194 8.63021 42.2873C8.60462 42.27 8.57823 42.2533 8.55243 42.2369C7.84085 41.8112 7.12001 41.4726 6.4673 41.3577C6.30654 41.3248 6.14076 41.3044 5.97189 41.2968C5.55238 41.279 5.22627 41.3496 5.14578 41.432C5.12511 41.4531 5.1139 41.4792 5.11444 41.5047C5.1065 41.5942 5.14383 41.7465 5.21067 41.9571C5.25995 42.1133 5.32496 42.3015 5.40103 42.5185C5.63293 43.0992 5.94238 43.9075 6.68924 44.3628C6.71514 44.378 6.74149 44.393 6.76818 44.4075C7.55367 44.8628 8.31376 45.1264 9.00761 45.1277C9.22039 45.1343 9.43697 45.1167 9.65165 45.0754C9.85811 45.0401 10.0605 44.9765 10.2506 44.8873C10.2844 44.8711 10.3152 44.8502 10.3415 44.8256C10.3896 44.8584 10.4333 44.8922 10.4732 44.9159C10.4918 44.9273 10.508 44.9379 10.523 44.9477C10.5824 45.3198 10.6533 45.6914 10.7358 46.0626C10.9847 47.184 11.3347 48.2776 11.7829 49.3344L11.7202 49.3142L11.6867 49.3036C11.6718 49.1881 11.5491 49.0178 11.3559 48.7942C11.2664 48.6903 11.1612 48.5756 11.0448 48.4487C10.6289 48.0262 10.0731 47.4677 9.28978 47.1461C9.25921 47.1337 9.23048 47.1207 9.19728 47.1096C8.35625 46.8044 7.52399 46.5884 6.81537 46.581C6.63979 46.5752 6.46194 46.5826 6.28386 46.6029C5.84311 46.6545 5.51783 46.7796 5.45314 46.8745C5.43692 46.8994 5.43186 46.9275 5.43899 46.9529C5.4525 47.0427 5.52671 47.1881 5.64634 47.3861C5.7373 47.5329 5.85074 47.7092 5.9797 47.9123C6.35813 48.4501 6.87125 49.2007 7.75701 49.5288C7.788 49.5394 7.81875 49.5493 7.84987 49.5602C8.777 49.8812 9.63237 50.0165 10.3549 49.9034C10.5784 49.8742 10.8001 49.8209 11.0145 49.7447C11.221 49.6755 11.4166 49.5789 11.5932 49.4588C11.6248 49.4371 11.6523 49.4114 11.6743 49.3827C11.7331 49.4067 11.7841 49.4332 11.8309 49.45C11.9286 49.6749 12.031 49.898 12.138 50.1193C12.7396 51.3428 13.4937 52.4965 14.389 53.5632L14.3496 53.5579C14.3042 53.441 14.1279 53.2868 13.861 53.0897C13.737 52.9981 13.5939 52.8981 13.4342 52.788C12.8747 52.425 12.1281 51.9458 11.1957 51.7532C11.1591 51.7457 11.1216 51.7368 11.0866 51.7312C10.0936 51.5657 9.13204 51.4906 8.35808 51.6098C8.16595 51.6349 7.97463 51.674 7.78634 51.7266C7.31765 51.8596 6.99565 52.0468 6.94913 52.1565C6.93609 52.1846 6.93548 52.2144 6.94742 52.2402C6.984 52.3305 7.10221 52.4675 7.28222 52.6512C7.4154 52.7873 7.58436 52.9484 7.77494 53.1364C8.32286 53.6253 9.0712 54.3105 10.1198 54.4915C10.1559 54.4976 10.1922 54.5028 10.2271 54.5084C11.3187 54.6748 12.2852 54.6622 13.0451 54.4149C13.2812 54.3451 13.5093 54.2502 13.7233 54.1329C13.931 54.0241 14.12 53.8892 14.2828 53.7337C14.3114 53.7056 14.3345 53.6741 14.3511 53.6406C14.3944 53.65 14.4355 53.6605 14.474 53.669C14.4956 53.6942 14.5168 53.72 14.5384 53.7452C15.0172 54.2956 15.5283 54.8177 16.0632 55.3106C16.605 55.798 17.1688 56.2551 17.7524 56.6814C17.8673 56.764 17.9828 56.8452 18.0988 56.925L18.0657 56.9265L18.0254 56.9276C17.9522 56.8237 17.7389 56.7051 17.4245 56.5611C17.2786 56.494 17.1107 56.4219 16.9252 56.3429C16.2775 56.0882 15.4145 55.7534 14.4303 55.7235C14.3916 55.7219 14.3527 55.7213 14.314 55.7211C13.2763 55.7261 12.2911 55.8129 11.54 56.0544C11.3517 56.1101 11.1677 56.1794 10.9901 56.2615C10.5491 56.4657 10.2697 56.6969 10.2475 56.8096C10.2435 56.8389 10.2529 56.867 10.2736 56.8882C10.3318 56.9685 10.4824 57.0803 10.7062 57.2257C10.872 57.3346 11.0774 57.4615 11.3148 57.6081C11.9799 57.9857 12.8925 58.5188 13.9894 58.5174C14.0275 58.5171 14.0653 58.516 14.1031 58.5149C15.2399 58.4942 16.2093 58.3233 16.9174 57.9612C17.1387 57.8554 17.3462 57.7273 17.5348 57.5802C17.7182 57.4419 17.8769 57.2818 18.0043 57.1063C18.027 57.0747 18.0431 57.0407 18.0518 57.0057C18.1153 57.0085 18.1755 57.0135 18.2287 57.0143C19.2225 57.6901 20.2875 58.293 21.4141 58.8175C21.842 59.0153 22.269 59.1988 22.6952 59.368L22.595 59.3927L22.5545 59.4024C22.4509 59.32 22.2027 59.2528 21.8457 59.1828C21.682 59.1494 21.4912 59.1173 21.2829 59.0827C20.5651 58.9759 19.6029 58.8403 18.6077 59.0149L18.4903 59.0366C17.4531 59.2579 16.4914 59.541 15.8087 59.9229C15.6365 60.0143 15.4724 60.1173 15.3181 60.2307C14.9381 60.5114 14.7248 60.787 14.7362 60.898C14.7403 60.9264 14.7574 60.9511 14.784 60.9669C14.8657 61.0304 15.0493 61.1039 15.3172 61.1937C15.5151 61.2612 15.7578 61.338 16.0386 61.4267C16.8151 61.6432 17.8837 61.9536 18.9828 61.7274C19.0208 61.7193 19.058 61.7102 19.0957 61.701C20.2286 61.4479 21.1495 61.0862 21.7535 60.6005C21.9444 60.4557 22.1149 60.2926 22.2605 60.1155C22.404 59.9478 22.5164 59.7647 22.593 59.5736C22.6058 59.5395 22.6114 59.5044 22.6096 59.4702C22.6839 59.4582 22.7553 59.4493 22.8133 59.437L22.8544 59.4291C23.6198 59.7287 24.3755 59.9853 25.1077 60.2033C25.965 60.4581 26.7865 60.6645 27.559 60.8306L27.5437 60.8382C27.4895 60.8651 27.4268 60.8909 27.3589 60.9208L27.3207 60.9376C27.1956 60.8779 26.9297 60.8583 26.5529 60.8559C26.3784 60.8544 26.1798 60.8568 25.9606 60.8603C25.2074 60.8902 24.2045 60.9341 23.2503 61.2783C23.2123 61.2909 23.175 61.3057 23.1381 61.3204C22.1497 61.7148 21.2564 62.158 20.6674 62.6428C20.5177 62.7606 20.379 62.8879 20.2529 63.0233C19.9404 63.3602 19.7957 63.6602 19.8366 63.7618C19.8481 63.788 19.8714 63.8084 19.9019 63.8192C20 63.8649 20.203 63.9017 20.4938 63.9396C20.7072 63.9692 20.9712 63.9983 21.2779 64.0318C22.1138 64.0978 23.2672 64.2006 24.3128 63.7885C24.3487 63.7741 24.3844 63.7589 24.4196 63.744C25.493 63.2992 26.328 62.7906 26.8139 62.2204C26.969 62.0484 27.099 61.8628 27.2005 61.6684C27.3024 61.4835 27.3689 61.2896 27.3972 61.0945C27.4019 61.0597 27.399 61.0252 27.3889 60.9928C27.4609 60.9689 27.5301 60.9459 27.5856 60.9247L27.7362 60.8681C27.9739 60.9175 28.2079 60.9632 28.4354 61.0049C28.938 61.109 29.421 61.1695 29.8619 61.247L31.0885 61.4095L32.0896 61.5133C32.3809 61.5433 32.6263 61.5561 32.8263 61.5733L33.4397 61.6201L33.5756 61.0792L32.9604 61.0375C32.7606 61.0226 32.5097 61.0116 32.2247 60.9853Z" fill="#757575" fill-opacity="0.58"/>
</g>
<path d="M44.1298 63.9722L41.6746 67.9192L43.5868 80.9229H35.2954L37.2076 67.9192L34.7523 63.9722L38.4008 59.3291L28.6791 52.2229V47.7634C27.7626 46.2095 27.1379 44.5011 26.8358 42.7225C26.1321 42.669 25.1989 41.6746 24.2046 38.133C22.8354 33.2987 24.2887 32.5873 25.5202 32.702C25.2881 32.0547 25.109 31.3896 24.9847 30.7132C24.5016 28.6193 24.5016 26.4429 24.9847 24.349C25.6004 21.8759 26.8868 19.6207 28.7021 17.8319C29.7127 16.7516 30.8534 15.8009 32.0982 15.0016C33.1286 14.2755 34.2565 13.6986 35.4484 13.2882C36.4357 12.9512 37.4658 12.7555 38.5079 12.7069C41.1645 12.4142 43.8449 12.9798 46.1568 14.3208C47.6708 15.1277 48.9371 16.3306 49.8206 17.8013C49.8206 17.8013 55.9779 18.2373 53.8974 30.7515C53.773 31.4278 53.5939 32.0929 53.362 32.7403C54.5935 32.6255 56.0468 33.3369 54.6776 38.1712C53.6756 41.7052 52.7501 42.6919 52.0464 42.7608C51.7438 44.5224 51.1189 46.2132 50.203 47.7481V52.3377L40.5119 59.3291L44.1298 63.9722ZM9.41932 66.7565C8.67195 67.3658 8.06893 68.1333 7.65364 69.0036C7.23835 69.8739 7.02112 70.8254 7.01758 71.7897V78.5134C7.01758 79.1545 7.27223 79.7693 7.72551 80.2226C8.1788 80.6759 8.79358 80.9306 9.43462 80.9306H31.4863L26.8052 55.3668C20.6475 58.579 14.8237 62.3942 9.41932 66.7565Z" fill="#6E708F"/>
<path d="M69.6713 66.7565C70.4187 67.3658 71.0217 68.1333 71.437 69.0036C71.8523 69.8739 72.0695 70.8254 72.0731 71.7897V78.5134C72.0731 79.1545 71.8184 79.7693 71.3651 80.2226C70.9119 80.6759 70.2971 80.9306 69.656 80.9306H47.6044L52.2855 55.3668C58.4432 58.579 64.267 62.3942 69.6713 66.7565Z" fill="#6E708F"/>
<path d="M41.6742 67.9192L44.1295 63.9722L40.5115 59.3291H38.4005L34.752 63.9722L37.2072 67.9192L35.295 80.923H43.5864L41.6742 67.9192Z" fill="#7B87FF"/>
<path fill-rule="evenodd" clip-rule="evenodd" d="M52.6547 32.4808L52.511 32.4697L51.4856 32.3778H51.3701C51.361 32.3489 51.3531 32.3201 51.3418 32.2924V32.2935C51.1686 31.8426 50.8483 31.4604 50.4318 31.2044L49.2853 30.8775H41.9191C41.6724 30.8931 41.4302 30.9507 41.2038 31.046C39.798 30.8255 38.3673 30.821 36.9603 31.0327C36.7045 30.9307 36.4306 30.8775 36.1533 30.8775H28.7848L27.6395 31.2044C27.2218 31.4581 26.9026 31.8404 26.7295 32.2913C26.7181 32.3201 26.7102 32.3489 26.7012 32.3789L26.5936 32.3877L25.5603 32.4697L25.4165 32.4808H25.4154C25.1811 32.4996 25 32.6924 25 32.9229V34.1638C25 34.3953 25.1811 34.587 25.4165 34.6059L26.5846 34.6967V34.7488C26.5733 35.9421 27.0464 37.0921 27.8998 37.9443C28.7532 38.7974 29.9179 39.285 31.137 39.2982H33.8036C35.0226 39.2849 36.1873 38.7974 37.0407 37.9443C37.8942 37.0923 38.3673 35.9422 38.356 34.7488V34.3078C38.8087 34.2823 39.2615 34.2812 39.7142 34.3056V34.7488C39.7029 35.9421 40.176 37.0921 41.0294 37.9454C41.8828 38.7975 43.0475 39.285 44.2666 39.2983H46.9332C48.1522 39.285 49.3169 38.7975 50.1704 37.9454C51.0238 37.0923 51.4969 35.9422 51.4856 34.7488V34.6967L52.6537 34.6059C52.8891 34.587 53.0702 34.3953 53.0702 34.1638V32.9228C53.0702 32.6924 52.889 32.4996 52.6547 32.4808ZM25.9055 33.755L26.5846 33.8082V33.2774L25.9055 33.3317V33.755ZM39.7141 33.4159V33.0736L39.7141 33.0004C39.2614 32.976 38.8075 32.9772 38.3548 33.0037C38.3559 33.027 38.3559 33.0514 38.3559 33.0758V33.417C38.8087 33.3937 39.2614 33.3937 39.7141 33.4159ZM39.9971 31.9545C40.0039 31.9434 40.0118 31.9323 40.0186 31.9213C40.0424 31.8814 40.073 31.8459 40.099 31.8071C39.3825 31.7529 38.6615 31.754 37.9451 31.8105C37.9745 31.8526 38.0073 31.8925 38.0345 31.9368C38.0515 31.9611 38.0662 31.9866 38.0809 32.0132C38.1024 32.052 38.1216 32.093 38.1409 32.1329C38.7283 32.0908 39.3169 32.0897 39.9043 32.1273L39.9054 32.1285C39.9247 32.0864 39.9462 32.0431 39.9677 32.0021C39.9756 31.9855 39.9858 31.97 39.9971 31.9545ZM51.4855 33.8082L52.1646 33.755V33.3317L51.4855 33.2774V33.8082Z" fill="#2B2D48"/>
</g>
<defs>
<clipPath id="clip0_295_16446">
<rect width="80" height="80" rx="40" fill="white"/>
</clipPath>
<clipPath id="clip1_295_16446">
<rect width="23.8596" height="43.5088" fill="white" transform="translate(54.7373 25.2632)"/>
</clipPath>
<clipPath id="clip2_295_16446">
<rect width="26.6667" height="43.5088" fill="white" transform="translate(0 25.2632)"/>
</clipPath>
</defs>
</svg>
