<svg width="80" height="80" viewBox="0 0 80 80" fill="none" xmlns="http://www.w3.org/2000/svg">
<g clip-path="url(#clip0_295_16555)">
<rect width="80" height="80" rx="40" fill="#282D51"/>
<path d="M28.6791 47.7634V52.2229C28.6791 52.2229 32.9038 56.6745 36.4913 57.5439C38.8884 58.1247 40.4175 58.1552 42.807 57.5439C46.229 56.6684 50.203 52.3377 50.203 52.3377V47.7481C51.1189 46.2132 51.7438 44.5224 52.0464 42.7608C52.7501 42.6919 53.6756 41.7052 54.6776 38.1712C56.0468 33.3369 54.5935 32.6255 53.362 32.7403C53.5939 32.0929 53.773 31.4278 53.8974 30.7515C55.9779 18.2373 49.8206 17.8013 49.8206 17.8013C48.9371 16.3306 47.6708 15.1277 46.1568 14.3208C43.8449 12.9798 41.1645 12.4142 38.5079 12.7069C37.4658 12.7555 36.4357 12.9512 35.4484 13.2882C34.2565 13.6986 33.1286 14.2755 32.0982 15.0016C30.8534 15.8009 29.7127 16.7516 28.7021 17.8319C26.8868 19.6207 25.6004 21.8759 24.9847 24.349C24.5016 26.4429 24.5016 28.6193 24.9847 30.7132C25.109 31.3896 25.2881 32.0547 25.5202 32.702C24.2887 32.5873 22.8354 33.2987 24.2046 38.133C25.1989 41.6746 26.1321 42.669 26.8358 42.7225C27.1379 44.5011 27.7626 46.2095 28.6791 47.7634Z" fill="#7F81A1" fill-opacity="0.8"/>
<path d="M7.65364 69.0036C8.06893 68.1333 8.67195 67.3658 9.41932 66.7565C14.8237 62.3942 20.6475 58.579 26.8052 55.3668C26.8052 55.3668 31.9114 61.4571 36.4913 62.4562C38.9011 62.9818 40.4002 62.9951 42.807 62.4562C47.3177 61.4461 52.2855 55.3668 52.2855 55.3668C58.4432 58.579 64.267 62.3942 69.6713 66.7565C70.4187 67.3658 71.0217 68.1333 71.437 69.0036C71.8523 69.8739 72.0695 70.8254 72.0731 71.7897V78.5134C72.0731 79.1545 71.8184 79.7693 71.3651 80.2226C70.9119 80.6759 70.2971 80.9306 69.656 80.9306H47.6044L31.4863 80.9306H9.43462C8.79358 80.9306 8.1788 80.6759 7.72551 80.2226C7.27223 79.7693 7.01758 79.1545 7.01758 78.5134V71.7897C7.02112 70.8254 7.23835 69.8739 7.65364 69.0036Z" fill="#7F81A1" fill-opacity="0.8"/>
</g>
<defs>
<clipPath id="clip0_295_16555">
<rect width="80" height="80" rx="40" fill="white"/>
</clipPath>
</defs>
</svg>
