<svg width="80" height="50" viewBox="0 0 80 50" fill="none" xmlns="http://www.w3.org/2000/svg">
<g clip-path="url(#clip0_273_60754)">
<path d="M47.5376 28.1424C47.558 26.3942 47.5376 24.6353 47.5376 22.8872C47.5376 21.6109 47.2514 19.4015 49.2649 19.4873C51.166 19.5624 50.9105 21.6752 50.9105 22.9408C50.9105 24.6782 50.8901 26.4264 50.9105 28.1531H52.8014C52.8218 26.4157 52.8014 24.6782 52.8014 22.9408C52.8014 21.6752 52.5357 19.5088 54.5185 19.4873C56.5014 19.4659 56.1846 21.6645 56.1846 23.0051C56.1846 24.7211 56.1641 26.4479 56.1846 28.1639H58.1572C58.1777 26.6087 58.1572 25.0322 58.1572 23.477C58.1572 21.9434 58.2696 20.5491 57.5951 19.3801C56.5525 17.5675 53.3942 16.8919 51.8713 19.541C51.6566 19.3372 51.5033 18.8545 50.9309 18.4363C49.5613 17.4388 47.5376 17.8142 45.5547 17.8142V28.196L47.5376 28.1424Z" fill="white"/>
<path d="M77.9648 23.8201C77.883 24.8068 77.5764 25.6219 77.0756 26.1045C75.6957 27.4237 72.4659 27.0912 72.9258 22.265C73.0894 20.4953 74.1728 18.8759 76.1455 19.455C77.6888 19.8947 78.1386 21.8038 77.9648 23.8201ZM70.8816 23.7021C71.0656 26.555 73.0076 28.7 75.9513 28.3997C78.9971 28.0886 80.1214 25.3538 79.9886 22.4795C79.6717 15.9157 70.3706 15.9586 70.8816 23.7021Z" fill="white"/>
<path d="M37.7274 19.3913C39.6591 19.0159 40.6097 20.7212 40.7017 22.5444C40.7937 24.239 40.5075 26.3947 38.6064 26.7272C36.6644 27.0597 35.7036 25.4724 35.6218 23.5955C35.5401 21.5256 35.9796 19.7345 37.7274 19.3913ZM42.7255 23.5848C43.1445 18.1901 38.0033 16.1416 35.0597 18.9837C34.2931 19.7238 33.7309 20.9679 33.6185 22.5015C33.3732 25.6547 34.9677 28.1 37.6252 28.4003C39.3525 28.5934 40.7835 27.8748 41.6011 26.8345C41.8856 26.4743 42.1196 26.0735 42.2962 25.644C42.5487 24.9878 42.6938 24.2916 42.7255 23.5848Z" fill="white"/>
<path d="M24.8087 19.5301C27.3742 19.3371 28.9176 20.1522 29.0198 22.7691C29.122 25.504 27.9261 26.5872 25.4015 26.5872H25.0131L24.7985 26.5765L24.8087 19.5301ZM22.877 28.1531C24.5225 28.2603 27.3333 28.3247 28.7438 27.4881C30.0726 26.7052 31.0538 25.3002 31.0538 23.0694C31.0538 19.5945 28.8256 18.1573 26.0761 18.0179C25.2891 17.975 23.6435 17.9107 22.877 18.0179V28.1531Z" fill="white"/>
<path d="M63.3322 19.5739H68.1769C68.1974 19.22 68.2485 18.244 68.1463 17.9866H62.0341C61.7888 17.9866 61.4004 17.9008 61.4004 18.1368V28.1432L68.3302 28.154L68.3609 26.5238H63.3526V23.7031L67.9521 23.6924V22.1265H63.3526L63.3322 19.5739Z" fill="white"/>
<path d="M0.981219 0H47.5278V15.5727H45.5756V2.04848H1.95222V47.9408H45.5756V30.5663H47.5278V50H0V0H0.981219Z" fill="#FFD800"/>
</g>
<defs>
<clipPath id="clip0_273_60754">
<rect width="80" height="50" fill="white"/>
</clipPath>
</defs>
</svg>
