<svg width="492" height="250" viewBox="0 0 492 250" fill="none" xmlns="http://www.w3.org/2000/svg">
<g filter="url(#filter0_b_335_41578)">
<mask id="path-1-inside-1_335_41578" fill="white">
<path fill-rule="evenodd" clip-rule="evenodd" d="M48.5555 0.578613C43.7923 0.578613 39.3784 3.07795 36.9281 7.16255L27.6595 22.6133H17.1543C7.79375 22.6133 0.205566 30.2015 0.205566 39.562V232.796C0.205566 242.156 7.79377 249.744 17.1543 249.744H474.712C484.073 249.744 491.661 242.156 491.661 232.796V39.562C491.661 30.2015 484.073 22.6133 474.712 22.6133H248.256L241.91 8.5578C239.717 3.7006 234.882 0.578613 229.552 0.578613H48.5555Z"/>
</mask>
<path fill-rule="evenodd" clip-rule="evenodd" d="M48.5555 0.578613C43.7923 0.578613 39.3784 3.07795 36.9281 7.16255L27.6595 22.6133H17.1543C7.79375 22.6133 0.205566 30.2015 0.205566 39.562V232.796C0.205566 242.156 7.79377 249.744 17.1543 249.744H474.712C484.073 249.744 491.661 242.156 491.661 232.796V39.562C491.661 30.2015 484.073 22.6133 474.712 22.6133H248.256L241.91 8.5578C239.717 3.7006 234.882 0.578613 229.552 0.578613H48.5555Z" fill="#464A80" fill-opacity="0.3"/>
<path d="M36.9281 7.16255L35.4747 6.29068L36.9281 7.16255ZM27.6595 22.6133V24.3082H28.6192L29.1129 23.4852L27.6595 22.6133ZM248.256 22.6133L246.712 23.3108L247.162 24.3082H248.256V22.6133ZM241.91 8.5578L243.455 7.86032V7.86032L241.91 8.5578ZM38.3816 8.03443C40.5256 4.4604 44.3877 2.27348 48.5555 2.27348V-1.11626C43.1969 -1.11626 38.2313 1.69549 35.4747 6.29068L38.3816 8.03443ZM29.1129 23.4852L38.3816 8.03443L35.4747 6.29068L26.2061 21.7415L29.1129 23.4852ZM17.1543 24.3082H27.6595V20.9185H17.1543V24.3082ZM1.90044 39.562C1.90044 31.1376 8.7298 24.3082 17.1543 24.3082V20.9185C6.8577 20.9185 -1.4893 29.2655 -1.4893 39.562H1.90044ZM1.90044 232.796V39.562H-1.4893V232.796H1.90044ZM17.1543 248.05C8.72982 248.05 1.90044 241.22 1.90044 232.796H-1.4893C-1.4893 243.092 6.85772 251.439 17.1543 251.439V248.05ZM474.712 248.05H17.1543V251.439H474.712V248.05ZM489.966 232.796C489.966 241.22 483.137 248.05 474.712 248.05V251.439C485.009 251.439 493.356 243.092 493.356 232.796H489.966ZM489.966 39.562V232.796H493.356V39.562H489.966ZM474.712 24.3082C483.137 24.3082 489.966 31.1376 489.966 39.562H493.356C493.356 29.2655 485.009 20.9185 474.712 20.9185V24.3082ZM248.256 24.3082H474.712V20.9185H248.256V24.3082ZM240.365 9.25527L246.712 23.3108L249.801 21.9159L243.455 7.86032L240.365 9.25527ZM229.552 2.27348C234.215 2.27348 238.446 5.00522 240.365 9.25527L243.455 7.86032C240.987 2.39598 235.548 -1.11626 229.552 -1.11626V2.27348ZM48.5555 2.27348H229.552V-1.11626H48.5555V2.27348Z" fill="#4B507F" mask="url(#path-1-inside-1_335_41578)"/>
</g>
<defs>
<filter id="filter0_b_335_41578" x="-6.57391" y="-6.20086" width="505.014" height="262.724" filterUnits="userSpaceOnUse" color-interpolation-filters="sRGB">
<feFlood flood-opacity="0" result="BackgroundImageFix"/>
<feGaussianBlur in="BackgroundImageFix" stdDeviation="3.38974"/>
<feComposite in2="SourceAlpha" operator="in" result="effect1_backgroundBlur_335_41578"/>
<feBlend mode="normal" in="SourceGraphic" in2="effect1_backgroundBlur_335_41578" result="shape"/>
</filter>
</defs>
</svg>
