<svg width="535" height="311" viewBox="0 0 535 311" fill="none" xmlns="http://www.w3.org/2000/svg">
<g filter="url(#filter0_bd_335_41586)">
<mask id="path-1-inside-1_335_41586" fill="white">
<path fill-rule="evenodd" clip-rule="evenodd" d="M292.546 11.1152C286.928 11.1152 281.676 13.8982 278.522 18.5458L258.319 48.3122H23.9503C14.1974 48.3122 6.45671 56.5229 7.03099 66.2589L20.2902 291.049C20.8186 300.007 28.2366 307 37.2095 307H496.657C505.737 307 513.204 299.844 513.591 290.773L517.54 198.079L522.227 118.479L525.612 70.2922L527.973 29.0319C528.529 19.3068 520.793 11.1152 511.052 11.1152H292.546Z"/>
</mask>
<path fill-rule="evenodd" clip-rule="evenodd" d="M292.546 11.1152C286.928 11.1152 281.676 13.8982 278.522 18.5458L258.319 48.3122H23.9503C14.1974 48.3122 6.45671 56.5229 7.03099 66.2589L20.2902 291.049C20.8186 300.007 28.2366 307 37.2095 307H496.657C505.737 307 513.204 299.844 513.591 290.773L517.54 198.079L522.227 118.479L525.612 70.2922L527.973 29.0319C528.529 19.3068 520.793 11.1152 511.052 11.1152H292.546Z" fill="#1C1D2F"/>
<path d="M278.522 18.5458L277.119 17.594V17.594L278.522 18.5458ZM258.319 48.3122V50.0071H259.217L259.721 49.264L258.319 48.3122ZM7.03099 66.2589L8.72292 66.1591L7.03099 66.2589ZM20.2902 291.049L18.5983 291.149L20.2902 291.049ZM513.591 290.773L515.284 290.845L513.591 290.773ZM517.54 198.079L515.848 197.98L515.847 197.994L515.846 198.007L517.54 198.079ZM522.227 118.479L520.536 118.36L520.536 118.37L520.535 118.379L522.227 118.479ZM525.612 70.2922L527.303 70.4109L527.304 70.4L527.304 70.389L525.612 70.2922ZM527.973 29.0319L529.665 29.1287V29.1287L527.973 29.0319ZM279.924 19.4976C282.763 15.3147 287.49 12.8101 292.546 12.8101V9.42037C286.367 9.42037 280.589 12.4816 277.119 17.594L279.924 19.4976ZM259.721 49.264L279.924 19.4976L277.119 17.594L256.917 47.3604L259.721 49.264ZM23.9503 50.0071H258.319V46.6173H23.9503V50.0071ZM8.72292 66.1591C8.20607 57.3967 15.1727 50.0071 23.9503 50.0071V46.6173C13.2221 46.6173 4.70736 55.6491 5.33906 66.3587L8.72292 66.1591ZM21.9822 290.949L8.72292 66.1591L5.33906 66.3587L18.5983 291.149L21.9822 290.949ZM37.2095 305.305C29.1339 305.305 22.4577 299.011 21.9822 290.949L18.5983 291.149C19.1795 301.002 27.3394 308.695 37.2095 308.695V305.305ZM496.657 305.305H37.2095V308.695H496.657V305.305ZM511.897 290.701C511.55 298.865 504.829 305.305 496.657 305.305V308.695C506.645 308.695 514.859 300.824 515.284 290.845L511.897 290.701ZM515.846 198.007L511.897 290.701L515.284 290.845L519.233 198.152L515.846 198.007ZM520.535 118.379L515.848 197.98L519.231 198.179L523.919 118.579L520.535 118.379ZM523.922 70.1734L520.536 118.36L523.918 118.598L527.303 70.4109L523.922 70.1734ZM526.281 28.9351L523.92 70.1954L527.304 70.389L529.665 29.1287L526.281 28.9351ZM511.052 12.8101C519.819 12.8101 526.781 20.1825 526.281 28.9351L529.665 29.1287C530.277 18.4311 521.767 9.42037 511.052 9.42037V12.8101ZM292.546 12.8101H511.052V9.42037H292.546V12.8101Z" fill="#4B507F" mask="url(#path-1-inside-1_335_41586)"/>
</g>
<path d="M243.041 279.362C243.041 278.387 243.041 277.442 243.041 276.527C243.041 275.612 243.041 274.587 243.041 273.451V267.299C243.041 266.129 243.041 265.074 243.041 264.133C243.041 263.193 243.041 262.227 243.041 261.235C243.753 261.235 244.499 261.235 245.279 261.235C246.067 261.235 246.876 261.235 247.706 261.235C248.545 261.235 249.393 261.235 250.249 261.235C251.63 261.235 252.859 261.434 253.935 261.833C255.011 262.231 255.918 262.816 256.655 263.587C257.401 264.358 257.969 265.303 258.359 266.421C258.749 267.532 258.943 268.803 258.943 270.235C258.943 271.515 258.77 272.709 258.422 273.82C258.083 274.921 257.537 275.887 256.782 276.718C256.037 277.548 255.049 278.197 253.821 278.663C252.592 279.129 251.092 279.362 249.321 279.362C248.507 279.362 247.745 279.362 247.033 279.362C246.321 279.362 245.639 279.362 244.986 279.362C244.334 279.362 243.685 279.362 243.041 279.362ZM247.223 276.019H249.308C250.613 276.019 251.647 275.764 252.41 275.256C253.181 274.748 253.736 274.053 254.075 273.171C254.414 272.29 254.583 271.294 254.583 270.184C254.583 269.345 254.482 268.582 254.278 267.896C254.083 267.21 253.778 266.621 253.363 266.129C252.956 265.629 252.435 265.248 251.8 264.985C251.164 264.714 250.406 264.578 249.524 264.578H247.223C247.223 265.146 247.223 265.722 247.223 266.307C247.223 266.883 247.223 267.54 247.223 268.277V272.447C247.223 273.15 247.223 273.786 247.223 274.353C247.223 274.921 247.223 275.476 247.223 276.019ZM270.33 279.705C268.695 279.705 267.28 279.455 266.085 278.955C264.89 278.447 263.907 277.756 263.136 276.883C262.365 276.002 261.788 274.998 261.407 273.87C261.034 272.743 260.848 271.557 260.848 270.311C260.848 268.549 261.195 266.955 261.89 265.532C262.593 264.1 263.636 262.964 265.017 262.125C266.407 261.286 268.14 260.867 270.216 260.867C271.792 260.867 273.169 261.112 274.347 261.604C275.525 262.087 276.504 262.761 277.284 263.625C278.072 264.489 278.661 265.489 279.05 266.625C279.44 267.76 279.635 268.981 279.635 270.286C279.635 272.091 279.275 273.701 278.555 275.116C277.843 276.531 276.796 277.65 275.415 278.472C274.034 279.294 272.339 279.705 270.33 279.705ZM270.267 276.26C271.106 276.26 271.839 276.103 272.466 275.79C273.093 275.468 273.614 275.027 274.029 274.468C274.445 273.909 274.754 273.273 274.957 272.561C275.169 271.841 275.275 271.082 275.275 270.286C275.275 269.447 275.161 268.667 274.932 267.947C274.712 267.218 274.385 266.583 273.953 266.04C273.529 265.498 273.008 265.074 272.39 264.769C271.771 264.464 271.063 264.311 270.267 264.311C269.445 264.311 268.716 264.468 268.08 264.782C267.453 265.095 266.928 265.532 266.504 266.091C266.081 266.642 265.758 267.277 265.538 267.998C265.318 268.718 265.208 269.481 265.208 270.286C265.208 271.091 265.314 271.854 265.525 272.574C265.737 273.286 266.051 273.921 266.466 274.481C266.89 275.031 267.415 275.468 268.042 275.79C268.678 276.103 269.419 276.26 270.267 276.26ZM281.449 279.362C281.576 278.413 281.699 277.464 281.818 276.514C281.936 275.565 282.064 274.536 282.199 273.426L282.949 267.349C283.093 266.256 283.225 265.222 283.343 264.248C283.462 263.273 283.585 262.269 283.712 261.235H287.945C288.352 262.269 288.737 263.261 289.102 264.21C289.474 265.15 289.843 266.087 290.207 267.019L292.368 272.561H292.648L294.745 267.032C295.101 266.091 295.453 265.159 295.8 264.235C296.156 263.311 296.529 262.311 296.919 261.235H301.101C301.228 262.252 301.351 263.248 301.47 264.222C301.597 265.197 301.733 266.244 301.877 267.362L302.652 273.464C302.788 274.565 302.915 275.582 303.033 276.514C303.16 277.447 303.283 278.396 303.402 279.362H299.423C299.271 278.091 299.122 276.883 298.978 275.739C298.834 274.595 298.703 273.523 298.584 272.523L298.05 268.227H297.771L296.195 272.841C295.813 273.976 295.428 275.103 295.038 276.222C294.656 277.332 294.301 278.379 293.97 279.362H291.199C290.962 278.726 290.703 278.044 290.424 277.315C290.152 276.586 289.873 275.845 289.585 275.091C289.296 274.328 289.013 273.582 288.733 272.854L286.979 268.227H286.699L286.178 272.498C286.059 273.506 285.928 274.587 285.784 275.739C285.648 276.883 285.504 278.091 285.352 279.362H281.449ZM306.462 279.362C306.462 278.387 306.462 277.442 306.462 276.527C306.462 275.612 306.462 274.587 306.462 273.451V267.299C306.462 266.129 306.462 265.074 306.462 264.133C306.462 263.193 306.462 262.227 306.462 261.235H318.5V264.655C317.72 264.655 316.881 264.655 315.983 264.655C315.093 264.655 314.042 264.655 312.831 264.655H308.559L310.555 261.896C310.555 262.888 310.555 263.854 310.555 264.794C310.555 265.735 310.555 266.79 310.555 267.96V272.79C310.555 273.917 310.555 274.942 310.555 275.866C310.555 276.781 310.555 277.726 310.555 278.701L308.826 275.942H313.136C314.144 275.942 315.097 275.942 315.996 275.942C316.902 275.942 317.775 275.942 318.614 275.942V279.362H306.462ZM309.602 271.811V268.633H312.92C314.038 268.633 314.996 268.633 315.792 268.633C316.589 268.633 317.356 268.633 318.093 268.633V271.811C317.313 271.811 316.525 271.811 315.729 271.811C314.932 271.811 313.996 271.811 312.92 271.811H309.602ZM330.288 279.705C328.652 279.705 327.237 279.455 326.042 278.955C324.848 278.447 323.864 277.756 323.093 276.883C322.322 276.002 321.746 274.998 321.365 273.87C320.992 272.743 320.805 271.557 320.805 270.311C320.805 268.549 321.153 266.955 321.848 265.532C322.551 264.1 323.593 262.964 324.975 262.125C326.364 261.286 328.097 260.867 330.174 260.867C331.75 260.867 333.127 261.112 334.305 261.604C335.483 262.087 336.462 262.761 337.241 263.625C338.029 264.489 338.618 265.489 339.008 266.625C339.398 267.76 339.593 268.981 339.593 270.286C339.593 272.091 339.233 273.701 338.512 275.116C337.801 276.531 336.754 277.65 335.373 278.472C333.991 279.294 332.296 279.705 330.288 279.705ZM330.224 276.26C331.063 276.26 331.796 276.103 332.424 275.79C333.051 275.468 333.572 275.027 333.987 274.468C334.402 273.909 334.712 273.273 334.915 272.561C335.127 271.841 335.233 271.082 335.233 270.286C335.233 269.447 335.118 268.667 334.89 267.947C334.669 267.218 334.343 266.583 333.911 266.04C333.487 265.498 332.966 265.074 332.347 264.769C331.729 264.464 331.021 264.311 330.224 264.311C329.402 264.311 328.674 264.468 328.038 264.782C327.411 265.095 326.886 265.532 326.462 266.091C326.038 266.642 325.716 267.277 325.496 267.998C325.275 268.718 325.165 269.481 325.165 270.286C325.165 271.091 325.271 271.854 325.483 272.574C325.695 273.286 326.008 273.921 326.424 274.481C326.847 275.031 327.373 275.468 328 275.79C328.636 276.103 329.377 276.26 330.224 276.26ZM347.776 279.362C347.776 278.421 347.776 277.514 347.776 276.642C347.776 275.769 347.776 274.815 347.776 273.781V272.51C347.776 271.587 347.776 270.637 347.776 269.663C347.776 268.688 347.776 267.722 347.776 266.765L349.237 266.663L349.288 269.015H349.492C349.746 268.642 350.076 268.265 350.483 267.883C350.89 267.493 351.373 267.163 351.932 266.892C352.491 266.621 353.131 266.485 353.852 266.485C354.911 266.485 355.72 266.744 356.28 267.26C356.839 267.777 357.199 268.523 357.36 269.498L357.449 269.574C357.483 269.794 357.508 270.023 357.525 270.26C357.542 270.489 357.551 270.735 357.551 270.998C357.551 271.548 357.551 272.027 357.551 272.434C357.551 272.841 357.551 273.29 357.551 273.781C357.551 274.773 357.551 275.718 357.551 276.616C357.551 277.506 357.551 278.421 357.551 279.362H355.911C355.911 278.421 355.911 277.506 355.911 276.616C355.911 275.726 355.911 274.803 355.911 273.845V271.354C355.911 270.269 355.724 269.451 355.352 268.9C354.987 268.341 354.322 268.061 353.356 268.061C352.771 268.061 352.237 268.188 351.754 268.443C351.28 268.697 350.847 269.036 350.458 269.46C350.076 269.883 349.729 270.341 349.415 270.832V273.845C349.415 274.845 349.415 275.781 349.415 276.654C349.415 277.519 349.415 278.421 349.415 279.362H347.776ZM363.945 279.362C363.945 278.421 363.945 277.506 363.945 276.616C363.945 275.726 363.945 274.803 363.945 273.845V271.354C363.945 270.269 363.758 269.451 363.385 268.9C363.021 268.341 362.356 268.061 361.39 268.061C360.805 268.061 360.271 268.188 359.788 268.443C359.313 268.688 358.881 269.023 358.491 269.447C358.101 269.862 357.75 270.324 357.436 270.832L357.207 269.078H357.411C357.699 268.688 358.051 268.294 358.466 267.896C358.881 267.498 359.373 267.163 359.94 266.892C360.517 266.621 361.169 266.485 361.898 266.485C363.237 266.485 364.186 266.883 364.745 267.68C365.305 268.477 365.584 269.582 365.584 270.998C365.584 271.548 365.584 272.027 365.584 272.434C365.584 272.841 365.584 273.29 365.584 273.781C365.584 274.773 365.584 275.718 365.584 276.616C365.584 277.506 365.584 278.421 365.584 279.362H363.945ZM375.476 279.616C374.001 279.616 372.781 279.332 371.815 278.764C370.857 278.188 370.141 277.4 369.667 276.4C369.2 275.4 368.967 274.26 368.967 272.981C368.967 271.718 369.2 270.599 369.667 269.625C370.141 268.642 370.806 267.875 371.662 267.324C372.527 266.765 373.548 266.485 374.726 266.485C375.76 266.485 376.654 266.697 377.408 267.121C378.171 267.536 378.755 268.142 379.162 268.938C379.569 269.735 379.772 270.705 379.772 271.849C379.772 272.154 379.764 272.434 379.747 272.688C379.738 272.934 379.713 273.18 379.67 273.426L378.221 272.587C378.238 272.451 378.247 272.32 378.247 272.193C378.255 272.065 378.26 271.943 378.26 271.824C378.26 270.502 377.937 269.515 377.293 268.862C376.649 268.201 375.802 267.871 374.751 267.871C373.887 267.871 373.145 268.082 372.527 268.506C371.916 268.93 371.446 269.515 371.116 270.26C370.794 271.006 370.633 271.858 370.633 272.815V273.031C370.633 274.082 370.811 274.989 371.166 275.752C371.531 276.514 372.077 277.103 372.806 277.519C373.544 277.934 374.476 278.142 375.603 278.142C376.018 278.142 376.446 278.108 376.887 278.04C377.327 277.972 377.764 277.87 378.196 277.735C378.628 277.599 379.043 277.421 379.442 277.201L379.531 278.739C379.209 278.917 378.836 279.074 378.412 279.209C377.988 279.336 377.526 279.434 377.026 279.502C376.527 279.578 376.01 279.616 375.476 279.616ZM369.692 273.426V272.193L378.628 272.142L379.67 272.485V273.426H369.692ZM387.853 279.629C386.641 279.629 385.628 279.324 384.815 278.714C384.001 278.103 383.391 277.298 382.984 276.298C382.586 275.29 382.387 274.197 382.387 273.019C382.387 271.773 382.603 270.659 383.035 269.676C383.467 268.684 384.094 267.905 384.916 267.337C385.747 266.769 386.743 266.485 387.904 266.485C388.497 266.485 389.048 266.566 389.556 266.727C390.065 266.888 390.509 267.099 390.891 267.362C391.281 267.625 391.598 267.905 391.844 268.201H392.048V266.803C392.048 265.735 392.048 264.697 392.048 263.689C392.048 262.68 392.048 261.706 392.048 260.765L393.687 260.523C393.687 261.557 393.687 262.587 393.687 263.612C393.687 264.629 393.687 265.693 393.687 266.803V273.781C393.687 274.815 393.687 275.769 393.687 276.642C393.687 277.514 393.687 278.421 393.687 279.362H392.238L392.162 277.62H391.984C391.637 278.053 391.255 278.417 390.84 278.714C390.425 279.01 389.967 279.235 389.467 279.387C388.976 279.548 388.437 279.629 387.853 279.629ZM388.272 278.116C388.84 278.116 389.357 278.027 389.823 277.849C390.289 277.663 390.704 277.404 391.069 277.074C391.433 276.743 391.759 276.345 392.048 275.879V269.93C391.759 269.506 391.416 269.154 391.018 268.875C390.628 268.587 390.2 268.371 389.734 268.227C389.276 268.082 388.802 268.01 388.31 268.01C387.344 268.01 386.548 268.239 385.921 268.697C385.302 269.146 384.836 269.752 384.522 270.515C384.217 271.269 384.065 272.108 384.065 273.031C384.065 273.913 384.209 274.739 384.497 275.51C384.793 276.281 385.251 276.908 385.87 277.392C386.488 277.875 387.289 278.116 388.272 278.116ZM398.026 279.362C398.026 278.421 398.026 277.514 398.026 276.642C398.026 275.769 398.026 274.815 398.026 273.781V272.51C398.026 271.782 398.026 271.099 398.026 270.464C398.026 269.828 398.026 269.21 398.026 268.608C398.026 268.006 398.026 267.392 398.026 266.765L399.653 266.714C399.653 267.341 399.653 267.96 399.653 268.57C399.653 269.171 399.653 269.794 399.653 270.438C399.653 271.074 399.653 271.765 399.653 272.51V273.781C399.653 274.815 399.653 275.769 399.653 276.642C399.653 277.514 399.653 278.421 399.653 279.362H398.026ZM398.789 263.6C398.399 263.6 398.077 263.485 397.823 263.256C397.577 263.028 397.454 262.676 397.454 262.201C397.454 261.735 397.577 261.388 397.823 261.159C398.077 260.922 398.408 260.803 398.814 260.803C399.221 260.803 399.547 260.926 399.793 261.172C400.039 261.409 400.162 261.752 400.162 262.201C400.162 262.676 400.039 263.028 399.793 263.256C399.547 263.485 399.213 263.6 398.789 263.6ZM407.292 279.616C406.521 279.616 405.852 279.472 405.284 279.184C404.716 278.887 404.276 278.472 403.962 277.938C403.648 277.396 403.492 276.756 403.492 276.019C403.492 275.341 403.615 274.773 403.86 274.315C404.106 273.858 404.428 273.485 404.826 273.197C405.233 272.9 405.674 272.671 406.148 272.51C406.623 272.341 407.093 272.214 407.559 272.129L411.678 271.366C411.712 270.4 411.589 269.676 411.309 269.193C411.038 268.701 410.661 268.375 410.178 268.214C409.695 268.044 409.161 267.96 408.576 267.96C408.288 267.96 407.979 267.981 407.648 268.023C407.318 268.057 406.97 268.116 406.606 268.201C406.242 268.286 405.852 268.396 405.437 268.532C405.03 268.667 404.598 268.832 404.14 269.027L404.038 267.477C404.343 267.349 404.682 267.227 405.055 267.108C405.437 266.989 405.839 266.883 406.263 266.79C406.686 266.697 407.119 266.625 407.559 266.574C408.008 266.515 408.445 266.485 408.869 266.485C409.775 266.485 410.555 266.633 411.208 266.93C411.869 267.218 412.373 267.68 412.72 268.316C413.076 268.951 413.254 269.769 413.254 270.769C413.254 271.167 413.254 271.667 413.254 272.269C413.254 272.87 413.254 273.447 413.254 273.998V275.714C413.254 276.273 413.254 276.849 413.254 277.442C413.254 278.027 413.254 278.667 413.254 279.362H411.754L411.691 277.493H411.487C411.225 277.849 410.881 278.192 410.458 278.523C410.042 278.845 409.564 279.108 409.021 279.311C408.487 279.514 407.911 279.616 407.292 279.616ZM407.699 278.192C408.182 278.192 408.669 278.099 409.161 277.913C409.653 277.718 410.11 277.421 410.534 277.023C410.966 276.625 411.33 276.12 411.627 275.51L411.64 272.434C411.496 272.51 411.305 272.591 411.068 272.676C410.83 272.752 410.475 272.845 410 272.955C409.525 273.057 408.86 273.188 408.004 273.349C407.47 273.442 406.987 273.591 406.555 273.794C406.131 273.998 405.792 274.277 405.538 274.633C405.284 274.981 405.157 275.421 405.157 275.955C405.157 276.769 405.398 277.345 405.881 277.684C406.373 278.023 406.979 278.192 407.699 278.192ZM427.819 279.603C426.472 279.603 425.328 279.315 424.387 278.739C423.447 278.163 422.73 277.379 422.239 276.387C421.747 275.396 421.502 274.286 421.502 273.057C421.502 271.811 421.739 270.693 422.214 269.701C422.697 268.71 423.391 267.926 424.298 267.349C425.205 266.773 426.302 266.485 427.591 266.485C428.082 266.485 428.565 266.527 429.04 266.612C429.514 266.697 429.959 266.816 430.374 266.968C430.798 267.112 431.175 267.277 431.506 267.464L431.328 269.015C430.862 268.743 430.417 268.536 429.993 268.392C429.569 268.239 429.171 268.138 428.798 268.087C428.425 268.027 428.082 267.998 427.768 267.998C426.379 267.998 425.264 268.451 424.425 269.358C423.595 270.256 423.18 271.476 423.18 273.019C423.18 273.985 423.362 274.853 423.726 275.625C424.091 276.396 424.633 277.006 425.353 277.455C426.082 277.904 426.989 278.129 428.074 278.129C428.446 278.129 428.819 278.095 429.192 278.027C429.574 277.959 429.946 277.858 430.311 277.722C430.675 277.578 431.027 277.4 431.366 277.188L431.557 278.752C431.285 278.896 430.959 279.036 430.578 279.171C430.205 279.298 429.785 279.4 429.319 279.476C428.862 279.561 428.362 279.603 427.819 279.603ZM438.028 279.616C437.257 279.616 436.588 279.472 436.02 279.184C435.452 278.887 435.012 278.472 434.698 277.938C434.384 277.396 434.228 276.756 434.228 276.019C434.228 275.341 434.351 274.773 434.596 274.315C434.842 273.858 435.164 273.485 435.562 273.197C435.969 272.9 436.41 272.671 436.884 272.51C437.359 272.341 437.829 272.214 438.295 272.129L442.414 271.366C442.448 270.4 442.325 269.676 442.045 269.193C441.774 268.701 441.397 268.375 440.914 268.214C440.431 268.044 439.897 267.96 439.312 267.96C439.024 267.96 438.715 267.981 438.384 268.023C438.054 268.057 437.706 268.116 437.342 268.201C436.978 268.286 436.588 268.396 436.173 268.532C435.766 268.667 435.334 268.832 434.876 269.027L434.774 267.477C435.079 267.349 435.418 267.227 435.791 267.108C436.173 266.989 436.575 266.883 436.999 266.79C437.423 266.697 437.855 266.625 438.295 266.574C438.745 266.515 439.181 266.485 439.605 266.485C440.511 266.485 441.291 266.633 441.944 266.93C442.605 267.218 443.109 267.68 443.456 268.316C443.812 268.951 443.99 269.769 443.99 270.769C443.99 271.167 443.99 271.667 443.99 272.269C443.99 272.87 443.99 273.447 443.99 273.998V275.714C443.99 276.273 443.99 276.849 443.99 277.442C443.99 278.027 443.99 278.667 443.99 279.362H442.49L442.427 277.493H442.223C441.961 277.849 441.617 278.192 441.194 278.523C440.778 278.845 440.3 279.108 439.757 279.311C439.223 279.514 438.647 279.616 438.028 279.616ZM438.435 278.192C438.918 278.192 439.406 278.099 439.897 277.913C440.389 277.718 440.846 277.421 441.27 277.023C441.702 276.625 442.066 276.12 442.363 275.51L442.376 272.434C442.232 272.51 442.041 272.591 441.804 272.676C441.566 272.752 441.211 272.845 440.736 272.955C440.261 273.057 439.596 273.188 438.74 273.349C438.206 273.442 437.723 273.591 437.291 273.794C436.867 273.998 436.528 274.277 436.274 274.633C436.02 274.981 435.893 275.421 435.893 275.955C435.893 276.769 436.134 277.345 436.617 277.684C437.109 278.023 437.715 278.192 438.435 278.192ZM451.77 279.616C451.261 279.616 450.749 279.574 450.232 279.489C449.715 279.413 449.223 279.302 448.757 279.158C448.291 279.006 447.884 278.836 447.537 278.65L447.689 277.074C448.079 277.294 448.494 277.485 448.935 277.646C449.376 277.807 449.829 277.934 450.295 278.027C450.77 278.112 451.253 278.154 451.744 278.154C452.253 278.154 452.719 278.091 453.143 277.964C453.575 277.836 453.918 277.612 454.172 277.29C454.435 276.968 454.566 276.502 454.566 275.892C454.566 275.493 454.456 275.167 454.236 274.913C454.024 274.65 453.664 274.417 453.155 274.214C452.655 274.01 451.977 273.781 451.122 273.527C450.477 273.341 449.893 273.116 449.367 272.854C448.842 272.591 448.422 272.239 448.109 271.798C447.795 271.349 447.639 270.76 447.639 270.032C447.639 268.955 447.999 268.095 448.719 267.451C449.448 266.807 450.427 266.485 451.655 266.485C452.147 266.485 452.626 266.532 453.092 266.625C453.558 266.71 453.994 266.828 454.401 266.981C454.808 267.125 455.16 267.282 455.456 267.451L455.304 269.04C454.888 268.777 454.469 268.566 454.045 268.404C453.63 268.243 453.227 268.129 452.838 268.061C452.456 267.993 452.109 267.96 451.795 267.96C451.439 267.96 451.071 268.015 450.689 268.125C450.308 268.227 449.982 268.426 449.711 268.722C449.448 269.01 449.316 269.434 449.316 269.993C449.316 270.383 449.405 270.714 449.583 270.985C449.77 271.248 450.071 271.481 450.486 271.684C450.91 271.879 451.486 272.082 452.215 272.294C453.028 272.54 453.736 272.794 454.338 273.057C454.948 273.32 455.414 273.667 455.736 274.099C456.066 274.531 456.232 275.125 456.232 275.879C456.232 276.574 456.075 277.205 455.761 277.773C455.456 278.341 454.977 278.79 454.325 279.12C453.672 279.451 452.821 279.616 451.77 279.616ZM465.375 279.616C463.9 279.616 462.68 279.332 461.714 278.764C460.756 278.188 460.04 277.4 459.566 276.4C459.1 275.4 458.867 274.26 458.867 272.981C458.867 271.718 459.1 270.599 459.566 269.625C460.04 268.642 460.706 267.875 461.561 267.324C462.426 266.765 463.447 266.485 464.625 266.485C465.659 266.485 466.553 266.697 467.307 267.121C468.07 267.536 468.654 268.142 469.061 268.938C469.468 269.735 469.671 270.705 469.671 271.849C469.671 272.154 469.663 272.434 469.646 272.688C469.637 272.934 469.612 273.18 469.57 273.426L468.121 272.587C468.138 272.451 468.146 272.32 468.146 272.193C468.154 272.065 468.159 271.943 468.159 271.824C468.159 270.502 467.837 269.515 467.193 268.862C466.549 268.201 465.701 267.871 464.65 267.871C463.786 267.871 463.044 268.082 462.426 268.506C461.816 268.93 461.345 269.515 461.015 270.26C460.693 271.006 460.532 271.858 460.532 272.815V273.031C460.532 274.082 460.71 274.989 461.066 275.752C461.43 276.514 461.977 277.103 462.705 277.519C463.443 277.934 464.375 278.142 465.502 278.142C465.917 278.142 466.345 278.108 466.786 278.04C467.227 277.972 467.663 277.87 468.095 277.735C468.527 277.599 468.943 277.421 469.341 277.201L469.43 278.739C469.108 278.917 468.735 279.074 468.311 279.209C467.888 279.336 467.426 279.434 466.926 279.502C466.426 279.578 465.909 279.616 465.375 279.616ZM459.591 273.426V272.193L468.527 272.142L469.57 272.485V273.426H459.591ZM476.671 279.616C476.163 279.616 475.65 279.574 475.133 279.489C474.616 279.413 474.125 279.302 473.659 279.158C473.193 279.006 472.786 278.836 472.439 278.65L472.591 277.074C472.981 277.294 473.396 277.485 473.837 277.646C474.277 277.807 474.731 277.934 475.197 278.027C475.671 278.112 476.155 278.154 476.646 278.154C477.155 278.154 477.621 278.091 478.044 277.964C478.477 277.836 478.82 277.612 479.074 277.29C479.337 276.968 479.468 276.502 479.468 275.892C479.468 275.493 479.358 275.167 479.137 274.913C478.926 274.65 478.565 274.417 478.057 274.214C477.557 274.01 476.879 273.781 476.023 273.527C475.379 273.341 474.794 273.116 474.269 272.854C473.744 272.591 473.324 272.239 473.011 271.798C472.697 271.349 472.54 270.76 472.54 270.032C472.54 268.955 472.9 268.095 473.621 267.451C474.349 266.807 475.328 266.485 476.557 266.485C477.049 266.485 477.527 266.532 477.993 266.625C478.46 266.71 478.896 266.828 479.303 266.981C479.71 267.125 480.061 267.282 480.358 267.451L480.205 269.04C479.79 268.777 479.371 268.566 478.947 268.404C478.532 268.243 478.129 268.129 477.739 268.061C477.358 267.993 477.01 267.96 476.697 267.96C476.341 267.96 475.972 268.015 475.591 268.125C475.21 268.227 474.883 268.426 474.612 268.722C474.349 269.01 474.218 269.434 474.218 269.993C474.218 270.383 474.307 270.714 474.485 270.985C474.672 271.248 474.972 271.481 475.388 271.684C475.811 271.879 476.388 272.082 477.116 272.294C477.93 272.54 478.638 272.794 479.239 273.057C479.849 273.32 480.315 273.667 480.637 274.099C480.968 274.531 481.133 275.125 481.133 275.879C481.133 276.574 480.976 277.205 480.663 277.773C480.358 278.341 479.879 278.79 479.226 279.12C478.574 279.451 477.722 279.616 476.671 279.616Z" fill="#A8A8A8"/>
<path d="M489.162 47.9148C489.17 47.2074 489.162 46.4955 489.162 45.788C489.162 45.2715 489.045 44.3774 489.867 44.4121C490.643 44.4425 490.539 45.2976 490.539 45.8097C490.539 46.5129 490.531 47.2204 490.539 47.9192H491.311C491.319 47.216 491.311 46.5129 491.311 45.8097C491.311 45.2976 491.203 44.4208 492.012 44.4121C492.822 44.4035 492.692 45.2932 492.692 45.8358C492.692 46.5303 492.684 47.2291 492.692 47.9235H493.498C493.506 47.2942 493.498 46.6561 493.498 46.0268C493.498 45.4061 493.543 44.8418 493.268 44.3687C492.842 43.6352 491.553 43.3618 490.931 44.4338C490.844 44.3514 490.781 44.1561 490.547 43.9868C489.988 43.5831 489.162 43.735 488.353 43.735V47.9365L489.162 47.9148Z" fill="white"/>
<path d="M501.585 46.164C501.552 46.5633 501.426 46.8932 501.222 47.0885C500.659 47.6224 499.34 47.4878 499.528 45.5347C499.595 44.8185 500.037 44.1631 500.842 44.3975C501.472 44.5755 501.656 45.348 501.585 46.164ZM498.693 46.1163C498.768 47.2708 499.561 48.1389 500.763 48.0174C502.006 47.8915 502.465 46.7847 502.411 45.6215C502.282 42.9652 498.485 42.9825 498.693 46.1163Z" fill="white"/>
<path d="M485.155 44.3732C485.944 44.2213 486.332 44.9114 486.37 45.6493C486.407 46.335 486.29 47.2074 485.514 47.342C484.721 47.4766 484.329 46.8342 484.296 46.0746C484.262 45.2369 484.442 44.5121 485.155 44.3732ZM487.196 46.0703C487.367 43.8871 485.268 43.058 484.066 44.2082C483.753 44.5077 483.524 45.0112 483.478 45.6319C483.378 46.908 484.029 47.8976 485.114 48.0191C485.819 48.0972 486.403 47.8064 486.737 47.3854C486.853 47.2397 486.948 47.0774 487.021 46.9036C487.124 46.6381 487.183 46.3563 487.196 46.0703Z" fill="white"/>
<path d="M479.881 44.4297C480.928 44.3516 481.558 44.6814 481.6 45.7405C481.642 46.8473 481.154 47.2857 480.123 47.2857H479.964L479.877 47.2813L479.881 44.4297ZM479.092 47.9194C479.764 47.9628 480.912 47.9888 481.487 47.6502C482.03 47.3334 482.431 46.7648 482.431 45.862C482.431 44.4557 481.521 43.8741 480.398 43.8177C480.077 43.8003 479.405 43.7743 479.092 43.8177V47.9194Z" fill="white"/>
<path d="M495.609 44.4469H497.587C497.595 44.3036 497.616 43.9087 497.574 43.8045H495.079C494.979 43.8045 494.82 43.7698 494.82 43.8653V47.9148L497.649 47.9192L497.662 47.2594H495.617V46.1179L497.495 46.1136V45.4799H495.617L495.609 44.4469Z" fill="white"/>
<path d="M470.155 36.5244H489.158V42.8266H488.361V37.3534H470.552V55.9259H488.361V48.8945H489.158V56.7593H469.755V36.5244H470.155Z" fill="#FFD800"/>
<defs>
<filter id="filter0_bd_335_41586" x="0.221501" y="0.946021" width="534.559" height="312.833" filterUnits="userSpaceOnUse" color-interpolation-filters="sRGB">
<feFlood flood-opacity="0" result="BackgroundImageFix"/>
<feGaussianBlur in="BackgroundImageFix" stdDeviation="3.38974"/>
<feComposite in2="SourceAlpha" operator="in" result="effect1_backgroundBlur_335_41586"/>
<feColorMatrix in="SourceAlpha" type="matrix" values="0 0 0 0 0 0 0 0 0 0 0 0 0 0 0 0 0 0 127 0" result="hardAlpha"/>
<feOffset dy="-3.38974"/>
<feGaussianBlur stdDeviation="3.38974"/>
<feComposite in2="hardAlpha" operator="out"/>
<feColorMatrix type="matrix" values="0 0 0 0 0 0 0 0 0 0 0 0 0 0 0 0 0 0 0.35 0"/>
<feBlend mode="normal" in2="effect1_backgroundBlur_335_41586" result="effect2_dropShadow_335_41586"/>
<feBlend mode="normal" in="SourceGraphic" in2="effect2_dropShadow_335_41586" result="shape"/>
</filter>
</defs>
</svg>
