<svg width="138" height="55" viewBox="0 0 138 55" fill="none" xmlns="http://www.w3.org/2000/svg">
<g filter="url(#filter0_b_266_13847)">
<rect width="138" height="55" rx="27.5" fill="#5C5F8E" fill-opacity="0.1"/>
<path d="M107.657 16.059C107.613 17.0255 107.177 17.9384 106.828 18.4754C105.476 20.4085 102.206 21.3214 100.811 19.9252C100.2 19.3346 100.244 18.2606 100.767 17.5625C101.683 16.3275 103.645 16.059 104.997 15.9516C105.258 15.9516 107.264 15.9516 107.613 16.059C107.7 16.059 107.613 16.0053 107.657 16.059ZM113.5 26.7986C112.497 26.5838 111.538 26.0468 110.927 25.4024C110.317 24.7581 109.75 24.0063 109.445 22.6638C109.052 20.9455 109.445 18.4217 109.75 16.6497C109.837 16.059 110.012 15.4683 110.099 14.8776C109.619 14.7702 108.921 14.7165 108.442 14.6628C106.697 14.5017 104.91 14.448 103.165 14.6628C100.767 14.9313 99.11 15.6831 97.9326 17.294C97.3658 18.0995 96.9297 19.442 97.6274 20.5696C98.1071 21.3214 99.0664 21.8584 100.069 22.1269C101.639 22.5564 103.296 22.2343 104.779 21.5362C105.215 21.3214 105.607 21.0529 106.043 20.8381C105.913 21.4288 104.997 22.9323 104.648 23.4156C104.212 24.0063 103.776 24.597 103.253 25.134C102.86 25.5098 102.468 25.8857 101.988 26.1542C99.0228 27.9799 97.3658 24.7044 96.1884 24.06C94.8802 23.3619 93.7464 27.2819 92.6563 25.134C92.0022 23.8452 91.5225 20.9992 89.9527 22.3954C89.6911 22.6101 89.4294 22.8786 89.1678 23.1471C88.819 23.523 88.3829 23.9526 88.0341 24.3285C87.38 25.0803 85.8537 26.5838 85.0688 26.6912C84.6328 26.7449 84.3711 26.369 84.3275 25.8857C84.2839 25.4024 84.4147 24.8655 84.5892 24.4896C84.9816 23.4693 85.941 21.8584 86.5951 20.9455C86.6823 20.8381 86.9003 20.5696 86.9003 20.5159C86.8131 20.4085 86.4642 20.14 86.2898 20.0863C85.4177 19.6031 84.8508 19.7641 84.1531 20.4085C82.9757 21.4825 81.3187 23.6304 81.1443 25.5098C81.1443 25.7246 81.1879 25.8857 81.0571 25.9931C79.5745 27.5504 76.8709 27.2282 76.3912 24.1674C76.304 23.4693 76.304 22.8249 76.1732 22.1269C75.6935 19.5494 74.2109 19.8178 72.7719 20.9992C72.3359 21.3214 71.2893 22.3417 70.9405 22.8249C70.8533 22.9323 70.8097 23.0397 70.6788 23.0934C70.8533 22.6638 72.2923 20.0326 72.5103 19.6031C72.6847 19.2809 73.0772 18.6902 72.5975 18.4217C72.205 18.1532 71.6382 18.368 71.3329 18.5828C71.0277 18.8513 70.8533 19.2809 70.6352 19.6568C70.2428 20.4085 69.8503 21.214 69.4579 22.0195C69.109 22.8249 68.7166 23.6841 68.3677 24.5433C68.2369 24.8655 68.1933 24.8118 67.9753 24.9729C67.452 25.3487 66.9287 25.6172 66.3618 25.832C65.6641 26.1005 64.5304 26.4764 63.7455 26.3153C62.5681 26.0468 63.135 24.7044 63.5274 24.0063C63.7019 23.7378 64.1815 23.0934 63.9635 22.7712C63.2658 21.751 61.0419 24.7581 58.818 25.5635C58.1203 25.832 56.7249 26.2079 56.5505 25.134C56.376 24.06 57.2482 23.0934 57.6406 22.7175C58.1639 22.1806 58.8616 21.751 59.6465 21.3751C62.6989 19.8715 64.1815 21.5362 64.7048 21.5362C64.8792 21.214 64.9228 20.6233 64.7484 20.2474C64.6176 19.9789 64.3559 19.7104 64.0071 19.5494C62.2193 18.6902 59.2976 19.7641 57.6842 20.6233C56.4196 21.3214 55.5475 22.0195 54.5446 23.0934C53.7161 24.0063 52.6259 25.5635 52.7131 27.1208C50.9253 28.141 49.1374 27.6041 48.2217 26.1005C47.0007 24.1137 47.6984 22.2343 46.9571 20.14C46.6519 19.2809 46.1286 18.5828 45.1257 18.5828C43.5995 18.5828 41.8116 20.5159 40.6779 21.6436L39.6749 22.7712C39.5877 22.8786 39.5877 22.9323 39.4569 22.986C39.3697 22.288 39.1516 21.5362 39.0208 20.8381L38.1051 16.596C37.9307 15.8442 37.7126 15.2535 37.3202 14.8776C36.3609 13.8574 35.1835 15.1461 34.3986 15.8979C33.8753 16.4349 32.7415 17.9384 32.3055 18.6365L31.3025 20.0863C30.3432 21.4825 29.3839 23.1471 28.4682 24.597C28.1629 25.0803 27.8577 25.6172 27.5524 26.1542C26.8547 27.2819 25.6338 29.1613 24.7616 30.0742C24.6744 30.1816 24.5436 30.289 24.5 30.3964C25.3721 30.5575 26.8983 30.3427 27.6832 30.0205C28.7734 29.5909 29.2095 29.1076 29.7763 28.2484C30.2996 27.443 30.7357 26.5301 31.2153 25.6709C32.1311 23.9526 33.0032 22.0732 34.0061 20.4085C34.2678 19.9789 34.5294 19.6031 34.8346 19.2272C35.0091 19.0124 35.6195 18.2606 35.9248 18.7976C36.2736 19.3883 36.4045 21.5899 36.4481 22.5027C36.5353 23.7915 36.5789 25.134 36.7533 26.4227C36.8841 27.4967 37.233 29.3761 38.2359 28.2484C38.4103 28.0873 38.5412 27.8726 38.672 27.7115C38.8028 27.4967 38.9772 27.3356 39.108 27.1745C39.2389 26.9597 39.4133 26.7986 39.5441 26.6375C40.2418 25.6709 40.9831 24.8118 41.8116 24.0063C42.4221 23.4693 43.5995 22.6101 44.2536 23.6304C45.3437 25.2413 45.3437 27.3356 47.3496 28.5169C48.8758 29.4298 50.7945 29.2687 52.4079 28.4095C52.5387 28.3021 52.8439 28.0873 52.9748 28.0336C53.1056 28.2484 53.1492 28.3021 53.3672 28.4632C54.5446 29.3224 56.6377 28.678 57.815 28.1947C58.6436 27.8726 59.2104 27.443 59.8209 26.9597C60.2134 26.6375 61.2163 25.832 61.6088 25.4561C61.6088 25.6172 61.5216 25.9931 61.5216 26.1542C61.478 26.8523 61.4779 27.7652 61.914 28.1947C62.7425 29.0002 65.2717 27.443 66.0566 26.906L67.8444 25.7246C67.7136 26.1542 67.4956 26.6375 67.3648 27.0671C66.3182 30.0742 65.4025 34.4237 65.01 37.5919C64.9664 38.0752 64.7048 39.6861 64.9228 40.1694C65.01 40.3305 65.1845 40.5453 65.4025 40.4916C66.0566 40.4379 66.2746 38.7733 66.449 37.9678C67.1903 34.5848 68.2369 29.5909 69.8939 26.906C70.5044 25.9394 71.9434 23.4693 73.5132 23.7378C73.9057 23.7915 74.1673 24.2748 74.2981 24.6507C74.9086 25.9394 75.2139 27.1208 76.4348 27.7652C77.7866 28.5169 79.5309 28.141 80.7518 27.1208C80.8827 27.0134 81.1007 26.7986 81.2315 26.7449C81.4495 27.0134 81.4495 27.3893 82.0164 27.8189C82.3217 28.0873 82.7577 28.2484 83.1938 28.3558C85.6357 28.8928 87.5108 27.2819 89.1678 25.4561C89.3858 25.2413 89.5603 24.9192 89.7783 24.7044C89.8219 24.7581 90.0835 25.5635 90.3452 25.9931C91.6097 28.1947 93.2232 27.2819 94.793 26.3153C95.8395 25.6709 96.1448 26.0468 97.0605 26.7449C97.4094 26.9597 97.7582 27.1745 98.1507 27.3893C99.9385 28.2484 101.814 27.8189 103.383 26.906C104.081 26.4764 104.822 25.9394 105.389 25.4024C105.738 25.0266 106.349 24.4896 106.654 24.0063L107.003 23.4693C107.046 23.5767 107.308 24.6507 107.395 24.8655C107.788 26.1005 108.442 27.443 109.27 28.141C110.055 28.8391 110.622 28.7854 111.581 28.2484C112.105 27.9799 112.584 27.6578 113.064 27.2819C113.151 27.2282 113.195 27.1745 113.282 27.0671C113.326 27.0134 113.369 27.0134 113.413 26.9597L113.5 26.7986ZM49.9659 21.6436C49.9223 20.7844 50.4456 20.0326 51.0997 19.9789C51.841 19.9252 52.4079 20.6233 52.4515 21.4288C52.4951 22.288 51.9718 22.986 51.3177 23.0934C50.62 23.1471 50.0532 22.449 49.9659 21.6436ZM51.0125 19.6568C50.2276 19.8178 49.6171 20.677 49.7479 21.8047C49.8787 22.7175 50.5764 23.523 51.4922 23.3082C52.2335 23.1471 52.8876 22.288 52.7567 21.1603C52.5823 20.3011 51.8846 19.4957 51.0125 19.6568ZM50.8817 20.7844C51.1433 20.7844 51.5794 20.677 51.5794 21.1066C51.5794 21.4825 51.1433 21.3751 50.8817 21.3751V20.7844ZM50.4892 22.5564H50.8817V21.6973H51.2741L51.5358 22.5564H51.9282L51.623 21.5899C52.1026 21.3751 51.9718 20.7307 51.7538 20.5696C51.4922 20.3548 50.8381 20.4085 50.4892 20.4085V22.5564Z" fill="#E31E24"/>
<path d="M92.9586 33.7293C92.8714 33.7293 92.2609 33.7293 92.2173 33.7293C92.1301 33.783 92.0865 34.2663 92.0429 34.4274L91.5196 37.3813C91.476 37.6498 91.258 38.6165 91.258 38.8313H95.1826C95.2698 38.6165 96.0983 33.8367 96.0547 33.7293H95.2698L94.5285 37.972H93.7436C93.6999 37.6498 94.4413 34.1052 94.4413 33.7293H93.7C93.6563 33.8904 93.3511 35.5553 93.3075 35.8775C93.2639 36.2535 93.1767 36.5757 93.1331 36.9516C93.0895 37.1128 93.0895 37.3276 93.0459 37.4887C93.0459 37.5961 93.0023 37.972 92.915 37.972H92.1301L92.9586 33.7293ZM104.514 38.0795C104.514 37.7572 104.732 36.8979 104.776 36.522C104.82 36.1997 104.82 35.9312 104.95 35.8238C105.125 35.6627 105.343 35.609 105.43 35.8775C105.561 36.3072 105.343 37.6498 104.994 38.0258C104.82 38.2943 104.645 38.1869 104.514 38.0795ZM103.773 35.7164C103.991 35.609 104.209 35.7701 104.165 36.0923L103.904 37.5961C103.86 37.9183 103.86 38.0795 103.642 38.1332C103.075 38.2943 103.25 37.3276 103.293 36.8979C103.337 36.4683 103.468 35.8775 103.773 35.7164ZM105.256 33.9441C104.514 33.9441 104.558 33.8904 104.514 34.1052L104.427 34.5886C104.383 34.8034 104.34 35.0182 104.296 35.2867C104.122 35.1793 104.035 34.9645 103.686 35.0182C103.468 35.0719 103.25 35.233 103.119 35.3405C102.552 35.9312 101.898 38.5628 103.032 38.8313C103.381 38.8851 103.468 38.7776 103.686 38.6165L103.424 39.9592C104.296 39.9592 104.122 40.1203 104.253 39.261C104.296 39.0999 104.34 38.7239 104.383 38.6165C104.601 38.7776 104.645 38.885 105.038 38.7776C106.171 38.5091 106.433 35.9849 106.128 35.2867C106.04 35.0719 105.866 34.9108 105.604 34.9108C105.343 34.9108 105.168 35.0719 104.994 35.1793L105.256 33.9441ZM71.7225 33.7293H70.9376L70.0654 38.885H70.8503C70.9376 38.5091 71.0684 37.5961 71.1556 37.1128C71.1992 36.7368 71.1992 36.5757 71.33 36.5757C71.6789 36.5757 71.9405 36.522 71.9405 37.0053C71.9841 37.6498 71.8533 38.4017 72.1585 38.7239C72.2893 38.8851 72.551 38.9388 72.8126 38.885C72.8562 38.8313 73.1179 38.2406 73.0743 38.1332C72.987 38.0258 72.9434 38.0795 72.8562 38.0258C72.6382 37.9183 72.7254 37.4887 72.7254 37.1128C72.7254 36.3609 72.5946 36.3609 72.3766 36.146L72.3329 36.0923C72.7254 35.9849 72.8562 35.6627 72.987 35.1793C73.0306 35.0182 73.1179 34.696 73.2051 34.5886C73.3359 34.32 73.4667 34.4274 73.6411 34.2663C73.6847 34.1052 73.6411 33.6756 73.5975 33.5682C73.3359 33.5144 73.0306 33.6756 72.8562 33.8367C72.6818 33.9978 72.5946 34.2663 72.4638 34.5886C72.1149 35.609 72.2021 35.7164 71.4172 35.7164L71.7225 33.7293ZM101.287 35.9312C101.287 36.1997 101.069 37.2739 100.982 37.5424C100.721 38.2406 100.197 38.4017 100.11 37.9183C100.023 37.4887 100.197 36.6294 100.328 36.2535C100.546 35.6627 100.851 35.4479 101.287 35.9312ZM101.767 38.8313C101.767 38.4554 101.68 38.2943 101.68 37.8109C101.723 37.4887 101.767 37.1665 101.811 36.8442C101.854 36.4683 102.116 35.233 102.116 35.0182H101.462L101.418 35.3942C101.2 35.233 101.113 35.0182 100.764 35.0182C100.023 35.0182 99.5868 36.0386 99.4123 36.8979C99.2815 37.5424 99.2815 38.4554 99.674 38.7776C99.892 38.9925 100.197 38.885 100.459 38.7776C100.59 38.7239 100.677 38.6702 100.764 38.5628L101.026 38.2943C101.026 39.0462 100.982 38.8313 101.767 38.8313ZM80.4437 35.0182H79.746L79.0483 38.8313H79.746C79.8332 38.4554 79.9204 38.0258 79.964 37.5961C80.0076 37.2202 79.964 37.2202 80.2257 37.2202C80.4437 37.2202 80.6181 37.2202 80.8361 37.2202L80.5745 38.8313H81.2722L81.9699 35.0182C81.2286 35.0182 81.2722 34.9645 81.2286 35.1793L81.1414 35.7164C81.0978 35.9849 81.0542 36.2535 81.0106 36.4683H80.1821L80.4437 35.0182ZM84.6735 38.8313C84.6735 38.4554 84.5427 38.2406 84.6299 37.8109C84.7171 37.059 85.0223 35.8775 85.1531 35.0182H84.4554C84.3682 35.609 84.2374 36.146 84.1502 36.7368C84.063 37.2739 83.8886 37.9183 83.5397 38.0795C82.8856 38.4017 83.2345 37.1128 83.3217 36.7368C83.4089 36.1997 83.5833 35.5553 83.6269 35.0182H82.9292C82.842 35.5016 82.406 37.5961 82.406 37.9183C82.3624 38.5091 82.624 38.9388 83.1037 38.8313C83.6269 38.7239 83.845 38.2406 83.9758 38.1332C83.9322 38.9925 83.845 38.8313 84.6735 38.8313ZM88.8597 38.8313C88.8161 38.4554 88.7289 38.1869 88.7725 37.8109C88.8597 37.2739 89.2521 35.3405 89.2957 35.0182H88.598C88.4672 35.7164 88.2492 37.2202 87.9875 37.7572C87.9003 37.9183 87.6387 38.2406 87.3771 38.1332C87.159 37.9183 87.4207 36.8979 87.5079 36.5757C87.5951 36.1997 87.7695 35.3405 87.7695 35.0182H87.0718C86.9846 35.2867 86.5485 37.6498 86.5049 37.9183C86.4177 39.0462 87.2898 39.1536 87.9003 38.4017C87.9875 38.2943 87.9875 38.2406 88.0748 38.1869C88.0748 38.4554 88.0748 38.6165 88.162 38.8313H88.8597ZM97.5809 35.0182H96.8832L96.1855 38.8313H96.8832L97.1884 37.2202C97.4501 37.2202 97.6245 37.1665 97.7117 37.435C97.7989 37.8646 97.6681 38.5091 98.017 38.7239C98.1478 38.8313 98.4094 38.8851 98.5838 38.8313C98.671 38.7239 98.8019 38.2943 98.8019 38.1332C98.4094 38.0258 98.4966 38.0795 98.453 37.4887C98.4094 37.1128 98.3658 36.9516 98.1042 36.8442C98.235 36.7368 98.3658 36.8442 98.6274 36.1997C98.8891 35.5553 98.9327 35.7701 99.1943 35.6627C99.1943 35.5016 99.1943 35.1256 99.1507 34.9645C98.6274 34.9108 98.3222 35.233 98.1914 35.6627C97.9297 36.3609 97.9733 36.522 97.3629 36.4683L97.5809 35.0182ZM72.8562 40.0129C73.0743 40.3351 73.7719 40.4962 74.2952 39.9592C74.7749 39.4758 75.3418 37.5424 75.6034 36.7368C75.6906 36.4683 75.7778 36.146 75.9087 35.8775C75.9523 35.7164 76.1703 35.1793 76.1703 35.0719H75.4726C75.3418 35.4479 75.1673 36.146 75.0801 36.5757C74.9929 36.8442 74.7313 37.8646 74.6441 38.0258C74.5569 37.5424 74.5133 37.059 74.4696 36.5757C74.426 36.1997 74.426 35.3942 74.3388 35.0719H73.7283L74.2516 38.6702C74.3388 39.0999 74.1208 39.5832 73.772 39.6369C73.5103 39.6906 73.4231 39.5295 73.2051 39.4758C73.0743 39.5295 72.8998 39.9055 72.8562 40.0129ZM77.9581 36.8979C78.0453 36.6831 79.0919 35.2867 79.2227 35.0182H78.3506C78.2634 35.233 78.1326 35.4479 78.0017 35.6627C77.9145 35.8238 77.7401 36.146 77.6529 36.3072L77.304 35.0719H76.5627C76.5627 35.3405 77.1296 36.5757 77.2168 36.9516C77.1296 37.1128 76.6936 37.7035 76.5627 37.9183C76.4319 38.0795 76.3447 38.2406 76.2139 38.4017C76.1703 38.5091 75.9087 38.7776 75.9087 38.885H76.7372C76.9116 38.6702 77.4349 37.6498 77.5221 37.5424L77.9581 38.885H78.6994C78.6558 38.7239 78.3942 38.1332 78.3506 37.9183C78.2198 37.5961 78.0017 37.1665 77.9581 36.8979ZM107.392 38.1869C107.436 37.9183 107.479 37.4887 107.567 37.2202C107.61 37.1128 107.61 37.1127 107.654 37.059C108.352 36.8442 108.439 37.7035 108.09 38.0795C107.916 38.2943 107.654 38.2406 107.392 38.1869ZM107.959 35.0182H107.261C107.131 35.8238 106.956 36.6294 106.825 37.435C106.782 37.6498 106.738 37.8109 106.738 38.0258C106.695 38.2406 106.607 38.4554 106.782 38.5628C107.043 38.7239 107.392 38.885 107.698 38.885C109.224 38.9388 109.398 37.0053 108.744 36.522C108.439 36.2535 108.134 36.3609 107.741 36.4146L107.959 35.0182ZM110.663 35.0182H109.965C109.878 35.6627 109.747 36.3072 109.616 36.8979C109.573 37.2739 109.267 38.5091 109.267 38.8313H109.965L110.663 35.0182Z" fill="white"/>
</g>
<defs>
<filter id="filter0_b_266_13847" x="-4.31373" y="-4.31373" width="146.627" height="63.6275" filterUnits="userSpaceOnUse" color-interpolation-filters="sRGB">
<feFlood flood-opacity="0" result="BackgroundImageFix"/>
<feGaussianBlur in="BackgroundImageFix" stdDeviation="2.15686"/>
<feComposite in2="SourceAlpha" operator="in" result="effect1_backgroundBlur_266_13847"/>
<feBlend mode="normal" in="SourceGraphic" in2="effect1_backgroundBlur_266_13847" result="shape"/>
</filter>
</defs>
</svg>
