<svg width="138" height="55" viewBox="0 0 138 55" fill="none" xmlns="http://www.w3.org/2000/svg">
<g filter="url(#filter0_b_266_14087)">
<rect width="138" height="55" rx="27.5" fill="#5C5F8E" fill-opacity="0.1"/>
<path d="M41.5685 26.9C41.5685 22.2608 37.7476 18.5 33.0342 18.5C28.3209 18.5 24.5 22.2608 24.5 26.9C24.5 31.5392 28.3209 35.3 33.0342 35.3C37.7476 35.3 41.5685 31.5392 41.5685 26.9Z" fill="#FC3F1D"/>
<path d="M34.1272 23.259H33.339C31.8937 23.259 31.1329 23.9796 31.1329 25.0422C31.1329 26.2434 31.6584 26.8074 32.7379 27.528L33.6298 28.119L31.0671 31.8888H29.1523L31.4523 28.5168C30.1283 27.5832 29.387 26.6778 29.387 25.1442C29.387 23.2224 30.7482 21.9102 33.3299 21.9102H35.8926V31.8798H34.1272V23.259Z" fill="white"/>
<path d="M65.5531 33.6558C65.7598 33.729 66.117 33.8394 66.6254 33.8394C68.3932 33.8394 69.1083 32.646 70.1056 30.279L74.0752 20.9004H71.9489L69.2588 27.6546L66.4748 20.9004H64.123L68.1116 30.297C67.716 31.233 67.321 31.875 66.4181 31.875C66.0042 31.875 65.7415 31.8204 65.5525 31.7472V33.6552L65.5531 33.6558ZM77.4822 33.8394C78.5167 33.8394 79.25 33.6558 79.7962 33.27V31.4904C79.2317 31.8762 78.5545 32.1144 77.6139 32.1144C76.0143 32.1144 75.3559 30.9036 75.3559 28.9944C75.3559 26.994 76.1649 25.9662 77.6328 25.9662C78.4984 25.9662 79.3445 26.2602 79.7962 26.5356V24.6804C79.3256 24.4236 78.4978 24.24 77.3883 24.24C74.5287 24.24 73.0419 26.2404 73.0419 29.0484C73.0419 32.1318 74.4909 33.8388 77.4822 33.8388V33.8394ZM80.4558 31.7652V33.6552C80.4558 33.6552 80.813 33.8394 81.3397 33.8394C83.2587 33.8394 83.7475 32.5176 83.8609 29.4534L83.9926 26.1492H86.2688V33.6552H88.5072V24.4248H82.0925L81.9041 29.3616C81.8292 31.3254 81.6969 31.9314 80.9636 31.9314C80.6435 31.9314 80.4558 31.7652 80.4558 31.7652ZM91.5978 36.5004C93.6863 36.5004 94.4574 35.0508 95.0975 33.1602L98.0509 24.4242H95.8875L93.7991 31.3614L91.7112 24.4242H89.3594L92.614 34.0596C92.3696 34.5 92.0117 34.7754 91.3912 34.7754C90.9773 34.7754 90.6201 34.647 90.375 34.4082V36.1884C90.375 36.1884 90.7139 36.5004 91.5978 36.5004ZM98.9001 24.4242V33.6558H101.139V26.1498H104.6V24.4236H98.9001V24.4242ZM105.918 24.4242V33.6558H107.856L111.317 27.948V33.6558H113.5V24.4242H111.562L108.101 30.132V24.4242H105.918Z" fill="white"/>
<path d="M51.3223 35.3C56.0357 35.3 59.8566 31.5392 59.8566 26.9C59.8566 22.2608 56.0357 18.5 51.3223 18.5C46.609 18.5 42.7881 22.2608 42.7881 26.9C42.7881 31.5392 46.609 35.3 51.3223 35.3Z" fill="#242729"/>
<path d="M48.7406 21.4389C47.8141 22.0437 47.1658 22.9823 46.9351 24.0527C46.7044 25.1232 46.9099 26.24 47.5072 27.1629C48.1046 28.0858 49.0461 28.741 50.1293 28.9876C51.2124 29.2343 52.3507 29.0526 53.2991 28.4817L59.5254 24.5775C59.0978 23.119 58.2772 21.8016 57.1507 20.7649C56.0242 19.7281 54.6337 19.0106 53.1266 18.6885L48.7406 21.4389Z" fill="#FF9D7C"/>
<path d="M48.7406 21.4389C47.8141 22.0437 47.1658 22.9823 46.9351 24.0527C46.7044 25.1232 46.9099 26.24 47.5072 27.1629C48.1046 28.0858 49.0461 28.741 50.1293 28.9876C51.2124 29.2343 52.3507 29.0526 53.2991 28.4817L59.5254 24.5775C59.0978 23.119 58.2772 21.8016 57.1507 20.7649C56.0242 19.7281 54.6337 19.0106 53.1266 18.6885L48.7406 21.4389Z" fill="#FF6432"/>
<path d="M48.7406 21.4389C47.8141 22.0437 47.1658 22.9823 46.9351 24.0527C46.7044 25.1232 46.9099 26.24 47.5072 27.1629C48.1046 28.0858 49.0461 28.741 50.1293 28.9876C51.2124 29.2343 52.3507 29.0526 53.2991 28.4817L59.5254 24.5775C59.0978 23.119 58.2772 21.8016 57.1507 20.7649C56.0242 19.7281 54.6337 19.0106 53.1266 18.6885L48.7406 21.4389Z" fill="url(#paint0_radial_266_14087)"/>
<path d="M48.7406 21.4389C47.8141 22.0437 47.1658 22.9823 46.9351 24.0527C46.7044 25.1232 46.9099 26.24 47.5072 27.1629C48.1046 28.0858 49.0461 28.741 50.1293 28.9876C51.2124 29.2343 52.3507 29.0526 53.2991 28.4817L59.5254 24.5775C59.0978 23.119 58.2772 21.8016 57.1507 20.7649C56.0242 19.7281 54.6337 19.0106 53.1266 18.6885L48.7406 21.4389Z" fill="url(#paint1_linear_266_14087)"/>
<path d="M43.1172 29.2181L49.346 25.3121C49.8158 25.0174 50.3401 24.8168 50.8887 24.7216C51.4373 24.6264 51.9997 24.6385 52.5436 24.7572C53.0875 24.8759 53.6023 25.0989 54.0586 25.4134C54.515 25.728 54.9039 26.1279 55.2032 26.5904C55.5025 27.0528 55.7064 27.5688 55.8031 28.1088C55.8998 28.6488 55.8875 29.2023 55.7669 29.7376C55.6463 30.273 55.4198 30.7797 55.1002 31.2289C54.7807 31.678 54.3743 32.0608 53.9045 32.3555L49.5112 35.1101C48.0046 34.7869 46.6149 34.0686 45.4892 33.0313C44.3636 31.9941 43.544 30.6765 43.1172 29.2181Z" fill="#FFE66E"/>
<path d="M43.1172 29.2181L49.346 25.3121C49.8158 25.0174 50.3401 24.8168 50.8887 24.7216C51.4373 24.6264 51.9997 24.6385 52.5436 24.7572C53.0875 24.8759 53.6023 25.0989 54.0586 25.4134C54.515 25.728 54.9039 26.1279 55.2032 26.5904C55.5025 27.0528 55.7064 27.5688 55.8031 28.1088C55.8998 28.6488 55.8875 29.2023 55.7669 29.7376C55.6463 30.273 55.4198 30.7797 55.1002 31.2289C54.7807 31.678 54.3743 32.0608 53.9045 32.3555L49.5112 35.1101C48.0046 34.7869 46.6149 34.0686 45.4892 33.0313C44.3636 31.9941 43.544 30.6765 43.1172 29.2181Z" fill="url(#paint2_linear_266_14087)"/>
</g>
<defs>
<filter id="filter0_b_266_14087" x="-4.31373" y="-4.31373" width="146.627" height="63.6275" filterUnits="userSpaceOnUse" color-interpolation-filters="sRGB">
<feFlood flood-opacity="0" result="BackgroundImageFix"/>
<feGaussianBlur in="BackgroundImageFix" stdDeviation="2.15686"/>
<feComposite in2="SourceAlpha" operator="in" result="effect1_backgroundBlur_266_14087"/>
<feBlend mode="normal" in="SourceGraphic" in2="effect1_backgroundBlur_266_14087" result="shape"/>
</filter>
<radialGradient id="paint0_radial_266_14087" cx="0" cy="0" r="1" gradientUnits="userSpaceOnUse" gradientTransform="translate(49.3599 30.2037) rotate(-34.4579) scale(10.1669 7.44028)">
<stop stop-color="#CC0700" stop-opacity="0.97"/>
<stop offset="0.067" stop-color="#CC0700" stop-opacity="0.962"/>
<stop offset="0.133" stop-color="#CC0700" stop-opacity="0.936"/>
<stop offset="0.2" stop-color="#CC0700" stop-opacity="0.891"/>
<stop offset="0.267" stop-color="#CC0700" stop-opacity="0.827"/>
<stop offset="0.333" stop-color="#CC0700" stop-opacity="0.745"/>
<stop offset="0.4" stop-color="#CC0700" stop-opacity="0.648"/>
<stop offset="0.467" stop-color="#CC0700" stop-opacity="0.541"/>
<stop offset="0.533" stop-color="#CC0700" stop-opacity="0.429"/>
<stop offset="0.6" stop-color="#CC0700" stop-opacity="0.322"/>
<stop offset="0.667" stop-color="#CC0700" stop-opacity="0.225"/>
<stop offset="0.733" stop-color="#CC0700" stop-opacity="0.143"/>
<stop offset="0.8" stop-color="#CC0700" stop-opacity="0.079"/>
<stop offset="0.867" stop-color="#CC0700" stop-opacity="0.034"/>
<stop offset="0.933" stop-color="#CC0700" stop-opacity="0.01"/>
<stop offset="1" stop-color="#CC0700" stop-opacity="0"/>
</radialGradient>
<linearGradient id="paint1_linear_266_14087" x1="49.908" y1="28.0413" x2="55.6687" y2="13.9145" gradientUnits="userSpaceOnUse">
<stop stop-color="#FF8140" stop-opacity="0"/>
<stop offset="0.067" stop-color="#FF8140" stop-opacity="0.01"/>
<stop offset="0.133" stop-color="#FF8140" stop-opacity="0.036"/>
<stop offset="0.2" stop-color="#FF8140" stop-opacity="0.082"/>
<stop offset="0.267" stop-color="#FF8140" stop-opacity="0.147"/>
<stop offset="0.333" stop-color="#FF8140" stop-opacity="0.232"/>
<stop offset="0.4" stop-color="#FF8140" stop-opacity="0.332"/>
<stop offset="0.467" stop-color="#FF8140" stop-opacity="0.443"/>
<stop offset="0.533" stop-color="#FF8140" stop-opacity="0.557"/>
<stop offset="0.6" stop-color="#FF8140" stop-opacity="0.668"/>
<stop offset="0.667" stop-color="#FF8140" stop-opacity="0.768"/>
<stop offset="0.733" stop-color="#FF8140" stop-opacity="0.853"/>
<stop offset="0.8" stop-color="#FF8140" stop-opacity="0.918"/>
<stop offset="0.867" stop-color="#FF8140" stop-opacity="0.964"/>
<stop offset="0.933" stop-color="#FF8140" stop-opacity="0.991"/>
<stop offset="1" stop-color="#FF8140"/>
</linearGradient>
<linearGradient id="paint2_linear_266_14087" x1="50.1628" y1="28.0187" x2="44.6566" y2="36.0063" gradientUnits="userSpaceOnUse">
<stop stop-color="#FFD750" stop-opacity="0"/>
<stop offset="1" stop-color="#FFD750"/>
</linearGradient>
</defs>
</svg>
