<svg width="138" height="55" viewBox="0 0 138 55" fill="none" xmlns="http://www.w3.org/2000/svg">
<g filter="url(#filter0_b_266_13869)">
<rect width="138" height="55" rx="27.5" fill="#5C5F8E" fill-opacity="0.1"/>
<path fill-rule="evenodd" clip-rule="evenodd" d="M66.1407 33.0619C66.6958 32.8115 66.7125 32.4381 66.7125 32.1877V29.062H69V32.3163C69 32.7391 68.8622 33.2123 67.9425 33.5996C66.7305 34.1163 64.84 34.1366 63.7299 34.1366C62.6211 34.1366 60.7314 34.1163 59.5169 33.5996C58.5995 33.2123 58.4607 32.7391 58.4607 32.3163V29.062H60.7476V32.1877C60.7476 32.466 60.7672 32.8037 61.338 33.0619C61.98 33.3485 63.0205 33.3839 63.7299 33.3839C64.3892 33.3839 65.5169 33.3485 66.1407 33.0619ZM26.0296 34.1365C25.6391 34.1365 25.1971 34.1007 24.9255 34.0065C24.7379 33.9407 24.5 33.8035 24.5 33.5863V29.062H26.7448V33.1001C26.7448 33.105 26.7447 33.1101 26.7445 33.1154C26.7431 33.174 26.7411 33.2581 26.8971 33.3175C26.9648 33.3398 28.0575 33.3757 28.4139 33.3757H33.8684V34.1356L38.3539 29.6276C38.7781 29.2055 39.2384 29.062 40.3078 29.062C41.3278 29.062 41.8371 29.2055 42.2626 29.6276L46.749 34.1366H44.3868L43.1634 32.8688H37.4365L36.2297 34.1366H33.8684L26.0296 34.1365ZM39.9815 30.1369L39.9678 30.1513L38.0131 32.1949H42.5855L40.6484 30.1513L40.6328 30.135C40.5623 30.0612 40.45 29.9437 40.3078 29.9437C40.1648 29.9437 40.0513 30.0633 39.9815 30.1369ZM48.8007 34.1366C48.2472 34.1366 47.1401 34.1148 47.1401 33.6138C47.1401 33.303 47.5372 33.0861 47.8844 32.9328L54.4937 30.07C54.5982 30.027 54.7018 29.9684 54.7018 29.9177C54.7018 29.8885 54.6502 29.8237 54.3736 29.8237H47.6078V29.062H56.3116C56.9873 29.062 57.6796 29.1701 57.6796 29.5843C57.6796 29.9034 57.3462 30.0499 57.0082 30.1985L56.9873 30.2077L50.2894 33.1645L50.2878 33.1651C50.2022 33.2015 50.1162 33.2381 50.1162 33.2957C50.1162 33.3613 50.2203 33.3751 50.324 33.3751H57.4888V34.1365L48.8007 34.1366ZM70.6633 29.265C70.1886 29.4607 70.1711 29.7144 70.1711 29.9248L70.1707 34.1366H72.4113V30.1861C72.4113 30.085 72.4113 29.9905 72.6486 29.9039C72.8344 29.8307 73.0054 29.8233 73.2431 29.8233H76.8745C77.2313 29.8233 77.7743 29.8233 78.1295 29.9754C78.368 30.077 78.5546 30.2803 78.5546 30.6787C78.5546 30.8533 78.5203 31.2149 78.2837 31.3752C77.9781 31.5784 77.4515 31.5998 77.0615 31.5998H74.8217C74.1776 31.5998 73.8204 31.7446 73.8204 31.9481V32.0636C73.8204 32.208 74.1421 32.3892 74.3798 32.4912L78.2837 34.1365H81.1005L76.5872 32.346V32.3094H78.1151C79.4696 32.3094 80.0485 32.0347 80.3534 31.7884C80.8292 31.4107 80.8628 31.012 80.8628 30.6431C80.8628 30.2728 80.8288 29.8742 80.2683 29.5257C79.5738 29.0828 78.5546 29.062 77.7232 29.062H72.0885C71.6493 29.062 71.0896 29.0902 70.6633 29.265ZM83.8337 29.062H81.882V34.1366H83.8337V29.062ZM88.9485 29.8223V34.1366H91.2344V29.8223H95.5443V29.062H84.6144V29.8223H88.9485Z" fill="white"/>
<path d="M113.501 20.0835H98.668V34.9168H113.501V20.0835Z" fill="white"/>
<path fill-rule="evenodd" clip-rule="evenodd" d="M102.401 30.2443C102.401 30.5283 102.41 30.812 102.419 31.0469L102.45 31.794H102.909L102.795 29.8423H102.182L101.96 30.4907C101.892 30.708 101.822 30.9658 101.763 31.1915H101.753C101.707 30.9628 101.643 30.7194 101.579 30.4937L101.375 29.8423H100.749L100.617 31.794H101.051L101.088 31.0528C101.099 30.8877 101.107 30.6961 101.114 30.5076C101.118 30.4181 101.122 30.3293 101.125 30.2443H101.131C101.181 30.4995 101.252 30.7773 101.319 31.0063L101.542 31.7621H101.908L102.16 31.0004C102.241 30.7716 102.327 30.4937 102.392 30.2443H102.401ZM103.586 30.9686H104.401V30.6097H103.586V30.2043H104.45V29.8423H103.085V31.794H104.495V31.432H103.586V30.9686ZM106.088 29.8423V30.1975H105.153V30.5301C105.225 30.5213 105.326 30.516 105.411 30.516C105.627 30.516 105.851 30.5644 106.012 30.6734C106.161 30.7709 106.259 30.9225 106.259 31.1347C106.259 31.3241 106.18 31.47 106.056 31.5704C105.851 31.7367 105.516 31.794 105.191 31.794C104.954 31.794 104.779 31.7796 104.672 31.7652V29.8423H106.088ZM105.149 31.4561C105.203 31.4642 105.269 31.4671 105.336 31.4671C105.452 31.4671 105.57 31.4328 105.649 31.3668C105.712 31.3157 105.752 31.2379 105.752 31.1434C105.752 31.0461 105.708 30.9744 105.639 30.9256C105.554 30.8654 105.434 30.8392 105.32 30.8392C105.266 30.8392 105.209 30.8426 105.149 30.851V31.4561ZM107.049 30.9686H107.762V30.6097H107.049V30.2043H107.805V29.8423H106.611V31.794H107.845V31.432H107.049V30.9686ZM109.608 29.8423V31.7656H109.194V30.199H108.777V30.6557C108.777 31.1492 108.717 31.5286 108.438 31.6999C108.346 31.7541 108.22 31.794 108.073 31.794L108.021 31.4428C108.111 31.4316 108.185 31.3915 108.231 31.3403C108.343 31.2206 108.37 30.9752 108.37 30.6842V29.8423H109.608ZM110.564 30.5128V29.8423H110.137V31.7652C110.232 31.7796 110.39 31.794 110.601 31.794C110.896 31.794 111.213 31.7367 111.395 31.5476C111.488 31.4469 111.547 31.3099 111.547 31.1261C111.547 30.6963 111.202 30.4987 110.794 30.4987C110.713 30.4987 110.623 30.5071 110.564 30.5128ZM110.721 31.4671C110.659 31.4671 110.609 31.4642 110.561 31.4561V30.8453C110.614 30.8393 110.664 30.8337 110.727 30.8337C110.932 30.8337 111.098 30.9256 111.098 31.1462C111.098 31.3644 110.929 31.4671 110.721 31.4671Z" fill="#1257A1"/>
</g>
<defs>
<filter id="filter0_b_266_13869" x="-4.31373" y="-4.31373" width="146.627" height="63.6275" filterUnits="userSpaceOnUse" color-interpolation-filters="sRGB">
<feFlood flood-opacity="0" result="BackgroundImageFix"/>
<feGaussianBlur in="BackgroundImageFix" stdDeviation="2.15686"/>
<feComposite in2="SourceAlpha" operator="in" result="effect1_backgroundBlur_266_13869"/>
<feBlend mode="normal" in="SourceGraphic" in2="effect1_backgroundBlur_266_13869" result="shape"/>
</filter>
</defs>
</svg>
