<svg width="138" height="55" viewBox="0 0 138 55" fill="none" xmlns="http://www.w3.org/2000/svg">
<g filter="url(#filter0_b_266_13737)">
<rect width="138" height="55" rx="27.5" fill="#5C5F8E" fill-opacity="0.1"/>
<path d="M27.6751 34.1651C31.3562 34.1651 34.3404 31.1809 34.3404 27.4998C34.3404 23.8186 31.3562 20.8345 27.6751 20.8345C23.9939 20.8345 21.0098 23.8186 21.0098 27.4998C21.0098 31.1809 23.9939 34.1651 27.6751 34.1651Z" fill="#FC3F1D"/>
<path d="M28.6579 24.5673H27.9832C26.8268 24.5673 26.2486 25.1455 26.2486 26.0129C26.2486 26.9766 26.6341 27.4584 27.5015 28.0366L28.1759 28.5184L26.2486 31.5057H24.707L26.5379 28.8075C25.4779 28.0366 24.8997 27.362 24.8997 26.1093C24.8997 24.5673 25.9599 23.5073 27.9834 23.5073H30.0072V31.5057H28.6581V24.5675L28.6579 24.5673Z" fill="white"/>
<path d="M35.2295 27.4998C35.2295 23.8186 38.2137 20.8345 41.8948 20.8345C45.5759 20.8345 48.5601 23.8186 48.5601 27.4998C48.5601 31.1809 45.5759 34.1651 41.8948 34.1651C38.2137 34.1651 35.2295 31.1809 35.2295 27.4998Z" fill="#786565"/>
<path d="M45.3244 30.6103C45.2197 30.6708 45.1009 30.7026 44.9799 30.7026C44.859 30.7026 44.7402 30.6708 44.6354 30.6103L43.3418 29.8632V31.3596C43.3418 31.6056 43.2106 31.8331 42.9973 31.9561L42.4504 32.2718C42.3457 32.3323 42.2269 32.3641 42.106 32.3641C41.985 32.3641 41.8662 32.3323 41.7615 32.2718L37.9529 30.0726C37.8482 30.0121 37.7612 29.9251 37.7007 29.8204C37.6403 29.7157 37.6084 29.5969 37.6084 29.476V25.3211C37.6084 25.0751 37.7396 24.8476 37.9529 24.7243L38.4997 24.4089C38.6045 24.3484 38.7233 24.3166 38.8442 24.3166C38.9651 24.3166 39.0839 24.3484 39.1887 24.4089L40.4824 25.1557V23.6596C40.4824 23.4133 40.6135 23.1861 40.8268 23.0628L41.3737 22.7471C41.4784 22.6866 41.5972 22.6548 41.7182 22.6548C41.8391 22.6548 41.9579 22.6866 42.0626 22.7471L45.8716 24.9466C45.9762 25.0071 46.0632 25.094 46.1236 25.1986C46.1841 25.3033 46.216 25.422 46.216 25.5429V29.6978C46.216 29.9441 46.0848 30.1713 45.8716 30.2946L45.3244 30.6103Z" fill="#FFDD29"/>
<path d="M52.1143 23.5V30.7452H53.3976V27.5983H55.7957V30.7452H57.079V23.5H55.7957V26.6167H53.3976V23.5H52.1143ZM62.2246 30.3893V29.3806C61.8318 29.6396 61.1746 29.8685 60.5588 29.8685C59.6349 29.8685 59.2857 29.441 59.2315 28.5665H62.2766V27.9107C62.2766 26.0852 61.459 25.3992 60.1993 25.3992C58.6596 25.3992 57.9277 26.5558 57.9277 28.1395C57.9277 29.9622 58.8409 30.8496 60.4526 30.8496C61.2599 30.8496 61.8523 30.6408 62.2246 30.3893ZM60.1762 26.3776C60.8018 26.3776 60.9938 26.8886 60.9938 27.5445V27.6489H59.2315C59.2652 26.8149 59.5732 26.3781 60.1757 26.3781L60.1762 26.3776ZM67.8133 29.7641H67.2516V25.5031H63.5701V25.9506C63.5701 27.2321 63.4875 28.8896 63.04 29.7641H62.649V31.9427H63.8159V30.7452H66.6464V31.9427H67.8133V29.7641ZM65.9892 29.7641H64.2065C64.5584 28.9731 64.6544 27.5445 64.6544 26.6371V26.4816H65.9892V29.7641ZM70.6562 30.7452C71.9084 30.7452 72.6514 30.2244 72.6514 29.2224C72.6514 28.5363 72.227 28.1395 71.5152 28.0151C72.0897 27.8573 72.4492 27.461 72.4492 26.8353C72.4492 25.9404 71.844 25.5031 70.6771 25.5031H68.4496V30.7452H70.6562ZM70.5296 26.4185C70.9851 26.4185 71.241 26.6167 71.241 27.0237C71.241 27.3894 70.9642 27.608 70.4856 27.608H69.6813V26.4185H70.5296ZM70.5505 28.5132C71.0913 28.5132 71.3783 28.7016 71.3783 29.1388C71.3783 29.6294 71.0602 29.8276 70.5505 29.8276H69.6809V28.5132H70.5505ZM73.4997 25.5031V30.7452H74.6225L76.5555 27.5041V30.7452H77.7739V25.5031H76.651L74.7181 28.7447V25.5031H73.4997ZM79.7477 30.7452L81.4243 28.1702V30.7452H82.684V28.1702L84.3606 30.7452H85.794L83.9366 27.9107L85.5483 25.5031H84.2752L82.6845 27.9209V25.504H81.4238V27.9213L79.833 25.504H78.5266L80.1721 27.9622L78.3582 30.7456L79.7477 30.7452ZM86.3761 25.5031V30.7452H87.5012L89.4315 27.5041V30.7452H90.6526V25.5031H89.5271L87.5972 28.7447V25.5031H86.3761ZM96.2617 30.7452H97.493L97.4725 25.5031H95.744L94.5878 28.9935L93.548 25.5031H91.7133V30.7452H92.7842V26.8251L93.9408 30.7452H94.9682L96.2612 26.8251L96.2617 30.7452ZM100.696 25.3992C99.3068 25.3992 98.3417 26.3679 98.3417 28.1293C98.3417 29.8809 99.3068 30.8496 100.696 30.8496C102.085 30.8496 103.05 29.8809 103.05 28.1191C103.05 26.3674 102.085 25.3992 100.696 25.3992ZM100.696 29.8685C99.9974 29.8685 99.6454 29.337 99.6454 28.1293C99.6454 26.9091 99.9974 26.3776 100.696 26.3776C101.397 26.3776 101.746 26.9091 101.746 28.1195C101.746 29.337 101.397 29.8685 100.696 29.8685ZM106.191 30.8496C106.776 30.8496 107.187 30.7452 107.495 30.5266V29.5148C107.177 29.7334 106.796 29.8685 106.266 29.8685C105.363 29.8685 104.993 29.182 104.993 28.0964C104.993 26.9602 105.449 26.3776 106.277 26.3776C106.763 26.3776 107.242 26.5456 107.495 26.7007V25.648C107.231 25.5031 106.763 25.3992 106.139 25.3992C104.525 25.3992 103.689 26.5327 103.689 28.1293C103.689 29.8809 104.504 30.8496 106.191 30.8496ZM112.206 26.4816V25.5036H107.974V26.4825H109.459V30.7456H110.721V26.4821L112.206 26.4816ZM112.949 25.5031V30.7452H114.848C116.1 30.7452 116.99 30.12 116.99 28.8896C116.99 27.7227 116.193 27.1077 114.869 27.1077H114.211V25.5036L112.949 25.5031ZM114.773 29.7641H114.211V28.0862H114.804C115.357 28.0862 115.686 28.3275 115.686 28.9304C115.686 29.5352 115.324 29.7641 114.773 29.7641Z" fill="white"/>
</g>
<defs>
<filter id="filter0_b_266_13737" x="-4.31373" y="-4.31373" width="146.627" height="63.6275" filterUnits="userSpaceOnUse" color-interpolation-filters="sRGB">
<feFlood flood-opacity="0" result="BackgroundImageFix"/>
<feGaussianBlur in="BackgroundImageFix" stdDeviation="2.15686"/>
<feComposite in2="SourceAlpha" operator="in" result="effect1_backgroundBlur_266_13737"/>
<feBlend mode="normal" in="SourceGraphic" in2="effect1_backgroundBlur_266_13737" result="shape"/>
</filter>
</defs>
</svg>
