<svg width="138" height="55" viewBox="0 0 138 55" fill="none" xmlns="http://www.w3.org/2000/svg">
<g filter="url(#filter0_b_266_13881)">
<rect width="138" height="55" rx="27.5" fill="#5C5F8E" fill-opacity="0.1"/>
<path fill-rule="evenodd" clip-rule="evenodd" d="M40.5536 23.577C40.6613 24.1225 40.7873 24.542 40.9349 24.8371C41.0805 25.1278 41.3289 25.2735 41.6783 25.2735L40.7517 27.583C40.3868 28.4862 40 29.8582 39.5812 31.6893C39.1693 33.5282 39.0384 34.835 39.1899 35.618C39.3394 36.3908 39.6907 36.8961 40.2384 37.1385C40.7836 37.3749 41.3068 37.4952 41.8129 37.4952C42.5844 37.4952 43.473 37.4072 44.4778 37.2217C45.4798 37.041 46.235 36.8515 46.7432 36.6552C46.9817 36.5649 47.1303 36.4198 47.2022 36.2289C47.268 36.0401 47.244 35.6462 47.1287 35.0504C47.0668 34.735 46.9294 34.5772 46.705 34.5772C46.3961 34.5772 46.0412 34.647 45.6449 34.7887C45.2471 34.9267 44.8441 35.0393 44.4368 35.1216C44.0277 35.2109 43.3836 35.2517 42.502 35.2517C42.2781 35.2517 42.1297 35.2251 42.0547 35.1714C41.9819 35.1216 41.931 35.0277 41.9043 34.8929C41.8339 34.5311 41.9043 33.9006 42.1131 32.9965C42.3179 32.09 42.5294 31.3439 42.7394 30.7513L44.5328 30.7054C45.2937 30.6865 45.8008 30.6656 46.0575 30.634C46.3146 30.6042 46.4783 30.5404 46.5473 30.4427C46.6159 30.3408 46.6408 30.1597 46.6135 29.895C46.5933 29.6498 46.5905 29.4682 46.5995 29.3477C46.6023 29.3174 46.6089 29.2743 46.6192 29.2246C46.6278 29.1659 46.632 29.1182 46.6235 29.0752C46.5561 28.73 46.1048 28.5556 45.2725 28.5556C44.6289 28.5556 43.917 28.6004 43.1341 28.6955C43.3539 27.9563 43.6639 27.0722 44.066 26.0446C44.2621 25.5269 44.4229 25.181 44.5438 25.0019C44.6641 24.8201 44.8341 24.7108 45.054 24.6629C45.2741 24.6167 45.6973 24.5949 46.3309 24.5949C46.5038 24.5949 47.0618 24.6326 48.0119 24.7108C48.0468 24.7108 48.1124 24.7163 48.2092 24.7234C48.3029 24.7308 48.3758 24.7348 48.4192 24.7348C48.6966 24.7348 48.8161 24.6441 48.7797 24.4603C48.7554 24.3378 48.6367 24.0964 48.4235 23.7394C48.0435 23.099 47.7239 22.695 47.4578 22.52C47.1923 22.3456 46.8094 22.2588 46.3102 22.2588C45.2011 22.2588 43.9398 22.3456 42.5258 22.52C41.108 22.6951 40.452 23.045 40.5536 23.577Z" fill="#ED1C24"/>
<path fill-rule="evenodd" clip-rule="evenodd" d="M93.3423 36.1054C93.578 35.7378 93.7749 35.4506 93.9312 35.2458C94.0945 35.035 94.4051 34.6368 94.854 34.0469C95.3066 33.4595 95.7528 32.8792 96.193 32.3133C96.6298 31.7479 97.0499 31.2221 97.4448 30.7301C97.8465 30.2411 98.2905 29.7097 98.7808 29.1377L98.1867 31.7677C97.9719 32.7538 97.8329 33.4089 97.7718 33.732C97.7139 34.054 97.673 34.3826 97.6508 34.7129C97.6292 35.0478 97.6417 35.3438 97.6917 35.6036C97.7558 35.9383 97.9418 36.249 98.2386 36.5309C98.5387 36.8186 98.8631 37.0442 99.2191 37.2152C99.5762 37.386 99.8472 37.471 100.038 37.471C100.293 37.471 100.458 37.2534 100.524 36.8145C100.588 36.3767 100.665 35.4683 100.744 34.0886C100.832 32.7138 100.969 31.3689 101.164 30.06C101.357 28.7481 101.677 27.3873 102.13 25.978C103.08 25.149 103.515 24.5352 103.439 24.1329C103.389 23.8761 103.22 23.5649 102.934 23.1972C102.644 22.8302 102.365 22.647 102.095 22.647C101.837 22.647 101.315 23.0323 100.524 23.806C99.7315 24.5812 98.8602 25.5037 97.9045 26.5791C96.9538 27.6564 96.0814 28.6678 95.2888 29.6187C94.4936 30.5652 94.0137 31.1632 93.8399 31.4018C94.1118 30.1057 94.3563 29.0402 94.5727 28.2088C94.7942 27.3796 95.0227 26.578 95.257 25.7967C95.4943 25.0176 95.6389 24.5086 95.7014 24.2701C95.7589 24.0295 95.7734 23.8347 95.7452 23.6866C95.7218 23.5648 95.5804 23.3839 95.3285 23.1451C95.0777 22.9053 94.8045 22.6888 94.5125 22.4943C94.2228 22.3004 94.0201 22.2012 93.903 22.2012C93.6976 22.2012 93.511 22.4026 93.3417 22.8015C93.1721 23.2015 92.9928 23.7911 92.8136 24.5703C92.6307 25.3463 92.5333 25.7533 92.5243 25.7863C91.5432 29.575 90.9353 32.1259 90.6973 33.4364C90.4607 34.7455 90.364 35.523 90.4109 35.7768C90.4502 35.9612 90.6973 36.2246 91.1641 36.5536C91.625 36.8822 92.0047 37.047 92.3028 37.047C92.4966 37.047 92.6577 36.9832 92.79 36.8531C92.9186 36.723 93.1026 36.4748 93.3423 36.1054Z" fill="#ED1C24"/>
<path fill-rule="evenodd" clip-rule="evenodd" d="M113.072 23.901C112.816 23.6713 112.547 23.4602 112.259 23.269C111.97 23.0776 111.791 22.982 111.716 22.982C111.487 22.982 111.215 23.3431 110.908 24.0558C110.601 24.7727 110.318 25.5469 110.066 26.3808C109.811 27.2151 109.633 27.8237 109.539 28.199L108.83 28.4122C108.6 28.4914 108.265 28.5664 107.826 28.6499C107.392 28.7342 107.075 28.776 106.884 28.776C106.61 28.776 106.441 28.6021 106.376 28.2652C106.334 28.0478 106.394 27.641 106.548 27.0452C106.707 26.4464 106.874 25.9215 107.047 25.465C107.186 25.1391 107.303 24.854 107.411 24.6254C107.51 24.3909 107.585 24.2119 107.624 24.0817C107.667 23.9518 107.677 23.83 107.656 23.7269C107.637 23.6251 107.509 23.447 107.269 23.1944C107.033 22.9443 106.781 22.7128 106.512 22.5082C106.247 22.3045 106.056 22.2012 105.943 22.2012C105.752 22.2012 105.459 22.647 105.063 23.5338C104.664 24.4205 104.323 25.3778 104.041 26.4127C103.755 27.4431 103.662 28.1915 103.749 28.6458C103.844 29.1347 104.125 29.6519 104.589 30.2086C105.057 30.7649 105.511 31.0424 105.951 31.0424C106.187 31.0424 106.681 30.9408 107.437 30.7409C108.19 30.5433 108.765 30.3744 109.166 30.2371C109.096 30.4708 108.963 31.0302 108.769 31.9064C108.573 32.7829 108.408 33.6067 108.277 34.3722C108.142 35.1393 108.097 35.6415 108.142 35.8744C108.209 36.2133 108.516 36.5091 109.06 36.7655C109.335 36.8959 109.602 37.046 109.853 37.214C110.109 37.3786 110.27 37.4636 110.342 37.4636C110.555 37.4636 110.708 37.3158 110.789 37.025C110.869 36.7267 110.929 36.2526 110.969 35.6028C111.007 34.9516 111.028 34.6 111.035 34.5371C111.215 33.0725 111.381 31.917 111.528 31.0663C111.675 30.2174 111.839 29.4769 112.023 28.8358C112.206 28.199 112.488 27.3279 112.864 26.2297C112.994 25.8405 113.14 25.4693 113.289 25.1192C113.442 24.7726 113.511 24.5619 113.499 24.4898C113.466 24.3323 113.324 24.1344 113.072 23.901Z" fill="#ED1C24"/>
<path fill-rule="evenodd" clip-rule="evenodd" d="M39.5941 21.0951C39.6085 21.0611 39.6241 21.0117 39.6371 20.9875C39.9531 20.073 40.4521 20.6979 40.7243 20.6502C41.1531 20.5151 41.3986 20.1262 41.489 19.5763C41.5449 19.2471 41.5778 18.5715 41.4045 18.2906C41.3002 18.121 40.9323 17.8372 40.285 17.711C38.8597 17.4304 36.3442 17.4341 34.1683 17.6955C32.552 17.8937 30.4322 18.3595 27.6188 19.4127C26.6573 19.7727 25.1541 19.9656 24.7089 21.1376C24.3482 22.084 24.4851 22.594 24.8866 22.8337C25.7715 23.3604 27.9429 22.5781 28.9239 22.2622C28.951 22.2844 28.9797 22.3066 29.0209 22.339C28.6608 24.4039 27.8654 26.8868 27.6222 29.1728C27.1232 30.6653 26.1621 34.3694 26.9642 35.8345C28.6192 36.8565 29.6291 33.9591 29.5042 33.8615C29.9232 32.5852 31.2351 26.9938 31.3902 25.4812C31.4272 25.1004 31.4588 24.795 31.5169 24.3999C31.6288 23.6316 31.6427 22.8672 31.7705 22.1454C31.8056 21.9442 31.9194 21.778 32.082 21.6437C32.8023 21.0447 34.4925 21.0357 34.7802 21.0357C35.0041 20.9807 35.6269 20.884 36.1232 20.7227C36.3425 20.6523 36.3443 20.9736 36.285 21.3462C36.2256 21.7164 36.1065 22.1383 36.0796 22.2689C36.0169 22.5791 35.956 22.8448 35.8838 23.1718C35.7935 23.5816 35.6069 24.4177 35.1792 26.2833C34.2102 30.7859 33.4609 34.7908 34.2858 36.9644C34.4841 37.2584 35.156 37.5728 35.3503 37.485C35.8476 37.3917 36.2053 37.1722 36.4634 36.8741C36.9151 36.3526 37.0561 35.5883 37.0938 34.8332C37.1618 33.4504 37.3546 31.3326 37.6664 29.2428C37.8733 27.8559 38.527 24.7697 39.0628 22.7619C39.2668 21.9994 39.4608 21.4029 39.5941 21.0951Z" fill="#ED1C24"/>
<path fill-rule="evenodd" clip-rule="evenodd" d="M52.9677 37.4953C53.1492 37.4953 53.2703 37.3568 53.3288 37.0809C53.3834 36.805 53.5097 35.9965 53.702 34.6587C53.895 33.3254 54.1572 31.8889 54.4895 30.3466C54.8215 28.8075 55.306 26.9832 55.9469 24.8683C56.1896 24.8006 56.6502 24.7519 57.3218 24.7141C57.9941 24.6784 58.4899 24.6125 58.8088 24.5193C59.1262 24.4203 59.253 24.216 59.1906 23.9027C59.1487 23.6808 59.0203 23.4313 58.8066 23.168C58.592 22.8999 58.3008 22.6723 57.9282 22.4858C57.5591 22.2956 57.1428 22.2012 56.6829 22.2012C56.5635 22.2012 56.3805 22.2153 56.1355 22.2454C55.8644 22.275 55.4499 22.3036 54.8962 22.3362C54.3363 22.3654 53.9203 22.3947 53.6448 22.4197C52.0617 22.5403 50.9529 22.6747 50.312 22.8243C49.6727 22.9707 49.3847 23.2212 49.4532 23.5771C49.6605 24.6423 50.0954 25.1731 50.7651 25.1731C50.8694 25.1731 51.6158 25.1144 53.0031 24.9978C52.8403 25.6258 52.6075 26.5604 52.3038 27.8071C52.0046 29.0585 51.7351 30.2245 51.4988 31.3094C51.2553 32.3932 51.0566 33.4001 50.8966 34.3265C50.7316 35.2576 50.6768 35.8454 50.7257 36.097C50.7723 36.335 50.9418 36.5563 51.2358 36.7758C51.5322 36.9885 51.8567 37.1615 52.2141 37.2954C52.5723 37.4295 52.826 37.4953 52.9677 37.4953Z" fill="#ED1C24"/>
<path fill-rule="evenodd" clip-rule="evenodd" d="M76.7074 29.5201C76.537 30.5334 76.2552 31.4759 75.8671 32.3615C75.4741 33.247 75.0438 33.9572 74.5753 34.4954C74.1047 35.0372 73.6777 35.3083 73.2959 35.3083C73.1332 35.3083 72.9613 35.1872 72.7761 34.9428C72.5941 34.6987 72.4611 34.367 72.378 33.9517C72.1883 32.9667 72.1774 31.933 72.3461 30.8684C72.5136 29.7997 72.7921 28.8233 73.1777 27.9292C73.5678 27.0418 73.9958 26.3241 74.4622 25.7772C74.9291 25.2306 75.3385 24.9584 75.6944 24.9584C76.1435 24.9584 76.4797 25.5399 76.7072 26.7059C76.8747 27.5728 76.875 28.5107 76.7074 29.5201ZM78.7506 24.926C78.4989 24.346 78.2411 23.8999 77.9868 23.5863C77.7316 23.2767 77.5332 23.1199 77.4035 23.1199C77.3292 23.1199 77.172 23.1803 76.9372 23.3083C76.7021 23.4314 76.5315 23.5302 76.4341 23.5997C76.1488 23.2615 75.8148 22.944 75.4321 22.6451C75.0531 22.3483 74.7421 22.2012 74.5109 22.2012C74.1552 22.2012 73.6439 22.5145 72.9867 23.144C72.3295 23.7741 71.6963 24.6241 71.0838 25.6878C70.4738 26.7574 70.0233 27.9808 69.731 29.3625C69.437 30.7462 69.4335 32.1624 69.7153 33.6067C69.881 34.4701 70.1974 35.1951 70.6535 35.7812C71.1111 36.3689 71.6209 36.7985 72.1775 37.0757C72.7342 37.3568 73.2471 37.4954 73.715 37.4954C74.8173 37.4954 75.8767 36.995 76.8923 35.9962C77.9049 34.9944 78.6532 33.6734 79.1354 32.0364C79.6185 30.4031 79.6927 28.7045 79.3514 26.9483C79.2026 26.184 79.0036 25.5082 78.7506 24.926ZM87.4834 26.6917C87.163 27.1262 86.7271 27.5298 86.1737 27.9063C85.6227 28.2871 85.0443 28.5851 84.4377 28.7986C84.768 26.9383 84.8965 25.802 84.818 25.3948C84.7731 25.1661 84.6211 24.9404 84.3657 24.7176C84.8838 24.5567 85.4622 24.4779 86.1016 24.4779C86.6071 24.4779 87.0124 24.5736 87.3186 24.7761C87.621 24.9753 87.8 25.2241 87.8571 25.5229C87.9262 25.872 87.7999 26.2614 87.4834 26.6917ZM86.3982 33.0889C86.0472 33.5888 85.5508 33.9991 84.9129 34.3191C84.2732 34.6455 83.6035 34.8037 82.9057 34.8037C83.2017 33.7868 83.4311 33.002 83.5978 32.4599C83.7591 31.9134 83.9021 31.3764 84.0162 30.8309C84.4553 30.7006 84.8592 30.634 85.2297 30.634C86.1428 30.634 86.6622 30.9653 86.7896 31.6148C86.8814 32.095 86.753 32.588 86.3982 33.0889ZM89.7167 27.8588C90.2039 27.0826 90.3687 26.2722 90.2039 25.4349C90.0208 24.4802 89.4842 23.7047 88.5936 23.1046C87.709 22.5037 86.6182 22.2013 85.3316 22.2013C84.7709 22.2013 84.004 22.2889 83.0391 22.4634C82.1126 22.6259 81.4256 22.7908 80.9736 22.9548C80.5258 23.12 80.3355 23.3786 80.4063 23.7337C80.4787 24.1076 80.6587 24.4802 80.9508 24.8569C81.2404 25.2296 81.6245 25.4579 82.106 25.5448C81.9078 27.2863 81.6706 28.7667 81.3832 29.9893C81.0964 31.2142 80.8242 32.1684 80.563 32.8569C80.3029 33.5402 80.0866 34.1356 79.9142 34.6339C79.7402 35.1296 79.6877 35.5589 79.7589 35.9228C79.7785 36.0244 79.9246 36.2065 80.1985 36.4653C80.4726 36.7199 80.7665 36.9574 81.078 37.1721C81.3905 37.385 81.6158 37.4955 81.7567 37.4955C81.9646 37.4955 82.1206 37.4007 82.2293 37.213C82.3401 37.0222 82.4592 36.6823 82.5865 36.1822C83.3341 37.061 84.0593 37.4955 84.767 37.4955C85.4393 37.4955 86.1697 37.1777 86.9543 36.5311C87.737 35.8852 88.3681 35.1129 88.8436 34.2191C89.3185 33.3192 89.4905 32.5243 89.3559 31.838C89.2855 31.4742 89.1161 31.0925 88.8498 30.7006C88.5843 30.3044 88.2043 29.959 87.7091 29.6542C88.5573 29.228 89.2261 28.6335 89.7167 27.8588ZM66.1974 27.2046C65.782 27.7544 65.2369 28.2717 64.5674 28.7603C63.8904 29.244 63.2598 29.5812 62.6666 29.7618C62.7449 29.135 62.9036 28.2403 63.1463 27.0726C63.2892 26.3778 63.4 25.9165 63.4804 25.6839C63.5529 25.4485 63.6762 25.284 63.8392 25.1883C64.0057 25.0901 64.2876 25.028 64.6918 24.9984C64.7967 24.9849 64.9576 24.9754 65.1732 24.9754C66.0895 24.9754 66.5995 25.2535 66.7082 25.8117C66.7837 26.1931 66.613 26.6594 66.1974 27.2046ZM68.5216 24.021C68.0786 23.4997 67.482 23.064 66.7171 22.7179C65.9593 22.372 65.0909 22.2013 64.1095 22.2013C63.5478 22.2013 62.957 22.263 62.3326 22.3868C61.7063 22.5062 61.1858 22.6899 60.7671 22.9271C60.3477 23.1672 60.1672 23.44 60.2269 23.7543C60.4172 24.7237 60.7652 25.3299 61.279 25.565C60.8035 27.5967 60.4217 29.1683 60.1426 30.277C59.8643 31.3887 59.5734 32.5063 59.2754 33.6403C58.9758 34.7676 58.8008 35.4743 58.7479 35.7475C58.7 36.024 58.6891 36.252 58.7221 36.4263C58.7745 36.6934 58.8854 36.8678 59.0604 36.9524C59.2301 37.0377 59.5186 37.1232 59.9182 37.2127C60.1204 37.2598 60.3376 37.3179 60.5603 37.39C60.7819 37.4591 60.9357 37.4952 61.0202 37.4952C61.2669 37.4952 61.4531 37.3566 61.573 37.0845C61.6886 36.8122 61.7883 36.3926 61.8698 35.8321C61.9492 35.2699 62.0542 34.516 62.1895 33.5739C62.3241 32.6346 62.503 31.7201 62.7158 30.8306C63.3659 31.8074 63.9017 32.2953 64.3224 32.2953C64.8182 32.2953 65.5062 31.8769 66.3783 31.0391C67.2541 30.2012 67.9971 29.25 68.6095 28.1839C69.2212 27.1181 69.4642 26.2551 69.3329 25.5863C69.2352 25.0698 68.9625 24.5475 68.5216 24.021Z" fill="#ED1C24"/>
</g>
<defs>
<filter id="filter0_b_266_13881" x="-4.31373" y="-4.31373" width="146.627" height="63.6275" filterUnits="userSpaceOnUse" color-interpolation-filters="sRGB">
<feFlood flood-opacity="0" result="BackgroundImageFix"/>
<feGaussianBlur in="BackgroundImageFix" stdDeviation="2.15686"/>
<feComposite in2="SourceAlpha" operator="in" result="effect1_backgroundBlur_266_13881"/>
<feBlend mode="normal" in="SourceGraphic" in2="effect1_backgroundBlur_266_13881" result="shape"/>
</filter>
</defs>
</svg>
