<svg width="138" height="55" viewBox="0 0 138 55" fill="none" xmlns="http://www.w3.org/2000/svg">
<g filter="url(#filter0_b_266_13899)">
<rect width="138" height="55" rx="27.5" fill="#5C5F8E" fill-opacity="0.1"/>
<mask id="mask0_266_13899" style="mask-type:alpha" maskUnits="userSpaceOnUse" x="73" y="15" width="17" height="25">
<path fill-rule="evenodd" clip-rule="evenodd" d="M73.1411 15H89.818V40H73.1396V15H73.1411Z" fill="white"/>
</mask>
<g mask="url(#mask0_266_13899)">
<path fill-rule="evenodd" clip-rule="evenodd" d="M80.2232 15L77.6674 32.166L76.1347 15H73.1396L75.8073 40H78.9296L81.4774 22.3121L84.0266 40H87.1481L89.8165 15H86.8207L85.2888 32.166L82.7323 15H80.2232Z" fill="white"/>
</g>
<path fill-rule="evenodd" clip-rule="evenodd" d="M98.5927 23.4367H101.5V20.1405C101.5 16.6714 99.8337 15.0017 96.3753 15.0017C92.9198 15.001 91.2578 16.6765 91.2578 20.1398V34.8621C91.2578 38.3261 92.919 40.0002 96.3753 40.0002C99.833 40.0002 101.499 38.3305 101.499 34.8621L101.5 27.8828H96.7568V30.8H98.592V34.8621C98.592 36.3024 97.8114 37.0852 96.3753 37.0852C94.9428 37.0845 94.1593 36.2995 94.1593 34.8629V20.1398C94.1593 18.7024 94.9428 17.9174 96.3753 17.9174C97.8114 17.9167 98.5913 18.6995 98.5913 20.1398L98.592 23.4374L98.5927 23.4367ZM61.4363 32.4866V34.8614C61.4363 38.3254 63.0975 39.9995 66.5538 39.9995C70.0123 39.9995 71.6786 38.3298 71.6786 34.8614V33.0209C71.6786 30.3866 70.1862 28.4135 68.161 26.8897C66.7796 25.8489 64.3385 23.864 64.3385 21.9803V20.1398C64.3385 18.7024 65.122 17.9174 66.5545 17.9174C67.9907 17.9167 68.7705 18.6995 68.7705 20.1398V22.5205H71.6786V20.1398C71.6786 16.6707 70.0123 15.001 66.5545 15.001C63.0975 15.0002 61.4355 16.6758 61.4355 20.1383V21.9781C61.4355 24.6109 62.9214 26.5928 64.9474 28.1174C66.3258 29.1545 68.7698 31.1409 68.7698 33.0202V34.8599C68.7698 36.3009 67.9899 37.083 66.5538 37.083C65.1213 37.0823 64.3378 36.298 64.3378 34.8614V32.4859H61.4363V32.4866Z" fill="white"/>
<mask id="mask1_266_13899" style="mask-type:alpha" maskUnits="userSpaceOnUse" x="36" y="15" width="18" height="25">
<path fill-rule="evenodd" clip-rule="evenodd" d="M36.5 15H53.7645V40H36.5V15Z" fill="white"/>
</mask>
<g mask="url(#mask1_266_13899)">
<path fill-rule="evenodd" clip-rule="evenodd" d="M36.5 15H45.839L36.5 16.2241V15ZM53.7645 40H49.3793L53.3464 23.3602L53.7645 40ZM48.473 40H43.5631L51.6318 22.9952L48.4716 40H48.473ZM42.6934 40H36.5L50.0312 22.2805L42.6934 40ZM36.5 31.6434L48.6134 21.2463L36.5 38.8873V31.6434ZM36.5 25.9116L47.4411 19.9416L36.5 30.3336V25.9116ZM36.5 21.42L46.5647 18.4185L36.5007 24.5901V21.4208L36.5 21.42ZM36.5 17.5082L46.0232 16.7481L36.5 20.119V17.5082Z" fill="#F7991F"/>
</g>
</g>
<defs>
<filter id="filter0_b_266_13899" x="-4.31373" y="-4.31373" width="146.627" height="63.6275" filterUnits="userSpaceOnUse" color-interpolation-filters="sRGB">
<feFlood flood-opacity="0" result="BackgroundImageFix"/>
<feGaussianBlur in="BackgroundImageFix" stdDeviation="2.15686"/>
<feComposite in2="SourceAlpha" operator="in" result="effect1_backgroundBlur_266_13899"/>
<feBlend mode="normal" in="SourceGraphic" in2="effect1_backgroundBlur_266_13899" result="shape"/>
</filter>
</defs>
</svg>
