<svg width="138" height="55" viewBox="0 0 138 55" fill="none" xmlns="http://www.w3.org/2000/svg">
<g filter="url(#filter0_b_266_14049)">
<rect width="138" height="55" rx="27.5" fill="#5C5F8E" fill-opacity="0.1"/>
<mask id="mask0_266_14049" style="mask-type:luminance" maskUnits="userSpaceOnUse" x="17" y="18" width="104" height="19">
<path d="M120.25 18.8135H17.75V36.1864H120.25V18.8135Z" fill="white"/>
</mask>
<g mask="url(#mask0_266_14049)">
<path d="M35.0637 32.7117L31.6013 36.1855L18.7929 36.1864L17.75 35.1396V22.288L21.2129 18.8135H34.021L35.0637 19.8597V32.7117Z" fill="#ED1C24"/>
<path d="M34.0206 18.8135L30.1264 22.7209V28.4242L26.9364 24.0258H20.2121V25.4079H22.1943V30.6801L17.75 35.1396V36.1864L18.7926 36.1855L23.688 31.2735V25.4079H25.6694V30.9739H27.1441V26.5753L30.3343 30.9739H31.6009V23.3339L35.0635 19.8597L35.0633 18.8135H34.0206Z" fill="white"/>
<path d="M40.6048 25.75H38.5273V24.0625H44.6021V25.75H42.5248V31.0106H40.605L40.6048 25.75Z" fill="white"/>
<path d="M45.6113 24.0625H51.1809V25.6996H47.5107V26.7529H50.8344V28.2719H47.5107V29.3732H51.2306V31.0108H45.6113V24.0625Z" fill="white"/>
<path d="M54.3903 27.4771L52.1142 24.0625H54.321L55.5475 26.0178L56.7848 24.0625H58.9408L56.6661 27.4573L59.0404 31.0107H56.8339L55.5075 28.9165L54.1725 31.0107H52.0156L54.3903 27.4771Z" fill="white"/>
<path d="M59.9492 24.0625H61.8684V26.6632H64.3323V24.0625H66.2516V31.0107H64.3323V28.37H61.8684V31.0107H59.9492V24.0625Z" fill="white"/>
<path d="M67.4023 27.5364C67.4023 25.5407 69.0054 23.9229 71.1427 23.9229C73.2792 23.9229 74.8618 25.5212 74.8618 27.5364C74.8618 29.5318 73.2592 31.1498 71.1227 31.1498C68.985 31.15 67.4023 29.5511 67.4023 27.5364ZM72.903 27.5364C72.903 26.5336 72.1808 25.6596 71.1227 25.6596C70.073 25.6596 69.3711 26.5134 69.3711 27.5364C69.3711 28.5393 70.0938 29.4116 71.1423 29.4116C72.2003 29.4118 72.903 28.5589 72.903 27.5364Z" fill="white"/>
<path d="M76.0234 24.0625H77.9436V26.6632H80.4066V24.0625H82.3263V31.0107H80.4066V28.37H77.9436V31.0107H76.0234V24.0625Z" fill="white"/>
<path d="M83.8184 24.0625H85.7185V27.973L88.4 24.0625H90.1899V31.0107H88.2906V27.0999L85.6091 31.0107H83.8184V24.0625Z" fill="white"/>
<path d="M91.6855 24.0625H93.6044V26.8819L95.9888 24.0625H98.2647L95.6431 27.05L98.3533 31.0108H96.0487L94.3076 28.4304L93.6044 29.214V31.011H91.6855V24.0625Z" fill="white"/>
<path d="M98.3672 27.5364C98.3672 25.5407 99.9694 23.9229 102.106 23.9229C104.243 23.9229 105.827 25.5212 105.827 27.5364C105.827 29.5318 104.223 31.1498 102.087 31.1498C99.9494 31.15 98.3672 29.5511 98.3672 27.5364ZM103.867 27.5364C103.867 26.5336 103.146 25.6596 102.087 25.6596C101.037 25.6596 100.336 26.5134 100.336 27.5364C100.336 28.5393 101.057 29.4116 102.106 29.4116C103.165 29.4118 103.867 28.5589 103.867 27.5364Z" fill="white"/>
<path d="M114.402 24.0625H116.321V26.2456H117.37C119.033 26.2456 120.25 27.0404 120.25 28.6078C120.25 30.1078 119.162 31.0108 117.47 31.0108H114.402V24.0625ZM117.321 29.393C117.954 29.393 118.33 29.1049 118.33 28.5591C118.33 28.0729 117.954 27.755 117.331 27.755H116.321V29.393H117.321Z" fill="white"/>
<path d="M107.527 24.0625V27.1106C107.527 27.831 107.454 28.8731 106.98 29.2417C106.758 29.4143 106.391 29.5467 106.158 29.5467V31.1849H106.34C107.004 31.1849 107.747 30.9171 108.033 30.7352C109.191 29.9978 109.334 28.5952 109.334 27.0108V25.7499H110.99V31.0105H112.91V24.0625H107.527Z" fill="white"/>
</g>
</g>
<defs>
<filter id="filter0_b_266_14049" x="-4.31373" y="-4.31373" width="146.627" height="63.6275" filterUnits="userSpaceOnUse" color-interpolation-filters="sRGB">
<feFlood flood-opacity="0" result="BackgroundImageFix"/>
<feGaussianBlur in="BackgroundImageFix" stdDeviation="2.15686"/>
<feComposite in2="SourceAlpha" operator="in" result="effect1_backgroundBlur_266_14049"/>
<feBlend mode="normal" in="SourceGraphic" in2="effect1_backgroundBlur_266_14049" result="shape"/>
</filter>
</defs>
</svg>
