<svg width="138" height="55" viewBox="0 0 138 55" fill="none" xmlns="http://www.w3.org/2000/svg">
<g filter="url(#filter0_b_266_14013)">
<rect width="138" height="55" rx="27.5" fill="#5C5F8E" fill-opacity="0.1"/>
<path fill-rule="evenodd" clip-rule="evenodd" d="M54.4037 36.9049L54.6012 37.2725C54.4473 37.4232 54.2594 37.5353 54.053 37.5997C53.818 37.6796 53.5711 37.7201 53.3226 37.7194C53.0493 37.7306 52.7766 37.6862 52.5212 37.5891C52.2659 37.4919 52.0333 37.344 51.8379 37.1545C51.6445 36.9564 51.494 36.7212 51.3956 36.4634C51.2972 36.2056 51.2531 35.9307 51.2658 35.6554C51.247 35.111 51.4437 34.5809 51.8141 34.1782C52.0028 33.9811 52.2322 33.8267 52.4866 33.7254C52.7411 33.6241 53.0146 33.5784 53.2885 33.5914C53.7336 33.5682 54.1719 33.7067 54.5212 33.9809L54.2948 34.3485C54.003 34.1433 53.6513 34.0384 53.2936 34.05C53.0914 34.0438 52.8902 34.0805 52.7034 34.1575C52.5167 34.2346 52.3487 34.3503 52.2108 34.4969C51.9228 34.8137 51.7713 35.2295 51.7885 35.6554C51.7795 35.8679 51.8136 36.0801 51.8887 36.2793C51.9639 36.4786 52.0786 36.6609 52.2261 36.8156C52.3746 36.9647 52.5529 37.0813 52.7497 37.158C52.9465 37.2347 53.1573 37.2697 53.3686 37.2607C53.7454 37.2679 54.1124 37.1418 54.4037 36.9049ZM58.1325 37.6621V34.1091H55.9327V37.6621H55.4389V33.6504H58.6245V37.6621H58.1325ZM60.3323 37.6621H59.8964V33.6504H60.3885V36.8543L62.8505 33.6504H63.2846V37.6621H62.7909V34.4581L60.3323 37.6621ZM64.0082 34.1091V33.6504H67.3369V34.1091H65.9135V37.6621H65.4231V34.1091H64.0082ZM68.0605 37.6621V33.6504H70.3403V34.1091H68.5525V35.4041H70.17V35.8628H68.5525V37.2118H70.405V37.6688L68.0605 37.6621ZM71.1524 37.399C71.1505 37.3582 71.1572 37.3175 71.1722 37.2794C71.1871 37.2414 71.21 37.2069 71.2393 37.1781C71.306 37.1205 71.3927 37.0909 71.481 37.0955C71.54 37.0943 71.5983 37.1076 71.6509 37.1341C71.7034 37.1605 71.7486 37.1994 71.7824 37.2472C71.8646 37.366 71.9052 37.5082 71.8982 37.652C71.905 37.8458 71.8449 38.0361 71.7279 38.1916C71.6103 38.3402 71.4482 38.4483 71.2648 38.5002L71.1371 38.2826C71.2283 38.2578 71.311 38.2089 71.3764 38.1412C71.4417 38.0735 71.4873 37.9895 71.5083 37.8982C71.5425 37.8056 71.5425 37.704 71.5083 37.6115C71.4934 37.6299 71.474 37.6441 71.4519 37.653C71.4299 37.6619 71.4059 37.665 71.3823 37.6621C71.3525 37.6616 71.3232 37.6543 71.2966 37.6409C71.2701 37.6274 71.2469 37.6081 71.2291 37.5845C71.1843 37.5331 71.1606 37.4669 71.1627 37.399H71.1524ZM76.3863 33.6504V37.6621H75.8942V35.9083C75.5791 36.1221 75.2034 36.2308 74.8216 36.2186C74.501 36.2302 74.1882 36.1191 73.9481 35.9083C73.7217 35.7009 73.6076 35.3788 73.6076 34.9387V33.6504H74.0997V34.8072C74.0767 35.0689 74.1593 35.3291 74.3295 35.5306C74.4117 35.609 74.5093 35.6697 74.6162 35.7092C74.7231 35.7486 74.8371 35.7659 74.951 35.7599C75.2899 35.7567 75.6196 35.6507 75.8959 35.4564V33.6504H76.3863ZM77.1082 34.1091V33.6504H80.4385V34.1091H79.0237V37.6621H78.5333V34.1091H77.1082ZM80.6514 35.6554C80.6444 35.3839 80.6926 35.1138 80.7932 34.8612C80.8939 34.6085 81.0448 34.3786 81.2371 34.1849C81.4288 33.9895 81.6595 33.8358 81.9146 33.7336C82.1696 33.6314 82.4434 33.583 82.7183 33.5914C83.1287 33.5999 83.5276 33.7267 83.8663 33.9563C84.205 34.1858 84.4689 34.5082 84.6255 34.884C84.7821 35.2597 84.8248 35.6725 84.7482 36.0718C84.6717 36.4712 84.4793 36.8398 84.1945 37.1326C84.0024 37.3258 83.7723 37.4778 83.5183 37.579C83.2643 37.6803 82.992 37.7286 82.7183 37.7211C82.4432 37.7294 82.1692 37.6816 81.9135 37.5805C81.6579 37.4795 81.4259 37.3275 81.232 37.1339C81.0381 36.9403 80.8866 36.7093 80.7867 36.4553C80.6868 36.2012 80.6407 35.9295 80.6514 35.6571V35.6554ZM81.1724 35.6554C81.1669 35.8659 81.2035 36.0755 81.28 36.272C81.3566 36.4685 81.4716 36.648 81.6185 36.8004C81.7631 36.9456 81.9354 37.0609 82.1254 37.1396C82.3153 37.2183 82.5192 37.2588 82.7252 37.2588C82.9311 37.2588 83.135 37.2183 83.325 37.1396C83.5149 37.0609 83.6872 36.9456 83.8319 36.8004C84.1222 36.4884 84.2775 36.0761 84.2643 35.652C84.271 35.4406 84.235 35.2299 84.1584 35.0324C84.0818 34.8349 83.9662 34.6546 83.8182 34.502C83.6735 34.357 83.5012 34.2418 83.3112 34.1633C83.1212 34.0847 82.9174 34.0442 82.7115 34.0442C82.5057 34.0442 82.3018 34.0847 82.1119 34.1633C81.9219 34.2418 81.7496 34.357 81.6048 34.502C81.4582 34.6555 81.3439 34.8364 81.2685 35.0342C81.1931 35.2319 81.1581 35.4425 81.1656 35.6537L81.1724 35.6554ZM85.7405 37.6621V33.6504H88.0322V34.1091H86.2326V35.2608C86.4383 35.2377 86.6452 35.2264 86.8523 35.2271C87.2277 35.2042 87.5989 35.3161 87.8977 35.5424C88.0217 35.649 88.1197 35.7821 88.1843 35.9317C88.2489 36.0812 88.2784 36.2433 88.2706 36.4058C88.2817 36.5848 88.2503 36.7638 88.1791 36.9287C88.1078 37.0935 87.9987 37.2396 87.8603 37.3552C87.5284 37.5952 87.123 37.7144 86.7127 37.6924C86.5629 37.6924 86.3722 37.6924 86.1628 37.6806C85.9533 37.6688 85.8052 37.6688 85.7405 37.6688V37.6621ZM86.8234 35.6841C86.6259 35.6849 86.4287 35.6968 86.2326 35.7195V37.2051C86.4709 37.2186 86.6565 37.227 86.7876 37.227C87.0518 37.2468 87.3145 37.174 87.53 37.0213C87.613 36.9499 87.6786 36.8607 87.7217 36.7605C87.7648 36.6603 87.7842 36.5517 87.7785 36.4429C87.7827 36.3391 87.7632 36.2358 87.7213 36.1406C87.6794 36.0454 87.6163 35.9608 87.5368 35.8932C87.3313 35.744 87.0792 35.6717 86.8251 35.6891L86.8234 35.6841ZM92.5254 37.6621V33.6504H93.0175V37.6621H92.5254ZM90.3359 35.5694C90.1679 35.5717 90.0002 35.5835 89.8336 35.6048V37.1983L90.3206 37.2152C91.0016 37.2152 91.3421 36.9319 91.3421 36.3603C91.3488 36.249 91.3286 36.1378 91.2833 36.0357C91.238 35.9337 91.1689 35.8438 91.0816 35.7734C90.8602 35.6241 90.5947 35.5522 90.3274 35.5694H90.3359ZM89.8336 33.6504V35.1411C90.0771 35.1208 90.2559 35.1107 90.3716 35.1107C90.8688 35.1107 91.2434 35.2198 91.4954 35.4379C91.6224 35.5528 91.7221 35.6943 91.7872 35.8521C91.8522 36.0098 91.8811 36.18 91.8716 36.3501C91.882 36.5344 91.8489 36.7186 91.775 36.888C91.7011 37.0575 91.5885 37.2076 91.446 37.3265C91.1026 37.5781 90.6804 37.7011 90.2542 37.6739H89.7536C89.5442 37.6739 89.4045 37.6739 89.333 37.6739V33.6504H89.8336ZM100.22 33.6504L98.58 35.5643L100.283 37.6621H99.7105L98.0436 35.5694L99.6458 33.6504H100.22ZM97.446 37.6621V33.6504H97.9381V37.6621H97.446ZM96.8092 35.5694L95.1645 33.6504H95.7383L97.3422 35.5694L95.6753 37.6621H95.1015L96.8041 35.5694H96.8092ZM101.498 37.6621H101.062V33.6504H101.554V36.8543L104.016 33.6504H104.451V37.6621H103.957V34.4581L101.498 37.6621ZM105.174 34.1091V33.6504H108.503V34.1091H107.085V37.6621H106.593V34.1091H105.174ZM110.251 35.5694C110.073 35.5711 109.895 35.5829 109.719 35.6048V37.1983L110.229 37.2152C110.509 37.2335 110.786 37.1574 111.016 36.9994C111.109 36.9217 111.183 36.8233 111.23 36.7123C111.278 36.6012 111.298 36.4806 111.29 36.3603C111.296 36.2478 111.275 36.1356 111.227 36.0333C111.18 35.931 111.108 35.8418 111.018 35.7734C110.79 35.6249 110.52 35.5533 110.248 35.5694H110.251ZM109.719 33.6504V35.1411C109.961 35.1208 110.15 35.1107 110.285 35.1107C110.796 35.1107 111.179 35.2198 111.433 35.4379C111.562 35.5519 111.662 35.6932 111.728 35.851C111.795 36.0089 111.824 36.1795 111.814 36.3501C111.824 36.5358 111.789 36.721 111.712 36.8906C111.635 37.0603 111.519 37.2096 111.373 37.3265C111.086 37.5592 110.682 37.6739 110.166 37.6739H109.656H109.221V33.6504H109.719ZM112.81 36.4311V33.6504H113.303V36.4311H112.81ZM112.734 37.3518C112.734 37.3122 112.743 37.2731 112.759 37.2369C112.775 37.2006 112.798 37.168 112.828 37.141C112.86 37.1103 112.898 37.0864 112.94 37.0707C112.982 37.0551 113.026 37.048 113.071 37.05C113.112 37.0493 113.152 37.0574 113.19 37.0737C113.227 37.09 113.26 37.1141 113.287 37.1444C113.315 37.1713 113.338 37.2035 113.353 37.2391C113.369 37.2747 113.377 37.313 113.377 37.3518C113.379 37.4369 113.348 37.5194 113.291 37.5828C113.264 37.6144 113.23 37.6396 113.192 37.6565C113.154 37.6735 113.113 37.6817 113.071 37.6806C113.026 37.6826 112.98 37.6749 112.938 37.6581C112.896 37.6412 112.859 37.6155 112.828 37.5828C112.767 37.5208 112.734 37.4378 112.736 37.3518H112.734Z" fill="#2DBCB6"/>
<path fill-rule="evenodd" clip-rule="evenodd" d="M86.6854 30.2453C85.2296 30.2453 84.317 29.4729 84.317 26.3567C84.317 23.2404 85.233 22.4681 86.6854 22.4681C88.1377 22.4681 89.069 23.2454 89.069 26.3567C89.069 29.4679 88.1479 30.2453 86.6854 30.2453ZM86.6854 20.7295C84.3017 20.7295 81.6064 21.8829 81.6064 26.3769C81.6064 30.8709 84.443 31.9855 86.6854 31.9855C88.9277 31.9855 91.766 30.8726 91.766 26.3769C91.766 21.8812 89.069 20.7295 86.6854 20.7295Z" fill="#2DBCB6"/>
<path fill-rule="evenodd" clip-rule="evenodd" d="M77.275 25.9644L81.0463 21.1129H78.002L74.5354 25.6558H74.498V22.1146C74.4895 21.6424 74.0059 20.8701 72.8362 20.8701C72.5124 20.8707 72.189 20.896 71.8691 20.946V31.8462H74.498V26.2528H74.5354L78.5673 31.8462H81.5639L77.2767 25.9644H77.275Z" fill="#2DBCB6"/>
<path fill-rule="evenodd" clip-rule="evenodd" d="M65.2322 24.7956C64.0012 24.3572 63.9263 23.3876 64.5086 22.8581C65.5574 21.902 68.3633 22.8379 69.0614 23.1161L69.7424 21.8413C68.5695 21.1125 67.2111 20.7299 65.8264 20.7384C64.4796 20.7384 63.1346 20.9273 62.1913 22.0571C61.4745 22.9154 61.3945 24.4179 62.2407 25.5005C63.1158 26.6168 66.1141 27.4398 66.9825 27.9001C67.655 28.2559 67.7861 28.7652 67.6942 29.2306C67.5239 30.0552 65.8213 31.1901 62.2662 29.1783C62.2662 29.1783 61.3145 30.4161 61.3145 30.4194C61.9785 30.9017 63.2759 31.9776 65.9115 31.9776C68.1777 31.9776 70.3383 30.7516 70.3383 28.6657C70.34 26.2307 67.4201 25.5697 65.2322 24.7956Z" fill="#2DBCB6"/>
<path fill-rule="evenodd" clip-rule="evenodd" d="M98.9208 20.8645C97.7973 20.8407 96.6939 21.1624 95.7625 21.7852C95.4747 21.3839 94.9469 21.0331 94.0054 21.0331C93.8088 21.0344 93.6125 21.049 93.418 21.077V31.8457H96.0502V23.286C96.6257 22.9994 98.6893 22.3872 99.5729 23.286C100.072 23.7919 100.171 24.5086 100.171 25.1781V31.8457H102.799V24.689C102.796 22.1444 100.818 20.8645 98.9208 20.8645Z" fill="#2DBCB6"/>
<path fill-rule="evenodd" clip-rule="evenodd" d="M110.873 29.3961C110.145 29.8644 109.296 30.1134 108.428 30.1128C107.827 30.1128 106.832 29.8278 106.832 28.413C106.832 26.2208 109.603 26.1398 110.873 26.1398V29.3961ZM109 20.7471C107.465 20.7584 105.965 21.2068 104.68 22.0388L105.429 23.2597C106.841 22.6155 108.297 22.3103 109.485 22.5851C111.164 22.9662 110.871 24.9038 110.871 24.9038C109.47 24.8583 104.187 24.4755 104.187 28.6136C104.187 30.3724 105.208 31.649 107.35 31.9255C108.655 32.0966 109.976 31.7579 111.033 30.9812C111.276 31.4635 111.813 31.9474 112.919 31.9474C113.114 31.9462 113.308 31.9315 113.5 31.9036V24.1466C113.502 21.403 110.679 20.7471 109.002 20.7471H109Z" fill="#2DBCB6"/>
<path fill-rule="evenodd" clip-rule="evenodd" d="M57.361 29.3961C56.6338 29.8641 55.785 30.1131 54.9177 30.1128C54.3167 30.1128 53.3207 29.8278 53.3207 28.413C53.3207 26.2208 56.0908 26.1398 57.361 26.1398V29.3961ZM55.4881 20.7471C53.9535 20.758 52.4544 21.2065 51.1703 22.0388L51.9177 23.2597C53.3292 22.6155 54.7849 22.3103 55.9751 22.5851C57.6522 22.9662 57.3593 24.9038 57.3593 24.9038C55.958 24.8583 50.6748 24.4755 50.6748 28.6136C50.6748 30.3724 51.6964 31.649 53.8383 31.9255C55.1431 32.0968 56.464 31.7581 57.521 30.9812C57.7645 31.4635 58.3008 31.9474 59.4076 31.9474C59.6019 31.9462 59.7959 31.9315 59.9881 31.9036V24.1466C59.9898 21.403 57.1686 20.7471 55.4898 20.7471H55.4881Z" fill="#2DBCB6"/>
<path fill-rule="evenodd" clip-rule="evenodd" d="M27.9139 21.6492C28.0646 21.6492 28.2137 21.6198 28.3528 21.5626C28.492 21.5055 28.6184 21.4218 28.7248 21.3162C28.8312 21.2106 28.9156 21.0853 28.9731 20.9474C29.0306 20.8096 29.06 20.6618 29.0598 20.5126C29.0591 20.2887 28.9915 20.07 28.8654 19.8842C28.7394 19.6983 28.5606 19.5536 28.3515 19.4683C28.1425 19.383 27.9126 19.3609 27.691 19.4049C27.4693 19.4488 27.2657 19.5569 27.106 19.7153C26.9463 19.8738 26.8375 20.0755 26.7934 20.2951C26.7494 20.5147 26.772 20.7424 26.8584 20.9493C26.9449 21.1562 27.0912 21.3331 27.2791 21.4576C27.467 21.5822 27.6879 21.6489 27.9139 21.6492Z" fill="#2DBCB6"/>
<path fill-rule="evenodd" clip-rule="evenodd" d="M25.4659 25.4735C25.3411 25.4682 25.2164 25.488 25.0995 25.5316C24.9825 25.5753 24.8757 25.642 24.7855 25.7276C24.6952 25.8132 24.6234 25.916 24.5744 26.0299C24.5253 26.1437 24.5 26.2662 24.5 26.39C24.5 26.5138 24.5253 26.6363 24.5744 26.7501C24.6234 26.864 24.6952 26.9668 24.7855 27.0524C24.8757 27.138 24.9825 27.2047 25.0995 27.2484C25.2164 27.292 25.3411 27.3118 25.4659 27.3065C25.5876 27.307 25.7082 27.2835 25.8207 27.2376C25.9331 27.1916 26.0353 27.124 26.1213 27.0387C26.2072 26.9534 26.2753 26.8521 26.3215 26.7406C26.3677 26.6291 26.3911 26.5097 26.3905 26.3892C26.3896 26.1466 26.2919 25.9142 26.1187 25.7427C25.9455 25.5711 25.7109 25.4744 25.4659 25.4735Z" fill="#2DBCB6"/>
<path fill-rule="evenodd" clip-rule="evenodd" d="M33.8593 33.1182C33.4384 33.1182 33.0348 33.2837 32.7372 33.5785C32.4396 33.8732 32.2725 34.273 32.2725 34.6898C32.2725 35.1066 32.4396 35.5064 32.7372 35.8011C33.0348 36.0958 33.4384 36.2614 33.8593 36.2614C34.2802 36.2614 34.6838 36.0958 34.9814 35.8011C35.279 35.5064 35.4461 35.1066 35.4461 34.6898C35.4461 34.273 35.279 33.8732 34.9814 33.5785C34.6838 33.2837 34.2802 33.1182 33.8593 33.1182Z" fill="#2DBCB6"/>
<path fill-rule="evenodd" clip-rule="evenodd" d="M39.7899 30.1397C39.367 30.1388 38.9533 30.2623 38.6014 30.4946C38.2495 30.7269 37.9751 31.0575 37.8132 31.4445C37.6512 31.8314 37.6089 32.2572 37.6917 32.668C37.7744 33.0788 37.9785 33.456 38.2779 33.7517L38.2916 33.7635C38.6933 34.155 39.2351 34.3733 39.7986 34.3707C40.3622 34.3682 40.9019 34.1451 41.3001 33.75L41.3427 33.7079C41.721 33.3054 41.9278 32.7737 41.9198 32.2239C41.9119 31.674 41.6899 31.1485 41.3001 30.7568C41.1019 30.5604 40.8664 30.4048 40.6072 30.2989C40.348 30.193 40.0703 30.1388 39.7899 30.1397Z" fill="#2DBCB6"/>
<path fill-rule="evenodd" clip-rule="evenodd" d="M38.2682 21.9928C38.567 22.2887 38.9478 22.4902 39.3622 22.5718C39.7767 22.6535 40.2063 22.6115 40.5968 22.4514C40.9872 22.2912 41.3209 22.0199 41.5557 21.6719C41.7904 21.3239 41.9158 20.9147 41.9158 20.4962C41.9158 20.0776 41.7904 19.6685 41.5557 19.3205C41.3209 18.9725 40.9872 18.7012 40.5968 18.541C40.2063 18.3808 39.7767 18.3389 39.3622 18.4205C38.9478 18.5021 38.567 18.7037 38.2682 18.9996C38.0679 19.1951 37.9088 19.4281 37.8002 19.685C37.6917 19.9419 37.6357 20.2177 37.6357 20.4962C37.6357 20.7747 37.6917 21.0504 37.8002 21.3074C37.9088 21.5643 38.0679 21.7973 38.2682 21.9928Z" fill="#2DBCB6"/>
<path fill-rule="evenodd" clip-rule="evenodd" d="M27.9281 31.126C27.6632 31.1253 27.4062 31.2156 27.2009 31.3814C26.9956 31.5472 26.8547 31.7784 26.8021 32.0356C26.7495 32.2928 26.7885 32.56 26.9125 32.7919C27.0365 33.0238 27.2378 33.206 27.4821 33.3075C27.7264 33.4089 27.9987 33.4234 28.2526 33.3484C28.5065 33.2734 28.7263 33.1137 28.8746 32.8962C29.0229 32.6788 29.0906 32.4172 29.0661 32.156C29.0416 31.8947 28.9265 31.6499 28.7403 31.4632C28.6341 31.3562 28.5074 31.2713 28.3677 31.2134C28.2279 31.1555 28.0779 31.1258 27.9264 31.126H27.9281Z" fill="#2DBCB6"/>
<path fill-rule="evenodd" clip-rule="evenodd" d="M33.8388 19.6424C34.0515 19.6494 34.2634 19.614 34.4619 19.5383C34.6605 19.4625 34.8416 19.348 34.9946 19.2016C35.1475 19.0551 35.2692 18.8797 35.3523 18.6857C35.4355 18.4917 35.4784 18.2832 35.4785 18.0725C35.4786 17.8617 35.4359 17.6532 35.353 17.4591C35.2701 17.265 35.1486 17.0895 34.9958 16.9429C34.843 16.7962 34.662 16.6815 34.4635 16.6056C34.265 16.5297 34.0532 16.494 33.8405 16.5008C33.4289 16.5142 33.0386 16.6855 32.7522 16.9786C32.4658 17.2718 32.3057 17.6637 32.3057 18.0716C32.3057 18.4795 32.4658 18.8714 32.7522 19.1646C33.0386 19.4577 33.4289 19.629 33.8405 19.6424H33.8388Z" fill="#2DBCB6"/>
<path d="M42.2556 29.1527C43.8072 29.1527 45.0649 27.9069 45.0649 26.3703C45.0649 24.8336 43.8072 23.5879 42.2556 23.5879C40.7041 23.5879 39.4463 24.8336 39.4463 26.3703C39.4463 27.9069 40.7041 29.1527 42.2556 29.1527Z" fill="#2DBCB6"/>
</g>
<defs>
<filter id="filter0_b_266_14013" x="-4.31373" y="-4.31373" width="146.627" height="63.6275" filterUnits="userSpaceOnUse" color-interpolation-filters="sRGB">
<feFlood flood-opacity="0" result="BackgroundImageFix"/>
<feGaussianBlur in="BackgroundImageFix" stdDeviation="2.15686"/>
<feComposite in2="SourceAlpha" operator="in" result="effect1_backgroundBlur_266_14013"/>
<feBlend mode="normal" in="SourceGraphic" in2="effect1_backgroundBlur_266_14013" result="shape"/>
</filter>
</defs>
</svg>
