<svg width="138" height="55" viewBox="0 0 138 55" fill="none" xmlns="http://www.w3.org/2000/svg">
<g filter="url(#filter0_b_266_13823)">
<rect width="138" height="55" rx="27.5" fill="#5C5F8E" fill-opacity="0.1"/>
<path d="M29.3759 26.6561C28.7554 25.6748 27.7722 25.0654 26.3099 25.0654C23.3328 25.0654 21 27.5528 21 30.5719C21 33.6972 23.3328 36.1847 26.3099 36.1847C27.7722 36.1847 28.7554 35.5753 29.3759 34.5811V35.9508H33.0639V19.0273H29.3759V26.6561ZM27.0431 33.0806C25.5767 33.0806 24.7325 32.2727 24.7325 30.6144C24.7325 28.956 25.5767 28.1694 27.0431 28.1694C28.465 28.1694 29.3759 28.956 29.3759 30.6144C29.3759 32.2727 28.465 33.0806 27.0431 33.0806Z" fill="white"/>
<path d="M48.2604 33.0592H48.2159L45.5721 25.3203H41.6396L45.6165 35.9506H50.7931L54.7477 25.3203H50.882L48.2604 33.0592Z" fill="white"/>
<path d="M38.1512 18.7725C36.4404 18.7725 35.2852 19.878 35.2852 21.3663C35.2852 22.8545 36.4404 23.9601 38.1512 23.9601C39.8397 23.9601 40.9727 22.8545 40.9727 21.3663C40.9727 19.878 39.8397 18.7725 38.1512 18.7725Z" fill="white"/>
<path d="M39.9732 25.3203H36.2852V35.9506H39.9732V25.3203Z" fill="white"/>
<path d="M63.8349 26.6571C63.2144 25.6758 62.2312 25.0664 60.7689 25.0664C57.7918 25.0664 55.459 27.5539 55.459 30.5729C55.459 33.6982 57.7918 36.1857 60.7689 36.1857C62.2312 36.1857 63.2144 35.5763 63.8349 34.5821V35.9519H67.5229V25.3215H63.8349V26.6571ZM61.502 33.0817C60.0357 33.0817 59.1915 32.2738 59.1915 30.6154C59.1915 28.9571 60.0357 28.1704 61.502 28.1704C62.9239 28.1704 63.8349 28.9571 63.8349 30.6154C63.8349 32.2738 62.9239 33.0817 61.502 33.0817Z" fill="white"/>
<path d="M113.312 25.3203V30.7631C113.312 32.2513 112.734 32.9316 111.49 32.9316C110.201 32.9316 109.646 32.2513 109.646 30.7631V25.3203H105.958V30.7843C105.958 34.4199 108.18 36.227 111.49 36.227C114.756 36.227 117 34.4199 117 30.7843V25.3203H113.312Z" fill="white"/>
<path d="M100.826 25.0664C99.1372 25.0664 97.96 26.2145 97.96 27.7452C97.96 29.2973 99.1372 30.4241 100.826 30.4241C102.492 30.4241 103.647 29.2973 103.647 27.7452C103.647 26.2145 102.492 25.0664 100.826 25.0664Z" fill="white"/>
<path d="M77.8088 25.1074C76.2092 25.1074 75.0985 25.6602 74.3209 26.7233V25.32H70.6328V35.9504H74.3209V30.295C74.3209 28.8706 74.9207 28.1903 76.3205 28.1903C77.7199 28.1903 78.3201 28.8706 78.3201 30.295V35.9504H82.0081V30.295C82.0081 26.8934 79.9861 25.1074 77.8088 25.1074Z" fill="white"/>
<path d="M96.983 25.3203H93.2949V35.9506H96.983V25.3203Z" fill="white"/>
<path d="M87.6734 30.4443C85.896 30.4443 84.6299 31.6774 84.6299 33.2932C84.6299 34.9303 85.896 36.1422 87.6734 36.1422C89.4507 36.1422 90.673 34.9303 90.673 33.2932C90.673 31.6774 89.4507 30.4443 87.6734 30.4443Z" fill="white"/>
</g>
<defs>
<filter id="filter0_b_266_13823" x="-4.31373" y="-4.31373" width="146.627" height="63.6275" filterUnits="userSpaceOnUse" color-interpolation-filters="sRGB">
<feFlood flood-opacity="0" result="BackgroundImageFix"/>
<feGaussianBlur in="BackgroundImageFix" stdDeviation="2.15686"/>
<feComposite in2="SourceAlpha" operator="in" result="effect1_backgroundBlur_266_13823"/>
<feBlend mode="normal" in="SourceGraphic" in2="effect1_backgroundBlur_266_13823" result="shape"/>
</filter>
</defs>
</svg>
