<svg width="138" height="55" viewBox="0 0 138 55" fill="none" xmlns="http://www.w3.org/2000/svg">
<g filter="url(#filter0_b_266_13975)">
<rect width="138" height="55" rx="27.5" fill="#5C5F8E" fill-opacity="0.1"/>
<path d="M30.0827 18.1332L26.8447 24.853L27.9424 26.0353L34.1074 19.6309L31.6011 24.853L32.6988 26.0353L38.8638 19.6309L36.3575 24.853L37.4552 26.0353L43.6202 19.6309L41.1139 24.853L42.2115 26.0353L46.968 22.4882L45.8703 21.3059L43.7116 22.9021L46.968 16.1824L45.8703 15L39.687 21.4044L42.2115 16.1824L41.1139 15L34.9306 21.4044L37.4552 16.1824L36.3575 15L30.1742 21.4044L32.6988 16.1824L31.6011 15L26.8447 18.5471L27.9424 19.7294L30.0827 18.1332Z" fill="white"/>
<path d="M68.5998 25.5151L68.1702 23.5929H65.3664L64.9367 25.5151H62.5625L65.3437 15.0225H68.3285L71.0871 25.5151H68.5998ZM66.7909 17.2838H66.7231L65.6151 21.7386H67.8536L66.7909 17.2838Z" fill="white"/>
<path d="M77.508 25.5151L74.1615 19.1155H74.1163L74.1841 25.5151H72.0586V15.0225H74.4328L77.7568 21.5125H77.802L77.7568 15.0225H79.8144V25.5151H77.508Z" fill="white"/>
<path d="M87.2085 25.5151L83.8617 19.3416H83.8164L83.8843 25.5151H81.7588V15.0225H84.1329L87.4571 21.2863H87.5019L87.4571 15.0225H89.5149V25.5151H87.2085Z" fill="white"/>
<path d="M91.4375 25.5151V15.0225H97.1811V17.1029H93.6984V19.1607H96.9545V21.1281H93.6984V23.3894H97.3842V25.5151H91.4375Z" fill="white"/>
<path d="M104.122 25.5151L102.268 21.3316H101.567V25.5151H99.2832V15.0225H102.652C103.669 15.0225 104.461 15.2938 105.026 15.8139C105.592 16.334 105.863 17.1255 105.863 18.1883C105.863 18.5728 105.818 18.912 105.727 19.2285C105.637 19.5451 105.524 19.7939 105.388 20.02C105.253 20.2462 105.094 20.4271 104.913 20.5627C104.733 20.6984 104.574 20.7889 104.393 20.8567L106.632 25.5377H104.122V25.5151ZM103.534 18.3014C103.534 18.03 103.489 17.8265 103.421 17.6456C103.353 17.4873 103.24 17.3516 103.127 17.2386C103.014 17.1481 102.878 17.0803 102.742 17.0351C102.607 16.9898 102.448 16.9898 102.313 16.9898H101.567V19.6356H102.268C102.607 19.6356 102.901 19.5225 103.149 19.319C103.398 19.1155 103.534 18.7763 103.534 18.3014Z" fill="white"/>
<path d="M56.9096 19.5227L59.2838 15H61.6128V25.5152H59.5325V18.98H59.4873L56.9096 23.7966H56.8643L54.2866 18.98H54.2414V25.5152H52.1611V15H54.4675L56.8643 19.5227H56.9096Z" fill="white"/>
<path d="M80.2674 39.7954L79.8384 37.8732H77.0341L76.6044 39.7954H74.2305L77.0114 29.3027H79.9961L82.7549 39.7954H80.2674ZM78.4817 31.5641H78.4135L77.3054 36.0189H79.5443L78.4817 31.5641Z" fill="white"/>
<path d="M95.96 39.7954V29.3027H101.703V31.3832H98.2209V33.441H101.477V35.4083H98.2209V37.6697H101.884V39.7954H95.96Z" fill="white"/>
<path d="M108.645 39.7954L106.79 35.6119H106.09V39.7954H103.806V29.3027H107.175C108.193 29.3027 108.984 29.5741 109.549 30.0942C110.115 30.6143 110.386 31.4058 110.386 32.4686C110.386 32.853 110.341 33.1922 110.25 33.5088C110.16 33.8254 110.046 34.0742 109.911 34.3003C109.775 34.5264 109.617 34.7073 109.436 34.843C109.255 34.9787 109.097 35.0691 108.916 35.137L111.155 39.8179H108.645V39.7954ZM108.034 32.5817C108.034 32.3103 107.989 32.1068 107.921 31.9259C107.854 31.7676 107.74 31.6319 107.627 31.5188C107.514 31.4284 107.379 31.3606 107.243 31.3153C107.107 31.2701 106.949 31.2701 106.813 31.2701H106.067V33.9159H106.768C107.107 33.9159 107.401 33.8028 107.65 33.5993C107.898 33.3958 108.034 33.0566 108.034 32.5817Z" fill="white"/>
<path d="M82.708 29.2803V31.2929H84.6301V39.7955H86.9592V31.2929H90.4866V39.7955H92.8157V31.2929H94.7378V29.2803H82.708Z" fill="white"/>
<path d="M68.5766 33.8029L70.9505 29.2803H73.2796V39.7955H71.1991V33.2602H71.1543L68.5766 38.0769H68.5311L65.9534 33.2602H65.908V39.7955H63.8281V29.2803H66.1566L68.5311 33.8029H68.5766Z" fill="white"/>
<path d="M57.9722 39.7967L57.362 38.9147C57.1582 39.2313 56.8641 39.4801 56.5026 39.6836C56.1183 39.8871 55.6658 40.0002 55.1231 40.0002C54.1962 40.0002 53.4724 39.7288 52.9524 39.1861C52.4098 38.6433 52.1611 37.8519 52.1611 36.8343C52.1611 36.1333 52.3195 35.5227 52.6584 35.0478C52.9752 34.573 53.4049 34.1885 53.9021 33.9172C53.6762 33.6006 53.4724 33.2614 53.3367 32.8996C53.2011 32.5378 53.1335 32.1533 53.1335 31.7237C53.1335 31.294 53.2011 30.9096 53.3594 30.5704C53.4951 30.2312 53.6989 29.9372 53.9476 29.7111C54.1962 29.485 54.4902 29.2814 54.8291 29.1684C55.1686 29.0327 55.5302 28.9648 55.9372 28.9648C56.3215 28.9648 56.661 29.0327 56.9771 29.1458C57.2939 29.2588 57.5652 29.4171 57.7911 29.6432C58.0176 29.8694 58.1981 30.1407 58.3338 30.4573C58.4694 30.7739 58.5376 31.1357 58.5376 31.5654C58.5376 31.9046 58.4922 32.1986 58.3792 32.4699C58.2663 32.7413 58.1306 32.99 57.9495 33.2162C57.769 33.4423 57.5652 33.6458 57.3393 33.8267C57.1128 34.0076 56.8641 34.1885 56.6155 34.3468L57.4977 35.5679L58.2208 34.0076H60.4597L58.7635 37.1735L60.6402 39.774H57.9722V39.7967ZM54.8972 35.4097C54.7616 35.5001 54.6259 35.6358 54.4902 35.8619C54.3546 36.0881 54.2864 36.3594 54.2864 36.6986C54.2864 37.1057 54.3773 37.4448 54.5577 37.6936C54.7389 37.9423 54.9875 38.0554 55.3043 38.0554C55.5529 38.0554 55.7561 37.9876 55.9144 37.8293C56.0728 37.671 56.1631 37.5127 56.2312 37.3544L54.8972 35.4097ZM56.5928 31.7237C56.5928 31.4297 56.548 31.2036 56.4344 31.0001C56.3215 30.7965 56.1631 30.7061 55.9372 30.7061C55.7113 30.7061 55.5302 30.8191 55.3945 31.0227C55.2588 31.2262 55.1913 31.4749 55.1913 31.7463C55.1913 32.2438 55.349 32.6961 55.6885 33.1031C55.9144 32.9448 56.1183 32.7639 56.2987 32.5378C56.5026 32.3116 56.5928 32.0403 56.5928 31.7237Z" fill="white"/>
</g>
<defs>
<filter id="filter0_b_266_13975" x="-4.31373" y="-4.31373" width="146.627" height="63.6275" filterUnits="userSpaceOnUse" color-interpolation-filters="sRGB">
<feFlood flood-opacity="0" result="BackgroundImageFix"/>
<feGaussianBlur in="BackgroundImageFix" stdDeviation="2.15686"/>
<feComposite in2="SourceAlpha" operator="in" result="effect1_backgroundBlur_266_13975"/>
<feBlend mode="normal" in="SourceGraphic" in2="effect1_backgroundBlur_266_13975" result="shape"/>
</filter>
</defs>
</svg>
