<svg width="138" height="55" viewBox="0 0 138 55" fill="none" xmlns="http://www.w3.org/2000/svg">
<g filter="url(#filter0_b_266_13813)">
<rect width="138" height="55" rx="27.5" fill="#5C5F8E" fill-opacity="0.1"/>
<path d="M94.7239 35.0024C101.112 31.7253 102.644 27.5724 100.676 26.417C97.7731 24.8324 89.8104 27.668 90.7136 35.4317C90.3186 35.6623 89.5336 36.0769 89.5336 36.0769L90.0645 37.6468C90.0645 37.6468 91.174 36.9992 91.4759 36.798C92.4118 37.5339 92.8948 37.9387 94.344 37.9681C97.4183 38.0294 100.075 34.7032 100.075 34.7032L99.2927 33.5307C99.2927 33.5307 95.9113 36.6876 94.7239 35.0024ZM95.5717 30.2461C96.485 28.6664 97.9743 27.4325 98.6964 27.9256C99.4184 28.4186 97.9542 30.9133 94.5125 33.5675C94.3741 33.3393 94.6534 31.8307 95.5717 30.2461ZM35.1508 37.2666C33.6136 35.7065 35.0652 30.4252 35.3646 29.287C35.3712 29.2623 35.3718 29.2365 35.3665 29.2115C35.3612 29.1866 35.3501 29.1631 35.3341 29.143C35.3181 29.1229 35.2975 29.1066 35.274 29.0954C35.2505 29.0842 35.2247 29.0784 35.1986 29.0785C35.1668 29.078 35.1356 29.0862 35.1084 29.1023C35.0813 29.1184 35.0593 29.1416 35.0451 29.1693C34.396 30.4424 30.8864 37.9583 27.7793 37.9583C27.7214 37.9583 27.6611 37.9583 27.6032 37.9583C24.6018 37.6811 24.9968 33.6361 25.9276 31.1856H30.7681C30.3732 32.2453 30.2373 32.9027 30.2499 33.2584C30.2446 33.31 30.254 33.3621 30.2771 33.4089C30.3002 33.4557 30.3361 33.4953 30.3809 33.5235C30.4256 33.5516 30.4775 33.5672 30.5307 33.5685C30.5839 33.5697 30.6365 33.5566 30.6826 33.5307C31.1858 33.2854 32.011 32.2208 32.728 31.0016C34.0388 28.7743 35.7219 25.4407 38.6277 17H43.9412C42.3562 21.7024 41.0983 25.9534 40.3863 30.8152C40.3724 30.8738 40.3787 30.9353 40.4044 30.99C40.4301 31.0447 40.4737 31.0895 40.5283 31.1176C40.5829 31.1456 40.6455 31.1552 40.7063 31.1449C40.767 31.1345 40.8226 31.1049 40.8643 31.0605C42.3738 29.6721 47.9087 18.0204 48.2534 17.0074H53.5719C53.5719 17.0074 48.2886 31.2543 48.7389 33.6239C48.7993 33.9452 49.1415 34.0311 49.4182 33.722C49.7428 33.3639 50.2459 32.7236 50.5428 32.3876L51.3655 33.1897C49.851 35.0024 47.3879 38.2968 44.94 37.8994C44.5497 37.827 44.1919 37.6385 43.916 37.3598C41.3599 35.1938 44.9224 27.9624 45.5488 26.2649C45.6872 25.8896 45.8231 25.5462 45.9111 25.3303C45.9208 25.3049 45.9241 25.2775 45.9206 25.2506C45.9172 25.2236 45.9072 25.1979 45.8914 25.1755C45.8756 25.1531 45.8545 25.1348 45.8299 25.122C45.8053 25.1093 45.7779 25.1025 45.7501 25.1022C45.7174 25.102 45.6854 25.1109 45.6578 25.1278C45.6301 25.1448 45.608 25.1691 45.5941 25.1979C45.4708 25.4432 45.1387 26.1423 45.0255 26.3729C43.4456 29.547 39.8127 37.9583 36.8213 37.9583C36.1932 37.949 35.5937 37.7008 35.1508 37.2666ZM86.575 20.5715C84.2151 20.601 83.01 21.798 83.01 21.798L83.0729 23.2085C83.0729 23.2085 84.5824 21.749 86.2857 22.3647C87.448 22.7817 88.6028 24.224 87.8128 27.4203C87.1008 25.6443 84.351 25.2518 82.137 27.5724C80.3759 29.4244 77.9833 35.6059 81.508 37.5069C85.8806 39.8765 89.7324 32.9444 90.618 28.2249C91.1765 25.2469 91.5086 20.5078 86.575 20.5715ZM84.7384 34.8921C84.2654 35.2208 83.4327 35.3827 83.2717 33.9403C83.0427 31.8577 84.5296 29.3483 84.9774 28.7645C85.7624 27.7686 86.8542 27.6926 86.8769 29.2011C86.902 30.9403 85.9158 34.0752 84.7384 34.8921ZM71.5175 19.4015C68.9665 18.5331 59.9219 21.3271 56.9608 31.0752C56.5985 31.1733 54.86 31.61 54.86 31.61L54.1053 33.6042L56.7947 32.8021C56.7947 32.8021 56.5004 37.8111 61.0163 37.9534C64.5662 37.8234 66.4682 32.7678 65.3612 29.5176C65.1373 29.6255 62.2391 30.8226 62.2391 30.8226C62.2391 30.8226 62.8202 34.1096 61.5547 34.87C61.5062 34.9018 61.4518 34.9239 61.3945 34.935C61.3372 34.9462 61.2782 34.9462 61.2209 34.935C61.1636 34.9239 61.1091 34.9017 61.0606 34.8699C61.0121 34.8382 60.9706 34.7973 60.9384 34.7498C60.571 34.2592 60.3371 32.9616 60.7497 31.2445C67.2481 27.955 71.6861 22.1513 71.9553 20.1594C71.9818 20.0034 71.9529 19.8432 71.8733 19.7053C71.7937 19.5675 71.6682 19.4603 71.5175 19.4015ZM63.4341 28.0384C62.7625 28.548 62.0461 28.9986 61.2931 29.3851C61.2931 29.3851 61.6277 28.6222 61.8944 28.1807C62.5888 27.0303 65.955 22.6419 68.7727 21.8152C68.7958 21.8079 68.8204 21.8065 68.8443 21.811C68.8681 21.8155 68.8903 21.8259 68.9089 21.8411C68.9276 21.8563 68.9419 21.8758 68.9506 21.8979C68.9594 21.92 68.9622 21.9438 68.9589 21.9673C68.9187 22.9264 65.3587 26.5961 63.4341 28.0384ZM77.0197 35.3974C77.4474 35.1374 78.0261 34.686 78.0261 34.686L78.3859 35.7604C78.172 35.9812 76.4335 37.3254 75.3542 37.816C74.1894 38.3459 73.1151 37.6468 72.9692 36.7931C72.8006 35.8119 73.3214 34.5339 73.3214 34.5339C73.3214 34.5339 71.4622 36.5969 69.5703 37.6026C69.1926 37.8354 68.7588 37.9673 68.3123 37.9853C67.0368 37.9558 66.6368 36.7588 66.7777 36.1087C66.9437 35.341 68.6671 30.1627 68.886 29.314C68.8904 29.2908 68.8884 29.2669 68.8804 29.2446C68.8724 29.2224 68.8585 29.2026 68.8402 29.1872C68.8219 29.1718 68.7997 29.1614 68.776 29.1569C68.7522 29.1525 68.7277 29.1542 68.7048 29.1619C68.1815 29.3017 66.8129 30.1725 66.8129 30.1725V28.7228C66.8129 28.7228 70.5867 26.2257 71.5754 25.9509C72.4962 25.7056 73.2837 26.1962 73.0522 27.2289C72.9466 27.9379 70.6999 33.9207 70.5615 34.6468C70.5338 34.789 70.6873 34.8013 70.7301 34.789C71.4622 34.5707 72.8107 33.4546 73.8447 31.8651C74.8083 30.3786 75.47 28.4947 76.27 26.1668H79.7167C79.7167 26.1668 77.1179 33.9379 76.8235 35.2257C76.8126 35.2512 76.81 35.2794 76.8161 35.3064C76.8222 35.3334 76.8366 35.358 76.8575 35.3767C76.8784 35.3955 76.9047 35.4075 76.9328 35.4112C76.9609 35.4149 76.9895 35.4101 77.0147 35.3974H77.0197ZM104.526 37.9681C102.684 37.9681 101.834 36.4669 101.622 35.9861C99.5216 30.9011 105.678 26.1742 105.678 26.1742H109.245C109.245 26.1742 103.816 30.4105 104.566 34.1709C105.069 35.9935 106.692 35.5151 107.748 34.0801C109.034 32.3361 110.191 28.897 109.318 28.8038C108.508 28.7179 107.431 30.4276 107.431 30.4276L106.677 29.3066C107.263 28.5707 108.941 26.6329 110.785 26.0294C111.067 25.9436 112.75 25.5143 112.75 27.9354C112.745 30.511 109.781 38 104.526 37.9681ZM54.4323 36.5674C54.4328 36.8427 54.3495 37.112 54.193 37.3411C54.0364 37.5702 53.8137 37.7488 53.5529 37.8544C53.2921 37.96 53.0051 37.9877 52.7282 37.9341C52.4512 37.8805 52.1968 37.748 51.9972 37.5534C51.7975 37.3587 51.6616 37.1107 51.6066 36.8406C51.5517 36.5706 51.5801 36.2908 51.6884 36.0365C51.7967 35.7823 51.9799 35.5651 52.2149 35.4124C52.4499 35.2598 52.726 35.1786 53.0084 35.1791C53.386 35.1791 53.7482 35.3253 54.0153 35.5857C54.2823 35.8461 54.4323 36.1992 54.4323 36.5674Z" fill="#E30613"/>
</g>
<defs>
<filter id="filter0_b_266_13813" x="-4.31373" y="-4.31373" width="146.627" height="63.6275" filterUnits="userSpaceOnUse" color-interpolation-filters="sRGB">
<feFlood flood-opacity="0" result="BackgroundImageFix"/>
<feGaussianBlur in="BackgroundImageFix" stdDeviation="2.15686"/>
<feComposite in2="SourceAlpha" operator="in" result="effect1_backgroundBlur_266_13813"/>
<feBlend mode="normal" in="SourceGraphic" in2="effect1_backgroundBlur_266_13813" result="shape"/>
</filter>
</defs>
</svg>
