<svg width="138" height="55" viewBox="0 0 138 55" fill="none" xmlns="http://www.w3.org/2000/svg">
<g filter="url(#filter0_b_266_13967)">
<rect width="138" height="55" rx="27.5" fill="#5C5F8E" fill-opacity="0.1"/>
<path fill-rule="evenodd" clip-rule="evenodd" d="M24.5006 17.5H29.0042C29.1576 17.8808 29.2976 18.2676 29.4459 18.6505C31.1297 23.0733 32.8118 27.4968 34.4971 31.9189C35.0131 30.5427 35.5205 29.1627 36.0335 27.7852C37.1405 24.8014 38.2481 21.8179 39.3551 18.8341C39.5215 18.3897 39.6831 17.9433 39.8524 17.5H49.0772C49.2656 17.5175 49.4559 17.5117 49.6445 17.5289C50.7159 17.6012 51.784 17.8618 52.7434 18.368C53.2585 18.6336 53.7364 18.9725 54.1756 19.3565C54.6716 19.7773 55.1116 20.2732 55.4489 20.8389C55.816 21.4499 56.0536 22.1415 56.1521 22.8531C56.2598 23.6484 56.2266 24.4684 56.0265 25.2458C55.8728 25.8426 55.6139 26.4092 55.2708 26.9144C54.9078 27.4505 54.4562 27.9184 53.9573 28.3191C53.4408 28.7344 52.8694 29.0759 52.2638 29.3319C51.6231 29.6048 50.9455 29.7764 50.2601 29.8746C51.1079 29.8754 51.9558 29.8748 52.8035 29.8748C54.1893 32.4161 55.5745 34.9578 56.9594 37.4997C55.4022 37.5 53.8451 37.5002 52.288 37.4995C50.9355 34.9858 49.5832 32.4719 48.2313 29.9579C46.9533 29.9579 45.6753 29.9577 44.3973 29.958C44.3968 32.4719 44.3976 34.986 44.3968 37.4999C42.9879 37.4997 41.5789 37.5002 40.1701 37.4997C40.1691 31.5824 40.1717 25.6652 40.1686 19.7481C40.1483 19.7968 40.13 19.8463 40.1125 19.8963C37.9786 25.7642 35.8434 31.6316 33.7102 37.4997C33.2837 37.5001 32.8573 37.4999 32.4308 37.4999C30.1673 31.5535 27.9043 25.6068 25.6409 19.6604C25.6398 25.6068 25.6407 31.5533 25.6403 37.4997C25.2603 37.5001 24.8803 37.5001 24.5002 37.4997C24.5002 30.8331 24.4995 24.1667 24.5006 17.5ZM44.3973 18.4952C44.3971 21.986 44.3969 25.4766 44.3973 28.9672C45.4809 28.9674 46.5644 28.9674 47.648 28.9672C47.8999 28.9597 48.1515 28.9257 48.3964 28.8634C49.0032 28.7112 49.5607 28.3679 49.9893 27.9C50.4122 27.4435 50.7184 26.8818 50.9261 26.2897C51.1951 25.5241 51.3067 24.7075 51.3227 23.8957C51.3341 23.0261 51.2418 22.1473 50.9742 21.3196C50.7721 20.6926 50.4646 20.0944 50.028 19.6083C49.6146 19.1431 49.077 18.7938 48.4866 18.6271C48.1397 18.5252 47.7777 18.492 47.4181 18.4952C46.4111 18.4952 45.4041 18.4952 44.3973 18.4952ZM64.3853 22.7244C64.9476 22.5437 65.5372 22.4629 66.125 22.4572C66.7666 22.4516 67.4164 22.5226 68.0248 22.7429C68.4362 22.8903 68.8216 23.1202 69.1389 23.43C69.4696 23.7472 69.7247 24.1565 69.8318 24.6123C69.8728 24.7874 69.8952 24.9676 69.8933 25.148C69.7623 25.1478 69.6315 25.1485 69.5011 25.1475C69.5029 24.8627 69.4509 24.5757 69.3343 24.3167C69.2436 24.116 69.1141 23.9355 68.9611 23.7812C68.5522 23.3855 68.0321 23.1133 67.4789 23.0188C66.9243 22.9241 66.3507 22.934 65.8012 23.0602C65.2329 23.1922 64.6949 23.4795 64.2809 23.9061C63.8551 24.3384 63.5616 24.8939 63.3766 25.477C63.1441 26.2129 63.0669 26.9926 63.0717 27.7636C63.0762 28.4123 63.1419 29.0651 63.3183 29.6895C63.4815 30.2714 63.7494 30.8238 64.1182 31.2956C64.3967 31.6553 64.7526 31.961 65.1732 32.1237C65.5312 32.2647 65.9203 32.3064 66.301 32.2831C66.7849 32.2537 67.2742 32.1022 67.6562 31.785C67.9322 31.5578 68.1405 31.2443 68.2421 30.8945C68.2755 30.8074 68.2591 30.7125 68.2628 30.6214C68.2663 30.3511 68.2564 30.0809 68.2584 29.8104C68.2573 29.3036 68.2657 28.797 68.2632 28.29C68.9654 28.2905 69.6675 28.2895 70.3697 28.2905C70.3695 29.7093 70.3698 31.1282 70.3695 32.5471C70.2593 32.5474 70.1489 32.5472 70.0388 32.5472C69.674 32.1975 69.3059 31.8514 68.941 31.5014C68.6584 31.8836 68.2522 32.1486 67.8242 32.3244C67.3166 32.5325 66.7705 32.6265 66.2264 32.6423C65.6215 32.6569 65.0123 32.5859 64.4318 32.4061C63.404 32.0919 62.4909 31.4157 61.8443 30.5352C61.4613 30.0114 61.1883 29.4027 61.0485 28.7622C60.9627 28.3687 60.9189 27.9651 60.9223 27.5619C60.9125 26.8155 61.0556 26.0629 61.3684 25.3884C61.6599 24.7554 62.095 24.1992 62.6074 23.7428C63.1236 23.281 63.7331 22.932 64.3854 22.7245L64.3853 22.7244ZM86.6249 22.473C87.4313 22.4172 88.2559 22.5009 89.018 22.7907C89.5987 23.0092 90.135 23.3497 90.592 23.7798C91.0701 24.2271 91.4736 24.7648 91.7454 25.3708C92.0537 26.0475 92.189 26.7992 92.1865 27.5445C92.1884 28.3445 92.0282 29.152 91.6714 29.8649C91.3644 30.4827 90.922 31.0231 90.4057 31.4647C89.9039 31.8926 89.3171 32.2125 88.6922 32.3979C88.2541 32.5293 87.7996 32.5979 87.3445 32.6157C86.5424 32.6489 85.7269 32.5378 84.9811 32.2212C84.3699 31.9639 83.8141 31.5697 83.3546 31.0804C82.8732 30.5838 82.4928 29.98 82.2629 29.3175C81.9906 28.5346 81.9254 27.6847 82.0152 26.8611C82.0997 26.0882 82.3635 25.3354 82.7925 24.6956C83.1635 24.1429 83.6367 23.6626 84.1801 23.2926C84.9044 22.797 85.7615 22.5315 86.6249 22.473ZM86.8021 22.8772C86.4532 22.9161 86.1128 23.0386 85.8197 23.2386C85.5254 23.4361 85.2779 23.7024 85.0759 23.998C84.6815 24.5796 84.4522 25.2654 84.3269 25.9596C84.1849 26.7674 84.1662 27.5954 84.2336 28.4121C84.3081 29.2604 84.5067 30.1135 84.9311 30.8508C85.2178 31.344 85.6213 31.7846 86.137 32.0177C86.5369 32.2018 86.9871 32.2514 87.4191 32.1937C87.7608 32.1472 88.0915 32.0179 88.3754 31.8167C88.6278 31.6403 88.8426 31.4118 89.0228 31.1591C89.2449 30.8427 89.427 30.4962 89.5623 30.1312C89.8517 29.3555 89.953 28.5188 89.967 27.6918C89.973 27.199 89.9488 26.7046 89.8784 26.2169C89.7722 25.4799 89.5532 24.7494 89.1569 24.1218C88.8802 23.6685 88.4962 23.2692 88.015 23.0554C87.6358 22.8827 87.2116 22.8322 86.8021 22.8772ZM72.4186 22.5726C73.8903 22.5724 75.3618 22.5726 76.8335 22.5726C77.5255 22.5736 78.228 22.7237 78.8333 23.0801C79.1083 23.239 79.3585 23.4409 79.5891 23.6624C79.8011 23.8716 79.9849 24.113 80.1225 24.3812C80.2827 24.6915 80.3776 25.0363 80.4085 25.3863C80.4485 25.8352 80.3995 26.2965 80.2385 26.717C80.0468 27.2271 79.6911 27.6563 79.2737 27.9857C78.9767 28.2201 78.6442 28.4062 78.2922 28.5352C78.0247 28.6305 77.7484 28.7075 77.466 28.7337C77.6645 28.7497 77.864 28.7379 78.063 28.7416C78.2826 28.7416 78.502 28.7416 78.7217 28.7416C79.4132 30.0097 80.1059 31.2772 80.7949 32.5468C80.0177 32.5475 79.2406 32.547 78.4636 32.5471C77.7885 31.2943 77.1153 30.0408 76.4408 28.7879C75.8038 28.7877 75.1669 28.7875 74.5301 28.7879C74.53 30.0408 74.53 31.2938 74.5301 32.5468C73.8264 32.5479 73.1228 32.5466 72.4192 32.5473C72.4179 29.2224 72.4188 25.8974 72.4187 22.5725L72.4186 22.5726ZM74.5303 23.0702C74.5298 24.81 74.53 26.5501 74.5301 28.2899C75.0361 28.2904 75.5422 28.2898 76.0481 28.2903C76.2311 28.2904 76.4154 28.2709 76.5912 28.2167C76.9887 28.0984 77.3265 27.8113 77.546 27.4525C77.7484 27.1277 77.8658 26.7533 77.9276 26.3742C77.9905 25.975 77.9975 25.567 77.9528 25.1655C77.9095 24.7917 77.8167 24.4205 77.6477 24.0857C77.5023 23.7975 77.2969 23.5369 77.0339 23.3557C76.7562 23.1609 76.4182 23.0638 76.0834 23.0699C75.5656 23.0703 75.0479 23.0701 74.5303 23.0701L74.5303 23.0702ZM93.9413 22.5681C94.6452 22.5678 95.349 22.5678 96.0529 22.5681C96.0529 24.5892 96.0529 26.6105 96.0529 28.6316C96.0438 29.0463 96.0766 29.4642 96.1815 29.8656C96.332 30.459 96.6566 31.0141 97.136 31.3832C97.6608 31.7925 98.3301 31.9622 98.9806 31.9527C99.6401 31.9582 100.319 31.7627 100.831 31.3196C101.004 31.1715 101.156 30.999 101.283 30.808C101.28 28.774 101.283 26.7401 101.282 24.7061C101.283 23.9947 101.278 23.2835 101.287 22.5723C101.989 22.5727 102.691 22.5722 103.394 22.5725C103.394 25.8972 103.393 29.222 103.394 32.5467C103.282 32.5477 103.172 32.5467 103.062 32.5474C102.551 32.0669 102.048 31.5795 101.536 31.1011C101.172 31.6562 100.632 32.0771 100.027 32.3132C99.3039 32.5981 98.5139 32.6475 97.7487 32.5833C97.0522 32.5208 96.3598 32.3196 95.7597 31.9422C95.2167 31.6014 94.7434 31.1313 94.4236 30.5608C94.2216 30.1985 94.0844 29.7982 94.0116 29.3868C93.9461 29.0284 93.9364 28.6626 93.9412 28.2988C93.9412 26.3885 93.9412 24.4783 93.9412 22.568L93.9413 22.5681ZM105.495 22.5681C106.81 22.5678 108.124 22.5681 109.438 22.568C109.729 22.5691 110.02 22.5612 110.311 22.5873C110.949 22.6402 111.583 22.8383 112.118 23.2062C112.57 23.52 112.984 23.9205 113.229 24.4308C113.394 24.7654 113.478 25.1377 113.5 25.5114V25.838C113.478 26.2383 113.382 26.6367 113.196 26.99C112.911 27.5386 112.447 27.97 111.927 28.2746C111.318 28.6292 110.614 28.7818 109.919 28.7833C109.148 28.7829 108.378 28.7831 107.607 28.7833C107.607 30.0363 107.608 31.2894 107.607 32.5424C106.903 32.5427 106.199 32.5427 105.496 32.5424C105.495 29.2176 105.495 25.8929 105.495 22.5682L105.495 22.5681ZM107.607 23.0657C107.607 24.8056 107.607 26.5454 107.607 28.2853C108.051 28.2856 108.495 28.2853 108.939 28.2855C109.1 28.2825 109.262 28.2947 109.421 28.2698C109.768 28.2234 110.099 28.0573 110.348 27.8026C110.54 27.6121 110.687 27.376 110.796 27.1252C110.957 26.7467 111.033 26.334 111.055 25.9223C111.07 25.5713 111.056 25.2173 110.989 24.8721C110.921 24.5175 110.8 24.1694 110.604 23.8683C110.454 23.635 110.256 23.4328 110.021 23.2929C109.77 23.1414 109.479 23.0683 109.189 23.0655C108.662 23.0657 108.134 23.0652 107.607 23.0657V23.0657Z" fill="white"/>
</g>
<defs>
<filter id="filter0_b_266_13967" x="-4.31373" y="-4.31373" width="146.627" height="63.6275" filterUnits="userSpaceOnUse" color-interpolation-filters="sRGB">
<feFlood flood-opacity="0" result="BackgroundImageFix"/>
<feGaussianBlur in="BackgroundImageFix" stdDeviation="2.15686"/>
<feComposite in2="SourceAlpha" operator="in" result="effect1_backgroundBlur_266_13967"/>
<feBlend mode="normal" in="SourceGraphic" in2="effect1_backgroundBlur_266_13967" result="shape"/>
</filter>
</defs>
</svg>
