<svg width="138" height="55" viewBox="0 0 138 55" fill="none" xmlns="http://www.w3.org/2000/svg">
<g filter="url(#filter0_b_266_13855)">
<rect width="138" height="55" rx="27.5" fill="#5C5F8E" fill-opacity="0.1"/>
<path fill-rule="evenodd" clip-rule="evenodd" d="M45.4357 20.2954C44.4088 20.2954 43.5771 19.4577 43.5771 18.4238C43.5771 17.39 44.4088 16.5517 45.4357 16.5517C46.4612 16.5517 47.2935 17.39 47.2935 18.4238C47.2935 19.4577 46.4612 20.2954 45.435 20.2954H45.4357ZM45.4357 14.3508C43.1968 14.3508 41.382 16.1779 41.382 18.4331C41.3805 19.3224 41.6694 20.188 42.2051 20.8984L42.4746 21.2742L45.435 24.8708L48.6655 20.8978C49.2009 20.1872 49.4897 19.3217 49.4879 18.4325C49.4879 16.1779 47.6732 14.3501 45.435 14.3501L45.4357 14.3508ZM46.9822 33.3178V26.4673H43.98V29.6848L40.9798 26.0538L32.625 36.1642L35.4042 38.4944L40.9798 31.7479L46.5554 38.4944L49.3339 36.1642L46.9822 33.3178Z" fill="#006CFF"/>
<path fill-rule="evenodd" clip-rule="evenodd" d="M65.3966 26.4594H62.7343V35.7971H57.4713V26.46H54.8096V38.2784H64.6134V40.6496H67.0255V35.7985H65.3966V26.4587V26.4594ZM71.5497 34.416V26.4594H68.888V38.2777H71.5497L77.1253 30.3211V38.2777H79.7877V26.4594H77.126L71.5504 34.416H71.5497ZM102.729 26.4594V31.1031H97.2938V26.4594H94.6314V38.2777H97.2938V33.6002H102.729V38.2777H105.375V26.4594H102.729ZM89.405 33.2874C89.405 34.2152 89.1441 34.9409 88.6303 35.4452C88.11 35.9555 87.3546 36.214 86.3855 36.214C85.1728 36.214 84.5051 35.6639 84.5051 34.6639C84.5051 33.6214 85.3786 32.9991 86.8408 32.9991H89.4043V33.2874H89.405ZM87.1827 26.2334C85.7914 26.2334 84.5933 26.6085 83.7172 27.3183C82.8974 27.981 82.4122 28.9081 82.3465 29.9294H84.971C85.0905 29.3807 85.6726 28.5251 87.1827 28.5251C88.5739 28.5251 89.4043 29.3621 89.4043 30.7638V30.8221H86.7267C85.1416 30.8221 83.917 31.1833 83.0866 31.8957C82.2914 32.5783 81.8885 33.5479 81.8885 34.7785C81.8885 35.8395 82.3027 36.7919 83.0567 37.4592C83.828 38.1438 84.9007 38.5057 86.1578 38.5057C88.1266 38.5057 89.1979 37.5381 89.5663 37.1232L89.7488 38.1359L89.774 38.2757H92.0215V30.7638C92.0215 27.9697 90.167 26.2334 87.1827 26.2334Z" fill="white"/>
</g>
<defs>
<filter id="filter0_b_266_13855" x="-4.31373" y="-4.31373" width="146.627" height="63.6275" filterUnits="userSpaceOnUse" color-interpolation-filters="sRGB">
<feFlood flood-opacity="0" result="BackgroundImageFix"/>
<feGaussianBlur in="BackgroundImageFix" stdDeviation="2.15686"/>
<feComposite in2="SourceAlpha" operator="in" result="effect1_backgroundBlur_266_13855"/>
<feBlend mode="normal" in="SourceGraphic" in2="effect1_backgroundBlur_266_13855" result="shape"/>
</filter>
</defs>
</svg>
