<svg width="138" height="55" viewBox="0 0 138 55" fill="none" xmlns="http://www.w3.org/2000/svg">
<g filter="url(#filter0_b_266_13927)">
<rect width="138" height="55" rx="27.5" fill="#5C5F8E" fill-opacity="0.1"/>
<path fill-rule="evenodd" clip-rule="evenodd" d="M83.4998 41.9996C91.5077 41.9996 97.9993 35.5077 97.9993 27.4998C97.9993 19.4919 91.5077 13 83.4998 13C75.4915 13 69 19.4915 69 27.4998C69 35.5077 75.4915 41.9996 83.4998 41.9996Z" fill="#4E67ED"/>
<path fill-rule="evenodd" clip-rule="evenodd" d="M84.4082 27.4132C84.4092 27.0769 84.5432 26.7548 84.7809 26.5171C85.0186 26.2793 85.3408 26.1453 85.677 26.1444C86.0132 26.1453 86.3353 26.2793 86.573 26.5171C86.8107 26.7548 86.9447 27.0769 86.9457 27.4132C86.9447 27.7493 86.8107 28.0715 86.573 28.3092C86.3353 28.5469 86.0132 28.6809 85.677 28.6818C85.3408 28.6809 85.0186 28.5469 84.7809 28.3092C84.5432 28.0715 84.4092 27.7493 84.4082 27.4132ZM83.775 27.4132C83.775 27.6629 83.8242 27.9103 83.9199 28.141C84.0156 28.3717 84.1557 28.5814 84.3324 28.758C84.6892 29.1147 85.173 29.315 85.6775 29.3149C85.9273 29.3149 86.1746 29.2656 86.4054 29.17C86.6362 29.0743 86.8458 28.9342 87.0224 28.7575C87.1991 28.5808 87.3391 28.3712 87.4346 28.1403C87.5302 27.9096 87.5793 27.6622 87.5793 27.4124C87.5792 26.9079 87.3787 26.4241 87.0219 26.0675C86.6651 25.7109 86.1813 25.5105 85.6768 25.5106C85.1723 25.5107 84.6885 25.7112 84.3319 26.068C83.9752 26.4248 83.7749 26.9086 83.775 27.4132ZM80.228 27.4132C80.229 27.0769 80.363 26.7548 80.6007 26.5171C80.8384 26.2793 81.1605 26.1453 81.4967 26.1444C81.8329 26.1453 82.1551 26.2793 82.3928 26.5171C82.6305 26.7548 82.7644 27.0769 82.7655 27.4132C82.7644 27.7493 82.6305 28.0715 82.3928 28.3092C82.1551 28.5469 81.8329 28.6809 81.4967 28.6818C81.1605 28.6809 80.8384 28.5469 80.6007 28.3092C80.363 28.0715 80.229 27.7493 80.228 27.4132ZM79.5947 27.4132C79.5948 27.9176 79.7953 28.4014 80.152 28.7581C80.5088 29.1148 80.9926 29.3151 81.4971 29.3151C82.0016 29.315 82.4854 29.1146 82.8421 28.7578C83.1987 28.4011 83.3991 27.9172 83.399 27.4128C83.399 27.163 83.3498 26.9156 83.2542 26.6848C83.1586 26.4541 83.0185 26.2444 82.8418 26.0678C82.6652 25.8912 82.4555 25.7511 82.2247 25.6555C81.9938 25.5599 81.7465 25.5108 81.4967 25.5108C80.9923 25.5108 80.5085 25.7113 80.1518 26.0681C79.9752 26.2447 79.8351 26.4544 79.7395 26.6852C79.6439 26.9159 79.5947 27.1633 79.5947 27.4132ZM79.2852 27.4132C79.2852 26.9087 79.0848 26.4249 78.7281 26.0682C78.3714 25.7115 77.8876 25.5111 77.3832 25.5111C76.7185 25.5111 76.135 25.8535 75.7952 26.3704V24.2432H75.168V29.1821H75.7952V28.4555C75.9677 28.7193 76.2032 28.936 76.4804 29.086C76.7577 29.236 77.068 29.3146 77.3832 29.3148C77.633 29.3148 77.8803 29.2655 78.111 29.17C78.3418 29.0743 78.5515 28.9343 78.7281 28.7577C78.9047 28.5811 79.0448 28.3714 79.1404 28.1406C79.2359 27.9099 79.2852 27.6629 79.2852 27.4132ZM78.6519 27.4128C78.6509 27.749 78.517 28.0711 78.2792 28.3088C78.0415 28.5465 77.7194 28.6805 77.3832 28.6815C77.047 28.6805 76.7248 28.5465 76.4871 28.3088C76.2494 28.0711 76.1154 27.749 76.1145 27.4128C76.1154 27.0765 76.2494 26.7544 76.4871 26.5167C76.7248 26.279 77.047 26.145 77.3832 26.144C77.7194 26.145 78.0415 26.279 78.2792 26.5167C78.517 26.7544 78.6509 27.0765 78.6519 27.4128ZM88.0569 25.6524V29.1742H88.6902V26.2853H89.8536V29.1742H90.4869V26.2853H91.65V29.1742H92.2833V25.6524H88.0569Z" fill="white"/>
<path fill-rule="evenodd" clip-rule="evenodd" d="M40 42H68.9992V13H40V42Z" fill="black"/>
<path fill-rule="evenodd" clip-rule="evenodd" d="M49.8832 26.1448C50.3907 26.1448 50.8275 26.4908 50.9609 26.9558H48.7211C48.8087 26.718 48.9671 26.5128 49.175 26.3678C49.3828 26.2228 49.6297 26.1449 49.8832 26.1448ZM48.0164 27.3782C48.0164 28.4498 48.8126 29.3156 49.9538 29.3156C50.4658 29.3149 50.957 29.1127 51.3209 28.7525L50.8769 28.2944C50.7564 28.4169 50.6127 28.5142 50.4544 28.5808C50.296 28.6473 50.126 28.6819 49.9541 28.6823C49.2423 28.6823 48.756 28.2101 48.6645 27.5894H51.645V27.2722C51.6448 26.8051 51.4592 26.3571 51.1289 26.0269C50.7986 25.6967 50.3506 25.5111 49.8835 25.5111C49.3886 25.5119 48.9142 25.7088 48.5642 26.0587C48.2143 26.4086 48.0172 26.8833 48.0164 27.3782ZM61.0961 30.8972V25.6441H60.4689V26.3711C60.2963 26.1073 60.0607 25.8907 59.7833 25.7407C59.506 25.5907 59.1957 25.5122 58.8805 25.5122C58.3806 25.519 57.9036 25.7225 57.5525 26.0784C57.2014 26.4343 57.0046 26.9142 57.0046 27.414C57.0046 27.914 57.2014 28.3938 57.5525 28.7497C57.9036 29.1056 58.3806 29.3091 58.8805 29.3159C59.5455 29.3159 60.1287 28.9735 60.4689 28.4566V30.2704H58.8809V30.8975L61.0961 30.8972ZM60.1492 27.4135C60.1483 27.7497 60.0143 28.0719 59.7766 28.3096C59.5388 28.5474 59.2167 28.6813 58.8805 28.6823C58.5442 28.6813 58.2221 28.5474 57.9844 28.3096C57.7467 28.0719 57.6127 27.7497 57.6117 27.4135C57.6127 27.0773 57.7467 26.7552 57.9844 26.5174C58.2221 26.2797 58.5442 26.1457 58.8805 26.1448C59.2167 26.1457 59.5388 26.2797 59.7766 26.5174C60.0143 26.7552 60.1483 27.0773 60.1492 27.4135ZM55.7551 24.5246C55.7551 24.7571 55.945 24.947 56.1775 24.947C56.4096 24.947 56.5996 24.7571 56.5996 24.5246C56.5996 24.2925 56.4096 24.1025 56.1775 24.1025C55.945 24.1025 55.7551 24.2925 55.7551 24.5246ZM55.8607 29.1746H56.494V25.6527H55.8607V29.1746ZM53.5881 28.7176C52.9887 28.7176 52.6715 28.4357 52.6715 28.1535V28.0836H52.0386V28.1538C52.0386 28.7875 52.6012 29.3156 53.5881 29.3156C54.5746 29.3156 55.1377 28.7875 55.1377 28.1538C55.1377 26.6739 52.6715 27.3645 52.6715 26.6527C52.6715 26.3708 52.9887 26.1098 53.5881 26.1098C54.1871 26.1098 54.5043 26.3917 54.5043 26.6739V26.7438H55.1377V26.6735C55.1377 26.0399 54.5746 25.5118 53.5878 25.5118C52.6012 25.5118 52.0386 26.0399 52.0386 26.6735C52.0386 28.0829 54.504 27.3573 54.504 28.1748C54.504 28.4566 54.1868 28.7176 53.5881 28.7176ZM61.7629 29.1825H62.3973V27.0293C62.4117 26.5348 62.8212 26.1462 63.3864 26.1462C63.9656 26.1462 64.2341 26.556 64.2341 27.0646V29.1825H64.8688V26.9226C64.8688 26.139 64.3895 25.5115 63.4923 25.5115C62.7505 25.5115 62.3973 26.1459 62.3973 26.1459V25.6527H61.7629V29.1825ZM47.5918 29.1746V24.2434H46.9315V25.7299H44.1309V29.1829H47.5839V29.1746H47.5918ZM44.7912 28.5222H46.9232V26.3902H44.7912V28.5222Z" fill="white"/>
</g>
<defs>
<filter id="filter0_b_266_13927" x="-4.31373" y="-4.31373" width="146.627" height="63.6275" filterUnits="userSpaceOnUse" color-interpolation-filters="sRGB">
<feFlood flood-opacity="0" result="BackgroundImageFix"/>
<feGaussianBlur in="BackgroundImageFix" stdDeviation="2.15686"/>
<feComposite in2="SourceAlpha" operator="in" result="effect1_backgroundBlur_266_13927"/>
<feBlend mode="normal" in="SourceGraphic" in2="effect1_backgroundBlur_266_13927" result="shape"/>
</filter>
</defs>
</svg>
