<svg width="138" height="55" viewBox="0 0 138 55" fill="none" xmlns="http://www.w3.org/2000/svg">
<g filter="url(#filter0_b_266_13941)">
<rect width="138" height="55" rx="27.5" fill="#5C5F8E" fill-opacity="0.1"/>
<mask id="mask0_266_13941" style="mask-type:luminance" maskUnits="userSpaceOnUse" x="16" y="19" width="17" height="17">
<path d="M16.999 19.8193H32.3596V35.1799H16.999V19.8193Z" fill="white"/>
</mask>
<g mask="url(#mask0_266_13941)">
<path d="M24.6793 35.1799C28.921 35.1799 32.3596 31.7413 32.3596 27.4996C32.3596 23.2579 28.921 19.8193 24.6793 19.8193C20.4376 19.8193 16.999 23.2579 16.999 27.4996C16.999 31.7413 20.4376 35.1799 24.6793 35.1799Z" fill="#FF5226"/>
<path d="M25.9236 32.3385V24.1155H24.9589C24.2636 24.1155 23.7362 24.263 23.3778 24.5584C23.0194 24.8431 22.8402 25.2225 22.8402 25.6972C22.8402 26.0556 22.9032 26.3612 23.0296 26.6142C23.1561 26.8671 23.3409 27.0991 23.5831 27.31C23.8258 27.521 24.1315 27.7529 24.5007 28.0058L25.4177 28.6223L22.7296 32.339H20.7051L23.2672 28.8599L24.4689 29.9351L23.5202 29.334C23.0431 29.0241 22.5886 28.6807 22.1602 28.3064C21.7803 27.9685 21.4905 27.5998 21.2903 27.1994C21.0901 26.7985 20.9898 26.3295 20.9898 25.7919C20.9898 24.8641 21.3221 24.1155 21.9861 23.5462C22.661 22.9666 23.6466 22.6768 24.943 22.6768H27.8052V32.3385H25.9236Z" fill="white"/>
</g>
<path d="M41.3473 35.1804C37.1103 35.1804 33.667 31.7504 33.667 27.5139C33.667 23.277 37.1103 19.8198 41.3473 19.8198C45.5837 19.8198 49.0275 23.277 49.0275 27.5139C49.0275 31.7504 45.5837 35.1804 41.3473 35.1804Z" fill="#FF5226"/>
<path d="M40.1599 20.8594L31.5918 34.2282H35.5195L40.4692 26.5223L40.3483 26.4675L38.9761 31.9819L41.8813 32.494L44.8674 28.7409L44.7056 28.6605L43.6969 32.9235L50.027 31.7172L48.7357 29.5903L46.4541 30.1126L46.7235 30.4223L47.7859 25.9703L45.3108 24.3155L42.0697 28.3912L42.231 28.4721L43.5623 23.1317L40.1599 20.8594Z" fill="#FFDD00"/>
<path d="M40.1599 20.8594L31.5918 34.2282H35.5195L40.4692 26.5223L40.3483 26.4675L38.9761 31.9819L41.8813 32.494L44.8674 28.7409L44.7056 28.6605L43.6969 32.9235L46.2416 32.4387L47.7859 25.9703L45.3108 24.3155L42.0697 28.3912L42.231 28.4721L43.5623 23.1317L40.1599 20.8594Z" fill="#FFDD00"/>
<path d="M51.9732 32.3386L56.7488 22.6768H60.3856L61.1291 28.5594L64.8136 22.6763H68.4192V32.3386H64.8929V27.1518L61.6191 32.3386H58.0928L57.4134 27.1042L54.8195 32.3386H51.9732ZM79.2514 30.4251C79.2514 30.7523 79.2571 31.0739 79.2673 31.3898C79.2781 31.7062 79.299 32.017 79.3308 32.3227H76.0569C75.9792 32.1709 75.9158 32.0121 75.8675 31.8486C75.803 31.632 75.7606 31.4095 75.741 31.1845C75.4036 31.5849 74.9766 31.9167 74.46 32.1803C73.9541 32.4338 73.2316 32.5603 72.2936 32.5603C71.3448 32.5603 70.5855 32.3386 70.0162 31.8962C69.4576 31.4533 69.1785 30.8629 69.1785 30.1246C69.1785 29.4395 69.3731 28.9126 69.7632 28.5435C70.1641 28.1641 70.7857 27.9004 71.6295 27.7529C72.4728 27.5942 73.5532 27.5153 74.8711 27.5153H75.6934V27.3413C75.6934 27.0044 75.5511 26.7458 75.2664 26.5666C74.9817 26.3874 74.4492 26.2978 73.6694 26.2978C72.8998 26.2978 72.183 26.3981 71.5184 26.5983C70.8651 26.7878 70.3326 26.9777 69.9214 27.1677V25.0484C70.3853 24.8795 71.0074 24.711 71.7877 24.5426C72.5783 24.3634 73.4795 24.2738 74.4917 24.2738C75.5142 24.2738 76.3785 24.3685 77.0851 24.5584C77.7917 24.7377 78.3293 25.0484 78.6979 25.4913C79.0671 25.9235 79.2514 26.5246 79.2514 27.2942V30.4251ZM80.3267 24.5113H83.6005L83.79 25.8549C84.1909 25.328 84.6701 24.9435 85.2292 24.7008C85.7878 24.4581 86.4309 24.3373 87.1585 24.3373C87.9808 24.3373 88.7186 24.4847 89.3725 24.7796C90.0118 25.0627 90.5516 25.5311 90.9218 26.1242C91.3018 26.7248 91.4912 27.4841 91.4912 28.4011C91.4912 29.3182 91.3018 30.0826 90.9218 30.694C90.5532 31.2951 90.0366 31.7487 89.3725 32.0539C88.7079 32.3601 87.9491 32.5126 87.095 32.5126C86.4837 32.5165 85.8772 32.4038 85.3081 32.1803C84.7597 31.9489 84.2856 31.5849 83.8852 31.0897V34.3789H80.3267V24.5108V24.5113ZM101.802 28.4011C101.802 27.6208 102.013 26.925 102.435 26.3136C102.867 25.7023 103.478 25.223 104.269 24.8749C105.07 24.5165 106.014 24.3373 107.1 24.3373C108.228 24.3373 109.171 24.5318 109.93 24.922C110.7 25.3121 111.237 25.8656 111.543 26.5825C111.859 27.2993 111.901 28.1482 111.669 29.1287H105.423C105.55 29.5819 105.829 29.9244 106.261 30.1563C106.704 30.378 107.358 30.4886 108.222 30.4886C108.823 30.4886 109.382 30.4359 109.898 30.3299C110.384 30.2225 110.865 30.0908 111.338 29.9351V31.8168C110.884 32.0278 110.378 32.1962 109.819 32.3227C109.271 32.4492 108.549 32.5126 107.653 32.5126C105.681 32.5126 104.211 32.1491 103.241 31.4215C102.281 30.6837 101.802 29.6771 101.802 28.4011ZM111.97 24.5108H121V26.5353H118.185V32.3227H114.627V26.5353H111.97V24.5108ZM92.1712 24.5108H95.7292V28.053L99.0977 24.5108H102.166L99.0343 27.7683L102.814 32.3227H98.5125L95.7292 28.8753V32.3227H92.1712V24.5108ZM107.115 26.1083C106.63 26.1083 106.246 26.2507 105.961 26.5353C105.676 26.8093 105.492 27.1626 105.407 27.5947H108.538C108.528 27.1626 108.412 26.8093 108.191 26.5348C107.969 26.2507 107.611 26.1083 107.115 26.1083ZM87.8543 28.4011C87.8543 27.7683 87.6803 27.2675 87.3321 26.8989C86.9952 26.5195 86.5098 26.3295 85.8775 26.3295C85.2978 26.3295 84.8125 26.5087 84.4228 26.8671C84.0326 27.2153 83.8376 27.7263 83.8376 28.4011C83.8376 29.076 84.027 29.5977 84.4069 29.9669C84.7971 30.3253 85.2871 30.5045 85.8775 30.5045C86.5313 30.5045 87.0213 30.3146 87.348 29.9351C87.6854 29.5557 87.8543 29.0442 87.8543 28.4011ZM75.6934 28.9541H74.887C74.1174 28.9541 73.5639 29.0181 73.2265 29.1446C72.8998 29.2711 72.7365 29.5132 72.7365 29.8717C72.7365 30.1773 72.842 30.4042 73.0524 30.5516C73.2741 30.6888 73.5373 30.7574 73.8435 30.7574C74.3074 30.7574 74.6868 30.673 74.9817 30.5045C75.2874 30.3253 75.525 30.1195 75.6934 29.8875V28.9541Z" fill="white"/>
</g>
<defs>
<filter id="filter0_b_266_13941" x="-4.31373" y="-4.31373" width="146.627" height="63.6275" filterUnits="userSpaceOnUse" color-interpolation-filters="sRGB">
<feFlood flood-opacity="0" result="BackgroundImageFix"/>
<feGaussianBlur in="BackgroundImageFix" stdDeviation="2.15686"/>
<feComposite in2="SourceAlpha" operator="in" result="effect1_backgroundBlur_266_13941"/>
<feBlend mode="normal" in="SourceGraphic" in2="effect1_backgroundBlur_266_13941" result="shape"/>
</filter>
</defs>
</svg>
