<svg width="40" height="40" viewBox="0 0 40 40" fill="none" xmlns="http://www.w3.org/2000/svg">
<rect width="39.4254" height="39.4254" rx="19.7127" fill="white"/>
<path fill-rule="evenodd" clip-rule="evenodd" d="M14.6106 0.0348491C11.1221 0.102051 8.76243 0.334105 6.92476 0.790756C5.11674 1.24002 3.68333 1.9815 2.77706 2.93632C1.5329 4.24712 0.752622 6.33344 0.374308 9.36097C0.138838 11.2452 0.0535054 13.0739 0.0213824 16.9237L9.85373e-05 19.4774H0.261976C0.913204 19.4774 4.06388 19.3467 5.44671 19.2624C8.74246 19.0614 10.8368 18.7084 12.4921 18.0751C13.9394 17.5212 15.3063 16.6014 16.2167 15.5688C18.1779 13.344 18.9512 10.7764 19.2732 5.41951C19.3543 4.07061 19.4882 0.845378 19.4882 0.240134V0L17.6735 0.00541951C16.6754 0.00837561 15.2971 0.0216452 14.6106 0.0348491ZM19.9481 0.254553C19.9483 0.934061 20.0815 4.18324 20.1638 5.51805C20.4948 10.8835 21.2858 13.4287 23.3245 15.6878C23.9817 16.416 24.9933 17.1548 26.0408 17.6715C27.9779 18.6269 30.2268 19.0527 34.6135 19.2945C35.9402 19.3677 38.6704 19.4767 39.1873 19.4772L39.4254 19.4774L39.4248 17.9747C39.4227 13.0115 39.2364 9.90483 38.8136 7.78439C38.2271 4.84311 37.1973 3.04875 35.4894 1.99228C33.6347 0.84505 31.1872 0.30566 26.8948 0.0982081C25.8815 0.0492026 23.206 0.00105106 21.4671 0.000492683L19.948 0L19.9481 0.254553ZM0.0213496 22.486C0.0535054 26.341 0.138739 28.1686 0.374308 30.0537C0.81089 33.5475 1.78568 35.799 3.39619 37.0335C5.22654 38.4365 7.87379 39.0972 12.5413 39.3161C13.5998 39.3657 16.2277 39.4131 17.9691 39.4139L19.4882 39.4146L19.4879 39.1601C19.4875 38.6406 19.3796 35.9109 19.3058 34.5535C19.0695 30.2035 18.6154 27.8566 17.6361 25.9249C16.6906 24.0599 15.2961 22.6822 13.3953 21.7353C11.087 20.5852 8.14421 20.1696 0.752622 19.9496L0 19.9272L0.0213496 22.486ZM37.9145 19.9725C31.9964 20.1935 29.8957 20.4229 27.6777 21.0902C25.7614 21.6667 24.1125 22.7414 22.9319 24.183C21.3594 26.1034 20.6024 28.4849 20.2619 32.5828C20.143 34.0133 19.948 38.1127 19.948 39.1804V39.4254L22.551 39.4038C25.2445 39.3815 26.3772 39.3515 27.7812 39.2654C30.9827 39.069 33.0473 38.6477 34.6792 37.8577C35.2224 37.5948 35.5898 37.3767 35.9638 37.0953C37.719 35.7743 38.7038 33.4079 39.1267 29.4953C39.3224 27.6841 39.4233 24.9579 39.4248 21.4399L39.4254 19.9372L39.0066 19.9423C38.7763 19.945 38.2848 19.9586 37.9145 19.9725Z" fill="black"/>
</svg>
