<svg width="40" height="40" viewBox="0 0 40 40" fill="none" xmlns="http://www.w3.org/2000/svg">
<g clip-path="url(#clip0_266_24689)">
<path d="M9.99725 39.286C7.65261 39.1793 6.37893 38.7891 5.53177 38.4587C4.40924 38.0217 3.60895 37.5014 2.76647 36.6601C1.92399 35.8188 1.40257 35.0185 0.967854 33.896C0.637424 33.0488 0.247236 31.7751 0.140608 29.4305C0.0234347 26.896 0 26.1356 0 19.7145C0 13.2933 0.0257782 12.5341 0.139437 9.99725C0.246065 7.65261 0.638596 6.38127 0.966682 5.53177C1.40374 4.40924 1.92516 3.60895 2.7653 2.7653C3.6066 1.92399 4.4069 1.4014 5.53059 0.966682C6.37776 0.636253 7.65144 0.246065 9.99608 0.139437C12.5317 0.0234347 13.2933 0 19.7121 0C26.1332 0 26.8925 0.0257782 29.4293 0.139437C31.774 0.246065 33.0453 0.638596 33.8948 0.966682C35.0173 1.4014 35.8176 1.92399 36.6601 2.7653C37.5026 3.6066 38.0217 4.40807 38.4587 5.53059C38.7891 6.37776 39.1793 7.65144 39.286 9.99608C39.402 12.5329 39.4254 13.2922 39.4254 19.7133C39.4254 26.1321 39.402 26.8937 39.286 29.4305C39.1793 31.7751 38.7868 33.0488 38.4587 33.896C38.0217 35.0185 37.5014 35.8188 36.6601 36.6601C35.8188 37.5014 35.0173 38.0217 33.8948 38.4587C33.0476 38.7891 31.774 39.1793 29.4293 39.286C26.8949 39.402 26.1332 39.4254 19.7121 39.4254C13.2933 39.4254 12.5317 39.4031 9.99725 39.286Z" fill="url(#paint0_radial_266_24689)"/>
<path d="M9.99725 39.286C7.65261 39.1793 6.37893 38.7891 5.53177 38.4587C4.40924 38.0217 3.60895 37.5014 2.76647 36.6601C1.92399 35.8188 1.40257 35.0185 0.967854 33.896C0.637424 33.0488 0.247236 31.7751 0.140608 29.4305C0.0234347 26.896 0 26.1356 0 19.7145C0 13.2933 0.0257782 12.5341 0.139437 9.99725C0.246065 7.65261 0.638596 6.38127 0.966682 5.53177C1.40374 4.40924 1.92516 3.60895 2.7653 2.7653C3.6066 1.92399 4.4069 1.4014 5.53059 0.966682C6.37776 0.636253 7.65144 0.246065 9.99608 0.139437C12.5317 0.0234347 13.2933 0 19.7121 0C26.1332 0 26.8925 0.0257782 29.4293 0.139437C31.774 0.246065 33.0453 0.638596 33.8948 0.966682C35.0173 1.4014 35.8176 1.92399 36.6601 2.7653C37.5026 3.6066 38.0217 4.40807 38.4587 5.53059C38.7891 6.37776 39.1793 7.65144 39.286 9.99608C39.402 12.5329 39.4254 13.2922 39.4254 19.7133C39.4254 26.1321 39.402 26.8937 39.286 29.4305C39.1793 31.7751 38.7868 33.0488 38.4587 33.896C38.0217 35.0185 37.5014 35.8188 36.6601 36.6601C35.8188 37.5014 35.0173 38.0217 33.8948 38.4587C33.0476 38.7891 31.774 39.1793 29.4293 39.286C26.8949 39.402 26.1332 39.4254 19.7121 39.4254C13.2933 39.4254 12.5317 39.4031 9.99725 39.286Z" fill="url(#paint1_radial_266_24689)"/>
<path d="M14.8727 19.7966C14.8727 17.1003 17.0578 14.914 19.7541 14.914C22.4504 14.914 24.6367 17.1003 24.6367 19.7966C24.6367 22.4929 22.4504 24.6792 19.7541 24.6792C17.0578 24.6792 14.8727 22.4929 14.8727 19.7966ZM12.2332 19.7966C12.2332 23.9504 15.6003 27.3175 19.7541 27.3175C23.9079 27.3175 27.275 23.9504 27.275 19.7966C27.275 15.6428 23.9079 12.2757 19.7541 12.2757C15.6003 12.2757 12.2333 15.6426 12.2333 19.7966M25.8153 11.9775C25.8151 12.3251 25.9181 12.665 26.1111 12.9541C26.3041 13.2432 26.5785 13.4686 26.8996 13.6017C27.2207 13.7349 27.5741 13.7698 27.9151 13.7022C28.2561 13.6345 28.5693 13.4672 28.8152 13.2215C29.0611 12.9758 29.2286 12.6627 29.2966 12.3218C29.3645 11.9809 29.3299 11.6275 29.197 11.3062C29.0641 10.985 28.8389 10.7104 28.5499 10.5172C28.261 10.3239 27.9212 10.2207 27.5736 10.2206H27.5729C27.1069 10.2208 26.6601 10.406 26.3306 10.7354C26.001 11.0648 25.8157 11.5115 25.8153 11.9775ZM13.8369 31.7188C12.4089 31.6538 11.6327 31.4159 11.1169 31.2149C10.4331 30.9487 9.94517 30.6316 9.43218 30.1194C8.9192 29.6071 8.60166 29.1196 8.33661 28.4358C8.13554 27.9202 7.89768 27.1439 7.83276 25.7159C7.76176 24.172 7.74758 23.7082 7.74758 19.7968C7.74758 15.8855 7.76293 15.423 7.83276 13.8778C7.89779 12.4498 8.13741 11.6749 8.33661 11.1579C8.60283 10.474 8.9199 9.98613 9.43218 9.47314C9.94447 8.96015 10.4319 8.64261 11.1169 8.37757C11.6325 8.1765 12.4089 7.93863 13.8369 7.87372C15.3807 7.80271 15.8445 7.78854 19.7541 7.78854C23.6637 7.78854 24.128 7.80365 25.6731 7.87395C27.1011 7.93899 27.876 8.17861 28.3931 8.3778C29.0769 8.64285 29.5648 8.96109 30.0778 9.47337C30.5908 9.98566 30.9072 10.4743 31.1734 11.1581C31.3745 11.6737 31.6123 12.4501 31.6772 13.878C31.7482 15.4232 31.7624 15.8857 31.7624 19.7971C31.7624 23.7084 31.7482 24.1709 31.6772 25.7161C31.6122 27.1441 31.3732 27.9202 31.1734 28.436C30.9072 29.1199 30.5901 29.6078 30.0778 30.1196C29.5655 30.6314 29.0769 30.949 28.3931 31.2152C27.8775 31.4162 27.1011 31.6541 25.6731 31.719C24.1293 31.79 23.6655 31.8042 19.7541 31.8042C15.8428 31.8042 15.3803 31.79 13.8369 31.719M13.7156 5.2386C12.1564 5.30961 11.0909 5.55685 10.1604 5.91891C9.19737 6.29281 8.38102 6.79443 7.56584 7.60832C6.75066 8.42221 6.25033 9.23868 5.87643 10.2029C5.51437 11.134 5.26713 12.1988 5.19612 13.7581C5.12394 15.3198 5.10742 15.819 5.10742 19.7966C5.10742 23.7742 5.12394 24.2735 5.19612 25.8351C5.26713 27.3945 5.51437 28.4592 5.87643 29.3903C6.25033 30.3534 6.75078 31.1713 7.56584 31.9849C8.3809 32.7984 9.1962 33.2993 10.1604 33.6743C11.0927 34.0364 12.1564 34.2836 13.7156 34.3546C15.2781 34.4256 15.7765 34.4433 19.7541 34.4433C23.7317 34.4433 24.231 34.4268 25.7927 34.3546C27.352 34.2836 28.4168 34.0364 29.3478 33.6743C30.3109 33.2993 31.1272 32.7988 31.9424 31.9849C32.7576 31.171 33.2569 30.3534 33.6318 29.3903C33.9939 28.4592 34.2423 27.3944 34.3121 25.8351C34.3831 24.2723 34.3997 23.7742 34.3997 19.7966C34.3997 15.819 34.3831 15.3198 34.3121 13.7581C34.2411 12.1987 33.9939 11.1334 33.6318 10.2029C33.2569 9.23985 32.7563 8.4235 31.9424 7.60832C31.1285 6.79315 30.3109 6.29281 29.349 5.91891C28.4168 5.55685 27.3519 5.30844 25.7938 5.2386C24.2319 5.16724 23.7329 5.1499 19.7559 5.1499C15.7789 5.1499 15.2787 5.16642 13.7162 5.2386" fill="white"/>
</g>
<defs>
<radialGradient id="paint0_radial_266_24689" cx="0" cy="0" r="1" gradientUnits="userSpaceOnUse" gradientTransform="translate(2.55157 38.5617) scale(50.0556)">
<stop offset="0.09" stop-color="#FA8F21"/>
<stop offset="0.78" stop-color="#D82D7E"/>
</radialGradient>
<radialGradient id="paint1_radial_266_24689" cx="0" cy="0" r="1" gradientUnits="userSpaceOnUse" gradientTransform="translate(27.3086 37.2958) scale(44.0494)">
<stop offset="0.64" stop-color="#8C3AAA" stop-opacity="0"/>
<stop offset="1" stop-color="#8C3AAA"/>
</radialGradient>
<clipPath id="clip0_266_24689">
<rect width="39.4254" height="39.4254" fill="white"/>
</clipPath>
</defs>
</svg>
