<svg width="40" height="40" viewBox="0 0 40 40" fill="none" xmlns="http://www.w3.org/2000/svg">
<path d="M0.657227 18.9405C0.657227 10.257 0.657227 5.91496 3.32258 3.22549C6.01205 0.523926 10.318 0.523926 18.941 0.523926H20.4726C29.0956 0.523926 33.4134 0.523926 36.091 3.22549C38.7684 5.92705 38.7684 10.2688 38.7684 18.9405V20.4842C38.7684 29.1677 38.7684 33.5097 36.091 36.1992C33.4136 38.9007 29.0956 38.9007 20.4726 38.9007H18.941C10.318 38.9007 6.01205 38.9007 3.32258 36.1992C0.657227 33.4976 0.657227 29.1558 0.657227 20.4842V18.9405Z" fill="#FF7700"/>
<path d="M24.2832 17.2528C23.6854 17.8575 22.9736 18.3375 22.1889 18.6651C21.4043 18.9927 20.5625 19.1614 19.7122 19.1614C18.8619 19.1614 18.0201 18.9927 17.2355 18.6651C16.4508 18.3375 15.739 17.8575 15.1411 17.2528C14.2399 16.343 13.6269 15.1876 13.3788 13.9312C13.1308 12.6748 13.2586 11.3731 13.7465 10.189C14.2343 9.00485 15.0604 7.99083 16.1214 7.27372C17.1825 6.55662 18.4314 6.16826 19.7121 6.15723C20.9951 6.16599 22.247 6.55354 23.3105 7.27123C24.3741 7.98893 25.202 9.0048 25.6903 10.1913C26.1785 11.3779 26.3055 12.6822 26.0551 13.9406C25.8047 15.199 25.1882 16.3554 24.283 17.2647L24.2832 17.2528ZM19.7002 9.70288C18.9206 9.70657 18.1741 10.0189 17.6241 10.5715C17.0741 11.1241 16.7653 11.872 16.7653 12.6517C16.7653 13.4313 17.0741 14.1793 17.6241 14.7319C18.1741 15.2845 18.9206 15.5968 19.7002 15.6005C20.4799 15.5968 21.2264 15.2845 21.7764 14.7319C22.3264 14.1793 22.6351 13.4313 22.6351 12.6517C22.6351 11.872 22.3264 11.1241 21.7764 10.5715C21.2264 10.0189 20.4799 9.70657 19.7002 9.70288ZM26.5024 19.1827L28.3959 21.7878C28.4924 21.9205 28.4683 22.1014 28.3477 22.1979C26.7793 23.4767 24.9395 24.3801 22.9687 24.8391L26.623 31.9304C26.6482 31.9764 26.6609 32.0282 26.66 32.0806C26.659 32.133 26.6444 32.1842 26.6176 32.2293C26.5909 32.2743 26.5528 32.3116 26.5072 32.3374C26.4616 32.3633 26.4101 32.3768 26.3577 32.3767H22.438C22.3174 32.3767 22.2088 32.3043 22.1606 32.1958L19.7123 26.3464L17.2519 32.1958C17.2284 32.2497 17.1896 32.2956 17.1403 32.3277C17.091 32.3599 17.0334 32.3769 16.9745 32.3767H13.0549C12.8257 32.3767 12.6931 32.1355 12.7895 31.9304L16.4559 24.8391C14.5262 24.3808 12.6689 23.5125 11.0769 22.1979C11.0163 22.1502 10.9763 22.0811 10.9651 22.0049C10.9539 21.9286 10.9723 21.8509 11.0166 21.7878L12.9222 19.1948C12.9471 19.161 12.9786 19.1326 13.0147 19.1112C13.0508 19.0898 13.0909 19.0758 13.1325 19.0702C13.1741 19.0646 13.2165 19.0674 13.257 19.0784C13.2975 19.0895 13.3354 19.1085 13.3684 19.1345C15.1117 20.7109 17.3626 21.6095 19.7122 21.6672C22.064 21.6672 24.259 20.6782 26.056 19.1345C26.1766 19.0139 26.3937 19.038 26.5023 19.1828L26.5024 19.1827Z" fill="white"/>
</svg>
