<svg width="40" height="40" viewBox="0 0 40 40" fill="none" xmlns="http://www.w3.org/2000/svg">
<circle cx="19.715" cy="19.715" r="19.715" fill="white"/>
<path fill-rule="evenodd" clip-rule="evenodd" d="M19.352 0.0027851C16.9128 0.0426501 14.475 0.546187 12.2067 1.4787C11.33 1.83914 10.3614 2.3256 9.56143 2.80732C8.52034 3.43421 7.4617 4.21591 6.54535 5.03443C5.6958 5.79328 4.76043 6.80247 4.06734 7.708C1.76804 10.7121 0.395732 14.2253 0.0643581 17.9561C0.00505686 18.6238 -0.00662518 18.9928 0.00301532 19.8953C0.0119105 20.7278 0.0280158 21.0648 0.0876248 21.6656C0.382057 24.6328 1.33336 27.4682 2.88439 30.0012C3.87835 31.6246 5.12419 33.1177 6.56014 34.4066C7.7945 35.5146 9.20597 36.4877 10.6837 37.2495C11.2071 37.5193 12.2016 37.9726 12.2115 37.9458C12.2141 37.9387 12.198 37.7662 12.1756 37.5625C12.0355 36.2844 12.0132 34.9442 12.1104 33.6364C12.2047 32.3684 12.3929 31.1311 12.7092 29.7001C12.9527 28.5982 13.1477 27.8422 13.6513 26.0473C14.0894 24.4857 14.1755 24.1753 14.3031 23.6985C14.4635 23.099 14.65 22.3478 14.764 21.8425L14.8502 21.4606L14.8108 21.4051C14.7173 21.2738 14.5119 20.8186 14.4194 20.5378C14.2052 19.8876 14.1317 19.3511 14.1479 18.5554C14.1632 17.8058 14.2727 17.1741 14.5061 16.4877C14.7888 15.6567 15.1808 14.9935 15.7046 14.4601C16.1894 13.9664 16.6928 13.6779 17.3105 13.5398C17.5378 13.4889 17.985 13.4706 18.261 13.5008C18.8249 13.5624 19.4764 13.8167 19.8624 14.1256C20.2978 14.4741 20.5502 14.9508 20.6341 15.5829C20.6688 15.8447 20.6562 16.4259 20.6087 16.7493C20.492 17.5436 20.3317 18.1294 19.7466 19.8999C19.3816 21.0042 19.244 21.446 19.1164 21.9224C18.6872 23.525 18.7111 24.5658 19.1939 25.2927C19.4936 25.744 20.0175 26.0767 20.713 26.2572C20.9761 26.3255 21.3617 26.3901 21.6349 26.4116C22.3854 26.4706 23.1186 26.3405 23.8119 26.0254C25.496 25.26 26.8544 23.395 27.5892 20.8394C27.8027 20.097 27.9557 19.256 28.04 18.361C28.0808 17.9269 28.0807 16.6435 28.0398 16.239C27.8875 14.735 27.523 13.56 26.9068 12.5867C26.5452 12.0155 26.0808 11.5371 25.3632 10.9965C24.4625 10.318 23.2934 9.80243 22.1227 9.56743C20.8847 9.31896 19.5059 9.33851 18.2241 9.6227C16.4582 10.0143 14.8674 10.806 13.511 11.9683C13.2635 12.1804 12.6713 12.7782 12.4577 13.0316C11.2334 14.4841 10.5792 16.0947 10.4796 17.9019C10.444 18.5459 10.5197 19.4203 10.6454 19.8189C10.8055 20.3264 11.3934 21.1504 12.1547 21.9344L12.4056 22.1927L12.3748 22.4353C12.3312 22.7785 12.2582 23.2127 12.166 23.6772C12.0898 24.0612 11.9075 24.89 11.8962 24.904C11.8733 24.9323 11.1015 24.7182 10.7368 24.5824C9.27402 24.0377 8.17155 23.0706 7.51121 21.753C7.08112 20.8948 6.84905 19.9966 6.75204 18.8146C6.72824 18.5246 6.72928 17.4421 6.75363 17.1542C6.91682 15.2247 7.58779 13.4378 8.74871 11.841C9.88615 10.2766 11.5252 8.91218 13.3795 7.98629C14.8347 7.25971 16.3275 6.80403 17.8614 6.61815C18.6721 6.5199 19.1135 6.49577 20.0973 6.49586C21.0023 6.49596 21.3435 6.51307 22.0498 6.59374C25.2811 6.96282 28.061 8.1932 29.9487 10.0898C31.5779 11.7268 32.4534 13.6417 32.686 16.077C32.7703 16.9593 32.7703 17.9677 32.686 18.8956C32.531 20.6022 32.0615 22.3185 31.3477 23.7876C30.5453 25.4391 29.5015 26.7579 28.1986 27.7664C27.0538 28.6525 25.6761 29.2579 24.2614 29.4968C23.2548 29.6668 22.1123 29.6763 21.2433 29.5221C20.4074 29.3738 19.7623 29.082 18.6472 28.348C17.9644 27.8985 17.437 27.5673 17.4248 27.5802C17.4217 27.5835 17.3742 27.8049 17.3192 28.0722C16.5724 31.7 15.8788 33.7959 14.8506 35.5317C14.2417 36.5597 13.5184 37.4011 12.6538 38.0872L12.6148 38.1182L12.8887 38.2199C14.4692 38.8069 16.2647 39.2065 17.9829 39.3535C18.6467 39.4103 19.0097 39.4254 19.7085 39.4254C20.3994 39.4254 20.7614 39.4104 21.4197 39.3543C24.3751 39.1025 27.2123 38.1922 29.761 36.678C31.7976 35.468 33.602 33.9045 35.0751 32.0732C36.2754 30.5811 37.2413 28.949 37.9647 27.1906C38.715 25.3667 39.1902 23.4035 39.3608 21.4226C39.4146 20.7984 39.4256 20.5314 39.4254 19.8513C39.4252 19.1181 39.4071 18.6602 39.3535 18.0289C39.1082 15.1385 38.2495 12.3989 36.7971 9.87289C35.0995 6.92048 32.6307 4.4355 29.6568 2.68599C28.9289 2.25774 28.0134 1.80439 27.2216 1.48012C24.7077 0.450566 22.0846 -0.0418748 19.352 0.0027851Z" fill="#CC2127"/>
</svg>
