<svg width="39" height="39" viewBox="0 0 39 39" fill="none" xmlns="http://www.w3.org/2000/svg">
<path d="M19.5 39C30.2696 39 39 30.2696 39 19.5C39 8.73045 30.2696 0 19.5 0C8.73045 0 0 8.73045 0 19.5C0 30.2696 8.73045 39 19.5 39Z" fill="url(#paint0_linear_273_61099)"/>
<path d="M29.2309 11.4356C29.4045 10.3137 28.3378 9.42818 27.3402 9.86617L7.47201 18.5894C6.75665 18.9034 6.80898 19.9871 7.55091 20.2233L11.6482 21.5281C12.4303 21.7772 13.277 21.6483 13.9599 21.1766L23.1976 14.7945C23.4762 14.602 23.7798 14.9981 23.5418 15.2434L16.8923 22.0991C16.2473 22.7642 16.3753 23.8911 17.1512 24.3776L24.596 29.0462C25.4311 29.5698 26.5052 29.0439 26.6614 28.0347L29.2309 11.4356Z" fill="white"/>
<defs>
<linearGradient id="paint0_linear_273_61099" x1="19.5" y1="0" x2="19.5" y2="39" gradientUnits="userSpaceOnUse">
<stop stop-color="#37BBFE"/>
<stop offset="1" stop-color="#007DBB"/>
</linearGradient>
</defs>
</svg>
