<svg width="39" height="39" viewBox="0 0 39 39" fill="none" xmlns="http://www.w3.org/2000/svg">
<path d="M0 18.72C0 9.89531 0 5.48297 2.74148 2.74148C5.48297 0 9.89531 0 18.72 0H20.28C29.1047 0 33.517 0 36.2585 2.74148C39 5.48297 39 9.89531 39 18.72V20.28C39 29.1047 39 33.517 36.2585 36.2585C33.517 39 29.1047 39 20.28 39H18.72C9.89531 39 5.48297 39 2.74148 36.2585C0 33.517 0 29.1047 0 20.28V18.72Z" fill="#0077FF"/>
<path d="M20.752 28.0961C11.8632 28.0961 6.79326 22.0023 6.58203 11.8623H11.0345C11.1808 19.3048 14.4632 22.4573 17.0632 23.1073V11.8623H21.2558V18.281C23.8233 18.0048 26.5205 15.0798 27.4305 11.8623H31.6231C30.9244 15.8273 27.9993 18.7523 25.9194 19.9548C27.9993 20.9298 31.3308 23.481 32.5983 28.0961H27.9831C26.9919 25.0085 24.5221 22.6198 21.2558 22.2948V28.0961H20.752Z" fill="white"/>
</svg>
