<svg width="46" height="32" viewBox="0 0 46 32" fill="none" xmlns="http://www.w3.org/2000/svg">
<path d="M44.272 4.99613C44.0176 4.02986 43.5162 3.14798 42.818 2.43875C42.1198 1.72951 41.2493 1.21781 40.2936 0.954839C36.7754 1.128e-07 22.7129 0 22.7129 0C22.7129 0 8.65039 1.128e-07 5.13221 0.954839C4.17651 1.21781 3.306 1.72951 2.6078 2.43875C1.90961 3.14798 1.40821 4.02986 1.1538 4.99613C0.212891 8.56258 0.212891 16 0.212891 16C0.212891 16 0.212891 23.4374 1.1538 27.0039C1.40821 27.9701 1.90961 28.852 2.6078 29.5613C3.306 30.2705 4.17651 30.7822 5.13221 31.0452C8.65039 32 22.7129 32 22.7129 32C22.7129 32 36.7754 32 40.2936 31.0452C41.2493 30.7822 42.1198 30.2705 42.818 29.5613C43.5162 28.852 44.0176 27.9701 44.272 27.0039C45.2129 23.4374 45.2129 16 45.2129 16C45.2129 16 45.2129 8.56258 44.272 4.99613Z" fill="#F70000"/>
<path d="M19.9688 23.1725V8.82764L29.8468 16.0001L19.9688 23.1725Z" fill="white"/>
</svg>
