<svg width="60" height="60" viewBox="0 0 60 60" fill="none" xmlns="http://www.w3.org/2000/svg">
<path d="M15.2144 59.7878C11.6462 59.6255 9.70785 59.0317 8.41858 58.5288C6.71026 57.8637 5.49232 57.072 4.21018 55.7916C2.92805 54.5112 2.13451 53.2933 1.47294 51.585C0.970072 50.2957 0.376259 48.3574 0.213986 44.7891C0.0356644 40.932 0 39.7747 0 30.0027C0 20.2306 0.0392308 19.0751 0.212203 15.2144C0.374476 11.6462 0.971855 9.71142 1.47116 8.41858C2.1363 6.71026 2.92983 5.49232 4.2084 4.2084C5.48875 2.92805 6.70669 2.13273 8.4168 1.47116C9.70607 0.968288 11.6444 0.374476 15.2126 0.212203C19.0715 0.0356644 20.2306 0 29.9991 0C39.7712 0 40.9267 0.0392308 44.7874 0.212203C48.3556 0.374476 50.2904 0.971855 51.5832 1.47116C53.2915 2.13273 54.5095 2.92805 55.7916 4.2084C57.0737 5.48875 57.8637 6.70847 58.5288 8.4168C59.0317 9.70607 59.6255 11.6444 59.7878 15.2126C59.9643 19.0733 60 20.2288 60 30.0009C60 39.7694 59.9643 40.9285 59.7878 44.7891C59.6255 48.3574 59.0281 50.2957 58.5288 51.585C57.8637 53.2933 57.072 54.5112 55.7916 55.7916C54.5112 57.072 53.2915 57.8637 51.5832 58.5288C50.2939 59.0317 48.3556 59.6255 44.7874 59.7878C40.9302 59.9643 39.7712 60 29.9991 60C20.2306 60 19.0715 59.9661 15.2144 59.7878Z" fill="#0A0A0C"/>
<path d="M30.0008 45.4163C38.5152 45.4163 45.4174 38.5141 45.4174 29.9997C45.4174 21.4853 38.5152 14.583 30.0008 14.583C21.4864 14.583 14.5841 21.4853 14.5841 29.9997C14.5841 38.5141 21.4864 45.4163 30.0008 45.4163Z" stroke="#C8B583" stroke-width="2"/>
<path d="M30 45.4163C33.4518 45.4163 36.25 38.5141 36.25 29.9997C36.25 21.4853 33.4518 14.583 30 14.583C26.5482 14.583 23.75 21.4853 23.75 29.9997C23.75 38.5141 26.5482 45.4163 30 45.4163Z" stroke="#C8B583" stroke-width="2"/>
<path d="M15.8341 25H44.1674M15.8341 35H44.1674" stroke="#C8B583" stroke-width="2" stroke-linecap="round" stroke-linejoin="round"/>
</svg>
