<svg width="60" height="60" viewBox="0 0 60 60" fill="none" xmlns="http://www.w3.org/2000/svg">
<path d="M30 60C46.5685 60 60 46.5685 60 30C60 13.4315 46.5685 0 30 0C13.4315 0 0 13.4315 0 30C0 46.5685 13.4315 60 30 60Z" fill="url(#paint0_linear_98_3490)"/>
<path d="M44.9718 17.5932C45.2388 15.8672 43.5978 14.5048 42.0631 15.1786L11.4966 28.5989C10.396 29.0821 10.4766 30.7493 11.618 31.1127L17.9215 33.1201C19.1247 33.5033 20.4273 33.3051 21.478 32.5793L35.6898 22.7607C36.1184 22.4646 36.5855 23.074 36.2193 23.4514L25.9893 33.9985C24.997 35.0217 25.1939 36.7555 26.3877 37.504L37.8413 44.6864C39.1259 45.4919 40.7785 44.6828 41.0187 43.1303L44.9718 17.5932Z" fill="white"/>
<defs>
<linearGradient id="paint0_linear_98_3490" x1="30" y1="0" x2="30" y2="60" gradientUnits="userSpaceOnUse">
<stop stop-color="#37BBFE"/>
<stop offset="1" stop-color="#007DBB"/>
</linearGradient>
</defs>
</svg>
