<svg width="60" height="60" viewBox="0 0 60 60" fill="none" xmlns="http://www.w3.org/2000/svg">
<path d="M0 28.8C0 15.2236 0 8.43534 4.21766 4.21766C8.43534 0 15.2236 0 28.8 0H31.2C44.7764 0 51.5647 0 55.7824 4.21766C60 8.43534 60 15.2236 60 28.8V31.2C60 44.7764 60 51.5647 55.7824 55.7824C51.5647 60 44.7764 60 31.2 60H28.8C15.2236 60 8.43534 60 4.21766 55.7824C0 51.5647 0 44.7764 0 31.2V28.8Z" fill="#0077FF"/>
<path d="M31.9249 43.225C18.2499 43.225 10.45 33.85 10.125 18.25H16.975C17.2 29.7 22.2499 34.55 26.2498 35.55V18.25H32.7001V28.1249C36.65 27.6999 40.7996 23.2 42.1996 18.25H48.6497C47.5747 24.35 43.0747 28.85 39.8747 30.6999C43.0747 32.1999 48.2 36.125 50.15 43.225H43.0498C41.5248 38.475 37.7251 34.8 32.7001 34.2999V43.225H31.9249Z" fill="white"/>
</svg>
