<svg width="60" height="60" viewBox="0 0 60 60" fill="none" xmlns="http://www.w3.org/2000/svg">
<path d="M58.7455 15.3285C58.4062 14.0401 57.7377 12.8643 56.8068 11.9187C55.8759 10.973 54.7152 10.2907 53.4409 9.94011C48.75 8.66699 30 8.66699 30 8.66699C30 8.66699 11.25 8.66699 6.55909 9.94011C5.28483 10.2907 4.12415 10.973 3.19322 11.9187C2.26229 12.8643 1.59376 14.0401 1.25455 15.3285C1.49012e-07 20.0838 0 30.0003 0 30.0003C0 30.0003 1.49012e-07 39.9169 1.25455 44.6722C1.59376 45.9605 2.26229 47.1364 3.19322 48.082C4.12415 49.0276 5.28483 49.7099 6.55909 50.0605C11.25 51.3337 30 51.3337 30 51.3337C30 51.3337 48.75 51.3337 53.4409 50.0605C54.7152 49.7099 55.8759 49.0276 56.8068 48.082C57.7377 47.1364 58.4062 45.9605 58.7455 44.6722C60 39.9169 60 30.0003 60 30.0003C60 30.0003 60 20.0838 58.7455 15.3285Z" fill="#F70000"/>
<path d="M26.3418 39.1264V20L39.5125 29.5632L26.3418 39.1264Z" fill="white"/>
</svg>
