<svg width="60" height="60" viewBox="0 0 60 60" fill="none" xmlns="http://www.w3.org/2000/svg">
<g clip-path="url(#clip0_98_3471)">
<path d="M15.2144 59.7878C11.6462 59.6255 9.70785 59.0317 8.41858 58.5288C6.71026 57.8637 5.49232 57.072 4.21018 55.7916C2.92805 54.5112 2.13451 53.2933 1.47294 51.585C0.970072 50.2957 0.376259 48.3574 0.213986 44.7891C0.0356644 40.932 0 39.7747 0 30.0027C0 20.2306 0.0392308 19.0751 0.212203 15.2144C0.374476 11.6462 0.971855 9.71142 1.47116 8.41858C2.1363 6.71026 2.92983 5.49232 4.2084 4.2084C5.48875 2.92805 6.70669 2.13273 8.4168 1.47116C9.70607 0.968288 11.6444 0.374476 15.2126 0.212203C19.0715 0.0356644 20.2306 0 29.9991 0C39.7712 0 40.9267 0.0392308 44.7874 0.212203C48.3556 0.374476 50.2904 0.971855 51.5832 1.47116C53.2915 2.13273 54.5095 2.92805 55.7916 4.2084C57.0737 5.48875 57.8637 6.70847 58.5288 8.4168C59.0317 9.70607 59.6255 11.6444 59.7878 15.2126C59.9643 19.0733 60 20.2288 60 30.0009C60 39.7694 59.9643 40.9285 59.7878 44.7891C59.6255 48.3574 59.0281 50.2957 58.5288 51.585C57.8637 53.2933 57.072 54.5112 55.7916 55.7916C54.5112 57.072 53.2915 57.8637 51.5832 58.5288C50.2939 59.0317 48.3556 59.6255 44.7874 59.7878C40.9302 59.9643 39.7712 60 29.9991 60C20.2306 60 19.0715 59.9661 15.2144 59.7878Z" fill="url(#paint0_radial_98_3471)"/>
<path d="M15.2144 59.7878C11.6462 59.6255 9.70785 59.0317 8.41858 58.5288C6.71026 57.8637 5.49232 57.072 4.21018 55.7916C2.92805 54.5112 2.13451 53.2933 1.47294 51.585C0.970072 50.2957 0.376259 48.3574 0.213986 44.7891C0.0356644 40.932 0 39.7747 0 30.0027C0 20.2306 0.0392308 19.0751 0.212203 15.2144C0.374476 11.6462 0.971855 9.71142 1.47116 8.41858C2.1363 6.71026 2.92983 5.49232 4.2084 4.2084C5.48875 2.92805 6.70669 2.13273 8.4168 1.47116C9.70607 0.968288 11.6444 0.374476 15.2126 0.212203C19.0715 0.0356644 20.2306 0 29.9991 0C39.7712 0 40.9267 0.0392308 44.7874 0.212203C48.3556 0.374476 50.2904 0.971855 51.5832 1.47116C53.2915 2.13273 54.5095 2.92805 55.7916 4.2084C57.0737 5.48875 57.8637 6.70847 58.5288 8.4168C59.0317 9.70607 59.6255 11.6444 59.7878 15.2126C59.9643 19.0733 60 20.2288 60 30.0009C60 39.7694 59.9643 40.9285 59.7878 44.7891C59.6255 48.3574 59.0281 50.2957 58.5288 51.585C57.8637 53.2933 57.072 54.5112 55.7916 55.7916C54.5112 57.072 53.2915 57.8637 51.5832 58.5288C50.2939 59.0317 48.3556 59.6255 44.7874 59.7878C40.9302 59.9643 39.7712 60 29.9991 60C20.2306 60 19.0715 59.9661 15.2144 59.7878Z" fill="url(#paint1_radial_98_3471)"/>
<path d="M22.6335 30.1281C22.6335 26.0248 25.959 22.6975 30.0624 22.6975C34.1658 22.6975 37.4931 26.0248 37.4931 30.1281C37.4931 34.2315 34.1658 37.5588 30.0624 37.5588C25.959 37.5588 22.6335 34.2315 22.6335 30.1281ZM18.6166 30.1281C18.6166 36.4497 23.7409 41.5739 30.0624 41.5739C36.3839 41.5739 41.5082 36.4497 41.5082 30.1281C41.5082 23.8066 36.3839 18.6824 30.0624 18.6824C23.7409 18.6824 18.6168 23.8063 18.6168 30.1281M39.2866 18.2285C39.2864 18.7576 39.4431 19.2748 39.7368 19.7148C40.0306 20.1548 40.4482 20.4978 40.9369 20.7004C41.4256 20.9031 41.9634 20.9562 42.4823 20.8532C43.0012 20.7502 43.4779 20.4957 43.8521 20.1218C44.2263 19.7478 44.4813 19.2713 44.5847 18.7525C44.6881 18.2337 44.6354 17.6958 44.4331 17.207C44.2309 16.7181 43.8882 16.3003 43.4484 16.0062C43.0087 15.7121 42.4916 15.555 41.9625 15.5548H41.9615C41.2524 15.5551 40.5724 15.8369 40.0708 16.3382C39.5693 16.8395 39.2873 17.5194 39.2866 18.2285ZM21.0571 48.272C18.8839 48.1731 17.7027 47.8111 16.9178 47.5053C15.8771 47.1001 15.1345 46.6176 14.3538 45.838C13.5731 45.0583 13.0899 44.3165 12.6865 43.2758C12.3805 42.4912 12.0185 41.3096 11.9197 39.1364C11.8117 36.7869 11.7901 36.0811 11.7901 30.1285C11.7901 24.1759 11.8135 23.4721 11.9197 21.1206C12.0187 18.9474 12.3834 17.7681 12.6865 16.9812C13.0917 15.9405 13.5742 15.198 14.3538 14.4173C15.1335 13.6366 15.8753 13.1533 16.9178 12.7499C17.7024 12.4439 18.8839 12.082 21.0571 11.9832C23.4067 11.8751 24.1125 11.8535 30.0624 11.8535C36.0123 11.8535 36.7188 11.8765 39.0703 11.9835C41.2436 12.0825 42.4228 12.4472 43.2097 12.7503C44.2504 13.1537 44.9929 13.638 45.7736 14.4176C46.5543 15.1972 47.0358 15.9408 47.441 16.9815C47.747 17.7661 48.1089 18.9477 48.2077 21.1209C48.3158 23.4725 48.3374 24.1763 48.3374 30.1289C48.3374 36.0814 48.3158 36.7853 48.2077 39.1368C48.1088 41.31 47.745 42.4912 47.441 43.2762C47.0358 44.3169 46.5533 45.0594 45.7736 45.8383C44.994 46.6172 44.2504 47.1005 43.2097 47.5056C42.4251 47.8116 41.2436 48.1736 39.0703 48.2724C36.7208 48.3805 36.015 48.402 30.0624 48.402C24.1098 48.402 23.406 48.3805 21.0571 48.2724M20.8726 7.97288C18.4997 8.08094 16.8782 8.4572 15.4621 9.00822C13.9965 9.57724 12.7541 10.3406 11.5135 11.5793C10.2729 12.8179 9.51151 14.0604 8.94248 15.5278C8.39147 16.9448 8.01521 18.5654 7.90715 20.9383C7.7973 23.315 7.77216 24.0748 7.77216 30.1281C7.77216 36.1815 7.7973 36.9413 7.90715 39.318C8.01521 41.6911 8.39147 43.3115 8.94248 44.7284C9.51151 46.1941 10.2731 47.4389 11.5135 48.677C12.7539 49.9151 13.9947 50.6774 15.4621 51.2481C16.8808 51.7991 18.4997 52.1753 20.8726 52.2834C23.2505 52.3915 24.0091 52.4184 30.0624 52.4184C36.1157 52.4184 36.8756 52.3932 39.2522 52.2834C41.6253 52.1753 43.2458 51.7991 44.6627 51.2481C46.1283 50.6774 47.3707 49.9156 48.6113 48.677C49.8519 47.4384 50.6117 46.1941 51.1823 44.7284C51.7333 43.3115 52.1114 41.6909 52.2177 39.318C52.3257 36.9395 52.3509 36.1815 52.3509 30.1281C52.3509 24.0748 52.3257 23.315 52.2177 20.9383C52.1096 18.5652 51.7333 16.9439 51.1823 15.5278C50.6117 14.0622 49.8499 12.8199 48.6113 11.5793C47.3727 10.3387 46.1283 9.57724 44.6645 9.00822C43.2458 8.4572 41.6252 8.07916 39.254 7.97288C36.877 7.86428 36.1175 7.83789 30.0651 7.83789C24.0127 7.83789 23.2514 7.86303 20.8735 7.97288" fill="white"/>
</g>
<defs>
<radialGradient id="paint0_radial_98_3471" cx="0" cy="0" r="1" gradientUnits="userSpaceOnUse" gradientTransform="translate(3.88314 58.6856) scale(76.1777)">
<stop offset="0.09" stop-color="#FA8F21"/>
<stop offset="0.78" stop-color="#D82D7E"/>
</radialGradient>
<radialGradient id="paint1_radial_98_3471" cx="0" cy="0" r="1" gradientUnits="userSpaceOnUse" gradientTransform="translate(41.5599 56.759) scale(67.0371)">
<stop offset="0.64" stop-color="#8C3AAA" stop-opacity="0"/>
<stop offset="1" stop-color="#8C3AAA"/>
</radialGradient>
<clipPath id="clip0_98_3471">
<rect width="60" height="60" fill="white"/>
</clipPath>
</defs>
</svg>
