<svg width="60" height="60" viewBox="0 0 60 60" fill="none" xmlns="http://www.w3.org/2000/svg">
<path fill-rule="evenodd" clip-rule="evenodd" d="M22.2353 0.0530355C16.9262 0.155308 13.3352 0.508461 10.5385 1.20342C7.78697 1.88713 5.60552 3.01558 4.22629 4.46868C2.33286 6.46353 1.14539 9.63862 0.569644 14.2461C0.211292 17.1137 0.0814277 19.8967 0.0325411 25.7555L0.00014996 29.6419H0.398691C1.38977 29.6419 6.18466 29.4431 8.28913 29.3147C13.3048 29.0088 16.4921 28.4716 19.0112 27.5077C21.2138 26.6649 23.2941 25.265 24.6795 23.6935C27.6642 20.3077 28.8411 16.4002 29.3312 8.24775C29.4546 6.19491 29.6583 1.28655 29.6583 0.36545V0L26.8965 0.00824775C25.3776 0.0127465 23.28 0.032941 22.2353 0.0530355ZM30.3583 0.387394C30.3586 1.42151 30.5612 6.36631 30.6866 8.3977C31.1902 16.5632 32.394 20.4366 35.4966 23.8746C36.4968 24.9829 38.0364 26.1072 39.6306 26.8935C42.5785 28.3476 46.001 28.9955 52.677 29.3636C54.696 29.4749 58.851 29.6408 59.6376 29.6415L60 29.6419L59.999 27.355C59.9959 19.8016 59.7124 15.0738 59.0689 11.8468C58.1764 7.37054 56.6091 4.63978 54.0099 3.03197C51.1874 1.28605 47.4626 0.465173 40.9302 0.149459C39.388 0.0748795 35.3163 0.00159956 32.67 0.000749795L30.3581 0L30.3583 0.387394ZM0.0324911 34.2205C0.0814277 40.0873 0.211142 42.8688 0.569644 45.7375C1.23406 51.0546 2.71756 54.4812 5.16854 56.3599C7.95408 58.495 11.9828 59.5006 19.0862 59.8336C20.697 59.9091 24.6963 59.9812 27.3464 59.9825L29.6583 59.9836L29.6579 59.5962C29.6572 58.8057 29.493 54.6515 29.3808 52.5856C29.0212 45.9656 28.33 42.3939 26.8397 39.4542C25.4007 36.6158 23.2786 34.5192 20.3858 33.0781C16.8729 31.3279 12.3944 30.6954 1.14539 30.3606L0 30.3265L0.0324911 34.2205ZM57.7006 30.3953C48.6941 30.7317 45.4971 31.0808 42.1217 32.0963C39.2053 32.9738 36.6958 34.6092 34.8992 36.8032C32.506 39.7257 31.3539 43.35 30.8358 49.5864C30.6549 51.7636 30.3581 58.0023 30.3581 59.6272V60L34.3195 59.9672C38.4187 59.9332 40.1425 59.8875 42.2791 59.7565C47.1513 59.4576 50.2934 58.8165 52.777 57.6143C53.6036 57.2141 54.1627 56.8822 54.7319 56.4539C57.4031 54.4435 58.9019 50.8422 59.5454 44.8877C59.8433 42.1314 59.9968 37.9824 59.999 32.6286L60 30.3417L59.3627 30.3494C59.0121 30.3536 58.2642 30.3743 57.7006 30.3953Z" fill="white"/>
</svg>
