<svg width="60" height="60" viewBox="0 0 60 60" fill="none" xmlns="http://www.w3.org/2000/svg">
<path d="M1 28.8253C1 15.6103 1 9.00225 5.0563 4.90925C9.1493 0.797852 15.7023 0.797852 28.8253 0.797852H31.1563C44.2793 0.797852 50.8503 0.797852 54.9253 4.90925C59 9.02065 59 15.6283 59 28.8253V31.1747C59 44.3897 59 50.9977 54.9253 55.0907C50.8506 59.2021 44.2793 59.2021 31.1563 59.2021H28.8253C15.7023 59.2021 9.1493 59.2021 5.0563 55.0907C1 50.9793 1 44.3717 1 31.1747V28.8253Z" fill="#FF7700"/>
<path d="M36.9555 26.2561C36.0457 27.1763 34.9624 27.9068 33.7682 28.4053C32.5741 28.9039 31.293 29.1606 29.999 29.1606C28.705 29.1606 27.4238 28.9039 26.2297 28.4053C25.0356 27.9068 23.9523 27.1763 23.0425 26.2561C21.6709 24.8714 20.738 23.1131 20.3605 21.201C19.983 19.2889 20.1776 17.308 20.92 15.5059C21.6623 13.7038 22.9196 12.1606 24.5344 11.0693C26.1492 9.97794 28.0499 9.38691 29.9988 9.37012C31.9514 9.38345 33.8566 9.97325 35.4752 11.0655C37.0938 12.1577 38.3537 13.7037 39.0968 15.5095C39.8399 17.3152 40.033 19.3002 39.652 21.2153C39.271 23.1304 38.3328 24.8903 36.9551 26.2741L36.9555 26.2561ZM29.9808 14.7661C28.7943 14.7717 27.6582 15.247 26.8212 16.088C25.9842 16.929 25.5143 18.0672 25.5143 19.2538C25.5143 20.4403 25.9842 21.5786 26.8212 22.4196C27.6582 23.2605 28.7943 23.7358 29.9808 23.7414C31.1673 23.7358 32.3033 23.2605 33.1404 22.4196C33.9774 21.5786 34.4473 20.4403 34.4473 19.2538C34.4473 18.0672 33.9774 16.929 33.1404 16.088C32.3033 15.247 31.1673 14.7717 29.9808 14.7661ZM40.3328 29.1931L43.2144 33.1577C43.3612 33.3596 43.3245 33.6349 43.141 33.7818C40.7542 35.7279 37.9542 37.1028 34.9549 37.8014L40.5163 48.5934C40.5546 48.6633 40.5739 48.7421 40.5725 48.8218C40.5711 48.9016 40.5489 48.9796 40.5081 49.0481C40.4674 49.1167 40.4094 49.1734 40.3401 49.2128C40.2707 49.2521 40.1922 49.2727 40.1125 49.2725H34.1473C33.9637 49.2725 33.7985 49.1623 33.7251 48.9972L29.9991 40.0953L26.2548 48.9972C26.219 49.0792 26.1599 49.149 26.0849 49.198C26.0099 49.2469 25.9222 49.2728 25.8327 49.2725H19.8675C19.5187 49.2725 19.3168 48.9054 19.4637 48.5934L25.0434 37.8014C22.1067 37.1039 19.2801 35.7824 16.8573 33.7818C16.7651 33.7092 16.7042 33.6041 16.6872 33.488C16.6701 33.3719 16.6981 33.2538 16.7655 33.1577L19.6655 29.2115C19.7034 29.1601 19.7513 29.1168 19.8063 29.0842C19.8613 29.0516 19.9223 29.0304 19.9856 29.0219C20.049 29.0133 20.1134 29.0176 20.1751 29.0344C20.2367 29.0512 20.2944 29.0802 20.3446 29.1197C22.9976 31.5187 26.4233 32.8864 29.999 32.9741C33.5781 32.9741 36.9186 31.469 39.6534 29.1197C39.837 28.9362 40.1673 28.9729 40.3325 29.1932L40.3328 29.1931Z" fill="white"/>
</svg>
