<svg width="60" height="60" viewBox="0 0 60 60" fill="none" xmlns="http://www.w3.org/2000/svg">
<circle cx="30" cy="30" r="30" fill="white"/>
<path fill-rule="evenodd" clip-rule="evenodd" d="M29.4511 0.00423853C25.7389 0.0649076 22.029 0.831222 18.5769 2.25038C17.2427 2.79891 15.7686 3.53924 14.5512 4.27235C12.9668 5.22639 11.3557 6.41603 9.96112 7.66171C8.66822 8.81657 7.24472 10.3524 6.18992 11.7305C2.69071 16.3023 0.602249 21.649 0.0979441 27.3266C0.00769583 28.3429 -0.0100826 28.9044 0.0045889 30.2779C0.0181261 31.5448 0.0426361 32.0577 0.133353 32.972C0.581438 37.4878 2.02918 41.8027 4.38964 45.6577C5.90231 48.1282 7.79831 50.4005 9.98363 52.3621C11.8621 54.0482 14.0102 55.5292 16.2591 56.6886C17.0556 57.0993 18.5691 57.789 18.5842 57.7482C18.5882 57.7374 18.5636 57.4749 18.5296 57.1648C18.3164 55.2198 18.2825 53.1803 18.4304 51.19C18.5738 49.2602 18.8602 47.3772 19.3416 45.1995C19.7122 43.5225 20.009 42.372 20.7753 39.6404C21.4421 37.2638 21.5732 36.7915 21.7673 36.0658C22.0114 35.1535 22.2953 34.0103 22.4688 33.2413L22.5999 32.66L22.5399 32.5757C22.3977 32.3758 22.0851 31.683 21.9444 31.2557C21.6183 30.2662 21.5065 29.4498 21.5312 28.2388C21.5545 27.0979 21.721 26.1367 22.0763 25.092C22.5065 23.8274 23.1031 22.818 23.9003 22.0062C24.6381 21.2549 25.4042 20.8159 26.3442 20.6057C26.69 20.5283 27.3707 20.5004 27.7907 20.5463C28.6488 20.6402 29.6405 21.0271 30.2278 21.4973C30.8904 22.0276 31.2745 22.753 31.4022 23.7151C31.4551 24.1134 31.4359 24.9979 31.3636 25.49C31.186 26.699 30.942 27.5905 30.0515 30.2849C29.4961 31.9656 29.2866 32.6378 29.0925 33.3628C28.4393 35.8018 28.4757 37.3858 29.2104 38.4921C29.6665 39.1788 30.4639 39.6851 31.5224 39.9599C31.9227 40.0638 32.5095 40.162 32.9253 40.1947C34.0675 40.2845 35.1833 40.0866 36.2384 39.6071C38.8014 38.4422 40.8687 35.6039 41.987 31.7147C42.3119 30.5848 42.5446 29.3049 42.6729 27.9429C42.7352 27.2822 42.735 25.329 42.6727 24.7135C42.4409 22.4246 41.8863 20.6365 40.9484 19.1552C40.3981 18.2859 39.6913 17.5578 38.5992 16.7351C37.2286 15.7026 35.4493 14.9179 33.6676 14.5603C31.7836 14.1822 29.6852 14.2119 27.7346 14.6444C25.0471 15.2404 22.6261 16.4452 20.5619 18.2141C20.1853 18.5369 19.284 19.4467 18.959 19.8324C17.0957 22.0428 16.1001 24.4939 15.9484 27.2442C15.8944 28.2244 16.0095 29.555 16.2009 30.1616C16.4445 30.934 17.3391 32.188 18.4978 33.3811L18.8796 33.7742L18.8327 34.1435C18.7663 34.6658 18.6552 35.3266 18.515 36.0333C18.399 36.6178 18.1216 37.8791 18.1044 37.9004C18.0696 37.9435 16.8949 37.6177 16.3399 37.411C14.1138 36.582 12.436 35.1103 11.431 33.1051C10.7765 31.799 10.4233 30.432 10.2757 28.6332C10.2395 28.1919 10.241 26.5445 10.2781 26.1063C10.5264 23.1698 11.5476 20.4505 13.3143 18.0204C15.0453 15.6395 17.5398 13.5631 20.3618 12.154C22.5763 11.0483 24.8481 10.3548 27.1826 10.0719C28.4163 9.92239 29.0882 9.88566 30.5854 9.88581C31.9626 9.88595 32.4818 9.91199 33.5567 10.0348C38.4744 10.5965 42.705 12.4689 45.5778 15.3553C48.0572 17.8466 49.3896 20.7607 49.7436 24.467C49.8718 25.8098 49.8718 27.3444 49.7435 28.7565C49.5076 31.3537 48.7931 33.9656 47.7069 36.2014C46.4858 38.7148 44.8972 40.7219 42.9144 42.2566C41.1721 43.6051 39.0755 44.5265 36.9225 44.89C35.3906 45.1487 33.6519 45.1633 32.3293 44.9286C31.0572 44.7028 30.0755 44.2588 28.3785 43.1417C27.3394 42.4577 26.5368 41.9536 26.5181 41.9733C26.5135 41.9783 26.4411 42.3152 26.3574 42.7219C25.2208 48.2431 24.1653 51.4327 22.6006 54.0743C21.6739 55.6387 20.5732 56.9193 19.2573 57.9635L19.198 58.0106L19.6149 58.1654C22.0202 59.0588 24.7527 59.6669 27.3675 59.8906C28.3777 59.977 28.9302 60 29.9936 60C31.0451 60 31.596 59.9771 32.5977 59.8918C37.0956 59.5086 41.4134 58.1233 45.2921 55.8188C48.3916 53.9773 51.1376 51.5979 53.3794 48.811C55.2061 46.5402 56.6761 44.0564 57.777 41.3803C58.9188 38.6045 59.642 35.6168 59.9018 32.6022C59.9836 31.6523 60.0003 31.2459 60 30.2109C59.9997 29.0951 59.9722 28.3982 59.8906 27.4376C59.5172 23.0388 58.2104 18.8694 56 15.0252C53.4166 10.532 49.6594 6.75022 45.1336 4.0877C44.0258 3.43597 42.6325 2.74603 41.4275 2.25254C37.6017 0.6857 33.6096 -0.0637276 29.4511 0.00423853Z" fill="#CC2127"/>
</svg>
