<svg width="60" height="60" viewBox="0 0 60 60" fill="none" xmlns="http://www.w3.org/2000/svg">
<g clip-path="url(#clip0_98_3445)">
<path d="M15.2144 59.7878C11.6462 59.6255 9.70785 59.0317 8.41858 58.5288C6.71026 57.8637 5.49232 57.072 4.21018 55.7916C2.92805 54.5112 2.13451 53.2933 1.47294 51.585C0.970072 50.2957 0.376259 48.3574 0.213986 44.7891C0.0356644 40.932 0 39.7747 0 30.0027C0 20.2306 0.0392308 19.0751 0.212203 15.2144C0.374476 11.6462 0.971855 9.71142 1.47116 8.41858C2.1363 6.71026 2.92983 5.49232 4.2084 4.2084C5.48875 2.92805 6.70669 2.13273 8.4168 1.47116C9.70607 0.968288 11.6444 0.374476 15.2126 0.212203C19.0715 0.0356644 20.2306 0 29.9991 0C39.7712 0 40.9267 0.0392308 44.7874 0.212203C48.3556 0.374476 50.2904 0.971855 51.5832 1.47116C53.2915 2.13273 54.5095 2.92805 55.7916 4.2084C57.0737 5.48875 57.8637 6.70847 58.5288 8.4168C59.0317 9.70607 59.6255 11.6444 59.7878 15.2126C59.9643 19.0733 60 20.2288 60 30.0009C60 39.7694 59.9643 40.9285 59.7878 44.7891C59.6255 48.3574 59.0281 50.2957 58.5288 51.585C57.8637 53.2933 57.072 54.5112 55.7916 55.7916C54.5112 57.072 53.2915 57.8637 51.5832 58.5288C50.2939 59.0317 48.3556 59.6255 44.7874 59.7878C40.9302 59.9643 39.7712 60 29.9991 60C20.2306 60 19.0715 59.9661 15.2144 59.7878Z" fill="#0A0A0C"/>
<path fill-rule="evenodd" clip-rule="evenodd" d="M15 30.5V47L20.7592 46.9847L26.5185 46.9695L26.534 41.4745L26.5495 35.9796H30.439H34.3286L34.3441 41.4745L34.3596 46.9695H40.1644H45.9692L45.9846 37.4708L46 27.9722L44.9513 27.6827C44.3745 27.5235 39.2527 26.1079 33.5694 24.5369L23.2362 21.6807L23.2206 17.8403L23.2049 14H19.1025H15V30.5Z" fill="#4DBC14"/>
</g>
<defs>
<clipPath id="clip0_98_3445">
<rect width="60" height="60" fill="white"/>
</clipPath>
</defs>
</svg>
