<svg width="139" height="35" viewBox="0 0 139 35" fill="none" xmlns="http://www.w3.org/2000/svg">
<path fill-rule="evenodd" clip-rule="evenodd" d="M139.004 0L9.43259e-06 5.00587e-07L7.90269e-06 35L139.004 35L139.004 0ZM127.704 24.1184L127.704 16.8411L122.217 16.8411L122.217 19.6815L123.977 19.6815C123.703 20.7087 122.941 21.2224 121.692 21.2224C120.768 21.2224 120.069 20.9253 119.595 20.3313C119.12 19.7372 118.883 18.8646 118.883 17.7136C118.883 15.226 119.751 13.9822 121.486 13.9822C122.598 13.9822 123.291 14.4958 123.565 15.523L127.498 15.523C127.324 14.0502 126.668 12.8621 125.532 11.9586C124.408 11.0428 123.084 10.5848 121.561 10.5848C119.563 10.5848 117.928 11.2346 116.654 12.5341C115.393 13.8213 114.762 15.4797 114.762 17.5094C114.762 19.5639 115.349 21.2285 116.523 22.5033C117.697 23.7781 119.226 24.4155 121.112 24.4155C122.747 24.4155 124.033 23.8647 124.97 22.7632L125.101 24.1184L127.704 24.1184ZM109.054 10.9004L112.987 10.9004L112.987 24.1184L109.073 24.1184L105.758 18.4934C105.445 17.9612 105.108 17.299 104.746 16.5069C104.834 17.299 104.877 18.3077 104.877 19.533L104.896 24.1184L100.944 24.1184L100.944 10.9004L104.99 10.9004L107.874 15.8572C108.461 16.8473 108.898 17.6765 109.185 18.3448C109.11 17.3424 109.073 16.3275 109.073 15.3002L109.054 10.9004ZM94.7071 24.1184L98.7901 24.1184L98.7901 10.9004L94.7071 10.9004L94.7071 24.1184ZM93.1345 10.9004L93.1345 14.2978L89.3886 14.2978L89.3886 24.1184L85.3056 24.1184L85.3056 14.2978L81.5785 14.2978L81.5785 10.9004L93.1345 10.9004ZM82.5651 24.1184L77.6581 10.9004L73.6125 10.9004L68.6867 24.1184L72.8259 24.1184L73.4814 22.2434L77.7704 22.2434L78.426 24.1184L82.5651 24.1184ZM76.1597 17.1381L76.8714 19.403L74.3617 19.403C74.6614 18.5119 74.9049 17.7631 75.0921 17.1567C75.2669 16.5998 75.4542 15.9253 75.654 15.1332C75.8288 15.9376 75.9974 16.606 76.1597 17.1381ZM56.0592 10.9004L63.2325 10.9004C63.7944 10.9004 64.3376 10.9623 64.862 11.0861C65.3864 11.2098 65.8921 11.414 66.3791 11.6987C66.866 11.971 67.2531 12.3732 67.5403 12.9054C67.8399 13.4376 67.9898 14.0688 67.9898 14.799C67.9898 15.5168 67.8087 16.1666 67.4466 16.7483C67.097 17.33 66.6225 17.757 66.0232 18.0292C66.6225 18.1778 67.0783 18.5738 67.3905 19.2174C67.7026 19.8609 67.8961 20.554 67.9711 21.2966L68.1022 22.689C68.1646 23.3944 68.277 23.8709 68.4393 24.1184L64.3938 24.1184C64.2814 23.8833 64.2002 23.4687 64.1503 22.8746L64.0941 22.132C64.0566 21.6865 64.0067 21.3276 63.9442 21.0553C63.8943 20.783 63.7944 20.5107 63.6446 20.2384C63.4947 19.9661 63.27 19.7681 62.9703 19.6444C62.6707 19.5206 62.2898 19.4587 61.8278 19.4587L60.1047 19.4587L60.1047 24.1184L56.0592 24.1184L56.0592 10.9004ZM60.1047 13.9636L60.1047 16.674L62.3523 16.674C63.4635 16.674 64.0192 16.2161 64.0192 15.3002C64.0192 14.4091 63.3886 13.9636 62.1275 13.9636L60.1047 13.9636ZM53.8803 24.1184L53.8803 10.9004L48.1304 10.9004L47.3063 14.2421C46.7445 16.5812 46.3699 18.283 46.1826 19.3473C45.9453 17.8498 45.602 16.179 45.1525 14.3349L44.2909 10.9004L38.4286 10.9004L38.4286 24.1184L42.2681 24.1184L42.2494 21.5751C42.2369 18.9389 42.187 16.6183 42.0996 14.6134L44.628 24.1184L47.6809 24.1184L50.1906 14.6134C50.0908 17.2867 50.0408 19.7929 50.0408 22.132L50.0408 24.1184L53.8803 24.1184ZM36.2729 10.9004L36.2729 14.1121L29.2494 14.1121L29.2494 15.7644L35.6173 15.7644L35.6173 18.8275L29.2494 18.8275L29.2494 20.7582L36.4602 20.7582L36.4602 24.1184L25.2226 24.1184L25.2226 10.9004L36.2729 10.9004ZM11.3027 10.9004L18.4761 10.9004C19.0379 10.9004 19.5811 10.9623 20.1055 11.0861C20.6299 11.2098 21.1356 11.414 21.6226 11.6987C22.1096 11.971 22.4966 12.3732 22.7838 12.9054C23.0835 13.4376 23.2333 14.0688 23.2333 14.799C23.2333 15.5168 23.0523 16.1666 22.6902 16.7483C22.3406 17.33 21.8661 17.757 21.2667 18.0292C21.8661 18.1778 22.3218 18.5738 22.634 19.2174C22.9461 19.8609 23.1397 20.554 23.2146 21.2966L23.3457 22.689C23.4081 23.3944 23.5205 23.8709 23.6828 24.1184L19.6373 24.1184C19.5249 23.8833 19.4437 23.4687 19.3938 22.8746L19.3376 22.132C19.3002 21.6865 19.2502 21.3276 19.1878 21.0553C19.1378 20.783 19.0379 20.5107 18.8881 20.2384C18.7383 19.9661 18.5135 19.7681 18.2139 19.6444C17.9142 19.5206 17.5334 19.4587 17.0714 19.4587L15.3483 19.4587L15.3483 24.1184L11.3027 24.1184L11.3027 10.9004ZM15.3483 13.9636L15.3483 16.674L17.5958 16.674C18.7071 16.674 19.2627 16.2161 19.2627 15.3002C19.2627 14.4091 18.6321 13.9636 17.371 13.9636L15.3483 13.9636Z" fill="#E9D47B"/>
<path d="M11.3027 10.9006L18.4761 10.9006C19.0379 10.9006 19.5811 10.9624 20.1055 11.0862C20.6299 11.21 21.1356 11.4142 21.6226 11.6988C22.1095 11.9711 22.4966 12.3734 22.7838 12.9055C23.0835 13.4377 23.2333 14.0689 23.2333 14.7991C23.2333 15.517 23.0523 16.1667 22.6902 16.7484C22.3405 17.3301 21.8661 17.7571 21.2667 18.0294C21.8661 18.1779 22.3218 18.5739 22.634 19.2175C22.9461 19.8611 23.1397 20.5542 23.2146 21.2967L23.3457 22.6891C23.4081 23.3945 23.5205 23.871 23.6828 24.1186L19.6373 24.1186C19.5249 23.8834 19.4437 23.4688 19.3938 22.8747L19.3376 22.1322C19.3002 21.6866 19.2502 21.3277 19.1878 21.0554C19.1378 20.7831 19.0379 20.5108 18.8881 20.2386C18.7383 19.9663 18.5135 19.7683 18.2139 19.6445C17.9142 19.5207 17.5334 19.4588 17.0714 19.4588L15.3483 19.4588L15.3483 24.1186L11.3027 24.1186L11.3027 10.9006ZM15.3483 13.9637L15.3483 16.6742L17.5958 16.6742C18.7071 16.6742 19.2627 16.2162 19.2627 15.3004C19.2627 14.4093 18.6321 13.9637 17.371 13.9637L15.3483 13.9637Z" fill="black"/>
<path d="M36.2729 10.9006L36.2729 14.1122L29.2494 14.1122L29.2494 15.7645L35.6173 15.7645L35.6173 18.8277L29.2494 18.8277L29.2494 20.7584L36.4602 20.7584L36.4602 24.1186L25.2226 24.1186L25.2226 10.9006L36.2729 10.9006Z" fill="black"/>
<path d="M53.8803 10.9006L53.8803 24.1186L50.0408 24.1186L50.0408 22.1322C50.0408 19.793 50.0907 17.2868 50.1906 14.6135L47.6809 24.1186L44.628 24.1186L42.0996 14.6135C42.187 16.6185 42.2369 18.939 42.2494 21.5752L42.2681 24.1186L38.4286 24.1186L38.4286 10.9006L44.2909 10.9006L45.1525 14.335C45.602 16.1791 45.9453 17.8499 46.1826 19.3475C46.3699 18.2831 46.7444 16.5813 47.3063 14.2422L48.1304 10.9006L53.8803 10.9006Z" fill="black"/>
<path d="M56.0592 10.9006L63.2325 10.9006C63.7944 10.9006 64.3376 10.9624 64.862 11.0862C65.3864 11.21 65.8921 11.4142 66.3791 11.6988C66.866 11.9711 67.2531 12.3734 67.5403 12.9055C67.8399 13.4377 67.9898 14.0689 67.9898 14.7991C67.9898 15.517 67.8087 16.1667 67.4466 16.7484C67.097 17.3301 66.6225 17.7571 66.0232 18.0294C66.6225 18.1779 67.0783 18.5739 67.3904 19.2175C67.7026 19.8611 67.8961 20.5542 67.971 21.2967L68.1022 22.6891C68.1646 23.3945 68.277 23.871 68.4393 24.1186L64.3937 24.1186C64.2814 23.8834 64.2002 23.4688 64.1503 22.8747L64.0941 22.1322C64.0566 21.6866 64.0067 21.3277 63.9442 21.0554C63.8943 20.7831 63.7944 20.5108 63.6446 20.2386C63.4947 19.9663 63.27 19.7683 62.9703 19.6445C62.6706 19.5207 62.2898 19.4588 61.8278 19.4588L60.1047 19.4588L60.1047 24.1186L56.0592 24.1186L56.0592 10.9006ZM60.1047 13.9637L60.1047 16.6742L62.3522 16.6742C63.4635 16.6742 64.0192 16.2162 64.0192 15.3004C64.0192 14.4093 63.3886 13.9637 62.1275 13.9637L60.1047 13.9637Z" fill="black"/>
<path d="M77.6581 10.9006L82.5651 24.1186L78.426 24.1186L77.7704 22.2435L73.4814 22.2435L72.8259 24.1186L68.6867 24.1186L73.6125 10.9006L77.6581 10.9006ZM76.8714 19.4032L76.1597 17.1383C75.9974 16.6061 75.8288 15.9378 75.654 15.1333C75.4542 15.9254 75.2669 16.5999 75.0921 17.1568C74.9048 17.7633 74.6614 18.5121 74.3617 19.4032L76.8714 19.4032Z" fill="black"/>
<path d="M93.1345 10.9006L93.1345 14.2979L89.3886 14.2979L89.3886 24.1186L85.3056 24.1186L85.3056 14.2979L81.5785 14.2979L81.5785 10.9006L93.1345 10.9006Z" fill="black"/>
<path d="M98.7901 10.9006L98.7901 24.1186L94.7071 24.1186L94.7071 10.9006L98.7901 10.9006Z" fill="black"/>
<path d="M112.987 10.9006L112.987 24.1186L109.073 24.1186L105.758 18.4935C105.445 17.9613 105.108 17.2992 104.746 16.5071C104.834 17.2992 104.877 18.3078 104.877 19.5331L104.896 24.1186L100.944 24.1186L100.944 10.9006L104.99 10.9006L107.874 15.8573C108.461 16.8474 108.898 17.6766 109.185 18.345C109.11 17.3425 109.073 16.3276 109.073 15.3004L109.054 10.9006L112.987 10.9006Z" fill="black"/>
<path d="M127.704 16.8412L127.704 24.1186L125.101 24.1186L124.97 22.7634C124.033 23.8649 122.747 24.4156 121.112 24.4156C119.226 24.4156 117.697 23.7782 116.523 22.5034C115.349 21.2287 114.762 19.564 114.762 17.5096C114.762 15.4798 115.393 13.8214 116.654 12.5342C117.928 11.2347 119.563 10.585 121.561 10.585C123.084 10.585 124.408 11.0429 125.532 11.9587C126.668 12.8622 127.324 14.0504 127.498 15.5231L123.565 15.5231C123.291 14.4959 122.598 13.9823 121.486 13.9823C119.751 13.9823 118.883 15.2261 118.883 17.7138C118.883 18.8648 119.12 19.7373 119.595 20.3314C120.069 20.9255 120.768 21.2225 121.692 21.2225C122.941 21.2225 123.703 20.7089 123.977 19.6816L122.217 19.6816L122.217 16.8412L127.704 16.8412Z" fill="black"/>
</svg>
