<svg width="158" height="35" viewBox="0 0 158 35" fill="none" xmlns="http://www.w3.org/2000/svg">
<path fill-rule="evenodd" clip-rule="evenodd" d="M28.5019 10.635C28.6931 11.5896 28.9168 12.3238 29.1788 12.8401C29.4374 13.3488 29.8783 13.6038 30.4987 13.6038L28.8536 17.6455C28.2057 19.2261 27.519 21.6271 26.7757 24.8316C26.0444 28.0496 25.8119 30.3365 26.081 31.7067C26.3463 33.0592 26.97 33.9434 27.9423 34.3676C28.9103 34.7814 29.8391 34.9918 30.7376 34.9918C32.1071 34.9918 33.6847 34.8379 35.4686 34.5132C37.2474 34.1969 38.5881 33.8654 39.4903 33.5218C39.9138 33.3638 40.1774 33.1099 40.3051 32.7758C40.4219 32.4454 40.3794 31.7561 40.1746 30.7135C40.0648 30.1615 39.8209 29.8853 39.4225 29.8853C38.8741 29.8853 38.244 30.0075 37.5404 30.2555C36.8342 30.4969 36.1189 30.694 35.3957 30.8381C34.6695 30.9943 33.5261 31.0658 31.9609 31.0658C31.5635 31.0658 31.3 31.0192 31.1668 30.9252C31.0375 30.8381 30.9472 30.6737 30.8998 30.4379C30.7748 29.8047 30.8998 28.7013 31.2705 27.1192C31.6341 25.5327 32.0096 24.2271 32.3823 23.19L35.5661 23.1097C36.917 23.0767 37.8172 23.0401 38.273 22.9847C38.7293 22.9326 39.0201 22.8209 39.1425 22.6499C39.2642 22.4716 39.3084 22.1547 39.26 21.6915C39.2241 21.2623 39.2193 20.9446 39.2352 20.7338C39.2401 20.6806 39.2518 20.6052 39.2702 20.5183C39.2854 20.4156 39.2928 20.332 39.2778 20.2568C39.1581 19.6527 38.357 19.3475 36.8793 19.3475C35.7369 19.3475 34.4729 19.4259 33.0831 19.5923C33.4733 18.2987 34.0236 16.7517 34.7375 14.9533C35.0856 14.0473 35.371 13.442 35.5856 13.1285C35.7993 12.8104 36.101 12.6191 36.4914 12.5353C36.8821 12.4545 37.6335 12.4163 38.7583 12.4163C39.0652 12.4163 40.0559 12.4822 41.7426 12.6191C41.8046 12.6191 41.9209 12.6288 42.0928 12.6412C42.2593 12.6542 42.3886 12.6611 42.4657 12.6611C42.9581 12.6611 43.1703 12.5025 43.1056 12.1808C43.0625 11.9665 42.8518 11.5439 42.4733 10.9192C41.7987 9.7985 41.2313 9.09145 40.759 8.78519C40.2876 8.48005 39.6078 8.32812 38.7215 8.32812C36.7526 8.32812 34.5134 8.48005 32.0031 8.78519C29.4861 9.09164 28.3215 9.70397 28.5019 10.635Z" fill="#ED1C24"/>
<path fill-rule="evenodd" clip-rule="evenodd" d="M122.213 32.56C122.631 31.9167 122.981 31.4141 123.258 31.0557C123.548 30.6868 124.099 29.99 124.897 28.9575C125.7 27.9295 126.492 26.914 127.274 25.9237C128.049 24.9344 128.795 24.0141 129.496 23.1531C130.209 22.2975 130.997 21.3675 131.868 20.3665L130.813 24.9689C130.432 26.6947 130.185 27.8411 130.076 28.4065C129.974 28.97 129.901 29.545 129.862 30.1231C129.823 30.7091 129.845 31.2271 129.934 31.6817C130.048 32.2675 130.378 32.8113 130.905 33.3046C131.438 33.8081 132.014 34.2028 132.646 34.5021C133.28 34.801 133.761 34.9497 134.099 34.9497C134.553 34.9497 134.845 34.569 134.962 33.8008C135.076 33.0347 135.212 31.4449 135.354 29.0305C135.509 26.6246 135.753 24.2711 136.099 21.9804C136.441 19.6847 137.01 17.3033 137.814 14.8369C139.5 13.3862 140.273 12.3122 140.137 11.6081C140.048 11.1586 139.748 10.6141 139.241 9.97056C138.727 9.32833 138.231 9.00777 137.751 9.00777C137.293 9.00777 136.367 9.68195 134.962 11.0361C133.555 12.3926 132.009 14.0069 130.312 15.8889C128.624 17.7741 127.076 19.5441 125.668 21.2082C124.257 22.8647 123.405 23.911 123.096 24.3287C123.579 22.0605 124.013 20.1958 124.397 18.7408C124.79 17.2898 125.196 15.887 125.612 14.5197C126.033 13.1563 126.29 12.2656 126.401 11.8482C126.503 11.4272 126.529 11.0862 126.479 10.8271C126.437 10.6139 126.186 10.2973 125.739 9.87937C125.294 9.45982 124.809 9.08094 124.29 8.74051C123.776 8.40119 123.416 8.22754 123.208 8.22754C122.843 8.22754 122.512 8.58004 122.212 9.27818C121.911 9.97818 121.592 11.0099 121.274 12.3735C120.949 13.7315 120.776 14.4437 120.761 14.5015C119.019 21.1317 117.94 25.5957 117.517 27.8892C117.097 30.1801 116.925 31.5408 117.009 31.9848C117.078 32.3076 117.517 32.7686 118.346 33.3443C119.164 33.9193 119.838 34.2078 120.367 34.2078C120.711 34.2078 120.997 34.0961 121.232 33.8684C121.461 33.6407 121.787 33.2063 122.213 32.56Z" fill="#ED1C24"/>
<path fill-rule="evenodd" clip-rule="evenodd" d="M157.239 11.2023C156.785 10.8002 156.308 10.4308 155.796 10.0963C155.283 9.76125 154.965 9.59391 154.833 9.59391C154.425 9.59391 153.943 10.2259 153.397 11.4731C152.852 12.7276 152.35 14.0825 151.903 15.5419C151.45 17.0019 151.134 18.067 150.968 18.7237L149.709 19.0969C149.301 19.2354 148.705 19.3667 147.926 19.5129C147.156 19.6604 146.593 19.7335 146.254 19.7335C145.768 19.7335 145.467 19.4291 145.352 18.8396C145.278 18.4591 145.385 17.7472 145.657 16.7046C145.939 15.6567 146.236 14.7381 146.544 13.9393C146.79 13.3689 146.998 12.8699 147.189 12.4699C147.366 12.0596 147.498 11.7463 147.568 11.5184C147.643 11.2911 147.661 11.078 147.625 10.8975C147.59 10.7194 147.364 10.4078 146.936 9.96573C146.518 9.52798 146.071 9.12292 145.594 8.76484C145.122 8.40843 144.783 8.22754 144.583 8.22754C144.244 8.22754 143.724 9.00777 143.021 10.5597C142.312 12.1114 141.706 13.7866 141.207 15.5976C140.698 17.4008 140.534 18.7106 140.689 19.5056C140.856 20.3613 141.355 21.2663 142.179 22.2406C143.01 23.214 143.816 23.6997 144.597 23.6997C145.017 23.6997 145.894 23.5219 147.236 23.172C148.572 22.8262 149.593 22.5307 150.306 22.2904C150.181 22.6994 149.945 23.6783 149.601 25.2117C149.252 26.7456 148.959 28.1871 148.727 29.5268C148.488 30.8692 148.408 31.748 148.488 32.1557C148.605 32.7487 149.151 33.2663 150.117 33.715C150.606 33.9433 151.079 34.2059 151.524 34.4999C151.979 34.788 152.266 34.9367 152.393 34.9367C152.771 34.9367 153.042 34.6782 153.186 34.1693C153.329 33.6473 153.435 32.8176 153.506 31.6804C153.573 30.5408 153.611 29.9255 153.623 29.8154C153.943 27.2524 154.238 25.2302 154.498 23.7415C154.76 22.2559 155.05 20.9601 155.377 19.8381C155.702 18.7237 156.202 17.1993 156.87 15.2774C157.101 14.5964 157.36 13.9467 157.625 13.334C157.896 12.7275 158.018 12.3588 157.997 12.2327C157.939 11.9571 157.687 11.6107 157.239 11.2023Z" fill="#ED1C24"/>
<path fill-rule="evenodd" clip-rule="evenodd" d="M26.7964 6.29147C26.8221 6.23186 26.8497 6.1455 26.8728 6.10315C27.4339 4.50276 28.3198 5.59631 28.8028 5.51292C29.5642 5.27649 29.9999 4.59581 30.1605 3.63357C30.2597 3.05746 30.3182 1.87514 30.0105 1.38353C29.8253 1.08674 29.1722 0.590111 28.0231 0.369285C25.4927 -0.12177 21.027 -0.11527 17.1641 0.342169C14.2947 0.688917 10.5313 1.50406 5.53672 3.34719C3.8298 3.97716 1.16119 4.31481 0.370804 6.36576C-0.269454 8.02205 -0.0264308 8.91446 0.686289 9.33401C2.25721 10.2558 6.11214 8.8866 7.8538 8.33389C7.90192 8.3727 7.95283 8.41152 8.02585 8.46816C7.38671 12.0818 5.97465 16.4268 5.54285 20.4273C4.65697 23.0393 2.95079 29.5215 4.37474 32.0854C7.31276 33.8739 9.10571 28.8035 8.88386 28.6326C9.6278 26.3991 11.9568 16.6142 12.2321 13.9671C12.2979 13.3007 12.354 12.7662 12.4571 12.0747C12.6557 10.7303 12.6805 9.39251 12.9073 8.1294C12.9696 7.77727 13.1717 7.48642 13.4602 7.25148C14.7391 6.20326 17.7397 6.18747 18.2505 6.18747C18.6479 6.09126 19.7536 5.92207 20.6346 5.63977C21.0239 5.51645 21.0272 6.07882 20.9219 6.7309C20.8163 7.37871 20.6049 8.11696 20.5572 8.34559C20.4459 8.88846 20.3377 9.35333 20.2095 9.92573C20.0494 10.6428 19.7181 12.1059 18.9587 15.3708C17.2384 23.2503 15.9083 30.2588 17.3728 34.0626C17.7247 34.5773 18.9175 35.1274 19.2625 34.9738C20.1454 34.8106 20.7803 34.4263 21.2387 33.9046C22.0406 32.9921 22.2908 31.6545 22.3577 30.3331C22.4785 27.9131 22.8207 24.207 23.3742 20.5499C23.7415 18.1229 24.902 12.722 25.8533 9.20827C26.2154 7.87403 26.5599 6.83008 26.7964 6.29147Z" fill="#ED1C24"/>
<path fill-rule="evenodd" clip-rule="evenodd" d="M50.54 34.9923C50.8622 34.9923 51.0772 34.7499 51.181 34.267C51.278 33.7843 51.5021 32.3693 51.8436 30.0282C52.1862 27.695 52.6516 25.181 53.2415 22.4821C53.8311 19.7887 54.6911 16.5961 55.8289 12.895C56.2598 12.7765 57.0775 12.6912 58.2698 12.6251C59.4633 12.5627 60.3435 12.4474 60.9096 12.2843C61.4731 12.111 61.6983 11.7535 61.5874 11.2053C61.513 10.8169 61.2851 10.3803 60.9057 9.91949C60.5248 9.45035 60.0077 9.05197 59.3463 8.72565C58.691 8.39283 57.9521 8.22754 57.1355 8.22754C56.9235 8.22754 56.5987 8.25224 56.1637 8.30499C55.6825 8.3568 54.9466 8.40676 53.9635 8.46378C52.9697 8.51485 52.2312 8.5663 51.7419 8.60994C48.9316 8.82093 46.9631 9.05624 45.8252 9.31793C44.6904 9.57423 44.1791 10.0125 44.3008 10.6355C44.6686 12.4996 45.4408 13.4284 46.6297 13.4284C46.8148 13.4284 48.1399 13.3257 50.6028 13.1216C50.3137 14.2207 49.9005 15.8562 49.3613 18.0379C48.8301 20.2279 48.3517 22.2683 47.9322 24.167C47.5 26.0636 47.1472 27.8257 46.8631 29.4469C46.5703 31.0763 46.4729 32.105 46.5597 32.5452C46.6426 32.9617 46.9434 33.349 47.4653 33.7331C47.9914 34.1054 48.5676 34.4082 49.2021 34.6424C49.8381 34.8771 50.2885 34.9923 50.54 34.9923Z" fill="#ED1C24"/>
<path fill-rule="evenodd" clip-rule="evenodd" d="M92.6856 21.0356C92.383 22.8089 91.8828 24.4584 91.1939 26.008C90.496 27.5577 89.7322 28.8006 88.9004 29.7424C88.065 30.6905 87.307 31.165 86.6292 31.165C86.3403 31.165 86.0352 30.9531 85.7063 30.5254C85.3832 30.0982 85.1471 29.5177 84.9996 28.7909C84.6629 27.0672 84.6434 25.2583 84.9429 23.3953C85.2404 21.525 85.7348 19.8162 86.4192 18.2516C87.1119 16.6986 87.8716 15.4427 88.6997 14.4855C89.5286 13.529 90.2554 13.0527 90.8871 13.0527C91.6846 13.0527 92.2813 14.0702 92.6853 16.1108C92.9825 17.628 92.9831 19.2692 92.6856 21.0356ZM96.3128 12.996C95.8659 11.981 95.4083 11.2002 94.9568 10.6514C94.5039 10.1097 94.1516 9.83535 93.9214 9.83535C93.7895 9.83535 93.5104 9.94103 93.0935 10.165C92.6762 10.3805 92.3733 10.5534 92.2003 10.675C91.6938 10.0831 91.101 9.52742 90.4215 9.00442C89.7487 8.48495 89.1965 8.22754 88.7861 8.22754C88.1546 8.22754 87.247 8.7758 86.0802 9.87751C84.9135 10.9802 83.7895 12.4676 82.702 14.3291C81.6192 16.2009 80.8193 18.3419 80.3004 20.7598C79.7785 23.1813 79.7723 25.6596 80.2725 28.1871C80.5666 29.6982 81.1285 30.9669 81.9382 31.9926C82.7505 33.021 83.6555 33.7728 84.6436 34.2579C85.632 34.7499 86.5424 34.9925 87.3731 34.9925C89.3301 34.9925 91.2108 34.1168 93.0138 32.3689C94.8115 30.6157 96.14 28.304 96.996 25.4392C97.8536 22.5809 97.9853 19.6084 97.3794 16.535C97.1152 15.1974 96.762 14.0149 96.3128 12.996ZM111.816 16.0859C111.247 16.8463 110.474 17.5526 109.491 18.2115C108.513 18.8779 107.486 19.3994 106.409 19.7731C106.996 16.5175 107.224 14.529 107.084 13.8164C107.005 13.4161 106.735 13.0213 106.281 12.6312C107.201 12.3497 108.228 12.2119 109.363 12.2119C110.26 12.2119 110.98 12.3792 111.524 12.7336C112.06 13.0822 112.378 13.5177 112.48 14.0405C112.602 14.6516 112.378 15.333 111.816 16.0859ZM109.89 27.281C109.266 28.1559 108.385 28.874 107.253 29.4339C106.117 30.0052 104.928 30.2819 103.689 30.2819C104.215 28.5023 104.622 27.1291 104.918 26.1804C105.204 25.2239 105.458 24.2841 105.661 23.3295C106.44 23.1015 107.157 22.985 107.815 22.985C109.436 22.985 110.358 23.5648 110.584 24.7015C110.747 25.5417 110.519 26.4046 109.89 27.281ZM115.781 18.1283C116.646 16.7701 116.938 15.3519 116.646 13.8866C116.321 12.2158 115.368 10.8587 113.787 9.80861C112.217 8.75704 110.28 8.22772 107.996 8.22772C107.001 8.22772 105.639 8.38113 103.926 8.68646C102.281 8.97081 101.062 9.25942 100.259 9.54637C99.4643 9.83554 99.1265 10.288 99.2523 10.9094C99.3807 11.5637 99.7002 12.2158 100.219 12.8751C100.733 13.5274 101.415 13.9269 102.27 14.079C101.918 17.1265 101.497 19.7172 100.987 21.8567C100.477 24.0004 99.9942 25.6702 99.5304 26.875C99.0687 28.0709 98.6847 29.1128 98.3787 29.9848C98.0697 30.8523 97.9764 31.6035 98.1029 32.2404C98.1377 32.4181 98.397 32.7368 98.8833 33.1898C99.3699 33.6354 99.8916 34.051 100.445 34.4267C101 34.7993 101.399 34.9926 101.65 34.9926C102.019 34.9926 102.296 34.8268 102.488 34.4982C102.685 34.1643 102.897 33.5694 103.123 32.6943C104.45 34.2323 105.737 34.9926 106.994 34.9926C108.187 34.9926 109.484 34.4364 110.877 33.305C112.266 32.1746 113.387 30.8231 114.231 29.259C115.074 27.684 115.379 26.2929 115.14 25.092C115.015 24.4554 114.715 23.7873 114.242 23.1015C113.771 22.4081 113.096 21.8038 112.217 21.2704C113.723 20.5245 114.91 19.4841 115.781 18.1283ZM74.0273 16.9835C73.2897 17.9457 72.322 18.851 71.1335 19.706C69.9316 20.5526 68.8121 21.1426 67.759 21.4587C67.898 20.3617 68.1797 18.796 68.6105 16.7525C68.8643 15.5367 69.0609 14.7294 69.2038 14.3223C69.3324 13.9103 69.5514 13.6225 69.8407 13.4549C70.1363 13.2831 70.6367 13.1745 71.3544 13.1227C71.5406 13.0991 71.8261 13.0824 72.2089 13.0824C73.8357 13.0824 74.7411 13.5692 74.934 14.5459C75.0681 15.2134 74.7651 16.0294 74.0273 16.9835ZM78.1533 11.4122C77.3668 10.4999 76.3078 9.73748 74.9498 9.13183C73.6046 8.52656 72.0629 8.22772 70.3206 8.22772C69.3235 8.22772 68.2746 8.33582 67.166 8.55237C66.0542 8.76131 65.1302 9.0828 64.3868 9.49789C63.6423 9.918 63.3218 10.3955 63.4277 10.9454C63.7657 12.642 64.3835 13.7029 65.2955 14.1143C64.4515 17.6698 63.7737 20.42 63.2782 22.3602C62.7841 24.3057 62.2676 26.2616 61.7386 28.246C61.2067 30.2188 60.896 31.4555 60.8022 31.9336C60.7171 32.4176 60.6978 32.8165 60.7563 33.1215C60.8494 33.5889 61.0462 33.8941 61.357 34.0421C61.6582 34.1914 62.1704 34.3411 62.8798 34.4977C63.2388 34.5801 63.6243 34.6817 64.0197 34.808C64.413 34.9289 64.6861 34.9921 64.8361 34.9921C65.2742 34.9921 65.6047 34.7495 65.8175 34.2733C66.0228 33.7968 66.1998 33.0626 66.3444 32.0816C66.4854 31.0978 66.6717 29.7784 66.912 28.1298C67.1509 26.4861 67.4686 24.8857 67.8464 23.329C69.0005 25.0384 69.9516 25.8923 70.6985 25.8923C71.5787 25.8923 72.8001 25.16 74.3483 23.6939C75.9031 22.2276 77.2223 20.563 78.3094 18.6974C79.3954 16.8321 79.8268 15.3218 79.5936 14.1516C79.4202 13.2477 78.9361 12.3335 78.1533 11.4122Z" fill="#ED1C24"/>
</svg>
