<svg width="157" height="29" viewBox="0 0 157 29" fill="none" xmlns="http://www.w3.org/2000/svg">
<path d="M6.84594 15.9298L3.65117 4.64266H3.55989C3.74245 6.55419 3.83373 8.10163 3.83373 9.10291V15.9298H0V0.273438H5.65931L8.94536 11.4696H9.03664L12.2314 0.273438H17.8907V16.0208H13.9657V9.10291C13.9657 8.7388 13.9657 8.3747 13.9657 7.91957C13.9657 7.46445 14.057 6.37214 14.1483 4.73368H14.057L10.8622 16.0208H6.84594V15.9298Z" fill="#009191"/>
<path d="M31.7663 15.93L30.9448 13.0172H25.8332L25.0117 15.93H20.3564L25.4681 0.182617H31.1274L36.3303 16.021H31.7663V15.93ZM30.032 9.55824L29.3931 6.9185C29.2105 6.37235 29.028 5.64415 28.8454 4.73389C28.6629 3.82364 28.4803 3.18646 28.389 2.73133C28.2977 3.09543 28.2065 3.73261 28.0239 4.55184C27.8413 5.37107 27.3849 7.00953 26.746 9.46721H30.032V9.55824Z" fill="#009191"/>
<path d="M49.1092 11.1967C49.1092 12.198 48.8354 13.0172 48.379 13.8364C47.9226 14.5646 47.1924 15.2018 46.1883 15.5659C45.2755 16.021 44.1802 16.2031 42.9023 16.2031C41.8069 16.2031 40.9854 16.1121 40.2552 16.021C39.5249 15.839 38.7947 15.6569 38.0645 15.2928V11.4698C38.886 11.9249 39.7075 12.198 40.6203 12.4711C41.5331 12.7441 42.2633 12.8352 42.9935 12.8352C43.6325 12.8352 44.0889 12.7441 44.3627 12.4711C44.6366 12.289 44.8191 12.0159 44.8191 11.6518C44.8191 11.4698 44.7278 11.2877 44.6366 11.1057C44.5453 10.9236 44.3627 10.7416 44.0889 10.6505C43.815 10.4685 43.0848 10.1044 41.9895 9.64927C40.9854 9.19414 40.1639 8.73901 39.7075 8.28388C39.1598 7.82876 38.7947 7.37363 38.5208 6.73645C38.247 6.1903 38.1557 5.46209 38.1557 4.73389C38.1557 3.27748 38.7034 2.18518 39.7075 1.36595C40.8028 0.546719 42.2633 0.182617 44.0889 0.182617C45.7319 0.182617 47.3749 0.546719 49.1092 1.27492L47.8313 4.55184C46.3709 3.91466 45.093 3.55056 43.9976 3.55056C43.4499 3.55056 43.0848 3.64159 42.811 3.82364C42.5371 4.00569 42.4459 4.27876 42.4459 4.55184C42.4459 4.82492 42.6284 5.09799 42.9023 5.37107C43.1761 5.46209 43.9976 5.91722 45.4581 6.5544C46.8273 7.19158 47.7401 7.82876 48.2877 8.55696C48.8354 9.28516 49.1092 10.1044 49.1092 11.1967Z" fill="#009191"/>
<path d="M59.1473 15.9298H54.8572V3.73241H51.0234V0.273438H62.981V3.73241H59.1473V15.9298Z" fill="#009191"/>
<path d="M75.2148 15.9298H65.9043V0.273438H75.3061V3.64138H70.1944V6.09907H74.9409V9.46701H70.1944V12.4708H75.3061V15.9298H75.2148Z" fill="#009191"/>
<path d="M82.9718 10.2862V16.0208H78.6816V0.273438H83.8846C88.1747 0.273438 90.2741 1.82087 90.2741 4.91574C90.2741 6.73624 89.3613 8.19265 87.627 9.10291L92.191 15.9298H87.3532L83.9758 10.1952H82.9718V10.2862ZM82.9718 7.00932H83.7933C85.2537 7.00932 85.984 6.37214 85.984 5.00676C85.984 3.91446 85.2537 3.3683 83.7933 3.3683H82.9718V7.00932Z" fill="#009191"/>
<path d="M100.589 6.73588H107.435V15.2013C105.609 15.8384 103.51 16.1115 101.319 16.1115C98.8543 16.1115 97.0287 15.3833 95.6595 14.0179C94.2903 12.6525 93.6514 10.65 93.6514 8.01024C93.6514 5.46153 94.3816 3.45897 95.8421 2.09359C97.3025 0.637178 99.3107 0 101.958 0C102.962 0 103.875 0.0910255 104.787 0.273076C105.7 0.455127 106.43 0.728204 107.069 1.00128L105.7 4.36922C104.605 3.82307 103.327 3.54999 101.958 3.54999C100.68 3.54999 99.7671 3.91409 99.0368 4.73332C98.3979 5.55255 98.0328 6.73588 98.0328 8.19229C98.0328 9.6487 98.3066 10.741 98.9456 11.5602C99.5845 12.2884 100.406 12.7436 101.593 12.7436C102.232 12.7436 102.779 12.6525 103.327 12.5615V10.1038H100.589V6.73588Z" fill="#009191"/>
<path d="M115.561 10.2862V16.0208H111.271V0.273438H116.473C120.764 0.273438 122.863 1.82087 122.863 4.91574C122.863 6.73624 121.95 8.19265 120.216 9.10291L124.78 15.9298H119.942L116.565 10.1952H115.561V10.2862ZM115.561 7.00932H116.382C117.843 7.00932 118.573 6.37214 118.573 5.00676C118.573 3.91446 117.843 3.3683 116.382 3.3683H115.561V7.00932Z" fill="#009191"/>
<path d="M136.647 15.93L135.826 13.0172H130.714L129.893 15.93H125.237L130.349 0.182617H136.008L141.211 16.021H136.647V15.93ZM134.913 9.55824L134.274 7.00953C134.091 6.46337 133.909 5.73517 133.726 4.82492C133.544 3.91466 133.361 3.27748 133.27 2.82236C133.179 3.18646 133.087 3.82364 132.905 4.64287C132.722 5.46209 132.266 7.10055 131.627 9.55824H134.913Z" fill="#009191"/>
<path d="M157 7.73753C157 10.3773 156.27 12.3798 154.809 13.8362C153.349 15.2926 151.341 15.9298 148.694 15.9298H143.582V0.273438H149.059C151.615 0.273438 153.531 0.910616 154.901 2.18497C156.361 3.45933 157 5.37086 157 7.73753ZM152.619 7.91958C152.619 6.46317 152.345 5.37086 151.797 4.73369C151.249 4.00548 150.337 3.73241 149.15 3.73241H147.872V12.5619H148.785C150.063 12.5619 151.067 12.1978 151.615 11.4696C152.254 10.6503 152.619 9.46701 152.619 7.91958Z" fill="#009191"/>
<path d="M3.74245 20.5713V21.5726H1.27791V26.3969H0V20.5713H3.74245Z" fill="#009191"/>
<path d="M10.6799 23.4841C10.6799 24.4854 10.406 25.2136 9.94965 25.6687C9.49325 26.1238 8.76301 26.3969 7.9415 26.3969C7.02871 26.3969 6.38975 26.1238 5.93336 25.6687C5.47696 25.2136 5.20312 24.3944 5.20312 23.4841C5.20312 22.4828 5.47696 21.7546 5.93336 21.2995C6.38975 20.7533 7.11999 20.5713 8.03278 20.5713C8.94557 20.5713 9.58453 20.8444 10.0409 21.2995C10.406 21.7546 10.6799 22.4828 10.6799 23.4841ZM6.38975 23.4841C6.38975 24.1213 6.48103 24.5764 6.75487 24.9405C7.02871 25.3046 7.39382 25.3956 7.85022 25.3956C8.85429 25.3956 9.31069 24.7585 9.31069 23.4841C9.31069 22.2097 8.85429 21.4815 7.85022 21.4815C7.39382 21.4815 7.02871 21.6636 6.75487 21.9367C6.57231 22.3008 6.38975 22.8469 6.38975 23.4841Z" fill="#009191"/>
<path d="M16.7033 22.3918C16.7033 23.029 16.5208 23.4841 16.1557 23.8482C15.7905 24.2123 15.2429 24.3033 14.5126 24.3033H13.9649V26.3969H12.7783V20.5713H14.6039C15.3341 20.5713 15.8818 20.7533 16.2469 21.0264C16.5208 21.2995 16.7033 21.7546 16.7033 22.3918ZM13.8737 23.3021H14.2388C14.6039 23.3021 14.8777 23.211 15.0603 23.12C15.2429 22.938 15.3341 22.7559 15.3341 22.4828C15.3341 22.2097 15.2429 22.0277 15.0603 21.8456C14.8777 21.6636 14.6952 21.6636 14.3301 21.6636H13.7824V23.3021H13.8737Z" fill="#009191"/>
<path d="M23.8244 23.4841C23.8244 24.4854 23.5506 25.2136 23.0942 25.6687C22.6378 26.2149 21.9075 26.3969 21.086 26.3969C20.2645 26.3969 19.5343 26.1238 19.0779 25.6687C18.6215 25.1226 18.3477 24.3944 18.3477 23.4841C18.3477 22.4828 18.6215 21.7546 19.0779 21.2995C19.5343 20.7533 20.2645 20.5713 21.1773 20.5713C22.0901 20.5713 22.7291 20.8444 23.1855 21.2995C23.6419 21.7546 23.8244 22.4828 23.8244 23.4841ZM19.6256 23.4841C19.6256 24.1213 19.7168 24.5764 19.9907 24.9405C20.2645 25.3046 20.6296 25.3956 21.086 25.3956C22.0901 25.3956 22.5465 24.7585 22.5465 23.4841C22.5465 22.2097 22.0901 21.4815 21.086 21.4815C20.6296 21.4815 20.2645 21.6636 19.9907 21.9367C19.7168 22.3008 19.6256 22.8469 19.6256 23.4841Z" fill="#009191"/>
<path d="M25.1948 25.3046H25.6512C26.0163 24.5764 26.3814 23.7572 26.564 23.029C26.7465 22.3008 26.9291 21.4815 27.0204 20.5713H30.3977V25.3046H31.1279V28.0354H29.9413V26.3059H26.2901V28.0354H25.1035V25.3046H25.1948ZM28.0244 21.5726C27.9332 22.2097 27.8419 22.8469 27.5681 23.4841C27.3855 24.1213 27.1117 24.7585 26.9291 25.3046H29.2111V21.5726H28.0244Z" fill="#009191"/>
<path d="M38.2453 26.3969L36.8761 21.8456C36.9674 22.7559 36.9674 23.3931 36.9674 23.6662V26.3969H35.8721V20.5713H37.4238L38.793 25.0315L40.2535 20.5713H41.9878V26.3969H40.8011V23.6662C40.8011 23.5751 40.8011 23.3931 40.8011 23.211C40.8011 23.029 40.8011 22.5738 40.8924 21.8456L39.432 26.3969H38.2453Z" fill="#009191"/>
<path d="M47.8296 26.3969L47.3733 25.0315H45.2738L44.8174 26.3969H43.4482L45.4564 20.5713H47.0081L49.1076 26.3969H47.8296ZM47.0994 23.9392C46.7343 22.6649 46.4605 21.9367 46.4605 21.8456C46.3692 21.6636 46.3692 21.5726 46.3692 21.4815C46.2779 21.8456 46.0041 22.6649 45.6389 24.0303H47.0994V23.9392Z" fill="#009191"/>
<path d="M53.1251 21.4815C52.6687 21.4815 52.3036 21.6636 52.0297 22.0277C51.7559 22.3918 51.6646 22.8469 51.6646 23.4841C51.6646 24.7585 52.121 25.3956 53.1251 25.3956C53.4902 25.3956 54.0379 25.3046 54.5856 25.1226V26.1238C54.1292 26.3059 53.5815 26.3969 52.9425 26.3969C52.121 26.3969 51.4821 26.1238 51.0257 25.6687C50.5693 25.1226 50.3867 24.3944 50.3867 23.4841C50.3867 22.8469 50.478 22.3918 50.7518 21.9367C50.9344 21.4815 51.2995 21.1174 51.6646 20.9354C52.121 20.6623 52.5774 20.5713 53.1251 20.5713C53.6728 20.5713 54.2204 20.6623 54.8594 20.9354L54.4943 21.9367C54.3117 21.8456 54.0379 21.7546 53.8553 21.6636C53.5815 21.5726 53.3989 21.4815 53.1251 21.4815Z" fill="#009191"/>
<path d="M58.8756 26.3957H57.5976V21.6624H56.0459V20.6611H60.4273V21.6624H58.8756V26.3957Z" fill="#009191"/>
<path d="M65.5375 26.3969H62.1602V20.5713H65.5375V21.5726H63.4381V22.8469H65.4462V23.8482H63.4381V25.3046H65.5375V26.3969Z" fill="#009191"/>
<path d="M71.5622 22.3918C71.5622 23.029 71.3796 23.4841 71.0145 23.8482C70.6494 24.2123 70.1017 24.3033 69.3715 24.3033H68.8238V26.3969H67.5459V20.5713H69.3715C70.1017 20.5713 70.6494 20.7533 71.0145 21.0264C71.3796 21.2995 71.5622 21.7546 71.5622 22.3918ZM68.7325 23.3021H69.0976C69.4628 23.3021 69.7366 23.211 69.9192 23.12C70.1017 22.938 70.193 22.7559 70.193 22.4828C70.193 22.2097 70.1017 22.0277 69.9192 21.8456C69.7366 21.6636 69.554 21.6636 69.1889 21.6636H68.6412V23.3021H68.7325Z" fill="#009191"/>
<path d="M78.6838 23.4841C78.6838 24.4854 78.41 25.2136 77.9536 25.6687C77.4972 26.2149 76.7669 26.3969 75.9454 26.3969C75.0326 26.3969 74.3937 26.1238 73.9373 25.6687C73.4809 25.1226 73.207 24.3944 73.207 23.4841C73.207 22.4828 73.4809 21.7546 73.9373 21.2995C74.3937 20.7533 75.1239 20.5713 76.0367 20.5713C76.9495 20.5713 77.5884 20.8444 78.0448 21.2995C78.5012 21.7546 78.6838 22.4828 78.6838 23.4841ZM74.4849 23.4841C74.4849 24.1213 74.5762 24.5764 74.8501 24.9405C75.1239 25.3046 75.489 25.3956 75.9454 25.3956C76.9495 25.3956 77.4059 24.7585 77.4059 23.4841C77.4059 22.2097 76.9495 21.4815 75.9454 21.4815C75.489 21.4815 75.1239 21.6636 74.8501 21.9367C74.5762 22.3008 74.4849 22.8469 74.4849 23.4841Z" fill="#009191"/>
<path d="M80.6924 20.5713H82.518C83.3395 20.5713 83.9784 20.6623 84.3436 20.9354C84.7087 21.2085 84.8912 21.5726 84.8912 22.0277C84.8912 22.3918 84.8 22.6649 84.6174 22.8469C84.4348 23.029 84.2523 23.211 83.9784 23.211C84.3436 23.3021 84.6174 23.4841 84.7999 23.6662C84.9825 23.8482 85.0738 24.2123 85.0738 24.5764C85.0738 25.1226 84.8912 25.4867 84.5261 25.8508C84.161 26.2149 83.6133 26.3059 82.9744 26.3059H80.7837V20.5713H80.6924ZM81.9703 22.8469H82.7005C83.0657 22.8469 83.2482 22.7559 83.4308 22.6649C83.6133 22.5739 83.6133 22.3918 83.6133 22.1187C83.6133 21.9367 83.522 21.7546 83.3395 21.6636C83.1569 21.5726 82.8831 21.4815 82.6093 21.4815H81.9703V22.8469ZM81.9703 23.8482V25.3956H82.7918C83.1569 25.3956 83.3395 25.3046 83.522 25.2136C83.7046 25.1226 83.7959 24.8495 83.7959 24.5764C83.7959 24.1213 83.4308 23.8482 82.7918 23.8482H81.9703Z" fill="#009191"/>
</svg>
