<svg width="143" height="35" viewBox="0 0 143 35" fill="none" xmlns="http://www.w3.org/2000/svg">
<g clip-path="url(#clip0_70_4728)">
<path d="M133.304 2.79985C133.234 4.05985 132.537 5.24985 131.979 5.94985C129.816 8.46985 124.585 9.65985 122.352 7.83985C121.376 7.06985 121.446 5.66985 122.283 4.75985C123.748 3.14985 126.887 2.79985 129.049 2.65985C129.468 2.65985 132.676 2.65985 133.234 2.79985C133.374 2.79985 133.234 2.72985 133.304 2.79985ZM142.652 16.7998C141.047 16.5198 139.512 15.8198 138.536 14.9798C137.559 14.1398 136.652 13.1598 136.164 11.4098C135.536 9.16985 136.164 5.87985 136.652 3.56985C136.792 2.79985 137.071 2.02985 137.211 1.25985C136.443 1.11985 135.327 1.04985 134.56 0.979846C131.77 0.769846 128.91 0.699846 126.119 0.979846C122.283 1.32985 119.632 2.30985 117.749 4.40985C116.842 5.45985 116.144 7.20985 117.26 8.67985C118.028 9.65985 119.562 10.3598 121.167 10.7098C123.678 11.2698 126.329 10.8498 128.7 9.93985C129.398 9.65985 130.026 9.30985 130.723 9.02985C130.514 9.79985 129.049 11.7598 128.491 12.3898C127.793 13.1598 127.096 13.9298 126.259 14.6298C125.631 15.1198 125.003 15.6098 124.236 15.9598C119.492 18.3398 116.842 14.0698 114.958 13.2298C112.866 12.3198 111.052 17.4298 109.308 14.6298C108.262 12.9498 107.494 9.23985 104.983 11.0598C104.565 11.3398 104.146 11.6898 103.728 12.0398C103.17 12.5298 102.472 13.0898 101.914 13.5798C100.868 14.5598 98.4261 16.5198 97.1705 16.6598C96.473 16.7298 96.0544 16.2398 95.9847 15.6098C95.9149 14.9798 96.1242 14.2798 96.4032 13.7898C97.031 12.4598 98.5657 10.3598 99.612 9.16985C99.7515 9.02985 100.1 8.67985 100.1 8.60985C99.9608 8.46985 99.4027 8.11985 99.1237 8.04985C97.7286 7.41985 96.8217 7.62985 95.7056 8.46985C93.8222 9.86985 91.1715 12.6698 90.8925 15.1198C90.8925 15.3998 90.9622 15.6098 90.753 15.7498C88.3813 17.7798 84.0564 17.3598 83.2891 13.3698C83.1495 12.4598 83.1495 11.6198 82.9403 10.7098C82.173 7.34985 79.8013 7.69985 77.4993 9.23985C76.8017 9.65985 75.1276 10.9898 74.5695 11.6198C74.43 11.7598 74.3603 11.8998 74.151 11.9698C74.43 11.4098 76.732 7.97985 77.0808 7.41985C77.3598 6.99985 77.9876 6.22985 77.2203 5.87985C76.5925 5.52985 75.6856 5.80985 75.1974 6.08985C74.7091 6.43985 74.43 6.99985 74.0813 7.48985C73.4534 8.46985 72.8256 9.51985 72.1978 10.5698C71.6398 11.6198 71.012 12.7398 70.4539 13.8598C70.2447 14.2798 70.1749 14.2098 69.8261 14.4198C68.9891 14.9098 68.152 15.2598 67.2452 15.5398C66.1291 15.8898 64.3154 16.3798 63.0598 16.1698C61.1764 15.8198 62.0832 14.0698 62.711 13.1598C62.99 12.8098 63.7574 11.9698 63.4086 11.5498C62.2925 10.2198 58.7349 14.1398 55.1773 15.1898C54.0612 15.5398 51.8291 16.0298 51.55 14.6298C51.271 13.2298 52.6661 11.9698 53.2939 11.4798C54.131 10.7798 55.2471 10.2198 56.5027 9.72985C61.3856 7.76985 63.7573 9.93985 64.5944 9.93985C64.8734 9.51985 64.9432 8.74985 64.6642 8.25985C64.4549 7.90985 64.0364 7.55985 63.4783 7.34985C60.6183 6.22985 55.9447 7.62985 53.3637 8.74985C51.3408 9.65985 49.9456 10.5698 48.3413 11.9698C47.0159 13.1598 45.272 15.1898 45.4115 17.2198C42.5515 18.5498 39.6915 17.8498 38.2266 15.8898C36.2734 13.2998 37.3895 10.8498 36.2037 8.11985C35.7154 6.99985 34.8783 6.08985 33.2739 6.08985C30.8325 6.08985 27.9725 8.60985 26.1588 10.0798L24.5544 11.5498C24.4149 11.6898 24.4149 11.7598 24.2056 11.8298C24.0661 10.9198 23.7173 9.93985 23.5081 9.02985L22.0432 3.49985C21.7642 2.51985 21.4154 1.74985 20.7876 1.25985C19.253 -0.0701535 17.3695 1.60985 16.1139 2.58985C15.2769 3.28985 13.4632 5.24985 12.7656 6.15985L11.1612 8.04985C9.62661 9.86985 8.09198 12.0398 6.6271 13.9298C6.13881 14.5598 5.65052 15.2598 5.16222 15.9598C4.04613 17.4298 2.09296 19.8798 0.697834 21.0698C0.558321 21.2098 0.349053 21.3498 0.279297 21.4898C1.67442 21.6998 4.11588 21.4198 5.37149 20.9998C7.11539 20.4398 7.81296 19.8098 8.71979 18.6898C9.55686 17.6398 10.2544 16.4498 11.0217 15.3298C12.4866 13.0898 13.8817 10.6398 15.4861 8.46985C15.9047 7.90985 16.3232 7.41985 16.8115 6.92985C17.0905 6.64985 18.0671 5.66985 18.5554 6.36985C19.1134 7.13985 19.3227 10.0098 19.3925 11.1998C19.532 12.8798 19.6017 14.6298 19.8808 16.3098C20.09 17.7098 20.6481 20.1598 22.2525 18.6898C22.5315 18.4798 22.7408 18.1998 22.95 17.9898C23.1593 17.7098 23.4383 17.4998 23.6476 17.2898C23.8569 17.0098 24.1359 16.7998 24.3452 16.5898C25.4612 15.3298 26.6471 14.2098 27.9725 13.1598C28.9491 12.4598 30.8325 11.3398 31.8788 12.6698C33.6227 14.7698 33.6227 17.4998 36.8315 19.0398C39.273 20.2298 42.3422 20.0198 44.9232 18.8998C45.1325 18.7598 45.6208 18.4798 45.83 18.4098C46.0393 18.6898 46.1091 18.7598 46.4578 18.9698C48.3412 20.0898 51.6895 19.2498 53.573 18.6198C54.8983 18.1998 55.8052 17.6398 56.7817 17.0098C57.4095 16.5898 59.0139 15.5398 59.6417 15.0498C59.6417 15.2598 59.5022 15.7498 59.5022 15.9598C59.4325 16.8698 59.4325 18.0598 60.13 18.6198C61.4554 19.6698 65.5012 17.6398 66.7569 16.9398L69.6169 15.3998C69.4076 15.9598 69.0588 16.5898 68.8495 17.1498C67.1754 21.0698 65.7105 26.7398 65.0827 30.8698C65.013 31.4998 64.5944 33.5998 64.9432 34.2298C65.0827 34.4398 65.3617 34.7198 65.7105 34.6498C66.7569 34.5798 67.1056 32.4098 67.3847 31.3598C68.5705 26.9498 70.2447 20.4398 72.8954 16.9398C73.872 15.6798 76.1739 12.4598 78.6852 12.8098C79.313 12.8798 79.7315 13.5098 79.9408 13.9998C80.9173 15.6798 81.4056 17.2198 83.3588 18.0598C85.5213 19.0398 88.3115 18.5498 90.2647 17.2198C90.4739 17.0798 90.8227 16.7998 91.032 16.7298C91.3808 17.0798 91.3808 17.5698 92.2876 18.1298C92.7759 18.4798 93.4735 18.6898 94.171 18.8298C98.0774 19.5298 101.077 17.4298 103.728 15.0498C104.076 14.7698 104.355 14.3498 104.704 14.0698C104.774 14.1398 105.192 15.1898 105.611 15.7498C107.634 18.6198 110.215 17.4298 112.726 16.1698C114.4 15.3298 114.889 15.8198 116.353 16.7298C116.912 17.0098 117.47 17.2898 118.097 17.5698C120.957 18.6898 123.957 18.1298 126.468 16.9398C127.584 16.3798 128.77 15.6798 129.677 14.9798C130.235 14.4898 131.212 13.7898 131.7 13.1598L132.258 12.4598C132.328 12.5998 132.746 13.9998 132.886 14.2798C133.513 15.8898 134.56 17.6398 135.885 18.5498C137.141 19.4598 138.048 19.3898 139.582 18.6898C140.419 18.3398 141.187 17.9198 141.954 17.4298C142.093 17.3598 142.163 17.2898 142.303 17.1498C142.372 17.0798 142.442 17.0798 142.512 17.0098L142.652 16.7998ZM41.0169 10.0798C40.9471 8.95985 41.7842 7.97985 42.8305 7.90985C44.0164 7.83985 44.9232 8.74985 44.993 9.79985C45.0627 10.9198 44.2256 11.8298 43.1793 11.9698C42.0632 12.0398 41.1564 11.1298 41.0169 10.0798ZM42.691 7.48985C41.4354 7.69985 40.4588 8.81985 40.6681 10.2898C40.8773 11.4798 41.9934 12.5298 43.4583 12.2498C44.6442 12.0398 45.6905 10.9198 45.4812 9.44985C45.2022 8.32985 44.0861 7.27985 42.691 7.48985ZM42.4817 8.95985C42.9003 8.95985 43.5978 8.81985 43.5978 9.37985C43.5978 9.86985 42.9003 9.72985 42.4817 9.72985V8.95985ZM41.8539 11.2698H42.4817V10.1498H43.1095L43.5281 11.2698H44.1559L43.6676 10.0098C44.4349 9.72985 44.2256 8.88985 43.8769 8.67985C43.4583 8.39985 42.412 8.46985 41.8539 8.46985V11.2698Z" fill="#E31E24"/>
<path d="M109.797 25.8302C109.657 25.8302 108.681 25.8302 108.611 25.8302C108.471 25.9002 108.402 26.5302 108.332 26.7402L107.495 30.5902C107.425 30.9402 107.076 32.2002 107.076 32.4802H113.354C113.494 32.2002 114.819 25.9702 114.749 25.8302H113.494L112.308 31.3602H111.052C110.983 30.9402 112.168 26.3202 112.168 25.8302H110.983C110.913 26.0402 110.425 28.2102 110.355 28.6302C110.285 29.1202 110.146 29.5402 110.076 30.0302C110.006 30.2402 110.006 30.5202 109.936 30.7302C109.936 30.8702 109.867 31.3602 109.727 31.3602H108.471L109.797 25.8302ZM128.282 31.5002C128.282 31.0802 128.631 29.9602 128.701 29.4702C128.77 29.0502 128.77 28.7002 128.98 28.5602C129.259 28.3502 129.607 28.2802 129.747 28.6302C129.956 29.1902 129.607 30.9402 129.049 31.4302C128.77 31.7802 128.491 31.6402 128.282 31.5002ZM127.096 28.4202C127.445 28.2802 127.794 28.4902 127.724 28.9102L127.306 30.8702C127.236 31.2902 127.236 31.5002 126.887 31.5702C125.98 31.7802 126.259 30.5202 126.329 29.9602C126.399 29.4002 126.608 28.6302 127.096 28.4202ZM129.468 26.1102C128.282 26.1102 128.352 26.0402 128.282 26.3202L128.143 26.9502C128.073 27.2302 128.003 27.5102 127.933 27.8602C127.654 27.7202 127.515 27.4402 126.957 27.5102C126.608 27.5802 126.259 27.7902 126.05 27.9302C125.143 28.7002 124.097 32.1302 125.91 32.4802C126.468 32.5502 126.608 32.4102 126.957 32.2002L126.538 33.9502C127.933 33.9502 127.654 34.1602 127.864 33.0402C127.933 32.8302 128.003 32.3402 128.073 32.2002C128.422 32.4102 128.491 32.5502 129.119 32.4102C130.933 32.0602 131.351 28.7702 130.863 27.8602C130.724 27.5802 130.445 27.3702 130.026 27.3702C129.607 27.3702 129.328 27.5802 129.049 27.7202L129.468 26.1102ZM75.8255 25.8302H74.5699L73.1748 32.5502H74.4304C74.5699 32.0602 74.7792 30.8702 74.9187 30.2402C74.9885 29.7502 74.9885 29.5402 75.1977 29.5402C75.7558 29.5402 76.1743 29.4702 76.1743 30.1002C76.2441 30.9402 76.0348 31.9202 76.5231 32.3402C76.7324 32.5502 77.1509 32.6202 77.5694 32.5502C77.6392 32.4802 78.0577 31.7102 77.988 31.5702C77.8485 31.4302 77.7787 31.5002 77.6392 31.4302C77.2904 31.2902 77.4299 30.7302 77.4299 30.2402C77.4299 29.2602 77.2207 29.2602 76.8719 28.9802L76.8021 28.9102C77.4299 28.7702 77.6392 28.3502 77.8485 27.7202C77.9182 27.5102 78.0577 27.0902 78.1972 26.9502C78.4065 26.6002 78.6158 26.7402 78.8948 26.5302C78.9646 26.3202 78.8948 25.7602 78.825 25.6202C78.4065 25.5502 77.9182 25.7602 77.6392 25.9702C77.3602 26.1802 77.2207 26.5302 77.0114 26.9502C76.4533 28.2802 76.5929 28.4202 75.3372 28.4202L75.8255 25.8302ZM123.12 28.7002C123.12 29.0502 122.771 30.4502 122.632 30.8002C122.213 31.7102 121.376 31.9202 121.237 31.2902C121.097 30.7302 121.376 29.6102 121.586 29.1202C121.934 28.3502 122.423 28.0702 123.12 28.7002ZM123.887 32.4802C123.887 31.9902 123.748 31.7802 123.748 31.1502C123.818 30.7302 123.887 30.3102 123.957 29.8902C124.027 29.4002 124.446 27.7902 124.446 27.5102H123.399L123.329 28.0002C122.981 27.7902 122.841 27.5102 122.283 27.5102C121.097 27.5102 120.4 28.8402 120.121 29.9602C119.911 30.8002 119.911 31.9902 120.539 32.4102C120.888 32.6902 121.376 32.5502 121.795 32.4102C122.004 32.3402 122.144 32.2702 122.283 32.1302L122.702 31.7802C122.702 32.7602 122.632 32.4802 123.887 32.4802ZM89.7768 27.5102H88.6607L87.5446 32.4802H88.6607C88.8002 31.9902 88.9397 31.4302 89.0094 30.8702C89.0792 30.3802 89.0094 30.3802 89.428 30.3802C89.7768 30.3802 90.0558 30.3802 90.4046 30.3802L89.986 32.4802H91.1021L92.2182 27.5102C91.0324 27.5102 91.1021 27.4402 91.0324 27.7202L90.8929 28.4202C90.8231 28.7702 90.7533 29.1202 90.6836 29.4002H89.3582L89.7768 27.5102ZM96.5431 32.4802C96.5431 31.9902 96.3338 31.7102 96.4733 31.1502C96.6129 30.1702 97.1011 28.6302 97.3104 27.5102H96.1943C96.0548 28.2802 95.8455 28.9802 95.706 29.7502C95.5665 30.4502 95.2875 31.2902 94.7294 31.5002C93.6831 31.9202 94.2411 30.2402 94.3807 29.7502C94.5202 29.0502 94.7992 28.2102 94.8689 27.5102H93.7528C93.6133 28.1402 92.9158 30.8702 92.9158 31.2902C92.846 32.0602 93.2646 32.6202 94.0319 32.4802C94.869 32.3402 95.2177 31.7102 95.427 31.5702C95.3572 32.6902 95.2177 32.4802 96.5431 32.4802ZM103.24 32.4802C103.17 31.9902 103.03 31.6402 103.1 31.1502C103.24 30.4502 103.867 27.9302 103.937 27.5102H102.821C102.612 28.4202 102.263 30.3802 101.845 31.0802C101.705 31.2902 101.287 31.7102 100.868 31.5702C100.519 31.2902 100.938 29.9602 101.077 29.5402C101.217 29.0502 101.496 27.9302 101.496 27.5102H100.38C100.24 27.8602 99.5426 30.9402 99.4729 31.2902C99.3333 32.7602 100.728 32.9002 101.705 31.9202C101.845 31.7802 101.845 31.7102 101.984 31.6402C101.984 31.9902 101.984 32.2002 102.124 32.4802H103.24ZM117.191 27.5102H116.075L114.959 32.4802H116.075L116.563 30.3802C116.982 30.3802 117.261 30.3102 117.4 30.6602C117.54 31.2202 117.33 32.0602 117.888 32.3402C118.098 32.4802 118.516 32.5502 118.795 32.4802C118.935 32.3402 119.144 31.7802 119.144 31.5702C118.516 31.4302 118.656 31.5002 118.586 30.7302C118.516 30.2402 118.447 30.0302 118.028 29.8902C118.237 29.7502 118.447 29.8902 118.865 29.0502C119.284 28.2102 119.353 28.4902 119.772 28.3502C119.772 28.1402 119.772 27.6502 119.702 27.4402C118.865 27.3702 118.377 27.7902 118.167 28.3502C117.749 29.2602 117.819 29.4702 116.842 29.4002L117.191 27.5102ZM77.6392 34.0202C77.988 34.4402 79.1041 34.6502 79.9411 33.9502C80.7085 33.3202 81.6153 30.8002 82.0338 29.7502C82.1733 29.4002 82.3129 28.9802 82.5221 28.6302C82.5919 28.4202 82.9407 27.7202 82.9407 27.5802H81.8246C81.6153 28.0702 81.3363 28.9802 81.1968 29.5402C81.0572 29.8902 80.6387 31.2202 80.4992 31.4302C80.3597 30.8002 80.2899 30.1702 80.2202 29.5402C80.1504 29.0502 80.1504 28.0002 80.0109 27.5802H79.0343L79.8714 32.2702C80.0109 32.8302 79.6621 33.4602 79.1041 33.5302C78.6855 33.6002 78.546 33.3902 78.1972 33.3202C77.988 33.3902 77.709 33.8802 77.6392 34.0202ZM85.8007 29.9602C85.9402 29.6802 87.6143 27.8602 87.8236 27.5102H86.4285C86.289 27.7902 86.0797 28.0702 85.8704 28.3502C85.7309 28.5602 85.4519 28.9802 85.3124 29.1902L84.7543 27.5802H83.5685C83.5685 27.9302 84.4753 29.5402 84.6148 30.0302C84.4753 30.2402 83.7777 31.0102 83.5685 31.2902C83.3592 31.5002 83.2197 31.7102 83.0104 31.9202C82.9407 32.0602 82.5221 32.4102 82.5221 32.5502H83.8475C84.1265 32.2702 84.9636 30.9402 85.1031 30.8002L85.8007 32.5502H86.9865C86.9168 32.3402 86.4982 31.5702 86.4285 31.2902C86.2192 30.8702 85.8704 30.3102 85.8007 29.9602ZM132.886 31.6402C132.956 31.2902 133.026 30.7302 133.165 30.3802C133.235 30.2402 133.235 30.2402 133.305 30.1702C134.421 29.8902 134.56 31.0102 134.002 31.5002C133.723 31.7802 133.305 31.7102 132.886 31.6402ZM133.793 27.5102H132.677C132.467 28.5602 132.188 29.6102 131.979 30.6602C131.909 30.9402 131.84 31.1502 131.84 31.4302C131.77 31.7102 131.63 31.9902 131.909 32.1302C132.328 32.3402 132.886 32.5502 133.374 32.5502C135.816 32.6202 136.095 30.1002 135.048 29.4702C134.56 29.1202 134.072 29.2602 133.444 29.3302L133.793 27.5102ZM138.118 27.5102H137.002C136.862 28.3502 136.653 29.1902 136.444 29.9602C136.374 30.4502 135.886 32.0602 135.886 32.4802H137.002L138.118 27.5102Z" fill="white"/>
</g>
<defs>
<clipPath id="clip0_70_4728">
<rect width="143" height="35" fill="white"/>
</clipPath>
</defs>
</svg>
