<svg width="77" height="56" viewBox="0 0 77 56" fill="none" xmlns="http://www.w3.org/2000/svg">
<path d="M63.0095 0.00271865C62.5751 0.00271865 61.4581 -0.0592399 59.9687 1.2416C59.286 1.79909 57.9207 3.90525 58.3552 5.70162C58.4793 6.25911 58.7896 6.75463 59.0378 7.06442C59.6584 7.9317 60.9617 8.42723 61.5823 7.9317C62.2649 7.31226 63.5682 7.43618 64.1267 7.06442C64.499 6.81659 65.5541 6.13533 66.1126 4.64861C66.2366 4.02917 67.6638 -0.121199 63.0095 0.00271865Z" fill="white"/>
<path d="M70.5777 29.4883C68.2195 26.6389 60.7104 28.745 58.7245 29.1787C59.0968 27.4443 63.0065 14.8077 63.1307 13.4449C63.1928 12.5158 63.1928 11.5246 61.9516 10.8432C59.4692 9.54238 55.994 11.5866 54.6908 12.5776C53.0773 13.8165 54.1323 12.7016 49.7882 16.6659C44.4512 21.4975 42.5273 23.7275 42.279 23.6656C41.7205 23.5417 44.7614 16.7898 45.2578 14.9934C45.5682 13.8165 45.8784 13.0112 45.5682 12.0202C45.2578 11.0911 44.5132 10.2857 43.0238 10.0999C41.4103 9.91399 39.1761 10.7193 36.3835 11.9582C32.3498 13.6926 24.4063 18.1526 20.807 20.5065C2.1273 32.6475 0.76198 34.9394 0.26554 36.1163C-0.168827 37.1074 -0.0446815 38.1605 0.451759 38.4702C1.07234 38.9037 1.87915 39.2135 3.24433 38.0986C5.10608 36.6738 5.85082 34.9394 9.63641 31.5325C17.3316 24.6567 24.9028 20.6304 27.9436 18.834C31.9154 16.4802 36.3835 14.6838 38.6177 13.8785C38.6798 13.8785 35.0804 23.7276 34.4599 25.5859C33.0325 29.984 33.0325 31.5325 33.9013 32.5237C35.0184 33.8246 37.0043 33.4528 38.4937 32.3378C39.3626 31.7184 41.4725 29.1167 42.5275 28.0017C43.5204 26.8868 45.196 25.3381 46.6233 23.7896C48.0507 22.241 50.471 20.0729 51.8361 18.896C53.0152 17.9049 54.0702 17.0996 54.3185 17.2235C54.7528 17.4094 54.1323 18.7721 54.1323 18.7721C54.1323 18.7721 52.2705 24.347 51.6499 26.4531C51.4016 27.3822 50.9052 29.1167 50.4087 31.1608C39.0521 33.8864 27.323 36.8597 21.4895 38.9037C9.82248 43.1159 2.18937 45.6556 3.12018 48.1334C4.11306 50.859 8.58131 46.399 23.1029 41.0719C30.0535 38.5321 32.0393 38.0366 35.887 37.0456C41.1619 35.7447 45.6301 34.8156 49.8501 34.0723C49.6639 35.1872 49.6018 36.612 49.7259 37.4173C50.0982 39.5235 51.5256 40.081 52.5806 40.3286C54.2561 40.7003 56.9247 40.2667 57.297 36.55C57.4211 35.497 57.6693 33.8244 57.7313 33.3909C58.1036 33.3289 58.8484 33.205 59.3448 33.143C64.3095 32.6475 64.3716 33.205 64.868 33.5766C65.3645 33.9482 65.7988 35.8685 68.9638 34.5057C71.881 33.3907 71.4465 30.5413 70.5777 29.4883Z" fill="white"/>
<path d="M53.1983 49.0625L52.826 50.7969H56.1772L55.991 51.6642H52.6398L52.2675 53.3986H55.6187L55.4325 54.2659H52.0813L51.709 56.0003H55.0602C58.2252 56.0003 58.5975 55.0711 59.094 52.5315C59.4043 50.9829 59.7766 49.0626 56.922 49.0626L53.1983 49.0625Z" fill="white"/>
<path d="M38.3667 46.709L36.1948 51.7883H36.1327L35.9465 46.709H30.3612L28.4375 56.0005H31.7886L33.278 48.6911H33.402L33.7124 56.0005H36.6291L39.9183 48.6911H40.0424L38.553 56.0005H41.9042L43.7659 46.709H38.3667Z" fill="white"/>
<path d="M48.7936 49.0626L47.7386 54.2659H46.6837L47.7386 49.0626H44.3874L43.5806 53.0889C43.2083 54.7614 43.7668 56.0003 46.3732 56.0003H50.7794L52.2067 49.0625L48.7936 49.0626Z" fill="white"/>
<path d="M64.1843 49.0625C61.8261 49.0625 60.647 49.9916 60.3367 51.6642L59.4678 56.0003H62.819L63.8739 50.8589H64.9289L63.8739 56.0003H67.2252L68.6526 49.0625H64.1843Z" fill="white"/>
<path d="M73.7392 51.2924H72.5601L72.9944 49.0625H69.6432L68.2158 56.0003H72.1256C74.67 56.0003 76.1593 55.3189 76.4697 53.7084C76.8421 52.0978 75.5389 51.2924 73.7392 51.2924ZM71.9395 54.2657L72.1878 53.0268H73.2427L72.9944 54.2657H71.9395Z" fill="white"/>
</svg>
