<svg width="161" height="35" viewBox="0 0 161 35" fill="none" xmlns="http://www.w3.org/2000/svg">
<g clip-path="url(#clip0_70_4227)">
<path d="M12.01 0.0128204L20.6446 25.7519L18.1637 25.7505L17.4062 28.2662H21.4891L23.7514 34.9997H36.5574L24.3673 0L12.01 0.0128204Z" fill="#A71C20"/>
<path d="M0 34.9703L11.9986 0.013349L24.1058 0.00195312L12.6317 35.0002L0 34.9703Z" fill="#C4161C"/>
<path d="M40.106 5.99316L31.5518 25.9374H35.3792L37.728 20.3606H45.1978L47.5738 25.9374H51.5296L42.9754 5.99316H40.106ZM43.7234 16.8319H39.2254L41.4751 11.5124L43.7234 16.8319Z" fill="white"/>
<path d="M75.0754 5.99302L67.5695 23.49L66.0578 20.6581L65.3851 21.1979C64.1803 22.1795 62.6647 22.7021 61.109 22.6725C60.2414 22.7094 59.3755 22.5679 58.5652 22.2568C57.7548 21.9456 57.0174 21.4715 56.3989 20.864C55.7926 20.2157 55.3227 19.4529 55.017 18.6206C54.7113 17.7883 54.5759 16.9034 54.6188 16.0181C54.574 15.1392 54.7042 14.2602 55.002 13.4317C55.2997 12.6032 55.7591 11.8416 56.3535 11.191C56.9136 10.5876 57.5979 10.112 58.3596 9.79673C59.1212 9.48148 59.9422 9.33403 60.7664 9.36447C62.2436 9.31339 63.6972 9.74418 64.9064 10.5914L65.5351 11.0568L67.2894 8.18749L66.8239 7.79379C65.0997 6.43023 62.9386 5.73475 60.7399 5.83582C59.39 5.77576 58.043 6.00705 56.7911 6.51388C55.5392 7.02072 54.4119 7.79113 53.4863 8.77241C51.6838 10.7491 50.7253 13.3483 50.8144 16.018C50.7612 17.3757 50.9817 18.7303 51.4629 20.0016C51.9441 21.2729 52.6763 22.4351 53.6161 23.4193C54.5815 24.3449 55.7235 25.068 56.9743 25.5456C58.2252 26.0233 59.5595 26.2459 60.8983 26.2002C62.1101 26.2048 63.3139 26.0045 64.4584 25.6076C65.5049 25.2731 66.4585 24.6995 67.2433 23.9327L67.4867 23.6831L66.5197 25.9373H70.3485L72.6973 20.3604H80.1671L82.5424 25.9373H86.4989L77.9447 5.99302H75.0754ZM78.6928 16.8318H74.1948L76.4445 11.5122L78.6928 16.8318Z" fill="white"/>
<path d="M102.113 8.96403C101.126 7.97158 99.9192 7.22478 98.5891 6.78416C96.9902 6.24942 95.3113 5.9909 93.625 6.01975C93.4826 6.01975 92.65 6.03714 91.127 6.07192C90.3943 6.08932 89.6523 6.0979 88.901 6.09766H87.8696V25.9369H88.8744C89.7648 25.9369 90.5505 25.9457 91.2316 25.9633C91.9391 25.9814 92.6667 25.9902 93.4143 25.9897C94.9219 26.0805 96.4326 25.8722 97.8589 25.377C99.2853 24.8817 100.599 24.1094 101.724 23.1046C102.704 22.1569 103.476 21.0164 103.99 19.7556C104.504 18.4947 104.75 17.141 104.712 15.7804C104.722 14.5166 104.506 13.261 104.072 12.0731C103.636 10.9156 102.97 9.85796 102.113 8.96403ZM93.4938 22.4605L93.1505 22.448C92.937 22.4397 92.6117 22.4299 92.1736 22.4216C91.9656 22.4174 91.7548 22.4146 91.5414 22.4118V9.61089C91.7214 9.60462 91.9294 9.59674 92.1652 9.58725C92.7918 9.56081 93.2621 9.54829 93.572 9.54829C95.5524 9.41231 97.5108 10.0311 99.0511 11.2795C99.6696 11.8505 100.156 12.5489 100.477 13.3262C100.797 14.1034 100.944 14.9409 100.907 15.7804C100.949 16.6771 100.8 17.5725 100.471 18.4079C100.141 19.2434 99.6383 20 98.9952 20.6284C97.4678 21.9247 95.4962 22.5813 93.4938 22.4605Z" fill="white"/>
<path d="M111.044 17.6769H118.434V14.1484H111.044V9.62709H119.226V6.09863H107.373V25.9375H119.49V22.4076H111.044V17.6769Z" fill="white"/>
<path d="M132.461 15.033L125.893 6.09863H122.547V25.9375H126.218V12.6043L131.763 20.2039H132.841L138.303 12.563V25.9375H141.976V6.09863H138.752L132.461 15.033Z" fill="white"/>
<path d="M156.855 6.09863L152.056 13.8678L147.283 6.09863H143.011L150.125 17.5373V25.9375H153.798V17.5387L160.999 6.09863H156.855Z" fill="white"/>
<path d="M40.2414 34.1968H40.0308V33.4469H40.3342C40.4676 33.2339 40.5661 33.0011 40.6261 32.7572C40.7445 32.3133 40.8109 31.8572 40.824 31.3981L40.8521 30.833H42.4466V33.4469H42.8313V34.1968H42.6206V33.6563H40.2414V34.1968ZM41.0666 31.0431L41.0348 31.5588C41.0132 31.9838 40.9481 32.4055 40.8406 32.8173C40.7912 33.0405 40.7036 33.2535 40.5817 33.4469H42.2246V31.0431H41.0666Z" fill="white"/>
<path d="M47.1035 33.6528V30.8377C47.4781 30.827 47.7269 30.8213 47.8475 30.8213C48.4441 30.8213 48.7425 31.0539 48.7425 31.5191C48.7475 31.6759 48.6942 31.8289 48.5928 31.9488C48.4868 32.0661 48.3464 32.1472 48.1915 32.1804V32.1887C48.3738 32.2002 48.5463 32.2749 48.6791 32.4001C48.7375 32.4624 48.7829 32.5358 48.8126 32.6158C48.8422 32.6959 48.8555 32.781 48.8517 32.8663C48.8588 32.9803 48.8381 33.0944 48.7912 33.1986C48.7443 33.3029 48.6727 33.3943 48.5826 33.4649C48.3654 33.6117 48.1057 33.6833 47.8436 33.6687C47.5465 33.6686 47.3003 33.6635 47.1035 33.6528ZM47.8399 31.0306C47.7232 31.0306 47.553 31.035 47.3257 31.0433V32.1158H47.8754C48.0412 32.1228 48.204 32.0698 48.3337 31.9665C48.3941 31.9185 48.4424 31.857 48.4746 31.787C48.5068 31.717 48.5221 31.6405 48.5192 31.5635C48.5192 31.2084 48.2928 31.0308 47.8399 31.0306ZM47.8641 32.3132H47.3257V33.4427C47.5948 33.4535 47.7713 33.4592 47.8514 33.4592C48.0556 33.4724 48.2584 33.4183 48.4289 33.3054C48.4961 33.2518 48.5493 33.1827 48.584 33.1042C48.6188 33.0256 48.6339 32.9399 48.6282 32.8543C48.6317 32.7764 48.6154 32.699 48.5808 32.6292C48.5461 32.5593 48.4943 32.4994 48.4301 32.455C48.2607 32.3505 48.0629 32.301 47.8641 32.3132Z" fill="white"/>
<path d="M54.8921 33.6563H53.2861V30.833H54.8516V31.0431H53.5082V32.1195H54.7309V32.3296H53.5082V33.447H54.8921V33.6563Z" fill="white"/>
<path d="M59.521 32.5229V33.6561H59.2988V30.8328C59.4094 30.8328 59.5236 30.8315 59.6429 30.8291C59.761 30.8265 59.8779 30.8245 59.9909 30.8245C60.1564 30.8213 60.3211 30.8459 60.4784 30.8973C60.5979 30.9357 60.7058 31.0036 60.7919 31.0947C60.8616 31.173 60.9151 31.2642 60.9494 31.3631C60.9828 31.4639 60.9991 31.5695 60.9976 31.6756C61.0004 31.7898 60.9793 31.9033 60.9356 32.0089C60.8919 32.1144 60.8265 32.2098 60.7438 32.2887C60.5359 32.4681 60.2652 32.558 59.9909 32.5387C59.8042 32.5387 59.6481 32.5336 59.521 32.5229ZM60.0112 31.0346C59.9222 31.0346 59.7588 31.0374 59.521 31.0429V32.309C59.7154 32.3223 59.869 32.3291 59.9819 32.3293C60.1898 32.3422 60.3953 32.279 60.5597 32.1515C60.6273 32.0918 60.6807 32.0177 60.7158 31.9346C60.751 31.8516 60.767 31.7618 60.7628 31.6718C60.7676 31.5849 60.7532 31.498 60.7208 31.4173C60.6883 31.3365 60.6385 31.2638 60.5748 31.2043C60.4147 31.0798 60.2137 31.0193 60.0112 31.0346Z" fill="white"/>
<path d="M67.4561 31.1963L65.5502 33.6563H65.3523V30.833H65.5745V33.2931L67.4801 30.833H67.6781V33.6563H67.4561V31.1963Z" fill="white"/>
<path d="M79.0041 31.1963L77.0985 33.6563H76.9004V30.833H77.1226V33.2931L79.0282 30.833H79.2262V33.6563H79.0041V31.1963Z" fill="white"/>
<path d="M90.6486 33.6563H90.425V31.0431H88.6692V33.6563H88.447V30.833H90.6485L90.6486 33.6563Z" fill="white"/>
<path d="M96.839 33.6563H95.2332V30.833H96.7984V31.0431H95.4552V32.1195H96.6778V32.3296H95.4552V33.447H96.839V33.6563Z" fill="white"/>
<path d="M101.468 32.5229V33.6561H101.246V30.8328C101.356 30.8328 101.47 30.8315 101.59 30.8291C101.708 30.8265 101.825 30.8245 101.938 30.8245C102.103 30.8213 102.268 30.8459 102.425 30.8973C102.545 30.9357 102.652 31.0036 102.739 31.0947C102.808 31.173 102.862 31.2642 102.896 31.3631C102.929 31.4639 102.946 31.5695 102.944 31.6756C102.947 31.7898 102.926 31.9033 102.882 32.0089C102.839 32.1144 102.773 32.2098 102.69 32.2887C102.483 32.4681 102.212 32.558 101.938 32.5387C101.751 32.5387 101.595 32.5336 101.468 32.5229ZM101.958 31.0346C101.869 31.0346 101.705 31.0372 101.468 31.0429V32.309C101.662 32.3223 101.816 32.3291 101.929 32.3293C102.137 32.3422 102.342 32.279 102.506 32.1515C102.574 32.0918 102.627 32.0177 102.663 31.9347C102.698 31.8516 102.714 31.7618 102.71 31.6718C102.714 31.5849 102.7 31.498 102.667 31.4173C102.635 31.3365 102.585 31.2638 102.522 31.2043C102.361 31.0798 102.16 31.0193 101.958 31.0346Z" fill="white"/>
<path d="M108.905 33.6563H107.299V30.833H108.864V31.0431H107.521V32.1195H108.744V32.3296H107.521V33.447H108.905L108.905 33.6563Z" fill="white"/>
<path d="M113.534 33.6563H113.312V30.833H114.873V31.0431H113.534V33.6563Z" fill="white"/>
<path d="M118.688 32.2446C118.683 32.0542 118.716 31.8647 118.786 31.6873C118.855 31.5099 118.96 31.3483 119.093 31.212C119.363 30.9467 119.727 30.7976 120.106 30.7969C120.486 30.7962 120.85 30.9438 121.121 31.2081C121.256 31.3442 121.362 31.5062 121.432 31.6845C121.502 31.8627 121.535 32.0533 121.528 32.2446C121.533 32.4357 121.5 32.6259 121.43 32.8039C121.36 32.9819 121.255 33.1441 121.121 33.281C120.99 33.4156 120.832 33.5216 120.658 33.5924C120.484 33.6632 120.297 33.6972 120.109 33.6923C119.921 33.6973 119.734 33.6637 119.559 33.5937C119.384 33.5238 119.226 33.4188 119.093 33.2855C118.959 33.1484 118.853 32.9854 118.784 32.8065C118.714 32.6276 118.682 32.4364 118.688 32.2446ZM118.923 32.2446C118.919 32.4069 118.947 32.5684 119.005 32.72C119.063 32.8716 119.151 33.0102 119.263 33.1279C119.372 33.2429 119.503 33.3339 119.648 33.395C119.794 33.4562 119.951 33.4861 120.109 33.4829C120.268 33.4879 120.426 33.4588 120.572 33.3975C120.719 33.3363 120.851 33.2443 120.958 33.1279C121.182 32.8888 121.303 32.5716 121.295 32.2446C121.3 32.0818 121.272 31.9197 121.213 31.7679C121.154 31.6161 121.065 31.4778 120.951 31.3613C120.841 31.249 120.71 31.1597 120.565 31.0988C120.42 31.0378 120.264 31.0064 120.107 31.0064C119.95 31.0064 119.794 31.0378 119.649 31.0988C119.504 31.1597 119.373 31.249 119.263 31.3613C119.151 31.4784 119.062 31.617 119.004 31.7687C118.945 31.9204 118.918 32.0822 118.923 32.2446Z" fill="white"/>
<path d="M126.105 32.5229V33.6561H125.883V30.8328C125.994 30.8328 126.108 30.8315 126.227 30.8291C126.345 30.8265 126.462 30.8245 126.575 30.8245C126.741 30.8213 126.905 30.8459 127.063 30.8973C127.182 30.9358 127.29 31.0037 127.376 31.0947C127.446 31.173 127.499 31.2642 127.534 31.3631C127.567 31.4639 127.583 31.5695 127.582 31.6756C127.585 31.7898 127.563 31.9033 127.52 32.0089C127.476 32.1145 127.411 32.2098 127.328 32.2887C127.12 32.4681 126.849 32.558 126.575 32.5387C126.388 32.5387 126.232 32.5336 126.105 32.5229ZM126.595 31.0346C126.506 31.0346 126.343 31.0372 126.105 31.0429V32.309C126.3 32.3223 126.453 32.3291 126.566 32.3293C126.774 32.3423 126.979 32.279 127.144 32.1516C127.211 32.0918 127.265 32.0177 127.3 31.9347C127.335 31.8516 127.351 31.7618 127.347 31.6718C127.352 31.5849 127.337 31.4981 127.305 31.4173C127.272 31.3366 127.223 31.2638 127.159 31.2043C126.999 31.0798 126.798 31.0193 126.595 31.0346Z" fill="white"/>
<path d="M131.652 32.2446C131.647 32.0542 131.68 31.8647 131.749 31.6873C131.819 31.5099 131.924 31.3483 132.057 31.212C132.327 30.9467 132.691 30.7976 133.07 30.7969C133.449 30.7962 133.814 30.9438 134.085 31.2081C134.22 31.3441 134.326 31.5062 134.396 31.6844C134.466 31.8627 134.499 32.0533 134.492 32.2446C134.497 32.4357 134.464 32.6259 134.394 32.8039C134.324 32.9819 134.218 33.1441 134.085 33.281C133.954 33.4156 133.796 33.5216 133.622 33.5924C133.448 33.6632 133.261 33.6972 133.073 33.6923C132.884 33.6973 132.697 33.6637 132.523 33.5937C132.348 33.5238 132.19 33.4188 132.057 33.2855C131.922 33.1484 131.817 32.9854 131.747 32.8065C131.678 32.6276 131.645 32.4364 131.652 32.2446ZM131.887 32.2446C131.883 32.4069 131.91 32.5684 131.969 32.72C132.027 32.8716 132.115 33.0102 132.227 33.1279C132.335 33.2429 132.466 33.3339 132.612 33.395C132.758 33.4562 132.915 33.4861 133.073 33.4829C133.231 33.4879 133.39 33.4587 133.536 33.3975C133.683 33.3362 133.814 33.2443 133.922 33.1279C134.146 32.8888 134.267 32.5716 134.259 32.2446C134.264 32.0818 134.236 31.9197 134.177 31.7679C134.118 31.6161 134.029 31.4778 133.915 31.3613C133.805 31.249 133.674 31.1597 133.529 31.0988C133.384 31.0378 133.228 31.0064 133.071 31.0064C132.914 31.0064 132.758 31.0378 132.613 31.0988C132.468 31.1597 132.337 31.249 132.227 31.3613C132.114 31.4784 132.026 31.617 131.968 31.7687C131.909 31.9204 131.882 32.0822 131.887 32.2446Z" fill="white"/>
<path d="M138.519 34.1968H138.308V33.4469H138.612C138.745 33.234 138.844 33.0011 138.904 32.7572C139.022 32.3133 139.088 31.8572 139.102 31.3981L139.13 30.833H140.724V33.4469H141.109V34.1968H140.898V33.6563H138.519V34.1968ZM139.344 31.0431L139.312 31.5588C139.291 31.9838 139.226 32.4055 139.118 32.8173C139.069 33.0405 138.981 33.2535 138.859 33.4469H140.502V31.0431H139.344Z" fill="white"/>
<path d="M145.603 33.6563H145.381V30.833H145.603V33.6563ZM147.068 30.833H147.339L145.999 32.1682L147.396 33.6563H147.109L145.737 32.184L147.068 30.833Z" fill="white"/>
<path d="M153.749 31.1963L151.843 33.6563H151.645V30.833H151.867V33.2931L153.773 30.833H153.971V33.6563H153.749V31.1963Z" fill="white"/>
</g>
<defs>
<clipPath id="clip0_70_4227">
<rect width="161" height="35" fill="white"/>
</clipPath>
</defs>
</svg>
