<svg width="126" height="37" viewBox="0 0 126 37" fill="none" xmlns="http://www.w3.org/2000/svg">
<path d="M85.1084 11.6441C84.41 11.6441 83.7855 11.5187 83.2349 11.2678C82.6843 11.0132 82.2483 10.6609 81.9268 10.2107C81.6053 9.76062 81.4353 9.24224 81.4169 8.65561H82.4645C82.483 9.06883 82.6104 9.4304 82.8469 9.74032C83.0834 10.0466 83.3975 10.2864 83.7892 10.4598C84.1809 10.6295 84.617 10.7144 85.0973 10.7144C85.6221 10.7144 86.084 10.6166 86.4831 10.421C86.8858 10.2255 87.1999 9.95801 87.4253 9.61857C87.6545 9.27545 87.769 8.88805 87.769 8.45637C87.769 7.99887 87.6526 7.59487 87.4198 7.24437C87.187 6.89386 86.8526 6.62084 86.4165 6.42529C85.9842 6.22975 85.4669 6.13198 84.8645 6.13198H84.1994V5.20222H84.8645C85.356 5.20222 85.7902 5.11367 86.1671 4.93657C86.5477 4.75579 86.847 4.50306 87.0651 4.17838C87.2831 3.8537 87.3921 3.47184 87.3921 3.03278C87.3921 2.61587 87.2979 2.24876 87.1094 1.93146C86.9209 1.61416 86.6549 1.36512 86.3112 1.18433C85.9713 1.00355 85.574 0.913155 85.1195 0.913155C84.6798 0.913155 84.277 0.998014 83.9112 1.16773C83.5453 1.33745 83.2497 1.57727 83.0243 1.88719C82.8026 2.19711 82.6843 2.56421 82.6696 2.98851H81.6663C81.6811 2.39819 81.8437 1.87981 82.1541 1.43338C82.4682 0.983256 82.8839 0.632752 83.4012 0.381865C83.9222 0.127288 84.4987 0 85.1306 0C85.7994 0 86.3777 0.136512 86.8655 0.409537C87.3533 0.68256 87.7302 1.04598 87.9963 1.49979C88.266 1.94991 88.4009 2.44615 88.4009 2.98851C88.4009 3.63417 88.2254 4.1876 87.8743 4.64879C87.5233 5.10629 87.0503 5.42359 86.4553 5.60069V5.67263C87.1796 5.81652 87.7487 6.13751 88.1625 6.6356C88.5801 7.12999 88.7889 7.73692 88.7889 8.45637C88.7889 9.06145 88.63 9.60566 88.3122 10.089C87.9944 10.5686 87.5584 10.9486 87.0041 11.229C86.4535 11.5058 85.8216 11.6441 85.1084 11.6441Z" fill="white"/>
<path d="M71.1163 11.4892V10.731L74.8245 6.56918C75.3086 6.02314 75.6984 5.55641 75.9941 5.16901C76.2897 4.78161 76.504 4.42373 76.637 4.09536C76.7738 3.767 76.8421 3.42572 76.8421 3.07152C76.8421 2.63985 76.7405 2.26352 76.5373 1.94253C76.3377 1.61785 76.0624 1.36512 75.7114 1.18433C75.3603 1.00355 74.9649 0.913155 74.5252 0.913155C74.0596 0.913155 73.6513 1.01277 73.3002 1.21201C72.9529 1.41124 72.6831 1.68426 72.491 2.03108C72.2988 2.37789 72.2027 2.77636 72.2027 3.22648H71.2106C71.2106 2.59926 71.3547 2.04399 71.6429 1.56067C71.9348 1.07365 72.3321 0.691784 72.8346 0.41507C73.3409 0.138357 73.9136 0 74.5529 0C75.1848 0 75.7465 0.136512 76.2379 0.409537C76.7294 0.678871 77.1156 1.04598 77.3964 1.51086C77.6772 1.97574 77.8177 2.49596 77.8177 3.07152C77.8177 3.48844 77.7438 3.89244 77.596 4.28353C77.4518 4.67462 77.2024 5.10998 76.8477 5.58962C76.4929 6.06925 76.0015 6.65589 75.3733 7.34952L72.5575 10.4875V10.5594H78.1724V11.4892H71.1163Z" fill="white"/>
<path d="M64.2873 11.6441C63.4891 11.6441 62.8073 11.4154 62.242 10.9579C61.6803 10.4967 61.248 9.83072 60.9449 8.95999C60.6456 8.08927 60.496 7.04329 60.496 5.82206C60.496 4.60452 60.6456 3.56223 60.9449 2.69519C61.248 1.82447 61.6821 1.15851 62.2475 0.697318C62.8166 0.232439 63.4965 0 64.2873 0C65.0781 0 65.7562 0.232439 66.3215 0.697318C66.8906 1.15851 67.3248 1.82447 67.6241 2.69519C67.9271 3.56223 68.0786 4.60452 68.0786 5.82206C68.0786 7.04329 67.9271 8.08927 67.6241 8.95999C67.3248 9.83072 66.8924 10.4967 66.3271 10.9579C65.7654 11.4154 65.0855 11.6441 64.2873 11.6441ZM64.2873 10.7144C65.1631 10.7144 65.8467 10.2882 66.3382 9.43594C66.8296 8.57997 67.0754 7.37534 67.0754 5.82206C67.0754 4.78899 66.9627 3.9072 66.7372 3.17667C66.5155 2.44246 66.1959 1.88165 65.7783 1.49425C65.3645 1.10686 64.8675 0.913155 64.2873 0.913155C63.4189 0.913155 62.7371 1.34483 62.242 2.20818C61.7468 3.06783 61.4992 4.27246 61.4992 5.82206C61.4992 6.85512 61.6101 7.73692 61.8318 8.46744C62.0572 9.19797 62.3769 9.75508 62.7907 10.1388C63.2083 10.5225 63.7071 10.7144 64.2873 10.7144Z" fill="white"/>
<path d="M50.4564 11.4892V10.731L54.1645 6.56918C54.6486 6.02314 55.0385 5.55641 55.3341 5.16901C55.6297 4.78161 55.844 4.42373 55.9771 4.09536C56.1138 3.767 56.1821 3.42572 56.1821 3.07152C56.1821 2.63985 56.0805 2.26352 55.8773 1.94253C55.6777 1.61785 55.4025 1.36512 55.0514 1.18433C54.7004 1.00355 54.305 0.913155 53.8652 0.913155C53.3996 0.913155 52.9913 1.01277 52.6403 1.21201C52.2929 1.41124 52.0231 1.68426 51.831 2.03108C51.6388 2.37789 51.5428 2.77636 51.5428 3.22648H50.5506C50.5506 2.59926 50.6947 2.04399 50.9829 1.56067C51.2749 1.07365 51.6721 0.691784 52.1747 0.41507C52.6809 0.138357 53.2537 0 53.8929 0C54.5248 0 55.0865 0.136512 55.578 0.409537C56.0694 0.678871 56.4556 1.04598 56.7364 1.51086C57.0173 1.97574 57.1577 2.49596 57.1577 3.07152C57.1577 3.48844 57.0838 3.89244 56.936 4.28353C56.7919 4.67462 56.5424 5.10998 56.1877 5.58962C55.8329 6.06925 55.3415 6.65589 54.7133 7.34952L51.8975 10.4875V10.5594H57.5124V11.4892H50.4564Z" fill="white"/>
<path d="M85.7705 16.4921H87.3565C87.7549 16.4921 88.0907 16.5572 88.3641 16.6873C88.6393 16.8175 88.8475 17.001 88.9887 17.2378C89.1318 17.4746 89.2033 17.7539 89.2033 18.0757C89.2033 18.3974 89.1318 18.6813 88.9887 18.9271C88.8475 19.173 88.6393 19.3655 88.3641 19.5047C88.0907 19.6439 87.7549 19.7135 87.3565 19.7135H85.2708V14.1602H85.9443V19.1278H87.3565C87.61 19.1278 87.8246 19.0771 88.0002 18.9759C88.1776 18.8729 88.3116 18.7409 88.4021 18.58C88.4945 18.4173 88.5406 18.2456 88.5406 18.0648C88.5406 17.7991 88.4383 17.5704 88.2337 17.3788C88.0291 17.1854 87.7367 17.0887 87.3565 17.0887H85.7705V16.4921ZM90.4199 14.1602V19.7135H89.7464V14.1602H90.4199Z" fill="white"/>
<path d="M78.2854 21.0584V19.1169H78.6439C78.767 19.0048 78.8829 18.8467 78.9915 18.6424C79.102 18.4363 79.1952 18.1615 79.2713 17.8181C79.3491 17.4728 79.4007 17.0344 79.4261 16.503L79.5456 14.1602H82.848V19.1169H83.4889V21.0476H82.848V19.7135H78.9264V21.0584H78.2854ZM79.4478 19.1169H82.207V14.7567H80.1539L80.067 16.503C80.0453 16.9079 80.0072 17.2748 79.9529 17.6039C79.8986 17.9311 79.8289 18.2212 79.7438 18.4743C79.6587 18.7255 79.56 18.9398 79.4478 19.1169Z" fill="white"/>
<path d="M73.1428 19.7135V14.1602H75.0221C75.4585 14.1602 75.8152 14.2388 76.0922 14.3961C76.371 14.5515 76.5774 14.7621 76.7114 15.0279C76.8453 15.2936 76.9123 15.5901 76.9123 15.9173C76.9123 16.2445 76.8453 16.5418 76.7114 16.8094C76.5792 17.0769 76.3746 17.2902 76.0976 17.4493C75.8206 17.6066 75.4657 17.6852 75.033 17.6852H73.686V17.0887H75.0113C75.31 17.0887 75.5499 17.0371 75.731 16.9341C75.912 16.8311 76.0433 16.6919 76.1248 16.5165C76.208 16.3394 76.2497 16.1396 76.2497 15.9173C76.2497 15.6949 76.208 15.4961 76.1248 15.3207C76.0433 15.1454 75.9111 15.008 75.7283 14.9086C75.5454 14.8073 75.3028 14.7567 75.0004 14.7567H73.8163V19.7135H73.1428Z" fill="white"/>
<path d="M71.2474 16.9366C71.2474 17.5223 71.1414 18.0284 70.9296 18.455C70.7178 18.8817 70.4272 19.2107 70.0578 19.4421C69.6885 19.6734 69.2666 19.7891 68.7923 19.7891C68.3179 19.7891 67.8961 19.6734 67.5267 19.4421C67.1574 19.2107 66.8668 18.8817 66.655 18.455C66.4431 18.0284 66.3372 17.5223 66.3372 16.9366C66.3372 16.3509 66.4431 15.8447 66.655 15.4181C66.8668 14.9915 67.1574 14.6625 67.5267 14.4311C67.8961 14.1997 68.3179 14.084 68.7923 14.084C69.2666 14.084 69.6885 14.1997 70.0578 14.4311C70.4272 14.6625 70.7178 14.9915 70.9296 15.4181C71.1414 15.8447 71.2474 16.3509 71.2474 16.9366ZM70.5956 16.9366C70.5956 16.4557 70.515 16.0499 70.3539 15.7191C70.1945 15.3883 69.9782 15.1379 69.7048 14.968C69.4332 14.798 69.129 14.7131 68.7923 14.7131C68.4555 14.7131 68.1505 14.798 67.8771 14.968C67.6055 15.1379 67.3891 15.3883 67.228 15.7191C67.0687 16.0499 66.989 16.4557 66.989 16.9366C66.989 17.4174 67.0687 17.8232 67.228 18.1541C67.3891 18.4849 67.6055 18.7352 67.8771 18.9052C68.1505 19.0751 68.4555 19.16 68.7923 19.16C69.129 19.16 69.4332 19.0751 69.7048 18.9052C69.9782 18.7352 70.1945 18.4849 70.3539 18.1541C70.515 17.8232 70.5956 17.4174 70.5956 16.9366Z" fill="white"/>
<path d="M64.3732 19.7135L62.4613 17.1646H61.7769V19.7135H61.1034V14.1602H61.7769V16.568H62.0702L64.2971 14.1602H65.101L62.8523 16.6006L65.177 19.7135H64.3732Z" fill="white"/>
<path d="M55.7702 19.7135V14.1602H59.1269V14.7567H56.4437V16.6331H58.9531V17.2297H56.4437V19.1169H59.1703V19.7135H55.7702Z" fill="white"/>
<path d="M50.1515 19.7135V14.1602H52.0308C52.4672 14.1602 52.8239 14.2388 53.1009 14.3961C53.3797 14.5515 53.5861 14.7621 53.7201 15.0279C53.854 15.2936 53.921 15.5901 53.921 15.9173C53.921 16.2445 53.854 16.5418 53.7201 16.8094C53.5879 17.0769 53.3833 17.2902 53.1063 17.4493C52.8293 17.6066 52.4744 17.6852 52.0417 17.6852H50.6947V17.0887H52.02C52.3187 17.0887 52.5586 17.0371 52.7397 16.9341C52.9207 16.8311 53.052 16.6919 53.1335 16.5165C53.2167 16.3394 53.2584 16.1396 53.2584 15.9173C53.2584 15.6949 53.2167 15.4961 53.1335 15.3207C53.052 15.1454 52.9198 15.008 52.7369 14.9086C52.5541 14.8073 52.3115 14.7567 52.0091 14.7567H50.825V19.7135H50.1515Z" fill="white"/>
<path d="M75.3945 27.6138H74.6884L76.7307 22.0605H77.4259L79.4682 27.6138H78.7621L77.1 22.9391H77.0566L75.3945 27.6138ZM75.6552 25.4446H78.5014V26.0411H75.6552V25.4446Z" fill="white"/>
<path d="M72.7307 27.6138L70.8188 25.065H70.1344V27.6138H69.4609V22.0605H70.1344V24.4684H70.4277L72.6547 22.0605H73.4585L71.2099 24.501L73.5346 27.6138H72.7307Z" fill="white"/>
<path d="M63.032 27.6138V22.0605H63.7055V24.5335H66.6711V22.0605H67.3446V27.6138H66.6711V25.13H63.7055V27.6138H63.032Z" fill="white"/>
<path d="M56.2699 24.3925H57.8559C58.2542 24.3925 58.5901 24.4576 58.8635 24.5877C59.1387 24.7179 59.3469 24.9014 59.4881 25.1382C59.6311 25.375 59.7026 25.6543 59.7026 25.9761C59.7026 26.2978 59.6311 26.5816 59.4881 26.8275C59.3469 27.0733 59.1387 27.2659 58.8635 27.4051C58.5901 27.5443 58.2542 27.6138 57.8559 27.6138H55.7702V22.0605H56.4437V27.0281H57.8559C58.1094 27.0281 58.3239 26.9775 58.4995 26.8763C58.677 26.7733 58.8109 26.6413 58.9015 26.4804C58.9938 26.3177 59.04 26.146 59.04 25.9652C59.04 25.6995 58.9377 25.4708 58.7331 25.2792C58.5285 25.0858 58.2361 24.989 57.8559 24.989H56.2699V24.3925ZM60.9193 22.0605V27.6138H60.2458V22.0605H60.9193Z" fill="white"/>
<path d="M50.1515 27.6138V22.0605H52.0308C52.4672 22.0605 52.8239 22.1392 53.1009 22.2965C53.3797 22.4519 53.5861 22.6625 53.7201 22.9283C53.854 23.194 53.921 23.4904 53.921 23.8176C53.921 24.1448 53.854 24.4422 53.7201 24.7098C53.5879 24.9773 53.3833 25.1906 53.1063 25.3497C52.8293 25.507 52.4744 25.5856 52.0417 25.5856H50.6947V24.989H52.02C52.3187 24.989 52.5586 24.9375 52.7397 24.8345C52.9207 24.7314 53.052 24.5923 53.1335 24.4169C53.2167 24.2397 53.2584 24.04 53.2584 23.8176C53.2584 23.5953 53.2167 23.3964 53.1335 23.2211C53.052 23.0458 52.9198 22.9084 52.7369 22.8089C52.5541 22.7077 52.3115 22.6571 52.0091 22.6571H50.825V27.6138H50.1515Z" fill="white"/>
<path d="M121.389 30.1016H122.052V34.4726H122.106L125.148 30.1016H125.8V35.6549H125.126V31.2947H125.072L122.041 35.6549H121.389V30.1016Z" fill="white"/>
<path d="M115.413 30.6981V30.1016H119.584V30.6981H117.835V35.6549H117.162V30.6981H115.413Z" fill="white"/>
<path d="M113.862 31.8367H113.188C113.149 31.6433 113.079 31.4734 112.979 31.3269C112.882 31.1805 112.762 31.0576 112.621 30.9582C112.481 30.8569 112.327 30.781 112.156 30.7304C111.986 30.6798 111.809 30.6545 111.624 30.6545C111.287 30.6545 110.982 30.7394 110.709 30.9094C110.437 31.0793 110.221 31.3297 110.06 31.6605C109.9 31.9913 109.821 32.3971 109.821 32.878C109.821 33.3588 109.9 33.7646 110.06 34.0955C110.221 34.4263 110.437 34.6766 110.709 34.8466C110.982 35.0165 111.287 35.1015 111.624 35.1015C111.809 35.1015 111.986 35.0761 112.156 35.0255C112.327 34.9749 112.481 34.8999 112.621 34.8005C112.762 34.6992 112.882 34.5754 112.979 34.429C113.079 34.2808 113.149 34.1108 113.188 33.9192H113.862C113.811 34.203 113.719 34.457 113.585 34.6812C113.451 34.9053 113.284 35.096 113.085 35.2533C112.886 35.4088 112.662 35.5272 112.414 35.6085C112.168 35.6899 111.905 35.7305 111.624 35.7305C111.15 35.7305 110.728 35.6148 110.359 35.3835C109.989 35.1521 109.699 34.8231 109.487 34.3964C109.275 33.9698 109.169 33.4637 109.169 32.878C109.169 32.2923 109.275 31.7861 109.487 31.3595C109.699 30.9329 109.989 30.6039 110.359 30.3725C110.728 30.1411 111.15 30.0254 111.624 30.0254C111.905 30.0254 112.168 30.0661 112.414 30.1474C112.662 30.2288 112.886 30.3481 113.085 30.5053C113.284 30.6608 113.451 30.8506 113.585 31.0748C113.719 31.2971 113.811 31.5511 113.862 31.8367Z" fill="white"/>
<path d="M107.489 32.878C107.489 33.4637 107.384 33.9698 107.172 34.3964C106.96 34.8231 106.669 35.1521 106.3 35.3835C105.931 35.6148 105.509 35.7305 105.034 35.7305C104.56 35.7305 104.138 35.6148 103.769 35.3835C103.399 35.1521 103.109 34.8231 102.897 34.3964C102.685 33.9698 102.579 33.4637 102.579 32.878C102.579 32.2923 102.685 31.7861 102.897 31.3595C103.109 30.9329 103.399 30.6039 103.769 30.3725C104.138 30.1411 104.56 30.0254 105.034 30.0254C105.509 30.0254 105.931 30.1411 106.3 30.3725C106.669 30.6039 106.96 30.9329 107.172 31.3595C107.384 31.7861 107.489 32.2923 107.489 32.878ZM106.838 32.878C106.838 32.3971 106.757 31.9913 106.596 31.6605C106.437 31.3297 106.22 31.0793 105.947 30.9094C105.675 30.7394 105.371 30.6545 105.034 30.6545C104.698 30.6545 104.393 30.7394 104.119 30.9094C103.848 31.0793 103.631 31.3297 103.47 31.6605C103.311 31.9913 103.231 32.3971 103.231 32.878C103.231 33.3588 103.311 33.7646 103.47 34.0955C103.631 34.4263 103.848 34.6766 104.119 34.8466C104.393 35.0165 104.698 35.1015 105.034 35.1015C105.371 35.1015 105.675 35.0165 105.947 34.8466C106.22 34.6766 106.437 34.4263 106.596 34.0955C106.757 33.7646 106.838 33.3588 106.838 32.878Z" fill="white"/>
<path d="M95.2281 30.1016H96.032L97.9222 34.7112H97.9873L99.8775 30.1016H100.681V35.6549H100.051V31.4357H99.997L98.2589 35.6549H97.6506L95.9125 31.4357H95.8582V35.6549H95.2281V30.1016Z" fill="white"/>
<path d="M88.707 30.1016H89.3697V34.4726H89.424L92.4657 30.1016H93.1175V35.6549H92.4439V31.2947H92.3896L89.3588 35.6549H88.707V30.1016Z" fill="white"/>
<path d="M83.9745 30.1016V35.6549H83.301V30.1016H83.9745ZM80.2158 35.6549L82.0191 32.7589L80.3679 30.1016H81.1826L82.6274 32.5637H84.6588L86.1036 30.1016H86.9184L85.2563 32.7698L87.0596 35.6549H86.2883L84.7783 33.1928H82.4971L80.9762 35.6549H80.2158Z" fill="white"/>
<path d="M74.1609 30.1016H74.8235V34.4726H74.8778L77.9195 30.1016H78.5713V35.6549H77.8978V31.2947H77.8435L74.8126 35.6549H74.1609V30.1016Z" fill="white"/>
<path d="M68.4221 35.6549V30.1016H70.3666C70.754 30.1016 71.0736 30.1684 71.3253 30.3022C71.5769 30.4342 71.7643 30.6122 71.8874 30.8364C72.0105 31.0587 72.0721 31.3055 72.0721 31.5767C72.0721 31.8153 72.0296 32.0123 71.9445 32.1678C71.8612 32.3232 71.7507 32.4462 71.6131 32.5366C71.4773 32.6269 71.3298 32.6938 71.1705 32.7372V32.7914C71.3407 32.8023 71.5117 32.8619 71.6837 32.9704C71.8557 33.0789 71.9997 33.2343 72.1156 33.4368C72.2314 33.6393 72.2894 33.8869 72.2894 34.1798C72.2894 34.4582 72.226 34.7085 72.0993 34.9309C71.9725 35.1532 71.7725 35.3295 71.4991 35.4596C71.2257 35.5898 70.8699 35.6549 70.4318 35.6549H68.4221ZM69.0956 35.0583H70.4318C70.8717 35.0583 71.184 34.9734 71.3687 34.8034C71.5552 34.6317 71.6484 34.4238 71.6484 34.1798C71.6484 33.9918 71.6005 33.8182 71.5045 33.6591C71.4085 33.4983 71.2719 33.3699 71.0944 33.2741C70.917 33.1765 70.707 33.1277 70.4644 33.1277H69.0956V35.0583ZM69.0956 32.542H70.3449C70.5476 32.542 70.7305 32.5022 70.8935 32.4227C71.0582 32.3431 71.1886 32.2311 71.2845 32.0864C71.3823 31.9418 71.4312 31.7719 71.4312 31.5767C71.4312 31.3326 71.3461 31.1256 71.1759 30.9557C71.0057 30.784 70.7359 30.6981 70.3666 30.6981H69.0956V32.542Z" fill="white"/>
<path d="M61.4322 36.9998V35.0583H61.7907C61.9138 34.9462 62.0297 34.7881 62.1383 34.5838C62.2487 34.3777 62.342 34.1029 62.418 33.7595C62.4959 33.4142 62.5475 32.9758 62.5728 32.4444L62.6923 30.1016H65.9947V35.0583H66.6356V36.989H65.9947V35.6549H62.0731V36.9998H61.4322ZM62.5945 35.0583H65.3538V30.6981H63.3007L63.2137 32.4444C63.192 32.8493 63.154 33.2163 63.0997 33.5453C63.0454 33.8725 62.9757 34.1626 62.8906 34.4157C62.8055 34.6669 62.7068 34.8812 62.5945 35.0583Z" fill="white"/>
<path d="M56.5768 35.6549V30.1016H59.9336V30.6981H57.2504V32.5745H59.7597V33.1711H57.2504V35.0583H59.977V35.6549H56.5768Z" fill="white"/>
<path d="M50.1515 35.6549V30.1016H50.825V32.5745H53.7907V30.1016H54.4642V35.6549H53.7907V33.1711H50.825V35.6549H50.1515Z" fill="white"/>
<path d="M0 14.1984H5.52064L12.1724 24.8582V14.1984H18.334V35.5194H13.1486L6.16155 24.4321V35.5194H0V14.1984ZM18.8953 21.6459C18.8953 17.3638 21.7699 13.9004 26.2437 13.9004C30.6695 13.9004 33.5461 17.3638 33.5461 21.5091C33.5461 25.7932 30.5788 29.2564 26.1976 29.2564C21.8162 29.2564 18.8953 25.8392 18.8953 21.6459ZM19.3525 30.1404H33.135V35.4723H19.3525V30.1404ZM28.5241 21.5553C28.5241 19.7773 27.5209 18.3654 26.1976 18.3654C24.8276 18.3654 23.915 19.733 23.915 21.6016C23.915 23.4238 24.9203 24.7914 26.2437 24.7914C27.5672 24.7914 28.5241 23.4238 28.5241 21.5553Z" fill="#FF0000"/>
<path d="M34.2096 9.19104L28.2718 10.5474L26.4095 3.01024L36.7259 0.0957031H45.2196V35.52H34.2096V9.19104Z" fill="#FF0000"/>
</svg>
