<svg width="154" height="20" viewBox="0 0 154 20" fill="none" xmlns="http://www.w3.org/2000/svg">
<path fill-rule="evenodd" clip-rule="evenodd" d="M25.3793 10.0049L19.1041 19.4672L13.0454 19.4672L19.3084 10.0049L25.3793 10.0049Z" fill="white"/>
<path fill-rule="evenodd" clip-rule="evenodd" d="M19.3148 10.0041L13.0454 0.545898L19.1041 0.545898L25.3793 10.0041L19.3148 10.0041Z" fill="white"/>
<path fill-rule="evenodd" clip-rule="evenodd" d="M0 0.545898L0.272967 0.545898L11.6453 0.545898L11.6453 5.08893L5.57963 5.08893L5.57963 7.73609L11.0747 7.73609L11.0747 11.897L5.57963 11.897L5.57963 14.9292L11.6453 14.9292L11.6453 19.4664L11.3701 19.4664L8.24771e-07 19.4664L0 0.545898Z" fill="white"/>
<path fill-rule="evenodd" clip-rule="evenodd" d="M33.2393 0.544922L41.4897 0.544922C43.5122 0.544921 45.0241 0.977778 46.0255 1.84351C46.948 2.59462 47.6449 3.58657 48.0395 4.70966C48.1623 5.07353 48.254 5.44716 48.3138 5.82655C48.4242 6.51699 48.4242 7.22063 48.3138 7.91107C48.2532 8.29359 48.1615 8.67049 48.0395 9.038C47.6558 10.1649 46.9634 11.1611 46.0414 11.9127C45.0324 12.7825 43.5122 13.2246 41.4897 13.2246L38.8117 13.2246L38.8117 19.4658L33.2393 19.4658L33.2393 0.544922ZM38.8117 9.05551L40.0565 9.05551C40.6512 9.10329 41.2464 8.97002 41.7642 8.67317C42.0767 8.47666 42.3295 8.19821 42.4952 7.86802C42.5607 7.686 42.6056 7.49716 42.629 7.30508C42.643 7.12167 42.6528 6.97729 42.6528 6.86795C42.6528 6.7606 42.6499 6.65208 42.6397 6.54303C42.6332 6.43821 42.6122 6.33517 42.6044 6.22325C42.4928 5.81255 42.2548 5.44753 41.9242 5.18013C41.375 4.81096 40.7147 4.64463 40.0565 4.70966L38.8117 4.70966L38.8117 9.05551Z" fill="white"/>
<path fill-rule="evenodd" clip-rule="evenodd" d="M52.1643 17.0066C50.4543 15.0796 49.526 12.5817 49.562 10.0041C49.5324 7.44053 50.4413 4.95486 52.1168 3.01651C53.8271 1.00695 56.3682 0.00144978 59.74 -4.4616e-07L60.0126 -4.58108e-07C63.3839 -6.05879e-07 65.922 1.0055 67.627 3.01651C69.3075 4.95224 70.2188 7.43921 70.1872 10.0041C70.2287 12.5677 69.316 15.055 67.627 16.9818C65.9244 18.9561 63.3839 19.9631 60.0126 19.9791L59.74 19.9992C56.4206 19.9992 53.8953 19.0017 52.1643 17.0066ZM60.4173 15.4286C60.62 15.3999 60.819 15.3501 61.0112 15.2796C61.9416 15.0043 62.7668 14.4533 63.3785 13.6991C64.0973 12.8788 64.4457 11.6488 64.4457 10.0041C64.4457 8.36364 64.0808 7.13535 63.3716 6.31098C62.7545 5.56626 61.9344 5.01734 61.0112 4.7311C60.8141 4.67825 60.624 4.63433 60.4287 4.59817C60.2452 4.56529 60.0592 4.5479 59.8728 4.54621C59.6648 4.54859 59.4572 4.56596 59.2516 4.59817C59.041 4.63411 58.8335 4.68679 58.6313 4.75573C57.7296 5.06212 56.9348 5.62146 56.3413 6.36723C55.6455 7.19018 55.3015 8.40061 55.3015 10.0041C55.3015 11.6083 55.6455 12.8171 56.3413 13.6435C56.9345 14.39 57.7293 14.95 58.6313 15.2566C58.8338 15.3201 59.03 15.3729 59.2409 15.4181C59.4415 15.4526 59.6446 15.4697 59.848 15.4692C60.0385 15.4677 60.2286 15.4543 60.4173 15.4286Z" fill="white"/>
<path fill-rule="evenodd" clip-rule="evenodd" d="M82.757 5.84635L82.4842 5.84635C82.3948 5.77058 82.303 5.69398 82.2181 5.61474C82.1247 5.53009 82.033 5.45515 81.9441 5.37936C81.5194 5.05712 81.0666 4.77381 80.5912 4.5329C80.145 4.30535 79.6536 4.1807 79.1529 4.16805C78.7623 4.15692 78.3769 4.26037 78.0442 4.46569C77.8101 4.61966 77.6233 4.83559 77.5042 5.08948C77.4348 5.20685 77.387 5.33576 77.3632 5.47007C77.3496 5.57558 77.3418 5.68174 77.3397 5.7881C77.3313 5.96454 77.364 6.14053 77.4351 6.30218C77.5062 6.46382 77.6139 6.6067 77.7495 6.71958C78.0154 6.94943 78.3274 7.11946 78.6645 7.21816C78.8231 7.2779 78.9865 7.3239 79.1529 7.35565C79.3225 7.39786 79.4608 7.43059 79.5875 7.46298C79.9119 7.53623 80.2865 7.62993 80.7111 7.74406C81.1629 7.87722 81.6042 8.04387 82.0313 8.24261C82.9453 8.68625 83.7542 9.32009 84.404 10.1018C85.1275 10.9368 85.4944 12.1634 85.4944 13.7941C85.4944 15.9702 84.7753 17.5449 83.3372 18.5183C81.8714 19.503 80.1391 20.0132 78.3744 19.9799L78.1016 20C77.6196 19.9954 77.1389 19.9527 76.6638 19.8722C76.2055 19.7998 75.7535 19.6914 75.312 19.5481C74.5993 19.3106 73.9154 18.9934 73.2735 18.6026C72.48 18.121 71.7244 17.5794 71.0132 16.9826L73.524 12.9502L73.797 12.9502C73.888 13.0434 73.9798 13.1253 74.0721 13.2099C74.1575 13.2955 74.2481 13.3704 74.3387 13.4709C74.8684 13.9197 75.4328 14.3259 76.0263 14.6856C76.6124 15.0455 77.2598 15.294 77.9358 15.4187L78.1514 15.4549C78.2254 15.4646 78.2998 15.4696 78.3744 15.4698C78.7659 15.4845 79.1525 15.3787 79.482 15.1667C79.6937 15.0154 79.8618 14.8109 79.9693 14.5738C80.0198 14.4551 80.0551 14.3304 80.0742 14.2028C80.0862 14.0733 80.1011 13.9622 80.1011 13.8779C80.1296 13.5862 80.0761 13.2925 79.9466 13.0296C79.8171 12.7668 79.6169 12.5455 79.3685 12.3907C78.8002 12.0635 78.1893 11.8169 77.5535 11.6575L77.4251 11.6117L77.2595 11.5703C76.9728 11.5 76.6604 11.4153 76.3296 11.3051C75.9959 11.1932 75.6514 11.0717 75.312 10.9236C74.431 10.5099 73.6472 9.91423 73.0121 9.1758C72.3047 8.39622 71.9556 7.24113 71.9556 5.70457C71.9421 4.94586 72.0886 4.19282 72.3854 3.49464C72.6823 2.79645 73.1228 2.1688 73.6782 1.65269C74.8202 0.549559 76.4643 0.00878882 78.6129 0.00878873L78.8846 0.00878872C79.6679 0.0391192 80.4476 0.131928 81.2161 0.286324C82.4068 0.54023 83.5305 1.04277 84.5141 1.76116L84.5869 1.81571L84.6505 1.86598L82.757 5.84635Z" fill="white"/>
<path fill-rule="evenodd" clip-rule="evenodd" d="M89.7818 5.08893L85.6157 5.08893L85.6157 0.545898L85.8804 0.545898L99.5252 0.545898L99.5252 5.08893L95.3603 5.08893L95.3603 19.4664L95.0874 19.4664L89.7818 19.4664L89.7818 5.08893Z" fill="white"/>
<path fill-rule="evenodd" clip-rule="evenodd" d="M101.381 0.544922L109.496 0.544922C109.684 0.544922 110.081 0.569615 110.714 0.610941C111.406 0.671845 112.085 0.842565 112.723 1.11674C113.603 1.49231 114.386 2.06499 115.01 2.79074C115.768 3.76691 116.14 4.98966 116.051 6.22325C116.051 7.87862 115.658 9.14019 114.874 9.99471C114.167 10.7959 113.282 11.4189 112.289 11.8132L112.174 11.8625L112.071 11.8961L117.373 19.4658L110.687 19.4658L106.954 13.6537L106.954 19.4658L101.381 19.4658L101.381 0.544922ZM107.986 9.05551C108.328 9.09363 108.674 9.05749 109.001 8.94956C109.327 8.84162 109.627 8.66442 109.879 8.43003C110.223 8.05954 110.433 7.58546 110.478 7.08212L110.478 6.59495C110.411 6.10773 110.191 5.65428 109.851 5.29893C109.597 5.07834 109.3 4.91225 108.979 4.8109C108.658 4.70955 108.32 4.67511 107.986 4.70966L106.954 4.70966L106.954 9.05551L107.986 9.05551Z" fill="white"/>
<path fill-rule="evenodd" clip-rule="evenodd" d="M119.746 17.0066C118.038 15.0787 117.11 12.5812 117.146 10.0041C117.118 7.43982 118.029 4.95405 119.706 3.01651C121.411 1.00695 123.951 0.00144978 127.325 -4.46222e-07L127.597 -4.58136e-07C130.973 -6.06116e-07 133.512 1.0055 135.215 3.01651C136.893 4.95357 137.803 7.43994 137.772 10.0041C137.813 12.5669 136.902 15.0536 135.215 16.9818C133.51 18.9561 130.973 19.9631 127.597 19.9791L127.325 19.9992C124.004 19.9992 121.478 19.0017 119.746 17.0066ZM128.003 15.4286C128.206 15.3999 128.406 15.3501 128.599 15.2796C129.528 15.0031 130.354 14.4523 130.966 13.6991C131.682 12.8788 132.039 11.6471 132.037 10.0041C132.037 8.36364 131.675 7.13535 130.953 6.31098C130.339 5.56562 129.521 5.01644 128.599 4.7311C128.401 4.67825 128.202 4.63433 128.017 4.59817C127.833 4.56537 127.646 4.548 127.458 4.54621C127.251 4.54846 127.042 4.56583 126.837 4.59817C126.626 4.63275 126.42 4.68547 126.218 4.75573C125.316 5.06179 124.52 5.62118 123.927 6.36723C123.236 7.19018 122.885 8.40061 122.885 10.0041C122.885 11.6083 123.236 12.8171 123.927 13.6435C124.52 14.3903 125.316 14.9503 126.218 15.2566C126.417 15.3207 126.619 15.3746 126.825 15.4181C127.026 15.4526 127.231 15.4697 127.436 15.4692C127.626 15.4675 127.815 15.4539 128.003 15.4286Z" fill="white"/>
<path fill-rule="evenodd" clip-rule="evenodd" d="M154.003 0.545898L147.936 0.545898L144.746 5.3523L141.559 0.545898L135.491 0.545898L142.033 10.3974L142.033 19.4664L147.613 19.4664L147.613 10.1593L154.003 0.545898Z" fill="white"/>
<path fill-rule="evenodd" clip-rule="evenodd" d="M19.3262 10.0049L25.6032 19.4672L31.6636 19.4672L25.3936 10.0049L19.3262 10.0049Z" fill="#D59000"/>
<path fill-rule="evenodd" clip-rule="evenodd" d="M25.3936 10.0041L31.6636 0.545898L25.6032 0.545898L19.3262 10.0041L25.3936 10.0041Z" fill="#FCCE01"/>
</svg>
