<svg width="135" height="42" viewBox="0 0 135 42" fill="none" xmlns="http://www.w3.org/2000/svg">
<path d="M16.3257 38.3976C17.8235 34.869 21.2698 25.6381 21.8419 23.7342C21.9677 23.342 22.0774 22.9683 22.0774 22.738C22.0774 22.5195 21.9982 22.2444 21.7313 22.1214C21.4311 22.0125 21.048 22.0125 20.7593 22.0125C20.5986 22.0125 20.4713 21.9916 20.4713 21.8552C20.4713 21.7059 20.635 21.6464 21.048 21.6464C22.0774 21.6464 23.258 21.7173 23.5765 21.7173C23.7213 21.7173 24.825 21.6464 25.5818 21.6464C25.8595 21.6464 26.0158 21.7068 26.0158 21.8313C26.0158 21.9678 25.9061 22.0132 25.7104 22.0132C25.5302 22.0132 24.9681 22.0132 24.4701 22.3399C24.1363 22.577 23.749 23.0163 23.0502 24.8239C22.7666 25.562 21.4893 28.7268 20.1768 31.9826C18.5926 35.8362 17.4365 38.7072 16.8289 39.9869C16.1149 41.5773 16.0254 41.9986 15.7551 41.9986C15.4422 41.9986 15.3195 41.6302 14.822 40.3619L8.50847 24.1549C7.95009 22.6858 7.5554 22.3882 6.65875 22.1214C6.26832 22.0125 5.83152 22.0125 5.67816 22.0125C5.5268 22.0125 5.47241 21.926 5.47241 21.8306C5.47241 21.6693 5.73554 21.6455 6.14402 21.6455C7.38224 21.6455 8.85677 21.7163 9.16802 21.7163C9.4174 21.7163 10.5841 21.6455 11.5563 21.6455C12.0239 21.6455 12.2549 21.7059 12.2549 21.8306C12.2549 21.9669 12.1793 22.0125 11.9903 22.0125C11.7169 22.0125 11.251 22.0377 11.019 22.1452C10.7362 22.281 10.6889 22.4822 10.6889 22.6851C10.6889 23.0153 10.9891 23.8326 11.3708 24.8722L16.3257 38.3976Z" fill="white"/>
<path d="M32.3499 33.9603C32.3499 36.5019 32.3499 38.5949 32.4795 39.7015C32.5484 40.4681 32.704 41.0423 33.4777 41.1482C33.8492 41.2011 34.4103 41.2511 34.6401 41.2511C34.8031 41.2511 34.8481 41.3399 34.8481 41.4108C34.8481 41.5457 34.7209 41.6306 34.4432 41.6306C33.0168 41.6306 31.3924 41.5457 31.2695 41.5457C31.1315 41.5457 29.5132 41.6306 28.7322 41.6306C28.4551 41.6306 28.3208 41.5777 28.3208 41.4108C28.3208 41.3399 28.3724 41.2511 28.5242 41.2511C28.7606 41.2511 29.0745 41.202 29.3109 41.1482C29.8256 41.0416 29.9587 40.4681 30.0512 39.7015C30.1789 38.5949 30.179 36.5019 30.179 33.9603V29.3148C30.179 25.1924 30.179 24.4453 30.1261 23.6056C30.078 22.6973 29.8256 22.2455 29.255 22.1224C28.9701 22.039 28.6355 22.0136 28.4553 22.0136C28.3521 22.0136 28.2516 21.9689 28.2516 21.8562C28.2516 21.7072 28.3724 21.6475 28.6749 21.6475C29.5132 21.6475 31.1315 21.7184 31.2695 21.7184C31.3924 21.7184 33.0168 21.6475 33.7919 21.6475C34.0738 21.6475 34.2011 21.7079 34.2011 21.8562C34.2011 21.9689 34.0921 22.0136 33.9976 22.0136C33.8157 22.0136 33.6588 22.039 33.346 22.0911C32.6584 22.2292 32.4539 22.6862 32.4038 23.6049C32.3506 24.4447 32.3507 25.1917 32.3507 29.314L32.3499 33.9603Z" fill="white"/>
<path d="M57.2381 33.9999C57.2381 37.8887 57.3421 39.5777 57.8103 40.0579C58.2183 40.4778 58.8856 40.667 60.9032 40.667C62.273 40.667 63.3999 40.6441 64.0186 39.8753C64.3422 39.4465 64.614 38.7857 64.6832 38.2846C64.7188 38.0723 64.7639 37.941 64.9195 37.941C65.0423 37.941 65.0699 38.0475 65.0699 38.33C65.0699 38.6328 64.8918 40.216 64.6832 40.9937C64.5116 41.5799 64.4351 41.705 63.0641 41.705C61.2034 41.705 59.8737 41.6396 58.7868 41.6172C57.7043 41.5642 56.9074 41.5322 56.1614 41.5322C56.0568 41.5322 55.619 41.5642 55.1043 41.5642C54.5968 41.5799 54.024 41.6172 53.637 41.6172C53.347 41.6172 53.2205 41.5642 53.2205 41.3973C53.2205 41.3264 53.2707 41.2377 53.4225 41.2377C53.6538 41.2377 53.9658 41.1883 54.1969 41.1348C54.7181 41.028 54.8462 40.4547 54.9486 39.6881C55.0775 38.5815 55.0775 36.4882 55.0775 33.947V29.3013C55.0775 25.179 55.0775 24.432 55.0286 23.5922C54.977 22.6838 54.764 22.2686 53.915 22.0784C53.717 22.0263 53.2707 22.0009 53.0308 22.0009C52.9369 22.0009 52.8446 21.9561 52.8446 21.8434C52.8446 21.6945 52.9602 21.6348 53.2446 21.6348C54.4114 21.6348 56.024 21.7056 56.1621 21.7056C56.2844 21.7056 58.1688 21.6348 58.938 21.6348C59.2217 21.6348 59.3547 21.6952 59.3547 21.8434C59.3547 21.9561 59.2485 22.0009 59.1517 22.0009C58.9735 22.0009 58.6094 22.0263 58.2955 22.0784C57.5501 22.2165 57.3429 22.6734 57.2913 23.5922C57.2389 24.432 57.2389 25.179 57.2389 29.3013L57.2381 33.9999Z" fill="white"/>
<path d="M42.7723 33.9999C42.7723 37.8887 42.8763 39.5777 43.3444 40.0579C43.7524 40.4778 44.4198 40.667 46.4373 40.667C47.8071 40.667 48.9341 40.6441 49.5528 39.8753C49.8763 39.4465 50.1482 38.7857 50.2174 38.2846C50.2529 38.0723 50.2981 37.941 50.4537 37.941C50.5765 37.941 50.6041 38.0475 50.6041 38.33C50.6041 38.6328 50.4259 40.216 50.2174 40.9937C50.0458 41.5799 49.9693 41.705 48.5983 41.705C46.7375 41.705 45.4079 41.6396 44.321 41.6172C43.2384 41.5642 42.4415 41.5322 41.6955 41.5322C41.591 41.5322 41.1532 41.5642 40.6384 41.5642C40.131 41.5799 39.5582 41.6172 39.1712 41.6172C38.8812 41.6172 38.7547 41.5642 38.7547 41.3973C38.7547 41.3264 38.8049 41.2377 38.9567 41.2377C39.188 41.2377 39.5 41.1883 39.7311 41.1348C40.2523 41.028 40.3804 40.4547 40.4828 39.6881C40.6116 38.5815 40.6116 36.4882 40.6116 33.947V29.3013C40.6116 25.179 40.6116 24.432 40.5628 23.5922C40.5112 22.6838 40.2982 22.2686 39.4491 22.0784C39.2512 22.0263 38.8049 22.0009 38.565 22.0009C38.4711 22.0009 38.3788 21.9561 38.3788 21.8434C38.3788 21.6945 38.4943 21.6348 38.7788 21.6348C39.9455 21.6348 41.5582 21.7056 41.6963 21.7056C41.8185 21.7056 43.703 21.6348 44.4721 21.6348C44.7558 21.6348 44.8889 21.6952 44.8889 21.8434C44.8889 21.9561 44.7827 22.0009 44.6859 22.0009C44.5077 22.0009 44.1436 22.0263 43.8296 22.0784C43.0843 22.2165 42.877 22.6734 42.8254 23.5922C42.773 24.432 42.773 25.179 42.773 29.3013L42.7723 33.9999Z" fill="white"/>
<path d="M78.2793 32.8881C78.4071 32.8881 78.4071 32.7994 78.3861 32.7041L75.9374 25.5617C75.8067 25.1574 75.6836 25.1574 75.5513 25.5617L73.2836 32.7041C73.2458 32.8151 73.2836 32.8881 73.3615 32.8881H78.2793ZM75.6001 22.3118C75.9039 21.4328 76.0094 21.2783 76.1693 21.2783C76.3322 21.2783 76.4354 21.4103 76.7409 22.2284C77.1188 23.229 81.1735 34.1521 82.7451 38.1602C83.6687 40.5203 84.4333 40.9453 84.9684 41.0946C85.3503 41.2324 85.7273 41.2504 85.9871 41.2504C86.1486 41.2504 86.242 41.2862 86.242 41.4101C86.242 41.577 86.015 41.6299 85.7273 41.6299C85.3503 41.6299 83.4605 41.6299 81.6797 41.577C81.2071 41.545 80.9169 41.545 80.9169 41.3927C80.9169 41.2862 80.9926 41.2333 81.0893 41.2013C81.2412 41.1481 81.4151 40.9162 81.2412 40.4899L78.8499 33.9865C78.7999 33.8836 78.7497 33.8306 78.6114 33.8306H73.0824C72.9559 33.8306 72.8825 33.9015 72.8162 34.0328L71.2726 38.7277C71.0385 39.3833 70.9085 40.0104 70.9085 40.4899C70.9085 41.0243 71.4595 41.251 71.8943 41.251H72.1429C72.3241 41.251 72.4193 41.3078 72.4193 41.4107C72.4193 41.5776 72.2446 41.6308 72.0236 41.6308C71.4072 41.6308 70.3028 41.5456 70.0133 41.5456C69.7306 41.5456 68.3085 41.6308 67.0994 41.6308C66.7525 41.6308 66.6094 41.5776 66.6094 41.4107C66.6094 41.3078 66.7169 41.251 66.8427 41.251C67.0172 41.251 67.393 41.2333 67.596 41.202C68.7754 41.0423 69.2901 40.0401 69.7597 38.7285L75.6001 22.3118Z" fill="white"/>
<path d="M99.9534 34.8935C99.9534 32.7527 99.8281 32.4634 98.7987 32.1665C98.5775 32.1024 98.1571 32.0855 97.9219 32.0855C97.803 32.0855 97.7112 32.0361 97.7112 31.9362C97.7112 31.7736 97.8284 31.717 98.1202 31.717C99.2872 31.717 100.902 31.7915 101.035 31.7915C101.165 31.7915 102.787 31.717 103.556 31.717C103.856 31.717 103.969 31.7736 103.969 31.9362C103.969 32.0361 103.866 32.0855 103.77 32.0855C103.586 32.0855 103.437 32.1024 103.121 32.1665C102.431 32.2882 102.22 32.7527 102.177 33.6722C102.125 34.5149 102.125 35.3158 102.125 36.4172V39.3842C102.125 40.5692 102.089 40.6399 101.781 40.8182C100.135 41.7197 97.803 42.0002 96.323 42.0002C94.3586 42.0002 90.7044 41.736 87.8451 39.1694C86.27 37.7779 84.7784 34.9405 84.7784 31.6468C84.7784 27.4114 86.7723 24.43 89.0883 22.9334C91.4042 21.4651 93.9439 21.2803 95.9263 21.2803C97.5457 21.2803 99.3937 21.6246 99.8608 21.7186C100.405 21.8565 101.313 21.9691 101.972 21.993C102.219 22.0139 102.273 22.1227 102.273 22.2302C102.273 22.6038 102.088 23.3436 102.088 25.9817C102.088 26.4158 102.042 26.535 101.86 26.535C101.729 26.535 101.7 26.3868 101.679 26.1354C101.653 25.7701 101.528 25.0348 101.128 24.398C100.498 23.3844 98.4029 22.2452 95.0839 22.2452C93.4547 22.2452 91.519 22.4173 89.5644 23.9959C88.0737 25.2054 87.0297 27.6247 87.0297 30.7178C87.0297 34.4365 88.8375 37.139 89.7505 38.036C91.7796 40.0709 94.1209 40.8698 96.4902 40.8698C97.4261 40.8698 98.7619 40.6996 99.4396 40.3119C99.7691 40.1261 99.9534 39.8354 99.9534 39.3842V34.8935Z" fill="white"/>
<path d="M109.839 33.9603C109.839 36.5019 109.839 38.5949 109.974 39.7015C110.042 40.4681 110.198 41.0423 110.969 41.1482C111.322 41.2011 111.898 41.2511 112.117 41.2511C112.274 41.2511 112.342 41.3399 112.342 41.4108C112.342 41.5457 112.199 41.6306 111.93 41.6306C110.498 41.6306 108.88 41.5457 108.749 41.5457C108.621 41.5457 107.019 41.6306 106.226 41.6306C105.938 41.6306 105.817 41.5777 105.817 41.4108C105.817 41.3399 105.864 41.2511 106.02 41.2511C106.237 41.2511 106.573 41.202 106.791 41.1482C107.3 41.0416 107.435 40.4681 107.538 39.7015C107.66 38.5949 107.66 36.5019 107.66 33.9603V29.3148C107.66 25.1924 107.66 24.4453 107.607 23.6056C107.557 22.6973 107.3 22.2455 106.748 22.1224C106.446 22.039 106.128 22.0136 105.937 22.0136C105.838 22.0136 105.729 21.9689 105.729 21.8562C105.729 21.7072 105.864 21.6475 106.149 21.6475C107.018 21.6475 108.62 21.7184 108.748 21.7184C108.879 21.7184 110.496 21.6475 111.262 21.6475C111.558 21.6475 111.677 21.7079 111.677 21.8562C111.677 21.9689 111.573 22.0136 111.482 22.0136C111.29 22.0136 111.151 22.039 110.837 22.0911C110.155 22.2292 109.942 22.6862 109.884 23.6049C109.838 24.4447 109.838 25.1917 109.838 29.314V33.9603" fill="white"/>
<path d="M123.818 41.0069C126.144 41.0069 130.944 39.6168 130.944 31.9355C130.944 25.5894 127.169 22.1794 123.108 22.1794C118.794 22.1794 115.569 25.0795 115.569 30.8609C115.568 37.0217 119.188 41.0069 123.818 41.0069ZM123.271 21.2793C129.087 21.2793 133.412 25.0347 133.412 31.1889C133.412 37.106 129.339 41.9992 123.127 41.9992C116.072 41.9992 113.13 36.3694 113.13 31.6036C113.13 27.3218 116.169 21.2793 123.271 21.2793Z" fill="white"/>
<path d="M54.8042 0L67.2696 12.7895L68.0103 12.037L56.272 0H54.8042Z" fill="white"/>
<path d="M74.2117 0H72.7329L68.1306 4.71202L68.8637 5.47202L74.2117 0Z" fill="white"/>
<path d="M70.2776 6.91935L77.0275 0H75.5488L69.5388 6.16548L70.2776 6.91935Z" fill="white"/>
<path d="M57.6051 0L68.7237 11.4033L69.4633 10.6419L59.0854 0H57.6051Z" fill="white"/>
<path d="M78.2692 0L70.9052 7.56669L71.6379 8.31964L79.7438 0H78.2692Z" fill="white"/>
<path d="M60.5792 0L70.1682 9.83061L70.9092 9.07742L62.058 0H60.5792Z" fill="white"/>
<path d="M62.8229 12.5469H0V13.2596H62.8229V12.5469Z" fill="white"/>
<path d="M134.4 12.5469H71.5759V13.2596H134.4V12.5469Z" fill="white"/>
</svg>
