<svg width="110" height="42" viewBox="0 0 110 42" fill="none" xmlns="http://www.w3.org/2000/svg">
<path d="M17.7261 4.375H12.9414V0H27.7726V4.375H22.9879V17.0625H17.7261V4.375Z" fill="white"/>
<path d="M34.5557 11.4904C33.9753 11.7734 33.3305 11.9407 32.6857 12.0823C31.6281 12.3267 31.0865 12.5841 31.0865 13.4205C31.0865 13.9995 31.7055 14.5657 32.5696 14.5657C33.64 14.5657 34.4912 13.9223 34.5557 12.6356V11.4904ZM39.0953 14.2826C39.0953 15.2091 39.1469 16.2643 39.6757 17.0492H34.8394C34.7233 16.7146 34.6459 16.2128 34.6717 15.8782H34.6202C33.6142 17.0234 32.1569 17.358 30.6222 17.358C28.2234 17.358 26.2373 16.2128 26.2373 13.6135C26.2373 9.70175 30.8285 9.84329 33.2531 9.38006C33.8979 9.26425 34.5428 9.07123 34.5428 8.28631C34.5428 7.44991 33.7561 7.14109 32.9823 7.14109C31.5249 7.14109 31.2283 7.87454 31.2154 8.40212H26.8048C26.8821 6.66498 27.7333 5.63557 28.9585 5.05653C30.1579 4.47748 31.7313 4.33594 33.2015 4.33594C39.134 4.33594 39.0824 6.79366 39.0824 9.18704V14.2826H39.0953Z" fill="white"/>
<path d="M41.6113 4.65746H46.1639V6.63908H46.2154C46.9764 5.1593 47.9823 4.34863 49.7105 4.34863C50.1876 4.34863 50.639 4.42584 51.1033 4.54165V8.72363C50.6261 8.55635 50.2005 8.41481 49.2333 8.41481C47.3633 8.41481 46.3573 9.50856 46.3573 12.1593V17.049H41.6242V4.65746H41.6113Z" fill="white"/>
<path d="M51.8506 0H56.5966V8.24816L59.6015 4.65809H64.9665L60.543 9.34191L65.6629 17.0625H59.9626L57.4349 12.5717L56.5966 13.4724V17.0625H51.8506V0Z" fill="white"/>
<path d="M73.967 9.45743C73.967 8.31221 73.1029 7.38574 71.8906 7.38574C70.472 7.38574 69.6595 8.1192 69.4531 9.45743H73.967ZM69.4144 11.9152C69.5305 13.3306 70.343 14.3214 71.8261 14.3214C72.587 14.3214 73.4253 14.0383 73.8122 13.4335H78.2358C77.2814 16.11 74.6763 17.3453 71.8519 17.3453C67.8797 17.3453 64.8877 15.0034 64.8877 10.8729C64.8877 7.26993 67.5186 4.32324 71.4521 4.32324C76.3787 4.32324 78.5195 7.06405 78.5195 11.8894H69.4144V11.9152Z" fill="white"/>
<path d="M85.237 4.65791H87.7777V7.57887H85.237V11.9024C85.237 13.0476 85.495 13.5495 86.6943 13.5495C87.0555 13.5495 87.4166 13.5237 87.7648 13.4723V17.0495C86.8104 17.0495 85.7271 17.191 84.7211 17.191C82.7093 17.191 80.4781 16.8822 80.4781 13.4851V7.566H78.376V4.65791H80.4781V0.887695H85.2112V4.65791H85.237Z" fill="white"/>
<path d="M94.9753 4.65791H97.5159V7.57887H94.9753V11.9024C94.9753 13.0476 95.2332 13.5495 96.4326 13.5495C96.7937 13.5495 97.1548 13.5237 97.503 13.4723V17.0495C96.5487 17.0495 95.4654 17.191 94.4594 17.191C92.4475 17.191 90.2164 16.8822 90.2164 13.4851V7.566H88.1143V4.65791H90.2164V0.887695H94.9495V4.65791H94.9753Z" fill="white"/>
<path d="M3.70541 36.621L8.24504 24.5512C7.92263 24.4868 7.60021 24.4482 7.30359 24.4482C6.00102 24.3968 5.34329 24.3968 4.04072 24.4482C2.28677 24.4868 -0.112013 25.4519 0.00405752 27.4335C0.468338 30.496 0.93262 33.5585 1.384 36.621H3.70541ZM8.52877 20.5751C8.52877 22.3122 7.12303 23.7148 5.38198 23.7148C3.64093 23.7148 2.23519 22.3122 2.23519 20.5751C2.23519 18.8508 3.64093 17.4482 5.38198 17.4482C7.12303 17.4482 8.52877 18.8508 8.52877 20.5751Z" fill="white"/>
<path d="M11.9627 28.9264H18.2821L15.174 20.2536H15.1224L11.9627 28.9264ZM13.8069 18.0146H16.5539L23.8406 36.6084H21.0936L19.0559 31.011H11.176L9.08675 36.6084H6.5332L13.8069 18.0146Z" fill="white"/>
<path d="M33.4213 27.4722C33.0859 25.7737 31.9123 24.7829 30.081 24.7829C26.8697 24.7829 25.8767 27.3049 25.8767 30.0457C25.8767 32.5163 26.9987 34.974 29.8231 34.974C31.9639 34.974 33.2407 33.7259 33.5244 31.6928H35.7943C35.3042 34.974 33.2407 36.9299 29.836 36.9299C25.709 36.9299 23.5166 34.0604 23.5166 30.0586C23.5166 26.0182 25.6059 22.8398 29.8876 22.8398C32.9441 22.8398 35.3945 24.2682 35.704 27.4722H33.4213Z" fill="white"/>
<path d="M45.5822 29.66C44.7181 30.2906 43.0544 30.3163 41.5584 30.5736C40.1011 30.831 38.8372 31.3586 38.8372 32.9928C38.8372 34.4468 40.0882 34.9744 41.4424 34.9744C44.3699 34.9744 45.5693 33.1472 45.5693 31.9248V29.66H45.5822ZM49.1804 36.5571C48.7935 36.7887 48.2905 36.9174 47.5941 36.9174C46.4463 36.9174 45.7112 36.2869 45.7112 34.8328C44.486 36.2611 42.8352 36.9174 40.9652 36.9174C38.5148 36.9174 36.5029 35.8236 36.5029 33.1343C36.5029 30.0847 38.7727 29.4413 41.0684 28.9909C43.5187 28.5277 45.608 28.6821 45.608 27.0093C45.608 25.0792 44.0088 24.7703 42.6031 24.7703C40.7201 24.7703 39.3402 25.3494 39.237 27.3181H37.0188C37.1478 23.9854 39.74 22.8145 42.732 22.8145C45.1566 22.8145 47.8004 23.3549 47.8004 26.5075V33.4303C47.8004 34.4725 47.8004 34.9358 48.5097 34.9358C48.6903 34.9358 48.8967 34.91 49.1933 34.8071V36.5571H49.1804Z" fill="white"/>
<path d="M74.0073 28.5909C73.9041 26.4806 72.3049 24.7821 70.1125 24.7821C67.7911 24.7821 66.4111 26.5321 66.2435 28.5909H74.0073ZM76.1481 32.3354C75.542 35.3078 73.4011 36.9162 70.3833 36.9162C66.0758 36.9162 64.0381 33.9438 63.9092 29.8262C63.9092 25.7857 66.5659 22.8262 70.2544 22.8262C75.0261 22.8262 76.4963 27.2784 76.3674 30.5339H66.2693C66.1919 32.8758 67.5203 34.9604 70.4736 34.9604C72.3049 34.9604 73.5817 34.0725 73.9686 32.3354H76.1481Z" fill="white"/>
<path d="M77.6152 23.1487H79.7045V25.1303H79.7561C80.7491 23.6248 82.258 22.8398 84.1152 22.8398C85.7531 22.8398 87.2749 23.4961 87.8165 25.1303C88.7322 23.702 90.3185 22.8398 92.0466 22.8398C94.742 22.8398 96.5347 23.9593 96.5347 26.7516V36.6211H94.3165V27.781C94.3165 26.1082 93.878 24.7829 91.7113 24.7829C89.5705 24.7829 88.1905 26.134 88.1905 28.2185V36.6082H85.9723V27.781C85.9723 26.031 85.4177 24.7829 83.4445 24.7829C80.8136 24.7829 79.8464 27.202 79.8464 28.2185V36.6082H77.6281V23.1487H77.6152Z" fill="white"/>
<path d="M104.132 38.4095C103.113 41.0345 102.197 41.9995 100.211 41.9995C99.6954 41.9995 99.1667 41.9481 98.6766 41.7679V39.7348C99.0893 39.8635 99.5407 40.0437 99.9792 40.0437C100.895 40.0437 101.385 39.6062 101.81 38.8212L102.726 36.5308L97.374 23.1484H99.876L103.822 34.1631H103.874L107.653 23.1484H110L104.132 38.4095Z" fill="white"/>
<path d="M56.0044 34.9737C53.1285 34.9737 51.8259 32.5288 51.8259 29.9939C51.8259 27.3689 52.8448 24.7825 55.8755 24.7825C58.932 24.7825 60.1314 27.2274 60.1314 29.891C60.1185 32.4259 58.9707 34.9737 56.0044 34.9737ZM60.0411 19.1465V24.9498H59.9895C58.9965 23.3671 57.0104 22.8395 55.6304 22.8395C51.5035 22.8395 49.4658 26.0435 49.4658 29.8395C49.4658 33.6355 51.5293 36.9296 55.682 36.9296C57.5391 36.9296 59.2544 36.2733 59.9895 34.7935H60.0411V36.6208H62.2593V19.1465H60.0411Z" fill="white"/>
</svg>
