<svg width="187" height="84" viewBox="0 0 187 84" fill="none" xmlns="http://www.w3.org/2000/svg">
<path opacity="0.5" d="M140.857 81.2424L142.815 80.3754L145.209 79.2338C146.057 78.7871 147.004 78.3403 147.96 77.7964C148.469 77.5219 148.99 77.2317 149.522 76.9259C149.517 76.8687 149.511 76.7963 149.503 76.711C149.491 76.6062 149.493 76.4783 149.486 76.3444C149.394 76.344 149.303 76.3308 149.217 76.3053C148.737 76.158 148.291 75.9465 147.898 75.6794C147.479 75.4077 147.106 75.0923 146.788 74.7416C145.711 73.6332 145.074 71.9631 144.795 69.9212C144.784 69.853 144.774 69.7857 144.765 69.7175C144.547 67.7361 145.74 65.84 146.581 64.4631C146.914 63.9652 147.201 63.5346 147.449 63.1843C147.782 62.7128 148.04 62.388 148.236 62.2465C148.287 62.1988 148.359 62.1685 148.436 62.1612C148.731 62.1467 149.387 62.5448 150.003 63.2439C150.249 63.5277 150.465 63.8287 150.646 64.1434C151.421 65.3864 151.843 67.1273 152.064 68.9944C152.071 69.0652 152.077 69.1352 152.081 69.206C152.2 70.9964 151.505 72.71 150.976 73.9974C150.808 74.37 150.662 74.7067 150.511 75.0007C150.197 75.6368 149.938 76.0768 149.684 76.2575C149.684 76.2822 149.692 76.3061 149.695 76.3299C149.718 76.4604 149.733 76.5798 149.76 76.6846C149.768 76.717 149.774 76.7469 149.78 76.7759C151.203 75.9497 152.692 75.0144 154.217 73.9624C155.655 72.9726 157.12 71.8761 158.571 70.6724C158.559 70.628 158.546 70.5777 158.53 70.5214C158.5 70.4191 158.479 70.2921 158.449 70.1609C158.359 70.1719 158.266 70.1693 158.177 70.1532C157.676 70.0635 157.197 69.9062 156.76 69.6876C156.3 69.4681 155.877 69.2007 155.501 68.8922C154.242 67.9212 153.315 66.3422 152.676 64.354C152.654 64.2883 152.632 64.2219 152.611 64.1553C152.044 62.2208 152.89 60.2046 153.481 58.7441C153.722 58.213 153.93 57.7526 154.11 57.3801C154.355 56.8745 154.554 56.5275 154.723 56.357C154.766 56.3051 154.831 56.2683 154.906 56.2538C155.196 56.2052 155.915 56.5224 156.648 57.143C156.942 57.3937 157.209 57.6651 157.445 57.9538C158.431 59.0937 159.155 60.7673 159.705 62.59C159.724 62.6591 159.743 62.7282 159.76 62.7963C160.192 64.5535 159.809 66.332 159.512 67.667C159.407 68.0558 159.32 68.407 159.23 68.7149C159.035 69.3799 158.852 69.8462 158.632 70.0551L158.657 70.1259C158.703 70.2512 158.739 70.3672 158.784 70.4668C158.784 70.4754 158.79 70.4839 158.794 70.4925C159.481 69.9179 160.162 69.3184 160.838 68.6944C162.811 66.8612 164.605 64.9063 166.206 62.8476L166.156 62.7477C166.105 62.6505 166.059 62.5287 166.003 62.4067C165.916 62.4293 165.824 62.4392 165.732 62.4357C165.217 62.4129 164.71 62.3196 164.232 62.1595C163.732 62.0048 163.259 61.7976 162.825 61.543C161.384 60.7528 160.153 59.3187 159.122 57.4423C159.086 57.3809 159.051 57.3187 159.017 57.2556C158.073 55.4217 158.492 53.3219 158.783 51.7991C158.914 51.2432 159.026 50.7624 159.131 50.3677C159.271 49.8357 159.397 49.4622 159.53 49.279C159.562 49.2217 159.619 49.1764 159.69 49.1519C159.966 49.0666 160.74 49.2832 161.587 49.7974C161.929 50.0051 162.247 50.2374 162.538 50.4913C163.741 51.4845 164.792 53.0353 165.702 54.7635C165.735 54.8283 165.767 54.8948 165.798 54.9605C166.579 56.6348 166.559 58.4397 166.537 59.7979C166.516 60.1935 166.497 60.5525 166.47 60.8687C166.412 61.5507 166.325 62.035 166.155 62.2703C166.169 62.2925 166.182 62.3147 166.194 62.336C166.258 62.4425 166.312 62.5423 166.369 62.6292C166.554 62.3877 166.737 62.145 166.919 61.9012C167.833 60.6453 168.687 59.3324 169.479 57.9752C170.252 56.611 170.959 55.2 171.577 53.7516C171.597 53.7046 171.616 53.6577 171.635 53.6108L171.571 53.5315C171.497 53.4463 171.42 53.3329 171.334 53.2187C171.254 53.2558 171.167 53.2809 171.077 53.2928C170.57 53.3558 170.054 53.3496 169.549 53.2741C169.021 53.2055 168.505 53.0807 168.017 52.9032C166.408 52.3678 164.844 51.1682 163.364 49.5014C163.313 49.4469 163.259 49.3923 163.215 49.336C161.826 47.6983 161.717 45.5712 161.618 44.0348C161.606 43.4687 161.597 42.9794 161.6 42.5761C161.6 42.0313 161.632 41.646 161.717 41.443C161.735 41.3821 161.779 41.3285 161.842 41.293C162.091 41.1626 162.902 41.247 163.862 41.6101C164.249 41.7571 164.618 41.9316 164.967 42.132C166.394 42.9052 167.812 44.2488 169.136 45.7902C169.184 45.8491 169.232 45.9079 169.279 45.9676C170.464 47.4775 170.896 49.2483 171.215 50.5817C171.294 50.9722 171.365 51.3268 171.418 51.6406C171.532 52.3175 171.569 52.8068 171.457 53.0661L171.511 53.124C171.594 53.2093 171.668 53.2946 171.74 53.367C172.9 50.5521 173.709 47.6491 174.153 44.7024C174.223 44.2135 174.284 43.7242 174.338 43.2343L174.083 43.0211C173.998 42.953 173.904 42.8617 173.803 42.7696C173.738 42.8143 173.664 42.8492 173.584 42.8727C173.137 42.9998 172.668 43.0654 172.194 43.0671C171.7 43.0777 171.206 43.0357 170.725 42.9418C169.152 42.6785 167.481 41.8063 165.794 40.4984C165.737 40.4566 165.68 40.4131 165.624 40.3689C164.021 39.0746 163.477 37.1589 163.066 35.7786C162.937 35.2671 162.824 34.8238 162.744 34.4571C162.633 33.9626 162.579 33.6089 162.613 33.4127C162.616 33.355 162.645 33.3002 162.695 33.2593C162.893 33.1066 163.647 33.0708 164.594 33.2678C164.974 33.348 165.344 33.455 165.701 33.5876C167.158 34.0923 168.727 35.1162 170.251 36.3311C170.307 36.3771 170.362 36.4248 170.417 36.4725C171.809 37.6799 172.573 39.2255 173.145 40.3944C173.299 40.7355 173.436 41.05 173.551 41.328C173.796 41.9248 173.932 42.3655 173.883 42.6162L173.945 42.6614C174.056 42.7423 174.155 42.8191 174.251 42.8804L174.372 42.9657C174.618 40.4487 174.63 37.9204 174.411 35.4017C174.341 34.5493 174.24 33.7035 174.109 32.8645L173.841 32.735C173.736 32.689 173.625 32.6232 173.502 32.5585C173.456 32.6134 173.397 32.661 173.329 32.6991C172.954 32.9092 172.537 33.0663 172.097 33.1638C171.64 33.2745 171.167 33.3361 170.691 33.347C169.145 33.4222 167.32 32.9515 165.34 32.0785C165.274 32.0512 165.208 32.0222 165.142 31.9932C163.253 31.1159 162.151 29.4423 161.341 28.2419C161.063 27.7918 160.822 27.4022 160.634 27.0774C160.378 26.64 160.214 26.3211 160.189 26.1318C160.173 26.0775 160.184 26.0207 160.218 25.9724C160.356 25.7891 161.046 25.6024 161.989 25.593C162.369 25.5897 162.749 25.6139 163.123 25.6655C164.635 25.836 166.411 26.4711 168.206 27.2914C168.274 27.3229 168.34 27.3561 168.406 27.3886C170.074 28.2292 171.263 29.5131 172.152 30.4825C172.402 30.7724 172.627 31.0341 172.819 31.2694C173.232 31.7767 173.494 32.1578 173.527 32.4007L173.598 32.4306C173.727 32.4834 173.842 32.5346 173.95 32.5722L174.073 32.6182C173.749 30.5549 173.265 28.5103 172.623 26.4968C172.3 25.4856 171.943 24.4964 171.552 23.529L171.427 23.4821C171.322 23.4446 171.2 23.3883 171.068 23.3346C171.029 23.3929 170.977 23.4448 170.914 23.4881C170.567 23.7288 170.172 23.9198 169.747 24.0533C169.306 24.2019 168.844 24.3025 168.371 24.3526C166.844 24.5563 164.968 24.24 162.888 23.5367C162.819 23.5154 162.75 23.4914 162.678 23.4676C160.685 22.7523 159.382 21.1793 158.424 20.0514C158.091 19.6251 157.802 19.2594 157.573 18.9524C157.264 18.5381 157.065 18.2346 157.012 18.0487C156.99 17.9959 156.993 17.9383 157.022 17.8876C157.135 17.694 157.798 17.451 158.735 17.3624C159.112 17.3276 159.493 17.3202 159.872 17.3402C161.397 17.3854 163.245 17.868 165.135 18.5339C165.205 18.5594 165.275 18.5867 165.344 18.614C167.11 19.3105 168.455 20.4896 169.461 21.3788C169.745 21.6465 170.003 21.8904 170.224 22.1061C170.698 22.5767 171.007 22.933 171.071 23.1725L171.146 23.1956C171.258 23.2314 171.356 23.2647 171.461 23.2911C170.796 21.668 170.029 20.0734 169.163 18.5141C168.292 16.9395 167.354 15.4569 166.383 14.0723L166.082 14.0229C165.977 14.0092 165.864 13.9811 165.739 13.9572C165.72 14.0138 165.689 14.0673 165.648 14.115C165.411 14.3774 165.122 14.6059 164.792 14.791C164.455 14.9912 164.086 15.1541 163.695 15.2753C162.443 15.7015 160.764 15.7468 158.812 15.4926C158.748 15.4858 158.683 15.4783 158.618 15.4688C156.737 15.1901 155.228 14.0664 154.127 13.2641C153.735 12.9572 153.392 12.692 153.124 12.467C152.755 12.166 152.508 11.9409 152.417 11.7909C152.384 11.7493 152.372 11.6994 152.383 11.6511C152.431 11.4678 152.937 11.1497 153.714 10.9187C154.026 10.8254 154.349 10.7555 154.678 10.7098C155.99 10.4941 157.688 10.5973 159.468 10.8514L159.667 10.8846C161.346 11.1847 162.794 11.9665 163.877 12.5582C164.191 12.7381 164.467 12.8992 164.711 13.051C165.235 13.3732 165.588 13.6264 165.702 13.8183L165.772 13.8259C165.898 13.8396 166.012 13.8549 166.114 13.8601L166.241 13.8694C165.745 13.1686 165.241 12.49 164.735 11.8412C163.775 10.6135 162.806 9.4847 161.856 8.45053C161.626 8.5358 161.105 8.46588 160.387 8.28003C160.098 8.2067 159.78 8.11605 159.432 8.00805C158.253 7.61928 156.783 7.02335 155.694 5.99259C155.652 5.95081 155.609 5.90733 155.567 5.86897C154.479 4.74359 153.533 3.63184 153.001 2.68464C152.863 2.45343 152.747 2.21436 152.652 1.96934C152.42 1.37255 152.41 0.911311 152.567 0.781722C152.611 0.747062 152.669 0.726485 152.73 0.723748C152.94 0.693055 153.333 0.709254 153.861 0.767228C154.255 0.807299 154.723 0.872094 155.251 0.956497C156.673 1.2242 158.536 1.66498 159.695 2.8509C159.735 2.89182 159.773 2.93616 159.811 2.97451C160.98 4.22352 161.768 5.40177 162.036 6.43677C162.13 6.74985 162.176 7.07112 162.174 7.39335C162.182 7.69531 162.125 7.99608 162.004 8.28172C161.992 8.30692 161.977 8.33143 161.961 8.35505C162.933 9.3875 163.926 10.5171 164.91 11.7465C165.46 12.4329 166.006 13.1516 166.545 13.8967C166.545 13.8856 166.552 13.8745 166.557 13.8617C166.588 13.7825 166.612 13.6912 166.642 13.5906C166.642 13.5727 166.653 13.554 166.658 13.5352C166.478 13.3784 166.316 13.0194 166.133 12.5053C166.049 12.2675 165.964 11.9938 165.87 11.6954C165.585 10.6604 165.213 9.28263 165.48 7.90062C165.49 7.84606 165.501 7.7915 165.513 7.73693C165.868 6.29695 166.365 4.97378 167.087 4.05812C167.259 3.82624 167.456 3.60738 167.677 3.4042C168.223 2.8995 168.772 2.63689 169 2.66247C169.058 2.67219 169.111 2.69922 169.146 2.73836C169.285 2.86284 169.455 3.13053 169.671 3.51931C169.829 3.80747 170.011 4.16128 170.22 4.56882C170.744 5.69335 171.479 7.24415 171.118 8.7694C171.105 8.82139 171.092 8.8734 171.076 8.92541C170.656 10.4958 170 11.7517 169.054 12.5437C168.773 12.7954 168.453 13.0159 168.1 13.1993C167.768 13.3813 167.402 13.517 167.015 13.6009C166.946 13.615 166.875 13.619 166.805 13.6128C166.788 13.716 166.775 13.8166 166.757 13.8967C166.735 13.9939 166.719 14.0715 166.708 14.1184C167.663 15.4569 168.589 16.8867 169.454 18.4042C170.381 20.0321 171.201 21.699 171.91 23.3977C171.913 23.3933 171.915 23.3887 171.917 23.3841C171.964 23.2988 172.005 23.1956 172.056 23.0856C172.064 23.0652 172.074 23.0456 172.083 23.0251C171.903 22.829 171.776 22.4052 171.653 21.8042C171.595 21.5255 171.541 21.2075 171.48 20.8587C171.317 19.6575 171.11 18.0598 171.627 16.5201C171.647 16.4603 171.669 16.3989 171.691 16.3393C172.32 14.745 173.085 13.2965 174.047 12.3323C174.278 12.0866 174.535 11.8584 174.816 11.6502C175.515 11.1387 176.18 10.8897 176.43 10.9477C176.496 10.9638 176.552 10.9998 176.586 11.0483C176.723 11.2018 176.873 11.524 177.053 11.9861C177.187 12.3271 177.338 12.7466 177.512 13.23C177.932 14.5583 178.526 16.3912 177.877 18.0811C177.854 18.1391 177.83 18.197 177.805 18.2516C177.089 19.9865 176.146 21.3421 174.952 22.1426C174.595 22.4016 174.197 22.6205 173.768 22.794C173.364 22.9658 172.927 23.0811 172.476 23.1351C172.395 23.1445 172.313 23.1422 172.233 23.1283C172.196 23.2442 172.168 23.3559 172.133 23.4454C172.088 23.5699 172.054 23.6654 172.037 23.7131C172.395 24.5888 172.73 25.4813 173.035 26.3935C173.716 28.4391 174.236 30.5179 174.592 32.6173C174.649 32.5585 174.707 32.4946 174.772 32.4255L174.82 32.3734C174.715 32.1433 174.749 31.7077 174.847 31.1049C174.893 30.8243 174.951 30.508 175.022 30.1603C175.299 28.9778 175.674 27.3979 176.717 26.0509C176.758 25.9972 176.801 25.9442 176.843 25.8923C178.019 24.5154 179.274 23.3133 180.541 22.6236C180.85 22.4441 181.178 22.2871 181.521 22.1547C182.374 21.8281 183.095 21.7496 183.317 21.8657C183.374 21.8954 183.415 21.9417 183.432 21.9952C183.509 22.176 183.537 22.5187 183.543 23.0029C183.548 23.3619 183.543 23.7984 183.534 24.3022C183.454 25.6706 183.369 27.5659 182.14 29.0288C182.097 29.0783 182.053 29.1278 182.008 29.1764C180.7 30.6657 179.313 31.7391 177.883 32.2208C177.448 32.3815 176.99 32.4946 176.519 32.5568C176.069 32.6259 175.608 32.6333 175.155 32.579C175.074 32.5684 174.996 32.5462 174.925 32.5133C174.849 32.6147 174.781 32.7154 174.715 32.7921C174.685 32.8287 174.659 32.862 174.635 32.8926C174.767 33.7077 174.875 34.5298 174.959 35.3591C175.213 37.8641 175.239 40.3809 175.038 42.889L175.154 42.8037L175.216 42.7586C175.167 42.5079 175.304 42.0689 175.549 41.4703C175.663 41.1923 175.801 40.8813 175.954 40.5367C176.523 39.3704 177.287 37.8248 178.682 36.615C178.737 36.568 178.787 36.5211 178.848 36.4752C180.373 35.2594 181.942 34.2355 183.398 33.7308C183.756 33.5976 184.128 33.4901 184.509 33.4093C185.453 33.2124 186.21 33.2482 186.408 33.4009C186.459 33.4416 186.488 33.4965 186.491 33.5543C186.525 33.7503 186.471 34.1042 186.36 34.5986C186.273 34.9669 186.159 35.412 186.033 35.9236C185.62 37.3038 185.076 39.2196 183.474 40.5138C183.417 40.5572 183.36 40.599 183.304 40.6433C181.611 41.9512 179.94 42.8234 178.373 43.0867C177.892 43.1804 177.398 43.2225 176.904 43.2121C176.431 43.2108 175.961 43.1448 175.515 43.0169C175.435 42.9936 175.361 42.9589 175.296 42.9145C175.191 43.0049 175.104 43.0953 175.019 43.1626C174.971 43.6981 174.913 44.233 174.843 44.7671C174.44 47.728 173.675 50.6488 172.558 53.4864L172.636 53.4479C172.65 53.1734 172.908 52.731 173.323 52.1367C173.516 51.8605 173.743 51.5535 173.997 51.2143C174.902 50.0727 176.114 48.5603 177.905 47.5159C177.975 47.475 178.046 47.4306 178.115 47.3948C180.049 46.3649 181.981 45.5447 183.658 45.2582C184.072 45.1778 184.493 45.1271 184.917 45.1065C185.975 45.0596 186.767 45.2267 186.938 45.4227C186.984 45.4724 187.006 45.534 186.999 45.5958C186.985 45.8091 186.835 46.1757 186.59 46.682C186.408 47.0572 186.17 47.5091 185.905 48.0316C185.11 49.4273 184.036 51.3694 181.997 52.4701C181.927 52.5077 181.856 52.5434 181.788 52.5792C179.651 53.679 177.649 54.3201 175.912 54.3304C175.378 54.3481 174.843 54.3082 174.321 54.2119C173.818 54.1291 173.336 53.9789 172.894 53.7677C172.816 53.7289 172.746 53.6793 172.689 53.621C172.607 53.6705 172.529 53.7208 172.456 53.7652C172.428 53.8325 172.402 53.9007 172.375 53.968C171.764 55.4439 171.067 56.883 170.302 58.2778C169.518 59.6657 168.668 61.006 167.756 62.2958C167.576 62.5471 167.393 62.7958 167.209 63.042L167.278 63.0222L167.362 62.9967C167.442 62.7299 167.8 62.336 168.35 61.8193C168.605 61.5789 168.902 61.3129 169.23 61.0205C170.392 60.0434 171.942 58.7509 173.952 58.0093C174.03 57.9794 174.11 57.9512 174.19 57.924C176.333 57.218 178.424 56.7184 180.138 56.7023C180.565 56.6881 180.992 56.7052 181.414 56.7533C182.463 56.8736 183.198 57.1617 183.32 57.3809C183.349 57.4393 183.349 57.5041 183.32 57.5624C183.255 57.7696 183.021 58.1065 182.66 58.5633C182.392 58.9044 182.055 59.3102 181.666 59.7792C180.553 61.0238 179.036 62.7631 176.773 63.5177C176.694 63.5432 176.615 63.5671 176.537 63.5909C174.178 64.3327 172.062 64.6464 170.354 64.3822C169.825 64.3147 169.31 64.1914 168.82 64.0156C168.347 63.8545 167.911 63.631 167.528 63.3539C167.459 63.3038 167.403 63.244 167.361 63.1775C167.232 63.2269 167.111 63.2789 167.002 63.3173C165.415 65.4096 163.631 67.3992 161.667 69.2682C160.92 69.9752 160.165 70.6519 159.402 71.2981L159.625 71.2803L159.716 71.2726C159.873 71.0296 160.339 70.7184 161.027 70.3262C161.342 70.1437 161.713 69.9451 162.119 69.7294C163.526 69.0116 165.418 68.0652 167.589 67.7413L167.846 67.7054C170.137 67.4497 172.314 67.3747 173.983 67.6978C174.401 67.769 174.81 67.87 175.205 67.9995C176.181 68.321 176.809 68.7472 176.862 68.986C176.873 69.048 176.855 69.1111 176.81 69.1624C176.686 69.3509 176.357 69.6305 175.866 70.0023C175.504 70.2792 175.056 70.6067 174.538 70.9852C173.085 71.9717 171.094 73.3553 168.672 73.6436C168.588 73.6528 168.505 73.6597 168.422 73.6665C165.912 73.9222 163.765 73.8055 162.187 73.2121C161.695 73.0425 161.232 72.821 160.81 72.5532C160.399 72.3033 160.042 72 159.753 71.6553C159.704 71.593 159.668 71.5241 159.648 71.4516C159.487 71.478 159.334 71.5088 159.206 71.5231L159.116 71.5352C157.742 72.6869 156.359 73.7423 154.999 74.7016C153.405 75.8235 151.852 76.8201 150.373 77.6992L150.41 77.7042C150.54 77.7231 150.687 77.7333 150.847 77.7486L150.937 77.7572C151.155 77.5465 151.69 77.3224 152.465 77.0572C152.824 76.9336 153.235 76.8014 153.689 76.6574C155.263 76.1995 157.361 75.5985 159.565 75.6556C159.652 75.6556 159.739 75.6607 159.825 75.6658C162.133 75.8039 164.278 76.1091 165.825 76.711C166.214 76.8528 166.587 77.0219 166.94 77.2166C167.815 77.7018 168.319 78.2261 168.304 78.4656C168.298 78.5281 168.264 78.5867 168.209 78.6301C168.037 78.793 167.644 79.0095 167.07 79.2892C166.651 79.4981 166.126 79.7411 165.516 80.0224C163.838 80.7369 161.53 81.7471 159.091 81.6116C159.007 81.6065 158.924 81.5997 158.841 81.5929C156.323 81.4086 154.253 80.927 152.861 80.0761C152.423 79.8254 152.028 79.529 151.685 79.1946C151.349 78.8804 151.079 78.5229 150.887 78.1366C150.854 78.0672 150.836 77.9935 150.835 77.9191C150.67 77.9191 150.511 77.9191 150.382 77.9131L150.033 77.8995C149.577 78.1663 149.126 78.4229 148.685 78.6668C147.72 79.2303 146.765 79.6899 145.909 80.1554L143.491 81.3404L141.497 82.2476C140.917 82.5111 140.42 82.7072 140.019 82.881L138.786 83.402L138.136 82.3703L139.376 81.8588C139.778 81.6901 140.288 81.4939 140.857 81.2424Z" fill="url(#paint0_linear_266_20375)"/>
<path opacity="0.5" d="M46.1429 81.2424L44.1851 80.3754L41.791 79.2338C40.9433 78.7871 39.9959 78.3402 39.0401 77.7964C38.5309 77.5219 38.0102 77.2317 37.478 76.9259C37.4831 76.8687 37.4894 76.7963 37.4968 76.711C37.5094 76.6062 37.5073 76.4783 37.5136 76.3444C37.6056 76.344 37.6967 76.3308 37.7832 76.3053C38.2627 76.158 38.7085 75.9465 39.1019 75.6794C39.5209 75.4077 39.8941 75.0923 40.212 74.7416C41.2895 73.6332 41.9263 71.9631 42.2054 69.9212C42.2158 69.853 42.2263 69.7857 42.2347 69.7175C42.4529 67.736 41.2601 65.84 40.4186 64.4631C40.0861 63.9652 39.7986 63.5346 39.5511 63.1843C39.2185 62.7128 38.9604 62.388 38.7642 62.2465C38.7127 62.1988 38.6412 62.1685 38.5637 62.1612C38.269 62.1467 37.6132 62.5448 36.9974 63.2439C36.7507 63.5277 36.5354 63.8287 36.3542 64.1434C35.579 65.3864 35.1572 67.1273 34.9359 68.9944C34.9295 69.0652 34.9232 69.1352 34.919 69.206C34.8005 70.9963 35.495 72.71 36.0238 73.9974C36.1917 74.3699 36.3386 74.7067 36.4885 75.0007C36.8034 75.6367 37.0625 76.0768 37.3163 76.2575C37.3163 76.2822 37.3079 76.3061 37.3048 76.3299C37.2817 76.4604 37.267 76.5798 37.2398 76.6846C37.2324 76.717 37.2261 76.7469 37.2198 76.7759C35.7972 75.9497 34.3085 75.0144 32.7829 73.9624C31.3446 72.9726 29.88 71.8761 28.429 70.6724C28.4409 70.628 28.4545 70.5777 28.4699 70.5214C28.5003 70.4191 28.5213 70.2921 28.5507 70.1609C28.6415 70.1719 28.7339 70.1693 28.8235 70.1532C29.3243 70.0635 29.8032 69.9062 30.2399 69.6876C30.7003 69.4681 31.1235 69.2007 31.4988 68.8922C32.7578 67.9212 33.6852 66.3422 34.3241 64.354C34.3462 64.2883 34.3682 64.2219 34.3892 64.1553C34.9557 62.2208 34.1101 60.2046 33.5195 58.7441C33.2781 58.213 33.0704 57.7526 32.89 57.3801C32.6456 56.8745 32.4462 56.5275 32.2773 56.357C32.2341 56.3051 32.1686 56.2683 32.0937 56.2538C31.8041 56.2052 31.0854 56.5224 30.3521 57.143C30.0576 57.3937 29.7908 57.6651 29.5547 57.9538C28.5686 59.0937 27.8446 60.7673 27.2949 62.59C27.2759 62.6591 27.2571 62.7282 27.2403 62.7963C26.8081 64.5535 27.191 66.332 27.4879 67.667C27.5928 68.0558 27.68 68.407 27.7702 68.7149C27.9653 69.3799 28.1478 69.8462 28.3681 70.0551L28.343 70.1259C28.2968 70.2512 28.2612 70.3671 28.2161 70.4668C28.2161 70.4754 28.2098 70.4839 28.2056 70.4925C27.5194 69.9178 26.8381 69.3184 26.1618 68.6944C24.1892 66.8612 22.3947 64.9063 20.7944 62.8476L20.8437 62.7477C20.8951 62.6505 20.9413 62.5287 20.9969 62.4067C21.0843 62.4293 21.1758 62.4392 21.2676 62.4357C21.7832 62.4129 22.2904 62.3196 22.7678 62.1595C23.2679 62.0048 23.7409 61.7976 24.1747 61.543C25.6162 60.7528 26.8469 59.3187 27.8782 57.4423C27.9138 57.3809 27.9496 57.3187 27.9831 57.2556C28.9274 55.4217 28.5077 53.3218 28.2171 51.7991C28.086 51.2432 27.9737 50.7624 27.8687 50.3677C27.7292 49.8357 27.6033 49.4622 27.4701 49.279C27.438 49.2217 27.3808 49.1764 27.3096 49.1519C27.0337 49.0666 26.2604 49.2832 25.4127 49.7974C25.071 50.0051 24.7529 50.2374 24.4622 50.4913C23.2589 51.4845 22.2076 53.0353 21.298 54.7635C21.2655 54.8283 21.2329 54.8948 21.2025 54.9605C20.4208 56.6348 20.4408 58.4397 20.4628 59.7979C20.4838 60.1935 20.5026 60.5524 20.53 60.8687C20.5877 61.5507 20.6748 62.035 20.8447 62.2703C20.8311 62.2925 20.8184 62.3147 20.8059 62.336C20.7419 62.4425 20.6885 62.5423 20.6307 62.6292C20.4461 62.3877 20.2628 62.145 20.081 61.9012C19.1671 60.6453 18.3131 59.3324 17.5211 57.9752C16.7478 56.611 16.0406 55.2 15.4227 53.7516C15.4027 53.7046 15.3839 53.6577 15.365 53.6108L15.429 53.5315C15.5035 53.4463 15.58 53.3329 15.6662 53.2187C15.7456 53.2558 15.8326 53.2809 15.9232 53.2928C16.43 53.3558 16.9464 53.3496 17.4507 53.2741C17.9794 53.2055 18.4947 53.0807 18.9835 52.9032C20.5918 52.3678 22.1562 51.1682 23.6365 49.5014C23.6869 49.4469 23.7414 49.3923 23.7855 49.336C25.1745 47.6983 25.2827 45.5712 25.3822 44.0348C25.3938 43.4687 25.4033 42.9794 25.4001 42.576C25.4001 42.0313 25.3676 41.646 25.2827 41.443C25.2655 41.3821 25.221 41.3285 25.1577 41.293C24.9091 41.1626 24.0981 41.247 23.1381 41.6101C22.7515 41.7571 22.3818 41.9316 22.0333 42.132C20.6065 42.9052 19.188 44.2488 17.8641 45.7902C17.8158 45.8491 17.7676 45.9079 17.7214 45.9676C16.5358 47.4775 16.1036 49.2483 15.7847 50.5816C15.706 50.9722 15.6346 51.3268 15.5821 51.6406C15.4678 52.3175 15.4311 52.8068 15.5433 53.0661L15.4889 53.124C15.4059 53.2093 15.3325 53.2946 15.26 53.367C14.0996 50.5521 13.2911 47.6491 12.8471 44.7024C12.7771 44.2135 12.7156 43.7242 12.6624 43.2343L12.9174 43.0211C13.0023 42.953 13.0957 42.8617 13.1975 42.7696C13.2621 42.8143 13.336 42.8492 13.4157 42.8727C13.8626 42.9998 14.3323 43.0654 14.8058 43.0671C15.3001 43.0777 15.7939 43.0357 16.2746 42.9418C17.8483 42.6785 19.5186 41.8063 21.2056 40.4984C21.2634 40.4566 21.3199 40.4131 21.3756 40.3689C22.9787 39.0746 23.5231 37.1589 23.9344 35.7786C24.0634 35.2671 24.1757 34.8238 24.2556 34.4571C24.3667 33.9626 24.4213 33.6089 24.3866 33.4127C24.3843 33.355 24.355 33.3002 24.3048 33.2593C24.1066 33.1066 23.3532 33.0708 22.4058 33.2678C22.0262 33.348 21.6558 33.455 21.299 33.5876C19.8417 34.0923 18.2733 35.1162 16.7489 36.3311C16.6932 36.3771 16.6376 36.4248 16.583 36.4725C15.1908 37.6799 14.4271 39.2255 13.8553 40.3944C13.7011 40.7355 13.5636 41.05 13.4493 41.328C13.2038 41.9248 13.0684 42.3655 13.1167 42.6162L13.0548 42.6614C12.9436 42.7423 12.845 42.8191 12.7495 42.8804L12.6278 42.9657C12.3826 40.4487 12.3696 37.9204 12.589 35.4017C12.6589 34.5493 12.7596 33.7035 12.8911 32.8645L13.1587 32.7349C13.2636 32.689 13.3748 32.6232 13.4975 32.5585C13.5445 32.6134 13.6031 32.661 13.6706 32.6991C14.0465 32.9092 14.4633 33.0663 14.9033 33.1638C15.3602 33.2745 15.8327 33.3361 16.3092 33.347C17.8546 33.4222 19.6802 32.9515 21.6599 32.0785C21.7261 32.0512 21.7921 32.0222 21.8581 31.9932C23.7467 31.1159 24.8493 29.4423 25.6592 28.2419C25.9373 27.7918 26.1776 27.4022 26.3664 27.0774C26.6224 26.64 26.786 26.3211 26.8112 26.1318C26.8267 26.0775 26.8162 26.0207 26.7818 25.9724C26.6445 25.7891 25.9541 25.6024 25.0109 25.593C24.631 25.5897 24.2514 25.6139 23.8768 25.6655C22.3649 25.836 20.5888 26.4711 18.7936 27.2914C18.7265 27.3229 18.6604 27.3561 18.5943 27.3886C16.9262 28.2292 15.7375 29.5131 14.8478 30.4825C14.5981 30.7724 14.3735 31.0341 14.1815 31.2694C13.7682 31.7767 13.5059 32.1578 13.4734 32.4007L13.4021 32.4306C13.273 32.4834 13.1576 32.5346 13.0495 32.5722L12.9268 32.6182C13.2506 30.5549 13.7349 28.5103 14.3767 26.4968C14.6998 25.4856 15.0569 24.4964 15.4478 23.529L15.5728 23.4821C15.6776 23.4446 15.8003 23.3883 15.9316 23.3346C15.9711 23.3929 16.0234 23.4448 16.0857 23.4881C16.4329 23.7288 16.8278 23.9198 17.2534 24.0533C17.6938 24.2019 18.1562 24.3025 18.6289 24.3526C20.1565 24.5563 22.0324 24.24 24.1118 23.5367C24.181 23.5154 24.2502 23.4914 24.3216 23.4676C26.315 22.7523 27.618 21.1793 28.5759 20.0514C28.9095 19.6251 29.198 19.2594 29.4268 18.9524C29.7363 18.5381 29.9355 18.2346 29.988 18.0487C30.0102 17.9959 30.0069 17.9383 29.9785 17.8876C29.8653 17.694 29.2023 17.451 28.2654 17.3624C27.8878 17.3276 27.5073 17.3202 27.1281 17.3402C25.6027 17.3854 23.755 17.868 21.8655 18.5339C21.7953 18.5594 21.7249 18.5867 21.6557 18.614C19.89 19.3105 18.545 20.4896 17.5388 21.3788C17.2546 21.6465 16.9975 21.8904 16.7761 22.1061C16.3018 22.5767 15.9934 22.933 15.9295 23.1725L15.854 23.1956C15.7417 23.2314 15.6441 23.2647 15.5391 23.2911C16.204 21.668 16.9709 20.0734 17.8369 18.5141C18.7076 16.9395 19.6465 15.4569 20.6171 14.0723L20.9181 14.0229C21.0231 14.0092 21.1363 13.9811 21.2613 13.9572C21.2797 14.0138 21.3107 14.0673 21.3525 14.115C21.5892 14.3774 21.8782 14.6059 22.2076 14.791C22.5453 14.9912 22.9144 15.1541 23.3049 15.2753C24.5566 15.7015 26.2362 15.7468 28.1877 15.4926C28.2517 15.4858 28.3167 15.4783 28.3818 15.4688C30.2629 15.1901 31.7716 14.0664 32.8733 13.2641C33.2646 12.9572 33.6076 12.692 33.8762 12.467C34.2455 12.166 34.4921 11.9409 34.5834 11.7909C34.6156 11.7493 34.6276 11.6994 34.6169 11.6511C34.5686 11.4678 34.0629 11.1497 33.2865 10.9187C32.9736 10.8254 32.651 10.7555 32.3224 10.7098C31.0099 10.4941 29.3125 10.5973 27.532 10.8514L27.3326 10.8846C25.654 11.1847 24.2061 11.9665 23.1234 12.5582C22.8087 12.7381 22.5327 12.8992 22.2894 13.051C21.7649 13.3732 21.4123 13.6264 21.298 13.8183L21.2276 13.8259C21.1017 13.8396 20.9885 13.8549 20.8856 13.8601L20.7587 13.8694C21.2549 13.1686 21.7586 12.49 22.2652 11.8412C23.2252 10.6135 24.1936 9.4847 25.1442 8.45053C25.3738 8.5358 25.8953 8.46588 26.6129 8.28003C26.9018 8.2067 27.2201 8.11605 27.5677 8.00805C28.7469 7.61928 30.2167 7.02335 31.3058 5.99259C31.3477 5.95081 31.3907 5.90733 31.4327 5.86897C32.5207 4.74359 33.467 3.63184 33.999 2.68464C34.1366 2.45343 34.2533 2.21436 34.3483 1.96934C34.5802 1.37255 34.5897 0.911311 34.4333 0.781722C34.389 0.747062 34.331 0.726485 34.2697 0.723748C34.0598 0.693055 33.6674 0.709254 33.1387 0.767228C32.7452 0.807299 32.2773 0.872094 31.7495 0.956497C30.3269 1.2242 28.4636 1.66498 27.3054 2.8509C27.2655 2.89182 27.2266 2.93616 27.1889 2.97451C26.0201 4.22352 25.2323 5.40177 24.9637 6.43677C24.8698 6.74985 24.8236 7.07112 24.8263 7.39335C24.8179 7.69531 24.8754 7.99608 24.9962 8.28172C25.0085 8.30692 25.0229 8.33143 25.0392 8.35504C24.0667 9.38749 23.0742 10.5171 22.09 11.7465C21.5402 12.4329 20.9936 13.1516 20.4554 13.8967C20.4554 13.8856 20.4482 13.8745 20.4429 13.8617C20.4124 13.7825 20.3883 13.6912 20.3579 13.5906C20.3579 13.5727 20.3474 13.554 20.3422 13.5352C20.5216 13.3784 20.6841 13.0194 20.8667 12.5053C20.9506 12.2675 21.0357 11.9938 21.1301 11.6954C21.4154 10.6604 21.7868 9.28263 21.5204 7.90062C21.5099 7.84606 21.4993 7.7915 21.4868 7.73693C21.1321 6.29695 20.6348 4.97378 19.913 4.05812C19.741 3.82624 19.5436 3.60738 19.3235 3.4042C18.7769 2.8995 18.2282 2.63689 18.0005 2.66247C17.9417 2.67219 17.8894 2.69922 17.8536 2.73836C17.7151 2.86283 17.5451 3.13053 17.329 3.5193C17.1706 3.80747 16.9891 4.16128 16.7803 4.56882C16.2558 5.69335 15.5214 7.24415 15.8823 8.7694C15.8949 8.82139 15.9084 8.8734 15.9242 8.92541C16.3439 10.4958 16.9996 11.7517 17.9459 12.5437C18.2268 12.7954 18.5475 13.0159 18.8996 13.1993C19.2316 13.3813 19.5985 13.517 19.9855 13.6009C20.0539 13.615 20.125 13.619 20.1953 13.6128C20.2121 13.716 20.2247 13.8166 20.2435 13.8967C20.2646 13.9939 20.2813 14.0715 20.2918 14.1184C19.3371 15.4569 18.4107 16.8867 17.5462 18.4042C16.619 20.0321 15.7991 21.699 15.0901 23.3977C15.0872 23.3933 15.0848 23.3887 15.0827 23.3841C15.0356 23.2988 14.9946 23.1956 14.9442 23.0856C14.9359 23.0652 14.9265 23.0456 14.917 23.0251C15.0975 22.829 15.2244 22.4052 15.3472 21.8042C15.4048 21.5255 15.4594 21.2075 15.5203 20.8587C15.6829 19.6575 15.8896 18.0598 15.3734 16.5201C15.3534 16.4603 15.3314 16.3989 15.3095 16.3393C14.68 14.745 13.9151 13.2965 12.953 12.3323C12.7223 12.0866 12.465 11.8584 12.184 11.6502C11.4853 11.1387 10.8201 10.8897 10.5704 10.9477C10.5044 10.9638 10.4484 10.9998 10.4141 11.0483C10.2766 11.2018 10.1266 11.524 9.94721 11.9861C9.81292 12.3271 9.66185 12.7466 9.48768 13.23C9.06803 14.5583 8.47421 16.3912 9.12258 18.0811C9.14566 18.1391 9.1698 18.197 9.19497 18.2516C9.91154 19.9865 10.8537 21.3421 12.0476 22.1426C12.4052 22.4016 12.8035 22.6205 13.2321 22.794C13.636 22.9658 14.0726 23.0811 14.5236 23.1351C14.6046 23.1445 14.6869 23.1422 14.7669 23.1283C14.8037 23.2442 14.832 23.3559 14.8666 23.4454C14.9117 23.5699 14.9463 23.6654 14.9632 23.7131C14.6054 24.5888 14.2696 25.4813 13.9654 26.3935C13.2838 28.4391 12.7638 30.5179 12.4085 32.6173C12.3508 32.5585 12.2931 32.4946 12.2281 32.4255L12.1798 32.3734C12.2847 32.1433 12.2511 31.7077 12.1536 31.1049C12.1074 30.8243 12.0487 30.508 11.9784 30.1603C11.7014 28.9778 11.3258 27.3979 10.2829 26.0508C10.242 25.9972 10.199 25.9442 10.157 25.8923C8.98094 24.5154 7.72616 23.3133 6.45879 22.6236C6.1498 22.4441 5.82188 22.2871 5.47889 22.1547C4.62593 21.8281 3.90517 21.7496 3.68275 21.8657C3.62566 21.8954 3.58474 21.9417 3.56839 21.9952C3.49076 22.176 3.46348 22.5187 3.45718 23.0029C3.45193 23.3619 3.45718 23.7984 3.46557 24.3022C3.54636 25.6706 3.63135 27.5659 4.85989 29.0288C4.90291 29.0783 4.94697 29.1278 4.99208 29.1764C6.30037 30.6657 7.68735 31.7391 9.11733 32.2208C9.55159 32.3815 10.0103 32.4946 10.4812 32.5568C10.9312 32.6259 11.3921 32.6332 11.8451 32.579C11.926 32.5684 12.0038 32.5462 12.0749 32.5133C12.1515 32.6147 12.2186 32.7154 12.2847 32.7921C12.3151 32.8287 12.3414 32.862 12.3655 32.8926C12.2333 33.7077 12.1252 34.5298 12.0413 35.3591C11.7873 37.8641 11.7606 40.3809 11.9616 42.889L11.8462 42.8037L11.7843 42.7586C11.8325 42.5079 11.6961 42.0689 11.4506 41.4703C11.3373 41.1923 11.1989 40.8813 11.0457 40.5367C10.477 39.3704 9.71325 37.8248 8.31788 36.615C8.26333 36.568 8.21298 36.5211 8.15212 36.4752C6.62666 35.2594 5.05818 34.2355 3.60196 33.7308C3.24381 33.5976 2.87205 33.4901 2.49091 33.4093C1.54668 33.2124 0.790245 33.2482 0.591955 33.4008C0.541406 33.4416 0.511784 33.4965 0.509073 33.5543C0.4755 33.7503 0.529007 34.1042 0.640216 34.5986C0.727295 34.9669 0.840603 35.412 0.96755 35.9236C1.37987 37.3038 1.92437 39.2196 3.52643 40.5138C3.58308 40.5572 3.63974 40.599 3.69639 40.6433C5.38866 41.9512 7.05996 42.8234 8.62739 43.0867C9.10817 43.1804 9.60196 43.2225 10.0962 43.2121C10.5694 43.2108 11.039 43.1448 11.4853 43.0169C11.5652 42.9936 11.6395 42.9589 11.7045 42.9145C11.8094 43.0049 11.8965 43.0953 11.9815 43.1626C12.0291 43.6981 12.0875 44.233 12.1567 44.7671C12.56 47.728 13.3255 50.6488 14.4418 53.4864L14.3642 53.4479C14.3505 53.1734 14.0923 52.731 13.6769 52.1367C13.4839 51.8605 13.2573 51.5535 13.0034 51.2143C12.098 50.0727 10.8862 48.5603 9.0953 47.5159C9.025 47.475 8.95368 47.4306 8.88547 47.3948C6.95084 46.3649 5.01936 45.5447 3.34178 45.2582C2.9284 45.1778 2.50712 45.1271 2.08279 45.1065C1.02525 45.0596 0.233147 45.2267 0.0621353 45.4227C0.0159989 45.4724 -0.00570458 45.534 0.00128469 45.5958C0.0149236 45.8091 0.164952 46.1757 0.410452 46.682C0.591955 47.0572 0.830111 47.5091 1.0945 48.0316C1.88975 49.4273 2.96408 51.3694 5.00258 52.4701C5.07287 52.5077 5.14421 52.5434 5.2124 52.5792C7.34952 53.679 9.35129 54.3201 11.0876 54.3304C11.6223 54.3481 12.1574 54.3082 12.6792 54.2119C13.1818 54.1291 13.664 53.9789 14.106 53.7677C14.1843 53.7289 14.2536 53.6793 14.3107 53.621C14.3935 53.6705 14.4711 53.7208 14.5445 53.7652C14.5719 53.8325 14.5981 53.9007 14.6254 53.968C15.236 55.4439 15.9326 56.883 16.6985 58.2778C17.4823 59.6657 18.3319 61.006 19.2437 62.2958C19.4241 62.5471 19.6067 62.7958 19.7913 63.042L19.7221 63.0222L19.6382 62.9967C19.5584 62.7299 19.1996 62.336 18.6498 61.8193C18.3949 61.5789 18.0981 61.3129 17.7697 61.0205C16.6083 60.0434 15.0576 58.7509 13.0485 58.0093C12.9698 57.9794 12.8901 57.9512 12.8103 57.924C10.6669 57.218 8.57597 56.7184 6.86167 56.7023C6.43539 56.6881 6.00839 56.7052 5.5859 56.7533C4.53676 56.8736 3.80236 57.1617 3.6796 57.3809C3.65125 57.4393 3.65125 57.5041 3.6796 57.5624C3.74464 57.7696 3.9786 58.1065 4.34056 58.5633C4.6081 58.9044 4.94487 59.3102 5.3341 59.7792C6.44726 61.0238 7.96433 62.7631 10.2273 63.5177C10.306 63.5432 10.3847 63.5671 10.4634 63.5909C12.8219 64.3327 14.938 64.6464 16.646 64.3822C17.1747 64.3147 17.6904 64.1914 18.1799 64.0156C18.6528 63.8545 19.0895 63.631 19.4724 63.3539C19.5407 63.3038 19.5972 63.244 19.6393 63.1775C19.7683 63.2269 19.8889 63.2789 19.9981 63.3173C21.585 65.4096 23.3687 67.3992 25.3329 69.2682C26.08 69.9752 26.835 70.6519 27.5982 71.2981L27.3746 71.2803L27.2844 71.2726C27.127 71.0296 26.6612 70.7184 25.9729 70.3262C25.6582 70.1437 25.2869 69.9451 24.8807 69.7294C23.4739 69.0116 21.5823 68.0652 19.4106 67.7413L19.1536 67.7054C16.8632 67.4497 14.6862 67.3747 13.017 67.6977C12.5995 67.769 12.1905 67.8699 11.7948 67.9995C10.819 68.321 10.1906 68.7472 10.1382 68.986C10.1271 69.048 10.1454 69.1111 10.1896 69.1624C10.3144 69.3509 10.6428 69.6304 11.1338 70.0023C11.4958 70.2792 11.9437 70.6067 12.462 70.9852C13.9151 71.9717 15.9063 73.3553 18.3278 73.6436C18.4118 73.6528 18.4946 73.6597 18.5785 73.6665C21.0882 73.9222 23.2347 73.8055 24.8126 73.2121C25.3054 73.0425 25.7685 72.821 26.1902 72.5532C26.6009 72.3033 26.9579 72 27.2466 71.6553C27.2964 71.593 27.3319 71.5241 27.3516 71.4516C27.5131 71.478 27.6663 71.5088 27.7943 71.5231L27.8845 71.5352C29.2579 72.6869 30.6406 73.7423 32.0014 74.7016C33.5951 75.8235 35.1477 76.8201 36.627 77.6992L36.5903 77.7042C36.4602 77.7231 36.3133 77.7332 36.1529 77.7486L36.0626 77.7572C35.8455 77.5465 35.3103 77.3224 34.5351 77.0572C34.1763 76.9336 33.765 76.8014 33.3107 76.6574C31.737 76.1995 29.6387 75.5984 27.4355 75.6556C27.3484 75.6556 27.2613 75.6607 27.1753 75.6658C24.8672 75.8039 22.7216 76.1091 21.1751 76.711C20.786 76.8528 20.4129 77.0219 20.0599 77.2166C19.185 77.7018 18.6814 78.2261 18.696 78.4656C18.7021 78.5281 18.736 78.5867 18.7915 78.6301C18.9626 78.793 19.356 79.0095 19.9298 79.2892C20.3495 79.4981 20.8741 79.7411 21.4837 80.0224C23.1622 80.7369 25.4705 81.7471 27.9086 81.6116C27.9926 81.6065 28.0765 81.5997 28.1594 81.5929C30.6773 81.4086 32.7473 80.927 34.1395 80.0761C34.577 79.8254 34.9721 79.529 35.3145 79.1946C35.6513 78.8804 35.9211 78.5229 36.113 78.1366C36.1463 78.0672 36.1641 77.9935 36.1655 77.9191C36.3302 77.9191 36.4885 77.9191 36.6177 77.9131L36.967 77.8995C37.4234 78.1663 37.8745 78.4229 38.3151 78.6668C39.2804 79.2303 40.235 79.6899 41.0911 80.1554L43.5095 81.3404L45.5029 82.2476C46.083 82.511 46.5803 82.7072 46.9811 82.881L48.2139 83.402L48.8643 82.3703L47.6243 81.8588C47.2223 81.6901 46.7125 81.4939 46.1429 81.2424Z" fill="url(#paint1_linear_266_20375)"/>
<defs>
<linearGradient id="paint0_linear_266_20375" x1="162.568" y1="0.708496" x2="162.568" y2="115.76" gradientUnits="userSpaceOnUse">
<stop stop-color="#7B87FF"/>
<stop offset="1" stop-color="#7B87FF" stop-opacity="0"/>
</linearGradient>
<linearGradient id="paint1_linear_266_20375" x1="24.4321" y1="0.708496" x2="24.4321" y2="115.76" gradientUnits="userSpaceOnUse">
<stop stop-color="#7B87FF"/>
<stop offset="1" stop-color="#7B87FF" stop-opacity="0"/>
</linearGradient>
</defs>
</svg>
