<svg width="55" height="27" viewBox="0 0 55 27" fill="none" xmlns="http://www.w3.org/2000/svg">
<rect x="0.761597" y="0.146362" width="53.1162" height="26.1574" rx="2.38982" fill="white"/>
<rect x="0.761597" y="0.146362" width="53.1162" height="26.1574" rx="2.38982" stroke="#D3D3D3" stroke-width="0.292725"/>
<rect x="12.2672" y="14.3604" width="12.016" height="1.89228" rx="0.946139" fill="#FFCC44"/>
<path d="M40.3797 10.6695C40.0091 10.7134 39.7088 10.8526 39.4701 11.0899C39.1859 11.3741 39.054 11.7256 39.0731 12.146C39.0877 12.458 39.1786 12.7158 39.3573 12.9516C39.5667 13.2285 39.9432 13.4365 40.3211 13.4877C40.4984 13.5112 40.8133 13.4965 40.9627 13.4584C41.4036 13.3442 41.7552 13.06 41.9339 12.6748C42.0262 12.4726 42.0496 12.3525 42.0481 12.0728C42.0481 11.8457 42.0437 11.812 42.0071 11.6919C41.8357 11.125 41.386 10.753 40.7825 10.6739C40.6771 10.6607 40.472 10.6578 40.3797 10.6695ZM40.7884 11.2452C40.9451 11.2847 41.0359 11.3374 41.1575 11.4576C41.3245 11.6231 41.4124 11.8384 41.4124 12.0874C41.4124 12.3291 41.3318 12.5386 41.1722 12.707C41.0125 12.8755 40.8104 12.959 40.5613 12.959C40.1058 12.959 39.7821 12.6762 39.7118 12.2148C39.6663 11.9219 39.7821 11.5952 39.9945 11.418C40.1658 11.2759 40.3182 11.2203 40.5496 11.2173C40.6317 11.2159 40.7152 11.2261 40.7884 11.2452Z" fill="black"/>
<path d="M43.6859 10.6894C43.2215 10.7495 42.807 11.0366 42.6063 11.4365C42.4305 11.7851 42.413 12.2699 42.5609 12.6391C42.6986 12.9789 43.0311 13.285 43.4017 13.4139C43.8514 13.5707 44.4417 13.5033 44.805 13.2543C44.9031 13.1884 45.0745 13.0302 45.0731 13.0096C45.0731 13.0009 44.9837 12.9144 44.8738 12.8163L44.6761 12.6361L44.5999 12.705C44.4242 12.8632 44.2542 12.9379 44.036 12.9525C43.6053 12.9804 43.242 12.7255 43.1336 12.3197C43.1029 12.2069 43.1029 11.9814 43.1322 11.8569C43.2142 11.5053 43.4925 11.2622 43.8646 11.2153C44.1356 11.1816 44.3758 11.2592 44.575 11.4423C44.6219 11.4863 44.6658 11.5229 44.6717 11.5229C44.6776 11.5229 44.7523 11.4584 44.8387 11.3793C44.9237 11.3003 45.0145 11.2182 45.0379 11.1948L45.0819 11.1552L44.972 11.0498C44.7757 10.8594 44.534 10.7466 44.222 10.6953C44.077 10.6719 43.8382 10.6689 43.6859 10.6894Z" fill="black"/>
<path d="M48.1508 12.0718V13.4414H48.8671C49.4354 13.4414 49.6083 13.437 49.7079 13.4194C50.2308 13.3286 50.5106 13.0049 50.5091 12.4922C50.5077 12.0469 50.2967 11.773 49.869 11.6588C49.7328 11.6222 49.702 11.6192 49.2494 11.6119L48.7733 11.6031L48.7689 11.152L48.766 10.7023H48.4584H48.1508V12.0718ZM49.5306 12.0997C49.6493 12.126 49.6947 12.148 49.765 12.2183C49.8353 12.2886 49.8646 12.378 49.8646 12.5186C49.8646 12.7149 49.7914 12.8467 49.6405 12.9199C49.535 12.9712 49.4061 12.9873 49.0707 12.9873H48.7806V12.5332V12.0792H49.1073C49.3299 12.0792 49.4632 12.0865 49.5306 12.0997Z" fill="black"/>
<path d="M12.1598 12.0865V13.4561H12.4747H12.7897V12.8921V12.3282H13.4122H14.0348V12.8921V13.4561H14.3497H14.6646V12.0865V10.7169H14.3497H14.0348L14.0318 11.2545L14.0274 11.7935H13.4122H12.797L12.7926 11.2545L12.7897 10.7169H12.4747H12.1598V12.0865Z" fill="black"/>
<path d="M15.4556 12.0865V13.4561H16.5176H17.5796V13.1997V12.9434H16.8325H16.0854V12.6285V12.3135H16.7226H17.3598L17.3569 12.0674L17.3525 11.8228L16.7197 11.8184L16.0854 11.8155V11.5225V11.2296H16.8032H17.521V10.9733V10.7169H16.4883H15.4556V12.0865Z" fill="black"/>
<path d="M18.5112 10.881C18.5068 10.9718 18.4995 11.1681 18.4951 11.3175C18.4761 11.9107 18.4424 12.2506 18.375 12.5113C18.3296 12.6871 18.3003 12.7501 18.2212 12.835C18.1567 12.9039 18.063 12.9434 17.9575 12.9434H17.9019V13.4854V14.0273H18.1948H18.4878V13.7417V13.4561L19.4516 13.459L20.414 13.4634L20.4184 13.7446L20.4213 14.0273H20.7143H21.0073V13.4854V12.9434H20.8168H20.6264V11.8302V10.7169H19.5732H18.52L18.5112 10.881ZM19.9965 12.0792V12.9288H19.3886H18.7822L18.8393 12.8218C18.8701 12.7647 18.9126 12.6534 18.9316 12.5772C18.9873 12.3634 19.0444 11.8565 19.0444 11.5738C19.0444 11.5079 19.0488 11.4039 19.0532 11.3424L19.0635 11.2296H19.5293H19.9965V12.0792Z" fill="black"/>
<path d="M21.5348 12.085V13.4561H22.2496C23.1534 13.4561 23.2882 13.4414 23.5372 13.3213C23.795 13.1968 23.9371 12.9683 23.9371 12.6827C23.9371 12.5816 23.9034 12.4366 23.8639 12.356C23.8009 12.2359 23.6558 12.1129 23.505 12.0528L23.4361 12.025L23.4991 11.9883C23.6646 11.8917 23.776 11.7203 23.8023 11.5255C23.8463 11.2149 23.7086 10.9689 23.42 10.8341C23.19 10.7272 23.1871 10.7272 22.3155 10.7213L21.5348 10.7155V12.085ZM22.9278 11.2091C23.1227 11.2677 23.2135 11.4742 23.1256 11.6632C23.086 11.7467 23.0392 11.7862 22.9366 11.8214C22.8795 11.8404 22.8004 11.8448 22.5089 11.8448H22.15V11.5152V11.1856H22.4986C22.777 11.1856 22.8634 11.19 22.9278 11.2091ZM23.0392 12.315C23.2018 12.3531 23.2926 12.4659 23.2926 12.6314C23.2926 12.794 23.2311 12.8892 23.089 12.9463C23.0113 12.9771 22.9806 12.98 22.5792 12.9844L22.15 12.9888V12.6446V12.2989H22.5587C22.8106 12.2989 22.9952 12.3047 23.0392 12.315Z" fill="black"/>
<path d="M24.5378 12.0865V13.4561H24.8367H25.134L25.7624 12.5977C26.1081 12.1246 26.4026 11.7247 26.4157 11.7071C26.4392 11.6778 26.4406 11.7232 26.4421 12.5655V13.4561H26.757H27.072V12.0865V10.7169H26.7688L26.4641 10.7184L25.8196 11.6016L25.175 12.4834L25.1706 11.6002L25.1677 10.7169H24.8528H24.5378V12.0865Z" fill="black"/>
<path d="M27.6138 10.7242C27.6138 10.7272 27.7852 11.0201 27.9946 11.3746L28.374 12.0191L27.9668 12.7339L27.5581 13.4487L27.9111 13.4531C28.1059 13.4546 28.2715 13.4546 28.2803 13.4502C28.2891 13.4473 28.4341 13.1968 28.6025 12.8936L28.9087 12.3428H29.1108H29.313V12.8994V13.4561H29.6206H29.9282L29.9311 12.9024L29.9355 12.3501H30.1333H30.331L30.6401 12.8994L30.9492 13.4487L31.3183 13.4531C31.6669 13.4561 31.686 13.4546 31.6728 13.4312C31.6655 13.4165 31.4809 13.0928 31.2626 12.7119L30.8671 12.0191L31.1396 11.5548C31.289 11.2999 31.4472 11.0275 31.4926 10.9513C31.5366 10.8751 31.5849 10.7902 31.601 10.7638L31.6303 10.7169H31.2934H30.9565L30.6503 11.2618L30.3427 11.8082L30.1362 11.8126L29.9282 11.817V11.2662V10.7169H29.6206H29.313V11.2662V11.8155H29.102H28.8911L28.5849 11.2662L28.2803 10.7169H27.9477C27.7632 10.7169 27.6138 10.7198 27.6138 10.7242Z" fill="black"/>
<path d="M32.0814 12.0865V13.4561H32.3802H32.6791L33.328 12.5684L33.9784 11.6793L33.9828 12.5684L33.9857 13.4561H34.3006H34.6156V12.0865V10.7169H34.3123L34.0077 10.7184L33.3631 11.6002L32.7186 12.4834L32.7142 11.6002L32.7113 10.7169H32.3964H32.0814V12.0865Z" fill="black"/>
<path d="M35.392 12.0865V13.4561H35.6849H35.9779L35.9808 12.6534L35.9852 11.8521L36.3866 12.5069L36.7879 13.1631H36.9286H37.0692L37.472 12.4922L37.8748 11.8228L37.8792 12.6387L37.8822 13.4561H38.1751H38.4681V12.0865V10.7169H38.2059H37.9422L37.6873 11.1446C37.5467 11.3805 37.3226 11.7584 37.1878 11.984C37.0531 12.2095 36.9388 12.3956 36.933 12.397C36.9271 12.3999 36.6957 12.022 36.4173 11.5592L35.912 10.7169H35.6527H35.392V12.0865Z" fill="black"/>
<path d="M45.2794 10.9733V11.2296H45.7115H46.1437V12.3428V13.4561H46.4586H46.7735V12.3428V11.2296H47.213H47.6524V10.9733V10.7169H46.4659H45.2794V10.9733Z" fill="black"/>
<path d="M17.6898 14.8818C17.5726 14.9213 17.5052 14.9696 17.4276 15.0722C17.3397 15.1864 17.3177 15.3871 17.3749 15.5409C17.4525 15.7489 17.6957 15.8749 17.9549 15.8426C18.3607 15.7914 18.535 15.3007 18.2508 15.0107C18.1527 14.911 18.0545 14.8715 17.8875 14.8671C17.8011 14.8642 17.7264 14.87 17.6898 14.8818ZM18.0443 15.1059C18.1996 15.2289 18.2069 15.4603 18.0589 15.5907C17.9974 15.6449 17.9344 15.6596 17.8202 15.6508C17.7323 15.6434 17.6869 15.6171 17.618 15.5307C17.5799 15.4852 17.5726 15.4603 17.5682 15.3768C17.5609 15.2655 17.5887 15.1938 17.6634 15.1234C17.7235 15.0663 17.766 15.0531 17.8831 15.0575C17.9754 15.0605 17.9945 15.0663 18.0443 15.1059Z" fill="black"/>
<path d="M19.9442 14.8836C19.8124 14.9276 19.6981 15.0301 19.6395 15.1546C19.6161 15.2074 19.6088 15.2513 19.6088 15.3538C19.6088 15.4681 19.6146 15.4959 19.6498 15.5692C19.7054 15.682 19.8109 15.7757 19.9281 15.8138C20.2049 15.9061 20.4847 15.805 20.6004 15.5692C20.6429 15.4827 20.6488 15.4578 20.6488 15.3538C20.6488 15.2498 20.6429 15.2235 20.6004 15.1385C20.5462 15.0272 20.4803 14.9627 20.3631 14.9085C20.2972 14.8778 20.2591 14.8705 20.1434 14.8675C20.0585 14.8661 19.9808 14.8719 19.9442 14.8836ZM20.3089 15.1078C20.3895 15.1766 20.4232 15.2484 20.4232 15.3538C20.4232 15.5325 20.3046 15.6556 20.1317 15.6556C19.9925 15.657 19.9032 15.6029 19.849 15.4857C19.7831 15.3421 19.8505 15.1327 19.9808 15.0785C20.0878 15.0345 20.2401 15.0477 20.3089 15.1078Z" fill="black"/>
<path d="M21.1379 14.8892C20.9226 14.961 20.801 15.1324 20.801 15.3609C20.801 15.5586 20.905 15.7197 21.0911 15.8047C21.1497 15.8311 21.1877 15.8369 21.3225 15.8369C21.4719 15.8369 21.4895 15.834 21.5671 15.7944C21.614 15.771 21.6653 15.7358 21.6843 15.7168L21.7165 15.6816L21.6477 15.6143L21.5803 15.5454L21.5466 15.5762C21.4602 15.6582 21.2947 15.6816 21.1892 15.6275C20.9695 15.5161 20.9651 15.1939 21.1819 15.084C21.2903 15.0284 21.4265 15.0415 21.5276 15.1192L21.5818 15.1602L21.6492 15.0928C21.7151 15.0254 21.7165 15.0254 21.6887 14.9947C21.6741 14.9786 21.6199 14.9449 21.5686 14.92C21.4485 14.8599 21.2654 14.8467 21.1379 14.8892Z" fill="black"/>
<path d="M12.7753 15.354V15.8301H12.8851H12.995V15.6982V15.5664H13.1268C13.2967 15.5664 13.389 15.5459 13.474 15.4888C13.6366 15.3775 13.6571 15.1299 13.515 14.9878C13.4256 14.897 13.3378 14.878 13.0272 14.878H12.7753V15.354ZM13.2967 15.0772C13.3876 15.1197 13.4154 15.2251 13.3612 15.313C13.326 15.3701 13.2631 15.3906 13.1092 15.3906H12.995V15.2222V15.0537H13.121C13.2074 15.0537 13.2631 15.0611 13.2967 15.0772Z" fill="black"/>
<path d="M13.7418 15.354V15.8301H13.8488L13.9542 15.8286L14.1725 15.5298C14.2926 15.3643 14.3951 15.2339 14.3995 15.2383C14.4039 15.2427 14.4054 15.3775 14.4039 15.5386L14.3995 15.8301H14.5094H14.6207V15.354V14.8765L14.5152 14.8809L14.4098 14.8853L14.2003 15.1709C14.0846 15.3277 13.9821 15.4639 13.9718 15.4741C13.9586 15.4888 13.9557 15.4258 13.9586 15.1856L13.9645 14.878H13.8531H13.7418V15.354Z" fill="black"/>
<path d="M15.1291 14.9248C15.1086 14.9717 14.987 15.2412 14.8185 15.6104C14.7731 15.7114 14.7321 15.8022 14.7277 15.811C14.7218 15.8257 14.7482 15.8301 14.8346 15.8301H14.9504L14.9928 15.7275L15.0339 15.625H15.258H15.4821L15.5231 15.7275L15.5656 15.8301H15.6798C15.7414 15.8301 15.7926 15.8257 15.7926 15.8184C15.7912 15.8125 15.6974 15.6001 15.5832 15.3467L15.3737 14.8853L15.2609 14.8809L15.1496 14.8765L15.1291 14.9248ZM15.3356 15.2808L15.4088 15.4566L15.2624 15.461C15.1818 15.4624 15.113 15.4624 15.11 15.4595C15.1071 15.4566 15.1379 15.3745 15.1803 15.2764C15.2214 15.1783 15.2565 15.0992 15.2594 15.1006C15.2609 15.1035 15.2961 15.1841 15.3356 15.2808Z" fill="black"/>
<path d="M16.2467 15.354V15.8301H16.3566H16.4664V15.6323V15.4346H16.6861H16.9059V15.6323V15.8301H17.0157H17.1256V15.354V14.878H17.0157H16.9059V15.0684V15.2588H16.6861H16.4664V15.0684V14.878H16.3566H16.2467V15.354Z" fill="black"/>
<path d="M18.6049 15.354V15.8301H18.8949C19.1952 15.8301 19.264 15.8198 19.3461 15.7671C19.4325 15.71 19.4735 15.5899 19.4413 15.4888C19.4222 15.4331 19.3358 15.3467 19.2992 15.3467C19.2845 15.3467 19.2948 15.3291 19.327 15.2984C19.4252 15.2061 19.4339 15.0596 19.3461 14.9717C19.2699 14.8955 19.182 14.878 18.8729 14.878H18.6049V15.354ZM19.1381 15.0699C19.1849 15.1065 19.1893 15.1797 19.1483 15.231C19.1234 15.2632 19.1073 15.2661 18.9725 15.2705L18.8246 15.2764V15.1577V15.0391H18.9623C19.078 15.0391 19.1044 15.0435 19.1381 15.0699ZM19.1527 15.4404C19.2128 15.4653 19.223 15.4815 19.223 15.5488C19.223 15.5884 19.2128 15.6104 19.1835 15.6353C19.1483 15.666 19.1307 15.669 18.9842 15.669H18.8246V15.5444V15.4199H18.9637C19.0502 15.4199 19.1219 15.4273 19.1527 15.4404Z" fill="black"/>
<path d="M21.7869 14.9659L21.7898 15.0523L21.9421 15.0567L22.0959 15.0611L22.0945 15.4448L22.093 15.8301H22.2058H22.3186L22.3157 15.4712C22.3157 15.2735 22.3171 15.0992 22.3215 15.083C22.3288 15.0581 22.345 15.0537 22.4783 15.0508L22.6262 15.0464L22.6306 14.9615L22.6365 14.878H22.2102H21.7854L21.7869 14.9659Z" fill="black"/>
<path d="M22.8092 15.354V15.8301L22.9161 15.8286H23.0216L23.2399 15.5298C23.3614 15.3643 23.4625 15.2339 23.4654 15.2368C23.4698 15.2412 23.4728 15.376 23.4728 15.5371V15.8301H23.5812H23.6881V15.354V14.8765L23.5826 14.8809L23.4772 14.8853L23.2574 15.1841C23.0817 15.4229 23.0363 15.4771 23.0275 15.4551C23.0231 15.4404 23.0187 15.3057 23.0187 15.1563V14.8853L22.9147 14.8809L22.8092 14.8765V15.354Z" fill="black"/>
<path d="M7.86043 10.7216C7.87596 10.5114 7.94184 10.3079 8.05251 10.1284C8.08175 10.0791 8.1142 10.0356 8.14519 9.9862C8.42296 10.0465 8.69187 10.142 8.94539 10.2704C8.85234 10.3915 8.79068 10.5338 8.76588 10.6845C8.74086 10.8492 8.76003 11.0176 8.82143 11.1725C8.88721 11.323 8.98428 11.4578 9.10619 11.568C9.22296 11.6745 9.35427 11.764 9.49621 11.8337C9.77113 11.9682 10.0688 12.0502 10.3739 12.0755C10.4356 12.0817 10.4976 12.0817 10.5595 12.0817C10.5718 12.1188 10.5905 12.162 10.6028 12.2052C10.4878 12.2197 10.372 12.228 10.2561 12.23C9.82278 12.2423 9.38336 12.1868 8.98106 12.0446C8.57848 11.8953 8.20717 11.6544 8.00983 11.3022C7.89951 11.1294 7.84718 10.9261 7.86043 10.7216V10.7216ZM10.0824 13.6687C9.37692 13.6316 8.67116 13.4835 8.02737 13.1807C7.69952 13.0325 7.39508 12.8373 7.12367 12.6012C6.85148 12.3588 6.61613 12.0685 6.47374 11.7286C6.32583 11.3888 6.27649 11.0144 6.33136 10.648C6.36401 10.4401 6.42654 10.2381 6.51701 10.0481C6.1272 10.1579 5.76173 10.3404 5.43994 10.5861C5.4338 10.6357 5.42767 10.6912 5.42153 10.7406C5.39058 11.1436 5.47656 11.5469 5.66916 11.9023C5.85481 12.254 6.1387 12.5627 6.4603 12.81C6.79014 13.0565 7.15262 13.256 7.53737 13.4029C8.31126 13.7058 9.15297 13.8293 9.98884 13.8232C10.2308 13.8211 10.4725 13.8067 10.713 13.7799C10.7192 13.7429 10.7256 13.7058 10.7317 13.6631C10.5158 13.6805 10.2989 13.6824 10.0827 13.6687H10.0824ZM7.40843 12.254C7.65861 12.443 7.93356 12.5967 8.22559 12.711C8.81383 12.9397 9.45762 13.0384 10.0967 13.0262C10.3161 13.0243 10.5351 13.0099 10.7528 12.9829C10.7542 12.9662 10.7521 12.9494 10.7467 12.9336C10.7467 12.9149 10.7405 12.8965 10.7405 12.8778C10.5733 12.884 10.4061 12.884 10.2391 12.8778C9.73121 12.8516 9.23281 12.73 8.76998 12.5195C8.53834 12.4099 8.3221 12.2705 8.12677 12.1047C7.92758 11.9307 7.76542 11.7185 7.64993 11.4806C7.53607 11.2358 7.49731 10.9627 7.53854 10.6959C7.57868 10.4409 7.68021 10.1995 7.83441 9.99233C7.84532 9.97665 7.85787 9.96216 7.87183 9.94911C7.63249 9.91298 7.38976 9.90475 7.14852 9.92458C7.04941 9.93071 6.95673 9.94911 6.86376 9.96138C6.74437 10.1857 6.67074 10.4315 6.64712 10.6845C6.61693 10.9872 6.67726 11.2921 6.82049 11.5606C6.95059 11.8337 7.16197 12.0685 7.40843 12.254V12.254ZM9.97773 14.4736C9.07374 14.4365 8.17004 14.251 7.34031 13.8804C6.91944 13.6964 6.5275 13.4525 6.1767 13.1561C5.82382 12.8594 5.52034 12.5011 5.32241 12.0755C5.14989 11.7069 5.06962 11.3019 5.08852 10.8954C4.74367 11.2437 4.48046 11.6641 4.31784 12.1263C4.15523 12.5884 4.09727 13.0809 4.14813 13.5681C4.19899 14.0554 4.35742 14.5253 4.61199 14.944C4.86655 15.3627 5.21093 15.7199 5.6203 15.9896C6.02967 16.2594 6.49384 16.4351 6.97938 16.504C7.46491 16.573 7.95971 16.5335 8.42814 16.3885C8.89657 16.2434 9.32695 15.9964 9.68828 15.6652C10.0496 15.3339 10.3329 14.9268 10.5177 14.473C10.3372 14.4786 10.1572 14.4783 9.97773 14.4721V14.4736ZM9.16671 10.3939C9.11188 10.4923 9.08179 10.6026 9.079 10.7152C9.07849 10.8166 9.1091 10.9158 9.16671 10.9993C9.2781 11.1722 9.47633 11.2896 9.69297 11.3577C9.86955 11.4107 10.0533 11.4361 10.2376 11.433C9.95958 11.0138 9.5943 10.6594 9.16671 10.3939V10.3939Z" fill="#FFCC44"/>
</svg>
