<svg width="54" height="27" viewBox="0 0 54 27" fill="none" xmlns="http://www.w3.org/2000/svg">
<rect x="0.734253" y="0.146362" width="53.1162" height="26.1574" rx="2.38982" fill="white"/>
<rect x="0.734253" y="0.146362" width="53.1162" height="26.1574" rx="2.38982" stroke="#D3D3D3" stroke-width="0.292725"/>
<g clip-path="url(#clip0_50_3111)">
<path fill-rule="evenodd" clip-rule="evenodd" d="M14.3868 14.3535C14.3868 13.544 15.2757 13.5115 16.3359 13.5115H16.4817V12.6441H16.2847C15.2331 12.6441 14.566 12.5711 14.566 12.0149C14.566 11.5325 14.9762 11.3847 15.5154 11.3847C16.2224 11.3847 16.6046 11.5293 16.9004 11.7282V10.6815C16.6099 10.5507 16.1569 10.4443 15.5155 10.4443C14.318 10.4443 13.3695 10.8861 13.3695 11.9653C13.3695 12.3989 13.5997 12.9471 14.2497 13.0615C13.5742 13.168 13.1725 13.7486 13.1725 14.3536C13.1723 15.5643 14.224 16.0061 15.5154 16.0061C16.4382 16.0061 17.0626 15.8835 17.4728 15.6131V14.5153C17.1803 14.8124 16.5073 15.0658 15.7542 15.0658C15.1511 15.0658 14.3868 14.8854 14.3868 14.3536V14.3535ZM27.7941 10.5671H21.7839V13.6755L18.0972 10.4443H18.0462V15.8835H19.2386V12.8894L22.9244 16.0061H22.9762V11.5073H24.7724V15.8835H25.964V11.5073H27.7941V10.567V10.5671ZM11.0845 10.5834H9.87524V15.8671H13.029V14.851H11.0845V10.5834ZM39.0784 12.6479C39.0784 11.3146 38.1924 10.5834 36.7174 10.5834H34.9614V15.8671H36.1552V14.713H36.7172C36.8795 14.713 37.0411 14.705 37.1865 14.6799L38.2859 15.8671H39.6921L38.2517 14.2659C38.7798 13.8834 39.0782 13.2983 39.0782 12.6477L39.0784 12.6479ZM36.5982 13.7777H36.1553V11.5179H36.6068C37.4597 11.5179 37.8854 11.9328 37.8854 12.6477C37.8854 13.282 37.4425 13.7777 36.5982 13.7777V13.7777ZM33.6036 14.7547C33.5183 14.7544 33.4337 14.7702 33.3548 14.8013C33.2759 14.8324 33.2042 14.8782 33.1439 14.936C33.0836 14.9938 33.0358 15.0625 33.0033 15.1381C32.9709 15.2137 32.9543 15.2947 32.9547 15.3764C32.9547 15.7252 33.2449 16.0061 33.6036 16.0061C33.9547 16.0061 34.245 15.7252 34.245 15.3764C34.245 15.0292 33.9547 14.7547 33.6036 14.7547ZM43.5074 10.5834V13.3764C43.5074 14.5423 43.0397 15.0686 42.2747 15.0686C41.4847 15.0686 41.0383 14.5423 41.0383 13.3764V10.5834H39.8356V13.1231C39.8356 14.893 40.4969 16.0061 42.2747 16.0061C44.0532 16.0061 44.7095 14.8686 44.7095 13.1231V10.5834H43.5074V10.5834ZM29.569 10.4443H29.5179L26.6474 15.8671H27.9284L28.3469 14.9862H30.7989L31.2438 15.8671H32.5248L29.5689 10.4443H29.569ZM28.7748 14.0891L29.5435 12.4911L30.3463 14.0891H28.7746H28.7748Z" fill="#2D2D2D"/>
</g>
<defs>
<clipPath id="clip0_50_3111">
<rect width="34.8342" height="5.56177" fill="white" transform="translate(9.87524 10.4443)"/>
</clipPath>
</defs>
</svg>
