<svg width="54" height="27" viewBox="0 0 54 27" fill="none" xmlns="http://www.w3.org/2000/svg">
<rect x="0.706909" y="0.146362" width="53.1162" height="26.1574" rx="2.38982" fill="white"/>
<rect x="0.706909" y="0.146362" width="53.1162" height="26.1574" rx="2.38982" stroke="#D3D3D3" stroke-width="0.292725"/>
<path fill-rule="evenodd" clip-rule="evenodd" d="M35.4319 12.6611C35.0769 12.7089 34.903 12.7595 34.5902 12.9061C34.0055 13.18 33.6658 13.621 33.5556 14.2494L33.5354 14.3648H34.1541H34.7728L34.8176 14.2419C34.8775 14.0777 35.1457 13.8494 35.3629 13.7779C35.4679 13.7434 35.6566 13.7199 35.83 13.7199C36.0841 13.7199 36.1499 13.7341 36.3509 13.8322C36.5099 13.9098 36.6089 13.9864 36.6715 14.0802C36.7772 14.2386 36.8646 14.5049 36.8646 14.6689V14.7841L35.9244 14.7997C35.1139 14.8132 34.9464 14.8255 34.71 14.8896C33.8534 15.1217 33.4085 15.632 33.3351 16.4668C33.239 17.5581 34.0843 18.3771 35.3065 18.3768C35.8842 18.3766 36.313 18.2447 36.7142 17.9436C36.8384 17.8504 36.9454 17.7742 36.9519 17.7742C36.9585 17.7742 36.9749 17.8501 36.9884 17.9429C37.041 18.3044 36.9808 18.2714 37.5874 18.2714H38.1235L38.1087 16.3092C38.0955 14.5697 38.0867 14.3228 38.0309 14.1339C37.954 13.8734 37.7988 13.5577 37.6638 13.3868C37.5323 13.2204 37.1993 12.9715 36.9628 12.8628C36.5711 12.6829 35.9133 12.5962 35.4319 12.6611ZM20.5321 15.5012V18.2714H22.8423H25.1525V18.8218V19.3723H25.7255H26.2986V18.2536V17.1349H25.9228H25.547L25.5378 14.9419L25.5285 12.7489L24.911 12.7391L24.2934 12.7295L24.2842 14.9233L24.275 17.1172H23.0393H21.8036L21.7944 14.9241L21.7852 12.7311H21.1586H20.5321V15.5012ZM27.194 15.5021V18.273L27.827 18.2633L28.4599 18.2536L29.7611 16.4106L31.0622 14.5676V16.4195V18.2714H31.689H32.3158V15.5012V12.7311L31.698 12.7317L31.0801 12.7322L29.7728 14.5864L28.4655 16.4406L28.4562 14.5859L28.447 12.7311H27.8205H27.194V15.5021ZM39.3359 15.5012V18.2714H39.9622H40.5885L40.598 17.1793L40.6074 16.0872L41.8879 16.0779L43.1683 16.0686V17.17V18.2714H43.7056H44.2428V15.5012V12.7311H43.7056H43.1683V13.8325V14.9339L41.8879 14.9246L40.6074 14.9153L40.598 13.8232L40.5885 12.7311H39.9622H39.3359V15.5012ZM36.8646 16.0125C36.8646 16.1428 36.8325 16.3424 36.7893 16.481C36.7255 16.6859 36.6809 16.7549 36.4939 16.9379C36.1985 17.2268 36.01 17.2947 35.5035 17.2947C35.0945 17.2947 34.9446 17.2553 34.7738 17.1026C34.6322 16.976 34.5723 16.8191 34.5723 16.5748C34.5723 16.2774 34.713 16.0637 34.9926 15.9368C35.2459 15.8218 35.4635 15.7964 36.2467 15.7902L36.8646 15.7854V16.0125Z" fill="#152242"/>
<path fill-rule="evenodd" clip-rule="evenodd" d="M15.7755 7.13051C15.129 7.3026 14.5691 7.86013 14.3931 8.5072C14.3697 8.59306 14.3506 8.80683 14.3506 8.98224C14.3506 9.45041 14.4636 9.78932 14.7504 10.1815C14.8931 10.3767 16.2469 12.0138 16.2656 12.0138C16.2718 12.0138 16.6293 11.5854 17.0599 11.0617C17.9331 10 18.1006 9.73044 18.1692 9.2772C18.3158 8.30736 17.6905 7.37586 16.726 7.1272C16.4672 7.06048 16.0329 7.06199 15.7755 7.13051ZM16.669 8.19272C17.0782 8.38529 17.2752 8.95224 17.0751 9.36135C16.9274 9.6635 16.5913 9.87609 16.2615 9.87609C15.6094 9.87609 15.1732 9.1715 15.4658 8.59051C15.6892 8.14666 16.2072 7.97542 16.669 8.19272ZM12.2119 14.9229C10.4038 17.0905 10.308 17.2126 10.2977 17.3614L10.2869 17.5181L10.876 18.0079C11.2001 18.2773 11.4684 18.4939 11.4725 18.4893C11.4765 18.4846 12.0713 17.7695 12.7941 16.9C13.5171 16.0306 14.1192 15.3162 14.1323 15.3126C14.1454 15.3089 14.7511 16.0233 15.4782 16.9002L16.8002 18.4944L16.899 18.4158C16.9533 18.3725 17.2511 18.127 17.5607 17.8701C18.1096 17.4146 18.122 17.4012 18.0607 17.3311C18.0261 17.2916 17.7746 16.9899 17.5017 16.6606L17.0056 16.062V14.4421V12.8222H16.2978H15.5899V13.5617C15.5899 14.0151 15.5765 14.2966 15.5553 14.2892C15.5363 14.2827 15.2164 13.9135 14.8444 13.4689C14.4725 13.0243 14.1563 12.6561 14.1417 12.6508C14.1272 12.6454 13.2588 13.6679 12.2119 14.9229Z" fill="#0468FF"/>
</svg>
