<svg width="55" height="28" viewBox="0 0 55 28" fill="none" xmlns="http://www.w3.org/2000/svg">
<rect x="0.681906" y="0.848898" width="53.6774" height="26.434" rx="2.80679" fill="white"/>
<rect x="0.681906" y="0.848898" width="53.6774" height="26.434" rx="2.80679" stroke="#D3D3D3" stroke-width="0.295452"/>
<path d="M12.5683 9.32078C13.0297 9.32078 13.4305 9.39926 13.7705 9.55622C14.1105 9.70827 14.3728 9.92899 14.5574 10.2184C14.742 10.5029 14.8343 10.8389 14.8343 11.2264C14.8343 11.6138 14.742 11.9498 14.5574 12.2343C14.3728 12.5188 14.1105 12.7395 13.7705 12.8965C13.4305 13.0485 13.0297 13.1246 12.5683 13.1246H11.6794V14.471H10.2367V9.32078H12.5683ZM12.4808 11.9768C12.7771 11.9768 13.0006 11.913 13.1512 11.7855C13.3018 11.6531 13.377 11.4667 13.377 11.2264C13.377 10.986 13.3018 10.7996 13.1512 10.6672C13.0006 10.5348 12.7771 10.4685 12.4808 10.4685H11.6794V11.9768H12.4808Z" fill="#E64926"/>
<path d="M17.7673 13.1025H16.9803V14.471H15.5377V9.32078H17.8693C18.3307 9.32078 18.7315 9.39926 19.0715 9.55622C19.4115 9.70827 19.6738 9.92899 19.8584 10.2184C20.043 10.5029 20.1353 10.8389 20.1353 11.2264C20.1353 11.5991 20.0478 11.9253 19.873 12.2049C19.703 12.4796 19.4577 12.6954 19.1371 12.8523L20.2373 14.471H18.6926L17.7673 13.1025ZM18.678 11.2264C18.678 10.986 18.6027 10.7996 18.4522 10.6672C18.3016 10.5348 18.0781 10.4685 17.7818 10.4685H16.9803V11.9768H17.7818C18.0781 11.9768 18.3016 11.913 18.4522 11.7855C18.6027 11.6531 18.678 11.4667 18.678 11.2264Z" fill="#E64926"/>
<path d="M25.026 13.3453V14.471H20.9312V9.32078H24.9313V10.4465H22.3593V11.3146H24.6253V12.4035H22.3593V13.3453H25.026Z" fill="#E64926"/>
<path d="M27.619 14.574C27.2061 14.574 26.8054 14.5225 26.4168 14.4195C26.0282 14.3165 25.7124 14.1791 25.4696 14.0075L25.9432 12.9333C26.1715 13.0853 26.4362 13.208 26.7373 13.3012C27.0385 13.3943 27.3348 13.4409 27.6263 13.4409C28.18 13.4409 28.4569 13.3012 28.4569 13.0216C28.4569 12.8744 28.3767 12.7665 28.2164 12.6978C28.061 12.6243 27.8084 12.5482 27.4587 12.4698C27.0749 12.3864 26.7543 12.2981 26.4969 12.2049C26.2395 12.1068 26.0184 11.9523 25.8339 11.7414C25.6493 11.5305 25.557 11.246 25.557 10.8879C25.557 10.574 25.642 10.292 25.812 10.0418C25.982 9.78675 26.2346 9.58565 26.5698 9.4385C26.9098 9.29135 27.3251 9.21777 27.8157 9.21777C28.1509 9.21777 28.4812 9.25701 28.8066 9.33549C29.1321 9.40907 29.4187 9.51943 29.6664 9.66658L29.2219 10.7481C28.7362 10.4833 28.265 10.3508 27.8084 10.3508C27.5218 10.3508 27.313 10.395 27.1818 10.4833C27.0507 10.5666 26.9851 10.677 26.9851 10.8143C26.9851 10.9517 27.0628 11.0547 27.2182 11.1234C27.3737 11.192 27.6238 11.2631 27.9687 11.3367C28.3573 11.4201 28.6779 11.5108 28.9305 11.6089C29.1879 11.7021 29.409 11.8542 29.5935 12.0651C29.783 12.2711 29.8777 12.5531 29.8777 12.9112C29.8777 13.2202 29.7927 13.4998 29.6227 13.75C29.4527 14.0001 29.1977 14.2012 28.8576 14.3533C28.5176 14.5004 28.1047 14.574 27.619 14.574Z" fill="#E64926"/>
<path d="M32.3365 14.574C31.9236 14.574 31.5229 14.5225 31.1343 14.4195C30.7457 14.3165 30.4299 14.1791 30.1871 14.0075L30.6607 12.9333C30.889 13.0853 31.1537 13.208 31.4549 13.3012C31.756 13.3943 32.0523 13.4409 32.3438 13.4409C32.8975 13.4409 33.1744 13.3012 33.1744 13.0216C33.1744 12.8744 33.0943 12.7665 32.934 12.6978C32.7785 12.6243 32.5259 12.5482 32.1762 12.4698C31.7925 12.3864 31.4719 12.2981 31.2144 12.2049C30.957 12.1068 30.736 11.9523 30.5514 11.7414C30.3668 11.5305 30.2745 11.246 30.2745 10.8879C30.2745 10.574 30.3595 10.292 30.5295 10.0418C30.6995 9.78675 30.9521 9.58565 31.2873 9.4385C31.6273 9.29135 32.0426 9.21777 32.5332 9.21777C32.8684 9.21777 33.1987 9.25701 33.5241 9.33549C33.8496 9.40907 34.1362 9.51943 34.3839 9.66658L33.9395 10.7481C33.4537 10.4833 32.9825 10.3508 32.5259 10.3508C32.2393 10.3508 32.0305 10.395 31.8993 10.4833C31.7682 10.5666 31.7026 10.677 31.7026 10.8143C31.7026 10.9517 31.7803 11.0547 31.9358 11.1234C32.0912 11.192 32.3414 11.2631 32.6862 11.3367C33.0748 11.4201 33.3954 11.5108 33.648 11.6089C33.9055 11.7021 34.1265 11.8542 34.3111 12.0651C34.5005 12.2711 34.5952 12.5531 34.5952 12.9112C34.5952 13.2202 34.5102 13.4998 34.3402 13.75C34.1702 14.0001 33.9152 14.2012 33.5752 14.3533C33.2351 14.5004 32.8222 14.574 32.3365 14.574Z" fill="#E64926"/>
<path d="M11.8638 18.0535H11.3102V19.0163H10.2952V15.3928H11.9356C12.2603 15.3928 12.5422 15.448 12.7814 15.5584C13.0207 15.6654 13.2052 15.8207 13.3351 16.0243C13.465 16.2245 13.5299 16.4609 13.5299 16.7335C13.5299 16.9958 13.4684 17.2253 13.3453 17.422C13.2257 17.6152 13.0531 17.7671 12.8276 17.8775L13.6017 19.0163H12.5149L11.8638 18.0535ZM12.5046 16.7335C12.5046 16.5644 12.4517 16.4333 12.3457 16.3401C12.2398 16.2469 12.0826 16.2003 11.8741 16.2003H11.3102V17.2615H11.8741C12.0826 17.2615 12.2398 17.2166 12.3457 17.1269C12.4517 17.0337 12.5046 16.9026 12.5046 16.7335Z" fill="#4B5A6F"/>
<path d="M16.9709 18.2243V19.0163H14.0899V15.3928H16.9042V16.1848H15.0946V16.7956H16.6889V17.5617H15.0946V18.2243H16.9709Z" fill="#4B5A6F"/>
<path d="M17.5341 15.3928H18.5492V18.2036H20.2614V19.0163H17.5341V15.3928Z" fill="#4B5A6F"/>
<path d="M23.544 18.2243V19.0163H20.663V15.3928H23.4774V16.1848H21.6678V16.7956H23.2621V17.5617H21.6678V18.2243H23.544Z" fill="#4B5A6F"/>
<path d="M26.5115 18.3123H24.9941L24.7122 19.0163H23.6767L25.2607 15.3928H26.2604L27.8495 19.0163H26.7935L26.5115 18.3123ZM26.2142 17.5566L25.7528 16.397L25.2915 17.5566H26.2142Z" fill="#4B5A6F"/>
<path d="M29.3984 19.0888C29.1079 19.0888 28.8259 19.0526 28.5525 18.9801C28.2791 18.9076 28.057 18.811 27.8861 18.6902L28.2193 17.9344C28.3799 18.0414 28.5662 18.1277 28.7781 18.1933C28.99 18.2588 29.1984 18.2916 29.4035 18.2916C29.7931 18.2916 29.9879 18.1933 29.9879 17.9966C29.9879 17.893 29.9315 17.8171 29.8187 17.7688C29.7094 17.717 29.5316 17.6635 29.2856 17.6083C29.0156 17.5497 28.79 17.4875 28.6089 17.422C28.4278 17.3529 28.2723 17.2442 28.1424 17.0958C28.0125 16.9475 27.9476 16.7473 27.9476 16.4954C27.9476 16.2745 28.0074 16.0761 28.127 15.9001C28.2466 15.7206 28.4244 15.5791 28.6602 15.4756C28.8994 15.3721 29.1916 15.3203 29.5368 15.3203C29.7726 15.3203 30.005 15.3479 30.234 15.4031C30.4629 15.4549 30.6646 15.5325 30.8389 15.6361L30.5262 16.397C30.1844 16.2107 29.8529 16.1175 29.5316 16.1175C29.33 16.1175 29.1831 16.1486 29.0908 16.2107C28.9985 16.2693 28.9524 16.347 28.9524 16.4436C28.9524 16.5402 29.007 16.6127 29.1164 16.661C29.2258 16.7093 29.4018 16.7594 29.6444 16.8111C29.9178 16.8698 30.1434 16.9337 30.3211 17.0027C30.5022 17.0682 30.6577 17.1752 30.7876 17.3236C30.9209 17.4686 30.9875 17.667 30.9875 17.9189C30.9875 18.1363 30.9277 18.333 30.8081 18.509C30.6885 18.685 30.5091 18.8265 30.2698 18.9335C30.0306 19.037 29.7401 19.0888 29.3984 19.0888Z" fill="#4B5A6F"/>
<path d="M34.3374 18.2243V19.0163H31.4564V15.3928H34.2708V16.1848H32.4612V16.7956H34.0555V17.5617H32.4612V18.2243H34.3374Z" fill="#4B5A6F"/>
<path d="M38.8231 15.7338L38.1816 14.7982H37.4735V15.7338H36.7037V12.375H38.1436C38.4382 12.375 38.6932 12.4246 38.9086 12.5237C39.1272 12.6229 39.2951 12.7637 39.4123 12.946C39.5295 13.1283 39.5881 13.3443 39.5881 13.5938C39.5881 13.8433 39.5279 14.0592 39.4076 14.2416C39.2903 14.4207 39.1224 14.5582 38.9039 14.6542L39.6499 15.7338H38.8231ZM38.8088 13.5938C38.8088 13.405 38.7486 13.2611 38.6282 13.1619C38.5079 13.0596 38.332 13.0084 38.1008 13.0084H37.4735V14.1792H38.1008C38.332 14.1792 38.5079 14.128 38.6282 14.0256C38.7486 13.9233 38.8088 13.7793 38.8088 13.5938Z" fill="#4B5A6F"/>
<path d="M41.6759 15.7914C41.2007 15.7914 40.83 15.6587 40.5639 15.3932C40.301 15.1276 40.1695 14.7486 40.1695 14.256V12.375H40.9393V14.2272C40.9393 14.8286 41.1864 15.1292 41.6806 15.1292C41.9214 15.1292 42.1051 15.0573 42.2318 14.9133C42.3585 14.7662 42.4219 14.5375 42.4219 14.2272V12.375H43.1822V14.256C43.1822 14.7486 43.0492 15.1276 42.783 15.3932C42.5201 15.6587 42.1511 15.7914 41.6759 15.7914Z" fill="#4B5A6F"/>
<path d="M44.387 14.0294C44.387 16.5566 42.3592 18.5983 39.8664 18.5983C37.3735 18.5983 35.3458 16.5566 35.3458 14.0294C35.3458 11.5022 37.3735 9.4605 39.8664 9.4605C42.3592 9.4605 44.387 11.5022 44.387 14.0294Z" stroke="#4B5A6F" stroke-width="0.835067"/>
</svg>
