<svg width="54" height="27" viewBox="0 0 54 27" fill="none" xmlns="http://www.w3.org/2000/svg">
<rect x="0.680362" y="0.146183" width="53.1166" height="26.1578" rx="2.77747" fill="white"/>
<rect x="0.680362" y="0.146183" width="53.1166" height="26.1578" rx="2.77747" stroke="#D3D3D3" stroke-width="0.292365"/>
<path fill-rule="evenodd" clip-rule="evenodd" d="M17.8777 13.5178L14.6671 16.7338H17.8831H21.0991V13.5178C21.0991 11.749 21.0967 10.3018 21.0937 10.3018C21.0908 10.3018 19.6436 11.749 17.8777 13.5178Z" fill="#2A8288"/>
<path d="M14.6671 16.7338L17.8777 13.5178C19.6436 11.749 21.0908 10.3018 21.0937 10.3018C21.0967 10.3018 21.0991 11.749 21.0991 13.5178V16.7338H17.8831H14.6671Z" fill="#2A8288"/>
<path fill-rule="evenodd" clip-rule="evenodd" d="M17.3037 12.9334L20.5143 9.71738H17.2983H14.0822L14.0822 12.9334C14.0822 14.7022 14.0847 16.1494 14.0877 16.1494C14.0906 16.1494 15.5378 14.7022 17.3037 12.9334Z" fill="#92CFAE"/>
<path d="M20.5143 9.71738L17.3037 12.9334C15.5378 14.7022 14.0906 16.1494 14.0877 16.1494C14.0847 16.1494 14.0822 14.7022 14.0822 12.9334L14.0822 9.71738H17.2983H20.5143Z" fill="#92CFAE"/>
<path fill-rule="evenodd" clip-rule="evenodd" d="M22.561 13.2238V16.7308H23.3396H24.1182V15.4632V14.1956L24.7707 14.1829C25.1957 14.1747 25.4996 14.1582 25.6425 14.1358C26.2575 14.0393 26.7928 13.7798 27.0872 13.4355C27.4566 13.0036 27.608 12.4566 27.5592 11.73C27.5309 11.3089 27.4263 10.9705 27.2344 10.6793C27.1219 10.5084 26.8935 10.2775 26.7209 10.1599C26.5643 10.0533 26.2803 9.92627 26.0579 9.86344C25.608 9.7363 25.6063 9.73619 24.025 9.72611L22.561 9.7168V13.2238ZM28.2414 13.2267V16.7336L29.7382 16.7242C31.3284 16.7143 31.3523 16.7129 31.7606 16.601C32.5467 16.3856 33.0413 15.8724 33.1986 15.109C33.2531 14.8445 33.2641 14.3483 33.2211 14.0907C33.0698 13.1824 32.4422 12.6262 31.3926 12.4705C31.2225 12.4453 30.9824 12.4366 30.4589 12.4366H29.7541L29.7599 11.6971L29.7656 10.9577L31.2077 10.9521L32.6497 10.9464V10.3331V9.71982H30.4455H28.2414V13.2267ZM34.3823 13.2253V16.7308H35.1936H36.005L36.0106 15.162L36.0162 13.5933L37.2554 15.1616L38.4945 16.73L39.4449 16.7304L40.3953 16.7308L40.3301 16.6487C40.2943 16.6035 39.6228 15.7731 38.8379 14.8034C37.613 13.2902 37.4149 13.0356 37.4395 13.0069C37.4552 12.9884 38.0914 12.2464 38.8531 11.3578C39.6149 10.4693 40.2381 9.73711 40.2381 9.7308C40.2381 9.72449 39.851 9.7219 39.3779 9.72503L38.5177 9.73078L37.278 11.225C36.5961 12.0468 36.0308 12.7197 36.0217 12.7203C36.0126 12.7209 36.0053 12.046 36.0053 11.2206V9.71982H35.1938H34.3823V13.2253ZM25.3742 10.9765C25.7518 11.0829 25.9607 11.3 26.0385 11.6669C26.0973 11.9437 26.0661 12.3018 25.9629 12.5347C25.8974 12.6828 25.7133 12.8649 25.5511 12.9422C25.3333 13.0461 25.1434 13.072 24.5988 13.072H24.1182V11.996V10.9201L24.6829 10.9304C25.1126 10.9384 25.2779 10.9494 25.3742 10.9765ZM31.0763 13.5964C31.288 13.6505 31.4016 13.7089 31.5314 13.8302C31.7302 14.016 31.8245 14.3523 31.7771 14.7064C31.7217 15.12 31.5166 15.357 31.1116 15.4751C31.0216 15.5014 30.8475 15.5119 30.3743 15.5199L29.7547 15.5303V14.5421V13.554H30.3324C30.8321 13.554 30.9325 13.5597 31.0763 13.5964Z" fill="black"/>
</svg>
