<svg width="55" height="27" viewBox="0 0 55 27" fill="none" xmlns="http://www.w3.org/2000/svg">
<rect x="0.761417" y="0.596378" width="53.1166" height="26.1578" rx="2.77747" fill="white"/>
<rect x="0.761417" y="0.596378" width="53.1166" height="26.1578" rx="2.77747" stroke="#D3D3D3" stroke-width="0.292365"/>
<path fill-rule="evenodd" clip-rule="evenodd" d="M11.1417 9.9639C10.2299 10.2059 9.60008 10.8006 9.27943 11.7225C9.21099 11.9193 9.19324 12.1001 9.19324 12.6012C9.19324 13.1453 9.2083 13.2774 9.30275 13.5622C9.66825 14.664 10.6581 15.3345 11.9311 15.3427C12.4444 15.346 12.7723 15.2694 13.1967 15.047C13.4359 14.9216 13.9077 14.493 13.8591 14.4451C13.8479 14.4339 13.6362 14.275 13.3886 14.0918L12.9386 13.7588L12.7751 13.9252C12.5086 14.1964 12.3124 14.2684 11.8398 14.2684C11.4935 14.2684 11.3947 14.251 11.2093 14.1575C10.2504 13.6738 10.0369 12.1261 10.8221 11.3508C11.1428 11.034 11.3984 10.9339 11.8854 10.9341C12.3263 10.9343 12.494 10.9897 12.7394 11.2163C12.8486 11.3172 12.8727 11.3232 12.9446 11.2675C12.9894 11.2327 13.1854 11.0741 13.3802 10.9151C13.7118 10.6443 13.7304 10.6199 13.6716 10.5321C13.5746 10.3872 13.0998 10.085 12.8208 9.99058C12.4406 9.86184 11.5778 9.84814 11.1417 9.9639ZM25.643 11.9719C25.643 14.0311 25.6446 14.068 25.7312 14.0221C25.8928 13.9367 26.14 13.9666 26.261 14.0861C26.5877 14.4087 26.1927 14.9742 25.782 14.7718L25.643 14.7034V14.9703V15.2372H35.5447H45.4465V12.5561V9.875H35.5447H25.643V11.9719ZM14.5553 11.8239C14.5559 13.7486 14.5674 13.8736 14.7821 14.2909C15.0994 14.9079 15.6027 15.2337 16.3886 15.331C17.3848 15.4544 18.2738 15.0728 18.6715 14.3512C18.9204 13.8997 18.9353 13.7557 18.9353 11.8031V10.0102H18.3649H17.7945V11.7145C17.7945 13.6004 17.7823 13.6973 17.5097 13.9726C17.2844 14.2003 17.0632 14.2909 16.7335 14.2909C16.4886 14.2909 16.4066 14.2685 16.1968 14.1445C15.997 14.0263 15.9224 13.9464 15.811 13.731L15.6727 13.4639L15.6593 11.737L15.6459 10.0102H15.1003H14.5548L14.5553 11.8239ZM20.0304 12.6247V15.2475L21.2739 15.2254C22.3783 15.2059 22.5556 15.1924 22.8595 15.1046C24.1385 14.7355 24.8633 13.8348 24.8665 12.6105C24.8697 11.3636 24.213 10.4995 22.9886 10.1394C22.6875 10.0508 22.5234 10.0391 21.3423 10.0215L20.0304 10.002V12.6247ZM44.4252 10.3215C44.5537 10.3766 44.7245 10.4886 44.8047 10.5704L44.9507 10.7191L44.7002 10.9303L44.4499 11.1416L44.2411 10.9842C43.8169 10.6644 43.1232 10.7265 42.8894 11.1051C42.7896 11.2667 42.7719 11.5674 42.8521 11.7412C42.9307 11.9115 43.2088 12.0699 43.7021 12.2255C44.421 12.4523 44.6856 12.6185 44.8647 12.956C45.0064 13.2232 45.0034 13.7788 44.8588 14.0734C44.6096 14.5806 44.1693 14.8387 43.5024 14.8684C43.0032 14.8906 42.6617 14.8084 42.3115 14.5817C41.9765 14.3648 41.9472 14.2917 42.129 14.1274C42.497 13.7948 42.462 13.8041 42.6528 13.9881C42.9776 14.3011 43.4721 14.378 43.8777 14.1784C44.2433 13.9985 44.4032 13.6164 44.2418 13.3082C44.1583 13.1487 43.9239 13.0222 43.3426 12.8232C43.0818 12.7339 42.8023 12.6207 42.7214 12.5718C42.5039 12.4401 42.2303 12.1129 42.1692 11.9114C42.1007 11.6858 42.1003 11.2846 42.1682 11.0871C42.2922 10.7268 42.6612 10.3898 43.0791 10.2552C43.3847 10.1568 44.1265 10.1934 44.4252 10.3215ZM29.4306 12.1067L30.6623 13.9329V12.1067V10.2805H30.9817H31.3011V12.5336V14.7866L30.9019 14.7851L30.5026 14.7837L29.2706 12.9714L28.0386 11.1592L28.0266 12.9749L28.0147 14.7907L27.7072 14.7773L27.3997 14.7641L27.3879 12.5786C27.3813 11.3766 27.3858 10.3679 27.3978 10.3369C27.413 10.2979 27.5397 10.2805 27.8092 10.2805H28.1988L29.4306 12.1067ZM35.3166 10.596V10.9114H34.1758H33.0351V11.5414V12.1714L34.096 12.1835L35.1569 12.1956V12.4885V12.7814L34.0948 12.7935L33.0327 12.8056L33.0453 13.4919L33.0579 14.1783L34.2557 14.1903L35.4535 14.2023V14.495V14.7878L33.9363 14.7759L32.4191 14.7641L32.4072 12.5786C32.4006 11.3766 32.4051 10.3679 32.4171 10.3369C32.434 10.2935 32.7689 10.2805 33.8778 10.2805H35.3166V10.596ZM36.3661 10.2954C36.3661 10.3326 37.3244 13.7653 37.3387 13.7795C37.3477 13.7883 37.5662 13.0705 37.8243 12.1845C38.0825 11.2984 38.3213 10.5067 38.3551 10.4251L38.4164 10.2767L38.7668 10.2899L39.1172 10.3031L39.631 12.0604C39.9135 13.027 40.156 13.7874 40.1699 13.7502C40.1837 13.713 40.4022 12.9339 40.6555 12.0187C40.9089 11.1036 41.1266 10.3382 41.1394 10.3177C41.1684 10.2713 41.738 10.2682 41.7642 10.3143C41.7748 10.3329 41.4926 11.3417 41.1371 12.5561L40.4908 14.7641H40.1515H39.8122L39.287 12.9978C38.998 12.0264 38.7496 11.2457 38.7349 11.263C38.7141 11.2873 37.9455 13.861 37.7263 14.6401L37.6851 14.7866H37.345C37.158 14.7866 37.0049 14.7796 37.0049 14.771C37.0049 14.7624 36.7174 13.7744 36.3661 12.5754C36.0147 11.3764 35.7273 10.3695 35.7273 10.338C35.7273 10.2969 35.8183 10.2805 36.0467 10.2805C36.2223 10.2805 36.3661 10.2872 36.3661 10.2954ZM22.4124 11.0965C22.9626 11.21 23.3639 11.5095 23.5682 11.9589C23.68 12.2051 23.6894 12.268 23.6731 12.663C23.6525 13.1612 23.5488 13.43 23.2718 13.7036C22.9347 14.0364 22.5361 14.153 21.7302 14.1547L21.1712 14.1557V12.6012V11.0466H21.6709C21.9457 11.0466 22.2794 11.069 22.4124 11.0965ZM9.58109 16.0565C9.36978 16.197 9.26182 16.4197 9.26177 16.7152C9.26164 17.092 9.43462 17.3305 9.79268 17.4472C9.97365 17.5062 10.2918 17.4722 10.4153 17.3807C10.4847 17.3293 10.4885 17.303 10.4414 17.2008C10.4028 17.1172 10.3646 17.0904 10.3145 17.1118C10.0487 17.2254 9.75572 17.1523 9.6474 16.9454C9.5643 16.7867 9.56371 16.6722 9.64511 16.4798C9.72634 16.2879 9.96489 16.1947 10.183 16.2698C10.2617 16.2969 10.3301 16.3139 10.3352 16.3076C10.3403 16.3013 10.3697 16.2483 10.4005 16.1899C10.4824 16.0346 10.406 15.9863 10.048 15.9669C9.78433 15.9527 9.71817 15.9654 9.58109 16.0565ZM10.7675 16.7016V17.4451H11.2267H11.6859L11.6716 17.2987C11.6573 17.1523 11.6573 17.1523 11.3721 17.1388C11.0897 17.1256 11.0869 17.1241 11.0869 16.9924C11.0869 16.8612 11.0903 16.8594 11.3379 16.8594H11.5888V16.7016V16.5439H11.3379C11.0895 16.5439 11.0869 16.5426 11.0869 16.4088V16.2736H11.3607H11.6345V16.1159V15.9582H11.201H10.7675V16.7016ZM11.9995 16.7016V17.4451H12.1592H12.3189V17.0171C12.3189 16.7816 12.3343 16.59 12.3531 16.5912C12.3719 16.5924 12.5311 16.7842 12.7068 17.0175C12.9942 17.3991 13.041 17.4418 13.1745 17.4433L13.3228 17.4451V16.7016V15.9582H13.1647H13.0066L12.9936 16.4093L12.9806 16.8605L12.6248 16.4093C12.317 16.0189 12.2509 15.9582 12.1342 15.9582H11.9995V16.7016ZM13.5509 16.1159V16.2736H13.7791H14.0072V16.8594V17.4451H14.1669H14.3266V16.8594V16.2736H14.5548H14.7829V16.1159V15.9582H14.1669H13.5509V16.1159ZM15.0111 16.7016V17.4451H15.4703H15.9295L15.9152 17.2987C15.9009 17.1523 15.9009 17.1523 15.6157 17.1388C15.3333 17.1256 15.3305 17.1241 15.3305 16.9924C15.3305 16.8612 15.3339 16.8594 15.5815 16.8594H15.8324V16.7016V16.5439H15.5815C15.3331 16.5439 15.3305 16.5426 15.3305 16.4088V16.2736H15.6043H15.8781V16.1159V15.9582H15.4446H15.0111V16.7016ZM16.2887 16.697V17.4451H16.4256C16.561 17.4451 16.5625 17.4424 16.5625 17.2C16.5625 17.0651 16.5843 16.9415 16.611 16.9252C16.6751 16.8861 16.8087 17.0095 16.9625 17.2499C17.0781 17.4306 17.1017 17.445 17.2835 17.4451L17.4797 17.4451L17.2761 17.1634L17.0726 16.8817L17.1826 16.7554C17.3419 16.5724 17.3381 16.2414 17.1749 16.0899C17.0734 15.9957 17.0043 15.9785 16.673 15.9648L16.2887 15.9489V16.697ZM18.4433 16.0331C18.2036 16.1497 18.0954 16.3402 18.0767 16.6781C18.0629 16.9279 18.0765 16.9953 18.1672 17.1273C18.5019 17.614 19.2974 17.5785 19.5329 17.0664C19.7084 16.6847 19.5879 16.2386 19.2599 16.0566C19.0445 15.937 18.6633 15.926 18.4433 16.0331ZM19.9392 16.7016V17.4451H20.0989H20.2586V17.1748V16.9044H20.4867H20.7149V16.7467V16.589H20.4867H20.2586V16.4313V16.2736H20.5096H20.7605V16.1159V15.9582H20.3498H19.9392V16.7016ZM21.4973 16.5181C21.5111 16.9981 21.5269 17.0963 21.6079 17.2053C21.7519 17.399 21.9795 17.4995 22.2096 17.4709C22.647 17.4165 22.7683 17.1956 22.7683 16.4529V15.9582H22.6085H22.4488V16.4058C22.4488 17.0168 22.3832 17.1726 22.1251 17.1741C21.8946 17.1754 21.8349 17.0396 21.8167 16.4718L21.8002 15.9582H21.6407H21.4812L21.4973 16.5181ZM23.1333 16.6972V17.4451H23.2907H23.4481L23.4618 17.1896C23.4698 17.0412 23.4986 16.9266 23.5305 16.9162C23.5607 16.9064 23.6736 17.0208 23.7814 17.1705C23.9682 17.4299 23.9866 17.4428 24.1719 17.4439L24.3664 17.4451L24.1622 17.1681L23.958 16.8909L24.0704 16.7591C24.2248 16.5779 24.2258 16.2829 24.0727 16.1071C23.9695 15.9887 23.9365 15.9797 23.5479 15.965L23.1333 15.9492V16.6972ZM24.5935 16.7016V17.4451H24.9099C25.3125 17.4451 25.4427 17.3947 25.5353 17.2031C25.6195 17.0288 25.5945 16.8565 25.4666 16.7303C25.3867 16.6513 25.3867 16.6451 25.4678 16.5462C25.564 16.4288 25.5732 16.3244 25.5011 16.168C25.4294 16.0128 25.2758 15.9582 24.9107 15.9582H24.5935V16.7016ZM26.3307 16.0595C26.3086 16.1153 26.1756 16.4385 26.0352 16.7779C25.8948 17.1172 25.7799 17.4062 25.7799 17.42C25.7799 17.4338 25.8476 17.4451 25.9304 17.4451C26.061 17.4451 26.0886 17.4243 26.1387 17.2874L26.1964 17.1297H26.5093H26.8223L26.875 17.2874C26.9231 17.4314 26.943 17.4451 27.1035 17.4451H27.2794L26.9745 16.7024L26.6696 15.9597L26.5202 15.9589C26.4072 15.9583 26.361 15.9828 26.3307 16.0595ZM27.5138 16.7016V17.4451H27.6507H27.7876V17.0171C27.7876 16.7816 27.8037 16.589 27.8234 16.589C27.843 16.589 28.0106 16.7816 28.1959 17.0171C28.4806 17.379 28.5527 17.4451 28.662 17.4451H28.7915V16.7016V15.9582H28.6546H28.5177V16.4143C28.5177 16.9509 28.5341 16.9529 28.0775 16.3616C27.8178 16.0253 27.745 15.9582 27.6399 15.9582H27.5138V16.7016ZM29.6584 16.6962V17.4451H30.0091C30.6223 17.4451 30.9361 17.1912 30.9361 16.6948C30.9361 16.2066 30.6825 15.9955 30.0606 15.9661L29.6584 15.9471V16.6962ZM31.2555 16.7016V17.4451H31.7147H32.1739L32.1596 17.2987C32.1453 17.1523 32.1453 17.1523 31.8601 17.1388C31.5777 17.1256 31.5749 17.1241 31.5749 16.9924C31.5749 16.8612 31.5783 16.8594 31.8259 16.8594H32.0768V16.7016V16.5439H31.8259C31.5775 16.5439 31.5749 16.5426 31.5749 16.4088V16.2736H31.8487H32.1225V16.1159V15.9582H31.689H31.2555V16.7016ZM32.3244 16.0377C32.3395 16.0847 32.471 16.4156 32.6165 16.7729C32.8711 17.3979 32.8862 17.4226 33.0123 17.4226C33.1396 17.4226 33.1519 17.4012 33.4254 16.7016L33.7073 15.9807L33.5699 15.9661C33.4042 15.9485 33.3977 15.9578 33.2088 16.488C33.1271 16.7175 33.0419 16.8991 33.0194 16.8918C32.997 16.8844 32.9022 16.6764 32.8088 16.4295L32.6389 15.9807L32.4679 15.9664C32.3178 15.954 32.3003 15.9627 32.3244 16.0377ZM33.9477 16.7016V17.4451H34.3812H34.8147V17.2874V17.1297H34.5181H34.2215V16.9945C34.2215 16.8607 34.224 16.8594 34.4724 16.8594H34.7234V16.7016V16.5439H34.4724C34.224 16.5439 34.2215 16.5426 34.2215 16.4088V16.2736H34.4952H34.769V16.1159V15.9582H34.3584H33.9477V16.7016ZM35.1797 16.7016V17.4451H35.636H36.0923V17.2874V17.1297H35.7957H35.4991V16.5439V15.9582H35.3394H35.1797V16.7016ZM36.5481 16.0595C36.3278 16.2077 36.2223 16.3714 36.1954 16.6069C36.1297 17.1819 36.6206 17.5959 37.1888 17.4448C37.8319 17.2738 37.9688 16.3877 37.4046 16.048C37.1881 15.9177 36.7505 15.9235 36.5481 16.0595ZM38.1 16.7016V17.4451H38.2369C38.372 17.4451 38.3738 17.442 38.3738 17.203V16.9609L38.6107 16.9385C38.8032 16.9202 38.8715 16.8895 38.9757 16.7743C39.1143 16.6211 39.1498 16.3523 39.0546 16.1767C38.981 16.0408 38.7326 15.9582 38.3981 15.9582H38.1V16.7016ZM39.4233 16.7016V17.4451H39.583H39.7427V16.9945C39.7427 16.7467 39.7581 16.544 39.7769 16.544C39.7958 16.5441 39.8814 16.6458 39.9671 16.7701C40.208 17.119 40.2042 17.1189 40.4424 16.7811L40.6553 16.479V16.9621V17.4451H40.815H40.9747V16.7016V15.9582L40.8264 15.9582C40.7019 15.9583 40.6583 15.989 40.554 16.1497C40.4858 16.255 40.3825 16.3988 40.3245 16.4693L40.2191 16.5974L39.9923 16.2785C39.7803 15.9804 39.7544 15.9596 39.5944 15.9589L39.4233 15.9582V16.7016ZM41.3854 16.7016V17.4451H41.8446H42.3038L42.2895 17.2987L42.2752 17.1523L41.9872 17.1388C41.704 17.1255 41.6994 17.1232 41.7134 17.0036C41.7266 16.8907 41.7449 16.8809 41.9672 16.8683L42.2068 16.8546V16.6993V16.5439H41.9558C41.7074 16.5439 41.7048 16.5426 41.7048 16.4088V16.2736H41.9786H42.2524V16.1159V15.9582H41.8189H41.3854V16.7016ZM42.6631 16.7016V17.4451H42.8H42.9368V17.0171C42.9368 16.7816 42.9527 16.589 42.9722 16.589C42.9916 16.589 43.1583 16.7816 43.3428 17.0171C43.6286 17.3819 43.6975 17.4451 43.8094 17.4451H43.9407V16.7016V15.9582H43.8038H43.6669V16.3836C43.6669 16.6176 43.6516 16.8182 43.6327 16.8295C43.6139 16.8408 43.4445 16.6504 43.2563 16.4064C42.9721 16.038 42.8927 15.9623 42.7886 15.9605L42.6631 15.9582V16.7016ZM44.1689 16.1159V16.2736H44.397H44.6252V16.8594V17.4451H44.7849H44.9446V16.8594V16.2736H45.1727H45.4009V16.1159V15.9582H44.7849H44.1689V16.1159ZM19.1475 16.3701C19.4394 16.6408 19.2409 17.1748 18.8485 17.1748C18.6029 17.1748 18.3877 16.9559 18.3877 16.706C18.3877 16.3022 18.8528 16.0966 19.1475 16.3701ZM37.132 16.277C37.3166 16.3405 37.4156 16.4973 37.4156 16.7261C37.4156 16.8708 37.3864 16.9402 37.2822 17.0431C36.9984 17.3233 36.5486 17.1281 36.5486 16.7247C36.5486 16.4952 36.6048 16.3854 36.7665 16.2988C36.9181 16.2175 36.9532 16.2154 37.132 16.277ZM16.9257 16.339C17.0083 16.4372 16.9644 16.5594 16.8298 16.6062C16.6461 16.67 16.5625 16.6157 16.5625 16.4327C16.5625 16.282 16.5707 16.2736 16.7167 16.2736C16.8014 16.2736 16.8955 16.303 16.9257 16.339ZM23.8159 16.339C23.9001 16.4392 23.8303 16.5791 23.6799 16.6118C23.5001 16.6507 23.4527 16.6125 23.4527 16.4286C23.4527 16.2825 23.4616 16.2736 23.6068 16.2736C23.6916 16.2736 23.7857 16.303 23.8159 16.339ZM25.2095 16.4088C25.2095 16.5029 25.1851 16.5237 25.0612 16.5355C24.9224 16.5488 24.9129 16.5406 24.9129 16.4088C24.9129 16.277 24.9224 16.2688 25.0612 16.282C25.1851 16.2938 25.2095 16.3146 25.2095 16.4088ZM30.4833 16.4053C30.7367 16.6556 30.6142 17.0333 30.2481 17.1307C30.1485 17.1572 30.0469 17.1666 30.0224 17.1516C29.9979 17.1367 29.9778 16.933 29.9778 16.699V16.2736H30.1639C30.3087 16.2736 30.3795 16.3028 30.4833 16.4053ZM38.7568 16.375C38.8339 16.4964 38.7366 16.6091 38.5403 16.6255L38.3738 16.6395V16.4538V16.2681L38.5403 16.2821C38.6373 16.2903 38.7277 16.329 38.7568 16.375ZM26.6174 16.6453L26.6878 16.8143H26.5098H26.3318L26.4077 16.612C26.4908 16.3906 26.5129 16.3942 26.6174 16.6453ZM25.2696 16.9828C25.28 17.0547 25.2512 17.0986 25.1699 17.1352C25.0058 17.209 24.9129 17.1577 24.9129 16.9932C24.9129 16.8598 24.9201 16.8545 25.084 16.8679C25.2212 16.8791 25.258 16.9019 25.2696 16.9828Z" fill="black"/>
</svg>
