<svg width="54" height="27" viewBox="0 0 54 27" fill="none" xmlns="http://www.w3.org/2000/svg">
<rect x="0.680542" y="0.596558" width="53.1162" height="26.1574" rx="2.38982" fill="white"/>
<rect x="0.680542" y="0.596558" width="53.1162" height="26.1574" rx="2.38982" stroke="#D3D3D3" stroke-width="0.292725"/>
<path fill-rule="evenodd" clip-rule="evenodd" d="M43.72 16.1555L43.3527 11.2471H35.0535L35.4207 16.1555V16.3545L37.0888 17.3546H45.388V17.1556L43.72 16.1555Z" fill="#F01838"/>
<path fill-rule="evenodd" clip-rule="evenodd" d="M38.3285 12.6546C38.3234 12.6648 38.3234 12.6802 38.3183 12.6904L38.2367 12.2056L38.2163 12.027H36.9461V12.9455H37.4307V14.8538H36.9461V15.6446H39.1293V14.8538H38.456V13.6088L38.4611 13.6139C38.456 13.369 38.6805 13.1087 38.8539 13.1087C39.1702 13.1087 39.4354 13.1904 39.4354 13.1904H39.4864L39.5068 12.0832C39.5068 12.0832 39.3538 11.9658 39.0579 11.9658C38.6193 11.9658 38.4203 12.3179 38.3285 12.6546ZM42.3583 14.8589V12.9506H42.8173V12.0322H41.3432V12.0424H41.333V14.3894L41.3381 14.415C41.3024 14.6854 41.1901 14.8742 40.9861 14.8742C40.7974 14.8742 40.7209 14.7364 40.7209 14.5578V12.9506H41.0677V12.0322H39.6088V12.2771L39.6037 14.5833C39.6037 15.0527 39.7823 15.7007 40.5372 15.7007C41.0116 15.7007 41.2667 15.5375 41.5013 15.216L41.5727 15.6344V15.6497H42.9398V14.8589H42.3583ZM35.8851 15.6446H36.7727V14.8538H35.8851V15.6446Z" fill="white"/>
<path fill-rule="evenodd" clip-rule="evenodd" d="M9.08936 10.1603L11.2726 9.99707V13.2626H11.5225L12.354 11.2523H14.2158V12.4105H13.4456L13.0477 13.4361L13.7057 15.3494C13.772 15.3699 14.2362 15.3699 14.323 15.3699C14.5831 15.3699 14.7361 15.2525 14.8177 15.079C14.981 14.6912 15.1187 13.4922 15.1187 11.2523H19.1842V12.4105H18.6996V15.3647H19.2811V16.523H16.6439V15.3647H17.154V12.4156H16.5725C16.5725 12.7523 16.5317 13.6606 16.445 14.4157C16.3684 15.0943 16.1083 15.7576 15.7767 16.1454C15.3891 16.5995 14.8892 16.7271 14.2005 16.7271C13.3232 16.7271 12.6651 16.5536 12.3744 16.426L11.7317 14.4055H11.2675V15.3699H11.7521V16.5281H9.08936V15.3699H9.67087V11.2727H9.08936V10.1603ZM27.6008 16.5281H29.784V15.3699H29.2025V12.4156H29.6871V11.2523H24.5504V12.4105H25.0248V15.3647H24.4433V16.523H27.1111V15.3647H26.6265V12.4156H27.6008V16.5281V16.5281ZM21.8673 11.1553C20.0615 11.1553 19.4341 12.3901 19.4341 13.9106C19.4341 15.426 20.0615 16.6659 21.8673 16.6659C23.673 16.6659 24.2902 15.4311 24.2902 13.9106C24.2902 12.3952 23.673 11.1553 21.8673 11.1553ZM32.2376 12.3952C32.7119 12.3952 32.9619 12.8595 32.9619 13.681H34.0331V11.2523H33.069V11.5023H33.0384C32.9211 11.3492 32.6303 11.1655 31.9264 11.1655C30.6205 11.1655 29.9064 12.3901 29.9064 13.9106C29.9064 15.426 30.6103 16.6659 32.4059 16.6659C33.0129 16.6659 33.6913 16.5893 34.1249 16.4158L33.9617 15.1913C33.7219 15.278 33.2373 15.3443 32.763 15.3443C31.9927 15.3443 31.5081 14.9464 31.5081 13.9157C31.5132 12.8748 31.7632 12.3952 32.2376 12.3952ZM21.8673 15.426C21.3929 15.426 21.0766 15.0025 21.0766 13.9106C21.0766 12.8187 21.3929 12.3544 21.8673 12.3544C22.3417 12.3544 22.6477 12.8187 22.6477 13.9106C22.6477 15.0025 22.3366 15.426 21.8673 15.426Z" fill="black"/>
</svg>
