<svg width="54" height="28" viewBox="0 0 54 28" fill="none" xmlns="http://www.w3.org/2000/svg">
<rect x="0.734073" y="1.04657" width="53.1166" height="26.1578" rx="2.77747" fill="white"/>
<rect x="0.734073" y="1.04657" width="53.1166" height="26.1578" rx="2.77747" stroke="#D3D3D3" stroke-width="0.292365"/>
<path d="M11.4386 14.0287L11.0898 13.3219H11.0581L11.1596 14.0287V16.374H10.3351V11.844H10.9693L12.65 14.2407L12.9861 14.9283H13.0178L12.9163 14.2407V11.8761H13.7408V16.4061H13.1066L11.4386 14.0287Z" fill="#3C90F7"/>
<path d="M14.3638 14.1251C14.3638 13.3754 14.5265 12.7992 14.8521 12.3966C15.1777 11.9896 15.6428 11.7861 16.2474 11.7861C16.5645 11.7861 16.8414 11.8418 17.0782 11.9532C17.315 12.0646 17.5116 12.2231 17.668 12.4287C17.8245 12.6343 17.9407 12.8806 18.0168 13.1676C18.0929 13.4546 18.131 13.7738 18.131 14.1251C18.131 14.8747 17.9661 15.453 17.6363 15.86C17.3107 16.2626 16.8478 16.464 16.2474 16.464C15.926 16.464 15.647 16.4083 15.4102 16.2969C15.1734 16.1855 14.9768 16.027 14.8204 15.8214C14.6682 15.6158 14.554 15.3695 14.4779 15.0825C14.4018 14.7955 14.3638 14.4763 14.3638 14.1251ZM15.277 14.1251C15.277 14.3521 15.2961 14.562 15.3341 14.7548C15.3722 14.9432 15.4292 15.106 15.5054 15.2431C15.5857 15.3802 15.6872 15.4873 15.8098 15.5644C15.9324 15.6415 16.0783 15.6801 16.2474 15.6801C16.556 15.6801 16.7949 15.558 16.964 15.3138C17.1332 15.0696 17.2177 14.6734 17.2177 14.1251C17.2177 13.9066 17.1987 13.7031 17.1606 13.5146C17.1268 13.3261 17.0719 13.1612 16.9957 13.0198C16.9196 12.8785 16.8203 12.7693 16.6977 12.6921C16.5751 12.6108 16.425 12.5701 16.2474 12.5701C15.9387 12.5701 15.6998 12.6964 15.5307 12.9492C15.3616 13.1976 15.277 13.5896 15.277 14.1251Z" fill="#3C90F7"/>
<path d="M19.9754 14.517L20.0895 15.2817H20.1212L20.2481 14.5106L21.0979 11.8761H22.0112L20.3622 16.4061H19.7407L18.0791 11.8761H19.0875L19.9754 14.517Z" fill="#3C90F7"/>
<path d="M21.957 14.1251C21.957 13.3754 22.1198 12.7992 22.4453 12.3966C22.7709 11.9896 23.236 11.7861 23.8406 11.7861C24.1577 11.7861 24.4346 11.8418 24.6714 11.9532C24.9082 12.0646 25.1048 12.2231 25.2612 12.4287C25.4177 12.6343 25.5339 12.8806 25.61 13.1676C25.6861 13.4546 25.7242 13.7738 25.7242 14.1251C25.7242 14.8747 25.5593 15.453 25.2295 15.86C24.9039 16.2626 24.441 16.464 23.8406 16.464C23.5193 16.464 23.2402 16.4083 23.0034 16.2969C22.7667 16.1855 22.57 16.027 22.4136 15.8214C22.2614 15.6158 22.1472 15.3695 22.0711 15.0825C21.995 14.7955 21.957 14.4763 21.957 14.1251ZM22.8702 14.1251C22.8702 14.3521 22.8893 14.562 22.9273 14.7548C22.9654 14.9432 23.0225 15.106 23.0986 15.2431C23.1789 15.3802 23.2804 15.4873 23.403 15.5644C23.5256 15.6415 23.6715 15.6801 23.8406 15.6801C24.1492 15.6801 24.3881 15.558 24.5572 15.3138C24.7264 15.0696 24.8109 14.6734 24.8109 14.1251C24.8109 13.9066 24.7919 13.7031 24.7539 13.5146C24.72 13.3261 24.6651 13.1612 24.589 13.0198C24.5128 12.8785 24.4135 12.7693 24.2909 12.6921C24.1683 12.6108 24.0182 12.5701 23.8406 12.5701C23.5319 12.5701 23.293 12.6964 23.1239 12.9492C22.9548 13.1976 22.8702 13.5896 22.8702 14.1251Z" fill="#3C90F7"/>
<path d="M28.2605 15.166C28.2605 15.0289 28.2098 14.9175 28.1083 14.8319C28.0111 14.7462 27.8864 14.6691 27.7342 14.6005C27.5862 14.5277 27.4234 14.4549 27.2458 14.3821C27.0725 14.305 26.9097 14.2129 26.7575 14.1058C26.6095 13.9944 26.4848 13.8573 26.3833 13.6945C26.286 13.5318 26.2374 13.324 26.2374 13.0713C26.2374 12.8528 26.2734 12.6643 26.3452 12.5058C26.4171 12.343 26.5186 12.2081 26.6497 12.101C26.7849 11.9939 26.9435 11.9146 27.1253 11.8632C27.3071 11.8118 27.5101 11.7861 27.7342 11.7861C27.9921 11.7861 28.2352 11.8097 28.4635 11.8568C28.6918 11.8997 28.88 11.9639 29.0279 12.0496L28.7552 12.7885C28.6622 12.7286 28.5227 12.675 28.3367 12.6279C28.1506 12.5765 27.9498 12.5508 27.7342 12.5508C27.5312 12.5508 27.3748 12.5915 27.2648 12.6729C27.1591 12.7543 27.1063 12.8635 27.1063 13.0006C27.1063 13.1291 27.1549 13.2362 27.2522 13.3219C27.3536 13.4075 27.4784 13.4868 27.6263 13.5596C27.7785 13.6324 27.9413 13.7074 28.1147 13.7845C28.2923 13.8616 28.455 13.9558 28.603 14.0672C28.7552 14.1743 28.88 14.3093 28.9772 14.472C29.0787 14.6305 29.1294 14.8297 29.1294 15.0696C29.1294 15.3095 29.0893 15.5173 29.0089 15.6929C28.9328 15.8643 28.8229 16.0078 28.6791 16.1234C28.5396 16.2391 28.3684 16.3248 28.1654 16.3804C27.9667 16.4361 27.7468 16.464 27.5058 16.464C27.1887 16.464 26.9097 16.434 26.6687 16.374C26.4277 16.314 26.2501 16.2541 26.1359 16.1941L26.415 15.4423C26.4615 15.468 26.5207 15.4958 26.5926 15.5258C26.6687 15.5558 26.7532 15.5837 26.8463 15.6094C26.9393 15.6351 27.0365 15.6565 27.138 15.6736C27.2437 15.6908 27.3515 15.6993 27.4614 15.6993C27.7194 15.6993 27.916 15.6565 28.0513 15.5708C28.1908 15.4809 28.2605 15.3459 28.2605 15.166Z" fill="#3C90F7"/>
<path d="M32.8603 12.66H31.5665V16.374H30.6977V12.66H29.3975V11.8761H32.8603V12.66Z" fill="#3C90F7"/>
<path d="M33.3129 11.9211C33.4101 11.9039 33.5137 11.8889 33.6237 11.8761C33.7378 11.859 33.8499 11.8461 33.9598 11.8375C34.0739 11.829 34.1839 11.8225 34.2896 11.8183C34.3953 11.814 34.4925 11.8118 34.5813 11.8118C34.7885 11.8118 34.9914 11.8311 35.1902 11.8697C35.3931 11.9082 35.5728 11.9746 35.7292 12.0689C35.8899 12.1631 36.0168 12.2938 36.1098 12.4608C36.207 12.6236 36.2556 12.8292 36.2556 13.0777C36.2556 13.4461 36.1711 13.7459 36.002 13.9773C35.8328 14.2086 35.6066 14.3692 35.3233 14.4592L35.6341 14.6584L36.6488 16.374H35.6468L34.6384 14.6134L34.1818 14.5299V16.374H33.3129V11.9211ZM34.6447 12.5958C34.5559 12.5958 34.4672 12.5979 34.3784 12.6022C34.2938 12.6065 34.2283 12.615 34.1818 12.6279V13.9323H34.5496C34.7906 13.9323 34.983 13.8766 35.1267 13.7652C35.2705 13.6538 35.3424 13.4696 35.3424 13.2126C35.3424 13.0198 35.2832 12.8699 35.1648 12.7628C35.0464 12.6514 34.8731 12.5958 34.6447 12.5958Z" fill="#3C90F7"/>
<path d="M36.778 14.1251C36.778 13.3754 36.9408 12.7992 37.2663 12.3966C37.5919 11.9896 38.057 11.7861 38.6616 11.7861C38.9787 11.7861 39.2556 11.8418 39.4924 11.9532C39.7292 12.0646 39.9258 12.2231 40.0822 12.4287C40.2387 12.6343 40.3549 12.8806 40.431 13.1676C40.5071 13.4546 40.5452 13.7738 40.5452 14.1251C40.5452 14.8747 40.3803 15.453 40.0505 15.86C39.7249 16.2626 39.262 16.464 38.6616 16.464C38.3402 16.464 38.0612 16.4083 37.8244 16.2969C37.5876 16.1855 37.391 16.027 37.2346 15.8214C37.0824 15.6158 36.9682 15.3695 36.8921 15.0825C36.816 14.7955 36.778 14.4763 36.778 14.1251ZM37.6912 14.1251C37.6912 14.3521 37.7103 14.562 37.7483 14.7548C37.7864 14.9432 37.8434 15.106 37.9196 15.2431C37.9999 15.3802 38.1014 15.4873 38.224 15.5644C38.3466 15.6415 38.4925 15.6801 38.6616 15.6801C38.9702 15.6801 39.2091 15.558 39.3782 15.3138C39.5474 15.0696 39.6319 14.6734 39.6319 14.1251C39.6319 13.9066 39.6129 13.7031 39.5748 13.5146C39.541 13.3261 39.4861 13.1612 39.41 13.0198C39.3338 12.8785 39.2345 12.7693 39.1119 12.6921C38.9893 12.6108 38.8392 12.5701 38.6616 12.5701C38.3529 12.5701 38.114 12.6964 37.9449 12.9492C37.7758 13.1976 37.6912 13.5896 37.6912 14.1251Z" fill="#3C90F7"/>
<path d="M41.9282 14.7034L40.4695 11.8761H41.5033L42.3151 13.566L42.4039 14.0415H42.4356L42.5307 13.5532L43.3171 11.8761H44.2494L42.7971 14.6969V16.374H41.9282V14.7034Z" fill="#3C90F7"/>
</svg>
