<svg width="54" height="27" viewBox="0 0 54 27" fill="none" xmlns="http://www.w3.org/2000/svg">
<rect x="0.734253" y="0.596558" width="53.1162" height="26.1574" rx="2.38982" fill="white"/>
<rect x="0.734253" y="0.596558" width="53.1162" height="26.1574" rx="2.38982" stroke="#D3D3D3" stroke-width="0.292725"/>
<path fill-rule="evenodd" clip-rule="evenodd" d="M26.8639 10.8535C27.5772 10.8535 28.1558 11.3936 28.1558 12.0596C28.1558 12.7256 27.5772 13.2657 26.8639 13.2657C26.1505 13.2657 25.572 12.7256 25.572 12.0596C25.572 11.3936 26.1505 10.8535 26.8639 10.8535ZM26.8639 11.7427C27.04 11.7427 27.1827 11.8846 27.1827 12.0596C27.1827 12.2346 27.04 12.3765 26.8639 12.3765C26.6878 12.3765 26.545 12.2346 26.545 12.0596C26.545 11.8846 26.6878 11.7427 26.8639 11.7427Z" fill="black"/>
<path fill-rule="evenodd" clip-rule="evenodd" d="M24.7564 13.2657C24.043 13.2657 23.4645 12.7256 23.4645 12.0596C23.4645 11.3937 24.043 10.8535 24.7564 10.8535C25.0595 10.8535 25.3421 10.9206 25.5815 11.0364L25.2177 11.8484C25.1127 11.7969 24.9703 11.7653 24.8134 11.7653C24.6475 11.7653 24.513 11.899 24.513 12.0639C24.513 12.2288 24.6475 12.3626 24.8134 12.3626C24.9719 12.3626 25.1157 12.3303 25.2209 12.278L25.5815 13.0829C25.3421 13.1987 25.0595 13.2657 24.7564 13.2657Z" fill="black"/>
<path fill-rule="evenodd" clip-rule="evenodd" d="M19.0215 10.8535C19.7348 10.8535 20.3133 11.3936 20.3133 12.0596C20.3133 12.7256 19.7348 13.2657 19.0215 13.2657C18.3081 13.2657 17.7296 12.7256 17.7296 12.0596C17.7296 11.3936 18.3081 10.8535 19.0215 10.8535ZM19.0215 11.7427C19.1975 11.7427 19.3403 11.8846 19.3403 12.0596C19.3403 12.2346 19.1975 12.3765 19.0215 12.3765C18.8454 12.3765 18.7026 12.2346 18.7026 12.0596C18.7026 11.8846 18.8454 11.7427 19.0215 11.7427Z" fill="black"/>
<path fill-rule="evenodd" clip-rule="evenodd" d="M40.4686 13.2657C39.7554 13.2657 39.1769 12.7256 39.1769 12.0596C39.1769 11.3937 39.7554 10.8535 40.4686 10.8535C40.7718 10.8535 41.0545 10.9206 41.2939 11.0364L40.9301 11.8484C40.8249 11.7969 40.6825 11.7653 40.5257 11.7653C40.3599 11.7653 40.2253 11.899 40.2253 12.0639C40.2253 12.2288 40.3599 12.3626 40.5257 12.3626C40.6842 12.3626 40.8281 12.3303 40.9332 12.278L41.2939 13.0829C41.0545 13.1987 40.7718 13.2657 40.4686 13.2657Z" fill="black"/>
<path fill-rule="evenodd" clip-rule="evenodd" d="M31.0781 10.9111H30.2924L29.7866 11.5232L29.2807 10.9111H28.3857V13.2071H29.3056V12.0657L29.692 12.5173L30.0842 12.0587V13.2071H31.0781V10.9111Z" fill="black"/>
<path fill-rule="evenodd" clip-rule="evenodd" d="M36.4087 10.9111H34.2247L34.2249 12.0578C34.2249 12.3129 34.181 12.5675 33.9431 12.5981V13.1894C34.0359 13.2287 34.1359 13.2503 34.2402 13.2503C34.9853 13.2503 35.1174 12.6813 35.1174 12.1119V11.5491H35.3805V13.207H36.4087V10.9111Z" fill="black"/>
<path fill-rule="evenodd" clip-rule="evenodd" d="M37.7362 10.9111H36.7081V13.207H37.9798C38.6867 13.207 39.0265 12.765 39.0265 12.2436C39.0265 11.8498 38.7049 11.5301 38.3085 11.5301C38.0904 11.5301 37.892 11.5908 37.7362 11.69V10.9111ZM37.8751 12.1364C37.9898 12.1364 38.0829 12.2296 38.0829 12.3446C38.0829 12.4596 38.0367 12.639 37.8751 12.639C37.8144 12.639 37.7695 12.6322 37.7362 12.6206V12.1896C37.773 12.1564 37.8217 12.1364 37.8751 12.1364Z" fill="black"/>
<path fill-rule="evenodd" clip-rule="evenodd" d="M49.2466 10.9111H47.5925C47.2236 10.9111 46.9242 11.2086 46.9242 11.5752C46.9242 11.8381 47.0781 12.0652 47.301 12.1728C47.0311 12.4164 46.7781 12.8231 46.7781 13.207H47.7388C47.7771 12.6667 47.9908 12.4818 48.2185 12.4656V13.207H49.2466V10.9111ZM48.2185 11.4325H48.1294C47.9866 11.4325 47.8708 11.5477 47.8708 11.6896C47.8708 11.8316 47.9866 11.9467 48.1294 11.9467H48.2185V11.4325Z" fill="black"/>
<path fill-rule="evenodd" clip-rule="evenodd" d="M32.5854 10.8535C33.2987 10.8535 33.8772 11.3936 33.8772 12.0596C33.8772 12.7256 33.2987 13.2657 32.5854 13.2657C31.872 13.2657 31.2935 12.7256 31.2935 12.0596C31.2935 11.3936 31.872 10.8535 32.5854 10.8535ZM32.5853 11.7427C32.7614 11.7427 32.9042 11.8846 32.9042 12.0596C32.9042 12.2346 32.7614 12.3765 32.5853 12.3765C32.4093 12.3765 32.2665 12.2346 32.2665 12.0596C32.2665 11.8846 32.4093 11.7427 32.5853 11.7427Z" fill="black"/>
<path fill-rule="evenodd" clip-rule="evenodd" d="M16.1933 12.3019V13.208H15.1653V10.9121H16.1933V11.64C16.5135 11.6479 16.6694 11.3464 16.6729 10.9121H17.6207C17.6165 11.3973 17.4129 11.8033 17.1267 11.9613C17.4292 12.0724 17.7077 12.6706 17.7077 13.208H16.7469C16.7469 12.6569 16.5433 12.2877 16.1933 12.3019Z" fill="black"/>
<path fill-rule="evenodd" clip-rule="evenodd" d="M42.4885 12.3019V13.208H41.4606V10.9121H42.4885V11.64C42.8086 11.6479 42.9645 11.3464 42.9681 10.9121H43.9159C43.9117 11.3973 43.7081 11.8033 43.4218 11.9613C43.7244 12.0724 44.0029 12.6706 44.0029 13.208H43.0421C43.0421 12.6569 42.8385 12.2877 42.4885 12.3019Z" fill="black"/>
<path fill-rule="evenodd" clip-rule="evenodd" d="M23.2402 10.9111H22.4546L21.9488 11.5232L21.443 10.9111H20.548V13.2071H21.4678V12.0657L21.8542 12.5173L22.2464 12.0587V13.2071H23.2402V10.9111Z" fill="black"/>
<path fill-rule="evenodd" clip-rule="evenodd" d="M46.0119 10.9111L46.8528 13.207H45.8256L45.6598 12.7543H44.8972L44.7314 13.207H43.9281L44.7691 10.9111H46.0119ZM45.477 12.2551L45.2786 11.7131L45.08 12.2551H45.477Z" fill="black"/>
<path fill-rule="evenodd" clip-rule="evenodd" d="M24.2209 13.9463H21.9641C21.5909 14.6527 21.3071 15.4431 21.2704 16.4655H22.1418C22.1598 16.3609 22.1798 16.2574 22.2018 16.1555H22.9745V16.4655H24.2209V13.9463ZM22.9745 14.8487V15.5203H22.373C22.4533 15.2785 22.5485 15.0526 22.6603 14.8487H22.9745Z" fill="black"/>
<path fill-rule="evenodd" clip-rule="evenodd" d="M24.4565 13.9463V16.4655H26.7165C27.1417 16.4655 27.4364 16.2691 27.432 15.833C27.4288 15.5182 27.211 15.2608 26.9337 15.0868C27.178 14.9324 27.299 14.7391 27.2979 14.4453C27.2966 14.0919 27.0109 13.9724 26.5752 13.9463H24.4565ZM25.6274 15.8195H26.0016C26.133 15.8195 26.245 15.7049 26.2447 15.5969C26.2445 15.5306 26.1974 15.4496 26.1467 15.403C25.9898 15.4501 25.8167 15.4984 25.6274 15.5505V15.8195ZM25.6274 14.6123H25.7922C25.9787 14.6104 26.0976 14.6604 26.0972 14.7519C26.0967 14.8756 25.9281 14.9898 25.6274 15.0654V14.6123Z" fill="black"/>
<path fill-rule="evenodd" clip-rule="evenodd" d="M18.4133 13.9463V16.4655H19.6598V16.0399C20.8507 15.7903 21.4156 15.3271 21.4156 14.7785C21.4156 14.2253 21.0133 13.9463 20.3564 13.9463H18.4133ZM19.6598 15.3533C19.939 15.2835 20.0991 15.1682 20.1013 15.0187C20.1036 14.8639 19.9387 14.8038 19.7464 14.8038H19.6598V15.3533Z" fill="black"/>
<path fill-rule="evenodd" clip-rule="evenodd" d="M16.4117 14.8487H16.9216V16.4654H18.168V13.9463H15.1653V16.4654H16.4117V14.8487Z" fill="black"/>
<path fill-rule="evenodd" clip-rule="evenodd" d="M30.481 13.9463H28.3565C28.0609 14.455 27.8607 15.0419 27.7868 15.7323H27.5255V16.9167H28.368C28.4633 16.5045 28.8177 16.43 29.1824 16.4371C29.5204 16.4436 29.8399 16.5479 29.88 16.9167H30.7265V15.7323H30.481V13.9463ZM29.2346 14.8487V15.7323H28.6376C28.7073 15.3392 28.8238 15.026 28.9896 14.8487H29.2346Z" fill="black"/>
<path fill-rule="evenodd" clip-rule="evenodd" d="M33.7667 13.9463H31.5099C31.1367 14.6527 30.8529 15.4431 30.8162 16.4655H31.6875C31.7056 16.3609 31.7256 16.2574 31.7475 16.1555H32.5203V16.4655H33.7667V13.9463ZM32.5203 14.8487V15.5203H31.9188C31.9991 15.2785 32.0943 15.0526 32.2061 14.8487H32.5203Z" fill="black"/>
<mask id="mask0_50_3137" style="mask-type:alpha" maskUnits="userSpaceOnUse" x="5" y="9" width="9" height="9">
<path fill-rule="evenodd" clip-rule="evenodd" d="M6.43995 10.5877L5.33789 9.98637C5.33789 9.98637 8.37232 9.98805 9.81658 9.98974C10.2946 9.98974 10.7526 10.1818 11.0897 10.5203C11.1568 10.4411 11.1937 10.399 11.3145 10.2895C11.5611 10.0672 11.8915 9.81962 12.4769 9.80783C12.6413 9.80446 12.8628 9.83983 12.9819 9.97795C13.2301 9.97626 13.4918 10.0015 13.7015 10.0268L13.0825 10.5405C12.95 11.3507 12.5575 11.6505 12.3797 11.8088C12.7302 12.1558 12.9248 12.6308 12.9231 13.1243C12.9215 14.5711 12.9181 17.5439 12.9181 17.5439C12.9181 17.5439 11.9519 15.7518 11.5191 14.9871C11.3111 14.6199 11.1501 14.0692 10.9773 13.4072C10.9203 13.4729 7.57891 17.2475 7.57891 17.2475L9.13386 13.7811L5.68008 15.3476C5.68008 15.3476 9.37038 12.0564 9.50625 11.9334C9.11375 11.8105 8.44445 11.6825 7.9362 11.3995C7.39775 11.1031 6.43995 10.5877 6.43995 10.5877Z" fill="#BC4038"/>
</mask>
<g mask="url(#mask0_50_3137)">
<path fill-rule="evenodd" clip-rule="evenodd" d="M6.43983 10.5886L5.33777 9.98735C5.33777 9.98735 8.37219 9.98903 9.81646 9.99071C10.2945 9.99071 10.7524 10.1827 11.0896 10.5213C11.1567 10.4421 11.1936 10.4 11.3144 10.2905C11.5609 10.0682 11.8914 9.8206 12.4768 9.80881C12.6412 9.80544 12.8626 9.84081 12.9817 9.97892C13.23 9.97724 13.4917 10.0025 13.7013 10.0278L13.0824 10.5415C12.9498 11.3516 12.5573 11.6515 12.3795 11.8098C12.7301 12.1567 12.9247 12.6317 12.923 13.1252C12.9213 14.5721 12.918 17.5449 12.918 17.5449C12.918 17.5449 11.9518 15.7528 11.519 14.9881C11.311 14.6209 11.15 14.0701 10.9772 13.4082C10.9202 13.4739 7.57878 17.2484 7.57878 17.2484L9.13374 13.7821L5.67996 15.3485C5.67996 15.3485 9.37026 12.0574 9.50613 11.9344C9.11362 11.8115 8.44433 11.6835 7.93608 11.4005C7.39763 11.1041 6.43983 10.5886 6.43983 10.5886Z" fill="#BC4038"/>
<path fill-rule="evenodd" clip-rule="evenodd" d="M9.13106 13.7803L5.59509 15.8048L5.49109 15.2928L6.66863 14.1256C6.91018 14.1761 7.16179 14.203 7.41843 14.203C8.0374 14.2014 8.62113 14.0514 9.13106 13.7803Z" fill="#466A9E"/>
<path fill-rule="evenodd" clip-rule="evenodd" d="M9.1303 13.7803C9.32824 13.6758 9.51611 13.5529 9.69055 13.4131C9.73754 13.6472 9.76102 13.8897 9.76102 14.1373C9.76102 16.1838 8.10541 17.8462 6.06735 17.8462C5.95497 17.8462 5.84426 17.8412 5.73523 17.8311L9.1303 13.7803Z" fill="#5C4998"/>
<path fill-rule="evenodd" clip-rule="evenodd" d="M5.40186 10.4906C5.61824 10.4519 5.83966 10.4316 6.06779 10.4316C6.65153 10.4316 7.20507 10.5681 7.69488 10.8106C7.4785 10.851 7.25539 10.8712 7.02727 10.8712C6.44353 10.8712 5.89166 10.7348 5.40186 10.4906Z" fill="#F09A38"/>
<path fill-rule="evenodd" clip-rule="evenodd" d="M7.6947 10.8115C8.97456 10.5757 10.023 9.67118 10.4691 8.47363C10.86 9.05978 11.0881 9.76382 11.0881 10.5201C11.0881 11.6924 10.5413 12.74 9.69081 13.4154C9.46437 12.2701 8.71121 11.3134 7.6947 10.8115Z" fill="#A93930"/>
<path fill-rule="evenodd" clip-rule="evenodd" d="M14.7795 13.9873C16.0275 13.9873 17.0406 15.0046 17.0406 16.2578C17.0406 17.5109 16.0275 18.5282 14.7795 18.5282C13.5315 18.5282 12.5183 17.5109 12.5183 16.2578C12.5183 15.0063 13.5315 13.9873 14.7795 13.9873Z" fill="#F09A38"/>
<path fill-rule="evenodd" clip-rule="evenodd" d="M11.6176 12.8281C11.7904 13.6888 12.2601 14.4417 12.9176 14.9723C12.666 15.3378 12.5184 15.7824 12.5184 16.2608C12.5184 17.5139 13.5315 18.5312 14.7795 18.5312C14.8399 18.5312 14.8986 18.5295 14.9573 18.5245C14.5128 18.7485 14.0113 18.8748 13.4812 18.8748C11.6596 18.8748 10.1818 17.3909 10.1818 15.5618C10.1834 14.4282 10.7521 13.4261 11.6176 12.8281Z" fill="#FBC338"/>
<path fill-rule="evenodd" clip-rule="evenodd" d="M11.5727 11.6611C11.5559 11.8043 11.5475 11.9492 11.5475 12.0974C11.5475 12.3467 11.5727 12.5909 11.6196 12.8267C10.9872 13.2629 10.5125 13.9148 10.3029 14.6777C10.2978 14.6036 10.2961 14.5312 10.2961 14.4554C10.2945 13.3387 10.791 12.3382 11.5727 11.6611Z" fill="#ED7837"/>
<path fill-rule="evenodd" clip-rule="evenodd" d="M11.6179 12.8265C12.148 12.461 12.7904 12.2471 13.4815 12.2471C15.2613 12.2471 16.7156 13.6653 16.7793 15.4389C16.3063 15.6629 15.7762 15.7875 15.2193 15.7875C13.4413 15.7858 11.9567 14.5142 11.6179 12.8265Z" fill="#F2B641"/>
<path fill-rule="evenodd" clip-rule="evenodd" d="M11.5727 11.661C12.2168 11.1035 13.0539 10.7666 13.9697 10.7666C15.9977 10.7666 17.6432 12.4189 17.6432 14.4553C17.6432 14.6035 17.6349 14.7483 17.6181 14.8915C17.3665 15.1088 17.0847 15.2941 16.7811 15.4372C16.7173 13.6653 15.263 12.2454 13.4833 12.2454C12.7922 12.2454 12.1497 12.4593 11.6197 12.8248C11.5727 12.589 11.5475 12.3448 11.5475 12.0955C11.5459 11.949 11.5559 11.8041 11.5727 11.661Z" fill="#E07037"/>
<path fill-rule="evenodd" clip-rule="evenodd" d="M11.5724 11.6616C11.7871 9.83075 13.3404 8.40918 15.2207 8.40918C17.2487 8.40918 18.8943 10.0615 18.8943 12.0978C18.8943 13.2145 18.3994 14.2167 17.6178 14.8921C17.6345 14.7489 17.6429 14.6041 17.6429 14.4559C17.6429 12.4196 15.9974 10.7672 13.9694 10.7672C13.0535 10.7672 12.2148 11.1041 11.5724 11.6616Z" fill="#96291F"/>
<path fill-rule="evenodd" clip-rule="evenodd" d="M5.40148 10.4905C4.18871 9.88923 3.35168 8.63272 3.35168 7.18083C3.35168 5.14449 4.99722 3.49219 7.02521 3.49219C9.0532 3.49219 10.6987 5.14449 10.6987 7.18083C10.6987 8.98812 9.40211 10.4939 7.69283 10.8089C7.20134 10.5663 6.64947 10.4299 6.06573 10.4299C5.83928 10.4316 5.61786 10.4518 5.40148 10.4905Z" fill="#E07037"/>
</g>
</svg>
