<svg width="55" height="27" viewBox="0 0 55 27" fill="none" xmlns="http://www.w3.org/2000/svg">
<rect x="0.708273" y="0.299093" width="53.6774" height="26.434" rx="2.80679" fill="white"/>
<rect x="0.708273" y="0.299093" width="53.6774" height="26.434" rx="2.80679" stroke="#D3D3D3" stroke-width="0.295452"/>
<g clip-path="url(#clip0_50_3330)">
<path fill-rule="evenodd" clip-rule="evenodd" d="M39.6093 13.9461C39.2589 13.9461 39.0486 14.2061 39.0486 14.4921C39.0486 14.8106 39.3162 15.0251 39.5838 15.0251C39.9088 15.0251 40.1446 14.8106 40.1446 14.4726C40.1446 14.1866 39.9471 13.9461 39.6093 13.9461ZM40.75 14.9666C41.0176 14.9666 41.3744 14.9601 41.6548 14.9601H42.617C42.6297 14.7846 42.6297 14.6026 42.6297 14.4271L42.1072 14.4076V14.0501C42.1136 13.8681 42.1263 13.6601 42.2028 13.5041C42.3239 13.2701 42.4195 13.1531 42.5342 13.0556C42.5979 13.0036 42.6552 12.9971 42.719 12.9971C42.8719 12.9971 43.0631 13.0491 43.1204 13.0621C43.2415 12.9516 43.4199 12.4252 43.4199 12.1197C43.2925 12.0742 43.1204 12.0352 42.9611 12.0352C42.6425 12.0352 42.4959 12.1197 42.1009 12.8866L42.0626 12.8801C42.0435 12.6007 42.018 12.3277 41.9989 12.0482C41.9989 12.0352 41.9925 12.0352 41.9862 12.0352C41.9543 12.0352 41.0048 12.1717 40.7181 12.2042C40.7117 12.3732 40.7054 12.5617 40.7054 12.7371L41.0813 12.7566V14.3946C41.0813 14.4076 41.0749 14.4141 41.0558 14.4206L40.7563 14.4336C40.75 14.5961 40.75 14.7911 40.75 14.9666ZM47.0839 14.3621L46.7271 14.3751C46.7079 14.3751 46.7016 14.3621 46.7016 14.3361C46.7016 13.5886 46.7143 12.8086 46.7207 12.1197C46.7207 12.1132 46.7143 12.0937 46.7079 12.0937C46.6124 12.0937 45.6056 12.1132 45.3698 12.1197C45.3634 12.2887 45.3634 12.4902 45.357 12.6722L45.6693 12.6852C45.6693 13.0751 45.6757 13.7251 45.6693 14.1671C45.5482 14.2581 45.3953 14.3036 45.2869 14.3036C45.2041 14.3036 45.1149 14.2971 45.0384 14.1736C44.9556 14.0306 44.962 13.8031 44.962 13.6146C44.962 13.1401 44.9811 12.5682 44.9811 12.1132C44.9811 12.1002 44.9747 12.0872 44.962 12.0872C44.8791 12.0937 43.936 12.1197 43.6748 12.1327C43.6684 12.3017 43.662 12.4902 43.662 12.6657L43.9488 12.6787C43.9424 13.1011 43.936 13.6146 43.936 14.1086C43.936 14.5051 44.4203 15.0251 44.809 15.0251C45.0639 15.0251 45.185 15.0056 45.7075 14.7001H45.7394C45.8477 14.8561 45.9369 14.9536 46.0325 15.0251C46.4531 15.0251 47.0138 14.9341 47.0775 14.9016C47.0775 14.7326 47.0839 14.5311 47.0839 14.3621Z" fill="black"/>
<path fill-rule="evenodd" clip-rule="evenodd" d="M8.39756 11.3071L8.39119 14.3816C8.39119 14.3881 8.38482 14.4011 8.37208 14.4011L8.05984 14.4206C8.05984 14.6026 8.05984 14.7781 8.05347 14.9601H8.86273H9.77396C9.77396 14.7781 9.77396 14.6026 9.78033 14.4206L9.43623 14.4011L9.4426 13.3546C9.46172 13.3481 9.5127 13.3416 9.58916 13.3416C9.73572 13.3416 9.85042 13.4196 9.93326 13.6211C10.0607 13.9266 10.3666 14.6806 10.5322 14.9731C10.6533 14.9731 11.195 14.9666 11.3351 14.9666C11.4562 14.9666 11.6856 14.9601 11.8003 14.9601C11.8003 14.7781 11.8067 14.5961 11.8067 14.4206L11.5008 14.3816C11.4244 14.3751 11.3797 14.3101 11.3097 14.1476C11.0229 13.5431 10.87 13.1726 10.5896 13.0361V12.9971C11.0356 12.8086 11.3797 12.4186 11.3797 11.8661C11.3797 11.4501 11.0229 10.9432 10.4685 10.8197C10.0926 10.7287 9.89503 10.7287 9.53181 10.7287C9.03478 10.7287 8.49315 10.7352 8.05984 10.7417C8.05347 10.9237 8.05347 11.1057 8.05347 11.2941L8.39756 11.3071ZM9.45535 11.2746C9.49358 11.2616 9.55093 11.2551 9.65926 11.2551C9.99698 11.2551 10.2837 11.6061 10.2837 12.0806C10.2837 12.5096 10.0225 12.8151 9.59553 12.8151C9.50632 12.8151 9.46809 12.8151 9.4426 12.8086L9.45535 11.2746ZM12.017 13.6861C12.017 14.6026 12.6606 15.0251 13.5081 15.0251C13.8139 15.0251 14.3747 14.8951 14.7506 14.7196C14.7251 14.5571 14.6742 14.3491 14.6296 14.1801C14.4193 14.2581 14.0051 14.3621 13.7311 14.3621C13.5654 14.3621 13.3997 14.3491 13.2532 14.2061C13.1703 14.1216 13.0939 13.9981 13.0811 13.7836C13.6482 13.7836 14.3046 13.7836 14.4703 13.7641C14.5212 13.7576 14.808 13.4781 14.8143 13.3806C14.8143 12.9646 14.6933 12.6266 14.4894 12.3796C14.3173 12.1781 14.0178 12.0351 13.6228 12.0351C12.6669 12.0351 12.017 12.7631 12.017 13.6861ZM13.5017 12.5811C13.6355 12.5811 13.7311 12.6591 13.7884 12.7761C13.833 12.8736 13.8585 13.0426 13.8585 13.1791C13.8585 13.2246 13.8394 13.2506 13.8012 13.2506C13.6164 13.2571 13.3041 13.2636 13.0811 13.2636C13.0747 13.0036 13.1194 12.8801 13.1958 12.7501C13.285 12.6071 13.3934 12.5811 13.5017 12.5811ZM16.9554 14.7391C17.051 14.8626 17.1338 14.9666 17.1975 15.0251C17.7073 15.0251 18.1597 14.9341 18.2617 14.8951C18.2681 14.7261 18.2617 14.5311 18.2617 14.3621L17.924 14.3816C17.8921 14.3816 17.8921 14.3686 17.8921 14.3296C17.8985 14.0501 17.9049 13.4391 17.9049 13.0101C17.9049 12.4576 17.4206 12.0351 16.9299 12.0351C16.3246 12.0351 15.8466 12.2951 15.3878 12.6721C15.4898 12.8346 15.6045 12.9971 15.7256 13.1401C15.9741 12.9581 16.3118 12.7761 16.5285 12.7761C16.8152 12.7761 16.9299 12.9646 16.9108 13.2896H16.6049C15.5918 13.2896 15.1712 13.9071 15.1712 14.2711C15.1712 14.6806 15.6618 15.0251 15.9996 15.0251C16.2417 15.0251 16.5412 14.9341 16.9235 14.7391H16.9554ZM16.1844 14.1476C16.1844 13.9526 16.3692 13.7641 16.7834 13.7641C16.828 13.7641 16.8789 13.7641 16.9172 13.7706V14.2191C16.9172 14.2256 16.9172 14.2451 16.9044 14.2581C16.8088 14.3166 16.6432 14.4011 16.4775 14.4011C16.35 14.4011 16.1844 14.3036 16.1844 14.1476ZM18.4592 14.9666C18.7269 14.9666 19.0646 14.9601 19.3322 14.9601H20.218C20.2243 14.7911 20.2243 14.6026 20.2243 14.4271L19.8547 14.4076C19.8611 13.1986 19.8802 11.5151 19.8802 10.4362C19.8802 10.4167 19.8739 10.4102 19.8611 10.4102C19.7974 10.4102 18.7587 10.5467 18.4083 10.5857C18.4019 10.7547 18.3955 10.9497 18.3955 11.1316L18.8288 11.1511V14.3816C18.8288 14.3946 18.8225 14.4076 18.8033 14.4076L18.4656 14.4271C18.4656 14.5961 18.4592 14.7911 18.4592 14.9666ZM21.588 15.0251C22.0595 15.0251 22.5247 14.9666 22.9644 14.7911C22.9516 14.6221 22.9261 14.4206 22.8943 14.2451C22.6967 14.2971 22.4546 14.3426 22.1997 14.3426C22.0595 14.3426 21.9066 14.2321 21.9066 14.0501V13.2376C21.9066 12.8801 21.913 12.7501 21.913 12.6916C22.2061 12.6916 22.6012 12.6981 22.8688 12.6981C22.8879 12.5031 22.8943 12.2821 22.8943 12.0936C22.5948 12.1001 22.2379 12.1001 21.913 12.1001C21.9193 11.9246 21.9257 11.3331 21.9321 11.1901C21.9321 11.1706 21.9257 11.1641 21.913 11.1641C21.8938 11.1641 21.2821 11.3461 20.9635 11.5086C20.9444 11.6646 20.9316 11.8791 20.9125 12.0481C20.9125 12.0806 20.8934 12.1001 20.8679 12.1001C20.7405 12.1131 20.5875 12.1261 20.4537 12.1391C20.441 12.3146 20.4346 12.5096 20.4346 12.6916H20.8807C20.8807 12.7761 20.8743 13.4066 20.8743 13.5431C20.8743 13.6211 20.8679 13.9526 20.8679 14.3166C20.8679 14.4986 20.887 14.6481 21.0909 14.8301C21.2566 14.9796 21.4159 15.0251 21.588 15.0251ZM26.3353 12.6461C26.3416 12.4706 26.348 12.2691 26.348 12.1001H25.8064H25.0799C25.0736 12.2691 25.0736 12.4706 25.0672 12.6526L25.2902 12.6656C25.3093 12.6656 25.3157 12.6786 25.3157 12.6981C25.252 12.9776 25.2074 13.1921 25.1564 13.4196C25.099 13.6536 25.0353 13.8811 24.9652 14.1021H24.9206C24.8314 13.8226 24.7486 13.5886 24.6721 13.3416C24.5702 13.0166 24.5064 12.8021 24.4682 12.6656L24.7613 12.6526C24.7677 12.4771 24.7677 12.2756 24.7677 12.1001H23.8565H23.1046C23.0982 12.2691 23.0918 12.4706 23.0918 12.6526L23.334 12.6656C23.3467 12.6721 23.3658 12.6786 23.3658 12.6916C23.4678 12.9646 23.6143 13.3611 23.7673 13.7771C23.9521 14.2516 24.105 14.6351 24.3025 15.1356C24.2069 15.3761 24.0285 15.5711 23.831 15.7596C23.6589 15.9156 23.4996 16.0261 23.3722 16.0976C23.3722 16.2666 23.9266 16.6436 24.1368 16.6436C24.2898 16.5526 24.4618 16.2991 24.6275 16.0326C24.9652 15.4931 25.3985 14.4531 25.5706 14.0436C25.7618 13.5626 26.0166 12.8931 26.1059 12.6591L26.3353 12.6461Z" fill="black"/>
<path fill-rule="evenodd" clip-rule="evenodd" d="M26.9788 11.3398C26.966 12.2563 26.9533 13.4393 26.9469 14.3688C26.9469 14.3818 26.9405 14.3883 26.9278 14.3948L26.5964 14.4143V14.9603H27.2464H28.0684C28.0748 14.7848 28.0748 14.5833 28.0748 14.4143L27.6287 14.3883C27.6415 13.6343 27.6606 12.8998 27.6733 12.0938H27.7307C28.1066 13.2508 28.3934 14.0178 28.6865 14.7263C28.884 14.7263 29.1453 14.7198 29.2409 14.7198C29.5021 14.1023 29.8335 13.3093 30.2222 12.1783H30.2732C30.2859 12.9648 30.2923 13.6863 30.2987 14.3688C30.2987 14.3818 30.2987 14.3948 30.2796 14.3948L29.9163 14.4143C29.9163 14.5833 29.91 14.7848 29.91 14.9603H30.8467H31.605C31.6113 14.7848 31.6113 14.5833 31.6113 14.4143L31.2609 14.3948C31.2545 13.4133 31.2545 12.2953 31.2481 11.3658C31.2481 11.3528 31.2545 11.3398 31.2672 11.3398L31.5859 11.3203C31.5859 11.1318 31.5922 10.9173 31.5922 10.7354H30.1139C29.8526 11.4763 29.4958 12.5163 29.1899 13.3938H29.1389C28.8458 12.5163 28.4253 11.2553 28.2341 10.7354H26.6347C26.6347 10.9173 26.6283 11.1318 26.6283 11.3203L26.9788 11.3398ZM33.8289 14.7393C33.9244 14.8628 34.0073 14.9668 34.071 15.0253C34.5808 15.0253 35.0332 14.9343 35.1352 14.8953C35.1415 14.7263 35.1352 14.5313 35.1352 14.3623L34.7974 14.3818C34.7656 14.3818 34.7656 14.3688 34.7656 14.3298C34.7719 14.0503 34.7783 13.4393 34.7783 13.0103C34.7783 12.4578 34.294 12.0353 33.8034 12.0353C33.198 12.0353 32.7201 12.2953 32.2613 12.6723C32.3633 12.8348 32.478 12.9973 32.599 13.1403C32.8475 12.9583 33.1853 12.7763 33.4019 12.7763C33.6887 12.7763 33.8034 12.9648 33.7843 13.2898H33.4784C32.4652 13.2898 32.0446 13.9073 32.0446 14.2713C32.0446 14.6808 32.5353 15.0253 32.873 15.0253C33.1152 15.0253 33.4147 14.9343 33.797 14.7393H33.8289ZM33.0578 14.1478C33.0578 13.9528 33.2426 13.7643 33.6568 13.7643C33.7014 13.7643 33.7524 13.7643 33.7906 13.7708V14.2193C33.7906 14.2258 33.7906 14.2453 33.7779 14.2583C33.6823 14.3168 33.5166 14.4013 33.3509 14.4013C33.2235 14.4013 33.0578 14.3038 33.0578 14.1478ZM36.1483 14.2063C35.543 14.5508 35.5175 14.5703 35.5175 14.6418C35.5175 15.0058 35.7596 15.1293 36.0018 15.2333V15.2723C35.8552 15.3698 35.6768 15.4738 35.3964 15.6688C35.3008 15.7338 35.2626 15.7858 35.2626 15.8703C35.2626 16.3643 35.7979 16.6438 36.6963 16.6438C37.0978 16.6438 37.4801 16.5853 37.786 16.4683C38.3149 16.2798 38.6335 15.9093 38.6335 15.4803C38.6335 15.1553 38.5506 15.0318 38.334 14.8758C38.0982 14.7068 37.9071 14.6743 37.2125 14.6548C36.6963 14.6353 36.5753 14.6158 36.5753 14.4793C36.5753 14.4208 36.6262 14.3363 36.7091 14.2648C37.3718 14.2843 37.7796 14.0763 37.9899 13.8618C38.1938 13.6408 38.2766 13.3613 38.2766 13.1403C38.2766 12.9518 38.2193 12.7763 38.1428 12.6723L38.1556 12.6463C38.3085 12.6463 38.5379 12.6463 38.6653 12.6398C38.6781 12.4578 38.6781 12.2368 38.659 12.0548C38.4933 12.0678 38.0026 12.0938 37.7031 12.1068C37.6713 12.1133 37.6267 12.1003 37.563 12.0873C37.4929 12.0743 37.2252 12.0353 36.9449 12.0353C36.142 12.0353 35.4601 12.5228 35.4601 13.2248C35.4601 13.7253 35.8552 14.0308 36.1483 14.1608V14.2063ZM36.4988 13.1273C36.4988 12.7308 36.6581 12.4968 36.8875 12.4968C36.9958 12.4968 37.1042 12.5293 37.1551 12.6268C37.2252 12.7503 37.2507 12.8673 37.2507 13.0948C37.2507 13.5758 37.1169 13.7968 36.8875 13.7968C36.6645 13.7968 36.4988 13.6603 36.4988 13.1273ZM37.6203 15.6948C37.6203 15.8313 37.5566 15.9548 37.4355 16.0263C37.3081 16.1108 37.1105 16.1498 36.9002 16.1498C36.5944 16.1498 36.3204 16.0328 36.3204 15.8053C36.3204 15.6428 36.3841 15.5258 36.4924 15.3893C36.6262 15.3958 36.8556 15.4218 37.1551 15.4413C37.5502 15.4673 37.6203 15.5193 37.6203 15.6948Z" fill="#F13837"/>
</g>
<defs>
<clipPath id="clip0_50_3330">
<rect width="39.2951" height="6.49994" fill="white" transform="translate(7.89929 10.2656)"/>
</clipPath>
</defs>
</svg>
