<svg width="54" height="28" viewBox="0 0 54 28" fill="none" xmlns="http://www.w3.org/2000/svg">
<rect x="0.706909" y="1.04675" width="53.1162" height="26.1574" rx="2.38982" fill="white"/>
<rect x="0.706909" y="1.04675" width="53.1162" height="26.1574" rx="2.38982" stroke="#D3D3D3" stroke-width="0.292725"/>
<path fill-rule="evenodd" clip-rule="evenodd" d="M19.9468 14.1257V21.4439H27.2649H34.583V14.1257V6.80762H27.2649H19.9468V14.1257ZM31.6468 14.0432V18.5501L27.1932 18.5395L22.7397 18.529L22.7291 14.0844C22.7234 11.6399 22.7381 9.58809 22.7381 9.58809H27.2037H31.6468V14.0432ZM22.9649 14.0639V18.3433L27.1932 18.3328L31.4215 18.3223L31.432 14.0534L31.4424 9.78448H27.2037H22.9649V14.0639ZM23.7665 11.3143L24.1063 12.6841L24.4368 11.3143L24.6643 11.314C24.6643 11.314 24.694 11.7554 24.7099 12.2614L24.7215 13.1341L24.5011 13.1289L24.4802 12.596V11.9404L24.1797 13.1289H24.0144C24.0144 13.1289 23.8123 12.2239 23.7482 11.9404L23.7114 12.574L23.6747 13.1289L23.5186 13.1249L23.5278 12.2159V11.314L23.7665 11.3143ZM25.7743 11.4004C25.8128 11.4326 25.869 11.5188 25.8993 11.592C25.9356 11.6795 25.9544 11.9029 25.9544 12.2449C25.9544 12.6798 25.9413 12.7906 25.874 12.9238C25.8205 13.0296 25.7498 13.0983 25.6631 13.1289C25.5914 13.1541 25.4875 13.1748 25.4324 13.1748C25.3772 13.1748 25.2708 13.1454 25.1959 13.1096C25.1184 13.0724 25.032 12.9853 24.9952 12.907C24.9468 12.8039 24.9306 12.6365 24.9307 12.2383C24.9308 11.8154 24.9454 11.6775 25.0024 11.5623C25.0417 11.4827 25.1329 11.3879 25.205 11.3515C25.2995 11.3038 25.3875 11.2933 25.5202 11.3136C25.6215 11.3291 25.7358 11.3682 25.7743 11.4004ZM28.0495 11.4361C28.0885 11.4848 28.1329 11.6089 28.1482 11.7119C28.1647 11.8223 28.1482 11.9404 28.1482 11.9404H27.9076V11.7119C27.9076 11.7119 27.8536 11.5412 27.7229 11.5285C27.6482 11.5213 27.5607 11.5375 27.5284 11.5646C27.4826 11.603 27.4698 11.7377 27.4702 12.1772C27.4705 12.4871 27.4819 12.7827 27.4956 12.8342C27.5092 12.8855 27.5625 12.9383 27.6141 12.9514C27.6656 12.9644 27.7463 12.9543 27.7935 12.9288C27.8628 12.8913 27.8792 12.8432 27.8792 12.6772V12.4719H28.0282H28.1524V12.6839C28.1387 12.8005 28.0983 12.9408 28.0626 12.9958C28.0269 13.0508 27.9515 13.1136 27.8949 13.1353C27.8383 13.157 27.737 13.1748 27.6697 13.1748C27.6025 13.1748 27.4956 13.1477 27.4322 13.1146C27.3688 13.0815 27.2868 12.9903 27.2499 12.912C27.199 12.8036 27.183 12.6452 27.183 12.2494C27.183 11.8758 27.2009 11.6842 27.2466 11.569C27.2815 11.4808 27.3506 11.3883 27.4001 11.3636C27.4496 11.3388 27.527 11.3121 27.572 11.3043C27.6171 11.2965 27.727 11.3031 27.8163 11.3189C27.9057 11.3348 28.0104 11.3874 28.0495 11.4361ZM29.055 11.3312C29.0994 11.3454 29.1801 11.4047 29.2344 11.4629C29.3274 11.5629 29.3338 11.602 29.347 12.1612C29.3588 12.6614 29.3497 12.7774 29.2887 12.9072C29.2422 13.0062 29.1685 13.0812 29.0815 13.1179C29.0073 13.1492 28.8981 13.1748 28.8388 13.1748C28.7796 13.1748 28.6715 13.1463 28.5987 13.1114C28.5224 13.0748 28.4374 12.9867 28.398 12.9032C28.3453 12.7916 28.3297 12.6385 28.3297 12.2328C28.3298 11.8151 28.3445 11.6773 28.4014 11.5623C28.4408 11.4827 28.5307 11.3885 28.6012 11.3529C28.6718 11.3173 28.7846 11.292 28.8519 11.2967C28.9192 11.3014 29.0106 11.3169 29.055 11.3312ZM30.3684 11.3143L30.6531 12.5372L30.8 11.3143H30.9928L30.7357 13.1179C30.7357 13.1179 30.6045 13.1179 30.5521 13.1179L30.3042 11.7843C30.2968 11.7768 30.0746 13.1341 30.0746 13.1341H29.8542C29.8213 12.9435 29.588 11.3143 29.588 11.3143H29.7992C29.8399 11.6042 29.992 12.5372 29.992 12.5372L30.2032 11.3143H30.3684ZM26.8767 11.4079C26.9505 11.4719 26.9868 11.547 26.9916 11.6456C26.9979 11.7742 26.9916 11.7659 26.9916 11.7659H26.7874C26.7874 11.7659 26.7594 11.5918 26.7323 11.5646C26.7053 11.5373 26.6147 11.521 26.5408 11.521C26.4316 11.521 26.4017 11.5403 26.3807 11.6246C26.3648 11.6888 26.3795 11.7662 26.4194 11.8277C26.4549 11.8823 26.5786 12.0077 26.6944 12.1062C26.8102 12.2048 26.9398 12.3545 26.9825 12.4391C27.0252 12.5235 27.0601 12.6571 27.0601 12.7358C27.0601 12.8291 27.0236 12.9228 26.9553 13.0048C26.8924 13.0803 26.7942 13.1413 26.7098 13.1573C26.6325 13.1719 26.526 13.1729 26.473 13.1595C26.4201 13.1461 26.329 13.0869 26.2706 13.0279C26.2122 12.9689 26.1521 12.8644 26.1372 12.7956C26.1222 12.7268 26.1448 12.6379 26.1448 12.6379H26.3467L26.3651 12.7025C26.3651 12.7025 26.4423 12.8654 26.4859 12.9053C26.5398 12.9545 26.5989 12.9694 26.6695 12.9515C26.7598 12.9286 26.7735 12.9028 26.7735 12.7543C26.7735 12.5958 26.7515 12.5623 26.4695 12.29C26.298 12.1243 26.1533 11.9468 26.1374 11.8825C26.1219 11.8198 26.1211 11.7043 26.1357 11.6259C26.1509 11.5444 26.2079 11.447 26.2686 11.3987C26.3422 11.3403 26.4356 11.3143 26.5719 11.3143C26.7175 11.3143 26.797 11.3387 26.8767 11.4079ZM25.2603 11.5805C25.2257 11.6226 25.2152 11.8234 25.2245 12.2643C25.2351 12.7638 25.2501 12.8964 25.2992 12.9277C25.333 12.9492 25.3975 12.9668 25.4425 12.9668C25.4876 12.9668 25.5521 12.9492 25.5859 12.9277C25.6348 12.8965 25.65 12.7667 25.6605 12.2903C25.669 11.9065 25.6574 11.6615 25.6283 11.6066C25.5963 11.5462 25.5426 11.521 25.4461 11.521C25.3708 11.521 25.2872 11.5478 25.2603 11.5805ZM28.6587 11.6009C28.6354 11.6449 28.6163 11.9292 28.6163 12.2326C28.6163 12.665 28.6301 12.8042 28.6801 12.8762C28.7155 12.9272 28.787 12.9681 28.8409 12.9681C28.8944 12.9681 28.967 12.9388 29.0025 12.9031C29.0551 12.8499 29.0668 12.7276 29.0668 12.2292C29.0668 11.8106 29.0514 11.6047 29.0176 11.5706C28.9906 11.5433 28.9083 11.521 28.8348 11.521C28.7445 11.521 28.6873 11.5469 28.6587 11.6009ZM28.4998 15.7175L28.498 16.9579H28.0729V16.8322C28.0729 16.8322 27.9571 16.8857 27.8617 16.9355C27.7799 16.9782 27.6669 16.9913 27.5955 16.9755C27.5323 16.9614 27.4928 16.947 27.4394 16.8895C27.3454 16.7885 27.2854 16.7428 27.2854 16.11C27.2854 15.5087 27.2685 15.4905 27.3475 15.3837C27.3949 15.3196 27.4623 15.2413 27.5312 15.2214C27.6227 15.1949 27.7646 15.1725 27.8617 15.2214C27.9348 15.2582 28.0311 15.277 28.0311 15.277V14.4823L28.5015 14.4772L28.4998 15.7175ZM29.2715 14.7459V14.9113H29.0054H28.7392V14.7459V14.5805H29.0054H29.2715V14.7459ZM24.7081 15.2546L24.8316 15.3929L25.004 15.2546C25.1064 15.2022 25.2223 15.2092 25.2632 15.2092C25.3041 15.2092 25.399 15.2136 25.4726 15.2799L25.6063 15.4005V16.1792V16.9827L25.0944 16.9825V16.2764C25.0944 15.6842 25.104 15.5664 25.052 15.5462C25.0179 15.533 24.9294 15.5301 24.8959 15.5581C24.8465 15.5995 24.8487 15.7528 24.8487 16.3035V16.9827L24.3817 16.9786L24.3666 16.2637C24.3573 15.6945 24.3766 15.5656 24.3266 15.5462C24.2931 15.5333 24.1857 15.5301 24.1522 15.5581C24.1028 15.5995 24.1116 15.7526 24.1116 16.3014V16.9786H23.8659H23.6202V16.0896V15.2007H24.1063L24.1154 15.3498C24.1154 15.3498 24.1803 15.2804 24.2984 15.2311C24.3871 15.194 24.4721 15.2019 24.5103 15.2007C24.5484 15.1995 24.6478 15.2022 24.7081 15.2546ZM26.8144 15.277C26.8707 15.3187 26.9413 15.4033 26.9713 15.465C27.0012 15.5267 27.0289 15.6925 27.0327 15.8334L27.0397 16.0896H26.3467C26.3467 16.0896 26.3467 16.2957 26.3467 16.4101C26.3467 16.5627 26.3721 16.623 26.4201 16.6416C26.4562 16.6556 26.538 16.6458 26.5579 16.6141C26.5778 16.5823 26.5677 16.4839 26.5681 16.4101V16.3019C26.703 16.3019 27.0327 16.3019 27.0327 16.3019C27.0327 16.3019 27.0327 16.4546 27.0179 16.5531C27.0029 16.6528 26.9492 16.7771 26.8967 16.8335C26.8448 16.8892 26.7392 16.9559 26.662 16.9816C26.5827 17.008 26.444 17.0166 26.3433 17.0014C26.2452 16.9865 26.1154 16.935 26.0547 16.8868C25.9941 16.8387 25.9191 16.7379 25.888 16.6628C25.8521 16.5761 25.8316 16.3673 25.8316 16.0896C25.8316 15.8137 25.8521 15.6038 25.8874 15.5198C25.918 15.4466 25.9779 15.3566 26.0204 15.3198C26.063 15.283 26.153 15.2323 26.2206 15.2072C26.2882 15.1821 26.4264 15.1705 26.5278 15.1814C26.6291 15.1923 26.7581 15.2353 26.8144 15.277ZM30.53 15.2652C30.5802 15.2984 30.6485 15.3787 30.6818 15.4437C30.7274 15.5326 30.7437 15.7341 30.748 16.2599L30.7538 16.9579H30.4052C30.4052 16.9579 30.4237 16.7972 30.3776 16.7518C30.3099 16.685 30.2833 16.8161 30.1647 16.9169C30.0979 16.9735 30.039 16.9814 30.0103 16.9814C29.9817 16.9814 29.9329 16.9949 29.8634 16.9705C29.794 16.9461 29.7242 16.898 29.689 16.8436C29.6537 16.7893 29.6063 16.6521 29.6063 16.5498C29.6063 16.4021 29.6376 16.3035 29.7349 16.1917C29.8023 16.1142 29.9052 16.0353 30.0297 15.9812C30.1274 15.9388 30.3317 15.8887 30.3317 15.8887V15.5949C30.3317 15.5949 30.2681 15.5487 30.2215 15.549C30.1372 15.5493 30.0939 15.6179 30.0687 15.7016C30.0314 15.8256 30.0471 15.8152 30.0471 15.8152H29.6411C29.6411 15.8152 29.6349 15.5493 29.6614 15.4847C29.688 15.42 29.7366 15.3389 29.7943 15.3007C29.852 15.2625 29.9469 15.2159 30.0052 15.1971C30.0634 15.1783 30.1848 15.1723 30.2749 15.1839C30.365 15.1954 30.4798 15.2321 30.53 15.2652ZM29.2621 16.102L29.2732 16.9825L29.0164 16.9702L28.7596 16.9579L28.7485 16.1321C28.7424 15.678 28.7468 15.2817 28.7583 15.2515C28.7731 15.2125 28.8476 15.2002 29.0151 15.209L29.2511 15.2214L29.2621 16.102ZM26.3913 15.5591C26.2684 15.6165 26.3467 15.9036 26.3467 15.9036H26.5946C26.5946 15.9036 26.668 15.605 26.5395 15.549C26.5049 15.5339 26.4438 15.5345 26.3913 15.5591ZM27.8236 15.5633C27.8113 15.5833 27.7983 15.8185 27.7946 16.086C27.7906 16.3787 27.805 16.5895 27.8308 16.6155C27.8544 16.6393 27.9031 16.6474 27.9391 16.6335C27.9951 16.6117 28.0029 16.5326 27.993 16.0806C27.9832 15.6281 27.9719 15.5513 27.9137 15.54C27.8764 15.5328 27.8359 15.5433 27.8236 15.5633ZM30.1213 16.2428C30.0594 16.3043 30.0087 16.3912 30.0087 16.4358C30.0087 16.4805 30.0199 16.5464 30.0335 16.5824C30.0472 16.6184 30.0939 16.6478 30.1372 16.6478C30.1806 16.6478 30.2258 16.6222 30.2377 16.5909C30.2496 16.5596 30.2536 16.4433 30.2466 16.3325L30.2339 16.131L30.1213 16.2428Z" fill="#854F4D"/>
</svg>
