<svg width="55" height="28" viewBox="0 0 55 28" fill="none" xmlns="http://www.w3.org/2000/svg">
<rect x="0.761597" y="1.04675" width="53.1162" height="26.1574" rx="2.38982" fill="white"/>
<rect x="0.761597" y="1.04675" width="53.1162" height="26.1574" rx="2.38982" stroke="#D3D3D3" stroke-width="0.292725"/>
<path d="M20.7951 6.86215C21.0612 6.86215 21.2805 6.9037 21.453 6.9868C21.6269 7.06989 21.7559 7.19541 21.8402 7.36333C21.9244 7.53126 21.9665 7.74333 21.9665 7.99955C21.9665 8.17267 21.9411 8.32415 21.8903 8.45399C21.8395 8.58383 21.7726 8.69376 21.6897 8.78378C21.6068 8.87381 21.5172 8.94738 21.4209 9.00451L22.2835 10.6587H21.5934L20.8934 9.20187H20.5624V10.6587H19.9406V6.86215H20.7951ZM20.7509 7.52174H20.5624V8.54748H20.763C20.9689 8.54748 21.116 8.50333 21.2043 8.41504C21.2939 8.32502 21.3387 8.19344 21.3387 8.02032C21.3387 7.84028 21.2905 7.71217 21.1943 7.636C21.0993 7.55982 20.9515 7.52174 20.7509 7.52174Z" fill="#ED1A2A"/>
<path d="M24.7139 6.86215V9.31873C24.7139 9.58014 24.6691 9.81645 24.5795 10.0277C24.4913 10.2371 24.3569 10.4033 24.1763 10.5262C23.9971 10.6492 23.7712 10.7396 23.4983 10.7106C23.2241 10.6815 23.0612 10.5855 22.8718 10.3854C22.5755 10.0723 22.6325 9.73075 22.6325 9.30834V6.86215H23.2523V9.18629C23.2523 9.49964 23.1685 10.0023 23.5144 10.0354C23.6478 10.0482 23.7611 10.0051 23.8453 9.94456C23.9309 9.88396 23.9938 9.79048 24.0339 9.6641C24.074 9.53772 24.0941 9.37672 24.0941 9.1811V6.86215H24.7139Z" fill="#ED1A2A"/>
<path d="M27.326 9.60437C27.326 9.82943 27.2839 10.0251 27.1996 10.1913C27.1154 10.3574 26.9923 10.4856 26.8305 10.5756C26.6701 10.6656 26.4748 10.7106 26.2448 10.7106C26.1432 10.7106 26.0435 10.702 25.9459 10.6846C25.8496 10.6673 25.7567 10.6422 25.6671 10.6093C25.5788 10.5747 25.4946 10.5323 25.4144 10.4821V9.73422C25.5534 9.81385 25.6979 9.8857 25.8476 9.94975C25.9974 10.0138 26.1458 10.0458 26.2929 10.0458C26.3946 10.0458 26.4762 10.0285 26.5377 9.9939C26.6005 9.95927 26.646 9.91166 26.6741 9.85107C26.7022 9.79048 26.7162 9.72123 26.7162 9.64333C26.7162 9.54811 26.6915 9.46674 26.642 9.39923C26.5925 9.33171 26.5243 9.26852 26.4374 9.20966C26.3518 9.1508 26.2548 9.08761 26.1465 9.02009C26.0783 8.97855 26.0041 8.92834 25.9239 8.86948C25.8436 8.80889 25.7674 8.73531 25.6952 8.64875C25.623 8.56219 25.5635 8.45745 25.5167 8.33454C25.4712 8.20989 25.4485 8.06101 25.4485 7.88789C25.4485 7.6611 25.4886 7.46721 25.5688 7.3062C25.649 7.1452 25.7634 7.02229 25.9118 6.93746C26.0616 6.8509 26.2381 6.80762 26.4414 6.80762C26.5938 6.80762 26.7389 6.83099 26.8767 6.87773C27.0157 6.92274 27.1608 6.98853 27.312 7.07509L27.1114 7.70092C26.9763 7.62994 26.8553 7.57541 26.7483 7.53732C26.6413 7.4975 26.5323 7.47759 26.4213 7.47759C26.3438 7.47759 26.2776 7.49404 26.2227 7.52693C26.1679 7.55809 26.1265 7.6031 26.0984 7.66197C26.0703 7.7191 26.0562 7.78575 26.0562 7.86192C26.0562 7.95194 26.0763 8.02811 26.1164 8.09044C26.1579 8.15103 26.2194 8.20989 26.301 8.26702C26.3839 8.32415 26.4869 8.3908 26.6099 8.46697C26.7597 8.55873 26.8874 8.65481 26.993 8.75522C27.1 8.8539 27.1822 8.97075 27.2397 9.10579C27.2972 9.23909 27.326 9.40529 27.326 9.60437Z" fill="#ED1A2A"/>
<path d="M29.5887 9.60437C29.5887 9.82943 29.5466 10.0251 29.4623 10.1913C29.3781 10.3574 29.255 10.4856 29.0932 10.5756C28.9327 10.6656 28.7375 10.7106 28.5075 10.7106C28.4059 10.7106 28.3062 10.702 28.2086 10.6846C28.1123 10.6673 28.0194 10.6422 27.9298 10.6093C27.8415 10.5747 27.7573 10.5323 27.677 10.4821V9.73422C27.8161 9.81385 27.9605 9.8857 28.1103 9.94975C28.2601 10.0138 28.4085 10.0458 28.5556 10.0458C28.6573 10.0458 28.7388 10.0285 28.8004 9.9939C28.8632 9.95927 28.9087 9.91166 28.9368 9.85107C28.9648 9.79048 28.9789 9.72123 28.9789 9.64333C28.9789 9.54811 28.9541 9.46674 28.9047 9.39923C28.8552 9.33171 28.787 9.26852 28.7001 9.20966C28.6145 9.1508 28.5175 9.08761 28.4092 9.02009C28.341 8.97855 28.2668 8.92834 28.1865 8.86948C28.1063 8.80889 28.0301 8.73531 27.9579 8.64875C27.8857 8.56219 27.8261 8.45745 27.7793 8.33454C27.7339 8.20989 27.7111 8.06101 27.7111 7.88789C27.7111 7.6611 27.7513 7.46721 27.8315 7.3062C27.9117 7.1452 28.0261 7.02229 28.1745 6.93746C28.3243 6.8509 28.5008 6.80762 28.7041 6.80762C28.8565 6.80762 29.0016 6.83099 29.1394 6.87773C29.2784 6.92274 29.4235 6.98853 29.5746 7.07509L29.374 7.70092C29.239 7.62994 29.118 7.57541 29.011 7.53732C28.904 7.4975 28.795 7.47759 28.684 7.47759C28.6064 7.47759 28.5403 7.49404 28.4854 7.52693C28.4306 7.55809 28.3891 7.6031 28.3611 7.66197C28.333 7.7191 28.3189 7.78575 28.3189 7.86192C28.3189 7.95194 28.339 8.02811 28.3791 8.09044C28.4206 8.15103 28.4821 8.20989 28.5637 8.26702C28.6466 8.32415 28.7495 8.3908 28.8726 8.46697C29.0223 8.55873 29.1501 8.65481 29.2557 8.75522C29.3627 8.8539 29.4449 8.97075 29.5024 9.10579C29.5599 9.23909 29.5887 9.40529 29.5887 9.60437Z" fill="#ED1A2A"/>
<path d="M30.1202 10.6587V6.86215H30.7421V10.6587H30.1202Z" fill="#ED1A2A"/>
<path d="M33.2756 10.6587L33.0629 9.75499H31.9938L31.7812 10.6587H31.1112L32.1462 6.84657H32.9065L33.9455 10.6587H33.2756ZM32.9145 9.07982L32.7019 8.19691C32.6885 8.13805 32.6704 8.06274 32.6477 7.97099C32.6263 7.8775 32.6043 7.78315 32.5815 7.68793C32.5601 7.59099 32.5427 7.50702 32.5294 7.43604C32.516 7.50702 32.4973 7.59531 32.4732 7.70092C32.4505 7.80479 32.4284 7.90347 32.407 7.99695C32.3856 8.09044 32.3702 8.15709 32.3609 8.19691L32.1502 9.07982H32.9145Z" fill="#ED1A2A"/>
<path d="M23.1938 14.4471C23.1938 14.0415 23.1246 13.7697 22.9864 13.6316C22.8567 13.4849 22.6796 13.4116 22.4549 13.4116C22.2303 13.4116 22.0488 13.4806 21.9105 13.6187C21.7809 13.7481 21.5532 13.9768 21.5532 14.3047V15.2755H20.0424V14.3953C20.0424 13.6618 20.2195 13.1009 20.5738 12.7126C20.9367 12.3157 21.7939 12.1172 22.4938 12.1172C23.1938 12.1172 23.7209 12.3157 24.0752 12.7126C24.4381 13.1009 24.6196 13.6618 24.6196 14.3953C24.6196 14.87 24.5504 15.3014 24.4122 15.6897C24.2739 16.0694 24.0968 16.4189 23.8807 16.7382C23.6733 17.0489 23.4443 17.338 23.1938 17.6055C22.9518 17.873 22.7228 18.1275 22.5068 18.3692C22.2994 18.6108 22.1266 18.8481 21.9883 19.0811C21.85 19.3054 21.7809 19.5428 21.7809 19.793C21.7809 19.8793 21.7852 19.944 21.7939 19.9872H24.4899V21.2816H19.8795V20.1684C19.8795 19.7283 20.1636 19.4635 20.429 19.0048C20.6354 18.6482 20.8865 18.3605 21.0939 18.0844C21.31 17.7996 21.539 17.5364 21.7809 17.2948C22.0229 17.0446 22.2475 16.7814 22.4549 16.5052C22.671 16.2291 22.8481 15.9271 22.9864 15.5991C23.1246 15.2712 23.1938 14.8872 23.1938 14.4471Z" fill="#E91920"/>
<path d="M25.1702 17.8554L27.5998 12.2207H29.6437V17.8554H30.3177V19.6377H29.6437V21.2816H27.9182V19.6377H25.1702V17.8554ZM27.9182 17.8554V14.1259L26.4794 17.8554H27.9182Z" fill="#E91920"/>
<path d="M32.2688 16.8362H34.7598V17.3783H31.8671L31.8671 16.8757L32.2688 16.8362ZM32.8886 15.5468H32.9292C33.0811 15.5468 33.222 15.5644 33.3521 15.5995C33.4821 15.6334 33.5954 15.6836 33.6919 15.7501C33.7872 15.8166 33.8618 15.8994 33.9159 15.9986C33.9687 16.0964 33.9951 16.2094 33.9951 16.3374C33.9951 16.4616 33.9693 16.5695 33.9178 16.6612C33.8664 16.7528 33.7943 16.8299 33.7016 16.8927C33.6076 16.9542 33.4988 17.0037 33.3752 17.0414C33.2516 17.079 33.1191 17.1079 32.9774 17.128H32.8712C32.7193 17.1079 32.5803 17.079 32.4541 17.0414C32.3267 17.0037 32.2166 16.9542 32.1239 16.8927C32.03 16.8299 31.9572 16.7534 31.9057 16.663C31.8542 16.5714 31.8285 16.4641 31.8285 16.3412C31.8285 16.2119 31.8536 16.0983 31.9038 16.0004C31.954 15.9013 32.0261 15.8185 32.1201 15.752C32.2141 15.6842 32.326 15.6334 32.4561 15.5995C32.5861 15.5644 32.7303 15.5468 32.8886 15.5468ZM32.9292 16.0908H32.8886C32.7998 16.0908 32.718 16.0983 32.6434 16.1134C32.5674 16.1272 32.5011 16.1498 32.4445 16.1812C32.3878 16.2113 32.3441 16.2514 32.3132 16.3016C32.281 16.3506 32.2649 16.4102 32.2649 16.4805C32.2649 16.5545 32.2771 16.6179 32.3016 16.6706C32.326 16.722 32.3615 16.7641 32.4078 16.7967C32.4541 16.8293 32.5095 16.8538 32.5739 16.8701C32.6382 16.8864 32.711 16.8965 32.7921 16.9002H33.0605C33.1557 16.8939 33.2413 16.8764 33.3173 16.8475C33.392 16.8186 33.4512 16.7741 33.495 16.7139C33.5387 16.6536 33.5606 16.5746 33.5606 16.4767C33.5606 16.4052 33.5445 16.3449 33.5123 16.296C33.4789 16.247 33.4332 16.2075 33.3752 16.1774C33.3173 16.146 33.2504 16.1241 33.1744 16.1115C33.0985 16.0977 33.0167 16.0908 32.9292 16.0908Z" fill="black"/>
<path d="M32.3228 14.6677H33.9565V15.2099L31.8671 15.2099L31.8671 14.6997L32.3228 14.6677ZM31.8536 14.0541L32.3692 14.0635C32.3653 14.0898 32.3621 14.1218 32.3595 14.1595C32.3557 14.1959 32.3537 14.2291 32.3537 14.2593C32.3537 14.3358 32.364 14.4023 32.3846 14.4588C32.4039 14.514 32.4329 14.5604 32.4715 14.5981C32.5101 14.6345 32.5571 14.6621 32.6125 14.6809C32.6678 14.6985 32.7309 14.7085 32.8017 14.711L32.767 14.8202C32.6318 14.8202 32.5076 14.807 32.3943 14.7807C32.2797 14.7543 32.1799 14.716 32.095 14.6659C32.01 14.6144 31.9444 14.5517 31.898 14.4776C31.8517 14.4036 31.8285 14.3189 31.8285 14.2235C31.8285 14.1934 31.8311 14.1626 31.8362 14.1313C31.8401 14.0999 31.8459 14.0742 31.8536 14.0541Z" fill="black"/>
<path d="M32.933 13.9411H32.8925C32.7393 13.9411 32.5983 13.9198 32.4696 13.8771C32.3396 13.8345 32.2269 13.7724 32.1317 13.6908C32.0364 13.6092 31.9624 13.5088 31.9096 13.3896C31.8555 13.2704 31.8285 13.1336 31.8285 12.9793C31.8285 12.8249 31.8555 12.6875 31.9096 12.567C31.9624 12.4465 32.0364 12.3455 32.1317 12.264C32.2269 12.1811 32.3396 12.1184 32.4696 12.0757C32.5983 12.0331 32.7393 12.0117 32.8925 12.0117L32.933 12.0117C33.0849 12.0117 33.2259 12.0331 33.3559 12.0757C33.4847 12.1184 33.5973 12.1811 33.6939 12.264C33.7891 12.3455 33.8631 12.4459 33.9159 12.5651C33.9687 12.6843 33.9951 12.8211 33.9951 12.9755C33.9951 13.1298 33.9687 13.2673 33.9159 13.3877C33.8631 13.5069 33.7891 13.608 33.6939 13.6908C33.5973 13.7724 33.4847 13.8345 33.3559 13.8771C33.2259 13.9198 33.0849 13.9411 32.933 13.9411ZM32.8925 13.399H32.933C33.0206 13.399 33.1023 13.3915 33.1783 13.3764C33.2542 13.3614 33.3212 13.3375 33.3791 13.3049C33.4357 13.271 33.4802 13.2271 33.5123 13.1731C33.5445 13.1192 33.5606 13.0533 33.5606 12.9755C33.5606 12.9002 33.5445 12.8356 33.5123 12.7816C33.4802 12.7276 33.4357 12.6843 33.3791 12.6517C33.3212 12.6191 33.2542 12.5953 33.1783 12.5802C33.1023 12.5639 33.0206 12.5557 32.933 12.5557H32.8925C32.8075 12.5557 32.7277 12.5639 32.653 12.5802C32.5771 12.5953 32.5101 12.6197 32.4522 12.6536C32.393 12.6862 32.3466 12.7295 32.3132 12.7835C32.2797 12.8374 32.263 12.9027 32.263 12.9793C32.263 13.0558 32.2797 13.1211 32.3132 13.175C32.3466 13.2277 32.393 13.271 32.4522 13.3049C32.5101 13.3375 32.5771 13.3614 32.653 13.3764C32.7277 13.3915 32.8075 13.399 32.8925 13.399Z" fill="black"/>
<rect x="31.8285" y="19.0039" width="2.11703" height="2.43937" fill="black"/>
</svg>
