<svg width="54" height="28" viewBox="0 0 54 28" fill="none" xmlns="http://www.w3.org/2000/svg">
<rect x="0.680362" y="1.04657" width="53.1166" height="26.1578" rx="2.77747" fill="white"/>
<rect x="0.680362" y="1.04657" width="53.1166" height="26.1578" rx="2.77747" stroke="#D3D3D3" stroke-width="0.292365"/>
<g clip-path="url(#clip0_50_3175)">
<path fill-rule="evenodd" clip-rule="evenodd" d="M20.4005 13.1703L20.2985 13.3378V13.8906H19.9072V11.9643H20.2985V12.7013L20.4005 12.4836L20.6727 11.9643H21.132L20.6387 12.8018L21.217 13.8906H20.7748L20.4005 13.1703V13.1703ZM22.765 13.3211C22.765 13.6728 22.5268 13.8906 22.1866 13.8906H21.5742V11.9643H22.1866C22.4928 11.9643 22.7139 12.1821 22.7139 12.5171C22.7139 12.6678 22.6459 12.8186 22.5438 12.9191C22.6799 12.9861 22.765 13.1536 22.765 13.3211V13.3211ZM21.9655 12.3328V12.7348H22.1356C22.2547 12.7348 22.3057 12.6678 22.3057 12.5338C22.3057 12.3998 22.2547 12.3328 22.1186 12.3328H21.9655V12.3328ZM22.3567 13.3211C22.3567 13.1871 22.2717 13.1033 22.1186 13.1033H21.9655V13.5221H22.1186C22.2887 13.5221 22.3567 13.4551 22.3567 13.3211V13.3211ZM23.8876 13.5723H23.4794L23.4114 13.8906H23.0031L23.4794 11.9476H23.9047L24.3809 13.8906H23.9727L23.8876 13.5723V13.5723ZM23.8196 13.2038L23.7686 12.9861C23.7516 12.8521 23.7175 12.6176 23.6835 12.4501H23.6665C23.6495 12.6008 23.6155 12.8353 23.5815 12.9861L23.5304 13.2038H23.8196V13.2038ZM26.2691 13.5388V14.2423H25.8779V13.9073H25.0273V14.2423H24.6361V13.5388H24.7552C24.9253 13.3546 24.9763 13.0363 24.9933 12.7683L25.0273 11.9643H26.099V13.5388H26.2691V13.5388ZM25.7078 12.3328H25.4016L25.3846 12.8856C25.3846 13.1201 25.3335 13.3546 25.2315 13.5388H25.7078V12.3328V12.3328ZM27.9021 12.6176C27.9021 13.0363 27.6639 13.2708 27.2557 13.2708H27.0856V13.8906H26.6944V11.9643H27.2557C27.6639 11.9643 27.9021 12.2156 27.9021 12.6176ZM27.4938 12.6176C27.4938 12.4333 27.4088 12.3328 27.2557 12.3328H27.0856V12.9023H27.2557C27.4088 12.9023 27.4938 12.8018 27.4938 12.6176V12.6176ZM28.9567 13.5723H28.5485L28.4804 13.8906H28.0722L28.5485 11.9476H28.9737L29.45 13.8906H29.0418L28.9567 13.5723ZM28.8887 13.2038L28.8377 12.9861C28.8206 12.8521 28.7866 12.6176 28.7526 12.4501H28.7356C28.7186 12.6008 28.6846 12.8353 28.6505 12.9861L28.5995 13.2038H28.8887ZM30.7598 12.3328H30.3686V13.8906H29.9603V12.3328H29.5691V11.9643H30.7428V12.3328H30.7598ZM32.3758 11.9643V13.9073H31.9676V13.1201H31.5593V13.9073H31.1511V11.9643H31.5593V12.7348H31.9676V11.9643H32.3758V11.9643ZM32.9371 11.9643H33.3454V12.7013H33.4645C33.8897 12.7013 34.0768 12.9526 34.0768 13.3043C34.0768 13.7063 33.8897 13.8906 33.4645 13.8906H32.9371V11.9643V11.9643ZM33.4304 13.5388C33.5835 13.5388 33.6516 13.4718 33.6516 13.3043C33.6516 13.1368 33.5835 13.0698 33.4304 13.0698H33.3454V13.5388H33.4304ZM34.2469 11.9643H34.6382V13.9073H34.2469V11.9643V11.9643ZM35.2165 11.9643H35.6078V12.4166C35.6078 12.6008 35.5908 12.9358 35.5567 13.1703C35.6078 13.0531 35.6418 12.9191 35.6928 12.8018L36.067 11.9643H36.4583V13.9073H36.0841V13.5221C36.0841 13.3043 36.1011 12.9526 36.1351 12.7013C36.0841 12.8521 36.016 13.0196 35.948 13.1703L35.6248 13.9241H35.2335V11.9643H35.2165ZM35.4887 11.4283H35.7268C35.7268 11.4953 35.7779 11.5455 35.8459 11.5455C35.8969 11.5455 35.965 11.512 35.965 11.4283H36.2031C36.2031 11.646 36.033 11.7633 35.8459 11.7633C35.6588 11.7801 35.5057 11.646 35.4887 11.4283V11.4283ZM19.9753 10.4568V10.105C19.9753 9.92079 20.0773 9.83704 20.2304 9.83704C20.4005 9.83704 20.4856 9.93754 20.5026 10.105H20.3665C20.3665 10.0045 20.3155 9.95429 20.2304 9.95429C20.1624 9.95429 20.1114 10.0045 20.1114 10.105V10.4735C20.1114 10.574 20.1624 10.6243 20.2474 10.6243C20.3325 10.6243 20.3835 10.574 20.3835 10.4735H20.5196C20.5026 10.641 20.4175 10.7415 20.2474 10.7415C20.0773 10.7415 19.9753 10.641 19.9753 10.4568V10.4568ZM21.4382 10.7248H21.3021V9.97104H21.0469V10.7248H20.9108V9.83704H21.4211V10.7248H21.4382ZM22.3567 10.6075V10.7248H21.9144V9.83704H22.3567V9.95429H22.0505V10.2055H22.3397V10.3228H22.0505V10.6075H22.3567V10.6075ZM23.2583 10.7248H22.799V9.83704H22.9351V10.5908H23.1902V9.83704H23.3263V10.5908H23.4114V10.8588H23.2923V10.7248H23.2583ZM23.7856 9.83704H23.9047V10.2223C23.9047 10.2893 23.9047 10.4065 23.8876 10.4735C23.9047 10.4233 23.9217 10.373 23.9557 10.3228L24.1768 9.83704H24.3129V10.7248H24.1938V10.3395C24.1938 10.2725 24.1938 10.1553 24.2108 10.0883C24.1938 10.1385 24.1768 10.2055 24.1428 10.2558L23.9217 10.7415H23.7856V9.83704V9.83704ZM25.1124 10.5405H24.8742L24.8402 10.7248H24.7041L24.9253 9.83704H25.0614L25.2825 10.7248H25.1464L25.1124 10.5405V10.5405ZM25.0954 10.4233L25.0273 10.1888C25.0103 10.1385 24.9933 10.0548 24.9933 10.0045C24.9933 10.0548 24.9763 10.1385 24.9593 10.1888L24.9083 10.4233H25.0954ZM26.184 9.83704V10.7248H26.048V9.97104H25.8779C25.8608 10.2223 25.8608 10.4233 25.8438 10.5405C25.8268 10.708 25.7418 10.7583 25.6227 10.7583V10.6075C25.6737 10.6075 25.7078 10.574 25.7248 10.4903C25.7418 10.4065 25.7418 10.2055 25.7588 9.83704H26.184V9.83704ZM26.6603 9.83704H26.7964V10.1888H26.8985C27.0686 10.1888 27.1706 10.2893 27.1706 10.4568C27.1706 10.6243 27.0686 10.7248 26.8985 10.7248H26.6603V9.83704V9.83704ZM26.8985 10.6075C26.9835 10.6075 27.0346 10.5573 27.0346 10.4568C27.0346 10.3563 26.9835 10.306 26.8985 10.306H26.7964V10.6075H26.8985ZM28.0892 9.83704V10.7248H27.9531V10.3395H27.698V10.7248H27.5789V9.83704H27.715V10.2055H27.9701V9.83704H28.0892ZM28.5655 9.83704H28.7016V10.1888H28.7866C28.9567 10.1888 29.0588 10.2893 29.0588 10.4568C29.0588 10.6243 28.9737 10.7248 28.7866 10.7248H28.5655V9.83704V9.83704ZM28.7696 10.6075C28.8547 10.6075 28.9057 10.5573 28.9057 10.4568C28.9057 10.3563 28.8547 10.306 28.7696 10.306H28.6846V10.6075H28.7696ZM29.1608 9.83704H29.2799V10.7248H29.1438V9.83704H29.1608ZM29.7562 9.83704H29.8753V10.2223C29.8753 10.2893 29.8753 10.4065 29.8583 10.4735C29.8753 10.4233 29.8923 10.373 29.9263 10.3228L30.1474 9.83704H30.2835V10.7248H30.1645V10.3395C30.1645 10.2725 30.1645 10.1553 30.1815 10.0883C30.1645 10.1385 30.1474 10.2055 30.1134 10.2558L29.8923 10.7415H29.7562V9.83704ZM29.8753 9.60254H29.9603C29.9603 9.65279 29.9944 9.66954 30.0284 9.66954C30.0624 9.66954 30.0964 9.65279 30.0964 9.60254H30.1815C30.1815 9.70304 30.1134 9.75329 30.0284 9.75329C29.9433 9.75329 29.8753 9.70304 29.8753 9.60254ZM31.8315 10.7248H31.6954V9.97104H31.4402V10.7248H31.3212V9.83704H31.8315V10.7248ZM32.8181 10.1218C32.8181 10.306 32.716 10.4065 32.5459 10.4065H32.4438V10.708H32.3078V9.82029H32.5459C32.716 9.83704 32.8181 9.93754 32.8181 10.1218V10.1218ZM32.682 10.1218C32.682 10.0213 32.631 9.95429 32.5459 9.95429H32.4438V10.2893H32.5459C32.631 10.2893 32.682 10.239 32.682 10.1218ZM33.2093 10.44V10.1218C33.2093 9.93754 33.3114 9.82029 33.4815 9.82029C33.6516 9.82029 33.7536 9.93754 33.7536 10.1218V10.44C33.7536 10.6243 33.6516 10.7415 33.4815 10.7415C33.3114 10.7415 33.2093 10.6243 33.2093 10.44V10.44ZM33.6346 10.44V10.1218C33.6346 10.0045 33.5835 9.95429 33.4985 9.95429C33.4134 9.95429 33.3624 10.0213 33.3624 10.1218V10.44C33.3624 10.5573 33.4134 10.6075 33.4985 10.6075C33.5835 10.6075 33.6346 10.5573 33.6346 10.44V10.44ZM34.6552 10.6075V10.7248H34.2129V9.83704H34.6552V9.95429H34.349V10.2055H34.6382V10.3228H34.349V10.6075H34.6552V10.6075ZM35.2676 10.3395L35.2165 10.4233V10.7248H35.0804V9.83704H35.2165V10.2223L35.2676 10.1218L35.4547 9.83704H35.6078L35.3526 10.2223L35.6418 10.7248H35.4887L35.2676 10.3395ZM36.4583 9.95429H36.2712V10.708H36.1351V9.95429H35.948V9.83704H36.4583V9.95429V9.95429ZM22.867 15.2808V18.6308H22.1866V17.8101C22.2036 17.4081 22.2206 16.9893 22.2376 16.5873L22.2206 16.5706L21.9144 17.4583L21.7443 17.9106H21.0639L20.8938 17.4583L20.5876 16.5706L20.5706 16.5873C20.5876 16.9893 20.6047 17.4081 20.6217 17.8101V18.6308H19.9412V15.2808H20.6387L21.183 16.5538C21.251 16.7213 21.3701 17.0061 21.4041 17.1401H21.4211C21.4552 17.0228 21.5742 16.7213 21.6423 16.5538L22.1866 15.2808H22.867V15.2808ZM27.4768 17.9943V18.6476H25.6737V15.2976H27.4258V15.9508H26.3541V16.6543H27.3237V17.2741H26.3541V18.0111H27.4768V17.9943ZM31.9676 15.9173H31.3042V18.6308H30.5897V15.9173H29.9263V15.2641H31.9676V15.9173V15.9173ZM36.5944 16.4198C36.5944 17.1401 36.1691 17.5588 35.4717 17.5588H35.1825V18.6308H34.4851V15.2808H35.4717C36.1691 15.2808 36.5944 15.6996 36.5944 16.4198V16.4198ZM35.8799 16.4198C35.8799 16.1016 35.7268 15.9341 35.4547 15.9341H35.1655V16.9223H35.4547C35.7438 16.9056 35.8799 16.7381 35.8799 16.4198V16.4198Z" fill="black"/>
<path fill-rule="evenodd" clip-rule="evenodd" d="M33.3625 19.485V21.3275H18.7336V6.92247H33.3625V8.93248H34.213V6.08496H17.8831V22.165H34.213V19.485H33.3625Z" fill="#5DC37D"/>
</g>
<defs>
<clipPath id="clip0_50_3175">
<rect width="18.7114" height="16.0801" fill="white" transform="translate(17.8831 6.08496)"/>
</clipPath>
</defs>
</svg>
