<svg width="55" height="28" viewBox="0 0 55 28" fill="none" xmlns="http://www.w3.org/2000/svg">
<rect x="0.681906" y="0.57839" width="53.6774" height="26.434" rx="2.80679" fill="white"/>
<rect x="0.681906" y="0.57839" width="53.6774" height="26.434" rx="2.80679" stroke="#D3D3D3" stroke-width="0.295452"/>
<path d="M20.1344 13.7953V21.1816H27.5207H34.907V13.7953V6.40904H27.5207H20.1344V13.7953ZM34.5594 13.7953V20.8341H27.5207H20.482V13.7953V6.75663H27.5207H34.5594V13.7953Z" fill="#3177BE"/>
<path d="M21.9592 11.4923V14.8379H22.3068H22.6544V13.1868V11.5358H23.1584H23.6624L24.123 13.1173C24.3837 13.995 24.6183 14.7423 24.6531 14.7771C24.6878 14.8205 24.8529 14.8379 25.018 14.8205L25.3222 14.7944L25.131 14.1427C25.0267 13.7864 24.8008 13.0304 24.627 12.4743L24.3228 11.4489L24.5488 11.3446C25.0875 11.0839 25.3569 10.1802 25.1744 9.30251C24.9659 8.34664 24.6009 8.14677 23.0454 8.14677H21.9592V11.4923ZM24.0622 8.74637C24.3576 8.85933 24.514 9.2243 24.5227 9.78045C24.5227 10.38 24.3663 10.7885 24.0795 10.9188C23.9579 10.9709 23.5929 11.0144 23.2627 11.0144H22.6544V9.84128V8.66816H23.254C23.5842 8.66816 23.9492 8.70292 24.0622 8.74637Z" fill="#3177BE"/>
<path d="M27.3466 11.4923V14.8379H27.7376H28.1286V11.4923V8.14677H27.7376H27.3466V11.4923Z" fill="#3177BE"/>
<path d="M31.4311 8.22521C31.4311 8.28603 30.1972 14.1603 30.0842 14.6383C30.0407 14.8207 30.0668 14.8381 30.3883 14.8381C30.7707 14.8381 30.7359 14.8989 30.9097 13.9257C31.0748 13.0306 31.0053 13.1002 31.8482 13.1002H32.6042L32.7693 13.9691L32.9257 14.8381H33.2646C33.4471 14.8381 33.6035 14.8207 33.6035 14.7947C33.6035 14.7599 32.5955 9.98054 32.3001 8.59887L32.1958 8.147H31.8135C31.6049 8.147 31.4311 8.18176 31.4311 8.22521ZM32.1697 10.8843C32.3348 11.7359 32.4739 12.4571 32.4739 12.5006C32.4739 12.544 32.1784 12.5788 31.8135 12.5788C31.3181 12.5788 31.1617 12.5527 31.1965 12.4658C31.2139 12.4137 31.3616 11.6664 31.518 10.8234C31.6831 9.97185 31.8221 9.29405 31.8395 9.31143C31.8569 9.32881 32.0046 10.0327 32.1697 10.8843Z" fill="#3177BE"/>
<path d="M22.5501 16.5239C21.7941 16.7932 21.4987 17.193 21.4987 17.9316C21.4987 18.8875 22.1069 19.3741 23.3496 19.4262C23.8101 19.4436 24.2359 19.4089 24.4792 19.3393C24.8529 19.2264 24.8703 19.209 24.8964 18.8527C24.9311 18.4443 24.8703 18.4182 24.4532 18.6355C24.0708 18.8353 23.1323 18.8353 22.7674 18.6355C22.2286 18.3487 22.2112 17.4971 22.75 17.2277C23.1932 16.9931 23.6972 16.9757 24.2794 17.1756C24.5748 17.2799 24.8442 17.3581 24.8703 17.3581C24.8964 17.3581 24.9137 17.193 24.8964 16.9931C24.8703 16.6455 24.8529 16.6194 24.5227 16.5239C24.0534 16.3761 22.9498 16.3848 22.5501 16.5239Z" fill="#3177BE"/>
<path d="M25.5221 17.9226V19.3564H25.9131H26.3042V17.9226V16.4888H25.9131H25.5221V17.9226Z" fill="#3177BE"/>
<path d="M26.7388 16.793V17.0971H27.3471H27.9553V18.2268V19.3564H28.3898H28.8243V18.2268V17.0971H29.4326H30.0409V16.793V16.4888H28.3898H26.7388V16.793Z" fill="#3177BE"/>
<path d="M30.1276 16.5236C30.1276 16.541 30.423 16.9146 30.7793 17.3578L31.431 18.1573V18.7569V19.3564H31.8655H32.3V18.7916V18.2268L32.9952 17.3839L33.6817 16.5323L33.2298 16.5062C32.7432 16.4801 32.7779 16.4541 32.161 17.2275L31.8916 17.5664L31.4745 17.0276L31.0574 16.4888H30.5881C30.3361 16.4888 30.1276 16.5062 30.1276 16.5236Z" fill="#3177BE"/>
</svg>
