<svg width="55" height="27" viewBox="0 0 55 27" fill="none" xmlns="http://www.w3.org/2000/svg">
<rect x="0.761417" y="0.496768" width="53.1166" height="26.1578" rx="2.77747" fill="white"/>
<rect x="0.761417" y="0.496768" width="53.1166" height="26.1578" rx="2.77747" stroke="#D3D3D3" stroke-width="0.292365"/>
<path d="M7.59989 16.8704V16.9549C7.59989 17.0552 7.58734 17.1452 7.56225 17.2248C7.53716 17.3043 7.50105 17.3719 7.45393 17.4276C7.4068 17.4833 7.35019 17.5259 7.28409 17.5552C7.21861 17.5846 7.14517 17.5993 7.06377 17.5993C6.98482 17.5993 6.9123 17.5846 6.84621 17.5552C6.78072 17.5259 6.7238 17.4833 6.67546 17.4276C6.62772 17.3719 6.59069 17.3043 6.56438 17.2248C6.53806 17.1452 6.5249 17.0552 6.5249 16.9549V16.8704C6.5249 16.77 6.53775 16.6804 6.56346 16.6014C6.58977 16.5219 6.6268 16.4542 6.67454 16.3985C6.72227 16.3422 6.77888 16.2994 6.84437 16.27C6.91047 16.2406 6.98299 16.226 7.06194 16.226C7.14333 16.226 7.21677 16.2406 7.28226 16.27C7.34836 16.2994 7.40497 16.3422 7.45209 16.3985C7.49983 16.4542 7.53624 16.5219 7.56133 16.6014C7.58704 16.6804 7.59989 16.77 7.59989 16.8704ZM7.42455 16.9549V16.8686C7.42455 16.789 7.41629 16.7186 7.39976 16.6574C7.38385 16.5962 7.36029 16.5448 7.32908 16.5032C7.29786 16.4616 7.25961 16.4301 7.21433 16.4086C7.16965 16.3872 7.11885 16.3765 7.06194 16.3765C7.00686 16.3765 6.95698 16.3872 6.9123 16.4086C6.86824 16.4301 6.83029 16.4616 6.79847 16.5032C6.76726 16.5448 6.74308 16.5962 6.72595 16.6574C6.70881 16.7186 6.70024 16.789 6.70024 16.8686V16.9549C6.70024 17.035 6.70881 17.106 6.72595 17.1678C6.74308 17.229 6.76756 17.2808 6.79939 17.323C6.83182 17.3646 6.87007 17.3961 6.91414 17.4175C6.95881 17.439 7.00869 17.4497 7.06377 17.4497C7.1213 17.4497 7.1724 17.439 7.21708 17.4175C7.26176 17.3961 7.29939 17.3646 7.33 17.323C7.36121 17.2808 7.38477 17.229 7.40068 17.1678C7.41659 17.106 7.42455 17.035 7.42455 16.9549Z" fill="#989898"/>
<path d="M8.94293 16.1553H9.08247C9.08247 16.2152 9.07329 16.263 9.05493 16.2985C9.03657 16.3334 9.01148 16.3603 8.97965 16.3793C8.94844 16.3982 8.91295 16.4126 8.87317 16.4224C8.834 16.4322 8.7933 16.4417 8.75107 16.4509C8.69844 16.4619 8.64948 16.4793 8.60419 16.5032C8.55951 16.5265 8.52096 16.5595 8.48852 16.6023C8.4567 16.6452 8.43313 16.7009 8.41783 16.7694C8.40315 16.838 8.39917 16.9227 8.4059 17.0237V17.1082H8.26636V17.0237C8.26636 16.9105 8.27707 16.8116 8.29849 16.7272C8.32053 16.6427 8.35143 16.5714 8.39121 16.5133C8.43099 16.4552 8.47812 16.4089 8.53259 16.3747C8.58767 16.3404 8.64825 16.3168 8.71435 16.304C8.76209 16.2948 8.80309 16.285 8.83736 16.2746C8.87164 16.2636 8.89765 16.2489 8.91539 16.2306C8.93375 16.2122 8.94293 16.1871 8.94293 16.1553ZM8.74189 16.6446C8.80676 16.6446 8.8646 16.6559 8.91539 16.6785C8.96619 16.7012 9.00934 16.7327 9.04483 16.7731C9.08033 16.8135 9.10726 16.8612 9.12562 16.9163C9.14459 16.9708 9.15408 17.0301 9.15408 17.0944V17.1146C9.15408 17.1837 9.14398 17.248 9.12378 17.3074C9.1042 17.3661 9.07513 17.4175 9.03657 17.4616C8.99863 17.5051 8.95211 17.539 8.89703 17.5635C8.84257 17.588 8.78045 17.6002 8.71068 17.6002C8.64091 17.6002 8.57849 17.588 8.52341 17.5635C8.46894 17.539 8.42242 17.5051 8.38387 17.4616C8.34531 17.4175 8.31594 17.3661 8.29574 17.3074C8.27615 17.248 8.26636 17.1837 8.26636 17.1146V17.0944C8.26636 17.0791 8.26912 17.0641 8.27462 17.0494C8.28013 17.0347 8.28686 17.0197 8.29482 17.0044C8.30339 16.9891 8.31104 16.9729 8.31777 16.9558C8.34042 16.9007 8.37132 16.8496 8.41049 16.8025C8.45027 16.7553 8.4977 16.7174 8.55278 16.6886C8.60847 16.6593 8.67151 16.6446 8.74189 16.6446ZM8.70884 16.7832C8.64642 16.7832 8.59501 16.7976 8.55462 16.8263C8.51484 16.8551 8.48515 16.8934 8.46557 16.9411C8.44599 16.9882 8.43619 17.0393 8.43619 17.0944V17.1146C8.43619 17.1611 8.4417 17.2052 8.45272 17.2468C8.46373 17.2884 8.48026 17.3254 8.50229 17.3579C8.52493 17.3897 8.55339 17.4148 8.58767 17.4331C8.62255 17.4515 8.66355 17.4607 8.71068 17.4607C8.7578 17.4607 8.7985 17.4515 8.83277 17.4331C8.86705 17.4148 8.8952 17.3897 8.91723 17.3579C8.93926 17.3254 8.95579 17.2884 8.9668 17.2468C8.97782 17.2052 8.98333 17.1611 8.98333 17.1146V17.0944C8.98333 17.0528 8.97782 17.0133 8.9668 16.976C8.95579 16.9386 8.93896 16.9056 8.91631 16.8768C8.89428 16.8481 8.86582 16.8254 8.83094 16.8089C8.79667 16.7918 8.75597 16.7832 8.70884 16.7832Z" fill="#989898"/>
<path d="M9.75904 17.5993C9.68989 17.5993 9.62716 17.5877 9.57085 17.5644C9.51516 17.5405 9.46712 17.5072 9.42672 17.4644C9.38694 17.4215 9.35634 17.3707 9.33492 17.312C9.3135 17.2532 9.30279 17.189 9.30279 17.1192V17.0806C9.30279 16.9998 9.31473 16.9279 9.3386 16.8649C9.36246 16.8012 9.3949 16.7474 9.4359 16.7033C9.47691 16.6593 9.52342 16.6259 9.57544 16.6033C9.62746 16.5806 9.68132 16.5693 9.73701 16.5693C9.808 16.5693 9.8692 16.5815 9.92061 16.606C9.97263 16.6305 10.0152 16.6648 10.0482 16.7088C10.0813 16.7523 10.1057 16.8037 10.1217 16.8631C10.1376 16.9218 10.1455 16.9861 10.1455 17.0558V17.132H9.40377V16.9934H9.97569V16.9806C9.97325 16.9365 9.96406 16.8937 9.94815 16.852C9.93285 16.8104 9.90837 16.7762 9.87471 16.7492C9.84105 16.7223 9.79515 16.7088 9.73701 16.7088C9.69845 16.7088 9.66296 16.7171 9.63052 16.7336C9.59809 16.7495 9.57024 16.7734 9.54698 16.8052C9.52373 16.837 9.50567 16.8759 9.49282 16.9218C9.47997 16.9677 9.47354 17.0206 9.47354 17.0806V17.1192C9.47354 17.1663 9.47997 17.2107 9.49282 17.2523C9.50629 17.2933 9.52556 17.3294 9.55066 17.3606C9.57636 17.3918 9.60727 17.4163 9.64337 17.4341C9.68009 17.4518 9.72171 17.4607 9.76822 17.4607C9.8282 17.4607 9.879 17.4484 9.92061 17.424C9.96223 17.3995 9.99864 17.3667 10.0299 17.3257L10.1327 17.4074C10.1113 17.4399 10.084 17.4708 10.051 17.5002C10.0179 17.5295 9.97722 17.5534 9.92887 17.5718C9.88114 17.5901 9.82453 17.5993 9.75904 17.5993Z" fill="#989898"/>
<path d="M10.7147 17.1063H10.532V17.0017H10.7009C10.748 17.0017 10.7854 16.9959 10.8129 16.9842C10.8405 16.972 10.86 16.9552 10.8717 16.9337C10.8833 16.9123 10.8891 16.8872 10.8891 16.8585C10.8891 16.8328 10.8824 16.8086 10.8689 16.7859C10.8561 16.7627 10.8353 16.744 10.8065 16.7299C10.7777 16.7153 10.7392 16.7079 10.6908 16.7079C10.6517 16.7079 10.6162 16.715 10.5843 16.729C10.5525 16.7425 10.5271 16.7612 10.5081 16.785C10.4898 16.8083 10.4806 16.8346 10.4806 16.864H10.3108C10.3108 16.8034 10.3279 16.7514 10.3622 16.7079C10.3971 16.6638 10.4433 16.6299 10.5008 16.606C10.5589 16.5821 10.6223 16.5702 10.6908 16.5702C10.7483 16.5702 10.7998 16.5766 10.845 16.5895C10.8909 16.6017 10.9298 16.6201 10.9616 16.6446C10.9935 16.6684 11.0176 16.6984 11.0342 16.7345C11.0513 16.77 11.0599 16.8113 11.0599 16.8585C11.0599 16.8921 11.0519 16.924 11.036 16.9539C11.0201 16.9839 10.9971 17.0106 10.9671 17.0338C10.9372 17.0565 10.9007 17.0742 10.8579 17.0871C10.8157 17.0999 10.7679 17.1063 10.7147 17.1063ZM10.532 17.0421H10.7147C10.7741 17.0421 10.8264 17.0479 10.8717 17.0595C10.917 17.0705 10.9549 17.0871 10.9855 17.1091C11.0161 17.1311 11.0391 17.1583 11.0544 17.1908C11.0703 17.2226 11.0782 17.2593 11.0782 17.3009C11.0782 17.3475 11.0687 17.3894 11.0498 17.4267C11.0314 17.4634 11.0051 17.4946 10.9708 17.5204C10.9365 17.5461 10.8955 17.5656 10.8478 17.5791C10.8007 17.5926 10.7483 17.5993 10.6908 17.5993C10.6266 17.5993 10.5641 17.5883 10.5035 17.5663C10.443 17.5442 10.3931 17.5103 10.3539 17.4644C10.3147 17.4178 10.2952 17.3588 10.2952 17.2872H10.465C10.465 17.3172 10.4745 17.3456 10.4934 17.3726C10.5124 17.3995 10.5387 17.4212 10.5724 17.4377C10.6067 17.4543 10.6461 17.4625 10.6908 17.4625C10.7386 17.4625 10.7783 17.4552 10.8102 17.4405C10.842 17.4258 10.8659 17.4062 10.8818 17.3817C10.8983 17.3573 10.9066 17.3306 10.9066 17.3019C10.9066 17.2645 10.8992 17.2345 10.8845 17.2119C10.8698 17.1893 10.8472 17.1727 10.8166 17.1623C10.7866 17.1513 10.748 17.1458 10.7009 17.1458H10.532V17.0421Z" fill="#989898"/>
<path d="M11.2536 17.0953V17.0742C11.2536 17.0026 11.264 16.9362 11.2848 16.875C11.3056 16.8132 11.3356 16.7596 11.3747 16.7143C11.4139 16.6684 11.4613 16.6329 11.517 16.6079C11.5727 16.5821 11.6351 16.5693 11.7043 16.5693C11.7741 16.5693 11.8368 16.5821 11.8925 16.6079C11.9488 16.6329 11.9965 16.6684 12.0357 16.7143C12.0755 16.7596 12.1058 16.8132 12.1266 16.875C12.1474 16.9362 12.1578 17.0026 12.1578 17.0742V17.0953C12.1578 17.1669 12.1474 17.2333 12.1266 17.2945C12.1058 17.3557 12.0755 17.4093 12.0357 17.4552C11.9965 17.5005 11.9491 17.536 11.8934 17.5617C11.8383 17.5868 11.7759 17.5993 11.7061 17.5993C11.6364 17.5993 11.5736 17.5868 11.5179 17.5617C11.4623 17.536 11.4145 17.5005 11.3747 17.4552C11.3356 17.4093 11.3056 17.3557 11.2848 17.2945C11.264 17.2333 11.2536 17.1669 11.2536 17.0953ZM11.4234 17.0742V17.0953C11.4234 17.1449 11.4292 17.1917 11.4408 17.2358C11.4525 17.2792 11.4699 17.3178 11.4932 17.3514C11.517 17.3851 11.5467 17.4117 11.5822 17.4313C11.6177 17.4503 11.659 17.4598 11.7061 17.4598C11.7526 17.4598 11.7933 17.4503 11.8282 17.4313C11.8637 17.4117 11.8931 17.3851 11.9164 17.3514C11.9396 17.3178 11.9571 17.2792 11.9687 17.2358C11.9809 17.1917 11.987 17.1449 11.987 17.0953V17.0742C11.987 17.0252 11.9809 16.979 11.9687 16.9356C11.9571 16.8915 11.9393 16.8527 11.9154 16.819C11.8922 16.7847 11.8628 16.7578 11.8273 16.7382C11.7924 16.7186 11.7514 16.7088 11.7043 16.7088C11.6578 16.7088 11.6168 16.7186 11.5813 16.7382C11.5464 16.7578 11.517 16.7847 11.4932 16.819C11.4699 16.8527 11.4525 16.8915 11.4408 16.9356C11.4292 16.979 11.4234 17.0252 11.4234 17.0742Z" fill="#989898"/>
<path d="M13.0327 16.5877V16.7281H12.5305V16.5877H13.0327ZM12.5553 16.5877V17.5809H12.3855V16.5877H12.5553ZM13.1832 16.5877V17.5809H13.0125V16.5877H13.1832Z" fill="#989898"/>
<path d="M14.0415 17.4111V16.8998C14.0415 16.8606 14.0336 16.8266 14.0177 16.7979C14.0024 16.7685 13.9791 16.7459 13.9479 16.7299C13.9167 16.714 13.8781 16.7061 13.8322 16.7061C13.7894 16.7061 13.7518 16.7134 13.7193 16.7281C13.6875 16.7428 13.6624 16.7621 13.6441 16.7859C13.6263 16.8098 13.6174 16.8355 13.6174 16.8631H13.4476C13.4476 16.8276 13.4568 16.7924 13.4751 16.7575C13.4935 16.7226 13.5198 16.6911 13.5541 16.6629C13.589 16.6342 13.6306 16.6115 13.6789 16.595C13.7279 16.5779 13.7824 16.5693 13.8423 16.5693C13.9146 16.5693 13.9782 16.5815 14.0333 16.606C14.089 16.6305 14.1324 16.6675 14.1636 16.7171C14.1955 16.7661 14.2114 16.8276 14.2114 16.9016V17.3643C14.2114 17.3973 14.2141 17.4325 14.2196 17.4699C14.2258 17.5072 14.2346 17.5393 14.2463 17.5663V17.5809H14.0691C14.0605 17.5614 14.0538 17.5353 14.0489 17.5029C14.044 17.4699 14.0415 17.4393 14.0415 17.4111ZM14.0709 16.9787L14.0728 17.0981H13.9011C13.8527 17.0981 13.8096 17.102 13.7717 17.11C13.7337 17.1173 13.7019 17.1287 13.6762 17.144C13.6505 17.1593 13.6309 17.1785 13.6174 17.2018C13.604 17.2244 13.5972 17.2511 13.5972 17.2817C13.5972 17.3129 13.6043 17.3413 13.6183 17.367C13.6324 17.3927 13.6535 17.4133 13.6817 17.4286C13.7105 17.4432 13.7456 17.4506 13.7873 17.4506C13.8393 17.4506 13.8852 17.4396 13.925 17.4175C13.9647 17.3955 13.9963 17.3686 14.0195 17.3367C14.0434 17.3049 14.0562 17.274 14.0581 17.244L14.1306 17.3257C14.1263 17.3514 14.1147 17.3799 14.0957 17.4111C14.0767 17.4423 14.0513 17.4723 14.0195 17.5011C13.9883 17.5292 13.951 17.5528 13.9075 17.5718C13.8647 17.5901 13.8163 17.5993 13.7625 17.5993C13.6952 17.5993 13.6361 17.5861 13.5853 17.5598C13.5351 17.5335 13.4959 17.4983 13.4678 17.4543C13.4403 17.4096 13.4265 17.3597 13.4265 17.3046C13.4265 17.2514 13.4369 17.2046 13.4577 17.1642C13.4785 17.1232 13.5085 17.0892 13.5477 17.0623C13.5868 17.0347 13.634 17.0139 13.689 16.9998C13.7441 16.9858 13.8056 16.9787 13.8736 16.9787H14.0709Z" fill="#989898"/>
<path d="M14.876 17.4598C14.9164 17.4598 14.9537 17.4515 14.988 17.435C15.0223 17.4185 15.0504 17.3958 15.0725 17.367C15.0945 17.3377 15.107 17.3043 15.1101 17.267H15.2717C15.2686 17.3257 15.2487 17.3805 15.212 17.4313C15.1759 17.4815 15.1285 17.5222 15.0697 17.5534C15.011 17.584 14.9464 17.5993 14.876 17.5993C14.8014 17.5993 14.7362 17.5861 14.6805 17.5598C14.6254 17.5335 14.5795 17.4974 14.5428 17.4515C14.5067 17.4056 14.4794 17.353 14.4611 17.2936C14.4433 17.2336 14.4345 17.1703 14.4345 17.1036V17.065C14.4345 16.9983 14.4433 16.9353 14.4611 16.8759C14.4794 16.8159 14.5067 16.763 14.5428 16.7171C14.5795 16.6712 14.6254 16.6351 14.6805 16.6088C14.7362 16.5825 14.8014 16.5693 14.876 16.5693C14.9537 16.5693 15.0217 16.5852 15.0798 16.617C15.138 16.6482 15.1836 16.6911 15.2166 16.7456C15.2503 16.7994 15.2686 16.8606 15.2717 16.9292H15.1101C15.107 16.8881 15.0954 16.8511 15.0752 16.8181C15.0556 16.785 15.0287 16.7587 14.9944 16.7391C14.9608 16.7189 14.9213 16.7088 14.876 16.7088C14.824 16.7088 14.7802 16.7192 14.7447 16.74C14.7099 16.7602 14.682 16.7878 14.6612 16.8227C14.641 16.8569 14.6263 16.8952 14.6171 16.9374C14.6086 16.979 14.6043 17.0216 14.6043 17.065V17.1036C14.6043 17.147 14.6086 17.1899 14.6171 17.2321C14.6257 17.2743 14.6401 17.3126 14.6603 17.3468C14.6811 17.3811 14.7089 17.4087 14.7438 17.4295C14.7793 17.4497 14.8234 17.4598 14.876 17.4598Z" fill="#989898"/>
<path d="M16.1364 17.0182V17.1559H15.6113V17.0182H16.1364ZM15.6471 16.5877V17.5809H15.4773V16.5877H15.6471ZM16.2741 16.5877V17.5809H16.1034V16.5877H16.2741Z" fill="#989898"/>
<path d="M16.6872 16.9292H16.9856C17.0658 16.9292 17.1334 16.9432 17.1885 16.9714C17.2436 16.9989 17.2852 17.0372 17.3133 17.0861C17.3421 17.1345 17.3565 17.1896 17.3565 17.2514C17.3565 17.2973 17.3485 17.3404 17.3326 17.3808C17.3167 17.4206 17.2928 17.4555 17.261 17.4855C17.2298 17.5155 17.1909 17.539 17.1444 17.5562C17.0985 17.5727 17.0456 17.5809 16.9856 17.5809H16.5633V16.5877H16.7331V17.4414H16.9856C17.0346 17.4414 17.0737 17.4325 17.1031 17.4148C17.1325 17.397 17.1536 17.3741 17.1664 17.3459C17.1793 17.3178 17.1857 17.2884 17.1857 17.2578C17.1857 17.2278 17.1793 17.1984 17.1664 17.1697C17.1536 17.1409 17.1325 17.117 17.1031 17.0981C17.0737 17.0785 17.0346 17.0687 16.9856 17.0687H16.6872V16.9292ZM17.7099 16.5877V17.5809H17.5401V16.5877H17.7099Z" fill="#989898"/>
<path d="M18.1221 16.5877L18.3397 16.9494L18.56 16.5877H18.7592L18.4342 17.0779L18.7693 17.5809H18.5728L18.3433 17.2082L18.1138 17.5809H17.9165L18.2506 17.0779L17.9266 16.5877H18.1221Z" fill="#989898"/>
<path d="M19.8039 17.4598C19.8443 17.4598 19.8816 17.4515 19.9159 17.435C19.9502 17.4185 19.9783 17.3958 20.0003 17.367C20.0224 17.3377 20.0349 17.3043 20.038 17.267H20.1995C20.1965 17.3257 20.1766 17.3805 20.1399 17.4313C20.1038 17.4815 20.0563 17.5222 19.9976 17.5534C19.9388 17.584 19.8743 17.5993 19.8039 17.5993C19.7292 17.5993 19.664 17.5861 19.6083 17.5598C19.5533 17.5335 19.5074 17.4974 19.4706 17.4515C19.4345 17.4056 19.4073 17.353 19.3889 17.2936C19.3712 17.2336 19.3623 17.1703 19.3623 17.1036V17.065C19.3623 16.9983 19.3712 16.9353 19.3889 16.8759C19.4073 16.8159 19.4345 16.763 19.4706 16.7171C19.5074 16.6712 19.5533 16.6351 19.6083 16.6088C19.664 16.5825 19.7292 16.5693 19.8039 16.5693C19.8816 16.5693 19.9495 16.5852 20.0077 16.617C20.0658 16.6482 20.1114 16.6911 20.1445 16.7456C20.1781 16.7994 20.1965 16.8606 20.1995 16.9292H20.038C20.0349 16.8881 20.0233 16.8511 20.0031 16.8181C19.9835 16.785 19.9566 16.7587 19.9223 16.7391C19.8886 16.7189 19.8492 16.7088 19.8039 16.7088C19.7519 16.7088 19.7081 16.7192 19.6726 16.74C19.6377 16.7602 19.6099 16.7878 19.5891 16.8227C19.5689 16.8569 19.5542 16.8952 19.545 16.9374C19.5364 16.979 19.5322 17.0216 19.5322 17.065V17.1036C19.5322 17.147 19.5364 17.1899 19.545 17.2321C19.5536 17.2743 19.568 17.3126 19.5882 17.3468C19.609 17.3811 19.6368 17.4087 19.6717 17.4295C19.7072 17.4497 19.7512 17.4598 19.8039 17.4598Z" fill="#989898"/>
<path d="M20.5695 16.5877H20.7393L20.7246 16.9594C20.721 17.0537 20.7103 17.1351 20.6925 17.2036C20.6748 17.2722 20.6521 17.3306 20.6246 17.379C20.597 17.4267 20.5661 17.4668 20.5319 17.4992C20.4982 17.5317 20.4633 17.5589 20.4272 17.5809H20.3428L20.3473 17.4423L20.3822 17.4414C20.4024 17.4175 20.422 17.3931 20.441 17.368C20.46 17.3423 20.4774 17.312 20.4933 17.2771C20.5092 17.2416 20.5224 17.1984 20.5328 17.1476C20.5438 17.0962 20.5508 17.0335 20.5539 16.9594L20.5695 16.5877ZM20.6117 16.5877H21.2094V17.5809H21.0395V16.7446H20.6117V16.5877ZM20.3042 17.4414H21.337V17.8738H21.1671V17.5809H20.474V17.8738H20.3033L20.3042 17.4414Z" fill="#989898"/>
<path d="M21.9373 17.5993C21.8682 17.5993 21.8054 17.5877 21.7491 17.5644C21.6934 17.5405 21.6454 17.5072 21.605 17.4644C21.5652 17.4215 21.5346 17.3707 21.5132 17.312C21.4918 17.2532 21.4811 17.189 21.4811 17.1192V17.0806C21.4811 16.9998 21.493 16.9279 21.5169 16.8649C21.5408 16.8012 21.5732 16.7474 21.6142 16.7033C21.6552 16.6593 21.7017 16.6259 21.7537 16.6033C21.8058 16.5806 21.8596 16.5693 21.9153 16.5693C21.9863 16.5693 22.0475 16.5815 22.0989 16.606C22.1509 16.6305 22.1935 16.6648 22.2265 16.7088C22.2596 16.7523 22.284 16.8037 22.2999 16.8631C22.3159 16.9218 22.3238 16.9861 22.3238 17.0558V17.132H21.5821V16.9934H22.154V16.9806C22.1515 16.9365 22.1424 16.8937 22.1264 16.852C22.1111 16.8104 22.0867 16.7762 22.053 16.7492C22.0193 16.7223 21.9734 16.7088 21.9153 16.7088C21.8767 16.7088 21.8412 16.7171 21.8088 16.7336C21.7764 16.7495 21.7485 16.7734 21.7253 16.8052C21.702 16.837 21.684 16.8759 21.6711 16.9218C21.6583 16.9677 21.6518 17.0206 21.6518 17.0806V17.1192C21.6518 17.1663 21.6583 17.2107 21.6711 17.2523C21.6846 17.2933 21.7039 17.3294 21.7289 17.3606C21.7546 17.3918 21.7856 17.4163 21.8217 17.4341C21.8584 17.4518 21.9 17.4607 21.9465 17.4607C22.0065 17.4607 22.0573 17.4484 22.0989 17.424C22.1405 17.3995 22.1769 17.3667 22.2081 17.3257L22.311 17.4074C22.2895 17.4399 22.2623 17.4708 22.2293 17.5002C22.1962 17.5295 22.1555 17.5534 22.1072 17.5718C22.0594 17.5901 22.0028 17.5993 21.9373 17.5993Z" fill="#989898"/>
<path d="M23.1858 16.5877V16.7281H22.7057V16.5877H23.1858ZM23.3355 16.5877V17.5809H23.1656V16.5877H23.3355ZM22.6644 16.5877H22.8351L22.8094 17.0669C22.8052 17.1409 22.7981 17.2064 22.7883 17.2633C22.7791 17.3196 22.7663 17.368 22.7498 17.4084C22.7339 17.4487 22.7137 17.4818 22.6892 17.5075C22.6653 17.5326 22.6365 17.5513 22.6029 17.5635C22.5692 17.5751 22.5304 17.5809 22.4863 17.5809H22.4331V17.4313L22.4698 17.4286C22.4961 17.4267 22.5184 17.4206 22.5368 17.4102C22.5558 17.3998 22.5717 17.3845 22.5845 17.3643C22.5974 17.3435 22.6078 17.3169 22.6157 17.2844C22.6243 17.252 22.6307 17.2134 22.635 17.1688C22.6399 17.1241 22.6436 17.0721 22.646 17.0127L22.6644 16.5877Z" fill="#989898"/>
<path d="M23.7935 16.5877V17.5809H23.6237V16.5877H23.7935ZM24.4453 16.5877L23.9744 17.1568H23.7366L23.7109 17.0081H23.9055L24.2388 16.5877H24.4453ZM24.2626 17.5809L23.8973 17.1311L24.0065 17.0081L24.4784 17.5809H24.2626Z" fill="#989898"/>
<path d="M25.2119 17.4111V16.8998C25.2119 16.8606 25.2039 16.8266 25.188 16.7979C25.1727 16.7685 25.1494 16.7459 25.1182 16.7299C25.087 16.714 25.0485 16.7061 25.0026 16.7061C24.9597 16.7061 24.9221 16.7134 24.8896 16.7281C24.8578 16.7428 24.8327 16.7621 24.8144 16.7859C24.7966 16.8098 24.7877 16.8355 24.7877 16.8631H24.6179C24.6179 16.8276 24.6271 16.7924 24.6455 16.7575C24.6638 16.7226 24.6901 16.6911 24.7244 16.6629C24.7593 16.6342 24.8009 16.6115 24.8493 16.595C24.8982 16.5779 24.9527 16.5693 25.0127 16.5693C25.0849 16.5693 25.1485 16.5815 25.2036 16.606C25.2593 16.6305 25.3027 16.6675 25.334 16.7171C25.3658 16.7661 25.3817 16.8276 25.3817 16.9016V17.3643C25.3817 17.3973 25.3845 17.4325 25.39 17.4699C25.3961 17.5072 25.405 17.5393 25.4166 17.5663V17.5809H25.2394C25.2308 17.5614 25.2241 17.5353 25.2192 17.5029C25.2143 17.4699 25.2119 17.4393 25.2119 17.4111ZM25.2412 16.9787L25.2431 17.0981H25.0714C25.0231 17.0981 24.9799 17.102 24.942 17.11C24.904 17.1173 24.8722 17.1287 24.8465 17.144C24.8208 17.1593 24.8012 17.1785 24.7877 17.2018C24.7743 17.2244 24.7676 17.2511 24.7676 17.2817C24.7676 17.3129 24.7746 17.3413 24.7887 17.367C24.8027 17.3927 24.8239 17.4133 24.852 17.4286C24.8808 17.4432 24.916 17.4506 24.9576 17.4506C25.0096 17.4506 25.0555 17.4396 25.0953 17.4175C25.1351 17.3955 25.1666 17.3686 25.1898 17.3367C25.2137 17.3049 25.2266 17.274 25.2284 17.244L25.3009 17.3257C25.2966 17.3514 25.285 17.3799 25.266 17.4111C25.2471 17.4423 25.2217 17.4723 25.1898 17.5011C25.1586 17.5292 25.1213 17.5528 25.0778 17.5718C25.035 17.5901 24.9866 17.5993 24.9328 17.5993C24.8655 17.5993 24.8064 17.5861 24.7556 17.5598C24.7054 17.5335 24.6663 17.4983 24.6381 17.4543C24.6106 17.4096 24.5968 17.3597 24.5968 17.3046C24.5968 17.2514 24.6072 17.2046 24.628 17.1642C24.6488 17.1232 24.6788 17.0892 24.718 17.0623C24.7571 17.0347 24.8043 17.0139 24.8594 16.9998C24.9144 16.9858 24.9759 16.9787 25.0439 16.9787H25.2412Z" fill="#989898"/>
<path d="M25.7636 16.5877L25.9812 16.9494L26.2015 16.5877H26.4007L26.0757 17.0779L26.4108 17.5809H26.2143L25.9848 17.2082L25.7553 17.5809H25.558L25.8921 17.0779L25.5681 16.5877H25.7636Z" fill="#989898"/>
<path d="M27.5142 17.144H27.1883L27.1865 17.0081H27.4527C27.5054 17.0081 27.5491 17.0029 27.584 16.9925C27.6195 16.9821 27.6461 16.9665 27.6639 16.9457C27.6816 16.9249 27.6905 16.8992 27.6905 16.8686C27.6905 16.8447 27.6853 16.8239 27.6749 16.8061C27.6651 16.7878 27.6501 16.7728 27.6299 16.7612C27.6097 16.7489 27.5846 16.74 27.5546 16.7345C27.5252 16.7284 27.4907 16.7254 27.4509 16.7254H27.2333V17.5809H27.0635V16.5877H27.4509C27.5139 16.5877 27.5705 16.5932 27.6207 16.6042C27.6715 16.6152 27.7147 16.632 27.7502 16.6547C27.7863 16.6767 27.8138 16.7049 27.8328 16.7391C27.8517 16.7734 27.8612 16.8138 27.8612 16.8603C27.8612 16.8903 27.8551 16.9187 27.8429 16.9457C27.8306 16.9726 27.8126 16.9965 27.7887 17.0173C27.7648 17.0381 27.7355 17.0552 27.7006 17.0687C27.6657 17.0815 27.6256 17.0898 27.5803 17.0935L27.5142 17.144ZM27.5142 17.5809H27.1268L27.2113 17.4432H27.5142C27.5614 17.4432 27.6005 17.4374 27.6317 17.4258C27.6629 17.4136 27.6862 17.3964 27.7015 17.3744C27.7174 17.3517 27.7254 17.3248 27.7254 17.2936C27.7254 17.2624 27.7174 17.2358 27.7015 17.2137C27.6862 17.1911 27.6629 17.174 27.6317 17.1623C27.6005 17.1501 27.5614 17.144 27.5142 17.144H27.2563L27.2581 17.0081H27.5803L27.6418 17.0595C27.6963 17.0638 27.7425 17.0773 27.7805 17.0999C27.8184 17.1225 27.8472 17.1513 27.8667 17.1862C27.8863 17.2205 27.8961 17.2578 27.8961 17.2982C27.8961 17.3447 27.8872 17.3857 27.8695 17.4212C27.8524 17.4567 27.8273 17.4864 27.7942 17.5103C27.7612 17.5335 27.7211 17.5513 27.674 17.5635C27.6268 17.5751 27.5736 17.5809 27.5142 17.5809Z" fill="#989898"/>
<path d="M29.264 17.0182V17.1559H28.7389V17.0182H29.264ZM28.7747 16.5877V17.5809H28.6048V16.5877H28.7747ZM29.4017 16.5877V17.5809H29.2309V16.5877H29.4017Z" fill="#989898"/>
<path d="M29.6302 17.0953V17.0742C29.6302 17.0026 29.6406 16.9362 29.6614 16.875C29.6823 16.8132 29.7122 16.7596 29.7514 16.7143C29.7906 16.6684 29.838 16.6329 29.8937 16.6079C29.9494 16.5821 30.0118 16.5693 30.081 16.5693C30.1507 16.5693 30.2135 16.5821 30.2692 16.6079C30.3255 16.6329 30.3732 16.6684 30.4124 16.7143C30.4522 16.7596 30.4825 16.8132 30.5033 16.875C30.5241 16.9362 30.5345 17.0026 30.5345 17.0742V17.0953C30.5345 17.1669 30.5241 17.2333 30.5033 17.2945C30.4825 17.3557 30.4522 17.4093 30.4124 17.4552C30.3732 17.5005 30.3258 17.536 30.2701 17.5617C30.215 17.5868 30.1526 17.5993 30.0828 17.5993C30.013 17.5993 29.9503 17.5868 29.8946 17.5617C29.8389 17.536 29.7912 17.5005 29.7514 17.4552C29.7122 17.4093 29.6823 17.3557 29.6614 17.2945C29.6406 17.2333 29.6302 17.1669 29.6302 17.0953ZM29.8001 17.0742V17.0953C29.8001 17.1449 29.8059 17.1917 29.8175 17.2358C29.8291 17.2792 29.8466 17.3178 29.8698 17.3514C29.8937 17.3851 29.9234 17.4117 29.9589 17.4313C29.9944 17.4503 30.0357 17.4598 30.0828 17.4598C30.1293 17.4598 30.17 17.4503 30.2049 17.4313C30.2404 17.4117 30.2698 17.3851 30.293 17.3514C30.3163 17.3178 30.3337 17.2792 30.3454 17.2358C30.3576 17.1917 30.3637 17.1449 30.3637 17.0953V17.0742C30.3637 17.0252 30.3576 16.979 30.3454 16.9356C30.3337 16.8915 30.316 16.8527 30.2921 16.819C30.2689 16.7847 30.2395 16.7578 30.204 16.7382C30.1691 16.7186 30.1281 16.7088 30.081 16.7088C30.0345 16.7088 29.9935 16.7186 29.958 16.7382C29.9231 16.7578 29.8937 16.7847 29.8698 16.819C29.8466 16.8527 29.8291 16.8915 29.8175 16.9356C29.8059 16.979 29.8001 17.0252 29.8001 17.0742Z" fill="#989898"/>
<path d="M31.2138 17.144H30.8879L30.8861 17.0081H31.1523C31.2049 17.0081 31.2487 17.0029 31.2836 16.9925C31.3191 16.9821 31.3457 16.9665 31.3634 16.9457C31.3812 16.9249 31.3901 16.8992 31.3901 16.8686C31.3901 16.8447 31.3849 16.8239 31.3745 16.8061C31.3647 16.7878 31.3497 16.7728 31.3295 16.7612C31.3093 16.7489 31.2842 16.74 31.2542 16.7345C31.2248 16.7284 31.1902 16.7254 31.1505 16.7254H30.9329V17.5809H30.7631V16.5877H31.1505C31.2135 16.5877 31.2701 16.5932 31.3203 16.6042C31.3711 16.6152 31.4142 16.632 31.4497 16.6547C31.4858 16.6767 31.5134 16.7049 31.5323 16.7391C31.5513 16.7734 31.5608 16.8138 31.5608 16.8603C31.5608 16.8903 31.5547 16.9187 31.5424 16.9457C31.5302 16.9726 31.5122 16.9965 31.4883 17.0173C31.4644 17.0381 31.435 17.0552 31.4002 17.0687C31.3653 17.0815 31.3252 17.0898 31.2799 17.0935L31.2138 17.144ZM31.2138 17.5809H30.8264L30.9109 17.4432H31.2138C31.2609 17.4432 31.3001 17.4374 31.3313 17.4258C31.3625 17.4136 31.3858 17.3964 31.4011 17.3744C31.417 17.3517 31.4249 17.3248 31.4249 17.2936C31.4249 17.2624 31.417 17.2358 31.4011 17.2137C31.3858 17.1911 31.3625 17.174 31.3313 17.1623C31.3001 17.1501 31.2609 17.144 31.2138 17.144H30.9558L30.9577 17.0081H31.2799L31.3414 17.0595C31.3959 17.0638 31.4421 17.0773 31.48 17.0999C31.518 17.1225 31.5467 17.1513 31.5663 17.1862C31.5859 17.2205 31.5957 17.2578 31.5957 17.2982C31.5957 17.3447 31.5868 17.3857 31.5691 17.4212C31.5519 17.4567 31.5268 17.4864 31.4938 17.5103C31.4607 17.5335 31.4207 17.5513 31.3735 17.5635C31.3264 17.5751 31.2732 17.5809 31.2138 17.5809Z" fill="#989898"/>
<path d="M31.7784 17.0953V17.0742C31.7784 17.0026 31.7888 16.9362 31.8096 16.875C31.8304 16.8132 31.8604 16.7596 31.8996 16.7143C31.9387 16.6684 31.9861 16.6329 32.0418 16.6079C32.0975 16.5821 32.16 16.5693 32.2291 16.5693C32.2989 16.5693 32.3616 16.5821 32.4173 16.6079C32.4736 16.6329 32.5213 16.6684 32.5605 16.7143C32.6003 16.7596 32.6306 16.8132 32.6514 16.875C32.6722 16.9362 32.6826 17.0026 32.6826 17.0742V17.0953C32.6826 17.1669 32.6722 17.2333 32.6514 17.2945C32.6306 17.3557 32.6003 17.4093 32.5605 17.4552C32.5213 17.5005 32.4739 17.536 32.4182 17.5617C32.3631 17.5868 32.3007 17.5993 32.231 17.5993C32.1612 17.5993 32.0985 17.5868 32.0428 17.5617C31.9871 17.536 31.9393 17.5005 31.8996 17.4552C31.8604 17.4093 31.8304 17.3557 31.8096 17.2945C31.7888 17.2333 31.7784 17.1669 31.7784 17.0953ZM31.9482 17.0742V17.0953C31.9482 17.1449 31.954 17.1917 31.9656 17.2358C31.9773 17.2792 31.9947 17.3178 32.018 17.3514C32.0418 17.3851 32.0715 17.4117 32.107 17.4313C32.1425 17.4503 32.1838 17.4598 32.231 17.4598C32.2775 17.4598 32.3182 17.4503 32.353 17.4313C32.3885 17.4117 32.4179 17.3851 32.4412 17.3514C32.4644 17.3178 32.4819 17.2792 32.4935 17.2358C32.5057 17.1917 32.5119 17.1449 32.5119 17.0953V17.0742C32.5119 17.0252 32.5057 16.979 32.4935 16.9356C32.4819 16.8915 32.4641 16.8527 32.4403 16.819C32.417 16.7847 32.3876 16.7578 32.3521 16.7382C32.3172 16.7186 32.2762 16.7088 32.2291 16.7088C32.1826 16.7088 32.1416 16.7186 32.1061 16.7382C32.0712 16.7578 32.0418 16.7847 32.018 16.819C31.9947 16.8527 31.9773 16.8915 31.9656 16.9356C31.954 16.979 31.9482 17.0252 31.9482 17.0742Z" fill="#989898"/>
<path d="M33.2931 17.4598C33.3335 17.4598 33.3708 17.4515 33.4051 17.435C33.4394 17.4185 33.4675 17.3958 33.4895 17.367C33.5116 17.3377 33.5241 17.3043 33.5272 17.267H33.6887C33.6857 17.3257 33.6658 17.3805 33.6291 17.4313C33.593 17.4815 33.5455 17.5222 33.4868 17.5534C33.428 17.584 33.3635 17.5993 33.2931 17.5993C33.2184 17.5993 33.1532 17.5861 33.0976 17.5598C33.0425 17.5335 32.9966 17.4974 32.9599 17.4515C32.9237 17.4056 32.8965 17.353 32.8781 17.2936C32.8604 17.2336 32.8515 17.1703 32.8515 17.1036V17.065C32.8515 16.9983 32.8604 16.9353 32.8781 16.8759C32.8965 16.8159 32.9237 16.763 32.9599 16.7171C32.9966 16.6712 33.0425 16.6351 33.0976 16.6088C33.1532 16.5825 33.2184 16.5693 33.2931 16.5693C33.3708 16.5693 33.4387 16.5852 33.4969 16.617C33.555 16.6482 33.6006 16.6911 33.6337 16.7456C33.6673 16.7994 33.6857 16.8606 33.6887 16.9292H33.5272C33.5241 16.8881 33.5125 16.8511 33.4923 16.8181C33.4727 16.785 33.4458 16.7587 33.4115 16.7391C33.3778 16.7189 33.3384 16.7088 33.2931 16.7088C33.2411 16.7088 33.1973 16.7192 33.1618 16.74C33.1269 16.7602 33.0991 16.7878 33.0783 16.8227C33.0581 16.8569 33.0434 16.8952 33.0342 16.9374C33.0256 16.979 33.0214 17.0216 33.0214 17.065V17.1036C33.0214 17.147 33.0256 17.1899 33.0342 17.2321C33.0428 17.2743 33.0572 17.3126 33.0774 17.3468C33.0982 17.3811 33.126 17.4087 33.1609 17.4295C33.1964 17.4497 33.2405 17.4598 33.2931 17.4598Z" fill="#989898"/>
<path d="M34.2845 16.5877V17.5809H34.1138V16.5877H34.2845ZM34.6178 16.5877V16.7254H33.787V16.5877H34.6178Z" fill="#989898"/>
<path d="M34.9547 16.7786V17.9628H34.7839V16.5877H34.94L34.9547 16.7786ZM35.6239 17.076V17.0953C35.6239 17.1675 35.6153 17.2345 35.5982 17.2964C35.5811 17.3576 35.556 17.4108 35.5229 17.4561C35.4905 17.5014 35.4504 17.5366 35.4027 17.5617C35.3549 17.5868 35.3002 17.5993 35.2383 17.5993C35.1753 17.5993 35.1196 17.5889 35.0713 17.5681C35.0229 17.5473 34.9819 17.517 34.9483 17.4772C34.9146 17.4374 34.8877 17.3897 34.8675 17.334C34.8479 17.2783 34.8344 17.2156 34.8271 17.1458V17.043C34.8344 16.9695 34.8482 16.9038 34.8684 16.8456C34.8886 16.7875 34.9152 16.7379 34.9483 16.6969C34.9819 16.6553 35.0226 16.6238 35.0703 16.6023C35.1181 16.5803 35.1732 16.5693 35.2356 16.5693C35.298 16.5693 35.3534 16.5815 35.4018 16.606C35.4501 16.6299 35.4908 16.6642 35.5238 16.7088C35.5569 16.7535 35.5817 16.8071 35.5982 16.8695C35.6153 16.9313 35.6239 17.0001 35.6239 17.076ZM35.4532 17.0953V17.076C35.4532 17.0265 35.448 16.98 35.4376 16.9365C35.4271 16.8924 35.4109 16.8539 35.3889 16.8208C35.3675 16.7872 35.3399 16.7609 35.3063 16.7419C35.2726 16.7223 35.2325 16.7125 35.186 16.7125C35.1432 16.7125 35.1058 16.7198 35.074 16.7345C35.0428 16.7492 35.0162 16.7691 34.9942 16.7942C34.9721 16.8187 34.9541 16.8468 34.94 16.8787C34.9265 16.9099 34.9164 16.9423 34.9097 16.976V17.2137C34.9219 17.2566 34.9391 17.297 34.9611 17.3349C34.9831 17.3722 35.0125 17.4025 35.0492 17.4258C35.086 17.4484 35.1322 17.4598 35.1879 17.4598C35.2338 17.4598 35.2732 17.4503 35.3063 17.4313C35.3399 17.4117 35.3675 17.3851 35.3889 17.3514C35.4109 17.3178 35.4271 17.2792 35.4376 17.2358C35.448 17.1917 35.4532 17.1449 35.4532 17.0953Z" fill="#989898"/>
<path d="M35.7956 17.0953V17.0742C35.7956 17.0026 35.806 16.9362 35.8268 16.875C35.8476 16.8132 35.8776 16.7596 35.9168 16.7143C35.9559 16.6684 36.0034 16.6329 36.059 16.6079C36.1147 16.5821 36.1772 16.5693 36.2463 16.5693C36.3161 16.5693 36.3788 16.5821 36.4345 16.6079C36.4908 16.6329 36.5386 16.6684 36.5777 16.7143C36.6175 16.7596 36.6478 16.8132 36.6686 16.875C36.6894 16.9362 36.6998 17.0026 36.6998 17.0742V17.0953C36.6998 17.1669 36.6894 17.2333 36.6686 17.2945C36.6478 17.3557 36.6175 17.4093 36.5777 17.4552C36.5386 17.5005 36.4911 17.536 36.4354 17.5617C36.3803 17.5868 36.3179 17.5993 36.2482 17.5993C36.1784 17.5993 36.1157 17.5868 36.06 17.5617C36.0043 17.536 35.9565 17.5005 35.9168 17.4552C35.8776 17.4093 35.8476 17.3557 35.8268 17.2945C35.806 17.2333 35.7956 17.1669 35.7956 17.0953ZM35.9654 17.0742V17.0953C35.9654 17.1449 35.9712 17.1917 35.9828 17.2358C35.9945 17.2792 36.0119 17.3178 36.0352 17.3514C36.059 17.3851 36.0887 17.4117 36.1242 17.4313C36.1597 17.4503 36.201 17.4598 36.2482 17.4598C36.2947 17.4598 36.3354 17.4503 36.3702 17.4313C36.4057 17.4117 36.4351 17.3851 36.4584 17.3514C36.4816 17.3178 36.4991 17.2792 36.5107 17.2358C36.5229 17.1917 36.5291 17.1449 36.5291 17.0953V17.0742C36.5291 17.0252 36.5229 16.979 36.5107 16.9356C36.4991 16.8915 36.4813 16.8527 36.4575 16.819C36.4342 16.7847 36.4048 16.7578 36.3693 16.7382C36.3344 16.7186 36.2934 16.7088 36.2463 16.7088C36.1998 16.7088 36.1588 16.7186 36.1233 16.7382C36.0884 16.7578 36.059 16.7847 36.0352 16.819C36.0119 16.8527 35.9945 16.8915 35.9828 16.9356C35.9712 16.979 35.9654 17.0252 35.9654 17.0742Z" fill="#989898"/>
<path d="M37.0964 17.312L37.5545 16.5877H37.7252V17.5809H37.5545V16.8566L37.0964 17.5809H36.9275V16.5877H37.0964V17.312ZM37.4618 16.2278H37.5995C37.5995 16.2755 37.5884 16.3181 37.5664 16.3554C37.5444 16.3921 37.5129 16.4209 37.4719 16.4417C37.4309 16.4625 37.3822 16.4729 37.3259 16.4729C37.2408 16.4729 37.1735 16.4503 37.1239 16.405C37.075 16.3591 37.0505 16.3 37.0505 16.2278H37.1882C37.1882 16.2639 37.1986 16.2957 37.2194 16.3233C37.2402 16.3508 37.2757 16.3646 37.3259 16.3646C37.3749 16.3646 37.4097 16.3508 37.4305 16.3233C37.4514 16.2957 37.4618 16.2639 37.4618 16.2278Z" fill="#989898"/>
<path d="M38.1824 16.5877V17.5809H38.0126V16.5877H38.1824ZM38.8342 16.5877L38.3632 17.1568H38.1255L38.0998 17.0081H38.2944L38.6276 16.5877H38.8342ZM38.6515 17.5809L38.2861 17.1311L38.3954 17.0081L38.8672 17.5809H38.6515Z" fill="#989898"/>
<path d="M39.6007 17.4111V16.8998C39.6007 16.8606 39.5928 16.8266 39.5768 16.7979C39.5615 16.7685 39.5383 16.7459 39.5071 16.7299C39.4759 16.714 39.4373 16.7061 39.3914 16.7061C39.3486 16.7061 39.3109 16.7134 39.2785 16.7281C39.2467 16.7428 39.2216 16.7621 39.2032 16.7859C39.1855 16.8098 39.1766 16.8355 39.1766 16.8631H39.0068C39.0068 16.8276 39.0159 16.7924 39.0343 16.7575C39.0527 16.7226 39.079 16.6911 39.1133 16.6629C39.1481 16.6342 39.1898 16.6115 39.2381 16.595C39.2871 16.5779 39.3415 16.5693 39.4015 16.5693C39.4737 16.5693 39.5374 16.5815 39.5925 16.606C39.6481 16.6305 39.6916 16.6675 39.7228 16.7171C39.7546 16.7661 39.7705 16.8276 39.7705 16.9016V17.3643C39.7705 17.3973 39.7733 17.4325 39.7788 17.4699C39.7849 17.5072 39.7938 17.5393 39.8054 17.5663V17.5809H39.6283C39.6197 17.5614 39.613 17.5353 39.6081 17.5029C39.6032 17.4699 39.6007 17.4393 39.6007 17.4111ZM39.6301 16.9787L39.6319 17.0981H39.4603C39.4119 17.0981 39.3688 17.102 39.3308 17.11C39.2929 17.1173 39.2611 17.1287 39.2354 17.144C39.2096 17.1593 39.1901 17.1785 39.1766 17.2018C39.1631 17.2244 39.1564 17.2511 39.1564 17.2817C39.1564 17.3129 39.1634 17.3413 39.1775 17.367C39.1916 17.3927 39.2127 17.4133 39.2409 17.4286C39.2696 17.4432 39.3048 17.4506 39.3464 17.4506C39.3984 17.4506 39.4443 17.4396 39.4841 17.4175C39.5239 17.3955 39.5554 17.3686 39.5787 17.3367C39.6026 17.3049 39.6154 17.274 39.6172 17.244L39.6898 17.3257C39.6855 17.3514 39.6739 17.3799 39.6549 17.4111C39.6359 17.4423 39.6105 17.4723 39.5787 17.5011C39.5475 17.5292 39.5101 17.5528 39.4667 17.5718C39.4238 17.5901 39.3755 17.5993 39.3216 17.5993C39.2543 17.5993 39.1953 17.5861 39.1445 17.5598C39.0943 17.5335 39.0551 17.4983 39.027 17.4543C38.9994 17.4096 38.9857 17.3597 38.9857 17.3046C38.9857 17.2514 38.9961 17.2046 39.0169 17.1642C39.0377 17.1232 39.0677 17.0892 39.1068 17.0623C39.146 17.0347 39.1931 17.0139 39.2482 16.9998C39.3033 16.9858 39.3648 16.9787 39.4327 16.9787H39.6301Z" fill="#989898"/>
<path d="M40.1524 16.5877L40.37 16.9494L40.5903 16.5877H40.7895L40.4646 17.0779L40.7996 17.5809H40.6032L40.3737 17.2082L40.1442 17.5809H39.9468L40.281 17.0779L39.9569 16.5877H40.1524Z" fill="#989898"/>
<path d="M39.3969 9.22005C39.3969 9.24333 39.3869 9.2533 39.377 9.24C39.3637 9.23003 39.3371 9.23668 39.3105 9.25995C39.2872 9.28322 39.2141 9.33642 39.1476 9.38297C39.0811 9.42951 38.988 9.49933 38.9414 9.53923C38.8949 9.58245 38.845 9.6157 38.835 9.6157C38.8118 9.6157 38.8251 14.4532 38.8483 14.5563C38.865 14.6328 39.0146 14.7159 39.0711 14.6826C39.0944 14.6693 39.0977 14.676 39.0844 14.6959C39.0711 14.7192 39.0811 14.7358 39.1043 14.7358C39.1276 14.7358 39.234 14.7791 39.3371 14.8322C39.5399 14.9353 39.5731 14.9253 39.5632 14.7757C39.5598 14.7259 39.5565 14.5796 39.5598 14.4466L39.5632 14.2105L39.8391 14.0343C39.9887 13.9379 40.1184 13.8514 40.1284 13.8415C40.1383 13.8282 40.1982 13.7916 40.2647 13.7584C40.4908 13.6387 40.5074 13.6187 40.4974 13.4458C40.4941 13.3594 40.4542 13.3527 40.3811 13.4225C40.3545 13.4525 40.3212 13.4691 40.3146 13.4658C40.3046 13.4591 40.268 13.4824 40.2314 13.5123C40.1649 13.5688 39.9821 13.6719 39.9455 13.6719C39.9355 13.6719 39.9289 13.6187 39.9289 13.5555C39.9289 13.4924 39.9422 13.4392 39.9555 13.4392C39.9721 13.4392 40.012 13.4126 40.0486 13.3793C40.0851 13.3461 40.1816 13.2763 40.268 13.2264C40.3511 13.1765 40.4409 13.1133 40.4642 13.0867C40.5174 13.0236 40.5373 12.6845 40.4908 12.6545C40.4642 12.6379 40.2348 12.7676 40.1616 12.8407C40.1284 12.874 39.9954 12.9405 39.9621 12.9405C39.9222 12.9405 39.9189 12.7742 39.9555 12.7144C39.9721 12.6911 40.1018 12.598 40.2481 12.5082L40.5107 12.3387L40.514 12.1558C40.514 12.0561 40.5041 11.9663 40.4874 11.9563C40.4741 11.9464 40.3545 12.0029 40.2215 12.0793C40.0885 12.1558 39.9688 12.2223 39.9588 12.229C39.9455 12.2356 39.9389 12.1758 39.9422 12.0926C39.9455 11.963 39.9555 11.9397 40.0419 11.9031C40.0918 11.8832 40.1683 11.8333 40.2048 11.7967C40.2414 11.7568 40.258 11.7502 40.2447 11.7768C40.2181 11.82 40.2215 11.82 40.2813 11.7768C40.3146 11.7502 40.3511 11.7203 40.3611 11.7103C40.3711 11.7003 40.4176 11.6737 40.4708 11.6471C40.5539 11.6039 40.5606 11.584 40.5606 11.3878C40.5606 11.1916 40.5573 11.1783 40.4841 11.1783C40.4409 11.1783 40.3744 11.2083 40.3378 11.2415C40.2979 11.2781 40.258 11.298 40.2481 11.2881C40.2381 11.2748 40.2281 11.2847 40.2281 11.3047C40.2281 11.328 40.2115 11.3446 40.1882 11.3446C40.1683 11.3446 40.1018 11.3811 40.0386 11.431L39.9289 11.5141V10.7661V10.0147L40.012 9.99472C40.0585 9.98475 40.0951 9.96148 40.0951 9.94485C40.0951 9.92823 40.1184 9.91493 40.145 9.91493C40.1716 9.91493 40.1949 9.90495 40.1949 9.88833C40.1949 9.87503 40.2614 9.82849 40.3445 9.78526C40.5938 9.65227 40.5606 9.61903 39.9289 9.34639C39.5798 9.19346 39.3969 9.15023 39.3969 9.22005Z" fill="#029D9E"/>
<path d="M37.5151 9.65924C37.4586 9.69914 37.3888 9.75566 37.3588 9.78226C37.2491 9.882 37.2059 9.91525 37.1727 9.91525C37.156 9.91525 37.1328 9.93852 37.1228 9.96844C37.0895 10.0582 37.0995 14.417 37.1361 14.4702C37.1527 14.4968 37.1693 14.5101 37.1693 14.4968C37.1693 14.4835 37.2824 14.5333 37.422 14.6065C37.5583 14.6796 37.6847 14.7295 37.7046 14.7195C37.7212 14.7062 37.7345 14.7162 37.7345 14.7361C37.7345 14.7561 37.7512 14.7627 37.7678 14.7528C37.7877 14.7428 37.801 14.7461 37.801 14.7661C37.801 14.8126 38.1136 14.909 38.1867 14.8791C38.2532 14.8558 38.2931 14.8259 38.4028 14.7262C38.4361 14.6963 38.4726 14.6697 38.4826 14.6697C38.4926 14.6697 38.5458 14.6298 38.599 14.5799C38.6888 14.5001 38.6987 14.4735 38.6987 14.2807C38.6987 14.1144 38.6888 14.0712 38.6489 14.0712C38.6189 14.0712 38.589 14.0945 38.579 14.1211C38.5657 14.1477 38.5391 14.1709 38.5125 14.1709C38.4859 14.1709 38.466 14.1842 38.466 14.2042C38.466 14.2208 38.446 14.2374 38.4194 14.2374C38.3928 14.2374 38.3662 14.2607 38.353 14.2873C38.343 14.3139 38.3131 14.3372 38.2865 14.3372C38.2632 14.3372 38.2299 14.3605 38.22 14.3904C38.1834 14.4801 38.1335 14.4037 38.1335 14.2574C38.1335 14.141 38.1535 14.0978 38.2299 14.028C38.2831 13.9814 38.333 13.9482 38.3397 13.9548C38.3463 13.9615 38.4095 13.9149 38.4826 13.8518C38.5558 13.7886 38.6322 13.7387 38.6555 13.7387C38.6854 13.7387 38.6987 13.6756 38.6987 13.5226C38.6987 13.2866 38.6622 13.25 38.5491 13.373C38.5159 13.4096 38.4826 13.4328 38.4726 13.4262C38.466 13.4162 38.4427 13.4229 38.4194 13.4395C38.22 13.6024 38.1734 13.6357 38.1535 13.6157C38.1235 13.5858 38.1269 13.2733 38.1601 13.2733C38.1734 13.2733 38.2299 13.2334 38.2865 13.1802C38.3397 13.1303 38.3962 13.0871 38.4128 13.0871C38.4261 13.0837 38.4959 13.0305 38.5691 12.9707C38.6921 12.8676 38.6987 12.8543 38.6987 12.6681C38.6987 12.5252 38.6854 12.4753 38.6522 12.4753C38.6256 12.4753 38.599 12.4986 38.5857 12.5252C38.5757 12.5518 38.5458 12.5751 38.5159 12.5751C38.4893 12.5751 38.466 12.5884 38.466 12.6083C38.466 12.6249 38.446 12.6416 38.4194 12.6416C38.3928 12.6416 38.3662 12.6648 38.353 12.6914C38.343 12.718 38.3131 12.7413 38.2831 12.7413C38.2565 12.7413 38.2333 12.7546 38.2333 12.7745C38.2333 12.7912 38.21 12.8078 38.1834 12.8078C38.1468 12.8078 38.1335 12.7712 38.1335 12.6648C38.1335 12.5352 38.1468 12.5119 38.2931 12.3988C38.3795 12.3323 38.4926 12.2393 38.5458 12.1927C38.599 12.1462 38.6555 12.1096 38.6721 12.1096C38.6854 12.1096 38.6987 12.0265 38.6987 11.9267C38.6987 11.8004 38.6854 11.7439 38.6555 11.7439C38.6123 11.7439 38.4693 11.8303 38.4161 11.8902C38.3662 11.9434 38.2067 12.0431 38.1668 12.0431C38.1501 12.0431 38.1335 11.9699 38.1335 11.8835C38.1335 11.7538 38.1501 11.7073 38.2166 11.6508C38.2632 11.6109 38.3164 11.5776 38.333 11.5776C38.3496 11.5776 38.3829 11.5477 38.4061 11.5111C38.4294 11.4746 38.4627 11.4446 38.4826 11.4446C38.5026 11.4446 38.5591 11.4081 38.609 11.3615C38.6888 11.285 38.6987 11.2518 38.6987 11.0623C38.6987 10.8362 38.6755 10.8063 38.5691 10.9027C38.4627 10.9991 38.4028 11.0457 38.3829 11.0457C38.3729 11.0457 38.3363 11.0756 38.2998 11.1122C38.1634 11.2485 38.1335 11.2053 38.1335 10.8562V10.5337L38.2931 10.3907C38.3795 10.3109 38.4593 10.2477 38.4693 10.2477C38.4793 10.2477 38.5225 10.2211 38.5591 10.1846C38.6322 10.1247 38.6588 9.98174 38.6023 9.98174C38.5857 9.98174 38.3862 9.89198 38.1601 9.78226C37.9374 9.67254 37.7212 9.58277 37.6847 9.58277C37.6481 9.5861 37.5716 9.61935 37.5151 9.65924Z" fill="#029D9E"/>
<path d="M35.7532 10.1179C35.7199 10.1578 35.6401 10.211 35.5836 10.2376C35.5238 10.2609 35.4739 10.2975 35.4739 10.3141C35.4739 10.334 35.4506 10.3473 35.424 10.3473C35.3974 10.3473 35.3675 10.3806 35.3575 10.4205C35.3476 10.4637 35.3442 11.3946 35.3476 12.4885L35.3575 14.4833L35.5736 14.5897C35.6933 14.6496 35.8164 14.6994 35.8496 14.6994C35.8795 14.7028 35.9061 14.7161 35.9061 14.736C35.9061 14.7526 35.9261 14.7693 35.9527 14.7693C35.9759 14.7693 36.0557 14.7925 36.1256 14.8258C36.3051 14.8989 36.4248 14.9089 36.4713 14.8524C36.4946 14.8258 36.5345 14.8025 36.5578 14.8025C36.5844 14.8025 36.6043 14.7892 36.6043 14.7759C36.6043 14.7593 36.6442 14.726 36.6941 14.6994C36.8936 14.5964 36.9368 14.5365 36.9368 14.3503C36.9368 14.2539 36.9235 14.1642 36.9035 14.1542C36.8869 14.1442 36.8304 14.1708 36.7805 14.2207C36.7273 14.2672 36.6575 14.3138 36.6209 14.3237C36.5877 14.337 36.5378 14.367 36.5112 14.3902C36.4348 14.4667 36.4048 14.4434 36.4048 14.3005C36.4048 14.1741 36.4614 14.0711 36.5278 14.0711C36.5445 14.0711 36.5877 14.0445 36.6243 14.0079C36.6608 13.9746 36.7473 13.9214 36.8171 13.8882C36.9401 13.8284 36.9401 13.8284 36.9301 13.6455C36.9202 13.4394 36.8836 13.4061 36.7739 13.5025C36.7307 13.5391 36.6675 13.579 36.6342 13.589C36.5977 13.6023 36.5711 13.6222 36.5711 13.6355C36.5711 13.6488 36.5345 13.6787 36.488 13.6987C36.4048 13.7353 36.4048 13.7353 36.4048 13.5723C36.4048 13.4094 36.4048 13.4061 36.5977 13.2864C36.7007 13.2199 36.7938 13.1534 36.8038 13.1401C36.8138 13.1302 36.847 13.1102 36.8803 13.0969C36.9235 13.0803 36.9368 13.0371 36.9368 12.8941C36.9368 12.7944 36.9202 12.7013 36.9035 12.6913C36.8836 12.6813 36.8138 12.7146 36.7473 12.7711C36.6775 12.8276 36.611 12.8741 36.5943 12.8741C36.581 12.8741 36.5345 12.9041 36.4946 12.944L36.4215 13.0105L36.4115 12.8775C36.4015 12.7345 36.4547 12.5949 36.5079 12.6248C36.5245 12.6381 36.5478 12.6215 36.5578 12.5949C36.5677 12.5649 36.5943 12.5417 36.6176 12.5417C36.6376 12.5417 36.6941 12.5051 36.744 12.4586C36.7938 12.412 36.847 12.3754 36.8637 12.3754C36.8836 12.3754 36.9069 12.3522 36.9168 12.3222C36.9434 12.2524 36.9434 12.0263 36.9168 11.9997C36.8936 11.9765 36.6974 12.1028 36.6775 12.1494C36.6708 12.1627 36.6442 12.1759 36.6176 12.1759C36.591 12.1759 36.5711 12.1859 36.5711 12.1992C36.5711 12.2158 36.5345 12.2424 36.488 12.2657C36.4048 12.3023 36.4048 12.3023 36.4048 12.1427C36.4048 12.0064 36.4181 11.9698 36.4913 11.9199C36.5378 11.8867 36.6076 11.8268 36.6475 11.7836C36.6841 11.7437 36.7307 11.7105 36.7506 11.7105C36.7706 11.7072 36.8204 11.6806 36.8637 11.644C36.9301 11.5908 36.9401 11.5542 36.9301 11.4079C36.9202 11.2118 36.8836 11.1818 36.7805 11.2749C36.744 11.3115 36.7007 11.3315 36.6908 11.3215C36.6808 11.3082 36.6708 11.3182 36.6708 11.3381C36.6708 11.3614 36.6509 11.378 36.6276 11.378C36.6043 11.378 36.5445 11.4146 36.4946 11.4611L36.4048 11.5476V11.2184C36.4048 10.9092 36.4082 10.8859 36.488 10.8194C36.5345 10.7796 36.581 10.7463 36.591 10.7463C36.6176 10.7463 36.8703 10.5036 36.8703 10.4803C36.8703 10.4471 36.6176 10.3141 36.5578 10.3141C36.5278 10.3141 36.5046 10.3008 36.5046 10.2808C36.5046 10.2642 36.4647 10.2376 36.4181 10.2276C36.3716 10.2143 36.2585 10.1711 36.1688 10.1279C35.966 10.0282 35.8363 10.0248 35.7532 10.1179Z" fill="#029D9E"/>
<path d="M12.6327 10.9995C12.4366 11.036 12.1041 11.159 11.9345 11.2555C11.489 11.5081 11.1499 12.0368 11.1067 12.5554C11.0601 13.0675 11.1732 13.6593 11.3893 14.0283C11.5389 14.2843 11.8248 14.5603 12.0675 14.6833C12.3767 14.8362 12.6726 14.8828 13.2545 14.8628C13.7233 14.8462 13.7332 14.8429 13.9859 14.7199C14.6442 14.394 15.0598 13.6626 15.0598 12.8214C15.0598 12.3061 14.9036 11.9005 14.5678 11.558C14.1821 11.1624 13.7931 11.0094 13.1315 10.9961C12.902 10.9895 12.6793 10.9928 12.6327 10.9995ZM13.4008 11.7309C13.7931 11.8473 14.0125 12.0301 14.1754 12.3726C14.2718 12.5787 14.2785 12.6153 14.2785 12.9744C14.2785 13.3567 14.2785 13.36 14.1621 13.5529C13.9161 13.9585 13.5537 14.1779 13.1148 14.1812C12.5529 14.1879 12.134 13.902 11.9312 13.3833C11.8747 13.2337 11.8581 13.1207 11.8547 12.8746C11.8547 12.592 11.8647 12.5388 11.9478 12.3693C12.2205 11.8273 12.8223 11.5613 13.4008 11.7309Z" fill="black"/>
<path d="M17.2541 11.0487C16.9815 11.0953 16.5892 11.2316 16.3697 11.3612C15.8278 11.6837 15.5286 12.3321 15.5685 13.1067C15.5984 13.6454 15.7314 14.0044 16.0173 14.3103C16.3033 14.6162 16.8385 14.8755 17.2708 14.9154C17.6398 14.952 18.2482 14.8655 18.594 14.7292L18.6838 14.696V14.297V13.9014L18.5774 13.9812C18.3812 14.1274 18.1984 14.2006 17.9158 14.2405C17.6731 14.2771 17.6032 14.2737 17.3705 14.2239C16.8685 14.1108 16.5659 13.8847 16.4163 13.509C16.3598 13.3628 16.3432 13.2497 16.3432 12.9904C16.3398 12.6845 16.3465 12.6413 16.4429 12.4385C16.6191 12.0694 16.8917 11.8633 17.3439 11.7569C17.6897 11.6771 18.0089 11.7037 18.3447 11.85L18.6173 11.9697V11.6073V11.2482L18.3879 11.1784C17.9623 11.052 17.5401 11.0055 17.2541 11.0487Z" fill="black"/>
<path d="M24.7183 11.1087C24.0068 11.3049 23.6245 11.654 23.405 12.3057C23.3485 12.4719 23.3352 12.5982 23.3352 12.8875C23.3352 13.5524 23.5181 14.0478 23.9071 14.4435C24.2661 14.8092 24.6219 14.9355 25.3035 14.9355C25.9551 14.9355 26.2178 14.8591 26.5635 14.5698C27.0357 14.1742 27.295 13.5857 27.295 12.9108C27.295 12.3722 27.1454 11.9765 26.8129 11.6307C26.4405 11.2417 26.0283 11.0788 25.3666 11.0589C25.0308 11.0489 24.9078 11.0556 24.7183 11.1087ZM25.7723 11.8402C26.2676 12.0297 26.5303 12.4486 26.5303 13.0537C26.5303 13.3297 26.5203 13.3829 26.4272 13.5657C26.2444 13.9315 25.882 14.1908 25.4664 14.254C25.2868 14.2806 24.9012 14.2041 24.7117 14.111C24.5388 14.0212 24.316 13.7719 24.2163 13.5591C23.8738 12.811 24.193 12.0397 24.951 11.787C25.1339 11.7272 25.5362 11.7538 25.7723 11.8402Z" fill="black"/>
<path d="M6.42205 13.0145L6.43203 14.8863L6.82435 14.8963L7.21335 14.9062V13.7526C7.21335 12.9945 7.22332 12.6055 7.24659 12.6155C7.26654 12.6221 7.49263 12.9413 7.75528 13.3237L8.23072 14.0219H8.47676H8.72279L9.2082 13.3336C9.47418 12.9546 9.71024 12.6454 9.73351 12.6421C9.77009 12.6421 9.77341 12.8449 9.75346 13.7725L9.73019 14.9029H10.1391H10.5481L10.5281 14.0485C10.5148 13.5797 10.5049 12.7352 10.5049 12.17V11.1459H10.1325L9.75679 11.1493L9.11511 12.1135C8.76268 12.6454 8.46346 13.0743 8.45681 13.0643C8.44683 13.0544 8.16755 12.6221 7.83175 12.1068L7.22665 11.1626L6.82103 11.1526L6.41541 11.1426L6.42205 13.0145Z" fill="black"/>
<path d="M20.0804 11.1752C20.0804 11.3648 19.9673 12.5583 19.9274 12.7745C19.8476 13.22 19.7313 13.6356 19.6016 13.9115L19.4852 14.1709H19.2691H19.0497V14.9189V15.667H19.3655H19.6814V15.2846V14.9023H21.0279H22.3744V15.2846V15.667H22.7402H23.1059V14.9355V14.2074L22.8665 14.1974L22.6238 14.1875L22.6138 12.6647L22.6072 11.1453H21.3438C20.6223 11.1453 20.0804 11.1586 20.0804 11.1752ZM21.8259 12.1494C21.8259 12.3289 21.8225 12.8576 21.8159 13.323L21.8092 14.1709H21.0944C20.7021 14.1709 20.3796 14.1576 20.3796 14.1443C20.3796 14.1276 20.4162 14.0046 20.466 13.8683C20.6023 13.466 20.7054 12.9872 20.7619 12.4752C20.8384 11.777 20.7952 11.8468 21.1376 11.8335C21.2972 11.8269 21.5167 11.8236 21.6264 11.8236L21.8259 11.8269V12.1494Z" fill="black"/>
<path d="M28.6748 11.4351C28.6416 11.8839 28.5618 12.5921 28.5053 12.9246C28.3523 13.8622 28.216 14.1215 27.8536 14.1647L27.6774 14.188L27.6674 14.5271L27.6575 14.8662L27.7805 14.8895C27.9567 14.9228 28.3058 14.8829 28.4687 14.8097C28.5485 14.7765 28.6549 14.6967 28.7048 14.6335C29.0206 14.2645 29.2899 13.2271 29.3531 12.1599L29.373 11.7942L29.905 11.8075C30.1976 11.8141 30.4469 11.8241 30.4569 11.8307C30.4669 11.8374 30.4702 12.5256 30.4602 13.3634L30.4436 14.8862L30.8226 14.8795L31.2017 14.8729V13.0177V11.1625L29.9482 11.1525L28.6981 11.1458L28.6748 11.4351Z" fill="black"/>
<path d="M31.8501 12.1993C31.8501 12.7811 31.8401 13.6256 31.8268 14.0778L31.8069 14.9023H32.3854C33.8915 14.9023 34.4467 14.7328 34.7094 14.1875C34.7759 14.0512 34.7892 13.9581 34.8025 13.609C34.8158 13.2267 34.8091 13.1735 34.7426 13.0139C34.6496 12.7978 34.4999 12.6648 34.1808 12.5118C33.9447 12.4021 33.9015 12.3922 33.4626 12.3656C33.2066 12.3523 32.9041 12.3323 32.791 12.3223L32.5816 12.3024V11.7239V11.1454H32.2158H31.8501V12.1993ZM33.7785 13.1801C34.0877 13.3597 34.1442 13.6855 33.9081 13.9548C33.7485 14.1343 33.5624 14.1875 33.0736 14.1875C32.8342 14.1875 32.6381 14.1742 32.6215 14.1543C32.6082 14.1343 32.6015 13.885 32.6082 13.5957L32.6215 13.0671L33.1268 13.0804C33.6023 13.0903 33.6388 13.0937 33.7785 13.1801Z" fill="black"/>
<path fill-rule="evenodd" clip-rule="evenodd" d="M40.9598 13.8117V12.4785V11.1453H41.3422H41.7245V12.3588C41.7245 13.0337 41.7378 13.5723 41.7544 13.5723C41.7711 13.5723 42.1767 13.0271 42.6588 12.3588L43.5332 11.1453H43.9089H44.2846V13.0071V14.869H43.9022H43.5199V13.6754C43.5199 13.0171 43.5099 12.4719 43.4966 12.4652C43.48 12.4552 43.0611 12.9938 42.5657 13.6588C41.6746 14.8491 41.658 14.869 41.5417 14.869H41.4253L41.4186 14.4601C41.4186 14.2917 41.4167 14.1367 41.4158 14.0609C41.4155 14.0364 41.4153 14.0202 41.4153 14.0145C41.4153 13.9946 41.3954 13.968 41.3721 13.958C41.3455 13.948 41.3255 13.958 41.3255 13.9846L40.9598 13.8117Z" fill="black"/>
<path d="M40.8867 13.7918L40.9598 13.8117L41.3255 13.9846C41.3255 14.0079 41.1759 14.1675 40.9931 14.337L40.6606 14.6496V15.1749V15.7002H40.2051C39.9524 15.7002 39.7263 15.6869 39.7031 15.6736C39.6731 15.6503 39.6632 15.4874 39.6698 14.9654L39.6798 14.2872L39.8627 14.1775C39.9624 14.1176 40.0721 14.0478 40.1054 14.0212C40.1353 13.9946 40.1685 13.9713 40.1785 13.9713C40.1885 13.9713 40.2716 13.9181 40.3614 13.8516C40.511 13.7452 40.5476 13.7319 40.6706 13.7486C40.747 13.7585 40.8435 13.7785 40.8867 13.7918Z" fill="#029D9E"/>
<path d="M44.9163 13.0073V14.8691H45.2986H45.681L45.6876 14.0778L45.6976 13.2899H46.0134H46.3293L46.8779 14.0778L47.4231 14.8691H47.8354C48.1546 14.8691 48.241 14.8592 48.2211 14.8259C48.2078 14.806 47.9218 14.3837 47.586 13.895C47.2502 13.4062 46.9676 12.984 46.9577 12.9607C46.9477 12.9341 47.2004 12.5285 47.5162 12.0564C47.8321 11.581 48.0981 11.182 48.1014 11.1687C48.108 11.1554 47.9318 11.1487 47.7091 11.1521L47.3001 11.162L46.8612 11.8602C46.6185 12.2426 46.4024 12.5784 46.3825 12.5983C46.3293 12.6549 45.7774 12.6582 45.7209 12.6017C45.6909 12.5717 45.681 12.3589 45.681 11.8536V11.1454H45.2986H44.9163V13.0073Z" fill="black"/>
</svg>
