<svg width="55" height="27" viewBox="0 0 55 27" fill="none" xmlns="http://www.w3.org/2000/svg">
<rect x="0.735617" y="0.299093" width="53.6774" height="26.434" rx="2.80679" fill="white"/>
<rect x="0.735617" y="0.299093" width="53.6774" height="26.434" rx="2.80679" stroke="#D3D3D3" stroke-width="0.295452"/>
<path d="M12.5449 19.4412L12.0827 18.3233H12.0426L11.6063 19.4412H12.5449ZM10.7336 20.4577C10.85 20.4498 10.9435 20.3971 11.0143 20.2997C11.0599 20.2383 11.1251 20.1031 11.21 19.894L12.2831 17.2502H12.4175L13.4953 19.7879C13.6164 20.0725 13.7068 20.2564 13.7666 20.3398C13.8263 20.4215 13.9112 20.4608 14.0213 20.4577V20.5803H12.4576V20.4577C12.6149 20.4514 12.7178 20.438 12.7666 20.4176C12.8169 20.3971 12.8421 20.3453 12.8421 20.2619C12.8421 20.2242 12.8295 20.1668 12.8043 20.0898C12.7886 20.0442 12.7674 19.9891 12.7406 19.9247L12.618 19.6322H11.5331C11.4624 19.824 11.4168 19.949 11.3964 20.0072C11.3539 20.1314 11.3327 20.2218 11.3327 20.2784C11.3327 20.3476 11.3791 20.3979 11.4718 20.4294C11.5269 20.4467 11.6094 20.4561 11.7195 20.4577V20.5803H10.7336V20.4577Z" fill="#4EAA58"/>
<path d="M14.2724 20.4577C14.4045 20.453 14.4988 20.4357 14.5554 20.4058C14.6513 20.3555 14.6993 20.2596 14.6993 20.1181V17.7809C14.6993 17.6394 14.6537 17.5443 14.5625 17.4955C14.509 17.4656 14.4123 17.4468 14.2724 17.4389V17.3163H15.961V17.4389C15.7645 17.4452 15.6332 17.4727 15.5672 17.5215C15.5027 17.5702 15.4705 17.6905 15.4705 17.8823V20.1629C15.4705 20.2698 15.498 20.3405 15.553 20.3751C15.6096 20.4097 15.7189 20.427 15.8808 20.427C16.1717 20.427 16.4154 20.3633 16.6119 20.236C16.81 20.1071 16.9806 19.8571 17.1237 19.486H17.2652L17.0695 20.5803H14.2724V20.4577Z" fill="#4EAA58"/>
<path d="M17.5423 20.4577C17.6743 20.453 17.7687 20.4357 17.8253 20.4058C17.9212 20.3555 17.9691 20.2596 17.9691 20.1181V17.7809C17.9691 17.6394 17.9235 17.5443 17.8324 17.4955C17.7789 17.4656 17.6822 17.4468 17.5423 17.4389V17.3163H19.2309V17.4389C19.0344 17.4452 18.9031 17.4727 18.837 17.5215C18.7726 17.5702 18.7403 17.6905 18.7403 17.8823V20.1629C18.7403 20.2698 18.7679 20.3405 18.8229 20.3751C18.8795 20.4097 18.9888 20.427 19.1507 20.427C19.4416 20.427 19.6853 20.3633 19.8818 20.236C20.0799 20.1071 20.2505 19.8571 20.3936 19.486H20.5351L20.3393 20.5803H17.5423V20.4577Z" fill="#4EAA58"/>
<path d="M20.7909 20.4577C20.912 20.4498 20.9993 20.4325 21.0527 20.4058C21.1471 20.357 21.1942 20.2682 21.1942 20.1393V17.7573C21.1942 17.6331 21.1494 17.5466 21.0598 17.4979C21.0079 17.4696 20.9183 17.4499 20.7909 17.4389V17.3163H22.2673C22.8632 17.3163 23.3176 17.4751 23.6305 17.7927C23.915 18.082 24.0573 18.4703 24.0573 18.9577C24.0573 19.3948 23.9142 19.7651 23.6281 20.0685C23.3058 20.4097 22.8687 20.5803 22.3168 20.5803H20.7909V20.4577ZM21.9749 20.1346C21.9796 20.2336 21.9976 20.3052 22.0291 20.3492C22.0621 20.3932 22.1313 20.4152 22.2366 20.4152C22.5228 20.4152 22.7578 20.3146 22.9418 20.1133C23.1258 19.9105 23.2177 19.5222 23.2177 18.9483C23.2177 18.6071 23.1682 18.3139 23.0692 18.0686C22.9088 17.674 22.6384 17.4766 22.2579 17.4766C22.1321 17.4766 22.0503 17.5034 22.0126 17.5568C21.9874 17.5914 21.9749 17.6582 21.9749 17.7573V20.1346Z" fill="#4EAA58"/>
<path d="M26.1362 20.5143C26.4978 20.5143 26.7463 20.2997 26.8815 19.8704C26.9538 19.6377 26.99 19.3343 26.99 18.9601C26.99 18.446 26.9129 18.0584 26.7588 17.7974C26.6063 17.5364 26.3988 17.4059 26.1362 17.4059C25.7714 17.4059 25.5215 17.6237 25.3862 18.0592C25.3155 18.2903 25.2801 18.5906 25.2801 18.9601C25.2801 19.3359 25.3163 19.6393 25.3886 19.8704C25.5222 20.2997 25.7714 20.5143 26.1362 20.5143ZM26.1362 17.2432C26.6236 17.2432 27.0285 17.4004 27.3508 17.7148C27.6825 18.0372 27.8484 18.4522 27.8484 18.9601C27.8484 19.4679 27.6825 19.883 27.3508 20.2053C27.0269 20.5198 26.622 20.677 26.1362 20.677C25.6205 20.677 25.1999 20.5048 24.8745 20.1605C24.571 19.8366 24.4193 19.4451 24.4193 18.986C24.4193 18.4798 24.5781 18.0639 24.8957 17.7384C25.2164 17.4083 25.6299 17.2432 26.1362 17.2432Z" fill="#4EAA58"/>
<path d="M28.1373 20.4577C28.3212 20.4561 28.4407 20.4239 28.4958 20.361C28.5508 20.2965 28.5783 20.2006 28.5783 20.0733V17.7809C28.5783 17.6488 28.5469 17.5623 28.484 17.5215C28.4211 17.479 28.3094 17.4515 28.1491 17.4389V17.3163H29.366L30.3164 19.552H30.3565L31.3023 17.3163H32.5192V17.4389C32.3557 17.4515 32.2441 17.4821 32.1843 17.5309C32.1246 17.5781 32.0947 17.6952 32.0947 17.8823V20.0167C32.0947 20.1943 32.1246 20.3107 32.1843 20.3657C32.2441 20.4207 32.3557 20.4514 32.5192 20.4577V20.5803H30.9155V20.4577C31.0586 20.453 31.1663 20.4294 31.2386 20.3869C31.3109 20.3429 31.3471 20.2478 31.3471 20.1016V17.7408H31.3117L30.1278 20.5803H29.9981L28.8023 17.7974H28.7811V19.9836C28.7811 20.144 28.811 20.2611 28.8707 20.335C28.9305 20.4089 29.0626 20.4498 29.267 20.4577V20.5803H28.1373V20.4577Z" fill="#4EAA58"/>
<path d="M34.5792 19.4412L34.117 18.3233H34.0769L33.6406 19.4412H34.5792ZM32.768 20.4577C32.8843 20.4498 32.9779 20.3971 33.0486 20.2997C33.0942 20.2383 33.1595 20.1031 33.2444 19.894L34.3174 17.2502H34.4519L35.5297 19.7879C35.6507 20.0725 35.7411 20.2564 35.8009 20.3398C35.8606 20.4215 35.9455 20.4608 36.0556 20.4577V20.5803H34.492V20.4577C34.6492 20.4514 34.7522 20.438 34.8009 20.4176C34.8512 20.3971 34.8764 20.3453 34.8764 20.2619C34.8764 20.2242 34.8638 20.1668 34.8386 20.0898C34.8229 20.0442 34.8017 19.9891 34.775 19.9247L34.6523 19.6322H33.5675C33.4967 19.824 33.4511 19.949 33.4307 20.0072C33.3882 20.1314 33.367 20.2218 33.367 20.2784C33.367 20.3476 33.4134 20.3979 33.5061 20.4294C33.5612 20.4467 33.6437 20.4561 33.7538 20.4577V20.5803H32.768V20.4577Z" fill="#4EAA58"/>
<path d="M36.6039 20.2407C36.6039 20.1275 36.6432 20.0316 36.7218 19.953C36.802 19.8728 36.8987 19.8327 37.0119 19.8327C37.1251 19.8327 37.221 19.8728 37.2996 19.953C37.3798 20.0316 37.4199 20.1275 37.4199 20.2407C37.4199 20.3539 37.3798 20.4506 37.2996 20.5308C37.221 20.6094 37.1251 20.6487 37.0119 20.6487C36.8987 20.6487 36.802 20.6094 36.7218 20.5308C36.6432 20.4506 36.6039 20.3539 36.6039 20.2407Z" fill="#4EAA58"/>
<path d="M37.5531 20.4577C37.7166 20.4498 37.8282 20.4192 37.888 20.3657C37.9477 20.3122 37.9776 20.1959 37.9776 20.0167V17.8823C37.9776 17.6952 37.9422 17.5733 37.8715 17.5167C37.8243 17.479 37.7182 17.4531 37.5531 17.4389V17.3163H39.1073C39.4296 17.3163 39.6906 17.3501 39.8903 17.4177C40.277 17.5545 40.4704 17.8005 40.4704 18.1559C40.4704 18.4184 40.3737 18.6252 40.1803 18.7761C40.0326 18.8893 39.8761 18.9617 39.711 18.9931L40.6827 20.3681C40.7094 20.4058 40.7377 20.4309 40.7676 20.4435C40.7975 20.4545 40.8344 20.4616 40.8784 20.4647V20.5803H39.8903L38.8879 19.0709H38.7606V20.0167C38.7606 20.1865 38.7889 20.3012 38.8455 20.361C38.9021 20.4192 39.0153 20.4514 39.1851 20.4577V20.5803H37.5531V20.4577ZM38.7606 18.9153C39.0766 18.9106 39.3022 18.8665 39.4374 18.7832C39.5742 18.6983 39.6426 18.5033 39.6426 18.1983C39.6426 18.0112 39.6167 17.8634 39.5648 17.7549C39.4752 17.571 39.3117 17.479 39.0743 17.479C38.9453 17.479 38.8604 17.4955 38.8195 17.5285C38.7802 17.56 38.7606 17.6126 38.7606 17.6865V18.9153Z" fill="#4EAA58"/>
<path d="M42.7238 17.3163V17.4389C42.5367 17.4452 42.4117 17.4743 42.3489 17.5262C42.286 17.5781 42.2545 17.6968 42.2545 17.8823V19.4978C42.2545 19.7431 42.2836 19.9325 42.3418 20.0662C42.4471 20.3146 42.6492 20.4388 42.9479 20.4388C43.3189 20.4388 43.5697 20.3012 43.7002 20.0261C43.7725 19.8751 43.8087 19.6637 43.8087 19.3917V17.9153C43.8087 17.7424 43.7765 17.6237 43.712 17.5592C43.6491 17.4932 43.5249 17.4531 43.3394 17.4389V17.3163H44.4007V17.4389C44.2466 17.4688 44.1444 17.5057 44.0941 17.5498C44.0453 17.5922 44.021 17.6913 44.021 17.8469V19.3917C44.021 19.802 43.9219 20.1188 43.7238 20.3421C43.5257 20.5654 43.2144 20.677 42.7899 20.677C42.2349 20.677 41.8552 20.5111 41.6508 20.1794C41.5423 20.0033 41.488 19.7761 41.488 19.4978V17.8823C41.488 17.6999 41.4637 17.5851 41.4149 17.538C41.3678 17.4908 41.2601 17.4578 41.0918 17.4389V17.3163H42.7238Z" fill="#4EAA58"/>
<path d="M22.7669 6.35547L10.9879 16.7974H21.0478L27.7968 10.7819L32.7631 6.35547H22.7669Z" fill="#D03732"/>
<path d="M32.7631 6.35547L27.7968 10.7819L34.5459 16.7974H44.4148L32.7631 6.35547Z" fill="#A02E2A"/>
</svg>
