<svg width="55" height="27" viewBox="0 0 55 27" fill="none" xmlns="http://www.w3.org/2000/svg">
<rect x="0.76296" y="0.299093" width="53.6774" height="26.434" rx="2.80679" fill="white"/>
<rect x="0.76296" y="0.299093" width="53.6774" height="26.434" rx="2.80679" stroke="#D3D3D3" stroke-width="0.295452"/>
<path d="M25.299 15.81C25.1389 15.2918 24.9022 14.8433 24.5882 14.4657C24.275 14.0878 23.9455 13.8494 23.6019 13.7507C24.7956 13.5067 25.3909 12.823 25.3909 11.7017C25.3909 10.2304 24.2608 9.60877 22.0747 9.60877C21.7616 9.60877 21.3376 9.63152 20.7866 9.66195C20.1593 9.69238 19.6204 9.64363 19.1155 9.64363C18.9627 9.81883 18.8898 10.0017 18.8898 10.3063C19.1495 10.3063 19.5672 10.2159 19.6893 10.3075C19.8116 10.3991 19.8157 10.7114 19.8157 10.917L19.9117 16.3575C19.9117 16.5631 19.6718 16.8875 19.504 16.8713C19.3545 16.8571 19.156 16.9549 18.9007 16.8494C18.9007 17.1162 18.9879 17.3567 19.1645 17.57H22.0281C22.1959 17.3644 22.1043 17.2172 22.1043 16.9431C21.8676 16.9431 21.6986 16.9909 21.5536 16.8952C21.4085 16.8007 21.5045 16.4638 21.5045 16.2659V14.1741H22.2615C22.4686 14.2423 22.6367 14.4252 22.7667 14.7236C22.8961 15.0209 23.0184 15.3952 23.1331 15.8446C23.2397 16.2485 23.3564 16.5752 23.4832 16.8234C23.6096 17.0716 23.8037 17.2719 24.0679 17.4241C24.3317 17.5765 24.6927 17.6527 25.151 17.6527C25.6397 17.6527 25.9723 17.5307 26.1478 17.287V16.7144C25.9339 16.684 25.7596 16.598 25.6264 16.4573C25.4922 16.3149 25.3832 16.0996 25.2993 15.81H25.299ZM23.087 12.9548C22.8276 13.2411 22.4686 13.3835 22.0094 13.3835C21.8109 13.3835 21.6431 13.3761 21.5054 13.3607V10.4097C21.62 10.3793 21.8077 10.3642 22.0674 10.3642C22.556 10.3642 22.9135 10.4839 23.1396 10.7244C23.3653 10.9649 23.4775 11.3295 23.4775 11.8173C23.4767 12.2897 23.3467 12.6697 23.087 12.9548V12.9548ZM39.8045 14.1457C39.5667 13.806 39.2866 13.5338 38.9613 13.327C38.6363 13.1214 38.2327 12.9004 37.7517 12.6631C37.4385 12.5107 37.1877 12.3745 37.0001 12.2569C36.8195 12.1446 36.6619 11.9991 36.5353 11.8282C36.4133 11.6604 36.3522 11.4624 36.3522 11.2326C36.3522 10.9507 36.4287 10.7232 36.5811 10.5513C36.7339 10.3793 36.9632 10.2942 37.2687 10.2942C38.0714 10.2942 38.61 10.8517 38.8848 11.9653H39.8373V11.7933C39.8373 11.2512 39.8178 10.7734 39.7794 10.3574C39.7413 9.94174 39.653 9.61645 39.5156 9.37891L38.5406 9.67613C38.3648 9.57715 38.1302 9.503 37.8356 9.45306C37.5411 9.40402 37.2684 9.3792 37.0166 9.3792C36.5345 9.3792 36.0993 9.46725 35.7087 9.64215C35.3193 9.81765 35.0114 10.0712 34.786 10.4032C34.5599 10.7353 34.4477 11.1262 34.4477 11.5756C34.4477 12.1863 34.6309 12.7042 34.9972 13.132C35.3639 13.5598 35.9072 13.9487 36.626 14.2991C37.1617 14.5582 37.5715 14.8007 37.8587 15.025C38.1453 15.2504 38.2883 15.527 38.2883 15.8546C38.2883 16.0756 38.212 16.278 38.0593 16.4609C37.9065 16.6438 37.6699 16.7351 37.3481 16.7351C36.8583 16.7351 36.434 16.5501 36.075 16.1799C35.7152 15.81 35.4753 15.3048 35.3529 14.6637H34.2066C34.2066 15.1373 34.2601 15.6803 34.367 16.2945C34.474 16.9082 34.6004 17.3599 34.7452 17.6507L35.6289 17.2619C36.2399 17.521 36.855 17.6507 37.4746 17.6507C38.0179 17.6507 38.4924 17.5473 38.9016 17.3413C39.3105 17.1357 39.6213 16.8592 39.8361 16.512C40.05 16.1648 40.157 15.7784 40.157 15.3506C40.1599 14.8879 40.0412 14.4852 39.8045 14.1457V14.1457ZM30.9986 9.51718C30.8305 9.69238 30.7466 9.93288 30.7466 10.2381C31.0367 10.2381 31.2453 10.2812 31.3717 10.3696C31.497 10.4576 31.5602 10.6047 31.5602 10.8104V14.9183C31.5602 15.4058 31.4512 15.8011 31.2332 16.1028C31.016 16.4042 30.6659 16.5545 30.1849 16.5545C29.7039 16.5545 29.3458 16.3891 29.1124 16.057C28.879 15.7249 28.7626 15.2841 28.7626 14.7354V10.8104C28.7626 10.6047 28.8158 10.4576 28.9227 10.3696C29.0297 10.2824 29.2129 10.2378 29.4737 10.2378C29.4737 9.94824 29.3863 9.70774 29.2096 9.51718H26.3431C26.1673 9.70774 26.079 9.94854 26.079 10.2381C26.3387 10.2381 26.5222 10.2812 26.6288 10.3696C26.7358 10.4576 26.7893 10.6047 26.7893 10.8104V14.495C26.7893 15.5172 27.0717 16.2987 27.6378 16.8408C28.2039 17.3827 28.9827 17.6527 29.9766 17.6527C30.9625 17.6527 31.7056 17.3721 32.2061 16.8113C32.7069 16.2508 32.9565 15.4398 32.9565 14.3797V10.8092C32.9565 10.6036 33.0198 10.4567 33.1453 10.3684C33.2718 10.2812 33.4792 10.2366 33.7702 10.2366C33.7702 9.94706 33.6863 9.70656 33.5185 9.516H30.9983V9.51718H30.9986Z" fill="#00A4EA"/>
<path d="M15.8954 15.8107C16.0558 15.2916 16.2925 14.8443 16.6066 14.4664C16.9197 14.0888 17.2492 13.8504 17.5928 13.7514C16.3995 13.5076 15.8038 12.8237 15.8038 11.7027C15.8038 10.2314 16.897 9.60974 19.0827 9.60974C19.3959 9.60974 19.8291 9.60531 20.3798 9.60974C21.0147 9.61506 21.5403 9.5867 22.0946 9.60974C22.2473 9.78495 22.3171 10.0712 22.3171 10.3759C21.8033 10.3366 21.5055 10.4107 21.5055 10.4107L21.5196 16.281C21.5436 16.479 21.6083 16.6238 21.727 16.7154C21.8458 16.807 22.0343 16.8525 22.2943 16.8525C22.2943 17.1204 22.2069 17.3597 22.0302 17.5734H19.1516C18.9835 17.3674 18.8996 17.1269 18.8996 16.8525C19.1362 16.8525 19.3271 16.8058 19.4733 16.71C19.6184 16.6152 19.6905 16.4684 19.6905 16.2701V14.1736H18.9333C18.7261 14.2421 18.558 14.425 18.4283 14.7222C18.2983 15.0207 18.1763 15.3938 18.062 15.8447C17.955 16.2485 17.8383 16.575 17.7116 16.8232C17.5851 17.0714 17.391 17.2717 17.1272 17.4239C16.863 17.5763 16.502 17.6525 16.0437 17.6525C15.5551 17.6525 15.2224 17.5305 15.0469 17.2868V16.7142C15.2608 16.6838 15.4351 16.5978 15.5683 16.4571C15.7025 16.3159 15.8115 16.1002 15.8954 15.8107ZM19.1865 13.3844C19.385 13.3844 19.5528 13.3771 19.6905 13.3617V10.4095C19.5759 10.3791 19.3882 10.364 19.1285 10.364C18.6399 10.364 18.2821 10.4837 18.0563 10.7245C17.8306 10.9647 17.7184 11.3296 17.7184 11.8171C17.7184 12.2907 17.8481 12.6694 18.1078 12.9557C18.3672 13.242 18.7273 13.3844 19.1865 13.3844V13.3844Z" fill="#003861"/>
</svg>
