<svg width="54" height="27" viewBox="0 0 54 27" fill="none" xmlns="http://www.w3.org/2000/svg">
<rect x="0.734073" y="0.496768" width="53.1166" height="26.1578" rx="2.77747" fill="white"/>
<rect x="0.734073" y="0.496768" width="53.1166" height="26.1578" rx="2.77747" stroke="#D3D3D3" stroke-width="0.292365"/>
<path fill-rule="evenodd" clip-rule="evenodd" d="M32.3055 10.6523L30.2584 16.4996H29.4241L31.4711 10.6523H32.3057H32.3055ZM26.6762 13.5178C26.6762 13.064 26.9776 12.5884 27.5047 12.5884C28.032 12.5884 28.3209 13.002 28.3209 13.5178C28.3209 14.0335 28.0385 14.4469 27.5047 14.4469C26.9709 14.4469 26.6762 13.9716 26.6762 13.5178V13.5178ZM26.6879 12.3273V11.9995H25.9086V16.4974H26.7163V14.7493C26.8079 14.8515 27.1295 15.1202 27.6059 15.1202C28.3531 15.1202 29.0404 14.5346 29.0404 13.5178C29.0404 12.4541 28.2838 11.9274 27.6059 11.9274C27.0903 11.9274 26.7795 12.2223 26.6879 12.3273V12.3273ZM23.3246 13.1831C23.3471 12.9783 23.5462 12.5662 24.0371 12.5662C24.5836 12.5662 24.6721 13.015 24.6852 13.1831H23.3246ZM22.5201 13.5301C22.5201 14.4377 23.141 15.1202 24.0655 15.1202C24.99 15.1202 25.3843 14.4317 25.3843 14.4317L24.7953 14.0159C24.7953 14.0159 24.5942 14.4467 24.0711 14.4467C23.5323 14.4467 23.3155 13.9643 23.3155 13.7801H25.4505C25.4505 13.7801 25.4621 13.647 25.4621 13.6081V13.5055C25.4621 12.6062 24.9404 11.9274 24.0371 11.9274C23.1336 11.9274 22.5201 12.6222 22.5201 13.5301ZM21.406 11.9995L22.4732 15.0481H21.6065L20.9866 13.1037H20.9757L20.3578 15.0481H19.4939L20.5613 11.9995H21.406V11.9995ZM17.1768 13.5635C17.1768 13.1275 17.4069 12.7471 17.9376 12.7471C18.468 12.7471 18.658 13.2415 18.658 13.594C18.658 13.9467 18.463 14.4467 17.9314 14.4467C17.4 14.4467 17.1768 13.9992 17.1768 13.5632V13.5635ZM17.2573 12.2594C17.2787 12.1564 17.3628 11.34 18.4139 11.34H19.0632L19.3039 10.6523H18.4249C17.2662 10.6523 16.386 11.2118 16.386 13.1796C16.386 14.2597 16.8262 15.1202 17.9086 15.1202C18.938 15.1202 19.443 14.3322 19.443 13.5659C19.443 12.4559 18.661 11.9995 18.0032 11.9995C17.7361 12.0013 17.4758 12.092 17.2571 12.2594H17.2573ZM15.1906 11.9995H15.8808V15.0481H15.0729V13.2622L14.2899 14.3355H14.0709L14.0528 14.3113L13.2817 13.2769V15.0481H12.4734V11.9995H13.1642L13.1819 12.0223L14.1852 13.2861L15.1906 11.9995V11.9995ZM11.0554 13.7773C11.0554 14.1942 10.8334 14.4814 10.4035 14.4814C9.98782 14.4814 9.95259 14.2252 9.95259 14.1276C9.95259 13.9021 10.1476 13.7518 10.6122 13.7074C10.7412 13.6952 10.8707 13.6891 11.0002 13.6892H11.0554V13.7771V13.7773ZM11.8118 13.4455C11.8118 13.3839 11.811 13.325 11.8086 13.2679C11.7691 12.3185 11.3859 11.9274 10.5586 11.9274C9.99849 11.9274 9.63418 12.1669 9.50596 12.2645L9.72415 12.8873C9.72415 12.8873 10.0647 12.5836 10.495 12.5836C11.1039 12.5836 11.0437 13.1108 11.0437 13.1108C10.8354 13.1127 9.17869 13.0224 9.17869 14.1518C9.17869 14.7781 9.67181 15.1202 10.2255 15.1202C10.718 15.1202 10.9829 14.8609 11.0703 14.76C11.0707 14.7739 11.0876 15.0479 11.0876 15.0479H11.8404C11.8404 15.0479 11.8118 14.7836 11.8118 14.3693V13.4455V13.4455ZM7.07877 12.7686V11.389H7.49139C7.78465 11.389 8.25785 11.5771 8.25785 12.0816C8.25785 12.5904 7.78465 12.7684 7.47992 12.7684H7.07877V12.7686ZM7.54895 10.6523C8.38546 10.6523 9.10079 11.1365 9.10079 12.0786C9.10079 13.0209 8.38546 13.4982 7.53164 13.4982H7.07877V15.0481H6.24207V10.6523H7.54895ZM33.9558 14.6998V14.4445C33.8723 14.4365 33.7903 14.4158 33.7121 14.3829C33.6452 14.3553 33.5806 14.3213 33.519 14.2814C33.4491 14.2363 33.3859 14.1797 33.3317 14.1137C33.2713 14.0397 33.2232 13.9549 33.1894 13.863C33.1517 13.7645 33.133 13.6476 33.133 13.5123C33.131 13.4118 33.141 13.3211 33.1626 13.24C33.1841 13.1589 33.2133 13.0873 33.2499 13.0246C33.2866 12.962 33.3284 12.9073 33.3753 12.86C33.4222 12.8128 33.4701 12.7739 33.519 12.7431C33.5698 12.7082 33.6197 12.6805 33.6684 12.66C33.7173 12.6396 33.7614 12.6236 33.8008 12.6124C33.8337 12.6026 33.8671 12.5949 33.9009 12.5893C33.928 12.5851 33.9464 12.582 33.9558 12.5801V12.3278H34.3447V12.5801C34.3541 12.5823 34.3725 12.5851 34.3996 12.5893C34.4268 12.5935 34.4602 12.6012 34.4997 12.6124C34.5391 12.6236 34.5832 12.6396 34.6321 12.66C34.681 12.6805 34.7307 12.7084 34.7814 12.7431C34.8304 12.7739 34.8781 12.8128 34.9252 12.86C34.9721 12.9073 35.0139 12.962 35.0506 13.0246C35.0872 13.0873 35.1164 13.1589 35.1379 13.24C35.1594 13.3211 35.1693 13.4118 35.1675 13.5123C35.1675 13.6476 35.1488 13.7645 35.1111 13.863C35.0773 13.9549 35.0291 14.0397 34.9688 14.1137C34.9146 14.1797 34.8514 14.2363 34.7814 14.2814C34.7199 14.3213 34.6553 14.3553 34.5884 14.3829C34.5102 14.4158 34.4282 14.4365 34.3447 14.4445V14.6998H33.9558ZM34.3447 14.0291C34.3634 14.0291 34.3964 14.0219 34.4433 14.0076C34.4902 13.9933 34.5381 13.9672 34.587 13.9291C34.6359 13.8911 34.679 13.839 34.7166 13.7722C34.7543 13.7057 34.773 13.6188 34.773 13.5123C34.773 13.4138 34.7547 13.3277 34.718 13.2538C34.6814 13.18 34.6367 13.1266 34.5842 13.0938C34.5402 13.0636 34.4934 13.0383 34.4447 13.0185C34.4045 13.0031 34.371 12.9954 34.3447 12.9954V14.0291V14.0291ZM33.9558 12.9954C33.9296 12.9954 33.8962 13.0031 33.8558 13.0185C33.8155 13.0339 33.7688 13.0589 33.7163 13.0938C33.6638 13.1268 33.6191 13.18 33.5824 13.2538C33.5458 13.3277 33.5275 13.4138 33.5275 13.5123C33.5275 13.6188 33.5462 13.7057 33.5839 13.7722C33.6215 13.8388 33.6646 13.8911 33.7135 13.9291C33.7624 13.9672 33.8101 13.9933 33.8572 14.0076C33.9041 14.0219 33.9371 14.0291 33.9558 14.0291V12.9954V12.9954ZM35.6928 14.6075V12.417H36.0817V13.4877C36.0817 13.5676 36.0761 13.6661 36.0648 13.783H36.0817C36.1024 13.7419 36.1272 13.6969 36.1564 13.6476C36.1855 13.5984 36.2188 13.545 36.2564 13.4877L36.9693 12.417H37.2821V14.6075H36.8961V13.4907L36.9003 13.4154C36.9031 13.367 36.9063 13.2938 36.9101 13.1954H36.8932C36.8651 13.2488 36.8365 13.2995 36.8073 13.3477C36.7781 13.396 36.7485 13.4426 36.7185 13.4877L35.9662 14.6075H35.6928ZM38.9881 13.2508V12.417H39.377V14.6075H38.9881V13.6661H38.2752V14.6075H37.8892V12.417H38.2752V13.2508H38.9881ZM40.6998 12.417H40.9421L41.8354 14.6075H41.4099L41.2239 14.143H40.4152L40.2348 14.6075H39.8093L40.6998 12.417V12.417ZM41.0605 13.7307L40.9083 13.3492C40.8938 13.3146 40.8811 13.2792 40.8703 13.2431C40.8582 13.2031 40.8445 13.1596 40.8294 13.1123H40.8125L40.7787 13.22L40.7533 13.2954C40.7467 13.3147 40.7391 13.3337 40.7308 13.3523L40.5786 13.7307H41.0605V13.7307ZM43.3667 13.2508V12.417H43.7556V14.6075H43.3667V13.6661H42.6538V14.6075H42.2677V12.417H42.6538V13.2508H43.3667V13.2508ZM45.7574 14.5122C45.5996 14.5983 45.4465 14.6414 45.2981 14.6414C45.0184 14.6414 44.7778 14.5315 44.5768 14.3122C44.3795 14.0946 44.2809 13.8281 44.2809 13.5123C44.2809 13.1965 44.3795 12.9288 44.5768 12.7093C44.7778 12.4897 45.0182 12.3801 45.2981 12.3801C45.4465 12.3801 45.5996 12.4231 45.7574 12.5093V13.0015C45.6015 12.8642 45.4485 12.7954 45.2981 12.7954C45.1178 12.7954 44.9684 12.8651 44.8501 13.0046C44.7336 13.1442 44.6754 13.3134 44.6754 13.5123C44.6754 13.7111 44.7338 13.8804 44.8501 14.0199C44.9684 14.1595 45.1178 14.2291 45.2981 14.2291C45.4429 14.2291 45.596 14.1625 45.7574 14.0291V14.5122V14.5122ZM46.9985 13.2508C47.1883 13.2508 47.3479 13.3123 47.4776 13.4354C47.6072 13.5584 47.672 13.7235 47.672 13.9307C47.672 14.1379 47.6072 14.303 47.4776 14.426C47.3461 14.5469 47.1863 14.6075 46.9985 14.6075H46.2912V12.417H46.6801V13.2508H46.9985V13.2508ZM46.9844 14.2107C47.069 14.2107 47.138 14.1856 47.1915 14.1353C47.2451 14.085 47.2719 14.0168 47.2719 13.9307C47.2719 13.8445 47.2451 13.7764 47.1915 13.7261C47.138 13.6758 47.069 13.6507 46.9844 13.6507H46.6801V14.2107H46.9844ZM48.3426 12.417V14.6075H47.9566V12.417H48.3426V12.417Z" fill="#315EFB"/>
</svg>
