<svg width="54" height="27" viewBox="0 0 54 27" fill="none" xmlns="http://www.w3.org/2000/svg">
<rect x="0.680362" y="0.496768" width="53.1166" height="26.1578" rx="2.77747" fill="white"/>
<rect x="0.680362" y="0.496768" width="53.1166" height="26.1578" rx="2.77747" stroke="#D3D3D3" stroke-width="0.292365"/>
<path d="M5.45789 11.7838V14.1387H5.83906H6.22023V13.1372V12.1356H6.7103C7.01524 12.1356 7.27662 12.1627 7.39097 12.2114C7.587 12.2926 7.95183 12.7474 8.41468 13.4891C8.85031 14.1928 8.77952 14.1387 9.28049 14.1387C9.78145 14.1387 9.77601 14.1549 9.44929 13.6623C8.83942 12.7203 8.63794 12.4442 8.42013 12.2439L8.18054 12.0274L8.32756 11.9732C8.90476 11.7621 9.0899 11.6105 9.24237 11.1991C9.31316 11.0096 9.32949 10.8526 9.30771 10.5873C9.2696 10.1109 9.06812 9.78613 8.69784 9.59665C8.43102 9.4559 8.41468 9.4559 6.94445 9.43966L5.45789 9.42342V11.7838ZM8.08252 10.0785C8.52359 10.203 8.72507 10.7822 8.44191 11.1341C8.24588 11.3832 8.01718 11.4427 7.08059 11.4752L6.22023 11.5023V10.7606V10.0243H7.05336C7.50532 10.0243 7.97361 10.0514 8.08252 10.0785Z" fill="black"/>
<path d="M20.3778 9.80757V10.1865H20.7318H21.0857V9.80757V9.42862H20.7318H20.3778V9.80757Z" fill="black"/>
<path d="M29.7981 11.806V14.1934H30.3154H30.8327V13.2189V12.2445H31.0505C31.5351 12.2445 31.6822 12.3852 32.4826 13.5816L32.8747 14.1663L33.5172 14.1825C33.8657 14.1879 34.1543 14.1825 34.1543 14.1717C34.1543 14.1284 33.392 12.9482 33.2123 12.7046C33.1197 12.5855 32.9618 12.4123 32.8584 12.3202L32.6678 12.1578L32.9782 12.0063C33.3267 11.8384 33.4628 11.7085 33.6098 11.4324C33.9583 10.7557 33.6915 9.91118 33.0217 9.60261C32.7113 9.45644 32.7004 9.45644 31.2574 9.4402L29.7981 9.41854V11.806ZM32.1559 10.3443C32.3029 10.3659 32.4554 10.4255 32.499 10.4634C32.7059 10.6691 32.6787 11.1563 32.45 11.2808C32.3792 11.3241 32.0416 11.362 31.5787 11.3783L30.8327 11.4053V10.8477V10.2955L31.3663 10.301C31.6549 10.301 32.0143 10.3226 32.1559 10.3443Z" fill="black"/>
<path d="M41.8322 11.8114V14.1934H42.3495H42.8668V11.8114V9.42937H42.3495H41.8322V11.8114Z" fill="black"/>
<path d="M44.4731 9.63962C44.386 9.68835 44.1791 9.80745 44.0266 9.89948L43.738 10.0781V10.4029V10.7278H43.5202H43.3024V11.1338V11.5398H43.5202H43.738V12.6063C43.738 13.846 43.7761 13.9814 44.1464 14.16C44.4023 14.2791 44.9142 14.3008 45.2246 14.1979C45.4424 14.1221 45.4696 14.0409 45.3934 13.5807L45.3552 13.3804L45.0993 13.4129C44.7345 13.4616 44.7181 13.4075 44.7181 12.3843V11.5398H45.0449H45.3716V11.1338V10.7278H45.0449H44.7181V10.1323C44.7181 9.80203 44.7018 9.54218 44.68 9.54218C44.6528 9.54759 44.5657 9.5909 44.4731 9.63962Z" fill="black"/>
<path d="M14.2792 10.7497C14.1104 10.82 13.9198 10.9608 13.8436 11.0582C13.7292 11.2044 13.7074 11.291 13.7074 11.6267C13.7074 11.9352 13.7292 12.0489 13.8163 12.168C13.9634 12.3629 14.3173 12.5362 14.8509 12.6769C15.7494 12.9151 15.8801 13.0126 15.7494 13.3536C15.6459 13.6243 15.0524 13.7434 14.6386 13.5702C14.4534 13.489 14.2792 13.2616 14.2792 13.0883C14.2792 13.045 14.2628 12.9963 14.2411 12.9855C14.1648 12.9368 13.5713 13.0667 13.5713 13.1262C13.5713 13.3157 13.7837 13.738 13.9634 13.895C14.4371 14.3227 15.5697 14.3497 16.1034 13.9491C16.3048 13.7921 16.5118 13.3699 16.5118 13.1046C16.5118 13.0071 16.4573 12.8177 16.392 12.6877C16.2939 12.4766 16.2286 12.4225 15.9182 12.2817C15.7222 12.1951 15.3301 12.0652 15.047 11.9948C14.4861 11.8595 14.3173 11.7512 14.3445 11.5509C14.3717 11.3289 14.6059 11.199 14.9816 11.1936C15.3682 11.1882 15.5806 11.3127 15.6677 11.5888C15.7167 11.7566 15.7222 11.7566 15.9672 11.7295C16.3266 11.6808 16.3484 11.6646 16.3484 11.513C16.3484 11.2369 16.1469 10.9554 15.842 10.7984C15.6078 10.6793 15.4717 10.6522 15.0687 10.636C14.644 10.6197 14.5406 10.636 14.2792 10.7497Z" fill="black"/>
<path d="M17.6062 10.7448C17.2305 10.8964 17.0018 11.1724 16.9636 11.5081C16.9255 11.8221 16.9691 11.9791 17.1433 12.1902C17.3339 12.4122 17.5027 12.4934 18.1725 12.6774C18.8804 12.8777 19.0111 12.9373 19.0492 13.0889C19.1309 13.4029 18.8423 13.6519 18.4012 13.6519C17.9547 13.6519 17.6715 13.4787 17.5626 13.1376C17.5354 13.0456 17.4918 12.9806 17.4701 12.9806C17.4537 12.986 17.3121 13.0077 17.1597 13.0239L16.882 13.0618L16.9146 13.2892C16.9636 13.5761 17.1597 13.8738 17.3938 14.02C17.6879 14.1987 18.2487 14.2799 18.7007 14.2041C19.1744 14.1229 19.3432 14.0363 19.5665 13.7547C19.8769 13.3596 19.8496 12.7316 19.5066 12.4447C19.3759 12.331 18.6462 12.0711 18.0527 11.9195C17.824 11.86 17.6007 11.6867 17.6007 11.5676C17.6007 11.4215 17.8567 11.232 18.0963 11.1941C18.4992 11.1346 18.9621 11.3511 18.9621 11.6001C18.9621 11.7355 19.0274 11.7625 19.3051 11.7246C19.6808 11.6705 19.6972 11.6488 19.5937 11.3403C19.4794 10.9992 19.3323 10.8639 18.9457 10.7285C18.5264 10.5824 17.9928 10.5878 17.6062 10.7448Z" fill="black"/>
<path d="M22.5342 10.7445C22.1639 10.8906 21.8807 11.1721 21.7827 11.5024C21.7065 11.7622 21.7609 11.8109 22.1312 11.8109C22.3763 11.8109 22.398 11.8001 22.4852 11.6106C22.6376 11.3021 22.8173 11.2046 23.2203 11.1992C23.7703 11.1938 24.0262 11.3887 24.0262 11.8001C24.0262 11.9463 24.0207 11.9517 23.3891 12.0491C22.6431 12.1628 22.1476 12.3144 21.9679 12.4768C21.701 12.7204 21.603 13.0831 21.6901 13.4892C21.7882 13.9547 22.2619 14.2471 22.899 14.2471C23.1713 14.2471 23.6341 14.1063 23.8628 13.9547C24.0861 13.8086 24.1351 13.8194 24.1351 14.0143C24.1351 14.1334 24.1514 14.1388 24.5163 14.1388C24.7286 14.1388 24.8974 14.1226 24.8974 14.1063C24.8974 14.0901 24.8648 14.0251 24.8321 13.9601C24.7831 13.8789 24.7504 13.4404 24.7341 12.5688C24.7068 11.3562 24.7014 11.2858 24.5816 11.0963C24.3856 10.7878 24.0643 10.6633 23.4 10.6362C22.9317 10.6199 22.8119 10.6362 22.5342 10.7445ZM24.0044 12.9153C23.9064 13.5487 22.9807 13.9277 22.5233 13.5216C22.3218 13.343 22.3055 13.1589 22.4743 12.9586C22.6213 12.7854 22.7629 12.7367 23.5906 12.6013C24.0534 12.5255 24.0589 12.531 24.0044 12.9153Z" fill="black"/>
<path d="M26.5855 10.7335C26.4548 10.7931 26.2969 10.8797 26.2479 10.9284C26.1553 11.0096 26.1499 11.0042 26.1499 10.8472V10.674H25.8232H25.4965V12.4063V14.1387H25.8504H26.2043V13.0776C26.2043 11.8271 26.2479 11.5943 26.5202 11.3886C26.6781 11.2695 26.7707 11.2424 27.0266 11.2424C27.2989 11.2424 27.3696 11.264 27.484 11.3831C27.6909 11.5889 27.7236 11.8216 27.729 13.0397V14.1387H28.0612H28.3934L28.3716 12.742C28.3498 11.2045 28.3389 11.1341 27.9904 10.8743C27.6092 10.5982 27.0211 10.5386 26.5855 10.7335Z" fill="black"/>
<path d="M35.652 10.652C35.1347 10.7765 34.6827 11.0959 34.4867 11.4857C34.1001 12.2328 34.258 13.3913 34.808 13.8894C35.2055 14.2467 36.0332 14.3766 36.6376 14.1763C36.9371 14.0734 37.291 13.754 37.4489 13.44C37.5415 13.2614 37.5415 13.2506 37.4435 13.1802C37.389 13.1423 37.2856 13.1098 37.2093 13.1098C37.1331 13.1098 36.9425 13.0936 36.7901 13.0773C36.5178 13.0448 36.5123 13.0448 36.4416 13.2127C36.3544 13.4238 36.2401 13.4888 35.9678 13.4888C35.6465 13.4888 35.456 13.3101 35.3307 12.9041L35.2926 12.785H36.4089H37.5306V12.3519C37.5306 11.7781 37.3945 11.4262 37.0569 11.1014C36.9099 10.9606 36.6975 10.8144 36.5777 10.7657C36.3381 10.6791 35.8262 10.6141 35.652 10.652ZM36.2619 11.5399C36.3871 11.6102 36.4525 11.7077 36.496 11.8701C36.5287 11.9892 36.545 12.1029 36.5341 12.1137C36.5232 12.1299 36.2401 12.1299 35.9079 12.1245L35.3089 12.1083L35.3852 11.8917C35.5322 11.4641 35.897 11.3179 36.2619 11.5399Z" fill="black"/>
<path d="M39.1641 10.6744C38.7775 10.7447 38.5379 10.8692 38.3309 11.1074C38.1512 11.3132 38.0423 11.6055 38.1022 11.7029C38.1186 11.73 38.2601 11.7625 38.4181 11.7841C38.5705 11.8004 38.7666 11.8275 38.8482 11.8437C38.9735 11.8708 39.0007 11.8491 39.0334 11.73C39.0824 11.5297 39.2566 11.4323 39.5616 11.4323C39.7685 11.4323 39.8502 11.4593 39.9536 11.5676C40.1279 11.7354 40.1333 11.9087 39.97 11.9466C39.8992 11.9628 39.6759 12.0115 39.4636 12.0548C39.2566 12.1036 38.9081 12.201 38.6903 12.2768C38.3636 12.3905 38.2765 12.45 38.1512 12.6395C38.0423 12.8019 37.9933 12.9535 37.977 13.1646C37.928 13.9442 38.6413 14.4368 39.5017 14.2203C39.6923 14.177 39.9101 14.0904 39.9918 14.0308C40.1769 13.8955 40.1823 13.8955 40.2205 14.0579C40.2531 14.1878 40.2695 14.1932 40.7487 14.1932H41.2442L41.2115 14.0416C41.1135 13.6573 41.0754 13.17 41.0754 12.3418C41.0754 11.3727 41.0373 11.1941 40.7813 10.9559C40.5254 10.7231 39.6868 10.5769 39.1641 10.6744ZM40.0898 12.8669C40.0898 13.3162 39.616 13.6518 39.2022 13.4949C39.0443 13.4353 38.968 13.2458 39.0225 13.0347C39.0552 12.9048 39.2403 12.8073 39.7086 12.6828C40.068 12.5908 40.0898 12.5962 40.0898 12.8669Z" fill="black"/>
<path d="M10.1406 12.0546C10.1406 13.565 10.157 13.6624 10.451 13.9385C10.6198 14.0955 11.0718 14.2471 11.3658 14.2471C11.6326 14.2471 12.0574 14.0955 12.2207 13.9385L12.3732 13.7923V13.9656V14.1388H12.6999H13.0266V12.4064V10.6741H12.6781H12.3296L12.3079 11.8488C12.2915 12.807 12.2697 13.0615 12.1989 13.1914C12.0792 13.4188 11.9485 13.5216 11.6816 13.5974C11.4856 13.657 11.4148 13.657 11.2133 13.5758C10.8213 13.4296 10.7941 13.3213 10.7941 11.8921V10.6741H10.4673H10.1406V12.0546Z" fill="black"/>
<path d="M20.3778 12.4063V14.1387H20.7318H21.0857V12.4063V10.674H20.7318H20.3778V12.4063Z" fill="black"/>
<path d="M45.4534 10.8201C45.4751 10.8742 45.5568 11.0745 45.6276 11.2694C45.6984 11.4643 45.84 11.827 45.938 12.0815C46.0414 12.3359 46.2157 12.7852 46.3246 13.083C46.439 13.3807 46.5805 13.7543 46.6404 13.9113C46.7439 14.1928 46.7439 14.1982 46.6459 14.3931C46.4934 14.68 46.3518 14.7504 45.9979 14.7233L45.6984 14.6962V15.0535C45.6984 15.5624 45.7147 15.5732 46.281 15.5732C46.6677 15.5732 46.8038 15.5516 46.978 15.4541C47.4246 15.2214 47.4572 15.1564 48.1379 13.3266C48.2414 13.0451 48.4156 12.5687 48.53 12.2709C48.6443 11.9732 48.7968 11.5563 48.8785 11.3506C48.9547 11.1395 49.02 10.9121 49.02 10.8471C49.02 10.7335 48.9982 10.728 48.5354 10.728H48.0508L47.9636 10.9554C47.9146 11.0853 47.7458 11.5888 47.5825 12.0815L47.283 12.9747L47.2013 12.7744C47.1523 12.6607 47.1142 12.5362 47.1142 12.4929C47.1142 12.455 47.0325 12.1897 46.929 11.9136C46.831 11.6321 46.7003 11.2586 46.6404 11.0799L46.5315 10.7551L45.9707 10.7389C45.4534 10.7226 45.4152 10.7335 45.4534 10.8201Z" fill="black"/>
<path d="M5.83192 15.5107V17.6984H5.51648V15.1579H5.80478L5.83192 15.5107ZM7.06824 16.0602V16.0958C7.06824 16.2292 7.05241 16.353 7.02075 16.4672C6.9891 16.5802 6.94274 16.6786 6.88169 16.7623C6.82177 16.8459 6.74771 16.9109 6.65952 16.9573C6.57134 17.0037 6.47015 17.0268 6.35596 17.0268C6.2395 17.0268 6.13662 17.0076 6.0473 16.9692C5.95798 16.9307 5.88223 16.8748 5.82005 16.8013C5.75786 16.7278 5.70812 16.6396 5.67081 16.5367C5.63463 16.4338 5.60975 16.3179 5.59619 16.1891V15.9991C5.60975 15.8634 5.63519 15.7419 5.6725 15.6345C5.70981 15.5271 5.75899 15.4355 5.82005 15.3598C5.88223 15.2829 5.95742 15.2246 6.0456 15.1851C6.13379 15.1444 6.23555 15.124 6.35087 15.124C6.46619 15.124 6.56851 15.1466 6.65783 15.1919C6.74715 15.236 6.82233 15.2993 6.88338 15.3818C6.94444 15.4643 6.99023 15.5633 7.02075 15.6786C7.05241 15.7928 7.06824 15.92 7.06824 16.0602ZM6.7528 16.0958V16.0602C6.7528 15.9686 6.74319 15.8827 6.72397 15.8024C6.70475 15.721 6.67479 15.6498 6.63408 15.5887C6.59451 15.5265 6.54364 15.4779 6.48145 15.4429C6.41927 15.4067 6.34521 15.3886 6.25929 15.3886C6.18015 15.3886 6.11118 15.4022 6.05239 15.4293C5.99473 15.4564 5.94555 15.4932 5.90484 15.5395C5.86414 15.5847 5.83079 15.6368 5.80478 15.6955C5.77991 15.7532 5.76126 15.8131 5.74882 15.8753V16.3146C5.77143 16.3937 5.80309 16.4683 5.84379 16.5384C5.88449 16.6074 5.93876 16.6633 6.0066 16.7063C6.07443 16.7481 6.1598 16.7691 6.26268 16.7691C6.34748 16.7691 6.4204 16.7515 6.48145 16.7165C6.54364 16.6803 6.59451 16.6311 6.63408 16.5689C6.67479 16.5068 6.70475 16.4355 6.72397 16.3553C6.74319 16.2739 6.7528 16.1874 6.7528 16.0958Z" fill="black"/>
<path d="M8.03314 16.803L8.54361 15.1579H8.8794L8.14338 17.2761C8.12642 17.3214 8.10381 17.37 8.07554 17.422C8.04841 17.4751 8.01336 17.5254 7.97039 17.5729C7.92743 17.6204 7.87542 17.6588 7.81437 17.6882C7.75445 17.7188 7.68266 17.734 7.59899 17.734C7.57412 17.734 7.54246 17.7306 7.50402 17.7239C7.46558 17.7171 7.43844 17.7114 7.42262 17.7069L7.42092 17.4525C7.42996 17.4536 7.4441 17.4548 7.46332 17.4559C7.48367 17.4582 7.4978 17.4593 7.50572 17.4593C7.57694 17.4593 7.63743 17.4497 7.68718 17.4305C7.73692 17.4124 7.77876 17.3813 7.81268 17.3372C7.84772 17.2942 7.87769 17.2349 7.90256 17.1591L8.03314 16.803ZM7.65835 15.1579L8.1349 16.5825L8.2163 16.9132L7.99075 17.0285L7.31577 15.1579H7.65835Z" fill="black"/>
<path d="M9.94267 16.7691C10.0173 16.7691 10.0863 16.7538 10.1496 16.7233C10.2129 16.6927 10.2649 16.6509 10.3056 16.5978C10.3463 16.5435 10.3695 16.4819 10.3751 16.4129H10.6736C10.668 16.5215 10.6312 16.6226 10.5634 16.7165C10.4967 16.8092 10.409 16.8844 10.3005 16.942C10.192 16.9986 10.0727 17.0268 9.94267 17.0268C9.80474 17.0268 9.68433 17.0025 9.58144 16.9539C9.47969 16.9053 9.39489 16.8386 9.32706 16.7538C9.26035 16.669 9.21004 16.5718 9.17612 16.4621C9.14333 16.3513 9.12694 16.2343 9.12694 16.111V16.0398C9.12694 15.9166 9.14333 15.8001 9.17612 15.6905C9.21004 15.5797 9.26035 15.4819 9.32706 15.3971C9.39489 15.3123 9.47969 15.2456 9.58144 15.1969C9.68433 15.1483 9.80474 15.124 9.94267 15.124C10.0863 15.124 10.2118 15.1534 10.3192 15.2122C10.4266 15.2699 10.5108 15.349 10.5719 15.4496C10.634 15.5491 10.668 15.6622 10.6736 15.7888H10.3751C10.3695 15.7131 10.348 15.6447 10.3107 15.5836C10.2745 15.5226 10.2248 15.4739 10.1614 15.4378C10.0993 15.4005 10.0263 15.3818 9.94267 15.3818C9.84657 15.3818 9.76573 15.401 9.70016 15.4395C9.63571 15.4768 9.58427 15.5277 9.54583 15.5921C9.50852 15.6554 9.48138 15.7261 9.46442 15.8041C9.4486 15.881 9.44068 15.9595 9.44068 16.0398V16.111C9.44068 16.1913 9.4486 16.2705 9.46442 16.3485C9.48025 16.4265 9.50682 16.4971 9.54413 16.5605C9.58257 16.6238 9.63402 16.6747 9.69846 16.7131C9.76404 16.7504 9.84544 16.7691 9.94267 16.7691Z" fill="black"/>
<path d="M11.8302 16.7691C11.9048 16.7691 11.9737 16.7538 12.0371 16.7233C12.1004 16.6927 12.1524 16.6509 12.1931 16.5978C12.2338 16.5435 12.257 16.4819 12.2626 16.4129H12.5611C12.5554 16.5215 12.5187 16.6226 12.4509 16.7165C12.3842 16.8092 12.2965 16.8844 12.188 16.942C12.0795 16.9986 11.9602 17.0268 11.8302 17.0268C11.6922 17.0268 11.5718 17.0025 11.4689 16.9539C11.3672 16.9053 11.2824 16.8386 11.2145 16.7538C11.1478 16.669 11.0975 16.5718 11.0636 16.4621C11.0308 16.3513 11.0144 16.2343 11.0144 16.111V16.0398C11.0144 15.9166 11.0308 15.8001 11.0636 15.6905C11.0975 15.5797 11.1478 15.4819 11.2145 15.3971C11.2824 15.3123 11.3672 15.2456 11.4689 15.1969C11.5718 15.1483 11.6922 15.124 11.8302 15.124C11.9737 15.124 12.0992 15.1534 12.2066 15.2122C12.3141 15.2699 12.3983 15.349 12.4593 15.4496C12.5215 15.5491 12.5554 15.6622 12.5611 15.7888H12.2626C12.257 15.7131 12.2355 15.6447 12.1982 15.5836C12.162 15.5226 12.1122 15.4739 12.0489 15.4378C11.9867 15.4005 11.9138 15.3818 11.8302 15.3818C11.7341 15.3818 11.6532 15.401 11.5876 15.4395C11.5232 15.4768 11.4718 15.5277 11.4333 15.5921C11.396 15.6554 11.3689 15.7261 11.3519 15.8041C11.3361 15.881 11.3282 15.9595 11.3282 16.0398V16.111C11.3282 16.1913 11.3361 16.2705 11.3519 16.3485C11.3677 16.4265 11.3943 16.4971 11.4316 16.5605C11.4701 16.6238 11.5215 16.6747 11.5859 16.7131C11.6515 16.7504 11.7329 16.7691 11.8302 16.7691Z" fill="black"/>
<path d="M13.3242 15.1579V16.9929H13.0104V15.1579H13.3242ZM14.5283 15.1579L13.6583 16.2094H13.219L13.1716 15.9347H13.5311L14.1467 15.1579H14.5283ZM14.1908 16.9929L13.5158 16.1619L13.7176 15.9347L14.5893 16.9929H14.1908Z" fill="black"/>
<path d="M16.0138 16.6792V15.7346C16.0138 15.6622 15.9991 15.5994 15.9697 15.5463C15.9415 15.492 15.8985 15.4502 15.8408 15.4208C15.7832 15.3914 15.712 15.3767 15.6272 15.3767C15.548 15.3767 15.4785 15.3903 15.4186 15.4174C15.3598 15.4446 15.3134 15.4802 15.2795 15.5243C15.2467 15.5684 15.2303 15.6158 15.2303 15.6667H14.9166C14.9166 15.6011 14.9335 15.5361 14.9675 15.4717C15.0014 15.4072 15.05 15.349 15.1133 15.297C15.1777 15.2439 15.2546 15.202 15.3439 15.1715C15.4344 15.1399 15.535 15.124 15.6458 15.124C15.7792 15.124 15.8968 15.1466 15.9986 15.1919C16.1015 15.2371 16.1817 15.3055 16.2394 15.3971C16.2982 15.4875 16.3276 15.6011 16.3276 15.7379V16.5927C16.3276 16.6537 16.3327 16.7187 16.3428 16.7877C16.3541 16.8567 16.3705 16.916 16.392 16.9658V16.9929H16.0647C16.0489 16.9567 16.0364 16.9087 16.0274 16.8488C16.0184 16.7877 16.0138 16.7312 16.0138 16.6792ZM16.0681 15.8804L16.0715 16.1009H15.7544C15.665 16.1009 15.5853 16.1082 15.5152 16.1229C15.4451 16.1365 15.3863 16.1574 15.3389 16.1857C15.2914 16.2139 15.2552 16.2495 15.2303 16.2925C15.2054 16.3343 15.193 16.3835 15.193 16.4401C15.193 16.4977 15.206 16.5503 15.232 16.5978C15.258 16.6453 15.297 16.6831 15.349 16.7114C15.4022 16.7385 15.4672 16.7521 15.5441 16.7521C15.6402 16.7521 15.725 16.7317 15.7984 16.691C15.8719 16.6503 15.9302 16.6006 15.9731 16.5418C16.0172 16.483 16.041 16.4259 16.0444 16.3705L16.1783 16.5215C16.1704 16.5689 16.1489 16.6215 16.1139 16.6792C16.0788 16.7368 16.0319 16.7922 15.9731 16.8454C15.9155 16.8974 15.8465 16.9409 15.7662 16.976C15.6871 17.0099 15.5978 17.0268 15.4983 17.0268C15.3739 17.0268 15.2648 17.0025 15.171 16.9539C15.0783 16.9053 15.0059 16.8403 14.9539 16.7589C14.903 16.6763 14.8776 16.5842 14.8776 16.4824C14.8776 16.3841 14.8968 16.2976 14.9352 16.223C14.9737 16.1472 15.0291 16.0845 15.1014 16.0347C15.1738 15.9839 15.2608 15.9454 15.3626 15.9194C15.4644 15.8934 15.578 15.8804 15.7035 15.8804H16.0681Z" fill="black"/>
<path d="M17.262 16.1178H17.6011L17.0703 16.9929H16.7311L17.262 16.1178ZM17.5248 15.1579H18.2914V16.9929H17.9776V15.4123H17.5248C17.4355 15.4123 17.3626 15.4276 17.306 15.4581C17.2495 15.4875 17.2082 15.526 17.1822 15.5734C17.1562 15.6209 17.1432 15.6701 17.1432 15.721C17.1432 15.7707 17.1551 15.8188 17.1789 15.8651C17.2026 15.9104 17.2399 15.9477 17.2908 15.9771C17.3417 16.0065 17.4072 16.0212 17.4875 16.0212H18.0624V16.2789H17.4875C17.3824 16.2789 17.2891 16.2648 17.2077 16.2365C17.1263 16.2083 17.0573 16.1693 17.0008 16.1195C16.9443 16.0686 16.9013 16.0093 16.8719 15.9415C16.8425 15.8725 16.8278 15.7979 16.8278 15.7176C16.8278 15.6373 16.8431 15.5633 16.8736 15.4954C16.9052 15.4276 16.9505 15.3682 17.0093 15.3174C17.0692 15.2665 17.1421 15.2275 17.228 15.2003C17.3151 15.1721 17.414 15.1579 17.5248 15.1579Z" fill="black"/>
<path d="M21.042 15.9533V16.2077H20.0719V15.9533H21.042ZM20.1381 15.1579V16.9929H19.8243V15.1579H20.1381ZM21.2964 15.1579V16.9929H20.9809V15.1579H21.2964Z" fill="black"/>
<path d="M22.6327 17.0268C22.5049 17.0268 22.3891 17.0054 22.285 16.9624C22.1822 16.9183 22.0934 16.8567 22.0188 16.7775C21.9453 16.6984 21.8888 16.6046 21.8492 16.496C21.8096 16.3875 21.7898 16.2688 21.7898 16.1399V16.0686C21.7898 15.9194 21.8119 15.7866 21.856 15.6701C21.9001 15.5525 21.96 15.453 22.0357 15.3716C22.1115 15.2902 22.1974 15.2286 22.2935 15.1868C22.3896 15.1449 22.4891 15.124 22.592 15.124C22.7231 15.124 22.8362 15.1466 22.9312 15.1919C23.0273 15.2371 23.1059 15.3004 23.1669 15.3818C23.228 15.4621 23.2732 15.557 23.3026 15.6667C23.332 15.7753 23.3467 15.894 23.3467 16.0229V16.1636H21.9764V15.9075H23.0329V15.8838C23.0284 15.8024 23.0115 15.7232 22.9821 15.6464C22.9538 15.5695 22.9086 15.5062 22.8464 15.4564C22.7842 15.4067 22.6994 15.3818 22.592 15.3818C22.5208 15.3818 22.4552 15.3971 22.3953 15.4276C22.3353 15.457 22.2839 15.5011 22.2409 15.5599C22.198 15.6187 22.1646 15.6905 22.1409 15.7753C22.1171 15.86 22.1053 15.9578 22.1053 16.0686V16.1399C22.1053 16.2269 22.1171 16.3089 22.1409 16.3858C22.1658 16.4615 22.2014 16.5282 22.2477 16.5859C22.2952 16.6436 22.3523 16.6888 22.419 16.7216C22.4869 16.7544 22.5637 16.7708 22.6497 16.7708C22.7605 16.7708 22.8543 16.7481 22.9312 16.7029C23.0081 16.6577 23.0753 16.5972 23.133 16.5215L23.3229 16.6724C23.2834 16.7323 23.2331 16.7894 23.172 16.8437C23.1109 16.8979 23.0358 16.942 22.9464 16.976C22.8583 17.0099 22.7537 17.0268 22.6327 17.0268Z" fill="black"/>
<path d="M24.1132 15.1579H24.4269L24.3998 15.8448C24.393 16.0189 24.3732 16.1693 24.3404 16.2959C24.3076 16.4225 24.2658 16.5305 24.2149 16.6198C24.164 16.708 24.1069 16.7821 24.0436 16.842C23.9814 16.9019 23.917 16.9522 23.8503 16.9929H23.6943L23.7028 16.7368L23.7672 16.7351C23.8045 16.691 23.8407 16.6458 23.8757 16.5995C23.9108 16.552 23.943 16.496 23.9724 16.4316C24.0018 16.366 24.0261 16.2863 24.0453 16.1924C24.0657 16.0975 24.0787 15.9816 24.0843 15.8448L24.1132 15.1579ZM24.1912 15.1579H25.2952V16.9929H24.9815V15.4479H24.1912V15.1579ZM23.623 16.7351H25.5309V17.5339H25.2172V16.9929H23.9368V17.5339H23.6213L23.623 16.7351Z" fill="black"/>
<path d="M26.8096 16.1857H26.2075L26.2042 15.9347H26.696C26.7932 15.9347 26.874 15.9251 26.9385 15.9058C27.0041 15.8866 27.0532 15.8578 27.086 15.8193C27.1188 15.7809 27.1352 15.7334 27.1352 15.6769C27.1352 15.6328 27.1256 15.5944 27.1064 15.5616C27.0883 15.5277 27.0606 15.5 27.0233 15.4785C26.986 15.4559 26.9396 15.4395 26.8842 15.4293C26.8299 15.418 26.7661 15.4123 26.6926 15.4123H26.2906V16.9929H25.9769V15.1579H26.6926C26.809 15.1579 26.9136 15.1681 27.0063 15.1885C27.1002 15.2088 27.1799 15.2399 27.2454 15.2817C27.3121 15.3224 27.363 15.3745 27.3981 15.4378C27.4331 15.5011 27.4506 15.5757 27.4506 15.6616C27.4506 15.717 27.4393 15.7696 27.4167 15.8193C27.3941 15.8691 27.3608 15.9132 27.3167 15.9516C27.2726 15.9901 27.2183 16.0217 27.1539 16.0466C27.0894 16.0703 27.0154 16.0856 26.9317 16.0924L26.8096 16.1857ZM26.8096 16.9929H26.0939L26.2499 16.7385H26.8096C26.8967 16.7385 26.969 16.7278 27.0267 16.7063C27.0843 16.6837 27.1273 16.652 27.1556 16.6113C27.185 16.5695 27.1997 16.5198 27.1997 16.4621C27.1997 16.4044 27.185 16.3553 27.1556 16.3146C27.1273 16.2727 27.0843 16.2411 27.0267 16.2196C26.969 16.197 26.8967 16.1857 26.8096 16.1857H26.333L26.3364 15.9347H26.9317L27.0453 16.0296C27.1459 16.0376 27.2313 16.0624 27.3014 16.1043C27.3715 16.1461 27.4246 16.1992 27.4608 16.2637C27.497 16.327 27.5151 16.396 27.5151 16.4706C27.5151 16.5565 27.4987 16.6323 27.4659 16.6978C27.4343 16.7634 27.3879 16.8182 27.3268 16.8623C27.2658 16.9053 27.1917 16.9381 27.1047 16.9607C27.0176 16.9822 26.9193 16.9929 26.8096 16.9929Z" fill="black"/>
<path d="M28.3443 16.496L29.1906 15.1579H29.506V16.9929H29.1906V15.6548L28.3443 16.9929H28.0323V15.1579H28.3443V16.496Z" fill="black"/>
<path d="M30.6354 16.1941L29.9401 15.1579H30.3183L30.7932 15.9177H31.1595L31.1137 16.1941H30.6354ZM30.8067 16.1619L30.2742 16.9929H29.8774L30.6083 15.9347L30.8067 16.1619ZM31.3206 15.1579V16.9929H31.0068V15.1579H31.3206ZM32.3907 15.1579L31.6954 16.1941H31.2171L31.1679 15.9177H31.536L32.0108 15.1579H32.3907ZM32.0549 16.9929L31.5207 16.1619L31.7225 15.9347L32.4518 16.9929H32.0549Z" fill="black"/>
<path d="M33.1504 16.496L33.9967 15.1579H34.3121V16.9929H33.9967V15.6548L33.1504 16.9929H32.8384V15.1579H33.1504V16.496Z" fill="black"/>
<path d="M35.9401 16.5757L36.5642 15.1579H36.8661L36.0486 16.9929H35.8316L35.0175 15.1579H35.3194L35.9401 16.5757ZM35.2278 15.1579V16.9929H34.9141V15.1579H35.2278ZM36.6422 16.9929V15.1579H36.9577V16.9929H36.6422Z" fill="black"/>
<path d="M37.4494 16.0958V16.0568C37.4494 15.9245 37.4686 15.8018 37.5071 15.6888C37.5455 15.5746 37.6009 15.4756 37.6733 15.392C37.7456 15.3072 37.8332 15.2416 37.9361 15.1953C38.039 15.1478 38.1543 15.124 38.2821 15.124C38.411 15.124 38.5269 15.1478 38.6298 15.1953C38.7338 15.2416 38.822 15.3072 38.8943 15.392C38.9678 15.4756 39.0238 15.5746 39.0622 15.6888C39.1007 15.8018 39.1199 15.9245 39.1199 16.0568V16.0958C39.1199 16.2281 39.1007 16.3507 39.0622 16.4638C39.0238 16.5769 38.9678 16.6758 38.8943 16.7606C38.822 16.8442 38.7343 16.9098 38.6315 16.9573C38.5297 17.0037 38.4144 17.0268 38.2855 17.0268C38.1566 17.0268 38.0407 17.0037 37.9378 16.9573C37.8349 16.9098 37.7468 16.8442 37.6733 16.7606C37.6009 16.6758 37.5455 16.5769 37.5071 16.4638C37.4686 16.3507 37.4494 16.2281 37.4494 16.0958ZM37.7631 16.0568V16.0958C37.7631 16.1874 37.7739 16.2739 37.7954 16.3553C37.8168 16.4355 37.8491 16.5068 37.892 16.5689C37.9361 16.6311 37.991 16.6803 38.0565 16.7165C38.1221 16.7515 38.1984 16.7691 38.2855 16.7691C38.3714 16.7691 38.4466 16.7515 38.511 16.7165C38.5766 16.6803 38.6309 16.6311 38.6738 16.5689C38.7168 16.5068 38.749 16.4355 38.7705 16.3553C38.7931 16.2739 38.8044 16.1874 38.8044 16.0958V16.0568C38.8044 15.9663 38.7931 15.881 38.7705 15.8007C38.749 15.7193 38.7162 15.6475 38.6722 15.5853C38.6292 15.522 38.5749 15.4723 38.5093 15.4361C38.4449 15.3999 38.3691 15.3818 38.2821 15.3818C38.1962 15.3818 38.1204 15.3999 38.0548 15.4361C37.9904 15.4723 37.9361 15.522 37.892 15.5853C37.8491 15.6475 37.8168 15.7193 37.7954 15.8007C37.7739 15.881 37.7631 15.9663 37.7631 16.0568Z" fill="black"/>
<path d="M40.3171 16.7691C40.3917 16.7691 40.4607 16.7538 40.524 16.7233C40.5873 16.6927 40.6393 16.6509 40.68 16.5978C40.7207 16.5435 40.7439 16.4819 40.7496 16.4129H41.0481C41.0424 16.5215 41.0057 16.6226 40.9378 16.7165C40.8711 16.8092 40.7835 16.8844 40.675 16.942C40.5664 16.9986 40.4471 17.0268 40.3171 17.0268C40.1792 17.0268 40.0588 17.0025 39.9559 16.9539C39.8541 16.9053 39.7693 16.8386 39.7015 16.7538C39.6348 16.669 39.5845 16.5718 39.5506 16.4621C39.5178 16.3513 39.5014 16.2343 39.5014 16.111V16.0398C39.5014 15.9166 39.5178 15.8001 39.5506 15.6905C39.5845 15.5797 39.6348 15.4819 39.7015 15.3971C39.7693 15.3123 39.8541 15.2456 39.9559 15.1969C40.0588 15.1483 40.1792 15.124 40.3171 15.124C40.4607 15.124 40.5862 15.1534 40.6936 15.2122C40.801 15.2699 40.8852 15.349 40.9463 15.4496C41.0085 15.5491 41.0424 15.6622 41.0481 15.7888H40.7496C40.7439 15.7131 40.7224 15.6447 40.6851 15.5836C40.649 15.5226 40.5992 15.4739 40.5359 15.4378C40.4737 15.4005 40.4008 15.3818 40.3171 15.3818C40.221 15.3818 40.1402 15.401 40.0746 15.4395C40.0102 15.4768 39.9587 15.5277 39.9203 15.5921C39.883 15.6554 39.8558 15.7261 39.8389 15.8041C39.823 15.881 39.8151 15.9595 39.8151 16.0398V16.111C39.8151 16.1913 39.823 16.2705 39.8389 16.3485C39.8547 16.4265 39.8813 16.4971 39.9186 16.5605C39.957 16.6238 40.0085 16.6747 40.0729 16.7131C40.1385 16.7504 40.2199 16.7691 40.3171 16.7691Z" fill="black"/>
<path d="M42.2182 15.1579V16.9929H41.9027V15.1579H42.2182ZM42.8338 15.1579V15.4123H41.299V15.1579H42.8338Z" fill="black"/>
<path d="M43.4697 15.7888H44.0209C44.169 15.7888 44.2939 15.8148 44.3956 15.8668C44.4974 15.9177 44.5743 15.9884 44.6263 16.0788C44.6794 16.1681 44.706 16.2699 44.706 16.3841C44.706 16.4689 44.6913 16.5486 44.6619 16.6232C44.6325 16.6967 44.5884 16.7611 44.5296 16.8165C44.472 16.8719 44.4002 16.9155 44.3142 16.9471C44.2294 16.9777 44.1317 16.9929 44.0209 16.9929H43.2407V15.1579H43.5545V16.7351H44.0209C44.1113 16.7351 44.1837 16.7187 44.2379 16.686C44.2922 16.6532 44.3312 16.6108 44.3549 16.5588C44.3787 16.5068 44.3906 16.4525 44.3906 16.396C44.3906 16.3406 44.3787 16.2863 44.3549 16.2331C44.3312 16.18 44.2922 16.1359 44.2379 16.1009C44.1837 16.0647 44.1113 16.0466 44.0209 16.0466H43.4697V15.7888Z" fill="black"/>
</svg>
