<svg width="54" height="27" viewBox="0 0 54 27" fill="none" xmlns="http://www.w3.org/2000/svg">
<rect x="0.706729" y="0.496768" width="53.1166" height="26.1578" rx="2.77747" fill="white"/>
<rect x="0.706729" y="0.496768" width="53.1166" height="26.1578" rx="2.77747" stroke="#D3D3D3" stroke-width="0.292365"/>
<g clip-path="url(#clip0_50_3252)">
<path d="M47.1014 9.54102H7.42883V17.61H47.1014V9.54102Z" fill="#28332D"/>
<path d="M15.3299 14.5852V13.5766L14.6777 14.7062C14.6389 14.7765 14.5811 14.8346 14.511 14.8738C14.4409 14.913 14.3612 14.9318 14.281 14.9281C14.2011 14.932 14.1218 14.9132 14.0522 14.874C13.9826 14.8347 13.9255 14.7765 13.8876 14.7062L13.232 13.5766V14.5852C13.232 14.8104 13.1143 14.9214 12.879 14.9214C12.6436 14.9214 12.5226 14.8104 12.5226 14.5852V12.457C12.5226 12.2082 12.6403 12.0804 12.879 12.0804C12.9711 12.0769 13.0622 12.1002 13.1412 12.1477C13.2173 12.2018 13.2795 12.2733 13.3228 12.3561L14.2776 13.9733L15.2391 12.3528C15.2811 12.2711 15.3446 12.2024 15.4229 12.1544C15.5011 12.1064 15.5911 12.0808 15.6829 12.0804C15.9216 12.0804 16.0427 12.2082 16.0427 12.457V14.5852C16.0427 14.8104 15.9216 14.9214 15.6863 14.9214C15.451 14.9214 15.3299 14.8037 15.3299 14.5852Z" fill="#FDFBFE"/>
<path d="M18.3561 14.5847V13.3038L17.1592 14.7091C17.1082 14.7715 17.0482 14.8259 16.9811 14.8705C16.9159 14.9009 16.8445 14.9159 16.7726 14.9142C16.5238 14.9142 16.3994 14.8033 16.3994 14.578V12.4095C16.3994 12.1909 16.5204 12.0732 16.7558 12.0732C16.9911 12.0732 17.1122 12.1842 17.1122 12.4095V13.6837L18.3158 12.2716C18.363 12.2118 18.4212 12.1616 18.4873 12.1237C18.5559 12.093 18.6306 12.0781 18.7058 12.08C18.9479 12.08 19.0689 12.192 19.0689 12.4162V14.5847C19.0689 14.81 18.9479 14.9209 18.7125 14.9209C18.4772 14.9209 18.3561 14.7999 18.3561 14.5847Z" fill="#FDFBFE"/>
<path d="M22.1011 12.8796V13.2158C22.1011 13.7336 21.7649 13.9925 21.0925 13.9925H20.1377V14.5842C20.1377 14.8094 20.0167 14.9204 19.7813 14.9204C19.546 14.9204 19.4249 14.8094 19.4249 14.5842V12.3551C19.4249 12.187 19.5157 12.0996 19.6973 12.0996H21.0959C21.7649 12.0996 22.1011 12.3619 22.1011 12.8796ZM20.1377 12.7855V13.3469H21.1463C21.3144 13.3469 21.4018 13.2931 21.4018 13.1822V12.9031C21.4018 12.7922 21.3178 12.735 21.1497 12.735H20.1679C20.1478 12.7418 20.1377 12.7586 20.1377 12.7855Z" fill="#FDFBFE"/>
<path d="M24.0579 14.7965L23.0829 14.0098V14.5847C23.0829 14.81 22.9652 14.9209 22.7299 14.9209C22.4945 14.9209 22.3937 14.8066 22.3937 14.5847V12.4095C22.3937 12.1909 22.5113 12.0732 22.7299 12.0732C22.9484 12.0732 23.0829 12.1842 23.0829 12.4095V12.9608L24.0646 12.1775C24.1495 12.1126 24.2537 12.0782 24.3605 12.08C24.4066 12.0708 24.4543 12.0731 24.4993 12.0867C24.5443 12.1003 24.5853 12.1249 24.6185 12.1581C24.6518 12.1914 24.6763 12.2323 24.69 12.2774C24.7036 12.3224 24.7059 12.3701 24.6967 12.4162C24.6926 12.4847 24.6717 12.5512 24.636 12.6098C24.6002 12.6684 24.5507 12.7174 24.4916 12.7524L23.483 13.482L24.4916 14.2317C24.5711 14.2728 24.6427 14.3274 24.7034 14.3931C24.7416 14.452 24.7604 14.5213 24.7572 14.5914C24.7572 14.8167 24.6295 14.9277 24.3706 14.9277C24.312 14.93 24.2537 14.9195 24.1997 14.8968C24.1456 14.8742 24.0972 14.8399 24.0579 14.7965V14.7965Z" fill="#5CCA5A"/>
<path d="M27.662 13.9459V14.2283C27.662 14.6766 27.3864 14.9007 26.835 14.9007H25.3119C25.271 14.9064 25.2293 14.9025 25.1902 14.8892C25.1511 14.876 25.1156 14.8538 25.0865 14.8244C25.0575 14.795 25.0357 14.7593 25.0229 14.72C25.01 14.6807 25.0066 14.639 25.0127 14.5981V12.3993C25.0072 12.3587 25.0111 12.3174 25.0241 12.2786C25.0372 12.2397 25.0591 12.2044 25.0881 12.1755C25.117 12.1465 25.1523 12.1246 25.1912 12.1115C25.23 12.0985 25.2713 12.0946 25.3119 12.1001H26.7677C27.3426 12.1001 27.6284 12.3456 27.6284 12.8331V13.0381C27.6285 13.119 27.6118 13.199 27.5794 13.273C27.547 13.3471 27.4996 13.4137 27.4401 13.4685C27.5103 13.5265 27.5667 13.5995 27.6051 13.6821C27.6435 13.7647 27.6629 13.8548 27.662 13.9459V13.9459ZM26.9291 13.065V12.8734C26.9291 12.7893 26.882 12.7456 26.7913 12.7456H25.7557C25.7356 12.7456 25.7255 12.7591 25.7255 12.786V13.1894H26.7812C26.8753 13.1894 26.9291 13.1491 26.9291 13.065ZM26.9526 14.1241V13.9123C26.9526 13.8316 26.9089 13.7879 26.8215 13.7879H25.7255V14.225C25.7255 14.2519 25.7356 14.2653 25.7557 14.2653H26.8148C26.9022 14.2485 26.9459 14.2048 26.9459 14.1241H26.9526Z" fill="#5CCA5A"/>
<path d="M30.0622 14.6754L29.8638 14.2719H28.6803L28.4887 14.6754C28.4627 14.744 28.4168 14.8034 28.357 14.8459C28.2971 14.8884 28.2259 14.9122 28.1525 14.9141C27.897 14.9141 27.7726 14.8031 27.7726 14.5779C27.7845 14.4721 27.8189 14.3701 27.8734 14.2786L28.9022 12.2917C28.9366 12.222 28.9914 12.1645 29.0592 12.1266C29.1271 12.0888 29.2048 12.0725 29.2822 12.0798C29.3534 12.0816 29.4226 12.1033 29.4821 12.1426C29.5415 12.1818 29.5888 12.237 29.6184 12.3017L30.6505 14.2887C30.7029 14.3809 30.7361 14.4826 30.748 14.588C30.748 14.8031 30.6236 14.9242 30.3748 14.9242C30.303 14.9216 30.2338 14.896 30.1775 14.8513C30.1213 14.8065 30.0808 14.7448 30.0622 14.6754ZM29.2822 13.0548L28.9796 13.6735H29.578L29.2822 13.0548Z" fill="#5CCA5A"/>
<path d="M33.6532 12.8796V13.2158C33.6532 13.7336 33.317 13.9925 32.6446 13.9925H31.6898V14.5842C31.6898 14.8094 31.5721 14.9204 31.3536 14.9204C31.135 14.9204 30.9972 14.8094 30.9972 14.5842V12.3551C30.9972 12.187 31.088 12.0996 31.2695 12.0996H32.6446C33.317 12.0996 33.6532 12.3619 33.6532 12.8796ZM31.6864 12.7855V13.3469H32.695C32.8631 13.3469 32.9472 13.2931 32.9472 13.1822V12.9031C32.9472 12.7922 32.8665 12.735 32.6984 12.735H31.7234C31.7032 12.7451 31.6898 12.7586 31.6898 12.7855H31.6864Z" fill="#5CCA5A"/>
<path d="M34.6086 14.5847V12.7456H34.0639C34.0193 12.7512 33.974 12.7461 33.9317 12.7308C33.8894 12.7155 33.8513 12.6905 33.8205 12.6578C33.7898 12.625 33.7671 12.5854 33.7545 12.5423C33.7419 12.4991 33.7396 12.4536 33.7479 12.4094C33.7382 12.3653 33.7393 12.3195 33.7512 12.276C33.763 12.2324 33.7853 12.1924 33.816 12.1593C33.8468 12.1263 33.8851 12.1012 33.9277 12.0862C33.9703 12.0712 34.0159 12.0667 34.0605 12.0732H35.8794C35.9224 12.067 35.9662 12.0709 36.0073 12.0846C36.0485 12.0983 36.0859 12.1214 36.1166 12.1521C36.1473 12.1828 36.1704 12.2202 36.1841 12.2613C36.1978 12.3025 36.2017 12.3463 36.1955 12.3893C36.1955 12.6112 36.0912 12.7255 35.8794 12.7255H35.3348V14.5847C35.3348 14.81 35.2171 14.9209 34.9986 14.9209C34.78 14.9209 34.6086 14.7999 34.6086 14.5847Z" fill="#5CCA5A"/>
<path d="M38.3604 14.5847V13.3038L37.1602 14.7091C37.1092 14.7715 37.0491 14.8259 36.982 14.8705C36.9169 14.9013 36.8455 14.9162 36.7735 14.9142C36.5247 14.9142 36.4037 14.8033 36.4037 14.578V12.4095C36.4037 12.1909 36.5214 12.0732 36.7399 12.0732C36.9584 12.0732 37.0963 12.1842 37.0963 12.4095V13.6837L38.3033 12.2716C38.3488 12.2102 38.4074 12.1597 38.4747 12.1237C38.5441 12.0915 38.6202 12.0766 38.6966 12.08C38.9387 12.08 39.0597 12.192 39.0597 12.4162V14.5847C39.0597 14.81 38.9421 14.9209 38.7034 14.9209C38.4646 14.9209 38.3604 14.7999 38.3604 14.5847Z" fill="#5CCA5A"/>
<path d="M42.0955 12.8796V13.2158C42.0955 13.7336 41.7593 13.9925 41.0869 13.9925H40.132V14.5842C40.132 14.8094 40.0144 14.9204 39.7757 14.9204C39.537 14.9204 39.4395 14.8094 39.4395 14.5842V12.3551C39.4395 12.187 39.5269 12.0996 39.7084 12.0996H41.107C41.7627 12.0996 42.0955 12.3619 42.0955 12.8796ZM40.132 12.7855V13.3469H41.1407C41.3121 13.3469 41.3962 13.2931 41.3962 13.1822V12.9031C41.3962 12.7922 41.3121 12.735 41.144 12.735H40.1623C40.1421 12.7418 40.132 12.7586 40.132 12.7855Z" fill="#5CCA5A"/>
</g>
<defs>
<clipPath id="clip0_50_3252">
<rect width="39.6726" height="8.069" fill="white" transform="translate(7.42883 9.54102)"/>
</clipPath>
</defs>
</svg>
