<svg width="55" height="28" viewBox="0 0 55 28" fill="none" xmlns="http://www.w3.org/2000/svg">
<rect x="0.761417" y="0.946964" width="53.1166" height="26.1578" rx="2.77747" fill="white"/>
<rect x="0.761417" y="0.946964" width="53.1166" height="26.1578" rx="2.77747" stroke="#D3D3D3" stroke-width="0.292365"/>
<path d="M12.055 16.5656H10.7405V13.2555L9.44888 16.5656H8.86803L7.58407 13.2555V16.5656H6.26953V11.4784H8.09613L9.15845 14.2394L10.2284 11.4784H12.055V16.5656Z" fill="#232323"/>
<path d="M17.3892 15.9173C16.8746 16.4105 16.225 16.6571 15.4404 16.6571C14.6557 16.6571 14.0035 16.4105 13.4838 15.9173C12.9692 15.4241 12.7119 14.7936 12.7119 14.0258C12.7119 13.258 12.9692 12.6275 13.4838 12.1343C14.0035 11.6411 14.6557 11.3945 15.4404 11.3945C16.225 11.3945 16.8746 11.6411 17.3892 12.1343C17.9038 12.6275 18.1611 13.258 18.1611 14.0258C18.1611 14.7936 17.9038 15.4241 17.3892 15.9173ZM15.4404 15.4978C15.8531 15.4978 16.1868 15.358 16.4415 15.0783C16.6963 14.7987 16.8237 14.4478 16.8237 14.0258C16.8237 13.6038 16.6963 13.253 16.4415 12.9733C16.1868 12.6936 15.8531 12.5538 15.4404 12.5538C15.0226 12.5538 14.6863 12.6936 14.4315 12.9733C14.1768 13.253 14.0494 13.6038 14.0494 14.0258C14.0494 14.4478 14.1768 14.7987 14.4315 15.0783C14.6863 15.358 15.0226 15.4978 15.4404 15.4978Z" fill="#232323"/>
<path d="M21.3223 16.6571C20.5326 16.6571 19.8753 16.413 19.3505 15.9249C18.8257 15.4317 18.5633 14.7987 18.5633 14.0258C18.5633 13.2479 18.8232 12.6148 19.3429 12.1267C19.8677 11.6386 20.5275 11.3945 21.3223 11.3945C22.3465 11.3945 23.0878 11.8496 23.5463 12.7597L22.4152 13.2936C22.3286 13.0852 22.1834 12.9097 21.9796 12.7674C21.7809 12.625 21.5618 12.5538 21.3223 12.5538C20.9096 12.5538 20.5683 12.6962 20.2982 12.9809C20.0333 13.2606 19.9008 13.6089 19.9008 14.0258C19.9008 14.4428 20.0333 14.7936 20.2982 15.0783C20.5683 15.358 20.9096 15.4978 21.3223 15.4978C21.5618 15.4978 21.7809 15.4266 21.9796 15.2843C22.1834 15.1419 22.3286 14.9665 22.4152 14.758L23.5463 15.2919C23.3527 15.6783 23.0725 16.0037 22.7057 16.2681C22.3439 16.5274 21.8828 16.6571 21.3223 16.6571Z" fill="#232323"/>
<path d="M28.7234 16.5656H27.1108L25.7733 14.6512L25.4294 15.0783V16.5656H24.1148V11.4784H25.4294V13.5682L26.9961 11.4784H28.6164L26.6369 13.858L28.7234 16.5656Z" fill="#232323"/>
<path d="M32.096 16.5656H29.1154V11.4784H32.0043C32.4782 11.4784 32.845 11.6081 33.1049 11.8674C33.3647 12.1216 33.4946 12.4242 33.4946 12.775C33.4946 13.0801 33.4106 13.3369 33.2424 13.5453C33.0794 13.7538 32.873 13.886 32.6234 13.9419C32.8985 13.9826 33.1278 14.1224 33.3112 14.3614C33.4997 14.5953 33.594 14.8699 33.594 15.1851C33.594 15.5766 33.4641 15.9046 33.2042 16.169C32.9444 16.4334 32.575 16.5656 32.096 16.5656ZM31.7063 13.4309C31.8387 13.4309 31.9457 13.3928 32.0272 13.3165C32.1139 13.2352 32.1572 13.1309 32.1572 13.0038C32.1572 12.8818 32.1139 12.7826 32.0272 12.7064C31.9457 12.625 31.8387 12.5843 31.7063 12.5843H30.4299V13.4309H31.7063ZM31.7521 15.4597C31.9101 15.4597 32.0323 15.419 32.119 15.3376C32.2107 15.2512 32.2565 15.1393 32.2565 15.0021C32.2565 14.8699 32.2107 14.7605 32.119 14.6741C32.0323 14.5877 31.9101 14.5444 31.7521 14.5444H30.4299V15.4597H31.7521Z" fill="#232323"/>
<path d="M39.2625 16.5656H37.7721L37.5199 15.8334H35.5099L35.2577 16.5656H33.7674L35.6857 11.4784H37.3365L39.2625 16.5656ZM37.1607 14.6894L36.5111 12.775L35.8615 14.6894H37.1607Z" fill="#232323"/>
<path d="M43.5138 16.5656H39.5167V15.5436C40.6478 14.73 41.3662 14.1809 41.6719 13.8962C41.9827 13.6114 42.1381 13.3445 42.1381 13.0953C42.1381 12.9275 42.0693 12.7979 41.9318 12.7064C41.7993 12.6098 41.6337 12.5614 41.435 12.5614C40.9255 12.5614 40.472 12.747 40.0746 13.1182L39.3486 12.2487C39.6084 11.964 39.9218 11.753 40.2886 11.6157C40.6554 11.4733 41.0299 11.4022 41.4121 11.4022C42.0184 11.4022 42.5126 11.5572 42.8947 11.8674C43.282 12.1776 43.4756 12.5869 43.4756 13.0953C43.4756 13.4767 43.3329 13.8479 43.0476 14.2089C42.7623 14.5699 42.2961 14.9741 41.649 15.4215H43.5138V16.5656Z" fill="#232323"/>
<path d="M47.7511 16.5656H46.4289V15.6351H43.9909V14.6131L45.9245 11.4784H47.7511V14.4834H48.3701V15.6351H47.7511V16.5656ZM46.4289 14.4834V12.6225L45.2672 14.4834H46.4289Z" fill="#232323"/>
</svg>
