<svg width="54" height="28" viewBox="0 0 54 28" fill="none" xmlns="http://www.w3.org/2000/svg">
<rect x="0.73415" y="0.947041" width="53.1164" height="26.1576" rx="2.77893" fill="white"/>
<rect x="0.73415" y="0.947041" width="53.1164" height="26.1576" rx="2.77893" stroke="#D3D3D3" stroke-width="0.292519"/>
<path d="M29.3542 11.2957H30.909C31.9902 11.2957 32.4011 11.6299 32.4011 12.3221C32.4011 13.0993 31.9534 13.4469 30.909 13.4469H29.3542V11.2957ZM27.2919 9.7041V17.6532H29.3542V15.0266H30.4613L32.525 18.348H34.9237L32.6395 14.7298C33.8943 14.4705 34.5779 13.5078 34.5779 12.2973C34.5779 10.6538 33.3609 9.70554 30.9986 9.70554L27.2919 9.7041Z" fill="#F26922"/>
<path d="M34.5336 9.7041V15.3024C34.5336 17.2372 35.7819 18.348 38.1582 18.348C40.5349 18.348 41.6986 17.2012 41.6986 15.2664V9.7041H39.7638V14.9758C39.7638 16.0127 39.2618 16.6606 38.1582 16.6606C37.0547 16.6606 36.5656 16.0206 36.5656 14.9758V9.7041H34.5336V9.7041Z" fill="#F26922"/>
<path d="M14.914 11.2957H16.4433C17.5068 11.2957 17.9109 11.6299 17.9109 12.3221C17.9109 13.0993 17.4712 13.4469 16.4433 13.4469H14.914V11.2957ZM12.8856 9.7041V18.348H14.914V15.0266H16.0032L18.033 18.348H20.3925L18.1458 14.7298C19.38 14.4705 20.0525 13.5078 20.0525 12.2973C20.0525 10.6538 18.8553 9.70554 16.5319 9.70554L12.8856 9.7041Z" fill="#506C7F"/>
<path d="M27.3192 11.3486C26.5059 10.2371 25.3844 9.7041 23.9679 9.7041C21.4878 9.7041 19.8257 11.3731 19.8257 14.062C19.8257 16.6916 21.5588 18.348 23.9196 18.348C25.2306 18.348 26.3507 17.8401 27.33 16.7748V13.6126H23.5894V15.1278H25.3729V16.1229C24.9611 16.4185 24.4683 16.58 23.9614 16.5853C22.6785 16.5853 21.8833 15.7433 21.8833 14.0973C21.8833 12.3207 22.6864 11.4084 24.0219 11.4084C24.8366 11.4084 25.509 11.788 26.0514 12.5342L27.3192 11.3486V11.3486Z" fill="#506C7F"/>
<path d="M28.3428 18.3485C28.5625 18.3485 28.7775 18.2825 28.9605 18.1594C29.1436 18.0354 29.286 17.8599 29.3696 17.6551C29.4534 17.45 29.4752 17.2248 29.4324 17.0074C29.3895 16.79 29.2837 16.59 29.1283 16.432C28.9738 16.2751 28.7758 16.1681 28.5599 16.1249C28.344 16.0817 28.12 16.1043 27.9171 16.1897C27.7135 16.2752 27.54 16.4194 27.4186 16.6038C27.3169 16.7577 27.2544 16.9341 27.2366 17.1177C27.2188 17.3012 27.2462 17.4864 27.3163 17.6569C27.3725 17.7927 27.4543 17.9163 27.5576 18.0207C27.6605 18.1243 27.7828 18.2066 27.9175 18.2628C28.0523 18.3191 28.1968 18.3482 28.3428 18.3485V18.3485Z" fill="#506C7F"/>
</svg>
