<svg width="54" height="28" viewBox="0 0 54 28" fill="none" xmlns="http://www.w3.org/2000/svg">
<rect x="0.706806" y="0.947041" width="53.1164" height="26.1576" rx="2.77893" fill="white"/>
<rect x="0.706806" y="0.947041" width="53.1164" height="26.1576" rx="2.77893" stroke="#D3D3D3" stroke-width="0.292519"/>
<path d="M13.9312 11.4141L9.4604 16.6379L8.27197 13.4354L13.9312 11.4141Z" fill="#FF9600"/>
<path d="M15.4385 15.9551C15.8425 16.1571 16.5362 16.3188 17.2097 16.3188C18.4152 16.3188 19.1425 15.8137 19.1425 14.8506C19.1425 13.9886 18.597 13.6317 17.6137 13.396C16.9403 13.2343 16.5833 13.1401 16.5833 12.8168C16.5833 12.5003 16.9605 12.3723 17.4386 12.3723C17.9909 12.3723 18.5431 12.5676 18.8798 12.7629V11.7056C18.5027 11.5238 17.9774 11.416 17.4252 11.416C16.2129 11.416 15.4587 11.9076 15.4587 12.8707C15.4587 13.726 16.0379 14.13 17.075 14.3455C17.7215 14.4802 18.0515 14.5745 18.0515 14.8978C18.0515 15.1941 17.7888 15.3557 17.2433 15.3557C16.5362 15.3557 15.8628 15.1604 15.4385 14.8776V15.9551Z" fill="black"/>
<path d="M19.9537 11.5107V16.2249H21.0245V14.7905H21.8394C22.9641 14.7905 23.6847 14.245 23.6847 13.1472C23.6847 12.0495 23.0179 11.5107 21.8596 11.5107H19.9537ZM21.0245 12.4401H21.8394C22.358 12.4401 22.6341 12.696 22.6341 13.154C22.6341 13.6187 22.358 13.8611 21.8394 13.8611H21.0245V12.4401Z" fill="black"/>
<path d="M26.6039 15.3292C25.9238 15.3292 25.5197 14.9454 25.5197 14.144V11.5107H24.4421V14.2046C24.4421 15.5649 25.2772 16.3192 26.5905 16.3192C27.9037 16.3192 28.7388 15.5649 28.7388 14.2046V11.5107H27.6613V14.144C27.6613 14.9454 27.2572 15.3292 26.6039 15.3292Z" fill="black"/>
<path d="M31.1143 16.2249H32.1851V12.4805H33.8351V11.5107H29.4644V12.4805H31.1143V16.2249Z" fill="black"/>
<path d="M36.5586 12.4531C37.2323 12.4531 37.6496 12.8101 37.6496 13.6384V16.2245H38.7406V13.5307C38.7406 12.1231 37.8719 11.416 36.5586 11.416C35.2454 11.416 34.3767 12.1231 34.3767 13.5307V16.2245H35.4676V13.6384C35.4676 12.8101 35.8853 12.4531 36.5586 12.4531Z" fill="black"/>
<path d="M39.8815 16.2249H40.9521V11.5107H39.8815V16.2249Z" fill="black"/>
<path d="M43.8603 14.2786L44.9986 16.2249H46.2578L44.7695 13.7803L46.2108 11.5107H45.0119L43.8739 13.356H43.1668V11.5107H42.0959V16.2249H43.1668V14.2786H43.8603Z" fill="black"/>
</svg>
