<svg width="54" height="27" viewBox="0 0 54 27" fill="none" xmlns="http://www.w3.org/2000/svg">
<rect x="0.706806" y="0.397236" width="53.1164" height="26.1576" rx="2.77893" fill="white"/>
<rect x="0.706806" y="0.397236" width="53.1164" height="26.1576" rx="2.77893" stroke="#D3D3D3" stroke-width="0.292519"/>
<rect x="9.67737" y="6.83496" width="35.1754" height="13.283" fill="#A41119"/>
<path d="M13.3032 9.78613H14.3609L15.5831 14.8342L16.8012 9.78613H17.7354L16.0317 17.1656H15.1304L13.3032 9.78613ZM12.8752 9.78613H13.8835L14.0399 14.6517V17.1656H12.8752V9.78613ZM17.2745 9.78613H18.2868V17.1656H17.1263V14.6517L17.2745 9.78613Z" fill="white"/>
<path d="M19.024 14.7026V14.3426C19.024 13.9252 19.0733 13.5554 19.1719 13.2332C19.2738 12.9111 19.4184 12.6415 19.6058 12.4246C19.7931 12.2043 20.0183 12.0383 20.2813 11.9266C20.5476 11.8115 20.845 11.754 21.1738 11.754C21.5058 11.754 21.8032 11.8115 22.0662 11.9266C22.3325 12.0383 22.5593 12.2043 22.7467 12.4246C22.9373 12.6415 23.0836 12.9111 23.1855 13.2332C23.2874 13.5554 23.3383 13.9252 23.3383 14.3426V14.7026C23.3383 15.1168 23.2874 15.4849 23.1855 15.8071C23.0836 16.1292 22.9373 16.4004 22.7467 16.6206C22.5593 16.8409 22.3341 17.0069 22.0711 17.1186C21.8082 17.2304 21.5123 17.2863 21.1836 17.2863C20.8549 17.2863 20.5574 17.2304 20.2912 17.1186C20.0282 17.0069 19.8014 16.8409 19.6107 16.6206C19.4201 16.4004 19.2738 16.1292 19.1719 15.8071C19.0733 15.4849 19.024 15.1168 19.024 14.7026ZM20.4046 14.3426V14.7026C20.4046 14.9491 20.421 15.1628 20.4539 15.3436C20.49 15.5244 20.541 15.6739 20.6067 15.7923C20.6757 15.9106 20.7579 15.9977 20.8533 16.0536C20.9486 16.1095 21.0587 16.1374 21.1836 16.1374C21.3085 16.1374 21.4203 16.1095 21.5189 16.0536C21.6175 15.9977 21.6981 15.9106 21.7605 15.7923C21.8263 15.6739 21.8739 15.5244 21.9035 15.3436C21.9364 15.1628 21.9528 14.9491 21.9528 14.7026V14.3426C21.9528 14.1027 21.9347 13.8923 21.8986 13.7115C21.8624 13.5274 21.8115 13.3778 21.7457 13.2628C21.68 13.1445 21.5978 13.0557 21.4992 12.9965C21.4039 12.9341 21.2954 12.9029 21.1738 12.9029C21.0521 12.9029 20.9437 12.9341 20.8483 12.9965C20.7563 13.0557 20.6757 13.1445 20.6067 13.2628C20.541 13.3778 20.49 13.5274 20.4539 13.7115C20.421 13.8923 20.4046 14.1027 20.4046 14.3426Z" fill="white"/>
<path d="M25.8361 16.1374C25.9643 16.1374 26.0744 16.1111 26.1664 16.0585C26.2618 16.0059 26.3341 15.9205 26.3834 15.8021C26.4327 15.6838 26.459 15.5309 26.4623 15.3436H27.7591C27.7591 15.7446 27.6736 16.0914 27.5027 16.384C27.335 16.6732 27.1082 16.8968 26.8222 17.0545C26.5395 17.209 26.219 17.2863 25.8607 17.2863C25.5024 17.2863 25.1901 17.2288 24.9239 17.1137C24.6576 16.9987 24.4374 16.831 24.2632 16.6108C24.0922 16.3905 23.9624 16.1226 23.8736 15.8071C23.7882 15.4882 23.7454 15.1233 23.7454 14.7124V14.3229C23.7454 13.9186 23.7882 13.557 23.8736 13.2381C23.9624 12.9193 24.0922 12.6497 24.2632 12.4295C24.4374 12.2093 24.656 12.0416 24.9189 11.9266C25.1852 11.8115 25.4975 11.754 25.8558 11.754C26.2404 11.754 26.574 11.8345 26.8567 11.9956C27.1394 12.1534 27.3597 12.3868 27.5174 12.6958C27.6785 13.0048 27.7591 13.3861 27.7591 13.8397H26.4623C26.459 13.6359 26.4343 13.4666 26.3883 13.3318C26.3456 13.1938 26.2782 13.0886 26.1861 13.0163C26.0974 12.9407 25.9791 12.9029 25.8311 12.9029C25.6766 12.9029 25.5517 12.9357 25.4564 13.0015C25.3644 13.0639 25.2937 13.156 25.2444 13.2776C25.1984 13.3959 25.1671 13.5438 25.1507 13.7214C25.1343 13.8989 25.126 14.0994 25.126 14.3229V14.7124C25.126 14.9524 25.1326 15.1611 25.1458 15.3386C25.1622 15.5129 25.1934 15.6608 25.2394 15.7824C25.2888 15.9007 25.3594 15.9895 25.4515 16.0487C25.5468 16.1078 25.675 16.1374 25.8361 16.1374Z" fill="white"/>
<path d="M29.7341 11.8526V17.1877H28.3486V11.8526H29.7341ZM32.6334 11.8526L30.7005 15.2203H29.4826L29.3051 13.8545H30.0694L30.8928 11.8526H32.6334ZM30.9126 17.1877L29.9856 14.954L31.1887 14.2588L32.7468 17.1877H30.9126Z" fill="white"/>
<path d="M35.3431 14.9738H33.997L33.9921 14.0123H35.0818C35.21 14.0123 35.3119 13.9942 35.3875 13.958C35.4631 13.9219 35.5173 13.8693 35.5502 13.8002C35.5864 13.7279 35.6045 13.6392 35.6045 13.534C35.6045 13.4354 35.5929 13.3532 35.5699 13.2874C35.5469 13.2184 35.5124 13.1625 35.4664 13.1198C35.4204 13.0738 35.3628 13.0409 35.2938 13.0212C35.2248 13.0015 35.1459 12.9916 35.0571 12.9916H34.5049V17.1877H33.1243V11.8526H35.0571C35.353 11.8526 35.6192 11.8838 35.8559 11.9463C36.0926 12.0055 36.2964 12.0959 36.4673 12.2175C36.6383 12.3391 36.7681 12.4936 36.8569 12.681C36.9456 12.8683 36.99 13.0886 36.99 13.3417C36.99 13.506 36.9571 13.6605 36.8914 13.8052C36.8256 13.9465 36.7287 14.0731 36.6005 14.1848C36.4756 14.2966 36.3194 14.3886 36.132 14.461C35.9447 14.53 35.731 14.5727 35.491 14.5892L35.3431 14.9738ZM35.3431 17.1877H33.6469L34.145 16.0487H35.3431C35.4647 16.0487 35.5617 16.0289 35.634 15.9895C35.7064 15.95 35.759 15.8909 35.7918 15.812C35.8247 15.7331 35.8411 15.6361 35.8411 15.5211C35.8411 15.4126 35.8263 15.3173 35.7968 15.2351C35.7705 15.1496 35.7211 15.0855 35.6488 15.0428C35.5765 14.9968 35.4746 14.9738 35.3431 14.9738H34.2288L34.2386 14.0123H35.4713L35.7918 14.4018C36.1271 14.4248 36.3999 14.4955 36.6103 14.6138C36.8207 14.7322 36.9752 14.8834 37.0738 15.0674C37.1724 15.2482 37.2217 15.4471 37.2217 15.6641C37.2217 15.9172 37.1806 16.1391 37.0985 16.3297C37.0163 16.5204 36.8963 16.6798 36.7385 16.808C36.584 16.9329 36.3884 17.0282 36.1518 17.094C35.9184 17.1564 35.6488 17.1877 35.3431 17.1877Z" fill="white"/>
<path d="M40.1139 15.9599V13.4945C40.1139 13.3335 40.0942 13.2053 40.0547 13.1099C40.0186 13.0146 39.9627 12.9456 39.8871 12.9029C39.8148 12.8568 39.726 12.8338 39.6208 12.8338C39.5025 12.8338 39.4039 12.8585 39.325 12.9078C39.2461 12.9571 39.1869 13.0278 39.1475 13.1198C39.1113 13.2118 39.0932 13.322 39.0932 13.4502H37.7077C37.7077 13.2201 37.7521 13.0031 37.8408 12.7993C37.9296 12.5922 38.0594 12.4114 38.2304 12.2569C38.4046 12.0991 38.6117 11.9759 38.8516 11.8871C39.0916 11.7984 39.3612 11.754 39.6603 11.754C40.0153 11.754 40.3309 11.8148 40.607 11.9364C40.8831 12.0548 41.1017 12.2438 41.2628 12.5035C41.4238 12.7631 41.5044 13.1001 41.5044 13.5143V15.8909C41.5044 16.19 41.5192 16.4333 41.5488 16.6206C41.5816 16.808 41.6293 16.9691 41.6918 17.1038V17.1877H40.3013C40.2388 17.0397 40.1912 16.8557 40.1583 16.6354C40.1287 16.4119 40.1139 16.1867 40.1139 15.9599ZM40.2816 13.9284L40.2865 14.7568H39.7786C39.6471 14.7568 39.5321 14.7782 39.4335 14.8209C39.3381 14.8636 39.2576 14.9245 39.1919 15.0033C39.1261 15.079 39.0768 15.1677 39.0439 15.2696C39.0144 15.3715 38.9996 15.48 38.9996 15.595C38.9996 15.7232 39.0176 15.8317 39.0538 15.9205C39.09 16.0092 39.1442 16.0766 39.2165 16.1226C39.2888 16.1686 39.3743 16.1917 39.4729 16.1917C39.6241 16.1917 39.7556 16.1604 39.8674 16.098C39.9791 16.0355 40.0613 15.9599 40.1139 15.8712C40.1698 15.7824 40.1879 15.7002 40.1682 15.6246L40.4837 16.1621C40.4443 16.2837 40.39 16.4103 40.321 16.5417C40.2553 16.6732 40.1714 16.7948 40.0695 16.9066C39.9676 17.0184 39.8411 17.1104 39.6899 17.1827C39.5419 17.2518 39.3661 17.2863 39.1623 17.2863C38.8763 17.2863 38.615 17.2205 38.3783 17.089C38.1416 16.9576 37.9542 16.7735 37.8162 16.5368C37.6814 16.3001 37.614 16.0191 37.614 15.6937C37.614 15.4241 37.6568 15.1809 37.7422 14.9639C37.831 14.7437 37.9625 14.5579 38.1367 14.4067C38.3109 14.2522 38.5311 14.1339 38.7974 14.0517C39.0637 13.9695 39.3759 13.9284 39.7342 13.9284H40.2816Z" fill="white"/>
</svg>
