<svg width="54" height="28" viewBox="0 0 54 28" fill="none" xmlns="http://www.w3.org/2000/svg">
<rect x="0.73415" y="0.847431" width="53.1164" height="26.1576" rx="2.77893" fill="white"/>
<rect x="0.73415" y="0.847431" width="53.1164" height="26.1576" rx="2.77893" stroke="#D3D3D3" stroke-width="0.292519"/>
<path fill-rule="evenodd" clip-rule="evenodd" d="M6.37939 13.9426C6.37939 11.9286 8.0121 10.2959 10.0261 10.2959H44.5586C44.7015 10.2959 44.8424 10.3041 44.981 10.3201L44.9834 10.3177L44.9864 10.3207C46.7989 10.5325 48.2054 12.0733 48.2054 13.9426C48.2054 15.9567 46.5727 17.5894 44.5586 17.5894H10.0261C8.0121 17.5894 6.37939 15.9567 6.37939 13.9426ZM44.5586 17.4406C44.8468 17.4406 45.1268 17.4057 45.3947 17.34L41.1613 13.1065C41.0956 13.3744 41.0607 13.6545 41.0607 13.9426C41.0607 14.0821 41.0689 14.2196 41.0847 14.3547L44.1465 17.4165C44.2817 17.4324 44.4192 17.4406 44.5586 17.4406ZM41.1231 14.6036L43.8977 17.3782C42.4959 17.1101 41.3911 16.0054 41.1231 14.6036ZM41.2063 12.941L45.5603 17.295C45.8907 17.1964 46.2007 17.0503 46.4822 16.8646L41.6367 12.019C41.451 12.3006 41.3048 12.6105 41.2063 12.941ZM41.7227 11.8946L46.6067 16.7786C46.8806 16.5804 47.1247 16.3435 47.3309 16.0759L42.4253 11.1704C42.1578 11.3766 41.9209 11.6206 41.7227 11.8946ZM42.5465 11.081L47.4202 15.9548C47.6125 15.6818 47.7667 15.3801 47.8752 15.0573L43.444 10.6261C43.1212 10.7345 42.8195 10.8888 42.5465 11.081ZM43.6047 10.5764L47.9249 14.8965C48.0106 14.5933 48.0565 14.2733 48.0565 13.9426C48.0565 13.8213 48.0503 13.7013 48.0383 13.5831L44.9182 10.463C44.8 10.4509 44.68 10.4447 44.5586 10.4447C44.2279 10.4447 43.908 10.4906 43.6047 10.5764ZM43.524 10.4447C42.0139 10.8907 40.9119 12.288 40.9119 13.9426C40.9119 15.5973 42.0139 16.9946 43.524 17.4406H10.0261C8.09431 17.4406 6.52824 15.8745 6.52824 13.9426C6.52824 12.0108 8.09431 10.4447 10.0261 10.4447H43.524ZM48.0046 13.339L45.1623 10.4966C46.6104 10.7486 47.7527 11.8909 48.0046 13.339Z" fill="#2651A8"/>
<path fill-rule="evenodd" clip-rule="evenodd" d="M45.0467 10.1972C46.9021 10.4366 48.3355 12.0222 48.3355 13.9428C48.3355 16.0286 46.6445 17.7196 44.5586 17.7196H10.0261C7.94022 17.7196 6.24927 16.0286 6.24927 13.9428C6.24927 11.8569 7.94022 10.1659 10.0261 10.1659H44.5586C44.6849 10.1659 44.8097 10.1721 44.9329 10.1842L44.9833 10.1338L45.0467 10.1972ZM43.6633 10.4261H43.5401L43.5447 10.4583L43.5693 10.4513C43.6005 10.4425 43.6318 10.4341 43.6633 10.4261ZM43.5401 17.4594H43.6633C43.6235 17.4493 43.584 17.4386 43.5448 17.4272L43.5401 17.4594ZM43.4642 17.1288C42.4846 16.7923 41.709 16.0167 41.3726 15.0372L43.4642 17.1288ZM47.8538 14.6416C47.9014 14.4163 47.9264 14.1825 47.9264 13.9428C47.9264 13.8414 47.9219 13.7411 47.9132 13.6421L44.8592 10.5882C44.7602 10.5794 44.66 10.5749 44.5586 10.5749C44.3189 10.5749 44.0851 10.6 43.8597 10.6475L47.8538 14.6416ZM42.8474 10.5749H10.0261C8.16613 10.5749 6.65831 12.0828 6.65831 13.9428C6.65831 15.8027 8.16613 17.3106 10.0261 17.3106H42.8474C41.6216 16.6865 40.7818 15.4128 40.7818 13.9428C40.7818 12.4727 41.6216 11.199 42.8474 10.5749ZM41.2395 13.3688C41.2075 13.5553 41.1908 13.747 41.1908 13.9428C41.1908 14.0618 41.197 14.1794 41.209 14.2952L44.2062 17.2924C44.322 17.3044 44.4396 17.3106 44.5586 17.3106C44.7543 17.3106 44.9461 17.2939 45.1325 17.2619L41.2395 13.3688ZM41.6602 12.2267C41.5343 12.4388 41.4311 12.6659 41.3538 12.9047L45.5967 17.1476C45.8354 17.0703 46.0626 16.9671 46.2747 16.8412L41.6602 12.2267ZM47.4003 15.751C47.5315 15.5453 47.6409 15.3244 47.7254 15.0917L43.4097 10.776C43.1769 10.8604 42.9561 10.9699 42.7504 11.101L47.4003 15.751ZM45.5831 10.7336C46.619 11.064 47.4373 11.8823 47.7678 12.9183L45.5831 10.7336ZM41.8944 11.8824L46.619 16.607C46.8169 16.4537 46.9973 16.2788 47.1567 16.0858L42.4155 11.3447C42.2226 11.504 42.0477 11.6844 41.8944 11.8824Z" fill="#2651A8"/>
<path d="M10.502 13.3548C10.502 13.4896 10.4701 13.6037 10.4063 13.6971C10.3436 13.7893 10.2496 13.8596 10.1243 13.9081C9.99903 13.9553 9.843 13.979 9.65623 13.979C9.51793 13.979 9.39913 13.9701 9.29984 13.9524C9.20173 13.9346 9.10243 13.9051 9.00196 13.8637V13.4169C9.10953 13.4654 9.22478 13.5056 9.34771 13.5375C9.47183 13.5682 9.58058 13.5836 9.67396 13.5836C9.77917 13.5836 9.85423 13.5682 9.89915 13.5375C9.94525 13.5056 9.9683 13.4642 9.9683 13.4134C9.9683 13.3803 9.95884 13.3507 9.93993 13.3247C9.9222 13.2975 9.88319 13.2674 9.8229 13.2343C9.76262 13.2 9.66805 13.1557 9.53921 13.1013C9.41509 13.0493 9.31284 12.9967 9.23246 12.9435C9.15326 12.8903 9.09416 12.8276 9.05515 12.7555C9.01733 12.6822 8.99841 12.5895 8.99841 12.4772C8.99841 12.2939 9.06934 12.1562 9.21119 12.064C9.35422 11.9706 9.54512 11.924 9.7839 11.924C9.90683 11.924 10.0239 11.9364 10.135 11.9612C10.2473 11.986 10.3625 12.0256 10.4807 12.08L10.3176 12.4701C10.2195 12.4275 10.1267 12.3926 10.0392 12.3655C9.95293 12.3383 9.86487 12.3247 9.77503 12.3247C9.69583 12.3247 9.63614 12.3353 9.59595 12.3566C9.55576 12.3779 9.53566 12.4104 9.53566 12.4541C9.53566 12.486 9.54571 12.5144 9.5658 12.5392C9.58708 12.564 9.62727 12.5918 9.68638 12.6226C9.74666 12.6521 9.83473 12.6905 9.95057 12.7378C10.0629 12.7839 10.1604 12.8324 10.2431 12.8832C10.3259 12.9328 10.3897 12.9949 10.4346 13.0694C10.4795 13.1427 10.502 13.2378 10.502 13.3548Z" fill="#2651A8"/>
<path d="M11.9044 13.5481C11.9635 13.5481 12.0208 13.5422 12.0764 13.5304C12.1331 13.5186 12.1893 13.5038 12.2448 13.4861V13.8885C12.1869 13.9146 12.1148 13.9358 12.0285 13.9524C11.9434 13.9701 11.85 13.979 11.7483 13.979C11.6301 13.979 11.5238 13.9601 11.4292 13.9222C11.3358 13.8832 11.2619 13.8164 11.2076 13.7219C11.1544 13.6261 11.1278 13.4931 11.1278 13.3229V12.3672H10.8689V12.1385L11.1668 11.9576L11.3228 11.5392H11.6686V11.9612H12.2235V12.3672H11.6686V13.3229C11.6686 13.3986 11.6898 13.4553 11.7324 13.4931C11.7761 13.5298 11.8335 13.5481 11.9044 13.5481Z" fill="#2651A8"/>
<path d="M13.899 11.924C13.9262 11.924 13.9575 11.9257 13.993 11.9293C14.0296 11.9316 14.0591 11.9352 14.0816 11.9399L14.0408 12.447C14.0231 12.4411 13.9977 12.437 13.9646 12.4346C13.9327 12.4311 13.9049 12.4293 13.8812 12.4293C13.8115 12.4293 13.7435 12.4382 13.6773 12.4559C13.6123 12.4736 13.5538 12.5026 13.5018 12.5428C13.4498 12.5818 13.4084 12.6338 13.3777 12.6988C13.3481 12.7626 13.3334 12.8412 13.3334 12.9346V13.9435H12.7926V11.9612H13.2021L13.2819 12.2945H13.3085C13.3475 12.2272 13.396 12.1657 13.4539 12.1101C13.513 12.0534 13.5798 12.0085 13.6543 11.9754C13.7299 11.9411 13.8115 11.924 13.899 11.924Z" fill="#2651A8"/>
<path d="M16.3883 12.9488C16.3883 13.1143 16.3658 13.2609 16.3209 13.3885C16.2772 13.5162 16.2127 13.6244 16.1276 13.713C16.0437 13.8005 15.942 13.8667 15.8226 13.9116C15.7044 13.9565 15.5709 13.979 15.4219 13.979C15.2824 13.979 15.1542 13.9565 15.0372 13.9116C14.9213 13.8667 14.8203 13.8005 14.734 13.713C14.6489 13.6244 14.5827 13.5162 14.5354 13.3885C14.4893 13.2609 14.4662 13.1143 14.4662 12.9488C14.4662 12.7289 14.5052 12.5428 14.5833 12.3903C14.6613 12.2378 14.7724 12.1219 14.9166 12.0428C15.0608 11.9636 15.2328 11.924 15.4326 11.924C15.6182 11.924 15.7825 11.9636 15.9255 12.0428C16.0697 12.1219 16.1826 12.2378 16.2641 12.3903C16.3469 12.5428 16.3883 12.7289 16.3883 12.9488ZM15.0177 12.9488C15.0177 13.0788 15.0318 13.1882 15.0602 13.2768C15.0886 13.3655 15.1329 13.4323 15.1932 13.4772C15.2535 13.5221 15.3321 13.5446 15.429 13.5446C15.5248 13.5446 15.6022 13.5221 15.6613 13.4772C15.7216 13.4323 15.7653 13.3655 15.7925 13.2768C15.8209 13.1882 15.8351 13.0788 15.8351 12.9488C15.8351 12.8176 15.8209 12.7088 15.7925 12.6226C15.7653 12.5351 15.7216 12.4695 15.6613 12.4257C15.601 12.382 15.5224 12.3601 15.4255 12.3601C15.2824 12.3601 15.1784 12.4092 15.1134 12.5073C15.0496 12.6054 15.0177 12.7526 15.0177 12.9488Z" fill="#2651A8"/>
<path d="M16.6966 11.9612H17.2889L17.663 13.0765C17.6748 13.1119 17.6849 13.148 17.6931 13.1846C17.7014 13.2213 17.7085 13.2591 17.7144 13.2981C17.7203 13.3371 17.725 13.3779 17.7286 13.4204H17.7392C17.7463 13.3566 17.7558 13.2969 17.7676 13.2414C17.7806 13.1858 17.7966 13.1308 17.8155 13.0765L18.1825 11.9612H18.7623L17.9236 14.1971C17.8728 14.3342 17.8066 14.4483 17.725 14.5393C17.6435 14.6315 17.5495 14.7006 17.4431 14.7467C17.3379 14.7928 17.2221 14.8159 17.0956 14.8159C17.0341 14.8159 16.9809 14.8123 16.936 14.8052C16.8911 14.7993 16.8527 14.7928 16.8208 14.7857V14.3566C16.8456 14.3626 16.8769 14.3679 16.9147 14.3726C16.9526 14.3773 16.9922 14.3797 17.0335 14.3797C17.1092 14.3797 17.1742 14.3637 17.2286 14.3318C17.2829 14.2999 17.3285 14.2568 17.3651 14.2024C17.4017 14.1492 17.4307 14.0907 17.452 14.0268L17.4839 13.9293L16.6966 11.9612Z" fill="#2651A8"/>
<path d="M19.7338 11.1846V12.4186C19.7338 12.4931 19.7309 12.5676 19.725 12.6421C19.719 12.7165 19.7125 12.791 19.7055 12.8655H19.7125C19.7492 12.8135 19.7864 12.762 19.8243 12.7112C19.8633 12.6604 19.9046 12.6113 19.9484 12.564L20.5033 11.9612H21.1133L20.326 12.8211L21.1612 13.9435H20.537L19.9661 13.1403L19.7338 13.3265V13.9435H19.193V11.1846H19.7338Z" fill="#2651A8"/>
<path d="M22.4022 11.9204C22.6682 11.9204 22.8721 11.9783 23.0139 12.0942C23.1558 12.21 23.2267 12.3861 23.2267 12.6226V13.9435H22.849L22.7444 13.674H22.7302C22.6735 13.7449 22.6156 13.8028 22.5565 13.8478C22.4974 13.8927 22.4294 13.9258 22.3525 13.9471C22.2757 13.9683 22.1823 13.979 22.0724 13.979C21.9554 13.979 21.8502 13.9565 21.7568 13.9116C21.6646 13.8667 21.5919 13.7981 21.5387 13.7059C21.4855 13.6125 21.4589 13.4943 21.4589 13.3513C21.4589 13.1409 21.5328 12.986 21.6805 12.8867C21.8283 12.7863 22.0499 12.7307 22.3455 12.7201L22.6894 12.7094V12.6226C22.6894 12.5185 22.6622 12.4423 22.6079 12.3938C22.5535 12.3454 22.4778 12.3211 22.3809 12.3211C22.2852 12.3211 22.1912 12.3347 22.099 12.3619C22.0068 12.3891 21.9146 12.4234 21.8224 12.4647L21.6433 12.0995C21.7485 12.0439 21.8661 12.0002 21.9962 11.9683C22.1274 11.9364 22.2627 11.9204 22.4022 11.9204ZM22.6894 13.025L22.4802 13.0321C22.3053 13.0369 22.1835 13.0682 22.115 13.1261C22.0476 13.184 22.0139 13.2603 22.0139 13.3548C22.0139 13.4376 22.0381 13.4967 22.0866 13.5322C22.135 13.5664 22.1983 13.5836 22.2763 13.5836C22.3921 13.5836 22.4897 13.5493 22.5689 13.4807C22.6492 13.4122 22.6894 13.3147 22.6894 13.1882V13.025Z" fill="#2651A8"/>
<path d="M24.4713 11.9612V13.9435H23.9305V11.9612H24.4713ZM24.2017 11.1846C24.2821 11.1846 24.3513 11.2035 24.4092 11.2413C24.4671 11.278 24.4961 11.3471 24.4961 11.4488C24.4961 11.5492 24.4671 11.619 24.4092 11.658C24.3513 11.6958 24.2821 11.7147 24.2017 11.7147C24.1202 11.7147 24.0504 11.6958 23.9925 11.658C23.9358 11.619 23.9074 11.5492 23.9074 11.4488C23.9074 11.3471 23.9358 11.278 23.9925 11.2413C24.0504 11.2035 24.1202 11.1846 24.2017 11.1846Z" fill="#2651A8"/>
<path d="M26.2885 11.924C26.512 11.924 26.6922 12.0108 26.8293 12.1846C26.9676 12.3584 27.0368 12.6131 27.0368 12.9488C27.0368 13.1734 27.0043 13.3625 26.9393 13.5162C26.8743 13.6687 26.7844 13.7839 26.6698 13.862C26.5551 13.94 26.4233 13.979 26.2744 13.979C26.1786 13.979 26.0965 13.9672 26.0279 13.9435C25.9593 13.9187 25.9008 13.8874 25.8524 13.8495C25.8039 13.8105 25.7619 13.7692 25.7265 13.7254H25.6981C25.7076 13.7727 25.7147 13.8212 25.7194 13.8708C25.7241 13.9205 25.7265 13.9689 25.7265 14.0162V14.8159H25.1857V11.9612H25.6254L25.7016 12.2183H25.7265C25.7619 12.1651 25.8051 12.116 25.8559 12.0711C25.9067 12.0262 25.9676 11.9907 26.0385 11.9647C26.1106 11.9375 26.194 11.924 26.2885 11.924ZM26.1148 12.3566C26.0202 12.3566 25.9452 12.3761 25.8896 12.4151C25.834 12.4541 25.7933 12.5126 25.7673 12.5906C25.7424 12.6687 25.7288 12.7674 25.7265 12.8867V12.9453C25.7265 13.0729 25.7383 13.1811 25.7619 13.2697C25.7868 13.3584 25.8275 13.4258 25.8843 13.4719C25.9422 13.518 26.0214 13.541 26.1219 13.541C26.2046 13.541 26.2726 13.518 26.3258 13.4719C26.379 13.4258 26.4186 13.3584 26.4446 13.2697C26.4718 13.1799 26.4854 13.0706 26.4854 12.9417C26.4854 12.7479 26.4552 12.6019 26.3949 12.5038C26.3346 12.4056 26.2413 12.3566 26.1148 12.3566Z" fill="#2651A8"/>
<path d="M28.7353 11.924C28.7625 11.924 28.7938 11.9257 28.8293 11.9293C28.8659 11.9316 28.8955 11.9352 28.9179 11.9399L28.8771 12.447C28.8594 12.4411 28.834 12.437 28.8009 12.4346C28.769 12.4311 28.7412 12.4293 28.7176 12.4293C28.6478 12.4293 28.5798 12.4382 28.5136 12.4559C28.4486 12.4736 28.3901 12.5026 28.3381 12.5428C28.2861 12.5818 28.2447 12.6338 28.214 12.6988C28.1844 12.7626 28.1697 12.8412 28.1697 12.9346V13.9435H27.6289V11.9612H28.0385L28.1182 12.2945H28.1448C28.1838 12.2272 28.2323 12.1657 28.2902 12.1101C28.3493 12.0534 28.4161 12.0085 28.4906 11.9754C28.5662 11.9411 28.6478 11.924 28.7353 11.924Z" fill="#2651A8"/>
<path d="M31.2246 12.9488C31.2246 13.1143 31.2021 13.2609 31.1572 13.3885C31.1135 13.5162 31.049 13.6244 30.9639 13.713C30.88 13.8005 30.7783 13.8667 30.659 13.9116C30.5407 13.9565 30.4072 13.979 30.2582 13.979C30.1187 13.979 29.9905 13.9565 29.8735 13.9116C29.7576 13.8667 29.6566 13.8005 29.5703 13.713C29.4852 13.6244 29.419 13.5162 29.3717 13.3885C29.3256 13.2609 29.3025 13.1143 29.3025 12.9488C29.3025 12.7289 29.3415 12.5428 29.4196 12.3903C29.4976 12.2378 29.6087 12.1219 29.7529 12.0428C29.8971 11.9636 30.0691 11.924 30.2689 11.924C30.4545 11.924 30.6188 11.9636 30.7618 12.0428C30.906 12.1219 31.0189 12.2378 31.1005 12.3903C31.1832 12.5428 31.2246 12.7289 31.2246 12.9488ZM29.854 12.9488C29.854 13.0788 29.8682 13.1882 29.8965 13.2768C29.9249 13.3655 29.9692 13.4323 30.0295 13.4772C30.0898 13.5221 30.1684 13.5446 30.2653 13.5446C30.3611 13.5446 30.4385 13.5221 30.4976 13.4772C30.5579 13.4323 30.6016 13.3655 30.6288 13.2768C30.6572 13.1882 30.6714 13.0788 30.6714 12.9488C30.6714 12.8176 30.6572 12.7088 30.6288 12.6226C30.6016 12.5351 30.5579 12.4695 30.4976 12.4257C30.4373 12.382 30.3587 12.3601 30.2618 12.3601C30.1187 12.3601 30.0147 12.4092 29.9497 12.5073C29.8859 12.6054 29.854 12.7526 29.854 12.9488Z" fill="#2651A8"/>
<path d="M34.1447 11.924C34.3693 11.924 34.5389 11.9819 34.6536 12.0977C34.7694 12.2124 34.8274 12.3968 34.8274 12.6509V13.9435H34.2848V12.7857C34.2848 12.6438 34.2606 12.5369 34.2121 12.4647C34.1636 12.3926 34.0886 12.3566 33.9869 12.3566C33.8439 12.3566 33.7422 12.408 33.6819 12.5108C33.6217 12.6125 33.5915 12.7585 33.5915 12.9488V13.9435H33.0507V12.7857C33.0507 12.6911 33.0401 12.6119 33.0188 12.5481C32.9975 12.4843 32.965 12.4364 32.9213 12.4045C32.8775 12.3725 32.8214 12.3566 32.7528 12.3566C32.6524 12.3566 32.5732 12.382 32.5152 12.4328C32.4585 12.4825 32.4177 12.5564 32.3929 12.6545C32.3693 12.7514 32.3574 12.8702 32.3574 13.0109V13.9435H31.8166V11.9612H32.2298L32.3025 12.2147H32.3326C32.3728 12.1462 32.423 12.0906 32.4833 12.0481C32.5448 12.0055 32.6122 11.9742 32.6855 11.9541C32.7588 11.934 32.8332 11.924 32.9089 11.924C33.0543 11.924 33.1772 11.9476 33.2777 11.9949C33.3793 12.0422 33.4574 12.1154 33.5117 12.2147H33.5596C33.6187 12.1131 33.702 12.0392 33.8096 11.9931C33.9184 11.947 34.0301 11.924 34.1447 11.924Z" fill="#2651A8"/>
<path d="M36.0702 11.1846V12.4186C36.0702 12.4931 36.0672 12.5676 36.0613 12.6421C36.0554 12.7165 36.0489 12.791 36.0418 12.8655H36.0489C36.0855 12.8135 36.1228 12.762 36.1606 12.7112C36.1996 12.6604 36.241 12.6113 36.2847 12.564L36.8397 11.9612H37.4496L36.6624 12.8211L37.4975 13.9435H36.8734L36.3024 13.1403L36.0702 13.3265V13.9435H35.5294V11.1846H36.0702Z" fill="#2651A8"/>
<path d="M38.7385 11.9204C39.0045 11.9204 39.2084 11.9783 39.3503 12.0942C39.4921 12.21 39.563 12.3861 39.563 12.6226V13.9435H39.1854L39.0808 13.674H39.0666C39.0098 13.7449 38.9519 13.8028 38.8928 13.8478C38.8337 13.8927 38.7657 13.9258 38.6889 13.9471C38.6121 13.9683 38.5187 13.979 38.4087 13.979C38.2917 13.979 38.1865 13.9565 38.0931 13.9116C38.0009 13.8667 37.9282 13.7981 37.875 13.7059C37.8219 13.6125 37.7953 13.4943 37.7953 13.3513C37.7953 13.1409 37.8691 12.986 38.0169 12.8867C38.1646 12.7863 38.3863 12.7307 38.6818 12.7201L39.0258 12.7094V12.6226C39.0258 12.5185 38.9986 12.4423 38.9442 12.3938C38.8898 12.3454 38.8142 12.3211 38.7173 12.3211C38.6215 12.3211 38.5275 12.3347 38.4353 12.3619C38.3431 12.3891 38.2509 12.4234 38.1587 12.4647L37.9797 12.0995C38.0849 12.0439 38.2025 12.0002 38.3325 11.9683C38.4637 11.9364 38.5991 11.9204 38.7385 11.9204ZM39.0258 13.025L38.8166 13.0321C38.6416 13.0369 38.5199 13.0682 38.4513 13.1261C38.3839 13.184 38.3502 13.2603 38.3502 13.3548C38.3502 13.4376 38.3745 13.4967 38.4229 13.5322C38.4714 13.5664 38.5346 13.5836 38.6127 13.5836C38.7285 13.5836 38.826 13.5493 38.9052 13.4807C38.9856 13.4122 39.0258 13.3147 39.0258 13.1882V13.025Z" fill="#2651A8"/>
<path d="M9.29958 15.9654C9.22046 15.9654 9.15193 15.95 9.09398 15.9193C9.03603 15.8885 8.99144 15.8414 8.96019 15.7779C8.92895 15.7144 8.91333 15.6338 8.91333 15.5361C8.91333 15.4343 8.93046 15.3511 8.96473 15.2866C8.99899 15.2221 9.04636 15.1745 9.10683 15.1438C9.1678 15.113 9.2376 15.0977 9.31621 15.0977C9.36609 15.0977 9.41119 15.1027 9.4515 15.1128C9.49232 15.1223 9.52684 15.1342 9.55506 15.1483L9.50215 15.2904C9.47141 15.2778 9.43991 15.2672 9.40766 15.2587C9.37541 15.2501 9.34442 15.2458 9.31469 15.2458C9.26581 15.2458 9.225 15.2566 9.19224 15.2783C9.15999 15.3 9.13581 15.3322 9.11968 15.3751C9.10406 15.4179 9.09625 15.4711 9.09625 15.5345C9.09625 15.596 9.10431 15.6479 9.12044 15.6903C9.13656 15.7321 9.1605 15.7638 9.19224 15.7855C9.22399 15.8067 9.26304 15.8172 9.3094 15.8172C9.35526 15.8172 9.39633 15.8117 9.43261 15.8006C9.46889 15.7895 9.50316 15.7752 9.53541 15.7575V15.9117C9.50366 15.9299 9.46965 15.9432 9.43336 15.9518C9.39708 15.9609 9.35249 15.9654 9.29958 15.9654Z" fill="#2651A8"/>
<path d="M10.4412 15.2534H10.1661V15.9503H9.98923V15.2534H9.7156V15.1135H10.4412V15.2534Z" fill="#2651A8"/>
<path d="M11.1097 15.0977C11.209 15.0977 11.2886 15.1339 11.3486 15.2065C11.409 15.2791 11.4393 15.3869 11.4393 15.53C11.4393 15.6247 11.4252 15.7046 11.3969 15.7696C11.3692 15.8341 11.3302 15.883 11.2798 15.9163C11.2299 15.949 11.1717 15.9654 11.1052 15.9654C11.0629 15.9654 11.0261 15.9598 10.9948 15.9488C10.9636 15.9377 10.9369 15.9233 10.9147 15.9057C10.8925 15.8875 10.8739 15.8679 10.8588 15.8467H10.8482C10.8507 15.8669 10.853 15.8893 10.855 15.914C10.8575 15.9382 10.8588 15.9603 10.8588 15.9805V16.3214H10.6804V15.1135H10.8255L10.8505 15.2292H10.8588C10.8744 15.2055 10.8933 15.1836 10.9155 15.1634C10.9381 15.1433 10.9653 15.1274 10.9971 15.1158C11.0293 15.1037 11.0669 15.0977 11.1097 15.0977ZM11.0621 15.2428C11.0132 15.2428 10.9739 15.2526 10.9442 15.2723C10.915 15.2914 10.8935 15.3204 10.8799 15.3592C10.8668 15.398 10.8598 15.4466 10.8588 15.5051V15.53C10.8588 15.592 10.8651 15.6446 10.8777 15.688C10.8908 15.7308 10.9122 15.7636 10.9419 15.7862C10.9722 15.8084 11.013 15.8195 11.0644 15.8195C11.1077 15.8195 11.1435 15.8077 11.1717 15.784C11.2004 15.7603 11.2218 15.7265 11.2359 15.6827C11.2501 15.6389 11.2571 15.5872 11.2571 15.5277C11.2571 15.4375 11.241 15.3675 11.2087 15.3176C11.177 15.2677 11.1281 15.2428 11.0621 15.2428Z" fill="#2651A8"/>
<path d="M12.463 15.53C12.463 15.5995 12.4539 15.6613 12.4358 15.7152C12.4177 15.7691 12.3912 15.8147 12.3564 15.852C12.3217 15.8888 12.2798 15.917 12.231 15.9367C12.1821 15.9558 12.1269 15.9654 12.0654 15.9654C12.008 15.9654 11.9553 15.9558 11.9075 15.9367C11.8596 15.917 11.818 15.8888 11.7827 15.852C11.748 15.8147 11.721 15.7691 11.7019 15.7152C11.6827 15.6613 11.6731 15.5995 11.6731 15.53C11.6731 15.4378 11.689 15.3597 11.7208 15.2957C11.753 15.2312 11.7989 15.1821 11.8583 15.1483C11.9178 15.1145 11.9886 15.0977 12.0707 15.0977C12.1478 15.0977 12.2158 15.1145 12.2748 15.1483C12.3338 15.1821 12.3799 15.2312 12.4131 15.2957C12.4464 15.3602 12.463 15.4383 12.463 15.53ZM11.8561 15.53C11.8561 15.591 11.8634 15.6431 11.878 15.6865C11.8931 15.7298 11.9163 15.7631 11.9475 15.7862C11.9788 15.8089 12.0191 15.8203 12.0685 15.8203C12.1178 15.8203 12.1582 15.8089 12.1894 15.7862C12.2206 15.7631 12.2436 15.7298 12.2582 15.6865C12.2728 15.6431 12.2801 15.591 12.2801 15.53C12.2801 15.469 12.2728 15.4174 12.2582 15.3751C12.2436 15.3322 12.2206 15.2997 12.1894 15.2776C12.1582 15.2549 12.1176 15.2435 12.0677 15.2435C11.9941 15.2435 11.9405 15.2682 11.9067 15.3176C11.8729 15.367 11.8561 15.4378 11.8561 15.53Z" fill="#2651A8"/>
<path d="M12.9153 15.1135V15.5406C12.9153 15.5542 12.9148 15.5716 12.9138 15.5927C12.9133 15.6134 12.9123 15.6351 12.9108 15.6578C12.9093 15.6799 12.9078 15.7003 12.9063 15.719C12.9047 15.7376 12.9035 15.7515 12.9025 15.7605L13.3235 15.1135H13.5397V15.9503H13.3696V15.5277C13.3696 15.5056 13.3701 15.4799 13.3711 15.4506C13.3726 15.4214 13.3741 15.3932 13.3756 15.366C13.3777 15.3388 13.3789 15.3181 13.3794 15.304L12.9599 15.9503H12.7445V15.1135H12.9153Z" fill="#2651A8"/>
<path d="M14.5045 15.2534H14.2293V15.9503H14.0524V15.2534H13.7788V15.1135H14.5045V15.2534Z" fill="#2651A8"/>
<path d="M15.0769 15.0977C15.1515 15.0977 15.2155 15.113 15.2689 15.1438C15.3223 15.1745 15.3634 15.2181 15.3921 15.2745C15.4209 15.331 15.4352 15.3985 15.4352 15.4771V15.5723H14.8766C14.8787 15.6535 14.9003 15.716 14.9416 15.7598C14.9835 15.8036 15.0419 15.8256 15.117 15.8256C15.1704 15.8256 15.2183 15.8205 15.2606 15.8104C15.3034 15.7999 15.3475 15.7845 15.3929 15.7643V15.9087C15.3511 15.9283 15.3085 15.9427 15.2652 15.9518C15.2218 15.9609 15.1699 15.9654 15.1094 15.9654C15.0273 15.9654 14.955 15.9495 14.8925 15.9178C14.8305 15.8855 14.7819 15.8376 14.7466 15.7742C14.7119 15.7107 14.6945 15.6318 14.6945 15.5376C14.6945 15.4438 14.7103 15.3642 14.7421 15.2987C14.7738 15.2332 14.8184 15.1833 14.8759 15.1491C14.9333 15.1148 15.0003 15.0977 15.0769 15.0977ZM15.0769 15.2314C15.021 15.2314 14.9757 15.2496 14.9409 15.2859C14.9066 15.3221 14.8865 15.3753 14.8804 15.4454H15.2614C15.2609 15.4035 15.2538 15.3665 15.2402 15.3342C15.2271 15.302 15.2069 15.2768 15.1797 15.2587C15.153 15.2405 15.1188 15.2314 15.0769 15.2314Z" fill="#2651A8"/>
<path d="M16.4015 15.9503H16.2224V15.2526H15.9903C15.9802 15.3796 15.9677 15.4882 15.9525 15.5784C15.9374 15.6686 15.9185 15.7422 15.8958 15.7991C15.8732 15.8555 15.8452 15.8969 15.8119 15.9231C15.7787 15.9493 15.7386 15.9624 15.6918 15.9624C15.6711 15.9624 15.6525 15.9609 15.6358 15.9578C15.6192 15.9553 15.6043 15.9513 15.5912 15.9457V15.8059C15.5998 15.8089 15.6091 15.8114 15.6192 15.8135C15.6293 15.8155 15.6396 15.8165 15.6502 15.8165C15.6688 15.8165 15.686 15.8089 15.7016 15.7938C15.7177 15.7782 15.7326 15.7537 15.7462 15.7205C15.7598 15.6872 15.7721 15.6434 15.7832 15.589C15.7943 15.534 15.8044 15.4675 15.8135 15.3894C15.8225 15.3108 15.8306 15.2188 15.8376 15.1135H16.4015V15.9503Z" fill="#2651A8"/>
<path d="M16.912 15.4476H17.1199C17.1985 15.4476 17.2635 15.4567 17.3149 15.4748C17.3668 15.4925 17.4056 15.5192 17.4313 15.555C17.457 15.5907 17.4699 15.6356 17.4699 15.6895C17.4699 15.7424 17.4578 15.7885 17.4336 15.8278C17.4094 15.8666 17.3716 15.8969 17.3202 15.9185C17.2693 15.9397 17.2028 15.9503 17.1206 15.9503H16.7336V15.1135H16.912V15.4476ZM17.2915 15.694C17.2915 15.6522 17.2758 15.6227 17.2446 15.6056C17.2134 15.588 17.1688 15.5791 17.1108 15.5791H16.912V15.8195H17.1123C17.1652 15.8195 17.2083 15.8099 17.2416 15.7908C17.2748 15.7711 17.2915 15.7389 17.2915 15.694Z" fill="#2651A8"/>
<path d="M18.0809 15.9654C18.0018 15.9654 17.9332 15.95 17.8753 15.9193C17.8173 15.8885 17.7728 15.8414 17.7415 15.7779C17.7103 15.7144 17.6946 15.6338 17.6946 15.5361C17.6946 15.4343 17.7118 15.3511 17.746 15.2866C17.7803 15.2221 17.8277 15.1745 17.8881 15.1438C17.9491 15.113 18.0189 15.0977 18.0975 15.0977C18.1474 15.0977 18.1925 15.1027 18.2328 15.1128C18.2736 15.1223 18.3082 15.1342 18.3364 15.1483L18.2835 15.2904C18.2527 15.2778 18.2212 15.2672 18.189 15.2587C18.1567 15.2501 18.1257 15.2458 18.096 15.2458C18.0471 15.2458 18.0063 15.2566 17.9736 15.2783C17.9413 15.3 17.9171 15.3322 17.901 15.3751C17.8854 15.4179 17.8776 15.4711 17.8776 15.5345C17.8776 15.596 17.8856 15.6479 17.9018 15.6903C17.9179 15.7321 17.9418 15.7638 17.9736 15.7855C18.0053 15.8067 18.0444 15.8172 18.0907 15.8172C18.1366 15.8172 18.1776 15.8117 18.2139 15.8006C18.2502 15.7895 18.2845 15.7752 18.3167 15.7575V15.9117C18.285 15.9299 18.251 15.9432 18.2147 15.9518C18.1784 15.9609 18.1338 15.9654 18.0809 15.9654Z" fill="#2651A8"/>
<path d="M19.2225 15.2534H18.9474V15.9503H18.7705V15.2534H18.4969V15.1135H19.2225V15.2534Z" fill="#2651A8"/>
<path d="M20.1654 15.3282C20.1654 15.3766 20.1505 15.4161 20.1208 15.4469C20.0916 15.4771 20.0513 15.497 19.9999 15.5066V15.5126C20.0548 15.5197 20.1007 15.5391 20.1374 15.5708C20.1742 15.6026 20.1926 15.6467 20.1926 15.7031C20.1926 15.751 20.1805 15.7936 20.1563 15.8308C20.1327 15.8676 20.0949 15.8969 20.043 15.9185C19.9916 15.9397 19.9243 15.9503 19.8411 15.9503H19.4617V15.1135H19.8396C19.9021 15.1135 19.9578 15.1203 20.0067 15.1339C20.0561 15.1475 20.0949 15.17 20.1231 15.2012C20.1513 15.2325 20.1654 15.2748 20.1654 15.3282ZM20.0074 15.6971C20.0074 15.6557 19.9916 15.626 19.9598 15.6079C19.9286 15.5897 19.8827 15.5807 19.8223 15.5807H19.6401V15.8195H19.826C19.8825 15.8195 19.9268 15.8102 19.9591 15.7915C19.9913 15.7724 20.0074 15.7409 20.0074 15.6971ZM19.9848 15.3441C19.9848 15.3113 19.9724 15.2871 19.9477 15.2715C19.923 15.2554 19.8842 15.2473 19.8313 15.2473H19.6401V15.4499H19.8071C19.8656 15.4499 19.9097 15.4416 19.9394 15.4249C19.9696 15.4078 19.9848 15.3809 19.9848 15.3441Z" fill="#2651A8"/>
<path d="M21.2111 15.53C21.2111 15.5995 21.202 15.6613 21.1839 15.7152C21.1657 15.7691 21.1393 15.8147 21.1045 15.852C21.0697 15.8888 21.0279 15.917 20.979 15.9367C20.9301 15.9558 20.875 15.9654 20.8135 15.9654C20.756 15.9654 20.7034 15.9558 20.6555 15.9367C20.6076 15.917 20.5661 15.8888 20.5308 15.852C20.496 15.8147 20.4691 15.7691 20.4499 15.7152C20.4308 15.6613 20.4212 15.5995 20.4212 15.53C20.4212 15.4378 20.4371 15.3597 20.4688 15.2957C20.5011 15.2312 20.5469 15.1821 20.6064 15.1483C20.6658 15.1145 20.7366 15.0977 20.8188 15.0977C20.8959 15.0977 20.9639 15.1145 21.0229 15.1483C21.0818 15.1821 21.1279 15.2312 21.1612 15.2957C21.1944 15.3602 21.2111 15.4383 21.2111 15.53ZM20.6041 15.53C20.6041 15.591 20.6114 15.6431 20.626 15.6865C20.6412 15.7298 20.6643 15.7631 20.6956 15.7862C20.7268 15.8089 20.7671 15.8203 20.8165 15.8203C20.8659 15.8203 20.9062 15.8089 20.9375 15.7862C20.9687 15.7631 20.9916 15.7298 21.0062 15.6865C21.0208 15.6431 21.0282 15.591 21.0282 15.53C21.0282 15.469 21.0208 15.4174 21.0062 15.3751C20.9916 15.3322 20.9687 15.2997 20.9375 15.2776C20.9062 15.2549 20.8656 15.2435 20.8158 15.2435C20.7422 15.2435 20.6885 15.2682 20.6548 15.3176C20.621 15.367 20.6041 15.4378 20.6041 15.53Z" fill="#2651A8"/>
<path d="M22.1429 15.1135V15.5406C22.1429 15.5542 22.1424 15.5716 22.1414 15.5927C22.1409 15.6134 22.1399 15.6351 22.1384 15.6578C22.1369 15.6799 22.1353 15.7003 22.1338 15.719C22.1323 15.7376 22.1311 15.7515 22.1301 15.7605L22.5511 15.1135H22.7672V15.9503H22.5972V15.5277C22.5972 15.5056 22.5977 15.4799 22.5987 15.4506C22.6002 15.4214 22.6017 15.3932 22.6032 15.366C22.6052 15.3388 22.6065 15.3181 22.607 15.304L22.1875 15.9503H21.9721V15.1135H22.1429Z" fill="#2651A8"/>
<path d="M24.3106 15.1135V15.9503H24.1314V15.2541H23.758V15.9503H23.5796V15.1135H24.3106Z" fill="#2651A8"/>
<path d="M25.072 15.0977C25.1713 15.0977 25.2509 15.1339 25.3109 15.2065C25.3713 15.2791 25.4016 15.3869 25.4016 15.53C25.4016 15.6247 25.3875 15.7046 25.3593 15.7696C25.3315 15.8341 25.2925 15.883 25.2421 15.9163C25.1922 15.949 25.134 15.9654 25.0675 15.9654C25.0252 15.9654 24.9884 15.9598 24.9571 15.9488C24.9259 15.9377 24.8992 15.9233 24.877 15.9057C24.8548 15.8875 24.8362 15.8679 24.8211 15.8467H24.8105C24.813 15.8669 24.8153 15.8893 24.8173 15.914C24.8198 15.9382 24.8211 15.9603 24.8211 15.9805V16.3214H24.6427V15.1135H24.7878L24.8128 15.2292H24.8211C24.8367 15.2055 24.8556 15.1836 24.8778 15.1634C24.9004 15.1433 24.9277 15.1274 24.9594 15.1158C24.9916 15.1037 25.0292 15.0977 25.072 15.0977ZM25.0244 15.2428C24.9755 15.2428 24.9362 15.2526 24.9065 15.2723C24.8773 15.2914 24.8558 15.3204 24.8422 15.3592C24.8291 15.398 24.8221 15.4466 24.8211 15.5051V15.53C24.8211 15.592 24.8274 15.6446 24.84 15.688C24.8531 15.7308 24.8745 15.7636 24.9042 15.7862C24.9345 15.8084 24.9753 15.8195 25.0267 15.8195C25.07 15.8195 25.1058 15.8077 25.134 15.784C25.1627 15.7603 25.1841 15.7265 25.1983 15.6827C25.2124 15.6389 25.2194 15.5872 25.2194 15.5277C25.2194 15.4375 25.2033 15.3675 25.171 15.3176C25.1393 15.2677 25.0904 15.2428 25.0244 15.2428Z" fill="#2651A8"/>
<path d="M26.4253 15.53C26.4253 15.5995 26.4163 15.6613 26.3981 15.7152C26.38 15.7691 26.3535 15.8147 26.3187 15.852C26.284 15.8888 26.2422 15.917 26.1933 15.9367C26.1444 15.9558 26.0892 15.9654 26.0277 15.9654C25.9703 15.9654 25.9176 15.9558 25.8698 15.9367C25.8219 15.917 25.7803 15.8888 25.745 15.852C25.7103 15.8147 25.6833 15.7691 25.6642 15.7152C25.645 15.6613 25.6354 15.5995 25.6354 15.53C25.6354 15.4378 25.6513 15.3597 25.6831 15.2957C25.7153 15.2312 25.7612 15.1821 25.8206 15.1483C25.8801 15.1145 25.9509 15.0977 26.033 15.0977C26.1101 15.0977 26.1782 15.1145 26.2371 15.1483C26.2961 15.1821 26.3422 15.2312 26.3754 15.2957C26.4087 15.3602 26.4253 15.4383 26.4253 15.53ZM25.8184 15.53C25.8184 15.591 25.8257 15.6431 25.8403 15.6865C25.8554 15.7298 25.8786 15.7631 25.9098 15.7862C25.9411 15.8089 25.9814 15.8203 26.0308 15.8203C26.0801 15.8203 26.1205 15.8089 26.1517 15.7862C26.1829 15.7631 26.2059 15.7298 26.2205 15.6865C26.2351 15.6431 26.2424 15.591 26.2424 15.53C26.2424 15.469 26.2351 15.4174 26.2205 15.3751C26.2059 15.3322 26.1829 15.2997 26.1517 15.2776C26.1205 15.2549 26.0799 15.2435 26.03 15.2435C25.9564 15.2435 25.9028 15.2682 25.869 15.3176C25.8352 15.367 25.8184 15.4378 25.8184 15.53Z" fill="#2651A8"/>
<path d="M27.6766 15.1135V15.9503H27.5118V15.4726C27.5118 15.4413 27.5126 15.4101 27.5141 15.3788C27.5156 15.3476 27.5176 15.3179 27.5201 15.2896H27.5156L27.2609 15.9503H27.121L26.8686 15.2889H26.8633C26.8658 15.3176 26.8676 15.3473 26.8686 15.3781C26.8701 15.4088 26.8708 15.4421 26.8708 15.4779V15.9503H26.706V15.1135H26.954L27.1928 15.7386L27.4355 15.1135H27.6766Z" fill="#2651A8"/>
<path d="M28.0057 15.9503V15.1135H28.1841V15.4476H28.3526C28.4312 15.4476 28.496 15.4567 28.5469 15.4748C28.5978 15.4925 28.6356 15.5192 28.6603 15.555C28.6849 15.5907 28.6973 15.6356 28.6973 15.6895C28.6973 15.7424 28.6855 15.7885 28.6618 15.8278C28.6381 15.8666 28.601 15.8969 28.5507 15.9185C28.5003 15.9397 28.4343 15.9503 28.3526 15.9503H28.0057ZM28.1841 15.8195H28.3405C28.3939 15.8195 28.437 15.8099 28.4698 15.7908C28.503 15.7711 28.5197 15.7389 28.5197 15.694C28.5197 15.6522 28.5043 15.6227 28.4736 15.6056C28.4433 15.588 28.399 15.5791 28.3405 15.5791H28.1841V15.8195ZM28.8265 15.9503V15.1135H29.0049V15.9503H28.8265Z" fill="#2651A8"/>
<path d="M30.5207 15.1135V15.9503H29.3363V15.1135H29.5139V15.8104H29.839V15.1135H30.0173V15.8104H30.3431V15.1135H30.5207Z" fill="#2651A8"/>
<path d="M31.5415 15.9503H31.3623V15.2526H31.1303C31.1202 15.3796 31.1076 15.4882 31.0925 15.5784C31.0774 15.6686 31.0585 15.7422 31.0358 15.7991C31.0131 15.8555 30.9851 15.8969 30.9519 15.9231C30.9186 15.9493 30.8786 15.9624 30.8317 15.9624C30.811 15.9624 30.7924 15.9609 30.7758 15.9578C30.7591 15.9553 30.7443 15.9513 30.7312 15.9457V15.8059C30.7397 15.8089 30.7491 15.8114 30.7591 15.8135C30.7692 15.8155 30.7795 15.8165 30.7901 15.8165C30.8088 15.8165 30.8259 15.8089 30.8415 15.7938C30.8577 15.7782 30.8725 15.7537 30.8861 15.7205C30.8997 15.6872 30.9121 15.6434 30.9232 15.589C30.9342 15.534 30.9443 15.4675 30.9534 15.3894C30.9625 15.3108 30.9705 15.2188 30.9776 15.1135H31.5415V15.9503Z" fill="#2651A8"/>
<path d="M32.2069 15.0977C32.2815 15.0977 32.3455 15.113 32.3989 15.1438C32.4523 15.1745 32.4934 15.2181 32.5221 15.2745C32.5508 15.331 32.5652 15.3985 32.5652 15.4771V15.5723H32.0066C32.0086 15.6535 32.0303 15.716 32.0716 15.7598C32.1134 15.8036 32.1719 15.8256 32.247 15.8256C32.3004 15.8256 32.3483 15.8205 32.3906 15.8104C32.4334 15.7999 32.4775 15.7845 32.5229 15.7643V15.9087C32.481 15.9283 32.4385 15.9427 32.3951 15.9518C32.3518 15.9609 32.2999 15.9654 32.2394 15.9654C32.1573 15.9654 32.085 15.9495 32.0225 15.9178C31.9605 15.8855 31.9119 15.8376 31.8766 15.7742C31.8418 15.7107 31.8245 15.6318 31.8245 15.5376C31.8245 15.4438 31.8403 15.3642 31.8721 15.2987C31.9038 15.2332 31.9484 15.1833 32.0059 15.1491C32.0633 15.1148 32.1303 15.0977 32.2069 15.0977ZM32.2069 15.2314C32.151 15.2314 32.1056 15.2496 32.0709 15.2859C32.0366 15.3221 32.0164 15.3753 32.0104 15.4454H32.3914C32.3908 15.4035 32.3838 15.3665 32.3702 15.3342C32.3571 15.302 32.3369 15.2768 32.3097 15.2587C32.283 15.2405 32.2487 15.2314 32.2069 15.2314Z" fill="#2651A8"/>
<path d="M33.0213 15.1135V15.4499H33.4128V15.1135H33.5912V15.9503H33.4128V15.589H33.0213V15.9503H32.8429V15.1135H33.0213Z" fill="#2651A8"/>
<path d="M34.101 15.1135V15.4499H34.4925V15.1135H34.6709V15.9503H34.4925V15.589H34.101V15.9503H33.9226V15.1135H34.101Z" fill="#2651A8"/>
<path d="M35.743 15.53C35.743 15.5995 35.7339 15.6613 35.7158 15.7152C35.6976 15.7691 35.6712 15.8147 35.6364 15.852C35.6017 15.8888 35.5598 15.917 35.5109 15.9367C35.4621 15.9558 35.4069 15.9654 35.3454 15.9654C35.288 15.9654 35.2353 15.9558 35.1874 15.9367C35.1396 15.917 35.098 15.8888 35.0627 15.852C35.028 15.8147 35.001 15.7691 34.9818 15.7152C34.9627 15.6613 34.9531 15.5995 34.9531 15.53C34.9531 15.4378 34.969 15.3597 35.0007 15.2957C35.033 15.2312 35.0788 15.1821 35.1383 15.1483C35.1978 15.1145 35.2686 15.0977 35.3507 15.0977C35.4278 15.0977 35.4958 15.1145 35.5548 15.1483C35.6137 15.1821 35.6599 15.2312 35.6931 15.2957C35.7264 15.3602 35.743 15.4383 35.743 15.53ZM35.136 15.53C35.136 15.591 35.1433 15.6431 35.158 15.6865C35.1731 15.7298 35.1963 15.7631 35.2275 15.7862C35.2587 15.8089 35.2991 15.8203 35.3484 15.8203C35.3978 15.8203 35.4381 15.8089 35.4694 15.7862C35.5006 15.7631 35.5235 15.7298 35.5382 15.6865C35.5528 15.6431 35.5601 15.591 35.5601 15.53C35.5601 15.469 35.5528 15.4174 35.5382 15.3751C35.5235 15.3322 35.5006 15.2997 35.4694 15.2776C35.4381 15.2549 35.3976 15.2435 35.3477 15.2435C35.2741 15.2435 35.2204 15.2682 35.1867 15.3176C35.1529 15.367 35.136 15.4378 35.136 15.53Z" fill="#2651A8"/>
<path d="M36.3616 15.9654C36.2825 15.9654 36.214 15.95 36.156 15.9193C36.0981 15.8885 36.0535 15.8414 36.0222 15.7779C35.991 15.7144 35.9754 15.6338 35.9754 15.5361C35.9754 15.4343 35.9925 15.3511 36.0267 15.2866C36.061 15.2221 36.1084 15.1745 36.1689 15.1438C36.2298 15.113 36.2996 15.0977 36.3782 15.0977C36.4281 15.0977 36.4732 15.1027 36.5135 15.1128C36.5543 15.1223 36.5889 15.1342 36.6171 15.1483L36.5642 15.2904C36.5334 15.2778 36.5019 15.2672 36.4697 15.2587C36.4374 15.2501 36.4064 15.2458 36.3767 15.2458C36.3278 15.2458 36.287 15.2566 36.2543 15.2783C36.222 15.3 36.1978 15.3322 36.1817 15.3751C36.1661 15.4179 36.1583 15.4711 36.1583 15.5345C36.1583 15.596 36.1663 15.6479 36.1825 15.6903C36.1986 15.7321 36.2225 15.7638 36.2543 15.7855C36.286 15.8067 36.3251 15.8172 36.3714 15.8172C36.4173 15.8172 36.4583 15.8117 36.4946 15.8006C36.5309 15.7895 36.5652 15.7752 36.5974 15.7575V15.9117C36.5657 15.9299 36.5317 15.9432 36.4954 15.9518C36.4591 15.9609 36.4145 15.9654 36.3616 15.9654Z" fill="#2651A8"/>
<path d="M37.5033 15.2534H37.2281V15.9503H37.0512V15.2534H36.7776V15.1135H37.5033V15.2534Z" fill="#2651A8"/>
<path d="M37.9208 15.4476H38.1287C38.2073 15.4476 38.2723 15.4567 38.3237 15.4748C38.3756 15.4925 38.4144 15.5192 38.4401 15.555C38.4658 15.5907 38.4786 15.6356 38.4786 15.6895C38.4786 15.7424 38.4665 15.7885 38.4423 15.8278C38.4182 15.8666 38.3804 15.8969 38.329 15.9185C38.2781 15.9397 38.2115 15.9503 38.1294 15.9503H37.7424V15.1135H37.9208V15.4476ZM38.3002 15.694C38.3002 15.6522 38.2846 15.6227 38.2534 15.6056C38.2221 15.588 38.1775 15.5791 38.1196 15.5791H37.9208V15.8195H38.1211C38.174 15.8195 38.2171 15.8099 38.2503 15.7908C38.2836 15.7711 38.3002 15.7389 38.3002 15.694Z" fill="#2651A8"/>
</svg>
