<svg width="54" height="28" viewBox="0 0 54 28" fill="none" xmlns="http://www.w3.org/2000/svg">
<rect x="0.680439" y="0.947041" width="53.1164" height="26.1576" rx="2.77893" fill="white"/>
<rect x="0.680439" y="0.947041" width="53.1164" height="26.1576" rx="2.77893" stroke="#D3D3D3" stroke-width="0.292519"/>
<path d="M8.9563 16.5954V10.2779H11.5144C11.7803 10.2779 12.0202 10.3342 12.2341 10.4469C12.4538 10.5596 12.6417 10.7109 12.7978 10.9007C12.9597 11.0846 13.084 11.2922 13.1707 11.5236C13.2632 11.7549 13.3094 11.9922 13.3094 12.2354C13.3094 12.5498 13.2487 12.8434 13.1273 13.1163C13.0059 13.3892 12.8354 13.6175 12.6157 13.8014C12.4018 13.9853 12.1503 14.098 11.8613 14.1395L13.3961 16.5954H12.8845L11.393 14.2107H9.39855V16.5954H8.9563ZM9.39855 13.7925H11.5578C11.8237 13.7925 12.0549 13.7184 12.2515 13.5701C12.448 13.4218 12.5984 13.229 12.7024 12.9917C12.8123 12.7544 12.8672 12.5023 12.8672 12.2354C12.8672 11.9625 12.8036 11.7104 12.6764 11.4791C12.555 11.2418 12.3902 11.052 12.1821 10.9096C11.9798 10.7613 11.7514 10.6872 11.4971 10.6872H9.39855V13.7925Z" fill="black"/>
<path d="M17.0678 16.6399C16.5764 16.6399 16.166 16.5509 15.8364 16.3729C15.5069 16.195 15.2439 15.9547 15.0473 15.6522C14.8508 15.3437 14.7091 14.9997 14.6224 14.62C14.5357 14.2404 14.4923 13.8518 14.4923 13.4544V10.2779H14.9346V13.4544C14.9346 13.7985 14.9693 14.1366 15.0387 14.4688C15.108 14.801 15.2208 15.1005 15.3768 15.3675C15.5387 15.6285 15.7555 15.8361 16.0272 15.9903C16.3047 16.1445 16.6487 16.2217 17.0591 16.2217C17.4754 16.2217 17.8193 16.1416 18.091 15.9814C18.3685 15.8212 18.5853 15.6107 18.7414 15.3497C18.9033 15.0827 19.016 14.7861 19.0796 14.4599C19.149 14.1277 19.1837 13.7925 19.1837 13.4544V10.2779H19.6259V13.4544C19.6259 13.8756 19.5797 14.2789 19.4872 14.6645C19.4004 15.0442 19.2559 15.3823 19.0536 15.6789C18.8512 15.9755 18.5882 16.2098 18.2645 16.3818C17.9407 16.5538 17.5418 16.6399 17.0678 16.6399Z" fill="black"/>
<path d="M36.9258 16.4922V13.1728H38.2562C38.3929 13.1728 38.5174 13.2024 38.6298 13.2616C38.7453 13.3209 38.8455 13.4003 38.9305 13.5001C39.0156 13.5967 39.0809 13.7058 39.1265 13.8273C39.1751 13.9489 39.1994 14.0736 39.1994 14.2014C39.1994 14.379 39.1599 14.5473 39.0809 14.7063C39.005 14.8621 38.8986 14.9899 38.762 15.0896C38.6283 15.1894 38.4688 15.2392 38.2836 15.2392H37.1582V16.4922H36.9258ZM37.1582 15.0195H38.2744C38.4172 15.0195 38.5402 14.9806 38.6435 14.9026C38.7468 14.8247 38.8257 14.7234 38.8804 14.5987C38.9351 14.4741 38.9624 14.3416 38.9624 14.2014C38.9624 14.0549 38.929 13.9208 38.8622 13.7993C38.7984 13.6746 38.7118 13.5749 38.6025 13.5001C38.4962 13.4253 38.3777 13.3879 38.2471 13.3879H37.1582V15.0195Z" fill="black"/>
<path d="M39.7557 16.4922V13.1728H41.0997C41.2395 13.1728 41.3655 13.2024 41.4779 13.2616C41.5933 13.3209 41.6921 13.4003 41.7741 13.5001C41.8591 13.5967 41.9244 13.7058 41.97 13.8273C42.0186 13.9489 42.0429 14.0736 42.0429 14.2014C42.0429 14.3665 42.011 14.5208 41.9472 14.6642C41.8834 14.8076 41.7938 14.9276 41.6784 15.0242C41.566 15.1208 41.4339 15.18 41.282 15.2018L42.0884 16.4922H41.8196L41.036 15.2392H39.988V16.4922H39.7557ZM39.988 15.0195H41.1225C41.2622 15.0195 41.3837 14.9806 41.487 14.9026C41.5903 14.8247 41.6693 14.7234 41.7239 14.5987C41.7817 14.4741 41.8105 14.3416 41.8105 14.2014C41.8105 14.058 41.7771 13.9255 41.7103 13.804C41.6465 13.6793 41.5599 13.5796 41.4506 13.5048C41.3443 13.4268 41.2243 13.3879 41.0906 13.3879H39.988V15.0195Z" fill="black"/>
<path d="M44.004 16.5156C43.7792 16.5156 43.5741 16.4688 43.3889 16.3753C43.2036 16.2787 43.0441 16.1509 42.9105 15.9919C42.7768 15.833 42.6735 15.6538 42.6006 15.4543C42.5277 15.2517 42.4913 15.0444 42.4913 14.8325C42.4913 14.6112 42.5293 14.4008 42.6052 14.2014C42.6811 13.9988 42.7874 13.8196 42.9241 13.6637C43.0638 13.5048 43.2248 13.3801 43.4071 13.2897C43.5924 13.1962 43.7928 13.1494 44.0085 13.1494C44.2363 13.1494 44.4414 13.1978 44.6236 13.2944C44.8089 13.391 44.9684 13.5203 45.102 13.6824C45.2357 13.8445 45.3389 14.0253 45.4118 14.2247C45.4847 14.4242 45.5212 14.6268 45.5212 14.8325C45.5212 15.0569 45.4832 15.2704 45.4073 15.473C45.3313 15.6725 45.2235 15.8517 45.0838 16.0106C44.9471 16.1665 44.7861 16.2896 44.6008 16.38C44.4186 16.4704 44.2196 16.5156 44.004 16.5156ZM42.7237 14.8325C42.7237 15.0226 42.7555 15.205 42.8193 15.3795C42.8831 15.554 42.9712 15.7099 43.0836 15.847C43.199 15.9842 43.3342 16.0932 43.4891 16.1743C43.647 16.2553 43.8202 16.2958 44.0085 16.2958C44.1999 16.2958 44.3745 16.2538 44.5325 16.1696C44.6904 16.0854 44.8256 15.9732 44.938 15.833C45.0504 15.6927 45.1354 15.5369 45.1931 15.3655C45.2539 15.1909 45.2843 15.0133 45.2843 14.8325C45.2843 14.6424 45.2524 14.46 45.1886 14.2855C45.1278 14.111 45.0397 13.9551 44.9243 13.818C44.8089 13.6809 44.6722 13.5718 44.5143 13.4907C44.3593 13.4097 44.1908 13.3692 44.0085 13.3692C43.8141 13.3692 43.6379 13.4113 43.48 13.4954C43.322 13.5796 43.1869 13.6918 43.0745 13.832C42.9651 13.9723 42.8786 14.1297 42.8148 14.3042C42.754 14.4756 42.7237 14.6517 42.7237 14.8325Z" fill="black"/>
<path d="M21.1049 17.2143C21.1049 16.8397 21.1323 16.4886 21.1871 16.1608C21.2509 15.833 21.3605 15.5193 21.5156 15.2196C21.6799 14.9199 21.9081 14.6343 22.2001 14.3627C22.4922 14.0817 22.871 13.8102 23.3364 13.5479C23.6102 13.3887 23.884 13.2389 24.1578 13.0984C24.4408 12.9579 24.7009 12.8081 24.9382 12.6489C25.1846 12.4897 25.3808 12.3164 25.5269 12.1291C25.6729 11.9325 25.7459 11.7077 25.7459 11.4549C25.7459 11.2395 25.682 11.0334 25.5542 10.8368C25.4356 10.6307 25.253 10.4669 25.0066 10.3451C24.7693 10.214 24.4727 10.1484 24.1168 10.1484C23.843 10.1484 23.592 10.1859 23.3638 10.2608C23.1448 10.3357 22.944 10.4341 22.7614 10.5558C22.588 10.6682 22.4329 10.7899 22.296 10.9211C22.1682 11.0428 22.0587 11.1552 21.9674 11.2582L21.2144 10.3872C21.2875 10.303 21.4107 10.1906 21.5841 10.0501C21.7575 9.90027 21.9765 9.75043 22.2412 9.60059C22.5059 9.45075 22.8116 9.32432 23.1584 9.22131C23.5144 9.10892 23.9023 9.05273 24.3221 9.05273C24.888 9.05273 25.3717 9.15575 25.7733 9.36178C26.184 9.55845 26.4989 9.83003 26.7179 10.1765C26.9369 10.5137 27.0465 10.893 27.0465 11.3144C27.0465 11.6796 26.9689 11.998 26.8137 12.2696C26.6677 12.5412 26.476 12.78 26.2387 12.986C26.0106 13.1921 25.7687 13.37 25.5132 13.5198C25.2667 13.6603 25.0431 13.7821 24.8423 13.8851C24.4316 14.0911 24.0803 14.2784 23.7882 14.447C23.4961 14.6156 23.2543 14.7841 23.0626 14.9527C22.8801 15.1119 22.7295 15.2805 22.6108 15.4584C22.5013 15.6363 22.4192 15.8471 22.3644 16.0905H27.1971V17.2143H21.1049Z" fill="#F4202B"/>
<path d="M32.5658 18.9984V16.6244H28.1712V15.5286L32.9491 9.19321H33.7705V15.5005H34.9752V16.6244H33.7705V18.9984H32.5658ZM29.417 15.5005H32.689V11.1037L29.417 15.5005Z" fill="#F4202B"/>
</svg>
