<svg width="54" height="27" viewBox="0 0 54 27" fill="none" xmlns="http://www.w3.org/2000/svg">
<rect x="0.73415" y="0.397236" width="53.1164" height="26.1576" rx="2.77893" fill="white"/>
<rect x="0.73415" y="0.397236" width="53.1164" height="26.1576" rx="2.77893" stroke="#D3D3D3" stroke-width="0.292519"/>
<rect x="8.8634" y="8.80762" width="36.8574" height="9.33721" fill="#2C2585"/>
<path d="M39.2278 15.2417V13.0193H40.1418C40.2357 13.0193 40.3213 13.0391 40.3985 13.0788C40.4778 13.1184 40.5466 13.1716 40.6051 13.2384C40.6635 13.3031 40.7084 13.3761 40.7397 13.4575C40.7731 13.5389 40.7898 13.6224 40.7898 13.7079C40.7898 13.8269 40.7626 13.9396 40.7084 14.046C40.6562 14.1503 40.5832 14.2359 40.4893 14.3027C40.3974 14.3695 40.2879 14.4028 40.1606 14.4028H39.3874V15.2417H39.2278ZM39.3874 14.2557H40.1543C40.2524 14.2557 40.3369 14.2296 40.4079 14.1775C40.4788 14.1253 40.5331 14.0575 40.5706 13.974C40.6082 13.8905 40.627 13.8018 40.627 13.7079C40.627 13.6099 40.604 13.5201 40.5581 13.4387C40.5143 13.3553 40.4548 13.2885 40.3797 13.2384C40.3067 13.1883 40.2253 13.1633 40.1355 13.1633H39.3874V14.2557Z" fill="white"/>
<path d="M41.1719 15.2417V13.0193H42.0953C42.1913 13.0193 42.2779 13.0391 42.3551 13.0788C42.4344 13.1184 42.5023 13.1716 42.5586 13.2384C42.617 13.3031 42.6619 13.3761 42.6932 13.4575C42.7266 13.5389 42.7433 13.6224 42.7433 13.7079C42.7433 13.8185 42.7214 13.9218 42.6776 14.0178C42.6337 14.1138 42.5722 14.1942 42.4929 14.2589C42.4157 14.3235 42.3249 14.3632 42.2205 14.3778L42.7746 15.2417H42.5899L42.0515 14.4028H41.3316V15.2417H41.1719ZM41.3316 14.2557H42.111C42.207 14.2557 42.2905 14.2296 42.3614 14.1775C42.4324 14.1253 42.4866 14.0575 42.5242 13.974C42.5638 13.8905 42.5837 13.8018 42.5837 13.7079C42.5837 13.6119 42.5607 13.5233 42.5148 13.4419C42.471 13.3584 42.4115 13.2916 42.3364 13.2415C42.2633 13.1894 42.1809 13.1633 42.0891 13.1633H41.3316V14.2557Z" fill="white"/>
<path d="M44.0906 15.2574C43.9361 15.2574 43.7953 15.2261 43.668 15.1635C43.5407 15.0988 43.4311 15.0132 43.3393 14.9068C43.2475 14.8004 43.1766 14.6804 43.1265 14.5468C43.0764 14.4112 43.0513 14.2724 43.0513 14.1305C43.0513 13.9824 43.0774 13.8415 43.1296 13.7079C43.1818 13.5723 43.2548 13.4523 43.3487 13.348C43.4447 13.2415 43.5553 13.1581 43.6805 13.0975C43.8078 13.0349 43.9455 13.0036 44.0937 13.0036C44.2502 13.0036 44.3911 13.036 44.5163 13.1007C44.6436 13.1654 44.7531 13.252 44.8449 13.3605C44.9368 13.469 45.0077 13.59 45.0578 13.7236C45.1079 13.8571 45.1329 13.9928 45.1329 14.1305C45.1329 14.2808 45.1068 14.4237 45.0547 14.5594C45.0025 14.6929 44.9284 14.8129 44.8324 14.9193C44.7385 15.0237 44.6279 15.1061 44.5006 15.1666C44.3754 15.2271 44.2387 15.2574 44.0906 15.2574ZM43.211 14.1305C43.211 14.2578 43.2329 14.3799 43.2767 14.4967C43.3205 14.6136 43.3811 14.7179 43.4583 14.8098C43.5376 14.9016 43.6304 14.9746 43.7369 15.0289C43.8454 15.0831 43.9643 15.1103 44.0937 15.1103C44.2252 15.1103 44.3452 15.0821 44.4537 15.0257C44.5622 14.9694 44.6551 14.8943 44.7323 14.8004C44.8095 14.7065 44.8679 14.6021 44.9076 14.4874C44.9493 14.3705 44.9702 14.2515 44.9702 14.1305C44.9702 14.0032 44.9482 13.8811 44.9044 13.7643C44.8627 13.6474 44.8022 13.5431 44.7229 13.4513C44.6436 13.3594 44.5497 13.2864 44.4412 13.2321C44.3347 13.1779 44.2189 13.1508 44.0937 13.1508C43.9601 13.1508 43.8391 13.1789 43.7306 13.2353C43.6221 13.2916 43.5292 13.3667 43.452 13.4607C43.3769 13.5546 43.3174 13.6599 43.2736 13.7768C43.2319 13.8916 43.211 14.0095 43.211 14.1305Z" fill="white"/>
<path d="M28.3586 15.7252C28.3586 15.4744 28.3775 15.2393 28.4151 15.0198C28.459 14.8004 28.5342 14.5903 28.6408 14.3897C28.7537 14.189 28.9104 13.9978 29.1111 13.816C29.3117 13.6279 29.5719 13.446 29.8917 13.2705C30.0798 13.1639 30.2679 13.0635 30.456 12.9695C30.6504 12.8754 30.8291 12.7751 30.9921 12.6685C31.1614 12.5619 31.2962 12.4459 31.3966 12.3205C31.4969 12.1888 31.5471 12.0384 31.5471 11.8691C31.5471 11.7248 31.5032 11.5869 31.4154 11.4552C31.3339 11.3173 31.2085 11.2075 31.0392 11.126C30.8761 11.0383 30.6724 10.9944 30.4278 10.9944C30.2397 10.9944 30.0673 11.0194 29.9105 11.0696C29.76 11.1198 29.6221 11.1856 29.4967 11.2671C29.3776 11.3424 29.271 11.4239 29.1769 11.5117C29.0891 11.5932 29.0139 11.6684 28.9512 11.7374L28.4339 11.1542C28.484 11.0978 28.5687 11.0226 28.6878 10.9285C28.807 10.8282 28.9574 10.7279 29.1393 10.6276C29.3211 10.5272 29.5312 10.4426 29.7694 10.3736C30.014 10.2984 30.2805 10.2607 30.5689 10.2607C30.9577 10.2607 31.29 10.3297 31.5659 10.4677C31.848 10.5993 32.0643 10.7812 32.2148 11.0132C32.3653 11.2389 32.4406 11.4928 32.4406 11.775C32.4406 12.0195 32.3873 12.2327 32.2807 12.4146C32.1803 12.5964 32.0487 12.7563 31.8856 12.8942C31.7289 13.0322 31.5627 13.1513 31.3872 13.2516C31.2179 13.3457 31.0642 13.4272 30.9263 13.4962C30.6441 13.6341 30.4027 13.7595 30.2021 13.8724C30.0014 13.9853 29.8353 14.0981 29.7036 14.211C29.5782 14.3176 29.4747 14.4304 29.3932 14.5496C29.318 14.6687 29.2616 14.8098 29.2239 14.9728H32.544V15.7252H28.3586Z" fill="white"/>
<path d="M36.2324 16.9197V15.3302H33.2133V14.5966L36.4957 10.3548H37.0601V14.5778H37.8877V15.3302H37.0601V16.9197H36.2324ZM34.0692 14.5778H36.317V11.6339L34.0692 14.5778Z" fill="white"/>
<path d="M13.635 11.0481V15.6198H13.2457L10.6176 11.7138V15.6198H10.2314V11.0481H10.6176L13.252 14.9541V11.0481H13.635Z" fill="white"/>
<path d="M17.6446 15.2901V15.6198H15.0731V15.2901H17.6446ZM15.1893 11.0481V15.6198H14.8031V11.0481H15.1893ZM17.3244 13.0985V13.4282H15.0731V13.0985H17.3244ZM17.6289 11.0481V11.381H15.0731V11.0481H17.6289Z" fill="white"/>
<path d="M19.6227 14.4109L20.6149 11.0481H20.9258L20.6746 12.0466L19.6165 15.6198H19.3182L19.6227 14.4109ZM18.4704 11.0481L19.3056 14.3795L19.5568 15.6198H19.246L18.0748 11.0481H18.4704ZM22.2634 14.3795L23.086 11.0481H23.4816L22.3136 15.6198H22.0027L22.2634 14.3795ZM20.9603 11.0481L21.94 14.4109L22.2414 15.6198H21.9431L20.9069 12.0466L20.6526 11.0481H20.9603Z" fill="white"/>
<path d="M26.8161 14.4957C26.8161 14.3701 26.7952 14.2581 26.7533 14.1597C26.7115 14.0614 26.6424 13.9734 26.5461 13.896C26.4519 13.8165 26.3242 13.7432 26.1631 13.6762C26.004 13.6071 25.8051 13.5391 25.5665 13.4721C25.3383 13.4072 25.1321 13.3361 24.9479 13.2586C24.7637 13.1812 24.6057 13.0922 24.4738 12.9917C24.344 12.8912 24.2446 12.774 24.1755 12.6401C24.1064 12.504 24.0719 12.346 24.0719 12.1659C24.0719 11.9901 24.1096 11.83 24.1849 11.6855C24.2603 11.5411 24.366 11.4166 24.5021 11.3119C24.6402 11.2072 24.8024 11.1266 24.9887 11.0701C25.1771 11.0136 25.3833 10.9854 25.6073 10.9854C25.9276 10.9854 26.2039 11.0461 26.4362 11.1675C26.6707 11.2889 26.8517 11.4532 26.9794 11.6604C27.1092 11.8656 27.1741 12.0958 27.1741 12.3512H26.7879C26.7879 12.1523 26.7408 11.9755 26.6466 11.8206C26.5545 11.6636 26.4205 11.5411 26.2447 11.4532C26.0709 11.3632 25.8585 11.3182 25.6073 11.3182C25.3561 11.3182 25.1447 11.3569 24.973 11.4344C24.8035 11.5097 24.6748 11.6112 24.5868 11.7389C24.501 11.8645 24.4581 12.0048 24.4581 12.1597C24.4581 12.2685 24.479 12.369 24.5209 12.4611C24.5628 12.5511 24.6308 12.6359 24.725 12.7154C24.8213 12.7929 24.9479 12.8661 25.1049 12.9352C25.2619 13.0022 25.4555 13.066 25.6858 13.1267C25.9286 13.1937 26.1442 13.268 26.3326 13.3497C26.521 13.4313 26.6801 13.5255 26.8099 13.6322C26.9396 13.7369 27.038 13.8594 27.105 13.9996C27.172 14.1399 27.2055 14.3031 27.2055 14.4894C27.2055 14.6757 27.1657 14.8432 27.0862 14.9918C27.0087 15.1383 26.8988 15.2629 26.7565 15.3654C26.6162 15.468 26.4498 15.5465 26.2572 15.6009C26.0668 15.6554 25.8585 15.6826 25.6324 15.6826C25.4294 15.6826 25.2274 15.6564 25.0264 15.6041C24.8255 15.5517 24.6413 15.4712 24.4738 15.3623C24.3084 15.2514 24.1755 15.109 24.075 14.9353C23.9767 14.7615 23.9275 14.5543 23.9275 14.3136H24.3105C24.3105 14.5062 24.3493 14.6684 24.4267 14.8003C24.5042 14.9321 24.6067 15.0389 24.7344 15.1205C24.8642 15.2022 25.0065 15.2618 25.1614 15.2995C25.3184 15.3351 25.4754 15.3529 25.6324 15.3529C25.8731 15.3529 26.0814 15.3173 26.2572 15.2461C26.4352 15.175 26.5723 15.0755 26.6686 14.9478C26.7669 14.8181 26.8161 14.6674 26.8161 14.4957Z" fill="white"/>
</svg>
