<svg width="55" height="28" viewBox="0 0 55 28" fill="none" xmlns="http://www.w3.org/2000/svg">
<rect x="0.761494" y="0.847431" width="53.1164" height="26.1576" rx="2.77893" fill="white"/>
<rect x="0.761494" y="0.847431" width="53.1164" height="26.1576" rx="2.77893" stroke="#D3D3D3" stroke-width="0.292519"/>
<g filter="url(#filter0_d_50_3301)">
<path d="M15.4145 14.4424C15.3328 14.4502 15.2605 14.4593 15.1973 14.4698C15.1341 14.4802 15.0551 14.501 14.9604 14.5323C14.8524 14.5662 14.7814 14.6223 14.7471 14.7005C14.7129 14.7787 14.6958 14.8608 14.6958 14.9469V15.5921C14.6958 15.7225 14.6971 15.8281 14.6997 15.9089C14.7024 15.9871 14.7063 16.0849 14.7116 16.2022C14.4483 16.3586 14.0587 16.5059 13.5428 16.6441C13.0295 16.7823 12.5569 16.8514 12.1252 16.8514C11.7198 16.8514 11.3394 16.7901 10.9841 16.6676C10.6287 16.545 10.3167 16.3612 10.0482 16.1161C9.77972 15.8737 9.56781 15.5726 9.41249 15.2128C9.25981 14.853 9.18347 14.4411 9.18347 13.977C9.18347 13.5442 9.25586 13.144 9.40065 12.7764C9.54543 12.4088 9.75471 12.0921 10.0285 11.8261C10.297 11.5628 10.6234 11.3595 11.0078 11.2161C11.3947 11.0727 11.8225 11.001 12.2911 11.001C12.6096 11.001 12.9044 11.0401 13.1756 11.1183C13.4467 11.1939 13.6705 11.276 13.8468 11.3647L14.0917 11.1496H14.4352L14.4707 13.1753H14.1232C13.9232 12.5679 13.6836 12.1168 13.4046 11.8222C13.1255 11.5276 12.7728 11.3803 12.3463 11.3803C11.8409 11.3803 11.45 11.5993 11.1736 12.0373C10.8998 12.4753 10.7629 13.0789 10.7629 13.848C10.7629 14.664 10.8972 15.3027 11.1657 15.7642C11.4368 16.2256 11.8199 16.4564 12.3148 16.4564C12.5464 16.4564 12.7517 16.4225 12.9307 16.3547C13.1124 16.2843 13.2532 16.2035 13.3533 16.1122V14.986C13.3533 14.8921 13.3361 14.8139 13.3019 14.7513C13.2677 14.6861 13.1993 14.6301 13.0966 14.5832C13.0176 14.5467 12.9189 14.5167 12.8004 14.4932C12.682 14.4698 12.5833 14.4528 12.5043 14.4424V14.1373H15.4145V14.4424Z" fill="#4B4B4B"/>
<path d="M18.7906 16.6988H15.683V16.3938C15.754 16.3886 15.858 16.3808 15.9949 16.3703C16.1344 16.3599 16.2305 16.3443 16.2832 16.3234C16.3806 16.2843 16.4464 16.2335 16.4806 16.1709C16.5174 16.1057 16.5359 16.0236 16.5359 15.9245V11.9904C16.5359 11.9017 16.5188 11.8235 16.4845 11.7557C16.4503 11.688 16.3832 11.6332 16.2832 11.5915C16.22 11.5654 16.1265 11.5393 16.0028 11.5133C15.8791 11.4846 15.7725 11.465 15.683 11.4546V11.1496H18.7906V11.4546C18.7116 11.4624 18.6129 11.4742 18.4944 11.4898C18.3759 11.5028 18.2759 11.5224 18.1943 11.5485C18.0916 11.5824 18.0232 11.6358 17.989 11.7088C17.9548 11.7792 17.9376 11.86 17.9376 11.9513V15.8815C17.9376 15.9754 17.9548 16.0562 17.989 16.124C18.0258 16.1891 18.0943 16.2426 18.1943 16.2843C18.2496 16.3078 18.3404 16.3312 18.4668 16.3547C18.5958 16.3756 18.7037 16.3886 18.7906 16.3938V16.6988Z" fill="#4B4B4B"/>
<path d="M25.3967 16.6988H22.3443V16.3938C22.4865 16.3834 22.6537 16.3586 22.8458 16.3195C23.038 16.2778 23.1341 16.227 23.1341 16.167C23.1341 16.1461 23.1314 16.1227 23.1262 16.0966C23.1235 16.0705 23.113 16.0353 23.0946 15.991L22.6168 14.8413H20.682C20.6372 14.9482 20.5872 15.0733 20.5319 15.2167C20.4793 15.3601 20.4332 15.4878 20.3937 15.5999C20.3437 15.7459 20.3134 15.8515 20.3029 15.9167C20.295 15.9819 20.291 16.0275 20.291 16.0536C20.291 16.137 20.3542 16.2087 20.4806 16.2687C20.6096 16.326 20.8228 16.3677 21.1203 16.3938V16.6988H18.8221V16.3938C18.909 16.3886 19.0064 16.3756 19.1143 16.3547C19.2249 16.3312 19.3118 16.3 19.375 16.2608C19.4829 16.1983 19.5737 16.1214 19.6474 16.0301C19.7238 15.9389 19.7869 15.8307 19.837 15.7055C20.1423 14.9729 20.4477 14.239 20.753 13.5038C21.061 12.7686 21.4006 11.9578 21.7718 11.0714H22.5615C23.0775 12.328 23.4816 13.3213 23.7738 14.0513C24.066 14.7813 24.3147 15.3862 24.5201 15.8659C24.5543 15.9441 24.5977 16.0158 24.6504 16.081C24.703 16.1435 24.778 16.2035 24.8754 16.2608C24.9491 16.3026 25.0347 16.3338 25.1321 16.3547C25.2295 16.3756 25.3177 16.3886 25.3967 16.3938V16.6988ZM22.4549 14.4541L21.6415 12.444L20.8399 14.4541H22.4549Z" fill="#4B4B4B"/>
<path d="M28.3897 16.8474C27.9791 16.8474 27.5947 16.7823 27.2367 16.6519C26.8787 16.519 26.5668 16.3273 26.3009 16.077C26.0403 15.832 25.835 15.5295 25.6849 15.1698C25.5349 14.8074 25.4598 14.4098 25.4598 13.977C25.4598 13.5468 25.5349 13.1492 25.6849 12.7842C25.8376 12.4166 26.0508 12.0986 26.3246 11.83C26.5931 11.5667 26.9156 11.3634 27.292 11.22C27.6685 11.074 28.0712 11.001 28.5003 11.001C28.8109 11.001 29.0939 11.0388 29.3493 11.1144C29.6046 11.1874 29.8205 11.2708 29.9968 11.3647L30.2417 11.1496H30.5852L30.6207 13.1753H30.2733C30.0758 12.5574 29.8389 12.1038 29.5625 11.8144C29.2861 11.525 28.9491 11.3803 28.5516 11.3803C28.0567 11.3803 27.6803 11.5967 27.4223 12.0295C27.1643 12.4597 27.0354 13.0645 27.0354 13.844C27.0354 14.2846 27.0788 14.6614 27.1657 14.9742C27.2552 15.2845 27.371 15.5348 27.5131 15.7251C27.6658 15.9232 27.8461 16.0692 28.0541 16.1631C28.2621 16.2543 28.4924 16.3 28.7451 16.3C29.1137 16.3 29.4414 16.2009 29.7283 16.0027C30.0179 15.8046 30.2811 15.5048 30.5181 15.1033L30.8577 15.3066C30.7445 15.5361 30.6155 15.742 30.4707 15.9245C30.3259 16.1044 30.1587 16.2595 29.9692 16.3899C29.7612 16.5333 29.5309 16.6454 29.2782 16.7262C29.0281 16.807 28.732 16.8474 28.3897 16.8474Z" fill="#4B4B4B"/>
<path d="M33.0768 16.0497C33.0768 16.2556 32.9991 16.4342 32.8438 16.5854C32.6911 16.7366 32.5095 16.8123 32.2989 16.8123C32.0857 16.8123 31.9014 16.7379 31.7461 16.5893C31.5934 16.4381 31.5171 16.2582 31.5171 16.0497C31.5171 15.8411 31.5934 15.6612 31.7461 15.51C31.9014 15.3562 32.0857 15.2793 32.2989 15.2793C32.5095 15.2793 32.6911 15.3562 32.8438 15.51C32.9991 15.6638 33.0768 15.8437 33.0768 16.0497Z" fill="#4B4B4B"/>
<path d="M40.3265 16.6988H38.1785C37.8073 16.1357 37.498 15.6873 37.2505 15.3536C37.0057 15.0199 36.7004 14.634 36.3344 14.196H36.1173V15.8815C36.1173 15.9754 36.1344 16.0549 36.1686 16.1201C36.2055 16.1852 36.2739 16.24 36.3739 16.2843C36.4239 16.3052 36.5016 16.3273 36.6069 16.3508C36.7148 16.3716 36.807 16.386 36.8833 16.3938V16.6988H33.8942V16.3938C33.9705 16.386 34.0705 16.3756 34.1943 16.3625C34.3206 16.3469 34.4101 16.3286 34.4628 16.3078C34.5628 16.2661 34.6299 16.2139 34.6642 16.1513C34.6984 16.0862 34.7155 16.004 34.7155 15.905V11.9904C34.7155 11.8965 34.701 11.8183 34.6721 11.7557C34.6431 11.6932 34.5733 11.6384 34.4628 11.5915C34.3785 11.5576 34.2785 11.5289 34.1627 11.5055C34.0495 11.482 33.96 11.465 33.8942 11.4546V11.1496H37.0373C37.7402 11.1496 38.2732 11.2591 38.6365 11.4781C39.0024 11.6945 39.1854 12.023 39.1854 12.4636C39.1854 12.852 39.0722 13.1649 38.8458 13.4021C38.622 13.6368 38.2798 13.8206 37.8191 13.9535C37.9981 14.183 38.2061 14.4489 38.443 14.7513C38.6826 15.0537 38.9313 15.3627 39.1893 15.6782C39.2709 15.7798 39.3815 15.905 39.521 16.0536C39.6632 16.1996 39.7882 16.2895 39.8961 16.3234C39.9567 16.3417 40.033 16.3573 40.1252 16.3703C40.2199 16.3834 40.287 16.3912 40.3265 16.3938V16.6988ZM37.6375 12.5731C37.6375 12.2029 37.5322 11.933 37.3216 11.7636C37.1136 11.5915 36.8162 11.5055 36.4292 11.5055H36.1173V13.8284H36.4174C36.8043 13.8284 37.1044 13.728 37.3177 13.5273C37.5309 13.3265 37.6375 13.0085 37.6375 12.5731Z" fill="#4B4B4B"/>
<path d="M45.4558 16.6167L43.5723 16.7301L43.5131 16.6754V16.1631H43.4894C43.3999 16.2439 43.3117 16.3234 43.2248 16.4016C43.1406 16.4772 43.0393 16.5463 42.9208 16.6089C42.7865 16.6793 42.6589 16.7314 42.5378 16.7653C42.4193 16.7992 42.2456 16.8162 42.0166 16.8162C41.6191 16.8162 41.3137 16.6975 41.1005 16.4603C40.8899 16.223 40.7846 15.888 40.7846 15.4552V13.6954C40.7846 13.5938 40.7648 13.5116 40.7253 13.4491C40.6859 13.3839 40.6332 13.3265 40.5674 13.277C40.5148 13.2379 40.4463 13.2105 40.3621 13.1949C40.2778 13.1766 40.2015 13.1649 40.1331 13.1597V12.8742L42.0481 12.7725L42.0916 12.8312V15.4318C42.0916 15.7003 42.1429 15.8985 42.2456 16.0262C42.3509 16.154 42.4943 16.2178 42.676 16.2178C42.8629 16.2178 43.03 16.1696 43.1775 16.0731C43.3275 15.9767 43.4368 15.8737 43.5052 15.7642V13.6563C43.5052 13.5677 43.4881 13.4882 43.4539 13.4178C43.4196 13.3474 43.3696 13.29 43.3038 13.2457C43.2564 13.2144 43.188 13.1936 43.0985 13.1831C43.0116 13.1727 42.9221 13.1649 42.83 13.1597V12.8742L44.7451 12.7725L44.8043 12.8312V15.8502C44.8043 15.9415 44.8227 16.0197 44.8596 16.0849C44.8964 16.1474 44.9504 16.2009 45.0215 16.2452C45.0715 16.2765 45.136 16.2986 45.215 16.3117C45.2966 16.3221 45.3769 16.3286 45.4558 16.3312V16.6167Z" fill="#4B4B4B"/>
</g>
<defs>
<filter id="filter0_d_50_3301" x="8.89095" y="11.001" width="36.8574" height="6.72814" filterUnits="userSpaceOnUse" color-interpolation-filters="sRGB">
<feFlood flood-opacity="0" result="BackgroundImageFix"/>
<feColorMatrix in="SourceAlpha" type="matrix" values="0 0 0 0 0 0 0 0 0 0 0 0 0 0 0 0 0 0 127 0" result="hardAlpha"/>
<feOffset dy="0.585038"/>
<feGaussianBlur stdDeviation="0.14626"/>
<feComposite in2="hardAlpha" operator="out"/>
<feColorMatrix type="matrix" values="0 0 0 0 0.179167 0 0 0 0 0.179167 0 0 0 0 0.179167 0 0 0 0.49 0"/>
<feBlend mode="normal" in2="BackgroundImageFix" result="effect1_dropShadow_50_3301"/>
<feBlend mode="normal" in="SourceGraphic" in2="effect1_dropShadow_50_3301" result="shape"/>
</filter>
</defs>
</svg>
