<svg width="55" height="27" viewBox="0 0 55 27" fill="none" xmlns="http://www.w3.org/2000/svg">
<rect x="0.761494" y="0.397236" width="53.1164" height="26.1576" rx="2.77893" fill="white"/>
<rect x="0.761494" y="0.397236" width="53.1164" height="26.1576" rx="2.77893" stroke="#D3D3D3" stroke-width="0.292519"/>
<rect x="3.91821" y="11.3301" width="29.4942" height="4.29259" fill="#4990E1"/>
<path d="M5.52491 14.483V14.2757C5.3873 14.267 5.25542 14.2374 5.12927 14.1869C5.00313 14.1343 4.89074 14.063 4.79212 13.9731C4.6935 13.8832 4.61552 13.7768 4.55818 13.654C4.50084 13.5312 4.47217 13.3942 4.47217 13.2429C4.47217 13.085 4.50198 12.9435 4.56162 12.8185C4.62125 12.6935 4.70038 12.5872 4.799 12.4994C4.89992 12.4117 5.0123 12.3437 5.13615 12.2955C5.2623 12.245 5.39188 12.2154 5.52491 12.2067V12.0225H6.15793V12.2067C6.29096 12.2154 6.4194 12.245 6.54325 12.2955C6.66939 12.3437 6.78178 12.4117 6.8804 12.4994C6.98132 12.5872 7.06159 12.6935 7.12122 12.8185C7.18086 12.9435 7.21067 13.085 7.21067 13.2429C7.21067 13.3942 7.182 13.5312 7.12466 13.654C7.06732 13.7768 6.98934 13.8832 6.89072 13.9731C6.7921 14.063 6.67971 14.1343 6.55357 14.1869C6.42742 14.2374 6.29554 14.267 6.15793 14.2757V14.483H5.52491ZM5.54211 13.7659V12.7165C5.47101 12.7253 5.4045 12.7505 5.34257 12.7922C5.28294 12.8339 5.23477 12.892 5.19808 12.9665C5.16138 13.0411 5.14303 13.1332 5.14303 13.2429C5.14303 13.324 5.15335 13.3964 5.174 13.46C5.19693 13.5214 5.22675 13.574 5.26344 13.6178C5.30243 13.6595 5.34601 13.6935 5.39418 13.7198C5.44234 13.7439 5.49165 13.7593 5.54211 13.7659ZM6.14073 13.7659C6.20954 13.7549 6.27376 13.7297 6.33339 13.6902C6.39531 13.6486 6.44462 13.5915 6.48132 13.5192C6.52031 13.4446 6.53981 13.3525 6.53981 13.2429C6.53981 13.1617 6.52949 13.0904 6.50884 13.029C6.4882 12.9676 6.45953 12.915 6.42284 12.8711C6.38614 12.8273 6.34371 12.7922 6.29554 12.7659C6.24738 12.7396 6.19577 12.7231 6.14073 12.7165V13.7659Z" fill="white"/>
<path d="M9.3741 13.9238V14.483H7.6333V12.1475H9.34314V12.7067H8.30416V13.0356H9.19177V13.5553H8.30416V13.9238H9.3741Z" fill="white"/>
<path d="M9.69983 14.9303V13.9238H9.85121C9.90855 13.9238 9.959 13.9018 10.0026 13.858C10.0462 13.8141 10.0829 13.7472 10.1127 13.6573C10.1425 13.5674 10.1654 13.4545 10.1815 13.3185C10.1998 13.1804 10.2124 13.0181 10.2193 12.8317L10.24 12.1475H12.0117V13.9238H12.3558V14.9303H11.7709V14.483H10.2847V14.9303H9.69983ZM10.6115 13.9238H11.3409V12.7067H10.8523L10.8455 12.9238C10.8409 13.0926 10.8306 13.2418 10.8145 13.3711C10.8007 13.4983 10.7778 13.608 10.7457 13.7001C10.7159 13.7922 10.6712 13.8668 10.6115 13.9238Z" fill="white"/>
<path d="M14.5478 13.9238V14.483H12.807V12.1475H14.5168V12.7067H13.4778V13.0356H14.3654V13.5553H13.4778V13.9238H14.5478Z" fill="white"/>
<path d="M14.9974 14.483V12.1475H16.0501C16.1694 12.1475 16.2794 12.1705 16.3804 12.2165C16.4813 12.2626 16.5684 12.3251 16.6418 12.404C16.7152 12.4808 16.7714 12.5674 16.8104 12.6639C16.8517 12.7604 16.8723 12.858 16.8723 12.9567C16.8723 13.0948 16.8379 13.2253 16.7691 13.3481C16.7026 13.4709 16.6086 13.5718 16.487 13.6507C16.3678 13.7275 16.2278 13.7659 16.0673 13.7659H15.6682V14.483H14.9974ZM15.6682 13.2067H16.0226C16.0501 13.2067 16.0765 13.199 16.1017 13.1836C16.1269 13.1683 16.1476 13.142 16.1636 13.1047C16.182 13.0674 16.1911 13.0181 16.1911 12.9567C16.1911 12.8909 16.1808 12.8404 16.1602 12.8054C16.1418 12.7681 16.1178 12.7429 16.0879 12.7297C16.0604 12.7143 16.0329 12.7067 16.0054 12.7067H15.6682V13.2067Z" fill="white"/>
<path d="M17.6646 12.1475H18.4146L19.1921 14.483H18.5109L18.363 14.0257H17.7128L17.5683 14.483H16.8836L17.6646 12.1475ZM18.2563 13.5981L18.0396 12.7757L17.8125 13.5981H18.2563Z" fill="white"/>
<path d="M21.012 14.483V12.7067H20.5373L20.5235 13.0225C20.5097 13.3207 20.4799 13.5663 20.434 13.7593C20.3905 13.9501 20.3251 14.1003 20.2379 14.21C20.1508 14.3174 20.0384 14.3942 19.9008 14.4402C19.7655 14.4841 19.6015 14.506 19.4088 14.506V13.9534C19.4868 13.9534 19.5533 13.9402 19.6084 13.9139C19.6657 13.8854 19.7127 13.8328 19.7494 13.756C19.7884 13.6771 19.8182 13.5641 19.8389 13.4172C19.8618 13.2681 19.8779 13.0729 19.887 12.8317L19.9146 12.1475H21.6829V14.483H21.012Z" fill="white"/>
<path d="M22.2542 14.483V12.1475H22.9251V12.9205H23.3242C23.5076 12.9205 23.6648 12.9523 23.7955 13.0159C23.9285 13.0773 24.0306 13.1661 24.1017 13.2823C24.1751 13.3964 24.2118 13.5334 24.2118 13.6935C24.2118 13.8558 24.1774 13.9961 24.1086 14.1146C24.0398 14.233 23.9411 14.324 23.8127 14.3876C23.6865 14.4512 23.5352 14.483 23.3586 14.483H22.2542ZM22.9251 13.9632H23.2622C23.3219 13.9632 23.3712 13.9523 23.4102 13.9303C23.4492 13.9084 23.4778 13.8777 23.4962 13.8382C23.5168 13.7966 23.5271 13.7483 23.5271 13.6935C23.5271 13.6496 23.5168 13.6091 23.4962 13.5718C23.4755 13.5323 23.4457 13.5005 23.4067 13.4764C23.3677 13.4523 23.3196 13.4402 23.2622 13.4402H22.9251V13.9632Z" fill="white"/>
<path d="M26.7862 12.1475V14.483H26.1154V13.5685H25.2966V14.483H24.6257V12.1475H25.2966V13.0093H26.1154V12.1475H26.7862Z" fill="white"/>
<path d="M27.3436 14.483V12.1475H28.0144V12.9205H28.4135C28.597 12.9205 28.7541 12.9523 28.8848 13.0159C29.0179 13.0773 29.1199 13.1661 29.191 13.2823C29.2644 13.3964 29.3011 13.5334 29.3011 13.6935C29.3011 13.8558 29.2667 13.9961 29.1979 14.1146C29.1291 14.233 29.0305 14.324 28.902 14.3876C28.7759 14.4512 28.6245 14.483 28.4479 14.483H27.3436ZM28.0144 13.9632H28.3516C28.4112 13.9632 28.4605 13.9523 28.4995 13.9303C28.5385 13.9084 28.5672 13.8777 28.5855 13.8382C28.6062 13.7966 28.6165 13.7483 28.6165 13.6935C28.6165 13.6496 28.6062 13.6091 28.5855 13.5718C28.5649 13.5323 28.5351 13.5005 28.4961 13.4764C28.4571 13.4523 28.4089 13.4402 28.3516 13.4402H28.0144V13.9632ZM29.6142 14.483V12.1475H30.2851V14.483H29.6142Z" fill="white"/>
<path d="M32.5817 13.9238V14.483H30.8409V12.1475H32.5507V12.7067H31.5117V13.0356H32.3994V13.5553H31.5117V13.9238H32.5817Z" fill="white"/>
<path d="M36.0505 12.3129V14.6342H35.4033V13.7253H34.6134V14.6342H33.9662V12.3129H34.6134V13.1695H35.4033V12.3129H36.0505Z" fill="#2B2B2B"/>
<path d="M37.5839 14.6538C37.4047 14.6538 37.2421 14.6211 37.096 14.5557C36.95 14.4882 36.8239 14.3988 36.7177 14.2876C36.6137 14.1743 36.5329 14.0479 36.4754 13.9084C36.42 13.7667 36.3924 13.6207 36.3924 13.4703C36.3924 13.3155 36.4223 13.1684 36.482 13.0289C36.5417 12.8894 36.6247 12.7652 36.7309 12.6562C36.8394 12.545 36.9666 12.4578 37.1126 12.3946C37.2609 12.3314 37.4224 12.2998 37.5972 12.2998C37.7764 12.2998 37.9391 12.3336 38.0851 12.4012C38.2311 12.4665 38.3561 12.5559 38.4601 12.6693C38.5641 12.7826 38.6438 12.9101 38.6991 13.0518C38.7566 13.1913 38.7854 13.3351 38.7854 13.4833C38.7854 13.6359 38.7555 13.782 38.6958 13.9214C38.6383 14.0609 38.5553 14.1863 38.4469 14.2974C38.3407 14.4064 38.2145 14.4936 38.0685 14.559C37.9225 14.6222 37.7609 14.6538 37.5839 14.6538ZM37.0496 13.4768C37.0496 13.5553 37.0606 13.6316 37.0827 13.7057C37.1049 13.7776 37.1381 13.843 37.1823 13.9018C37.2266 13.9585 37.2819 14.0043 37.3483 14.0391C37.4169 14.0718 37.4976 14.0882 37.5906 14.0882C37.6835 14.0882 37.7643 14.0708 37.8328 14.0359C37.9014 14.001 37.9568 13.9541 37.9988 13.8953C38.0431 13.8343 38.0751 13.7678 38.095 13.6959C38.1172 13.6217 38.1282 13.5466 38.1282 13.4703C38.1282 13.3918 38.1172 13.3166 38.095 13.2447C38.0729 13.1727 38.0397 13.1084 37.9955 13.0518C37.9512 12.9929 37.8948 12.9472 37.8262 12.9145C37.7576 12.8818 37.678 12.8654 37.5872 12.8654C37.4943 12.8654 37.4135 12.8829 37.345 12.9177C37.2786 12.9526 37.2233 12.9995 37.179 13.0583C37.1347 13.115 37.1016 13.1804 37.0794 13.2545C37.0595 13.3264 37.0496 13.4005 37.0496 13.4768Z" fill="#2B2B2B"/>
<path d="M41.1308 14.0391C41.1308 14.1786 41.0921 14.292 41.0146 14.3792C40.9394 14.4664 40.8376 14.5307 40.7093 14.5721C40.5809 14.6135 40.4393 14.6342 40.2844 14.6342H39.1261V12.3129H40.4935C40.6042 12.3129 40.6993 12.3423 40.779 12.4012C40.8608 12.4578 40.9228 12.5319 40.9648 12.6235C41.0091 12.715 41.0312 12.8098 41.0312 12.9079C41.0312 13.0147 41.0025 13.1183 40.9449 13.2185C40.8896 13.3188 40.8055 13.394 40.6927 13.4441C40.8277 13.4833 40.9339 13.552 41.0113 13.6501C41.091 13.7482 41.1308 13.8779 41.1308 14.0391ZM40.4736 13.9084C40.4736 13.8691 40.4659 13.8354 40.4504 13.807C40.4371 13.7765 40.4183 13.7525 40.394 13.7351C40.3696 13.7177 40.3409 13.7089 40.3077 13.7089H39.7733V14.098H40.2844C40.3198 14.098 40.3519 14.0904 40.3807 14.0751C40.4095 14.0599 40.4316 14.0381 40.4471 14.0097C40.4648 13.9814 40.4736 13.9476 40.4736 13.9084ZM39.7733 12.8556V13.212H40.2147C40.2435 13.212 40.2712 13.2076 40.2977 13.1989C40.3243 13.188 40.3464 13.1695 40.3641 13.1433C40.3818 13.1172 40.3906 13.0801 40.3906 13.0322C40.3906 12.9886 40.3829 12.9548 40.3674 12.9308C40.3541 12.9047 40.3353 12.8861 40.311 12.8752C40.2889 12.8621 40.2634 12.8556 40.2347 12.8556H39.7733Z" fill="#2B2B2B"/>
<path d="M42.5461 14.6538C42.3669 14.6538 42.2043 14.6211 42.0582 14.5557C41.9122 14.4882 41.7861 14.3988 41.6799 14.2876C41.5759 14.1743 41.4951 14.0479 41.4376 13.9084C41.3822 13.7667 41.3546 13.6207 41.3546 13.4703C41.3546 13.3155 41.3845 13.1684 41.4442 13.0289C41.5039 12.8894 41.5869 12.7652 41.6931 12.6562C41.8015 12.545 41.9288 12.4578 42.0748 12.3946C42.2231 12.3314 42.3846 12.2998 42.5594 12.2998C42.7386 12.2998 42.9013 12.3336 43.0473 12.4012C43.1933 12.4665 43.3183 12.5559 43.4223 12.6693C43.5263 12.7826 43.606 12.9101 43.6613 13.0518C43.7188 13.1913 43.7476 13.3351 43.7476 13.4833C43.7476 13.6359 43.7177 13.782 43.658 13.9214C43.6005 14.0609 43.5175 14.1863 43.4091 14.2974C43.3029 14.4064 43.1767 14.4936 43.0307 14.559C42.8847 14.6222 42.7231 14.6538 42.5461 14.6538ZM42.0118 13.4768C42.0118 13.5553 42.0228 13.6316 42.0449 13.7057C42.0671 13.7776 42.1003 13.843 42.1445 13.9018C42.1888 13.9585 42.2441 14.0043 42.3105 14.0391C42.3791 14.0718 42.4598 14.0882 42.5528 14.0882C42.6457 14.0882 42.7265 14.0708 42.795 14.0359C42.8636 14.001 42.919 13.9541 42.961 13.8953C43.0052 13.8343 43.0373 13.7678 43.0572 13.6959C43.0794 13.6217 43.0904 13.5466 43.0904 13.4703C43.0904 13.3918 43.0794 13.3166 43.0572 13.2447C43.0351 13.1727 43.0019 13.1084 42.9577 13.0518C42.9134 12.9929 42.857 12.9472 42.7884 12.9145C42.7198 12.8818 42.6402 12.8654 42.5494 12.8654C42.4565 12.8654 42.3757 12.8829 42.3071 12.9177C42.2408 12.9526 42.1855 12.9995 42.1412 13.0583C42.0969 13.115 42.0638 13.1804 42.0416 13.2545C42.0217 13.3264 42.0118 13.4005 42.0118 13.4768Z" fill="#2B2B2B"/>
<path d="M43.9589 13.4539C43.9589 13.3122 43.9854 13.1738 44.0385 13.0387C44.0938 12.9014 44.1735 12.7771 44.2775 12.666C44.3815 12.5548 44.5076 12.4665 44.6558 12.4012C44.8063 12.3336 44.9756 12.2998 45.1637 12.2998C45.3894 12.2998 45.5863 12.3467 45.7544 12.4404C45.9226 12.5319 46.0476 12.654 46.1295 12.8066L45.635 13.1531C45.6062 13.0768 45.5642 13.018 45.5088 12.9766C45.4557 12.9352 45.3971 12.9068 45.3329 12.8916C45.271 12.8741 45.2101 12.8654 45.1504 12.8654C45.0574 12.8654 44.9767 12.8839 44.9081 12.921C44.8417 12.9559 44.7864 13.0027 44.7421 13.0616C44.7001 13.1204 44.668 13.1858 44.6459 13.2578C44.626 13.3297 44.616 13.4016 44.616 13.4735C44.616 13.5542 44.6282 13.6316 44.6525 13.7057C44.6769 13.7798 44.7123 13.8463 44.7587 13.9051C44.8052 13.9618 44.8616 14.0065 44.928 14.0391C44.9966 14.0718 45.0729 14.0882 45.157 14.0882C45.2168 14.0882 45.2776 14.0795 45.3396 14.062C45.4015 14.0424 45.4579 14.0119 45.5088 13.9705C45.5597 13.9291 45.5984 13.8735 45.625 13.8037L46.1527 14.1143C46.1063 14.2277 46.0288 14.3247 45.9204 14.4053C45.812 14.486 45.6892 14.5481 45.552 14.5917C45.4148 14.6331 45.2787 14.6538 45.1437 14.6538C44.9689 14.6538 44.8085 14.62 44.6625 14.5525C44.5187 14.4827 44.3936 14.3912 44.2874 14.2778C44.1834 14.1623 44.1027 14.0337 44.0451 13.892C43.9876 13.7482 43.9589 13.6021 43.9589 13.4539Z" fill="#2B2B2B"/>
<path d="M48.2849 12.8687H47.6078V14.6342H46.9606V12.8687H46.2802V12.3129H48.2849V12.8687Z" fill="#2B2B2B"/>
<path d="M48.6003 14.6342V12.3129H49.2475V13.7253L50.1171 12.3129H50.7211V14.6342H50.0739V13.2218L49.2143 14.6342H48.6003Z" fill="#2B2B2B"/>
</svg>
