<svg width="54" height="28" viewBox="0 0 54 28" fill="none" xmlns="http://www.w3.org/2000/svg">
<rect x="0.706806" y="0.847431" width="53.1164" height="26.1576" rx="2.77893" fill="white"/>
<rect x="0.706806" y="0.847431" width="53.1164" height="26.1576" rx="2.77893" stroke="#D3D3D3" stroke-width="0.292519"/>
<path fill-rule="evenodd" clip-rule="evenodd" d="M31.4906 11.3379L29.5115 16.5155H28.7049L30.6838 11.3379H31.4908H31.4906ZM26.0484 13.8751C26.0484 13.4733 26.3397 13.0522 26.8493 13.0522C27.3591 13.0522 27.6383 13.4184 27.6383 13.8751C27.6383 14.3318 27.3653 14.6978 26.8493 14.6978C26.3332 14.6978 26.0484 14.2769 26.0484 13.8751V13.8751ZM26.0597 12.821V12.5307H25.3062V16.5135H26.0871V14.9656C26.1756 15.0561 26.4866 15.2941 26.9472 15.2941C27.6695 15.2941 28.334 14.7755 28.334 13.8751C28.334 12.9333 27.6025 12.4669 26.9472 12.4669C26.4486 12.4669 26.1482 12.728 26.0597 12.821V12.821ZM22.8081 13.5788C22.8299 13.3974 23.0223 13.0326 23.4969 13.0326C24.0252 13.0326 24.1109 13.4299 24.1235 13.5788H22.8081ZM22.0303 13.886C22.0303 14.6897 22.6306 15.2941 23.5244 15.2941C24.4181 15.2941 24.7993 14.6844 24.7993 14.6844L24.2299 14.3163C24.2299 14.3163 24.0356 14.6976 23.5298 14.6976C23.0089 14.6976 22.7993 14.2705 22.7993 14.1075H24.8633C24.8633 14.1075 24.8746 13.9895 24.8746 13.9551V13.8642C24.8746 13.068 24.3702 12.4669 23.4969 12.4669C22.6234 12.4669 22.0303 13.0822 22.0303 13.886ZM20.9533 12.5307L21.985 15.2302H21.1471L20.5478 13.5085H20.5371L19.9397 15.2302H19.1045L20.1364 12.5307H20.9531H20.9533ZM16.8646 13.9158C16.8646 13.5297 17.087 13.1929 17.6001 13.1929C18.1129 13.1929 18.2966 13.6307 18.2966 13.9428C18.2966 14.2552 18.108 14.6978 17.5941 14.6978C17.0804 14.6978 16.8646 14.3017 16.8646 13.9156V13.9158ZM16.9424 12.7611C16.9631 12.6698 17.0444 11.947 18.0605 11.947H18.6883L18.921 11.3381H18.0712C16.951 11.3381 16.1001 11.8335 16.1001 13.5758C16.1001 14.5322 16.5256 15.2943 17.5721 15.2943C18.5672 15.2943 19.0555 14.5965 19.0555 13.9179C19.0555 12.9351 18.2995 12.5309 17.6636 12.5309C17.4053 12.5325 17.1537 12.6128 16.9422 12.7611H16.9424ZM14.9444 12.5309H15.6116V15.2304H14.8306V13.649L14.0736 14.5994H13.8619L13.8444 14.578L13.0989 13.662V15.2304H12.3175V12.5307H12.9853L13.0024 12.551L13.9724 13.67L14.9444 12.5307V12.5309ZM10.9466 14.1051C10.9466 14.4743 10.732 14.7286 10.3163 14.7286C9.9145 14.7286 9.88044 14.5017 9.88044 14.4153C9.88044 14.2157 10.069 14.0826 10.5181 14.0432C10.6429 14.0324 10.768 14.0271 10.8933 14.0271H10.9466V14.1049V14.1051ZM11.6779 13.8113C11.6779 13.7568 11.6771 13.7047 11.6747 13.6541C11.6366 12.8135 11.2661 12.4671 10.4663 12.4671C9.92481 12.4671 9.5726 12.6792 9.44865 12.7656L9.65958 13.317C9.65958 13.317 9.98883 13.0481 10.4049 13.0481C10.9935 13.0481 10.9353 13.5149 10.9353 13.5149C10.7339 13.5167 9.13225 13.4367 9.13225 14.4367C9.13225 14.9913 9.60899 15.2943 10.1443 15.2943C10.6205 15.2943 10.8765 15.0646 10.961 14.9753C10.9614 14.9876 10.9777 15.2302 10.9777 15.2302H11.7055C11.7055 15.2302 11.6779 14.9961 11.6779 14.6293V13.8113ZM7.10212 13.212V11.9903H7.50102C7.78454 11.9903 8.24201 12.1569 8.24201 12.6037C8.24201 13.0542 7.78454 13.2118 7.48993 13.2118H7.10212V13.212ZM46.3966 12.9678L46.8218 13.1024C46.8218 13.1024 46.3116 14.3493 46.2682 14.484C46.2334 14.5649 46.8566 14.0724 47.3081 13.3538C47.4556 13.1203 47.4729 13.1114 47.4729 13.1114L47.8724 13.2371C47.8374 13.3091 47.2993 14.1353 47.2559 14.6383C47.2213 15.0514 47.6118 14.9886 47.6118 14.9886L47.7854 14.5754L48.2368 14.7282C48.1415 14.9257 47.959 15.2581 47.4209 15.2581C46.9259 15.2581 46.8218 14.9886 46.8479 14.6922C46.8654 14.4766 46.9522 14.2791 46.9522 14.2791C46.6743 14.6293 46.1133 14.9751 45.9761 14.9512C45.7835 14.9175 45.7193 14.7819 45.7193 14.7819L45.7874 14.5996L46.3964 12.9678H46.3966ZM7.55687 11.3379C8.36538 11.3379 9.05675 11.7666 9.05675 12.6008C9.05675 13.4352 8.36538 13.8578 7.53994 13.8578H7.10212V15.2302H6.29321V11.3379H7.55687ZM33.5758 12.8956C33.6896 12.8956 33.9354 13.0053 33.9354 13.4564C33.9354 13.5996 33.9226 13.6724 33.885 13.8035C33.9796 13.7961 34.0724 13.7913 34.1615 13.7881L34.3884 13.0983L34.7801 13.2509L34.5943 13.7858C34.6727 13.7876 34.7426 13.7901 34.8007 13.793C35.0228 13.2127 35.5472 12.9238 35.9519 12.9238C36.4018 12.9238 36.115 13.5056 36.0852 13.564L36.0827 13.5685L35.7643 13.4774C35.7643 13.4774 35.8863 13.2367 35.8828 13.2375C35.4563 13.3313 35.0471 14.0613 35.2043 14.6484L35.6456 14.2357L35.9334 14.5406C35.9334 14.5406 35.5556 15.0123 35.087 15.0123C34.9887 15.0123 34.6706 14.8592 34.6959 14.3092C34.6992 14.2425 34.706 14.1783 34.7157 14.1164C34.6527 14.1151 34.5723 14.1145 34.4803 14.1145L34.2174 14.8708L33.85 14.736L34.0516 14.123C33.9586 14.1269 33.863 14.132 33.7675 14.139C33.5087 14.7333 33.0724 15.0102 32.7469 15.0102C32.2767 15.0102 32.2404 14.4453 32.6587 14.1345C32.8609 13.9843 33.1944 13.8913 33.4013 13.8508C33.5009 13.5613 33.5694 13.2816 33.4859 13.2334C33.4213 13.196 33.16 13.694 33.16 13.694L32.7891 13.5817C32.9963 13.0594 33.2886 12.8956 33.5758 12.8956V12.8956ZM41.4385 12.9061C41.6613 12.9061 41.7199 13.0053 41.702 13.1649C41.6689 13.4587 41.4681 13.6963 41.4681 13.6963L41.1398 13.5899C41.1398 13.5899 41.3969 13.1915 41.393 13.1919C40.8795 13.2447 40.3317 14.0158 40.5578 14.657L41.1087 14.3217L41.2381 14.5188C41.2381 14.5188 40.881 14.9948 40.4625 14.9948C40.358 14.9948 40.0309 14.8899 40.0309 14.39C40.0309 13.5101 40.6824 12.9061 41.4385 12.9061V12.9061ZM37.4506 12.9032C37.9365 12.9032 37.9196 13.3807 37.7122 13.6607C37.4458 14.0207 37.0167 14.2038 36.6306 14.2038C36.5929 14.3114 36.5812 14.5346 36.6515 14.657L37.4841 14.3307L37.5835 14.5591C37.4154 14.6766 36.9579 14.995 36.5561 14.995C36.4076 14.995 36.1562 14.8815 36.1572 14.4571C36.1588 13.4692 36.9074 12.9032 37.4506 12.9032V12.9032ZM44.227 12.9765L44.6523 13.1201C44.6523 13.1201 44.1229 14.3867 44.0534 14.5212C44.0188 14.5842 44.7652 14.189 45.2166 13.3268L45.3383 13.1112L45.7288 13.2369L45.1273 14.5782L45.4858 14.4315L45.6074 14.6202C45.6074 14.6202 45.5517 14.6663 45.348 14.8021C45.1756 14.9169 44.9946 14.9849 44.9946 14.9849L44.6648 14.7603C44.6648 14.7603 44.8971 14.219 44.88 14.2369C44.7323 14.4346 44.1192 14.951 43.932 14.9615C43.5576 14.9823 43.5846 14.656 43.6454 14.5034L44.2272 12.9765H44.227ZM38.3689 12.9586L38.7857 13.1112L38.5234 13.8259C38.5234 13.8259 38.623 13.8845 38.8246 13.8817C39.0301 13.8788 39.1749 13.7961 39.1749 13.7961L39.4734 13.0372L39.8902 13.1808L39.3518 14.5287L39.7077 14.3762L39.8205 14.5377C39.8205 14.5377 39.7666 14.6021 39.5409 14.7549C39.3327 14.8987 39.1936 14.9705 39.1936 14.9705L38.855 14.7459L39.0665 14.1619C39.0665 14.1619 38.9692 14.2145 38.7513 14.2304C38.5798 14.2429 38.3862 14.189 38.3862 14.189L38.1085 14.9705L37.718 14.8356L38.3689 12.9586V12.9586ZM42.156 12.9584L42.5726 13.1112L42.3677 13.6735L43.283 12.9958L43.5971 13.1079L43.2791 13.9411L42.9588 13.8477L43.084 13.5492L42.5035 13.9664L42.9281 14.5513L43.3727 14.3754L43.4743 14.6155C43.4743 14.6155 43.2332 14.8012 43.0703 14.9125C42.897 15.0312 42.724 14.9514 42.6247 14.8226C42.473 14.6258 42.2712 14.3427 42.1741 14.2053L41.8954 14.9705L41.5049 14.8356L42.156 12.9584V12.9584ZM33.33 14.197C33.0806 14.2715 32.7652 14.4686 32.8228 14.6893C32.8228 14.6893 33.2256 14.5554 33.33 14.197ZM37.461 13.4077C37.5187 13.2412 37.41 13.2067 37.2751 13.2657C37.0856 13.349 36.8684 13.5694 36.74 13.864C37.0624 13.8057 37.373 13.6609 37.461 13.4077ZM46.9173 12.0063L47.4295 12.1771L47.2732 12.4825L48.0199 12.2309L48.1413 12.4196C48.0806 12.5274 47.6291 12.7609 47.2472 12.7609C46.9607 12.7609 46.7872 12.6082 46.8045 12.3657C46.822 12.1501 46.9173 12.0063 46.9173 12.0063V12.0063Z" fill="#C60D8B"/>
<path fill-rule="evenodd" clip-rule="evenodd" d="M31.4906 11.3379L29.5115 16.5155H28.7049L30.6838 11.3379H31.4908H31.4906ZM26.0484 13.8751C26.0484 13.4733 26.3397 13.0522 26.8493 13.0522C27.3591 13.0522 27.6383 13.4184 27.6383 13.8751C27.6383 14.3318 27.3653 14.6978 26.8493 14.6978C26.3332 14.6978 26.0484 14.2769 26.0484 13.8751V13.8751ZM26.0597 12.821V12.5307H25.3062V16.5135H26.0871V14.9656C26.1756 15.0561 26.4866 15.2941 26.9472 15.2941C27.6695 15.2941 28.334 14.7755 28.334 13.8751C28.334 12.9333 27.6025 12.4669 26.9472 12.4669C26.4486 12.4669 26.1482 12.728 26.0597 12.821V12.821ZM22.8081 13.5788C22.8299 13.3974 23.0223 13.0326 23.4969 13.0326C24.0252 13.0326 24.1109 13.4299 24.1235 13.5788H22.8081ZM22.0303 13.886C22.0303 14.6897 22.6306 15.2941 23.5244 15.2941C24.4181 15.2941 24.7993 14.6844 24.7993 14.6844L24.2299 14.3163C24.2299 14.3163 24.0356 14.6976 23.5298 14.6976C23.0089 14.6976 22.7993 14.2705 22.7993 14.1075H24.8633C24.8633 14.1075 24.8746 13.9895 24.8746 13.9551V13.8642C24.8746 13.068 24.3702 12.4669 23.4969 12.4669C22.6234 12.4669 22.0303 13.0822 22.0303 13.886ZM20.9533 12.5307L21.985 15.2302H21.1471L20.5478 13.5085H20.5372L19.9399 15.2302H19.1047L20.1366 12.5307H20.9533V12.5307ZM16.8646 13.9156C16.8646 13.5295 17.087 13.1927 17.6001 13.1927C18.1129 13.1927 18.2966 13.6305 18.2966 13.9426C18.2966 14.255 18.108 14.6976 17.5941 14.6976C17.0804 14.6976 16.8646 14.3015 16.8646 13.9154V13.9156ZM16.9424 12.7609C16.9631 12.6697 17.0444 11.9468 18.0605 11.9468H18.6883L18.921 11.3379H18.0712C16.951 11.3379 16.1001 11.8333 16.1001 13.5757C16.1001 14.5321 16.5256 15.2941 17.5721 15.2941C18.5672 15.2941 19.0555 14.5963 19.0555 13.9177C19.0555 12.9349 18.2995 12.5307 17.6636 12.5307C17.4053 12.5323 17.1537 12.6126 16.9422 12.7609H16.9424ZM14.9444 12.5307H15.6116V15.2302H14.8306V13.6488L14.0736 14.5992H13.8619L13.8444 14.5778L13.0989 13.6619V15.2302H12.3175V12.5307H12.9853L13.0024 12.551L13.9724 13.67L14.9444 12.5307V12.5307ZM10.9466 14.1049C10.9466 14.4741 10.732 14.7284 10.3163 14.7284C9.9145 14.7284 9.88044 14.5015 9.88044 14.4151C9.88044 14.2155 10.069 14.0824 10.5181 14.0431C10.6429 14.0322 10.768 14.0269 10.8933 14.0269H10.9466V14.1047V14.1049ZM11.6779 13.8111C11.6779 13.7566 11.6771 13.7045 11.6747 13.6539C11.6366 12.8133 11.2661 12.4669 10.4663 12.4669C9.92481 12.4669 9.5726 12.679 9.44865 12.7654L9.65959 13.3169C9.65959 13.3169 9.98883 13.0479 10.4049 13.0479C10.9935 13.0479 10.9353 13.5147 10.9353 13.5147C10.7339 13.5165 9.13225 13.4365 9.13225 14.4365C9.13225 14.9911 9.60899 15.2941 10.1443 15.2941C10.6205 15.2941 10.8765 15.0644 10.961 14.9751C10.9614 14.9874 10.9777 15.23 10.9777 15.23H11.7055C11.7055 15.23 11.6779 14.996 11.6779 14.6292V13.8111V13.8111ZM7.10211 13.2118V11.9901H7.50102C7.78454 11.9901 8.24201 12.1567 8.24201 12.6035C8.24201 13.054 7.78454 13.2116 7.48993 13.2116H7.10211V13.2118ZM46.3966 12.9676L46.8218 13.1022C46.8218 13.1022 46.3116 14.3491 46.2682 14.4838C46.2334 14.5647 46.8566 14.0722 47.3081 13.3536C47.4556 13.1201 47.4729 13.1112 47.4729 13.1112L47.8724 13.2369C47.8374 13.3089 47.2993 14.1351 47.2559 14.6381C47.2213 15.0512 47.6118 14.9884 47.6118 14.9884L47.7854 14.5753L48.2368 14.728C48.1415 14.9255 47.959 15.2579 47.4209 15.2579C46.9259 15.2579 46.8218 14.9884 46.8479 14.692C46.8654 14.4764 46.9522 14.2789 46.9522 14.2789C46.6743 14.6292 46.1133 14.9749 45.9761 14.951C45.7835 14.9173 45.7193 14.7817 45.7193 14.7817L45.7874 14.5994L46.3964 12.9676H46.3966ZM7.55687 11.3379C8.36538 11.3379 9.05675 11.7666 9.05675 12.6008C9.05675 13.4352 8.36538 13.8578 7.53994 13.8578H7.10211V15.2302H6.29321V11.3379H7.55687ZM33.5758 12.8956C33.6896 12.8956 33.9354 13.0053 33.9354 13.4564C33.9354 13.5996 33.9226 13.6724 33.885 13.8035C33.9796 13.7961 34.0724 13.7913 34.1615 13.7881L34.3884 13.0983L34.7801 13.2509L34.5943 13.7858C34.6727 13.7876 34.7426 13.7901 34.8007 13.793C35.0228 13.2127 35.5472 12.9238 35.9519 12.9238C36.4018 12.9238 36.115 13.5056 36.0852 13.564L36.0827 13.5685L35.7643 13.4774C35.7643 13.4774 35.8863 13.2367 35.8828 13.2375C35.4563 13.3313 35.0471 14.0613 35.2043 14.6484L35.6456 14.2357L35.9334 14.5406C35.9334 14.5406 35.5555 15.0123 35.087 15.0123C34.9887 15.0123 34.6706 14.8592 34.6959 14.3092C34.6992 14.2425 34.706 14.1783 34.7157 14.1164C34.6527 14.1151 34.5723 14.1145 34.4803 14.1145L34.2174 14.8708L33.85 14.736L34.0516 14.123C33.9586 14.1269 33.863 14.132 33.7675 14.139C33.5087 14.7333 33.0724 15.0102 32.7469 15.0102C32.2767 15.0102 32.2404 14.4453 32.6587 14.1345C32.8609 13.9843 33.1944 13.8913 33.4013 13.8508C33.5009 13.5613 33.5694 13.2816 33.4859 13.2334C33.4213 13.196 33.16 13.694 33.16 13.694L32.7891 13.5817C32.9963 13.0594 33.2886 12.8956 33.5758 12.8956V12.8956ZM41.4385 12.9061C41.6613 12.9061 41.7199 13.0053 41.702 13.1649C41.6689 13.4587 41.4681 13.6963 41.4681 13.6963L41.1398 13.5899C41.1398 13.5899 41.3969 13.1915 41.393 13.1919C40.8795 13.2447 40.3317 14.0158 40.5578 14.657L41.1087 14.3217L41.2381 14.5188C41.2381 14.5188 40.881 14.9948 40.4625 14.9948C40.358 14.9948 40.0309 14.8899 40.0309 14.39C40.0309 13.5101 40.6824 12.9061 41.4385 12.9061V12.9061ZM37.4506 12.9032C37.9365 12.9032 37.9196 13.3807 37.7122 13.6607C37.4458 14.0207 37.0167 14.2038 36.6306 14.2038C36.5929 14.3114 36.5812 14.5346 36.6515 14.657L37.4841 14.3307L37.5835 14.5591C37.4154 14.6766 36.9579 14.995 36.5561 14.995C36.4076 14.995 36.1562 14.8815 36.1572 14.4571C36.1588 13.4692 36.9074 12.9032 37.4506 12.9032ZM44.227 12.9765L44.6523 13.1201C44.6523 13.1201 44.1229 14.3867 44.0534 14.5212C44.0188 14.5842 44.7652 14.189 45.2166 13.3268L45.3383 13.1112L45.7288 13.2369L45.1273 14.5782L45.4858 14.4315L45.6074 14.6202C45.6074 14.6202 45.5517 14.6663 45.348 14.8021C45.1756 14.9169 44.9946 14.9849 44.9946 14.9849L44.6648 14.7603C44.6648 14.7603 44.8971 14.219 44.88 14.2369C44.7323 14.4346 44.1192 14.951 43.932 14.9615C43.5576 14.9823 43.5846 14.656 43.6454 14.5034L44.2272 12.9765H44.227ZM38.3689 12.9586L38.7857 13.1112L38.5234 13.8259C38.5234 13.8259 38.623 13.8845 38.8246 13.8817C39.0301 13.8788 39.1749 13.7961 39.1749 13.7961L39.4734 13.0372L39.8902 13.1808L39.3518 14.5287L39.7077 14.3762L39.8205 14.5377C39.8205 14.5377 39.7666 14.6021 39.5409 14.7549C39.3327 14.8987 39.1936 14.9705 39.1936 14.9705L38.855 14.7459L39.0665 14.1619C39.0665 14.1619 38.9692 14.2145 38.7513 14.2304C38.5798 14.2429 38.3862 14.189 38.3862 14.189L38.1085 14.9705L37.718 14.8356L38.3689 12.9586V12.9586ZM42.156 12.9584L42.5726 13.1112L42.3677 13.6735L43.283 12.9958L43.5971 13.1079L43.2791 13.9411L42.9588 13.8477L43.084 13.5492L42.5035 13.9664L42.9281 14.5513L43.3727 14.3754L43.4743 14.6155C43.4743 14.6155 43.2332 14.8012 43.0703 14.9125C42.897 15.0312 42.724 14.9514 42.6247 14.8226C42.473 14.6258 42.2712 14.3427 42.1741 14.2053L41.8954 14.9705L41.5049 14.8356L42.1558 12.9584H42.156ZM33.33 14.197C33.0806 14.2715 32.7652 14.4686 32.8228 14.6893C32.8228 14.6893 33.2256 14.5554 33.33 14.197ZM37.461 13.4077C37.5187 13.2412 37.41 13.2067 37.2751 13.2657C37.0856 13.349 36.8684 13.5694 36.74 13.864C37.0624 13.8057 37.373 13.6609 37.461 13.4077ZM46.9173 12.0063L47.4295 12.1771L47.2732 12.4825L48.0199 12.2309L48.1413 12.4196C48.0806 12.5274 47.6291 12.7609 47.2472 12.7609C46.9607 12.7609 46.7872 12.6082 46.8045 12.3657C46.822 12.1501 46.9173 12.0063 46.9173 12.0063V12.0063Z" fill="#C60D8B"/>
</svg>
