<svg width="54" height="27" viewBox="0 0 54 27" fill="none" xmlns="http://www.w3.org/2000/svg">
<rect x="0.680439" y="0.397236" width="53.1164" height="26.1576" rx="2.77893" fill="white"/>
<rect x="0.680439" y="0.397236" width="53.1164" height="26.1576" rx="2.77893" stroke="#D3D3D3" stroke-width="0.292519"/>
<path d="M45.5211 13.4762V12.2963C45.5211 12.0558 45.4374 11.8473 45.2595 11.6697C45.092 11.5025 44.8831 11.4189 44.6422 11.4189H44.3391V13.6839C44.3391 13.8717 44.245 14.0286 44.0671 14.1639C43.8892 14.2992 43.6907 14.3621 43.4713 14.3621C43.2201 14.3621 43.0111 14.2889 42.8436 14.1329C42.6761 13.976 42.5941 13.7778 42.5924 13.5382L42.582 12.2963C42.5803 12.0558 42.5008 11.8447 42.3307 11.6697C42.1658 11.5 41.9543 11.4189 41.7134 11.4189H41.4103V13.5796C41.4103 14.1122 41.6193 14.5715 42.0277 14.9576C42.4352 15.3438 42.917 15.5316 43.4705 15.5316C44.0352 15.5316 44.5187 15.336 44.9236 14.9258C45.3251 14.5224 45.5211 14.0398 45.5211 13.4762ZM41.1919 11.7439V11.4414L39.8216 11.431C39.2466 11.4267 38.7656 11.6292 38.3572 12.0257C37.9497 12.4221 37.7511 12.903 37.7511 13.4762V15.5325H38.0645C38.3054 15.5325 38.5144 15.4489 38.681 15.2817C38.8485 15.1145 38.9297 14.9059 38.9323 14.6655C38.94 13.789 38.9426 13.34 38.9323 13.3296C38.9634 13.1107 39.0704 12.9358 39.2353 12.797C39.3942 12.6643 39.5807 12.5841 39.8 12.5885L40.3336 12.5988C40.5745 12.6031 40.7731 12.5152 40.9398 12.348C41.1081 12.1817 41.1919 11.9834 41.1919 11.7439Z" fill="#008BD2"/>
<path d="M35.4657 15.4789V15.1756C35.4657 14.9344 35.3845 14.733 35.2141 14.5575C35.049 14.3873 34.8475 14.306 34.6071 14.306H34.4817C34.2413 14.306 34.0286 14.2248 33.8531 14.0458C33.6828 13.8721 33.6049 13.6603 33.6015 13.4209L33.5911 12.5678H33.7165C33.9577 12.5678 34.1566 12.4839 34.3339 12.3059C34.5016 12.1382 34.5855 11.9394 34.5855 11.6991V11.3853H33.5902V10.2764H33.2867C33.0464 10.2764 32.844 10.3576 32.6685 10.5279C32.4981 10.693 32.4169 10.9048 32.4169 11.1459V13.4226C32.4169 13.9845 32.6261 14.4642 33.0351 14.8722C33.4432 15.2801 33.9361 15.4798 34.512 15.4798H35.4657V15.4789ZM32.0416 11.6792V11.3758L30.6693 11.3655C30.0935 11.3611 29.6118 11.5643 29.2028 11.9619C28.7947 12.3595 28.5958 12.8418 28.5958 13.4166V15.4789H28.9097C29.151 15.4789 29.3602 15.3951 29.528 15.2274C29.6957 15.0597 29.777 14.8506 29.7796 14.6094C29.7874 13.7303 29.79 13.28 29.7796 13.2696C29.8107 13.0501 29.9179 12.8746 30.0831 12.7355C30.2422 12.6024 30.429 12.522 30.6486 12.5263L31.183 12.5367C31.4242 12.541 31.6231 12.4528 31.79 12.2851C31.9577 12.1183 32.0416 11.9195 32.0416 11.6792ZM27.1302 13.4218C27.1302 13.6612 27.0472 13.8686 26.8682 14.0467C26.6909 14.223 26.4808 14.3069 26.2396 14.3069C25.9983 14.3069 25.7891 14.2239 25.6109 14.0467C25.4328 13.8695 25.3489 13.6612 25.3489 13.4218C25.3489 13.1832 25.4302 12.9706 25.6109 12.7968C25.7865 12.6283 25.9983 12.547 26.2396 12.547C26.4808 12.547 26.6875 12.6335 26.8682 12.8072C27.0437 12.9766 27.1302 13.1832 27.1302 13.4218ZM28.3027 13.4218C28.3027 12.8599 28.1038 12.3802 27.6948 11.9722C27.2867 11.5643 26.8042 11.3655 26.2396 11.3655C25.6637 11.3655 25.1795 11.5617 24.7731 11.9722C24.3727 12.3776 24.1764 12.8608 24.1764 13.4218C24.1764 13.994 24.3753 14.4737 24.7843 14.8825C25.1821 15.2801 25.6637 15.4789 26.2396 15.4789C26.8051 15.4789 27.2841 15.2776 27.6948 14.8713C28.1012 14.472 28.3027 13.994 28.3027 13.4218ZM24.0511 13.4218C24.0511 12.8599 23.8496 12.3828 23.4441 11.9722C23.0437 11.5669 22.5647 11.3655 21.9879 11.3655C21.4017 11.3655 20.9192 11.5539 20.5327 11.9204C20.1237 12.3076 19.9257 12.8089 19.9257 13.433V16.6752H20.2084C20.4497 16.6752 20.6589 16.5922 20.837 16.4133C21.0048 16.2448 21.0887 16.0416 21.0887 15.7988V13.4226C21.0887 13.1841 21.1803 12.9714 21.361 12.7977C21.5366 12.6292 21.7484 12.5479 21.9897 12.5479C22.2413 12.5479 22.4505 12.6317 22.6287 12.8081C22.7964 12.974 22.8803 13.1832 22.8803 13.4226C22.8803 13.6828 22.8076 13.8911 22.671 14.0476C22.5154 14.2248 22.2836 14.3077 21.9905 14.3077C21.8331 14.3077 21.6836 14.3994 21.54 14.58C21.4008 14.7555 21.3308 14.9465 21.3308 15.1661V15.4798H22.0433C22.6088 15.4798 23.0826 15.2836 23.4778 14.8722C23.8548 14.4772 24.0511 13.994 24.0511 13.4218Z" fill="#008BD2"/>
<path d="M17.6238 13.1306C17.5446 12.6402 17.3273 12.2325 16.9606 11.899C16.5947 11.5861 16.1789 11.4189 15.7044 11.4189C15.1604 11.4189 14.7054 11.6172 14.3191 12.0248C13.9434 12.4316 13.7555 12.9116 13.7555 13.4753C13.7555 14.0389 13.9532 14.519 14.3387 14.9258C14.7242 15.3325 15.1792 15.5325 15.724 15.5325H17.1583V15.2283C17.1583 14.9878 17.0888 14.7896 16.941 14.6233C16.8021 14.4561 16.6241 14.3725 16.397 14.3725L15.7044 14.3621C15.4765 14.3621 15.2788 14.2682 15.1106 14.0906C14.9423 13.9234 14.8631 13.7149 14.8631 13.4744C14.8631 13.234 14.9423 13.0254 15.1106 12.8479C15.2788 12.6703 15.4765 12.5867 15.7044 12.5867C15.8922 12.5867 16.0703 12.6496 16.2189 12.7746C16.3676 12.8892 16.4566 13.0461 16.5056 13.234L16.0311 13.7347L16.2385 13.9536C16.397 14.1208 16.5849 14.2044 16.8127 14.2044C17.0398 14.2044 17.2383 14.1208 17.3959 13.9536L17.4458 13.9122C17.614 13.7252 17.6728 13.4641 17.6238 13.1306Z" fill="#008BD2"/>
<path fill-rule="evenodd" clip-rule="evenodd" d="M18.783 13.2472C19.1609 13.2472 19.4686 12.9395 19.4686 12.5616C19.4686 12.1837 19.1609 11.876 18.783 11.876C18.4051 11.876 18.0974 12.1837 18.0974 12.5616C18.0974 12.9395 18.406 13.2472 18.783 13.2472Z" fill="#FFCC00"/>
<path fill-rule="evenodd" clip-rule="evenodd" d="M36.3798 15.7608C36.7577 15.7608 37.0654 15.4531 37.0654 15.0752C37.0654 14.6973 36.7577 14.3896 36.3798 14.3896C36.0019 14.3896 35.6942 14.6973 35.6942 15.0752C35.6942 15.4531 36.0019 15.7608 36.3798 15.7608Z" fill="#FFCC00"/>
<path d="M12.8401 13.3076L12.7132 13.2155L12.8401 13.1234C13.1414 12.907 13.2916 12.6515 13.2916 12.356V11.6225C13.2916 11.4331 13.226 11.254 13.0948 11.0872C12.9524 10.9064 12.7555 10.7647 12.5043 10.6604C12.2531 10.557 11.9838 10.5049 11.6937 10.5049H10.5533L8.9563 10.5066C8.9563 12.3482 8.97615 14.1715 8.97615 15.9896H9.28952C9.53037 15.9896 9.73928 15.9053 9.90589 15.7367C10.3298 15.3109 10.1709 14.0394 10.1709 13.5632H11.6929C11.8008 13.5632 11.8914 13.6092 11.9648 13.7022C12.0382 13.7943 12.0744 13.9047 12.0744 14.0325C12.0744 14.6956 12.0882 15.323 12.0882 15.9887H12.4016C12.6424 15.9887 12.8514 15.9044 13.018 15.7358C13.3762 15.3752 13.289 14.5348 13.289 14.0803C13.2908 13.7856 13.1406 13.5284 12.8401 13.3076ZM12.0761 12.1883C12.0761 12.3117 12.039 12.4195 11.9665 12.5124C11.8931 12.6046 11.8025 12.6515 11.6946 12.6515H10.1718V11.4548L10.5533 11.4487H11.6937C11.8016 11.4487 11.8923 11.4948 11.9656 11.5878C12.039 11.6799 12.0753 11.7885 12.0753 11.9119V12.1883H12.0761Z" fill="#008BD2"/>
</svg>
