<svg xmlns="http://www.w3.org/2000/svg" width="12" height="12" fill="none"><path fill="#7B87FF" d="M10.363 2.119a.426.426 0 0 0-.489-.49C8.29 1.884 7.397 1.51 6.34.155a.448.448 0 0 0-.678 0C4.603 1.51 3.711 1.883 2.126 1.63a.41.41 0 0 0-.369.12.425.425 0 0 0-.12.369c.253 1.586-.12 2.478-1.474 3.538a.431.431 0 0 0 0 .678c1.354 1.059 1.727 1.95 1.474 3.538a.425.425 0 0 0 .12.369.413.413 0 0 0 .369.12c1.585-.253 2.477.12 3.535 1.475a.43.43 0 0 0 .678 0c1.058-1.355 1.95-1.728 3.535-1.475a.426.426 0 0 0 .489-.489c-.253-1.587.12-2.48 1.474-3.539a.431.431 0 0 0 0-.677c-1.354-1.06-1.727-1.951-1.474-3.538ZM8.019 5.206 5.833 7.394a.443.443 0 0 1-.304.124.45.45 0 0 1-.305-.124L3.982 6.15a.433.433 0 0 1 0-.61.432.432 0 0 1 .608 0l.939.944L7.41 4.597a.432.432 0 0 1 .609 0 .433.433 0 0 1 0 .61Z"/></svg>