<svg xmlns="http://www.w3.org/2000/svg" width="10" height="9" fill="none"><path fill="#D6AE72" d="M2.131 0a.09.09 0 0 0-.04.01.084.084 0 0 0-.032.026.077.077 0 0 0-.007.076L2.1.22l.87 1.907a.081.081 0 0 0 .027.033.088.088 0 0 0 .085.01.085.085 0 0 0 .034-.026L4.722.129A.076.076 0 0 0 4.73.045.082.082 0 0 0 4.7.011.09.09 0 0 0 4.654 0H2.13Zm6.371.524L7.62 2.46a.076.076 0 0 0 .008.076c.007.01.018.02.03.026a.09.09 0 0 0 .041.01h2.158a.09.09 0 0 0 .043-.011.083.083 0 0 0 .032-.03.077.077 0 0 0-.003-.082L8.653.513a.084.084 0 0 0-.034-.03.09.09 0 0 0-.088.007.082.082 0 0 0-.029.034ZM1.347.514.07 2.45a.077.077 0 0 0-.002.081.083.083 0 0 0 .031.03.09.09 0 0 0 .044.012H2.3a.09.09 0 0 0 .04-.01.084.084 0 0 0 .032-.027.077.077 0 0 0 .007-.075L1.496.525a.082.082 0 0 0-.029-.033.089.089 0 0 0-.12.022ZM7.933 0h-2.68a.043.043 0 0 0-.022.006.04.04 0 0 0-.016.016.037.037 0 0 0 .004.04l1.708 2.14c.004.006.01.01.017.013a.044.044 0 0 0 .04-.005.04.04 0 0 0 .014-.016l.9-1.973.072-.168a.037.037 0 0 0-.004-.035.04.04 0 0 0-.014-.013A.043.043 0 0 0 7.933 0ZM4.637 8.361l-1.91-5.095a.077.077 0 0 0-.03-.036.084.084 0 0 0-.047-.014H.08a.083.083 0 0 0-.042.011.077.077 0 0 0-.03.03.07.07 0 0 0 .009.08L4.63 8.96a.11.11 0 0 0 .063.038.114.114 0 0 0 .074-.01.103.103 0 0 0 .05-.052.095.095 0 0 0 .001-.07l-.182-.505ZM9.92 3.216H7.35a.084.084 0 0 0-.046.014.076.076 0 0 0-.03.036L5.176 8.857a.099.099 0 0 0 .002.073c.009.023.027.042.05.054.023.012.05.016.076.01a.113.113 0 0 0 .065-.038l4.614-5.62a.07.07 0 0 0 .009-.079.077.077 0 0 0-.03-.03.083.083 0 0 0-.042-.011ZM5.068.943l1.197 1.501a.076.076 0 0 1 .008.084.082.082 0 0 1-.032.033.09.09 0 0 1-.045.012H3.804a.09.09 0 0 1-.045-.012.082.082 0 0 1-.032-.033.076.076 0 0 1 .008-.084l1.197-1.5a.084.084 0 0 1 .03-.024.09.09 0 0 1 .106.023Zm-.15 6.237L3.473 3.323a.076.076 0 0 1 .011-.073.084.084 0 0 1 .03-.025.09.09 0 0 1 .04-.01h2.894a.09.09 0 0 1 .04.01.084.084 0 0 1 .03.025.078.078 0 0 1 .01.073L5.082 7.18a.081.081 0 0 1-.032.04.09.09 0 0 1-.098 0 .081.081 0 0 1-.032-.04Z"/></svg>