<svg width="16" height="16" viewBox="0 0 16 16" fill="none" xmlns="http://www.w3.org/2000/svg">
<path fill-rule="evenodd" clip-rule="evenodd" d="M16 8C16 12.4183 12.4183 16 8 16C3.58172 16 0 12.4183 0 8C0 3.58172 3.58172 0 8 0C12.4183 0 16 3.58172 16 8ZM8.69001 10.3527L8.82001 4H7.17508L7.30507 10.3527H8.69001ZM7.29007 12.7475C7.48673 12.9158 7.72339 13 8.00004 13C8.18003 13 8.34503 12.9608 8.49502 12.8824C8.64501 12.8041 8.76501 12.6996 8.85501 12.5689C8.94834 12.4354 8.99667 12.2888 9 12.1292C8.99667 11.8911 8.89667 11.688 8.70001 11.5196C8.50335 11.3483 8.27003 11.2627 8.00004 11.2627C7.72339 11.2627 7.48673 11.3483 7.29007 11.5196C7.09341 11.688 6.99675 11.8911 7.00008 12.1292C6.99675 12.3701 7.09341 12.5762 7.29007 12.7475Z" fill="#D34242"/>
</svg>
