<svg width="17" height="17" viewBox="0 0 17 17" fill="none" xmlns="http://www.w3.org/2000/svg">
<path fill-rule="evenodd" clip-rule="evenodd" d="M6.45354 1.02316C6.24655 1.19956 6.14304 1.28777 6.0325 1.36186C5.77912 1.53169 5.49455 1.64956 5.19529 1.70864C5.06473 1.73442 4.92918 1.74524 4.65807 1.76687C3.9769 1.82123 3.6363 1.84841 3.35215 1.94878C2.69494 2.18091 2.17798 2.69786 1.94585 3.35508C1.84548 3.63923 1.81831 3.97983 1.76394 4.661C1.74231 4.93211 1.73149 5.06766 1.70571 5.19822C1.64663 5.49748 1.52876 5.78205 1.35893 6.03543C1.28485 6.14597 1.19664 6.24947 1.02023 6.45647C0.577008 6.97658 0.355387 7.2366 0.225439 7.50852C-0.0751464 8.13743 -0.0751464 8.86843 0.225439 9.49734C0.355396 9.76926 0.577008 10.0293 1.02023 10.5494C1.19661 10.7564 1.28485 10.8599 1.35893 10.9704C1.52876 11.2238 1.64663 11.5084 1.70571 11.8076C1.73149 11.9382 1.74231 12.0738 1.76394 12.3448C1.81831 13.026 1.84548 13.3666 1.94585 13.6508C2.17798 14.308 2.69494 14.825 3.35215 15.0571C3.6363 15.1574 3.9769 15.1846 4.65807 15.239C4.92918 15.2606 5.06473 15.2715 5.19529 15.2972C5.49455 15.3563 5.77912 15.4742 6.0325 15.644C6.14304 15.7181 6.24654 15.8063 6.45354 15.9827C6.97366 16.4259 7.23367 16.6475 7.50559 16.7775C8.1345 17.0781 8.8655 17.0781 9.49442 16.7775C9.76633 16.6475 10.0263 16.4259 10.5465 15.9827C10.7534 15.8063 10.857 15.7181 10.9675 15.644C11.2208 15.4742 11.5054 15.3563 11.8047 15.2972C11.9353 15.2715 12.0708 15.2606 12.3419 15.239C13.0231 15.1846 13.3637 15.1574 13.6479 15.0571C14.3051 14.825 14.822 14.308 15.0542 13.6508C15.1545 13.3666 15.1817 13.026 15.2361 12.3448C15.2577 12.0738 15.2685 11.9382 15.2943 11.8076C15.3534 11.5084 15.4713 11.2238 15.6411 10.9704C15.7151 10.8599 15.8034 10.7564 15.9797 10.5494C16.423 10.0293 16.6446 9.76926 16.7746 9.49734C17.0751 8.86843 17.0751 8.13743 16.7746 7.50852C16.6446 7.2366 16.423 6.97658 15.9797 6.45647C15.8034 6.24947 15.7151 6.14597 15.6411 6.03543C15.4713 5.78205 15.3534 5.49748 15.2943 5.19822C15.2685 5.06766 15.2577 4.93211 15.2361 4.661C15.1817 3.97983 15.1545 3.63923 15.0542 3.35508C14.822 2.69786 14.3051 2.18091 13.6479 1.94878C13.3637 1.84841 13.0231 1.82123 12.3419 1.76687C12.0708 1.74524 11.9353 1.73442 11.8047 1.70864C11.5054 1.64956 11.2208 1.53169 10.9675 1.36186C10.857 1.28777 10.7534 1.19957 10.5465 1.02316C10.0263 0.579937 9.76633 0.358325 9.49442 0.228369C8.8655 -0.0722167 8.1345 -0.0722167 7.50559 0.228369C7.23367 0.358317 6.97366 0.579937 6.45354 1.02316ZM12.2175 6.6866C12.4876 6.41644 12.4876 5.97843 12.2175 5.70827C11.9473 5.43811 11.5093 5.43811 11.2391 5.70827L7.11646 9.83097L5.76084 8.47539C5.49069 8.20526 5.05267 8.20526 4.78252 8.47539C4.51236 8.74552 4.51236 9.18353 4.78252 9.45374L6.62726 11.2985C6.89741 11.5686 7.33542 11.5686 7.60563 11.2985L12.2175 6.6866Z" fill="url(#paint0_linear_266_24767)"/>
<defs>
<linearGradient id="paint0_linear_266_24767" x1="8.5" y1="0.00292969" x2="8.5" y2="17.0029" gradientUnits="userSpaceOnUse">
<stop stop-color="#39B1E4"/>
<stop offset="1" stop-color="#1F93D0"/>
</linearGradient>
</defs>
</svg>
