<svg width="46" height="45" viewBox="0 0 46 45" fill="none" xmlns="http://www.w3.org/2000/svg">
<g clip-path="url(#clip0_266_20498)">
<path d="M12.3483 44.8409C9.67216 44.7191 8.21839 44.2738 7.25144 43.8966C5.97019 43.3978 5.05674 42.804 4.09514 41.8437C3.13354 40.8834 2.53839 39.97 2.0422 38.6887C1.66505 37.7218 1.21969 36.268 1.09799 33.5919C0.964248 30.699 0.9375 29.831 0.9375 22.502C0.9375 15.173 0.966923 14.3063 1.09665 11.4108C1.21836 8.73466 1.66639 7.28356 2.04087 6.31394C2.53972 5.03269 3.13487 4.11924 4.0938 3.1563C5.05406 2.19604 5.96752 1.59955 7.2501 1.10337C8.21705 0.726216 9.67082 0.280857 12.347 0.159152C15.2412 0.0267483 16.1105 0 23.4368 0C30.7659 0 31.6325 0.0294231 34.528 0.159152C37.2042 0.280857 38.6553 0.728891 39.6249 1.10337C40.9061 1.59955 41.8196 2.19604 42.7812 3.1563C43.7428 4.11656 44.3353 5.03135 44.8341 6.3126C45.2113 7.27955 45.6566 8.73332 45.7784 11.4095C45.9108 14.305 45.9375 15.1716 45.9375 22.5007C45.9375 29.827 45.9108 30.6963 45.7784 33.5919C45.6566 36.268 45.2086 37.7218 44.8341 38.6887C44.3353 39.97 43.7415 40.8834 42.7812 41.8437C41.8209 42.804 40.9061 43.3978 39.6249 43.8966C38.658 44.2738 37.2042 44.7191 34.528 44.8409C31.6352 44.9733 30.7659 45 23.4368 45C16.1105 45 15.2412 44.9746 12.3483 44.8409Z" fill="url(#paint0_radial_266_20498)"/>
<path d="M12.3483 44.8409C9.67216 44.7191 8.21839 44.2738 7.25144 43.8966C5.97019 43.3978 5.05674 42.804 4.09514 41.8437C3.13354 40.8834 2.53839 39.97 2.0422 38.6887C1.66505 37.7218 1.21969 36.268 1.09799 33.5919C0.964248 30.699 0.9375 29.831 0.9375 22.502C0.9375 15.173 0.966923 14.3063 1.09665 11.4108C1.21836 8.73466 1.66639 7.28356 2.04087 6.31394C2.53972 5.03269 3.13487 4.11924 4.0938 3.1563C5.05406 2.19604 5.96752 1.59955 7.2501 1.10337C8.21705 0.726216 9.67082 0.280857 12.347 0.159152C15.2412 0.0267483 16.1105 0 23.4368 0C30.7659 0 31.6325 0.0294231 34.528 0.159152C37.2042 0.280857 38.6553 0.728891 39.6249 1.10337C40.9061 1.59955 41.8196 2.19604 42.7812 3.1563C43.7428 4.11656 44.3353 5.03135 44.8341 6.3126C45.2113 7.27955 45.6566 8.73332 45.7784 11.4095C45.9108 14.305 45.9375 15.1716 45.9375 22.5007C45.9375 29.827 45.9108 30.6963 45.7784 33.5919C45.6566 36.268 45.2086 37.7218 44.8341 38.6887C44.3353 39.97 43.7415 40.8834 42.7812 41.8437C41.8209 42.804 40.9061 43.3978 39.6249 43.8966C38.658 44.2738 37.2042 44.7191 34.528 44.8409C31.6352 44.9733 30.7659 45 23.4368 45C16.1105 45 15.2412 44.9746 12.3483 44.8409Z" fill="url(#paint1_radial_266_20498)"/>
<path d="M17.9126 22.5959C17.9126 19.5184 20.4068 17.0229 23.4843 17.0229C26.5618 17.0229 29.0573 19.5184 29.0573 22.5959C29.0573 25.6734 26.5618 28.1689 23.4843 28.1689C20.4068 28.1689 17.9126 25.6734 17.9126 22.5959ZM14.9 22.5959C14.9 27.337 18.7432 31.1802 23.4843 31.1802C28.2254 31.1802 32.0686 27.337 32.0686 22.5959C32.0686 17.8548 28.2254 14.0116 23.4843 14.0116C18.7432 14.0116 14.9001 17.8545 14.9001 22.5959M30.4025 13.6712C30.4023 14.068 30.5198 14.4559 30.7401 14.7859C30.9604 15.1159 31.2736 15.3731 31.6401 15.5251C32.0067 15.6771 32.41 15.717 32.7992 15.6397C33.1884 15.5625 33.5459 15.3715 33.8266 15.0911C34.1072 14.8107 34.2984 14.4533 34.376 14.0642C34.4536 13.675 34.414 13.2717 34.2623 12.905C34.1106 12.5384 33.8536 12.225 33.5238 12.0044C33.194 11.7838 32.8062 11.666 32.4094 11.6659H32.4086C31.8767 11.6661 31.3668 11.8774 30.9906 12.2534C30.6145 12.6294 30.4029 13.1393 30.4025 13.6712ZM16.7303 36.2038C15.1004 36.1296 14.2145 35.8581 13.6258 35.6287C12.8453 35.3249 12.2884 34.963 11.7029 34.3783C11.1173 33.7935 10.7549 33.2372 10.4524 32.4567C10.2229 31.8682 9.95139 30.982 9.8773 29.3521C9.79625 27.5899 9.78006 27.0606 9.78006 22.5962C9.78006 18.1317 9.79759 17.6039 9.8773 15.8402C9.95152 14.2103 10.225 13.3259 10.4524 12.7357C10.7562 11.9552 11.1181 11.3983 11.7029 10.8127C12.2876 10.2272 12.8439 9.86477 13.6258 9.56225C14.2143 9.33275 15.1004 9.06125 16.7303 8.98716C18.4925 8.90611 19.0219 8.88993 23.4843 8.88993C27.9467 8.88993 28.4766 8.90718 30.2402 8.98743C31.8701 9.06165 32.7546 9.33515 33.3448 9.56252C34.1253 9.86504 34.6822 10.2283 35.2677 10.813C35.8532 11.3977 36.2143 11.9554 36.5182 12.7359C36.7477 13.3244 37.0192 14.2106 37.0933 15.8405C37.1743 17.6041 37.1905 18.132 37.1905 22.5964C37.1905 27.0609 37.1743 27.5887 37.0933 29.3524C37.0191 30.9823 36.7462 31.8682 36.5182 32.4569C36.2143 33.2374 35.8524 33.7943 35.2677 34.3785C34.683 34.9627 34.1253 35.3251 33.3448 35.629C32.7563 35.8585 31.8701 36.13 30.2402 36.2041C28.4781 36.2851 27.9487 36.3013 23.4843 36.3013C19.0199 36.3013 18.492 36.2851 16.7303 36.2041M16.5919 5.97945C14.8122 6.06049 13.5961 6.34269 12.5341 6.75595C11.4348 7.18272 10.5031 7.75527 9.57263 8.68424C8.64219 9.6132 8.07112 10.5451 7.64435 11.6457C7.23109 12.7084 6.94889 13.9238 6.86784 15.7035C6.78546 17.486 6.7666 18.0559 6.7666 22.5959C6.7666 27.1359 6.78546 27.7058 6.86784 29.4883C6.94889 31.2681 7.23109 32.4834 7.64435 33.5461C8.07112 34.6453 8.64233 35.579 9.57263 36.5075C10.5029 37.4361 11.4335 38.0079 12.5341 38.4358C13.5981 38.8491 14.8122 39.1313 16.5919 39.2123C18.3754 39.2934 18.9443 39.3136 23.4843 39.3136C28.0243 39.3136 28.5942 39.2947 30.3767 39.2123C32.1565 39.1313 33.3718 38.8491 34.4345 38.4358C35.5337 38.0079 36.4655 37.4365 37.3959 36.5075C38.3264 35.5786 38.8963 34.6453 39.3242 33.5461C39.7375 32.4834 40.021 31.268 40.1007 29.4883C40.1818 27.7044 40.2006 27.1359 40.2006 22.5959C40.2006 18.0559 40.1818 17.486 40.1007 15.7035C40.0197 13.9237 39.7375 12.7077 39.3242 11.6457C38.8963 10.5465 38.3249 9.61467 37.3959 8.68424C36.467 7.7538 35.5337 7.18272 34.4358 6.75595C33.3718 6.34269 32.1564 6.05916 30.378 5.97945C28.5952 5.898 28.0256 5.8782 23.4863 5.8782C18.947 5.8782 18.376 5.89706 16.5926 5.97945" fill="white"/>
</g>
<defs>
<radialGradient id="paint0_radial_266_20498" cx="0" cy="0" r="1" gradientUnits="userSpaceOnUse" gradientTransform="translate(3.84985 44.0142) scale(57.1333)">
<stop offset="0.09" stop-color="#FA8F21"/>
<stop offset="0.78" stop-color="#D82D7E"/>
</radialGradient>
<radialGradient id="paint1_radial_266_20498" cx="0" cy="0" r="1" gradientUnits="userSpaceOnUse" gradientTransform="translate(32.1074 42.5692) scale(50.2778)">
<stop offset="0.64" stop-color="#8C3AAA" stop-opacity="0"/>
<stop offset="1" stop-color="#8C3AAA"/>
</radialGradient>
<clipPath id="clip0_266_20498">
<rect width="45" height="45" fill="white" transform="translate(0.9375)"/>
</clipPath>
</defs>
</svg>
