<svg width="46" height="45" viewBox="0 0 46 45" fill="none" xmlns="http://www.w3.org/2000/svg">
<g clip-path="url(#clip0_266_20540)">
<path d="M0.9375 21.6188C0.9375 11.7075 0.9375 6.75151 3.97973 3.68176C7.04948 0.598206 11.9642 0.598206 21.8065 0.598206H23.5547C33.397 0.598206 38.3252 0.598206 41.3815 3.68176C44.4375 6.76531 44.4375 11.721 44.4375 21.6188V23.3808C44.4375 33.2921 44.4375 38.2481 41.3815 41.3178C38.3255 44.4014 33.397 44.4014 23.5547 44.4014H21.8065C11.9642 44.4014 7.04948 44.4014 3.97973 41.3178C0.9375 38.2343 0.9375 33.2786 0.9375 23.3808V21.6188Z" fill="#FF7700"/>
<path d="M27.9041 19.6921C27.2218 20.3822 26.4093 20.9301 25.5137 21.304C24.6181 21.6779 23.6573 21.8705 22.6868 21.8705C21.7163 21.8705 20.7554 21.6779 19.8598 21.304C18.9642 20.9301 18.1517 20.3822 17.4694 19.6921C16.4407 18.6536 15.741 17.3348 15.4579 15.9007C15.1748 14.4667 15.3207 12.981 15.8775 11.6294C16.4343 10.2779 17.3772 9.12045 18.5883 8.30195C19.7994 7.48345 21.2249 7.04018 22.6866 7.02759C24.1511 7.03759 25.5799 7.47994 26.7939 8.29911C28.0078 9.11829 28.9528 10.2778 29.5101 11.6321C30.0674 12.9864 30.2123 14.4751 29.9265 15.9115C29.6407 17.3478 28.9371 18.6677 27.9038 19.7056L27.9041 19.6921ZM22.6731 11.0746C21.7832 11.0788 20.9312 11.4352 20.3034 12.066C19.6756 12.6967 19.3232 13.5504 19.3232 14.4403C19.3232 15.3302 19.6756 16.1839 20.3034 16.8147C20.9312 17.4454 21.7832 17.8019 22.6731 17.8061C23.563 17.8019 24.415 17.4454 25.0428 16.8147C25.6706 16.1839 26.023 15.3302 26.023 14.4403C26.023 13.5504 25.6706 12.6967 25.0428 12.066C24.415 11.4352 23.563 11.0788 22.6731 11.0746ZM30.4371 21.8948L32.5983 24.8683C32.7084 25.0197 32.6809 25.2262 32.5432 25.3363C30.7532 26.7959 28.6532 27.8271 26.4037 28.351L30.5747 36.445C30.6034 36.4975 30.618 36.5566 30.6169 36.6164C30.6158 36.6762 30.5992 36.7347 30.5686 36.7861C30.538 36.8375 30.4946 36.8801 30.4426 36.9096C30.3905 36.9391 30.3317 36.9545 30.2719 36.9544H25.798C25.6603 36.9544 25.5364 36.8718 25.4814 36.7479L22.6869 30.0714L19.8786 36.7479C19.8518 36.8094 19.8075 36.8618 19.7512 36.8985C19.695 36.9352 19.6292 36.9546 19.562 36.9544H15.0881C14.8266 36.9544 14.6751 36.679 14.7853 36.445L18.97 28.351C16.7675 27.8279 14.6476 26.8368 12.8305 25.3363C12.7613 25.2819 12.7157 25.2031 12.7029 25.116C12.6901 25.029 12.7111 24.9403 12.7616 24.8683L14.9366 21.9086C14.9651 21.8701 15.001 21.8376 15.0423 21.8132C15.0835 21.7887 15.1292 21.7728 15.1767 21.7664C15.2242 21.76 15.2725 21.7632 15.3188 21.7758C15.365 21.7884 15.4083 21.8102 15.446 21.8398C17.4357 23.6391 20.005 24.6648 22.6868 24.7306C25.3711 24.7306 27.8765 23.6018 29.9276 21.8398C30.0652 21.7022 30.313 21.7297 30.4369 21.8949L30.4371 21.8948Z" fill="white"/>
</g>
<defs>
<clipPath id="clip0_266_20540">
<rect width="45" height="45" fill="white" transform="translate(0.1875)"/>
</clipPath>
</defs>
</svg>
