<svg xmlns="http://www.w3.org/2000/svg" width="35" height="10" fill="none"><path fill="url(#a)" d="m6.347 1.639.861-.644A4.371 4.371 0 0 0 4.427 0v1.036c.685 0 1.355.21 1.92.603Z"/><path fill="url(#b)" d="M4.428 7.938c-.057 0-.114 0-.17-.005l-.051 1.035a4.362 4.362 0 0 0 1.915-.335 4.41 4.41 0 0 0 1.435-.973l-.723-.734c-.315.32-.69.575-1.103.749a3.355 3.355 0 0 1-1.303.263Z"/><path fill="url(#c)" d="m2.145 1.93-.687-.77C.998 1.58.63 2.093.38 2.666A4.526 4.526 0 0 0 0 4.487h1.023c0-.482.1-.959.293-1.4a3.44 3.44 0 0 1 .829-1.158Z"/><path fill="url(#d)" d="M4.428 1.037c.057 0 .114.002.17.005L4.649.006A4.365 4.365 0 0 0 2.733.34a4.412 4.412 0 0 0-1.436.974l.724.734a3.39 3.39 0 0 1 1.104-.75 3.354 3.354 0 0 1 1.303-.262Z"/><path fill="url(#e)" d="M4.428 7.938c-.476 0-.946-.101-1.381-.297a3.4 3.4 0 0 1-1.143-.84l-.76.696c.415.466.922.838 1.487 1.092a4.366 4.366 0 0 0 1.797.385V7.938Z"/><path fill="url(#f)" d="M1.023 4.487c0-.058.001-.115.004-.172L.006 4.264a4.527 4.527 0 0 0 .33 1.94 4.48 4.48 0 0 0 .96 1.455l.725-.733a3.479 3.479 0 0 1-.999-2.438Z"/><path fill="#21A038" d="M8.855 4.487c0-.27-.023-.538-.07-.804l-.952.712v.092c0 .482-.1.96-.293 1.4a3.44 3.44 0 0 1-.83 1.158l.688.77c.46-.42.827-.934 1.078-1.507.25-.573.38-1.194.38-1.82ZM7.931 1.743c.21.276.389.575.531.892L4.429 5.65 2.743 4.578V3.289L4.43 4.36 7.93 1.743Z"/><path fill="#4B992B" d="M15.462 8.158c-.897 0-1.605-.297-2.125-.89-.52-.596-.78-1.405-.78-2.427 0-1.029.258-1.84.775-2.432.52-.593 1.229-.89 2.125-.89.72 0 1.328.212 1.828.635.5.421.783.962.85 1.622h-1.113a1.509 1.509 0 0 0-.543-.907 1.578 1.578 0 0 0-1.021-.342c-.538 0-.963.207-1.276.622-.312.412-.469.974-.469 1.687 0 .713.157 1.277.47 1.692.312.415.739.622 1.279.622.4 0 .742-.104 1.025-.311.284-.21.463-.492.54-.846h1.112c-.076.649-.359 1.172-.85 1.569-.49.397-1.1.596-1.827.596ZM21.283 7.185c.382 0 .679-.131.89-.394.213-.263.32-.634.32-1.113 0-.46-.107-.816-.32-1.07-.211-.254-.508-.38-.89-.38-.383 0-.681.126-.894.38-.21.255-.316.61-.316 1.07 0 .479.105.85.316 1.113.21.263.508.394.894.394Zm-1.464-2.932h.075c.324-.601.86-.902 1.608-.902.634 0 1.143.207 1.53.622.385.412.578.973.578 1.683 0 .756-.208 1.352-.623 1.788-.412.435-.975.652-1.691.652-.751 0-1.33-.24-1.735-.723-.404-.482-.605-1.197-.605-2.147 0-1.21.196-2.109.587-2.7.394-.592 1.039-.906 1.933-.941l.565-.022c.222-.009.436-.03.644-.066.21-.038.362-.071.456-.1a.983.983 0 0 0 .153-.053v.902a1.003 1.003 0 0 1-.114.057c-.05.024-.177.057-.381.101-.202.041-.433.066-.692.075l-.553.022c-.3.011-.556.057-.766.135a1.222 1.222 0 0 0-.509.351 1.659 1.659 0 0 0-.302.535 3.57 3.57 0 0 0-.158.731ZM26.626 3.973c-.325 0-.592.107-.802.32-.21.213-.327.495-.35.846h2.256c-.012-.357-.117-.64-.315-.85-.2-.21-.462-.316-.79-.316Zm1.113 2.708h1.03a1.666 1.666 0 0 1-.723 1.039c-.377.25-.846.376-1.407.376-.704 0-1.258-.219-1.66-.657-.401-.441-.601-1.047-.601-1.818 0-.772.201-1.382.605-1.832.403-.453.952-.68 1.647-.68.684 0 1.218.215 1.604.645.388.426.583 1.018.583 1.775v.35h-3.348v.057c.014.4.128.717.342.951.216.23.502.346.859.346.549 0 .905-.184 1.069-.552ZM32.411 3.127c.608 0 1.089.22 1.442.662.357.441.535 1.046.535 1.814 0 .765-.177 1.37-.53 1.814-.351.441-.829.662-1.433.662-.342 0-.642-.07-.899-.21a1.342 1.342 0 0 1-.565-.596h-.074v2.322H29.8V3.206h1.047V4h.075c.137-.271.337-.485.6-.64.266-.154.562-.232.89-.232Zm-.341 4.027c.377 0 .67-.137.88-.412.214-.274.32-.654.32-1.139s-.106-.865-.32-1.14c-.21-.274-.502-.411-.876-.411-.37 0-.664.139-.88.416-.217.278-.326.656-.33 1.135.004.48.112.857.325 1.135.216.278.51.416.88.416Z"/><defs><linearGradient id="a" x1="4.214" x2="7.003" y1=".347" y2="1.196" gradientUnits="userSpaceOnUse"><stop offset=".06" stop-color="#0290EA"/><stop offset=".79" stop-color="#0C89CA"/></linearGradient><linearGradient id="b" x1="4.139" x2="7.398" y1="8.349" y2="7.622" gradientUnits="userSpaceOnUse"><stop offset=".12" stop-color="#A2CC39"/><stop offset=".28" stop-color="#86C239"/><stop offset=".87" stop-color="#219F38"/></linearGradient><linearGradient id="c" x1=".381" x2="1.626" y1="4.612" y2="1.418" gradientUnits="userSpaceOnUse"><stop offset=".07" stop-color="#A2CC39"/><stop offset=".26" stop-color="#81C45E"/><stop offset=".92" stop-color="#0FA7DF"/></linearGradient><linearGradient id="d" x1="1.589" x2="4.477" y1="1.498" y2=".412" gradientUnits="userSpaceOnUse"><stop offset=".06" stop-color="#0FA7DF"/><stop offset=".54" stop-color="#0098F8"/><stop offset=".92" stop-color="#0290EA"/></linearGradient><linearGradient id="e" x1="1.401" x2="4.44" y1="7.371" y2="8.492" gradientUnits="userSpaceOnUse"><stop offset=".13" stop-color="#F1E813"/><stop offset=".3" stop-color="#EAE616"/><stop offset=".53" stop-color="#D8DF1F"/><stop offset=".8" stop-color="#BAD52D"/><stop offset=".98" stop-color="#A2CC39"/></linearGradient><linearGradient id="f" x1="1.504" x2=".359" y1="7.53" y2="4.266" gradientUnits="userSpaceOnUse"><stop offset=".14" stop-color="#F1E813"/><stop offset=".3" stop-color="#E6E418"/><stop offset=".58" stop-color="#C9DA26"/><stop offset=".89" stop-color="#A2CC39"/></linearGradient></defs></svg>