<svg xmlns="http://www.w3.org/2000/svg" width="67" height="10" fill="none"><path fill="#FF4B5F" d="M15 8.958c-.897 0-1.605-.297-2.125-.89-.52-.596-.78-1.405-.78-2.427 0-1.029.258-1.84.775-2.432.52-.594 1.229-.89 2.126-.89.718 0 1.327.212 1.827.635.5.421.783.961.85 1.622H16.56a1.509 1.509 0 0 0-.543-.907 1.578 1.578 0 0 0-1.021-.342c-.538 0-.963.207-1.276.622-.312.412-.468.974-.468 1.687 0 .713.156 1.277.468 1.692.313.414.74.622 1.28.622.4 0 .742-.104 1.025-.311.284-.21.463-.493.54-.846h1.112c-.075.649-.359 1.171-.85 1.569-.49.397-1.1.596-1.827.596ZM20.786 8.896c-.719 0-1.283-.22-1.692-.661-.409-.444-.613-1.055-.613-1.832 0-.771.206-1.379.618-1.823.412-.447.974-.67 1.687-.67.715 0 1.278.222 1.687.666.412.444.618 1.053.618 1.827 0 .777-.206 1.388-.618 1.832-.41.44-.972.661-1.687.661Zm-.881-1.323c.207.275.5.412.88.412s.673-.137.877-.412c.207-.278.311-.668.311-1.17 0-.5-.104-.888-.31-1.166-.208-.277-.5-.416-.877-.416-.38 0-.674.139-.881.416-.207.278-.311.666-.311 1.166 0 .502.104.892.31 1.17ZM26.094 4.769h-.942v1.196h.854c.535 0 .802-.202.802-.605a.548.548 0 0 0-.18-.434c-.12-.105-.298-.157-.534-.157Zm-.022 1.91h-.92v1.358h1.016c.269 0 .475-.058.618-.175.143-.117.215-.285.215-.504 0-.453-.31-.679-.93-.679ZM24.078 8.8V4.006h2.265c.48 0 .854.11 1.122.329.272.216.408.51.408.885 0 .245-.08.466-.241.662a.954.954 0 0 1-.592.35v.079c.313.032.566.152.758.36.193.204.29.452.29.744 0 .42-.154.757-.46 1.008-.307.251-.725.377-1.254.377h-2.296ZM30.416 6.74h-.22V8.8H29.11V4.006h1.087v1.92h.21l1.608-1.92h1.254L31.3 6.219l2.06 2.581h-1.32l-1.625-2.06ZM35.996 8.896c-.719 0-1.283-.22-1.692-.661-.409-.444-.613-1.055-.613-1.832 0-.771.206-1.379.617-1.823.413-.447.975-.67 1.688-.67.715 0 1.278.222 1.687.666.412.444.618 1.053.618 1.827 0 .777-.206 1.388-.618 1.832-.41.44-.972.661-1.687.661Zm-.881-1.323c.207.275.5.412.88.412s.672-.137.877-.412c.207-.278.311-.668.311-1.17 0-.5-.104-.888-.311-1.166-.207-.277-.5-.416-.876-.416-.38 0-.674.139-.881.416-.208.278-.311.666-.311 1.166 0 .502.103.892.31 1.17ZM40.327 8.8h-1.039V4.006h1.385l1.42 3.3h.078l1.425-3.3h1.358V8.8H43.91V5.54h-.079L42.51 8.576h-.78l-1.32-3.036h-.082V8.8Z"/><path fill="#fff" d="M48.286 7.985c.382 0 .679-.132.89-.394.212-.263.32-.634.32-1.114 0-.458-.108-.815-.32-1.069-.211-.254-.508-.381-.89-.381-.383 0-.681.127-.894.381-.21.254-.316.61-.316 1.07 0 .479.105.85.316 1.113.21.262.508.394.894.394Zm-1.464-2.932h.075c.324-.601.86-.902 1.608-.902.634 0 1.143.207 1.53.622.385.412.578.973.578 1.683 0 .756-.208 1.352-.623 1.787-.412.436-.975.653-1.691.653-.751 0-1.33-.24-1.735-.723-.404-.482-.605-1.197-.605-2.147 0-1.21.196-2.11.587-2.7.394-.592 1.039-.906 1.932-.941l.566-.022c.222-.009.437-.03.644-.066.21-.038.362-.072.456-.1a.98.98 0 0 0 .153-.053v.902a.994.994 0 0 1-.114.057c-.05.024-.177.057-.381.101-.202.041-.432.066-.693.075l-.552.022c-.3.011-.556.056-.767.135a1.222 1.222 0 0 0-.508.35 1.66 1.66 0 0 0-.302.536 3.57 3.57 0 0 0-.158.731ZM53.256 8.024c.328 0 .6-.093.82-.28a.892.892 0 0 0 .328-.701v-.381l-1.082.07c-.596.038-.894.254-.894.648 0 .199.076.357.228.473.155.114.355.171.6.171Zm-.32.855c-.467 0-.848-.132-1.143-.395-.295-.262-.443-.61-.443-1.042 0-.433.156-.772.469-1.017.316-.245.765-.386 1.35-.42l1.235-.075v-.403c0-.237-.077-.418-.232-.544-.155-.125-.378-.188-.67-.188a1.31 1.31 0 0 0-.623.131.609.609 0 0 0-.32.368h-1.025c.044-.423.248-.76.614-1.008.368-.25.837-.376 1.406-.376.614 0 1.087.141 1.42.425.336.283.504.68.504 1.192V8.8h-1.047v-.657h-.075c-.134.23-.327.412-.578.543a1.803 1.803 0 0 1-.842.193ZM59.84 8.8V6.767h-2.073V8.8H56.68V4.006h1.087v1.893h2.073V4.006h1.086V8.8H59.84ZM63.456 6.74h-.219V8.8H62.15V4.006h1.087v1.92h.21l1.609-1.92h1.253L64.34 6.219l2.06 2.581h-1.32l-1.625-2.06ZM5.381.665v2.327H4.48c-1.14 0-2.057.918-2.057 2.057 0 1.14.918 2.057 2.057 2.057h.902v2.327A4.441 4.441 0 0 0 8.974 5.05 4.466 4.466 0 0 0 5.381.665Z"/><path fill="#FF4B5F" d="M4.48 7.834A2.79 2.79 0 0 1 1.692 5.05 2.79 2.79 0 0 1 4.48 2.263h.174V.57H4.48A4.485 4.485 0 0 0 0 5.05a4.489 4.489 0 0 0 4.48 4.495h.173v-1.71H4.48Z"/></svg>