<svg xmlns="http://www.w3.org/2000/svg" width="24" height="24" fill="none"><path stroke="#B4C3D8" stroke-linecap="round" stroke-linejoin="round" stroke-width="1.2" d="M13 12V8.5A1.5 1.5 0 0 0 11.5 7v0A1.5 1.5 0 0 0 10 8.5M13 9.5A1.5 1.5 0 0 1 14.5 8v0A1.5 1.5 0 0 1 16 9.5V13"/><path stroke="#B4C3D8" stroke-linecap="round" stroke-linejoin="round" stroke-width="1.2" d="M10 12V3.5A1.5 1.5 0 0 0 8.5 2v0A1.5 1.5 0 0 0 7 3.5V14l-1.884-1.884a1.578 1.578 0 0 0-2.233 0v0a1.524 1.524 0 0 0-.19 1.924l3.526 5.288A6.001 6.001 0 0 0 11.212 22H13a6 6 0 0 0 6-6v-5.5A1.5 1.5 0 0 0 17.5 9v0a1.5 1.5 0 0 0-1.5 1.5M16.914 1.059 15 2.973 17.027 5M21 2.97h-6"/></svg>