<svg xmlns="http://www.w3.org/2000/svg" width="29" height="10" fill="none"><path fill="#fff" d="M15.066 8.826h-2.704V2.503h2.643c.598 0 1.069.142 1.41.425.343.28.513.665.513 1.153 0 .333-.108.63-.324.89a1.27 1.27 0 0 1-.802.464v.079c.427.04.773.201 1.039.482.266.277.398.622.398 1.034 0 .555-.194.993-.582 1.314-.386.322-.916.482-1.591.482Zm-1.573-5.425v1.762h1.091c.4 0 .704-.074.911-.223.21-.152.316-.371.316-.658 0-.277-.095-.493-.285-.648-.19-.155-.456-.233-.797-.233h-1.236Zm0 4.527h1.314c.418 0 .735-.083.951-.25.217-.17.325-.415.325-.736 0-.315-.113-.555-.338-.719-.222-.163-.549-.245-.981-.245h-1.271v1.95ZM20.913 8.826h-1.13V3.48h-1.946v-.977h5.026v.977h-1.95v5.346ZM28.561 6.863c0 .585-.197 1.058-.591 1.42-.395.362-.907.543-1.538.543h-2.49V2.503h4.019v.977h-2.888v1.442h1.323c.64 0 1.16.18 1.56.539.404.36.605.827.605 1.402Zm-3.488 1.013h1.074c.4 0 .71-.088.929-.263.219-.176.328-.425.328-.75 0-.33-.11-.583-.328-.758-.22-.175-.53-.263-.934-.263h-1.069v2.034Z"/><path fill="#009FDF" d="m2.01 2.39-.504 1.38h6.966l.502-1.38H2.01Zm-.755 2.068-.503 1.38h6.966l.502-1.38H1.255ZM.503 6.526 0 7.905h6.965l.502-1.379H.503Z"/></svg>