<svg width="130" height="50" viewBox="0 0 130 50" fill="none" xmlns="http://www.w3.org/2000/svg">
<g filter="url(#filter0_b_295_16738)">
<rect width="130" height="50" rx="7" fill="#5C5F8E" fill-opacity="0.2"/>
<path d="M38.3701 19.8469C36.5583 17.8866 33.701 16.954 30.917 17.4034C28.5329 17.7638 26.4321 19.1539 25.1529 21.2191C23.9074 23.2329 23.6025 25.6545 24.3153 27.8663C24.9628 29.9553 26.5509 31.7374 28.5706 32.6344L28.731 32.7076L28.9765 32.2245L28.822 32.1374C27.3152 31.2879 26.1707 29.9513 25.5965 28.3732C24.6321 25.803 25.3727 22.7556 27.4023 20.9617C28.9745 19.5578 30.9308 18.9875 32.909 19.3499C34.9861 19.734 36.7701 21.0943 37.8038 23.0883C39.1047 25.605 38.7166 28.7435 36.8177 31.0859L36.7187 31.2067L37.0533 31.5809L37.186 31.4998C38.6097 30.6067 39.7086 29.1197 40.1957 27.4227C40.9699 24.7991 40.2531 21.823 38.372 19.8508V19.8469H38.3701ZM48.4547 30.581C47.5359 30.0721 46.8132 29.3355 46.2865 28.3672C45.7598 27.399 45.4964 26.2565 45.4964 24.9377C45.4964 23.619 45.7618 22.5398 46.2944 21.5894C46.8271 20.6409 47.5498 19.9102 48.4626 19.4033C49.3755 18.8945 50.4011 18.641 51.5377 18.641C52.9159 18.641 54.0802 18.9915 55.0306 19.6924C55.9791 20.3934 56.5929 21.3854 56.8721 22.6685H55.0762C54.8227 21.8329 54.3891 21.1953 53.7792 20.7538C53.1693 20.3122 52.4208 20.0924 51.5377 20.0924C50.6546 20.0924 49.9477 20.2983 49.3062 20.7082C48.6646 21.1201 48.1696 21.6904 47.8191 22.423C47.4686 23.1556 47.2924 23.9992 47.2924 24.9536C47.2924 25.908 47.4647 26.795 47.8092 27.5396C48.1537 28.2841 48.6468 28.8603 49.2883 29.2722C49.9299 29.684 50.6784 29.8899 51.5377 29.8899C52.3971 29.8899 53.1852 29.6563 53.797 29.191C54.4089 28.7256 54.8405 28.0564 55.094 27.1871H56.8899C56.6107 28.5177 55.9969 29.5434 55.0484 30.2622C54.1 30.983 52.9277 31.3414 51.5377 31.3414C50.4031 31.3433 49.3735 31.0899 48.4547 30.581ZM60.9828 30.5355C60.0759 29.9969 59.371 29.2464 58.868 28.2861C58.3651 27.3257 58.1156 26.2268 58.1156 24.9932C58.1156 23.7596 58.3671 22.6428 58.868 21.6824C59.369 20.7221 60.0739 19.9736 60.9828 19.441C61.8897 18.9083 62.9292 18.643 64.1034 18.643C65.2776 18.643 66.3172 18.9083 67.2241 19.441C68.131 19.9736 68.8359 20.7201 69.3388 21.6824C69.8398 22.6448 70.0912 23.7477 70.0912 24.9932C70.0912 26.2386 69.8398 27.3237 69.3388 28.2861C68.8359 29.2484 68.1329 29.9969 67.2241 30.5355C66.3172 31.074 65.2756 31.3433 64.1034 31.3433C62.9312 31.3433 61.8897 31.074 60.9828 30.5355ZM60.4383 27.5514C60.7887 28.29 61.2818 28.8643 61.9174 29.2761C62.553 29.688 63.2817 29.8939 64.1034 29.8939C64.9252 29.8939 65.6538 29.688 66.2895 29.2761C66.9251 28.8643 67.4181 28.29 67.7686 27.5514C68.1191 26.8129 68.2953 25.9614 68.2953 24.9932C68.2953 24.0249 68.123 23.1695 67.7785 22.427C67.434 21.6824 66.9449 21.1082 66.3093 20.7043C65.6736 20.2983 64.939 20.0964 64.1054 20.0964C63.2718 20.0964 62.5352 20.2983 61.9016 20.7043C61.2659 21.1102 60.7769 21.6844 60.4323 22.427C60.0878 23.1695 59.9116 24.0249 59.9116 24.9932C59.9116 25.9614 60.0878 26.8129 60.4383 27.5514ZM70.5229 29.6563H70.7407C71.0437 29.6563 71.2971 29.6226 71.5031 29.5573C71.709 29.49 71.8912 29.3613 72.0476 29.1672C72.2773 28.9019 72.4495 28.5078 72.5644 27.9871C72.6792 27.4663 72.7644 26.6505 72.8178 25.5377C72.8713 24.4249 72.9109 22.7556 72.9366 20.53L72.9545 18.8252H81.3184V31.1631H79.5581V20.332H74.6059V20.8944C74.5821 23.0725 74.5326 24.7476 74.4613 25.9198C74.3881 27.0921 74.2772 28.0009 74.1267 28.6405C73.9762 29.2821 73.7544 29.7949 73.4653 30.183C73.1861 30.5572 72.8574 30.8146 72.4773 30.9533C72.0971 31.0919 71.6219 31.1612 71.0536 31.1612H70.5269L70.5229 29.6563ZM87.8804 18.8252H89.8764L94.793 31.1631H92.9416L91.6723 27.8603H86.0112L84.7222 31.1631H82.9619L87.8804 18.8252ZM91.1278 26.4268L88.8606 20.5478L86.5756 26.4268H91.1278ZM96.4464 18.8252H102.034C103.365 18.8252 104.369 19.1222 105.046 19.7142C105.723 20.3063 106.062 21.1835 106.062 22.3458C106.062 23.5081 105.701 24.4209 104.983 25.0486C104.264 25.6783 103.226 25.9931 101.872 25.9931H98.2067V31.1631H96.4464V18.8252ZM101.89 24.4843C102.711 24.4843 103.323 24.316 103.721 23.9754C104.121 23.6368 104.319 23.1101 104.319 22.3973C104.319 21.6844 104.119 21.1755 103.721 20.8369C103.321 20.4983 102.711 20.328 101.89 20.328H98.2067V24.4823L101.89 24.4843Z" fill="#FE6E36"/>
</g>
<defs>
<filter id="filter0_b_295_16738" x="-4" y="-4" width="138" height="58" filterUnits="userSpaceOnUse" color-interpolation-filters="sRGB">
<feFlood flood-opacity="0" result="BackgroundImageFix"/>
<feGaussianBlur in="BackgroundImageFix" stdDeviation="2"/>
<feComposite in2="SourceAlpha" operator="in" result="effect1_backgroundBlur_295_16738"/>
<feBlend mode="normal" in="SourceGraphic" in2="effect1_backgroundBlur_295_16738" result="shape"/>
</filter>
</defs>
</svg>
