<svg width="130" height="50" viewBox="0 0 130 50" fill="none" xmlns="http://www.w3.org/2000/svg">
<g filter="url(#filter0_b_295_16744)">
<rect width="130" height="50" rx="7" fill="#5C5F8E" fill-opacity="0.2"/>
<path fill-rule="evenodd" clip-rule="evenodd" d="M84.3218 16.9033H91L90.3438 20.3574H87.6321L87.004 23.6181H89.4302L88.8309 26.879H86.4048L83.8076 41H79.8411L84.3218 16.9033ZM82.8946 16.9033H78.8422L76.3874 29.5872C76.2164 30.444 76.0736 30.9963 75.9596 31.2449C75.8167 31.4662 75.6453 31.5765 75.3884 31.5765C75.1605 31.5765 75.0177 31.4662 74.9888 31.2727C74.9604 31.0514 75.0177 30.5816 75.1602 29.8078L77.6715 16.903H73.5901L71.6206 27.0997C71.2499 29.0341 71.0214 30.3054 70.9644 30.9131C70.9361 31.5213 71.0214 32.1015 71.2788 32.654C71.5067 33.2071 71.9633 33.649 72.6196 33.9808C73.2763 34.3398 74.0468 34.5059 74.9885 34.5059C75.8445 34.5059 76.5867 34.3675 77.2718 34.0637C77.9569 33.7873 78.5275 33.3451 79.0128 32.7921C79.4981 32.2396 79.8408 31.6868 80.0118 31.1615C80.2116 30.637 80.4114 29.7249 80.668 28.3982L82.8946 16.9033ZM66.313 27.9848C66.4839 26.0227 66.7408 23.6461 67.1121 20.7721C66.0562 24.0605 65.3424 26.4368 64.9714 27.9848H66.313ZM70.451 16.9033L69.1953 34.1466H65.4567L65.8563 31.0243H64.4294L63.573 34.1466H59.5206L65.2285 16.9033H70.451ZM62.0035 16.9033H58.5787L57.0944 24.6684L56.2953 16.9033H52.8991L49.5599 34.1466H52.9848L54.4973 26.299L55.0966 34.1466H58.664L62.0035 16.9033ZM51.0728 17.0416L47.7049 24.8342L48.5326 34.1466H44.7937L44.1089 27.9848L42.9104 34.1466H39L43.0813 9H46.9912L44.9933 22.7617L47.4765 17.0416H51.0728Z" fill="#00ACEC"/>
</g>
<defs>
<filter id="filter0_b_295_16744" x="-4" y="-4" width="138" height="58" filterUnits="userSpaceOnUse" color-interpolation-filters="sRGB">
<feFlood flood-opacity="0" result="BackgroundImageFix"/>
<feGaussianBlur in="BackgroundImageFix" stdDeviation="2"/>
<feComposite in2="SourceAlpha" operator="in" result="effect1_backgroundBlur_295_16744"/>
<feBlend mode="normal" in="SourceGraphic" in2="effect1_backgroundBlur_295_16744" result="shape"/>
</filter>
</defs>
</svg>
