<svg width="130" height="50" viewBox="0 0 130 50" fill="none" xmlns="http://www.w3.org/2000/svg">
<g filter="url(#filter0_b_295_16733)">
<rect width="130" height="50" rx="7" fill="#5C5F8E" fill-opacity="0.2"/>
<path fill-rule="evenodd" clip-rule="evenodd" d="M53.7006 32.1111H52.3283L48.5221 35.91V32.1111H47.5056V39.7754H48.5221V37.1194L49.7758 35.8949L52.4988 39.7754H53.8416L50.4881 35.2125L53.7006 32.1111ZM37.46 33.0168H39.9825V39.7754H40.999V33.0168H43.5364V32.1111H37.46V33.0168ZM60.8379 32.1111H59.4653L55.6591 35.91V32.1111H54.6429V39.7754H55.6591V37.1194L56.9134 35.8949L59.6434 39.7754H60.9789L57.6254 35.2125L60.8379 32.1111ZM44.7458 39.7754H45.762V32.1111H44.7458V39.7754ZM77.4568 39.7754H78.4663V32.1111H77.4568V39.7754ZM89.402 32.1111H88.3118L85.3664 39.7754H86.4421L87.2878 37.4529H90.4927L91.3831 39.7754H92.5408L89.402 32.1111ZM88.875 36.622H87.5766L88.4223 34.3816C88.596 33.9032 88.7325 33.4121 88.8307 32.9127L88.8747 33.0684C88.9936 33.4542 89.1642 33.9364 89.3794 34.5002L90.1729 36.622H88.875ZM81.2258 32.1111H80.2172V39.7754H85.0024V38.8702H81.2258V32.1111ZM66.8474 36.5333C66.8474 37.4903 66.6916 38.1434 66.3726 38.4772C66.0611 38.8183 65.5342 38.9891 64.7848 38.9891C64.3547 38.9891 63.9835 38.9001 63.6792 38.7293C63.3897 38.567 63.1645 38.3104 63.0412 38.0022C62.9226 37.6904 62.8559 37.2009 62.8559 36.5333V32.1114H61.8469V36.5333C61.8469 37.3494 61.9435 37.9874 62.1363 38.4549C62.3292 38.9297 62.6558 39.2858 63.1154 39.5306C63.5682 39.7756 64.1543 39.9015 64.8738 39.9015C65.6157 39.9015 66.2021 39.7606 66.6545 39.4787C67.1145 39.1892 67.426 38.8256 67.6037 38.3731C67.7743 37.9204 67.8636 37.3044 67.8636 36.533V32.1111H66.8468V36.5333H66.8474ZM74.1483 36.6667C74.0073 36.5402 73.7994 36.4144 73.532 36.2882C74.2666 36.1844 74.8156 35.9466 75.1645 35.5759C75.5209 35.205 75.6912 34.745 75.6912 34.2036C75.6912 33.7807 75.5876 33.3947 75.3721 33.0461C75.1642 32.6975 74.8748 32.4524 74.5192 32.319C74.1628 32.1781 73.6433 32.1111 72.9609 32.1111H69.5703V39.7754H70.5793V36.37H71.7591C72.0187 36.37 72.2043 36.3848 72.3226 36.4071C72.4195 36.4291 72.5158 36.4663 72.612 36.5109C72.6715 36.5405 72.7309 36.5701 72.7832 36.6072C72.9316 36.711 73.1094 36.8743 73.302 37.1194C73.4879 37.3642 73.7324 37.72 74.0294 38.1803L75.0462 39.7754H76.3216L74.9864 37.6829C74.7193 37.2827 74.4449 36.9413 74.1483 36.6667ZM72.7605 35.4944H70.579V32.9574H73.005C73.5766 32.9574 73.9917 33.0687 74.2518 33.306C74.5192 33.5359 74.6448 33.8402 74.6448 34.2038C74.6459 34.446 74.5764 34.6832 74.445 34.8865C74.3113 35.1014 74.1109 35.2499 73.8513 35.3465C73.5842 35.4425 73.2205 35.4944 72.7605 35.4944Z" fill="white"/>
<path fill-rule="evenodd" clip-rule="evenodd" d="M64.8735 10.1204L64.7549 10.239L55.6367 19.3571L64.7549 28.4828L64.8735 28.6014L74.1102 19.3571L64.8735 10.1204ZM64.8065 23.3559H59.9986V15.4172C60.7999 15.0243 61.616 15.7734 61.2004 16.8566C62.1798 17.2426 62.5806 17.8287 61.7126 18.8377L60.4661 18.9267C60.6366 20.1358 61.2079 20.8481 62.3579 20.8185C63.6339 20.8777 64.1383 20.0691 64.4353 19.023C63.7082 19.0529 63.0478 18.9786 62.8178 18.1474C62.558 17.2498 63.1589 17.0051 63.8787 16.8566C63.582 15.9514 63.8564 15.4471 64.7096 15.343V15.3282C64.7244 15.3354 64.7392 15.3354 64.7543 15.3354C64.7691 15.3354 64.7839 15.3354 64.8062 15.3282V15.343C65.6519 15.4468 65.9265 15.9514 65.6295 16.8566C66.3494 17.0051 66.9506 17.2498 66.6832 18.1474C66.4532 18.9783 65.8001 19.0526 65.0733 19.023C65.3703 20.0691 65.8743 20.878 67.1431 20.8185C68.3003 20.8481 68.8647 20.1358 69.0349 18.9267L67.7887 18.8377C66.9204 17.8287 67.3209 17.2426 68.3003 16.8566C67.885 15.7734 68.7014 15.0243 69.5024 15.4172V23.3559H64.8065Z" fill="#CC2229"/>
<path fill-rule="evenodd" clip-rule="evenodd" d="M55.6813 19.3575L64.8741 28.5575L74.0666 19.3575L64.8741 10.1651L55.6813 19.3575ZM64.8741 10.1208L64.852 10.0986L55.5928 19.3575L64.8741 28.6461L74.1551 19.3575L64.8962 10.0986L64.8741 10.1208ZM64.6795 15.2784L64.7246 15.3005C64.732 15.3041 64.7396 15.3045 64.7555 15.3045C64.7694 15.3045 64.7802 15.3045 64.7977 15.2988L64.8387 15.2855V15.3159C65.2514 15.3717 65.5339 15.5257 65.6749 15.7848C65.8148 16.0419 65.8102 16.3934 65.6712 16.8335C66.0182 16.9069 66.3421 17.0063 66.5492 17.1986C66.6571 17.2987 66.7332 17.4239 66.7646 17.5823C66.7958 17.7401 66.7822 17.929 66.7145 18.1565C66.5971 18.5804 66.3702 18.8147 66.0779 18.9374C65.7996 19.0542 65.4648 19.0687 65.1166 19.0564C65.2633 19.5605 65.4595 20.0023 65.7673 20.3136C66.082 20.6321 66.5163 20.8169 67.1429 20.7876L67.144 20.7876L67.1452 20.7876C67.7166 20.8022 68.1377 20.6339 68.4374 20.316C68.7326 20.003 68.9135 19.5415 69.0003 18.956L67.7747 18.8684L67.7662 18.8585C67.3298 18.3515 67.2035 17.9407 67.3233 17.6035C67.4399 17.2753 67.7852 17.0311 68.2614 16.8393C68.065 16.3013 68.1662 15.8415 68.4235 15.5625C68.6856 15.2783 69.105 15.1872 69.5174 15.3895L69.535 15.3981V23.3876H59.9685V15.3981L59.986 15.3895C60.3985 15.1872 60.818 15.2783 61.0801 15.5625C61.3373 15.8415 61.4385 16.3013 61.2417 16.8393C61.7179 17.0311 62.0633 17.2753 62.18 17.6035C62.2999 17.9407 62.1738 18.3514 61.7375 18.8585L61.729 18.8684L60.5031 18.956C60.5899 19.5414 60.7726 20.003 61.0687 20.316C61.3694 20.6339 61.7905 20.8022 62.3583 20.7876L62.3594 20.7876L62.3605 20.7876C62.9908 20.817 63.427 20.6322 63.7427 20.3137C64.0513 20.0023 64.2477 19.5605 64.3944 19.0564C64.0458 19.0685 63.7091 19.054 63.4291 18.9372C63.1349 18.8146 62.9061 18.5803 62.7889 18.1564C62.723 17.9288 62.7109 17.7399 62.7433 17.5821C62.7758 17.4237 62.8526 17.2986 62.961 17.1985C63.169 17.0063 63.4927 16.9069 63.8394 16.8335C63.7005 16.3935 63.6958 16.0418 63.8367 15.7847C63.9786 15.5255 64.263 15.3715 64.6795 15.3158V15.2784ZM64.7421 15.367V15.3711L64.7146 15.3745C64.2929 15.4258 64.0229 15.5751 63.8916 15.8148C63.7597 16.0557 63.7623 16.3977 63.9097 16.8472L63.9206 16.8806L63.8863 16.8877C63.5262 16.962 63.2042 17.0591 63.0035 17.2445C62.904 17.3364 62.8343 17.4501 62.8047 17.5947C62.7749 17.7398 62.7851 17.9181 62.8491 18.1392L62.8492 18.1393L62.8492 18.1395C62.9617 18.5464 63.178 18.7647 63.4532 18.8794C63.731 18.9953 64.0718 19.0069 64.4352 18.9921L64.4784 18.9904L64.4666 19.032C64.3176 19.5567 64.1155 20.0266 63.7872 20.3578C63.4577 20.6902 63.0039 20.8801 62.3588 20.8503C61.7772 20.865 61.338 20.6919 61.0232 20.3591C60.7091 20.027 60.522 19.5394 60.4363 18.9315L60.4316 18.8983L61.6985 18.8078C62.1232 18.3107 62.2286 17.927 62.121 17.6244C62.0117 17.3173 61.6785 17.0786 61.1901 16.8861L61.1613 16.8748L61.1724 16.8458C61.3768 16.313 61.2766 15.8681 61.034 15.605C60.7952 15.346 60.414 15.2578 60.0311 15.4374V23.325H69.4723V15.4374C69.0895 15.2578 68.7084 15.346 68.4696 15.605C68.2269 15.8681 68.1266 16.313 68.3308 16.8458L68.3419 16.8748L68.313 16.8861C67.8246 17.0786 67.4915 17.3173 67.3824 17.6244C67.2749 17.927 67.3803 18.3107 67.8052 18.8078L69.0718 18.8983L69.0671 18.9315C68.9814 19.5393 68.7962 20.0269 68.483 20.359C68.169 20.692 67.7298 20.865 67.1447 20.8503C66.5031 20.8799 66.0512 20.69 65.7227 20.3577C65.3954 20.0265 65.1933 19.5567 65.0444 19.032L65.0326 18.9904L65.0758 18.9921C65.4389 19.0071 65.7777 18.9955 66.0536 18.8797C66.3269 18.765 66.5416 18.5466 66.6542 18.1395L66.6543 18.1392L66.6544 18.1389C66.7202 17.9178 66.7318 17.7395 66.7031 17.5945C66.6745 17.4499 66.6055 17.3363 66.5066 17.2445C66.3069 17.0591 65.9848 16.962 65.6244 16.8877L65.5901 16.8806L65.601 16.8472C65.7483 16.3977 65.7509 16.0557 65.6198 15.8148C65.4894 15.5751 65.2213 15.4259 64.8036 15.3745L64.7761 15.3711V15.3666C64.7685 15.3672 64.7618 15.3672 64.7556 15.3672L64.7538 15.3672C64.7503 15.3672 64.7464 15.3672 64.7421 15.367Z" fill="#CC2229"/>
</g>
<defs>
<filter id="filter0_b_295_16733" x="-4" y="-4" width="138" height="58" filterUnits="userSpaceOnUse" color-interpolation-filters="sRGB">
<feFlood flood-opacity="0" result="BackgroundImageFix"/>
<feGaussianBlur in="BackgroundImageFix" stdDeviation="2"/>
<feComposite in2="SourceAlpha" operator="in" result="effect1_backgroundBlur_295_16733"/>
<feBlend mode="normal" in="SourceGraphic" in2="effect1_backgroundBlur_295_16733" result="shape"/>
</filter>
</defs>
</svg>
