<svg width="130" height="50" viewBox="0 0 130 50" fill="none" xmlns="http://www.w3.org/2000/svg">
<g filter="url(#filter0_b_295_16782)">
<rect width="130" height="50" rx="7" fill="#5C5F8E" fill-opacity="0.2"/>
<path d="M108.298 27.8145H106.255V25.8219H105.209V30.9031H106.255V28.7112H108.298V30.9031H109.344V25.7721H108.298V27.8145ZM102.569 25.8219H101.373L99.3308 30.9529H100.477L100.875 29.8071H103.067L103.465 30.9529H104.611L102.569 25.8219ZM101.174 28.8606L101.921 26.8182L102.668 28.8606H101.174ZM114.823 30.9031L112.582 28.1134L114.724 25.7721H113.429L111.585 27.964V25.7721H110.539V30.9031H111.585V28.3127L113.528 30.9031H114.823ZM98.5338 28.2131C98.2349 27.9142 97.8364 27.7647 97.4379 27.7149H96.3419V26.7186H98.5836V25.8219H95.2958V30.9031H97.4379C97.6371 30.9031 97.8364 30.8533 98.0356 30.8034C98.2349 30.7536 98.3843 30.6042 98.5338 30.4547C98.6832 30.3053 98.7829 30.1558 98.8825 29.9566C98.9821 29.7573 98.9821 29.5581 98.9821 29.3588C98.9821 28.9105 98.7829 28.5119 98.5338 28.2131ZM97.6371 29.857C97.4877 30.0064 97.3382 30.0562 97.139 30.106H96.2921V28.6116H97.139C97.2386 28.6116 97.3382 28.6116 97.4379 28.6614C97.5375 28.7112 97.6371 28.761 97.6869 28.8108C97.7367 28.8606 97.8364 28.9603 97.8364 29.0599C97.8862 29.1595 97.8862 29.2592 97.8862 29.3588C97.8862 29.5082 97.7866 29.7075 97.6371 29.857ZM36.2647 31.7499H33.8238L34.9197 29.8071L32.1799 24.9751H34.6707L36.1153 27.8145L37.5101 24.9751H39.9013L36.2647 31.7499ZM66.7517 31.7499H63.7129C62.069 31.7499 60.724 30.3551 60.724 28.4621C60.724 26.2703 62.069 24.9751 63.7129 24.9751H66.7517V26.6688H64.8089C63.6631 26.6688 62.9657 27.0175 62.9657 28.4123C62.9657 29.8071 63.6133 30.106 64.8089 30.106H66.7517V31.7499ZM74.6723 31.7499H72.4306V26.9677L69.89 31.7499H67.2V24.9751H69.4417V29.6079L71.9823 24.9751H74.6723V31.7499ZM58.4325 24.9751H55.9916L53.6004 30.6042L51.2093 24.9751H48.7186L45.8293 31.7997H48.1706L48.6687 30.3551H51.1595L51.7075 31.7997H55.3938L57.1871 26.868L58.9307 31.7997H61.272L58.4325 24.9751ZM49.3163 28.8108L50.0636 26.868L50.761 28.8108H49.3163ZM44.6835 24.9751H40.1005V31.7997H42.2924V29.8071H44.6835C46.975 29.8071 46.975 27.7647 46.975 27.3164C46.975 26.868 46.975 24.9751 44.6835 24.9751ZM43.9363 28.1134H42.3422V26.6688H43.9363C44.1854 26.6688 44.833 26.6688 44.833 27.3662C44.833 28.0636 44.1854 28.1134 43.9363 28.1134ZM79.604 27.5156H77.3623V26.619H81.5966V24.9252H75.1206V31.7499H79.604C81.9453 31.7499 81.9453 30.3551 81.9453 29.6079C81.9453 28.8606 81.9453 27.5655 79.604 27.5156ZM79.2055 30.2057H77.3125V29.1097H79.2055C79.7036 29.1097 79.7036 29.4584 79.7036 29.6079C79.7036 29.7573 79.7036 30.2057 79.2055 30.2057ZM22.3165 21.5378C22.4659 21.5378 22.6652 21.5378 22.8146 21.5876L22.7648 16.9548H23.3128C23.263 18.5489 23.3626 20.0932 23.512 21.6873C24.8072 21.9861 26.0028 22.6337 26.9493 23.63C27.8958 24.6264 28.4936 25.8219 28.7426 27.1669C28.9917 28.5119 28.7925 29.857 28.2445 31.1023C27.6965 32.3477 26.7999 33.344 25.6541 34.0912C25.6043 34.0414 25.5545 33.9418 25.4548 33.8422C23.4124 31.2518 22.9143 27.416 22.7648 24.0784C23.0637 24.1282 23.3128 24.178 23.6117 24.2278C24.06 27.0673 25.3054 29.7573 27.298 31.8496C27.9954 31.0027 28.3939 29.857 28.2943 28.761C28.2445 27.6153 27.7463 26.5691 26.9991 25.7721C26.1024 24.8256 25.0065 24.1282 23.7611 23.8293C23.1633 23.6799 22.5656 23.5802 21.9678 23.5802C21.37 23.5802 20.7224 23.6799 20.1246 23.8293C17.5342 24.4769 15.5914 26.5193 15.5914 28.9603C15.5914 30.0064 15.9401 31.0027 16.5877 31.8496C18.5803 29.7573 19.8257 27.0673 20.2741 24.2278C20.5729 24.178 20.822 24.178 21.1707 24.0784C21.0213 27.4658 20.5231 31.2518 18.4807 33.7924C18.4309 33.892 18.3313 33.9916 18.2814 34.0414C17.1357 33.2942 16.2888 32.2481 15.7409 31.0027C15.1929 29.7573 15.0435 28.4123 15.2925 27.0673C15.5416 25.7223 16.1892 24.5267 17.0859 23.5802C17.9826 22.6337 19.2279 21.9363 20.5231 21.6873C20.7224 18.25 20.6726 16.9548 20.6726 16.9548H21.2205L21.1707 21.5876C21.3202 21.5378 21.4696 21.488 21.6191 21.5378V14.7629H22.2169C22.2667 14.7629 22.2667 21.5378 22.3165 21.5378Z" fill="#E3E1F3"/>
<path d="M22.3169 24.0285C22.3667 27.2665 22.6158 31.2517 23.6619 33.9915C23.7616 34.2904 23.911 34.5893 24.1103 34.8882C23.4128 35.0875 22.7154 35.1871 22.018 35.2369C21.3206 35.2369 20.6232 35.1373 19.9258 34.8882C20.125 34.5395 20.2745 34.2406 20.4239 33.8919C21.3704 31.2019 21.6195 27.2167 21.6693 24.0285H22.3169ZM88.3221 23.2314H88.7704V33.4934H88.3221V23.2314Z" fill="#E3E1F3"/>
</g>
<defs>
<filter id="filter0_b_295_16782" x="-4" y="-4" width="138" height="58" filterUnits="userSpaceOnUse" color-interpolation-filters="sRGB">
<feFlood flood-opacity="0" result="BackgroundImageFix"/>
<feGaussianBlur in="BackgroundImageFix" stdDeviation="2"/>
<feComposite in2="SourceAlpha" operator="in" result="effect1_backgroundBlur_295_16782"/>
<feBlend mode="normal" in="SourceGraphic" in2="effect1_backgroundBlur_295_16782" result="shape"/>
</filter>
</defs>
</svg>
