<svg width="130" height="50" viewBox="0 0 130 50" fill="none" xmlns="http://www.w3.org/2000/svg">
<g filter="url(#filter0_b_295_16786)">
<rect width="130" height="50" rx="7" fill="#5C5F8E" fill-opacity="0.2"/>
<path fill-rule="evenodd" clip-rule="evenodd" d="M49.6256 23.1059C49.4759 21.6055 48.139 20.511 46.6395 20.6614H41.3954V29.2398H42.9625V26.3804H46.6395C48.4785 26.3804 49.636 25.3594 49.636 23.5887V23.2484L49.6256 23.1059ZM48.0696 23.7244C48.0038 24.4153 47.4003 24.9286 46.7076 24.8822H42.8937V22.0216H46.844C47.5949 22.0996 48.1424 22.769 48.0696 23.5198V23.7244ZM50.3759 24.8845C50.3759 27.5416 52.6229 29.3789 55.3462 29.3789C58.069 29.3789 60.3165 27.5416 60.3165 24.8845C60.3165 22.2274 58.069 20.3889 55.3462 20.3889C52.6234 20.3889 50.3759 22.2274 50.3759 24.8845ZM52.01 24.681C52.1474 22.9725 53.6371 21.696 55.3462 21.8215C57.3887 21.8226 58.6824 23.1161 58.6824 24.8867C58.6824 26.6562 57.3887 27.9509 55.3462 27.9509C53.3038 27.9509 52.01 26.6562 52.01 24.8867V24.681ZM61.7321 24.8833C61.7321 27.5404 63.8427 29.3789 66.7024 29.3789C68.1436 29.38 69.5486 28.9278 70.719 28.0877L69.9022 26.862C69.0011 27.5416 67.899 27.9 66.7706 27.883C64.66 27.883 63.3661 26.5217 63.3661 24.8189C63.3661 23.1161 64.66 21.8226 66.7706 21.8226C67.8837 21.8418 68.9597 22.224 69.8347 22.9126L70.6515 21.6824C69.5312 20.7937 68.1308 20.3358 66.7024 20.3889C63.9108 20.3889 61.7321 22.2263 61.7321 24.8833ZM82.8121 29.1042L83.7657 27.0622L88.3947 27.0644L89.3483 29.1064H91.0505L86.8975 20.5958H85.2634L81.1105 29.1042H82.8121ZM86.0808 22.2274L87.7147 25.6997H84.4467L86.0808 22.2274ZM99.3576 25.4962V29.1731H100.922V20.6614H99.3576V24.1348H93.7744V20.6614H92.2086V29.1731H93.7744V25.4962H99.3576ZM103.307 20.6614V29.1731H104.872V25.0202L109.16 29.1731H111.271L106.71 24.7477L111.069 20.6614H109.162L104.873 24.6109V20.6614H103.307ZM73.9143 23.7267H77.5914C79.4986 23.7267 80.6561 24.681 80.6561 26.3826C80.6561 28.0854 79.3623 29.1064 77.5244 29.1064H72.2802V20.5958H79.9746V21.9572H73.9143V23.7267ZM73.9154 27.6761H77.7282C78.8176 27.7451 79.294 27.2001 79.294 26.4516C79.294 25.702 78.6818 25.157 77.7282 25.157H73.9154V27.6761ZM35.7621 24.9998H18.7285V33.5285H35.7621V24.9998Z" fill="white"/>
<path d="M18.7285 16.4717H35.7622V25.1633H18.7285V16.4717Z" fill="#E7002A"/>
<path d="M21.6875 24.4648H32.7559V25.5134H21.6875V24.4648Z" fill="white"/>
</g>
<defs>
<filter id="filter0_b_295_16786" x="-4" y="-4" width="138" height="58" filterUnits="userSpaceOnUse" color-interpolation-filters="sRGB">
<feFlood flood-opacity="0" result="BackgroundImageFix"/>
<feGaussianBlur in="BackgroundImageFix" stdDeviation="2"/>
<feComposite in2="SourceAlpha" operator="in" result="effect1_backgroundBlur_295_16786"/>
<feBlend mode="normal" in="SourceGraphic" in2="effect1_backgroundBlur_295_16786" result="shape"/>
</filter>
</defs>
</svg>
