<svg width="130" height="50" viewBox="0 0 130 50" fill="none" xmlns="http://www.w3.org/2000/svg">
<g filter="url(#filter0_b_295_16791)">
<rect width="130" height="50" rx="7" fill="#5C5F8E" fill-opacity="0.2"/>
<path d="M65.5226 32.0428H67.3298V22.2864H65.5226V32.0428ZM63.3549 32.0428H65.1616V20.1182H63.3549V32.0428ZM61.1875 32.0428H62.9938V22.2864H61.1875V32.0428Z" fill="#D9BB6C"/>
<path d="M71.6638 21.201L69.8587 23.0077V16.8595H71.6654M69.4972 23.3684L67.6905 25.1764V14.6891H69.4972M65.5227 21.9244H67.3303V12.5262H65.5227V21.9244ZM63.3549 19.7562H65.1612V10.3596H63.3549V19.7562ZM61.1875 21.9244H62.9935V12.5262H61.1875V21.9244ZM60.8257 25.176L59.0189 23.3684V14.6891H60.8257M56.8516 16.8595V21.2006L58.6575 23.0082V16.8595" fill="white"/>
<path d="M46.7983 34.2688C47.7025 34.2688 48.4414 34.9964 48.4414 35.8855V36.2326C48.4414 36.9891 47.9065 37.6278 47.1915 37.8022L48.679 39.6403H46.531L45.0815 37.8497H44.2038V39.6403H42.0558V34.2692C42.0323 34.2692 44.5821 34.2688 46.7983 34.2688ZM44.2038 36.5962H46.0287C46.2997 36.5962 46.5219 36.3781 46.5219 36.1112V36.0075C46.5219 35.7401 46.3001 35.5224 46.0287 35.5224H44.2038M57.4599 39.64H60.503C61.4386 39.64 62.204 38.8748 62.204 37.9394C62.204 37.0032 61.4386 36.2384 60.503 36.2384H58.3761C58.2171 36.2384 58.0866 36.1083 58.0866 35.9496V35.8108C58.0866 35.6521 58.2167 35.5224 58.3761 35.5224H59.7665C59.9256 35.5224 60.0557 35.6521 60.0557 35.8108V35.8798H62.2016C62.1541 34.9857 61.4085 34.2689 60.503 34.2689H57.4599C56.5252 34.2689 55.7593 35.0341 55.7593 35.9699C55.7593 36.9053 56.5252 37.6704 57.4599 37.6704H59.5877C59.7467 37.6704 59.8772 37.8006 59.8772 37.9597V38.0981C59.8772 38.2567 59.7463 38.3873 59.5877 38.3873H58.1969C58.0378 38.3873 57.9077 38.2567 57.9077 38.0981V38.0291H55.7618C55.8089 38.9223 56.5549 39.64 57.4599 39.64ZM67.2162 39.64H69.3637V34.2689H67.2162V37.3647L64.7097 34.2689H62.5622V39.64H64.7097V36.5446M75.9658 39.64H78.1142V37.6704H81.3328V36.2384L78.1142 36.2293V35.7013H81.7355V34.2689H75.9658M48.6802 36.947C48.6802 38.7062 49.8298 39.64 52.1004 39.64C54.3714 39.64 55.521 38.7062 55.521 36.947C55.521 35.1873 54.3714 34.2689 52.1004 34.2689C49.8298 34.2689 48.6802 35.1873 48.6802 36.947ZM52.1004 35.522C52.7985 35.522 53.3689 36.0075 53.3689 36.6024V37.3064C53.3689 37.901 52.7985 38.3877 52.1004 38.3877C51.4031 38.3877 50.8323 37.901 50.8323 37.3064V36.6024C50.8323 36.0075 51.4031 35.522 52.1004 35.522ZM69.7822 39.64H75.7275V38.208H71.9297V37.6704H75.1479V36.2384L71.9297 36.2293V35.7013H75.5511V34.2689H69.7822M83.9116 39.64H86.0604V35.7013H87.9435V34.2693H81.9743V35.7013H83.9116" fill="white"/>
</g>
<defs>
<filter id="filter0_b_295_16791" x="-4" y="-4" width="138" height="58" filterUnits="userSpaceOnUse" color-interpolation-filters="sRGB">
<feFlood flood-opacity="0" result="BackgroundImageFix"/>
<feGaussianBlur in="BackgroundImageFix" stdDeviation="2"/>
<feComposite in2="SourceAlpha" operator="in" result="effect1_backgroundBlur_295_16791"/>
<feBlend mode="normal" in="SourceGraphic" in2="effect1_backgroundBlur_295_16791" result="shape"/>
</filter>
</defs>
</svg>
