<svg width="130" height="50" viewBox="0 0 130 50" fill="none" xmlns="http://www.w3.org/2000/svg">
<g filter="url(#filter0_b_295_16751)">
<rect width="130" height="50" rx="7" fill="#5C5F8E" fill-opacity="0.2"/>
<path d="M90.1483 29.8793L93.1765 33.3235H91.2096L88.866 30.6687V33.3235H87.2348V26.9019H88.866V29.2324L91.1703 26.9019H93.0995L90.1483 29.8793ZM41.3324 28.6363C42.5231 28.6363 43.0668 28.0663 43.0668 27.2114C43.0668 26.3566 42.5231 25.7866 41.3324 25.7866H38.9757V28.6346L41.3324 28.6363ZM41.3848 24.2603C43.4304 24.2603 44.7766 25.3084 44.7766 27.2114C44.7766 29.1145 43.4304 30.1626 41.3848 30.1626H38.9774V33.3218H37.2676V24.2603H41.3848ZM48.6334 31.9772C49.5915 31.9772 50.4857 31.291 50.4857 30.1135C50.4857 28.936 49.5915 28.2498 48.6334 28.2498C47.6754 28.2498 46.7828 28.936 46.7828 30.1135C46.7828 31.291 47.6754 31.9772 48.6334 31.9772ZM48.6334 26.7201C50.394 26.7201 52.1415 27.86 52.1415 30.1119C52.1415 32.3638 50.394 33.5036 48.6334 33.5036C46.8729 33.5036 45.1254 32.3638 45.1254 30.1119C45.1254 27.86 46.8729 26.7201 48.6334 26.7201ZM56.3079 31.9772C55.3236 31.9772 54.5997 31.2648 54.5997 30.1135C54.5997 28.9622 55.3498 28.2498 56.3079 28.2498C56.8909 28.2498 57.3953 28.5216 57.7966 29.1309L59.1952 28.3284C58.7284 27.331 57.7196 26.7234 56.321 26.7234C54.4949 26.7234 52.9423 28.0696 52.9423 30.1151C52.9423 32.1607 54.4179 33.5069 56.321 33.5069C57.6934 33.5069 58.6121 32.8862 59.2607 31.7856L57.9145 31.047C57.5247 31.5891 57.1103 31.9772 56.3079 31.9772ZM73.676 30.541C73.599 31.5252 73.4041 31.7447 73.0668 31.7447C72.8375 31.7447 72.7278 31.7185 72.5705 31.6775L72.5787 33.3398C72.5787 33.3398 72.7818 33.4021 73.1568 33.4021C74.5424 33.4021 75.0599 32.5095 75.1893 30.6048L75.3448 28.3644H77.1857V33.3104H78.8168V26.9019H73.9495L73.676 30.541ZM70.6675 29.2586C70.5119 28.4561 69.9043 27.9648 68.997 27.9648C68.1421 27.9648 67.4952 28.5347 67.2626 29.2586H70.6675ZM69.0494 26.7201C70.8886 26.7201 72.1824 28.0532 72.1824 29.9301V30.5H67.2364C67.3396 31.4843 68.0389 32.105 68.997 32.105C69.865 32.105 70.2269 31.73 70.6282 31.2239L71.9236 31.8708C71.2767 32.9714 70.3825 33.502 68.9724 33.502C67.1857 33.502 65.6708 32.1427 65.6708 30.1102C65.6708 28.0778 67.1857 26.7201 69.0494 26.7201ZM84.7274 29.2586C84.5718 28.4561 83.9626 27.9648 83.0569 27.9648C82.202 27.9648 81.5551 28.5347 81.3226 29.2586H84.7274ZM83.1093 26.7201C84.9485 26.7201 86.2423 28.0532 86.2423 29.9301V30.5H81.2964C81.3996 31.4843 82.0989 32.105 83.0569 32.105C83.9249 32.105 84.2869 31.73 84.6881 31.2239L85.9819 31.8708C85.335 32.9714 84.4408 33.502 83.0307 33.502C81.244 33.502 79.7291 32.1427 79.7291 30.1102C79.7291 28.0778 81.244 26.7201 83.1093 26.7201ZM59.7667 28.3267H61.6829V33.3235H63.3141V28.3267H65.2302V26.9019H59.7667V28.3267ZM96.4159 31.9772C97.374 31.9772 98.2666 31.291 98.2666 30.1135C98.2666 28.936 97.374 28.2498 96.4159 28.2498C95.4579 28.2498 94.5636 28.936 94.5636 30.1135C94.5636 31.291 95.4579 31.9772 96.4159 31.9772ZM96.4159 26.7201C98.1765 26.7201 99.924 27.86 99.924 30.1119C99.924 32.3638 98.1765 33.5036 96.4159 33.5036C94.6554 33.5036 92.9063 32.3638 92.9063 30.1119C92.9063 27.86 94.6554 26.7201 96.4159 26.7201ZM106.416 26.9003L104.644 31.3975L102.873 26.9003H100.741V33.3104H102.292V29.2537L104.012 33.312H105.278L106.997 29.2537V33.312H108.548V26.9003H106.416Z" fill="white"/>
<path d="M32.0403 36.0913H22.9885C22.3351 36.0913 21.9502 35.5067 21.9502 34.9973C21.9502 34.6943 22.073 34.4208 22.2712 34.2227L26.2214 30.2725L32.0403 36.0913Z" fill="#FF4F12"/>
<path d="M22.9903 36.0915C22.3074 36.0915 21.4525 35.5445 21.4525 34.4587V22.2904C21.4525 20.6461 21.3689 19.4898 22.5432 18.3156L26.9487 13.9084L34.7623 21.7335L22.273 34.2212C22.0748 34.4194 21.952 34.6929 21.952 34.9959C21.952 35.5069 22.3352 36.0915 22.9903 36.0915Z" fill="#7700FF"/>
</g>
<defs>
<filter id="filter0_b_295_16751" x="-4" y="-4" width="138" height="58" filterUnits="userSpaceOnUse" color-interpolation-filters="sRGB">
<feFlood flood-opacity="0" result="BackgroundImageFix"/>
<feGaussianBlur in="BackgroundImageFix" stdDeviation="2"/>
<feComposite in2="SourceAlpha" operator="in" result="effect1_backgroundBlur_295_16751"/>
<feBlend mode="normal" in="SourceGraphic" in2="effect1_backgroundBlur_295_16751" result="shape"/>
</filter>
</defs>
</svg>
