<svg width="130" height="50" viewBox="0 0 130 50" fill="none" xmlns="http://www.w3.org/2000/svg">
<g filter="url(#filter0_b_295_16756)">
<rect width="130" height="50" rx="7" fill="#5C5F8E" fill-opacity="0.2"/>
<path d="M65.8663 33.1942C64.9807 33.136 63.9603 32.9801 63.1555 32.7471C63.0048 32.7034 62.3806 32.4739 62.2218 32.4011C59.42 31.1032 57.4681 28.2701 57.4681 24.9832C57.4681 20.4749 61.1359 16.8027 65.6471 16.8027C70.119 16.8027 73.7613 20.4123 73.8239 24.8696H76.7787C76.7161 18.7837 71.7482 13.8516 65.6471 13.8516C59.5096 13.8516 54.514 18.8442 54.514 24.9832C54.514 29.2154 56.8942 32.8963 60.3792 34.7769C60.9725 35.0783 61.5871 35.3356 62.2182 35.5467C63.2116 35.8424 64.4308 36.039 65.516 36.1221C65.8846 36.149 67.1715 36.1636 67.5466 36.1658H87.8943V33.2219H67.5815C67.3106 33.2219 66.13 33.2117 65.8656 33.1942M67.5808 28.5731C67.3659 28.5731 66.2421 28.5658 66.0346 28.5483C65.6828 28.5192 65.173 28.466 64.8452 28.391C64.4752 28.2919 64.1278 28.1608 63.9713 28.0749C63.4133 27.774 62.9471 27.3278 62.6222 26.7835C62.2973 26.2392 62.1257 25.6171 62.1257 24.9832C62.1255 24.5206 62.2165 24.0626 62.3933 23.6351C62.5702 23.2077 62.8296 22.8194 63.1566 22.4922C63.4836 22.1651 63.8719 21.9056 64.2992 21.7285C64.7265 21.5515 65.1846 21.4603 65.6471 21.4603C66.5611 21.4611 67.4389 21.8173 68.095 22.4535C68.7512 23.0897 69.1343 23.9561 69.1634 24.8696H72.0024C71.9427 21.4101 69.1226 18.6221 65.6471 18.6221C64.8117 18.622 63.9844 18.7864 63.2125 19.1061C62.4406 19.4257 61.7392 19.8942 61.1484 20.4849C60.5576 21.0756 60.0889 21.7769 59.7691 22.5487C59.4493 23.3205 59.2846 24.1477 59.2845 24.9832C59.2845 27.4609 60.7047 29.6007 62.7732 30.6495C63.0914 30.8352 63.6909 31.0304 63.8605 31.0748C64.4447 31.2285 65.2298 31.3334 65.8656 31.3807C66.1008 31.3997 67.2531 31.4084 67.497 31.4098V31.4142H87.8936V28.5738L67.5808 28.5731ZM52.694 36.1548H49.7188V16.8093H45.3722V13.8341H52.6933L52.694 36.1548ZM42.1064 18.2965V21.1566H45.3722V36.1541H48.2301V18.2958L42.1064 18.2965ZM82.6387 14.0424C81.5674 14.0424 80.6789 14.8967 80.6789 15.9688C80.6823 16.4875 80.8898 16.984 81.2564 17.3509C81.623 17.7178 82.1194 17.9256 82.638 17.9294C82.8957 17.9304 83.151 17.8803 83.3892 17.7821C83.6275 17.6839 83.8439 17.5395 84.026 17.3572C84.2082 17.175 84.3524 16.9584 84.4505 16.7201C84.5485 16.4818 84.5984 16.2265 84.5972 15.9688C84.5972 14.8967 83.7436 14.0424 82.6387 14.0424ZM82.638 17.6133C82.4216 17.6148 82.207 17.5732 82.0066 17.4911C81.8063 17.409 81.6243 17.288 81.4712 17.135C81.318 16.982 81.1967 16.8002 81.1143 16.6C81.032 16.3998 80.9901 16.1853 80.9913 15.9688C80.9913 15.0679 81.7538 14.3548 82.6387 14.3548C83.5229 14.3548 84.2818 15.0679 84.2818 15.9688C84.2834 16.1851 84.242 16.3995 84.16 16.5996C84.0779 16.7998 83.957 16.9816 83.8041 17.1346C83.6513 17.2876 83.4695 17.4087 83.2695 17.4909C83.0694 17.5731 82.8543 17.6147 82.638 17.6133Z" fill="#D91920"/>
<path d="M83.3848 16.4961C83.3848 16.2798 83.3527 16.0788 83.1051 15.9994C83.4154 15.8916 83.4459 15.6884 83.4459 15.5653C83.4459 15.0679 82.9944 15.0045 82.8087 15.0045H81.9551V16.9309H82.312V16.1407H82.5916C82.9951 16.1407 83.0286 16.3264 83.0286 16.4961C83.0286 16.8246 83.0286 16.8865 83.1058 16.9309H83.4627C83.3855 16.853 83.4161 16.7925 83.3855 16.4961M82.7315 15.8595H82.3112V15.2529H82.671C82.9201 15.2529 83.0891 15.3316 83.0891 15.5661C83.0891 15.6892 83.0286 15.8603 82.7322 15.8603" fill="#D91920"/>
</g>
<defs>
<filter id="filter0_b_295_16756" x="-4" y="-4" width="138" height="58" filterUnits="userSpaceOnUse" color-interpolation-filters="sRGB">
<feFlood flood-opacity="0" result="BackgroundImageFix"/>
<feGaussianBlur in="BackgroundImageFix" stdDeviation="2"/>
<feComposite in2="SourceAlpha" operator="in" result="effect1_backgroundBlur_295_16756"/>
<feBlend mode="normal" in="SourceGraphic" in2="effect1_backgroundBlur_295_16756" result="shape"/>
</filter>
</defs>
</svg>
