<svg width="130" height="50" viewBox="0 0 130 50" fill="none" xmlns="http://www.w3.org/2000/svg">
<g filter="url(#filter0_b_295_16718)">
<rect width="130" height="50" rx="7" fill="#5C5F8E" fill-opacity="0.2"/>
<path fill-rule="evenodd" clip-rule="evenodd" d="M82.5696 23.7868C81.8059 23.8898 81.4318 23.9986 80.7589 24.3138C79.501 24.9031 78.7704 25.8518 78.5333 27.2036L78.4898 27.4519H79.8207H81.1517L81.2481 27.1876C81.3769 26.8343 81.954 26.3433 82.4213 26.1894C82.647 26.1151 83.053 26.0646 83.4259 26.0646C83.9727 26.0646 84.1143 26.0951 84.5466 26.3062C84.8886 26.4731 85.1016 26.6379 85.2362 26.8396C85.4637 27.1804 85.6516 27.7533 85.6516 28.106V28.3539L83.629 28.3875C81.8855 28.4165 81.5251 28.4431 81.0167 28.5809C79.1739 29.0802 78.2168 30.1781 78.0588 31.9738C77.8522 34.3216 79.6707 36.0834 82.2999 36.0827C83.5426 36.0823 84.465 35.7984 85.3282 35.1507C85.5953 34.9503 85.8254 34.7863 85.8395 34.7863C85.8537 34.7863 85.889 34.9496 85.918 35.1492C86.0312 35.927 85.9016 35.8559 87.2067 35.8559H88.3598L88.328 31.6348C88.2997 27.8927 88.2808 27.3617 88.1607 26.9553C87.9952 26.3948 87.6614 25.7156 87.371 25.3481C87.088 24.99 86.3717 24.4547 85.8629 24.2209C85.0204 23.8338 83.6051 23.6473 82.5696 23.7868ZM50.5166 29.8967V35.8559H55.4864H60.4561V37.0401V38.2243H61.6889H62.9217V35.8177V33.4111H62.1133H61.3048L61.285 28.6934L61.2651 23.9757L59.9366 23.9548L58.6081 23.9339L58.5882 28.6534L58.5684 33.3729H55.9101H53.2519L53.232 28.6552L53.2122 23.9375H51.8644H50.5166V29.8967ZM64.848 29.8985V35.8594L66.2096 35.8386L67.5713 35.8177L70.3703 31.853L73.1694 27.8883V31.8721V35.8559H74.5178H75.8662V29.8967V23.9375L74.5371 23.9387L73.208 23.9399L70.3956 27.9287L67.5833 31.9176L67.5633 27.9275L67.5434 23.9375H66.1957H64.848V29.8985ZM90.9681 29.8967V35.8559H92.3154H93.6626L93.683 33.5066L93.7034 31.1573L96.4579 31.1372L99.2125 31.1172V33.4865V35.8559H100.368H101.524V29.8967V23.9375H100.368H99.2125V26.3069V28.6762L96.4579 28.6562L93.7034 28.6361L93.683 26.2868L93.6626 23.9375H92.3154H90.9681V29.8967ZM85.6516 30.9965C85.6516 31.2769 85.5827 31.7062 85.4898 32.0043C85.3525 32.4453 85.2566 32.5936 84.8541 32.9872C84.2187 33.6088 83.8132 33.7549 82.7237 33.7549C81.8437 33.7549 81.5212 33.67 81.1539 33.3417C80.8493 33.0692 80.7204 32.7317 80.7204 32.2061C80.7204 31.5663 81.0232 31.1066 81.6245 30.8337C82.1694 30.5864 82.6376 30.5316 84.3225 30.5184L85.6516 30.5079V30.9965Z" fill="white"/>
<path fill-rule="evenodd" clip-rule="evenodd" d="M40.2839 11.8886C38.893 12.2588 37.6887 13.4582 37.31 14.8501C37.2598 15.0349 37.2186 15.4947 37.2186 15.8721C37.2186 16.8792 37.4616 17.6083 38.0787 18.4519C38.3857 18.8718 41.298 22.3937 41.3382 22.3937C41.3517 22.3937 42.1207 21.472 43.0471 20.3455C44.9254 18.0615 45.2858 17.4816 45.4332 16.5066C45.7487 14.4203 44.4036 12.4164 42.3286 11.8815C41.7719 11.7379 40.8376 11.7412 40.2839 11.8886ZM42.206 14.1736C43.0863 14.5879 43.5102 15.8075 43.0797 16.6876C42.7618 17.3376 42.0389 17.795 41.3293 17.795C39.9265 17.795 38.9883 16.2792 39.6176 15.0294C40.0983 14.0745 41.2125 13.7062 42.206 14.1736ZM32.6178 28.6518C28.7282 33.3148 28.522 33.5774 28.4998 33.8977L28.4766 34.2348L29.744 35.2884C30.4411 35.8679 31.0184 36.3339 31.0271 36.3239C31.0358 36.314 32.3152 34.7755 33.8703 32.9051C35.4255 31.0347 36.7208 29.4979 36.749 29.4901C36.7772 29.4823 38.0801 31.0192 39.6443 32.9054L42.4883 36.335L42.7008 36.1659C42.8176 36.0728 43.4582 35.5445 44.1243 34.9919C45.3051 34.0122 45.3319 33.9833 45.2 33.8326C45.1255 33.7476 44.5844 33.0985 43.9974 32.3901L42.9301 31.1022V27.6175V24.1327H41.4074H39.8847V25.7236C39.8847 26.6989 39.8559 27.3045 39.8103 27.2887C39.7693 27.2745 39.0812 26.4804 38.281 25.5239C37.4809 24.5675 36.8006 23.7755 36.7693 23.764C36.7379 23.7525 34.8698 25.952 32.6178 28.6518Z" fill="#0468FF"/>
</g>
<defs>
<filter id="filter0_b_295_16718" x="-4" y="-4" width="138" height="58" filterUnits="userSpaceOnUse" color-interpolation-filters="sRGB">
<feFlood flood-opacity="0" result="BackgroundImageFix"/>
<feGaussianBlur in="BackgroundImageFix" stdDeviation="2"/>
<feComposite in2="SourceAlpha" operator="in" result="effect1_backgroundBlur_295_16718"/>
<feBlend mode="normal" in="SourceGraphic" in2="effect1_backgroundBlur_295_16718" result="shape"/>
</filter>
</defs>
</svg>
