<svg width="130" height="50" viewBox="0 0 130 50" fill="none" xmlns="http://www.w3.org/2000/svg">
<g filter="url(#filter0_b_295_16722)">
<rect width="130" height="50" rx="7" fill="#5C5F8E" fill-opacity="0.2"/>
<path d="M87.1794 24.9354C87.2055 24.9231 87.2162 24.9123 87.2253 24.9139C89.0826 24.9293 90.9551 24.697 92.7894 25.0785C94.6543 25.4662 95.9837 26.74 96.3952 28.7553C96.6675 30.0952 96.6033 31.4013 96.0862 32.6736C95.5615 33.9566 94.6267 34.8042 93.3493 35.1981C92.6639 35.4104 91.9266 35.5134 91.2091 35.5442C89.95 35.598 88.6833 35.5611 87.4196 35.5611C87.3462 35.5611 87.2728 35.5519 87.1764 35.5427V24.9354H87.1794ZM89.3993 30.2121C89.3993 31.2182 89.4008 32.2228 89.3993 33.2305C89.3993 33.4058 89.3916 33.5551 89.6394 33.5474C90.3233 33.5274 91.0132 33.5689 91.6925 33.5027C92.6991 33.4058 93.5176 32.9474 93.9398 31.9536C94.3192 31.0644 94.3437 30.1306 94.1555 29.1891C93.8939 27.8738 93.0097 27.0569 91.7017 26.9523C91.0423 26.8984 90.3768 26.923 89.7159 26.8892C89.4513 26.8769 89.3916 26.9769 89.3962 27.2276C89.4054 28.2245 89.3993 29.2183 89.3993 30.2121ZM74.6179 35.5627C73.7352 35.5627 72.9381 35.5657 72.1411 35.555C72.0646 35.555 71.9713 35.4734 71.9177 35.4042C71.0702 34.2904 70.2364 33.1705 69.3812 32.0643C69.2864 31.9428 69.0921 31.8521 68.9361 31.8382C68.5857 31.8044 67.5837 31.8213 67.5837 31.8213C67.5837 31.8213 67.5714 31.9074 67.5745 32.1428C67.5837 33.1381 67.5776 34.132 67.5776 35.1273V35.5396H65.3577V24.917C65.445 24.9077 65.5184 24.8923 65.5918 24.8923C67.1217 24.8954 68.6515 24.8846 70.1829 24.9108C70.9493 24.9216 71.6775 25.1323 72.3476 25.5354C73.2548 26.0815 73.6908 26.9261 73.7627 27.963C73.7964 28.423 73.7566 28.9076 73.6587 29.3583C73.4414 30.3475 72.7959 30.989 71.9009 31.3859C71.7862 31.4367 71.6714 31.4905 71.523 31.5582C72.5495 32.8874 73.5592 34.192 74.6194 35.5642L74.6179 35.5627ZM67.5745 29.9106C68.295 29.9106 68.9789 29.9121 69.6597 29.9091C69.8387 29.9091 70.0238 29.9106 70.2012 29.8737C71.0901 29.6952 71.5398 29.1537 71.5031 28.3245C71.4664 27.5307 70.9662 27.0061 70.0758 26.9384C69.3185 26.8815 68.5582 26.9092 67.7963 26.8938C67.628 26.8876 67.5714 26.9599 67.573 27.1246C67.5791 27.5399 67.573 27.9568 67.573 28.3722V29.9091L67.5745 29.9106ZM86.1422 35.5596C85.3956 35.5596 84.6904 35.5673 83.9867 35.5519C83.9086 35.5504 83.7985 35.4227 83.7618 35.3304C83.5598 34.8365 83.3717 34.3381 83.1942 33.8366C83.1269 33.6474 83.0336 33.5674 82.824 33.5674C81.4104 33.5766 79.9984 33.5766 78.5848 33.5689C78.3675 33.5674 78.265 33.6381 78.1916 33.852C78.0126 34.3643 77.8015 34.8673 77.5919 35.3688C77.5567 35.4473 77.4588 35.5504 77.3854 35.5534C76.6801 35.5688 75.9764 35.5611 75.2222 35.5611C75.4639 34.9442 75.6827 34.3704 75.9137 33.7981C77.0656 30.9198 78.2237 28.0445 79.3696 25.1646C79.4507 24.96 79.5501 24.8831 79.7643 24.8908C80.3961 24.9031 81.0295 24.8985 81.6598 24.8939C81.8219 24.8939 81.929 24.92 82.0025 25.1046C83.3594 28.5214 84.7225 31.9367 86.0856 35.3519C86.1009 35.4011 86.1116 35.4534 86.1437 35.5627L86.1422 35.5596ZM80.6868 27.2138C80.1299 28.6937 79.5792 30.1598 79.0177 31.6582H82.3696C81.802 30.1629 81.2482 28.6922 80.6853 27.2138H80.6868ZM45.9211 35.5673H43.6952V24.9262C44.3805 24.9262 45.0521 24.92 45.7191 24.9339C45.7895 24.9354 45.8706 25.0385 45.9241 25.1123C47.3132 27.0922 48.6977 29.0768 50.0823 31.0598C50.249 31.2967 50.4188 31.5305 50.6269 31.8213V24.9385H52.8329V35.5827C52.1583 35.5827 51.4882 35.5904 50.8196 35.5734C50.7431 35.5719 50.6529 35.4519 50.5948 35.3688C49.1077 33.2443 47.6238 31.1182 46.1398 28.9922C46.0894 28.9183 46.0266 28.8506 45.9241 28.7276L45.9211 35.5673ZM38.4814 24.937H40.6844V35.558H38.4814V24.937ZM63.063 34.9135C63.063 35.0027 62.9482 35.1427 62.8549 35.1796C61.6402 35.8365 59.5535 36.0319 57.8447 35.5627C55.8498 35.015 54.5341 33.7427 54.1363 31.649C53.786 29.8167 54.017 28.0645 55.2822 26.5938C56.0441 25.7108 57.0354 25.2231 58.1461 24.9708C59.6514 24.6324 61.1094 24.82 62.5413 25.3677C62.7662 25.4539 62.8396 25.5769 62.8304 25.82C62.8121 26.4 62.8228 26.9815 62.8228 27.6107C62.7019 27.5553 62.63 27.5261 62.5581 27.4907C61.2562 26.823 59.9054 26.6153 58.4964 27.0646C57.0201 27.5353 56.1664 28.8599 56.2628 30.4429C56.3164 31.2705 56.4785 32.052 57.0247 32.6951C57.6458 33.4274 58.478 33.7227 59.3883 33.7997C59.8182 33.835 60.1165 33.8335 60.3781 33.7843C60.733 33.715 60.9396 33.7135 60.9487 33.1397C60.938 32.6489 60.9365 32.1151 60.9365 31.5798H59.1405V29.5183H60.9396V29.5121C61.4612 29.5121 61.963 29.5106 62.4572 29.5183H62.7356V29.5198C62.7922 29.5229 62.8488 29.5214 62.9054 29.5229C63.0446 29.5229 63.0615 29.6583 63.0615 29.7337C63.0706 31.3475 63.0706 33.2951 63.0599 34.9119L63.063 34.9135Z" fill="#F1F1F1"/>
<path d="M35.6533 38.4025V21.1709L50.6289 13.0897V22.0893H52.8335V9.38062L33.4473 19.8417V40.6193H52.8335V38.4009L35.6533 38.4025Z" fill="#F2CA2C"/>
</g>
<defs>
<filter id="filter0_b_295_16722" x="-4" y="-4" width="138" height="58" filterUnits="userSpaceOnUse" color-interpolation-filters="sRGB">
<feFlood flood-opacity="0" result="BackgroundImageFix"/>
<feGaussianBlur in="BackgroundImageFix" stdDeviation="2"/>
<feComposite in2="SourceAlpha" operator="in" result="effect1_backgroundBlur_295_16722"/>
<feBlend mode="normal" in="SourceGraphic" in2="effect1_backgroundBlur_295_16722" result="shape"/>
</filter>
</defs>
</svg>
