<svg width="130" height="50" viewBox="0 0 130 50" fill="none" xmlns="http://www.w3.org/2000/svg">
<g filter="url(#filter0_b_295_16726)">
<rect width="130" height="50" rx="7" fill="#5C5F8E" fill-opacity="0.2"/>
<path d="M41.2487 15.178L40.2964 17.7902H53.4885L54.4408 15.178H41.2487ZM39.8208 19.0951L38.8685 21.7067H52.0606L53.0129 19.0951H39.8208ZM38.3957 23.0123L37.4434 25.6233H50.6354L51.5866 23.0117C51.5872 23.0123 38.3957 23.0123 38.3957 23.0123Z" fill="#009FDF"/>
<path d="M65.1764 26.443V26.4973C65.7688 26.7149 66.3352 27.0958 66.6315 27.3405C67.5472 28.1023 67.9519 29.1083 67.9519 30.4139C67.9519 32.5637 66.8202 34.1134 64.9605 34.6034C64.3941 34.7667 63.8017 34.821 62.6971 34.821H57.0664V19.0981H62.0516C63.0758 19.0981 63.7757 19.1524 64.3952 19.3152C66.2007 19.8052 67.3866 21.0564 67.3866 23.0419C67.3866 24.1032 67.0096 25.0013 66.3901 25.5992C66.1204 25.8711 65.7434 26.1977 65.1775 26.4425L65.1764 26.443ZM60.1918 28.1023V32.2371H62.3478C62.9939 32.2371 63.5874 32.1828 64.0182 31.7748C64.4495 31.3667 64.6377 30.8496 64.6377 30.1697C64.6377 29.6537 64.5026 29.1637 64.2335 28.8099C63.7757 28.2385 63.2093 28.1023 62.2398 28.1023H60.1913H60.1918ZM60.1641 25.3816H61.9159C62.4546 25.3816 62.7243 25.3816 62.9933 25.3003C63.7214 25.0821 64.1793 24.4305 64.1793 23.5324C64.1793 22.4716 63.6943 22.0087 62.9933 21.7917C62.6966 21.7098 62.4009 21.6832 61.808 21.6832H60.1641V25.3822V25.3816ZM72.6403 34.8216V21.7369H68.1407V19.0987H80.6441L79.7549 21.7369H75.7663V34.8216H72.6403ZM81.6141 34.8216V19.0987H91.7461L90.8569 21.7369H84.7135V25.2194H87.2199C89.2407 25.2194 90.2916 25.7094 91.0197 26.3345C91.5861 26.8245 92.5555 27.9119 92.5555 30.0617C92.5555 32.1834 91.5589 33.3527 90.7229 33.9518C89.7529 34.6311 88.7292 34.8221 86.6535 34.8221H81.6146H81.6141V34.8216ZM84.7129 32.1823H87.0571C87.9463 32.1823 88.485 31.9647 88.862 31.4747C89.0503 31.2305 89.3199 30.7942 89.3199 29.9787C89.3199 29.1631 89.0503 28.5912 88.5116 28.1832C88.1888 27.939 87.7569 27.8034 87.0294 27.8034H84.7118V32.1823H84.7129Z" fill="white"/>
</g>
<defs>
<filter id="filter0_b_295_16726" x="-4" y="-4" width="138" height="58" filterUnits="userSpaceOnUse" color-interpolation-filters="sRGB">
<feFlood flood-opacity="0" result="BackgroundImageFix"/>
<feGaussianBlur in="BackgroundImageFix" stdDeviation="2"/>
<feComposite in2="SourceAlpha" operator="in" result="effect1_backgroundBlur_295_16726"/>
<feBlend mode="normal" in="SourceGraphic" in2="effect1_backgroundBlur_295_16726" result="shape"/>
</filter>
</defs>
</svg>
