<svg width="130" height="50" viewBox="0 0 130 50" fill="none" xmlns="http://www.w3.org/2000/svg">
<g filter="url(#filter0_b_295_16730)">
<rect width="130" height="50" rx="7" fill="#5C5F8E" fill-opacity="0.2"/>
<path fill-rule="evenodd" clip-rule="evenodd" d="M91.7336 32.5607V26.5273H90.5084V22.5621H91.7336V19.3852H96.8404V22.5621H98.4233V26.5273H96.8404V32.5607H91.7336ZM50.7023 20.3552H50.8437C51.0129 20.3552 51.126 20.3269 51.2106 20.2984C51.239 20.2702 51.2671 20.2416 51.2951 20.2139C51.3237 20.1567 51.3517 20.1285 51.3517 20.0714C51.3517 19.9586 51.2951 19.8732 51.2106 19.8161C51.1541 19.8161 51.126 19.7883 51.0695 19.7883C51.0414 19.7883 50.9564 19.7883 50.8437 19.7883H50.7023V20.3552ZM50.7023 19.249H50.8153C50.9283 19.249 51.0129 19.2208 51.0695 19.1926C51.126 19.1358 51.1541 19.0787 51.1541 18.9937C51.1541 18.9092 51.126 18.8235 51.0695 18.7954C51.0129 18.739 50.9283 18.7104 50.8153 18.7104H50.7023V19.249ZM49.9962 20.8941H51.126C51.4367 20.8941 51.6628 20.8378 51.832 20.6675C51.9734 20.5254 52.0582 20.3552 52.0582 20.1285C52.0582 19.9015 52.0016 19.7315 51.8885 19.6181C51.8039 19.5328 51.6909 19.476 51.4932 19.4474C51.6062 19.3911 51.6909 19.3061 51.7194 19.2208C51.7758 19.1358 51.8039 19.0219 51.8039 18.8803C51.8039 18.6536 51.7474 18.4833 51.6062 18.3702C51.4932 18.2278 51.2951 18.1715 51.0414 18.1715H49.9962V20.8941ZM54.8265 19.9015L54.5158 19.0219L54.2331 19.9015H54.8265ZM54.996 20.4404L55.1937 20.8941H55.9281L54.911 18.1715H54.1485L53.1033 20.8941H53.8378L54.0353 20.4404H54.996ZM57.5117 18.1715H56.8057V19.7597C56.8057 20.0436 56.8623 20.2416 56.9184 20.4122C56.9753 20.554 57.1165 20.6953 57.286 20.8091C57.4837 20.9223 57.7098 20.9791 57.9921 20.9791C58.2182 20.9791 58.4439 20.9223 58.6135 20.8378C58.8112 20.7238 58.9807 20.554 59.0938 20.3552C59.1503 20.2139 59.1784 20.015 59.1784 19.7597V18.1715H58.4719V19.6458C58.4719 19.7883 58.4719 19.9015 58.4719 19.9586C58.4439 20.015 58.4439 20.0714 58.4158 20.1285C58.3592 20.1853 58.3028 20.2416 58.2462 20.2984C58.1617 20.3269 58.0771 20.3552 57.9921 20.3552C57.8225 20.3552 57.6814 20.2702 57.5964 20.1285C57.5683 20.0714 57.5402 20.015 57.5402 19.9586C57.5402 19.9015 57.5117 19.8161 57.5117 19.6458V18.1715ZM61.4012 18.7668H61.9661V18.1715H60.1015V18.7668H60.6948V20.8941H61.4012V18.7668ZM64.4431 18.7668V18.1715H62.9176V20.8941H64.4431V20.2984H63.624V19.8447H64.4146V19.2208H63.624V18.7668H64.4431ZM67.4454 18.2567C67.2197 18.1715 67.022 18.115 66.824 18.115C66.5699 18.115 66.3437 18.1715 66.146 18.2849C65.8922 18.3984 65.7223 18.5687 65.5812 18.7954C65.44 19.0219 65.3835 19.2776 65.3835 19.5613C65.3835 19.8161 65.44 20.0436 65.5535 20.2416C65.6661 20.4686 65.8638 20.6385 66.1183 20.7805C66.3437 20.9223 66.5699 20.9791 66.824 20.9791C66.909 20.9791 67.022 20.9791 67.0781 20.9509C67.1636 20.9223 67.2762 20.8941 67.4454 20.8378V20.015C67.2762 20.1853 67.0781 20.2984 66.8525 20.2984C66.6548 20.2984 66.4853 20.2416 66.3437 20.0999C66.2026 19.9868 66.1183 19.7883 66.1183 19.5613C66.1183 19.3343 66.1745 19.1644 66.316 19.0219C66.4568 18.8803 66.6263 18.7954 66.8525 18.7954C67.0781 18.7954 67.3047 18.9092 67.4454 19.1073V18.2567ZM69.3342 19.2208V18.1715H68.6277V20.8941H69.3342V19.7883H70.3509V20.8941H71.0569V18.1715H70.3509V19.2208H69.3342ZM72.2239 20.8941H72.9299V19.2208L74.2293 20.8941H74.9353V18.1715H74.2293V19.8447L72.9299 18.1715H72.2239V20.8941ZM76.819 18.1715H76.1125V20.8937H76.819V18.1715ZM78.82 19.3061V18.1715H78.1136V20.8941H78.82V19.7315L79.7522 20.8941H80.6562L79.4699 19.476L80.5713 18.1715H79.6961L78.82 19.3061ZM84.9164 22.4881H89.8947V32.5607H84.9164V22.4881ZM89.8947 22.4881H84.9164H89.8947ZM90.1758 19.5333C90.1758 20.2473 89.9465 20.8384 89.4362 21.2814C88.9501 21.7003 88.2868 21.9223 87.4443 21.9223C86.6276 21.9223 85.9378 21.7003 85.4521 21.2814C84.9669 20.8384 84.7121 20.2473 84.7121 19.5333C84.7121 18.7941 84.9669 18.2281 85.4521 17.834C85.9378 17.3909 86.6014 17.1936 87.4443 17.1936C88.3126 17.1936 88.9759 17.3909 89.4613 17.834C89.9464 18.2281 90.1758 18.7941 90.1758 19.5333ZM74.9579 31.6489L76.2348 28.5714C76.796 28.9397 77.2812 29.2107 77.7156 29.4077C78.1758 29.581 78.5589 29.6788 78.8646 29.6788C79.1202 29.6788 79.324 29.63 79.4524 29.5315C79.5791 29.4077 79.6566 29.2851 79.6566 29.088C79.6566 28.8665 79.3748 28.6687 78.7883 28.5461C78.6094 28.5216 78.3801 28.5461 78.303 28.4974C77.3581 28.2759 76.6689 27.9796 76.2348 27.5116C75.8005 27.0692 75.6471 26.4042 75.6471 25.6409C75.6471 24.6065 76.0561 23.769 76.9499 23.1036C77.8182 22.4642 78.9671 22.1189 80.3712 22.1189C81.0606 22.1189 81.7248 22.1932 82.3881 22.3159C83.0271 22.4642 83.6144 22.6606 84.1764 22.9065L83.0008 25.8622C82.5418 25.5916 82.1337 25.3448 81.7756 25.1972C81.418 25.0496 81.1115 24.976 80.8306 24.976C80.6271 24.976 80.4475 25.0247 80.2944 25.099C80.1923 25.1972 80.0901 25.3207 80.0901 25.4928C80.0901 25.7146 80.4734 25.9362 81.2646 26.0837C81.418 26.1332 81.6989 26.1332 81.8012 26.1332C82.7711 26.3792 83.3585 26.7488 83.8187 27.1919C84.2774 27.6599 84.5079 28.2264 84.5079 28.9397C84.5079 30.0732 84.048 31.0091 83.1543 31.6983C82.2351 32.3879 81.0606 32.7083 79.5791 32.7083C78.7621 32.7083 77.9715 32.6347 77.2054 32.4372C76.4392 32.2644 75.6985 31.9935 74.9579 31.6489ZM55.2726 32.5607V22.5621H60.2764L59.9703 24.0396C60.4047 23.4731 60.7871 23.03 61.2977 22.7348C61.9359 22.3895 62.6514 22.3646 63.4425 22.4144V27.5116C62.9068 27.1673 62.728 26.9209 61.8855 26.9209C61.2731 26.9209 60.9154 27.0933 60.5831 27.3888C60.2764 27.6848 60.1492 28.0049 60.1492 28.62V32.5607H55.2726ZM42.6589 24.2121C42.1989 23.769 41.5359 23.2021 41.0502 22.9561C40.5392 22.7348 40.1311 22.6357 39.5942 22.6357C38.7775 22.6357 38.1396 22.9802 37.6293 23.498C37.1183 24.0155 36.8373 24.5575 36.8373 25.4191C36.8373 26.2318 37.2968 26.7982 37.7566 27.2903C38.2418 27.7826 38.8796 28.0781 39.672 28.0781C40.1824 28.0781 40.4121 28.0294 40.9223 27.8324C41.4334 27.5855 42.0458 27.2903 42.6333 26.8223L42.5063 32.1173C41.9444 32.3388 41.3054 32.5113 40.7435 32.6347C40.2078 32.7325 39.6458 32.7823 39.0839 32.7823C38.3943 32.7823 37.7307 32.7083 37.0925 32.5607C36.48 32.3879 35.8923 32.1664 35.3566 31.8958C34.1051 31.1809 33.1601 30.2944 32.5222 29.1865C31.8832 28.1033 31.5771 26.8473 31.5771 25.4191C31.5771 24.3847 31.756 23.424 32.1137 22.5129C32.4967 21.6261 33.0063 20.8138 33.697 20.1488C34.4115 19.4588 35.2286 18.9422 36.1478 18.5726C37.0674 18.2281 38.063 18.0311 39.1607 18.0311C39.7225 18.0311 40.2845 18.0801 40.8457 18.2281C41.4075 18.3262 41.995 18.4496 42.5063 18.6957L42.6589 24.2121ZM68.4981 26.0837H70.4641C70.4641 25.7146 70.362 25.4437 70.1831 25.2708C70.0051 25.099 69.8262 24.9511 69.4686 24.9511C69.1622 24.9511 69.009 25.0738 68.8306 25.2708C68.6519 25.4681 68.5497 25.7146 68.4981 26.0837ZM75.239 28.3985C75.239 28.349 75.239 28.1532 75.239 28.0781C75.239 28.0049 75.239 27.8821 75.239 27.7339C75.239 27.1182 75.1881 26.5766 75.0347 26.0596C74.9075 25.5417 74.6773 25.099 74.3965 24.6553C73.8604 23.8675 73.1457 23.227 72.3029 22.8089C71.4858 22.3646 70.5157 22.1435 69.4686 22.1435C68.7027 22.1435 68.0135 22.2669 67.3495 22.4881C66.7109 22.7348 66.0981 23.0795 65.5877 23.5474C65.0004 24.0396 64.5664 24.6311 64.2342 25.3207C63.9278 26.0348 63.7751 26.7488 63.7751 27.5116C63.7751 29.0635 64.2603 30.4426 65.4348 31.5013C65.9709 31.9693 66.7109 32.3143 67.3495 32.5607C68.0386 32.8064 68.6519 32.8064 69.4181 32.8064C70.7967 32.8064 72.047 32.5354 73.0179 31.9447C74.0133 31.3537 74.7279 30.2705 75.0856 29.1865H70.4135C70.3369 29.433 70.2606 29.6546 70.1072 29.7783C69.9537 29.9255 69.7753 29.9746 69.5451 29.9746C69.188 29.9746 68.907 29.8516 68.7285 29.6052C68.4981 29.2107 68.473 28.8665 68.473 28.3985H75.239ZM47.9954 26.0596H49.9607C49.9356 25.6901 49.8586 25.4191 49.6801 25.2466C49.5017 25.0738 49.2971 24.9262 48.9652 24.9262C48.6588 24.9262 48.5058 25.0496 48.3269 25.2466C48.1484 25.4437 48.0461 25.6901 47.9954 26.0596ZM54.7357 28.3743H47.9701C47.9701 28.8423 47.9701 29.1865 48.2248 29.581C48.4036 29.8025 48.6846 29.9497 49.0419 29.9497C49.272 29.9497 49.4249 29.9011 49.6038 29.7527C49.7572 29.63 49.8081 29.4077 49.9103 29.1371H54.5827C54.2253 30.2456 53.485 31.3292 52.5141 31.9199C51.5436 32.5113 50.2933 32.7574 48.9147 32.7574C48.1484 32.7574 47.5102 32.7574 46.8462 32.5354C46.1821 32.2901 45.4421 31.9447 44.9314 31.4772C43.7308 30.4178 43.1435 29.0141 43.1435 27.4383C43.1435 26.6752 43.2973 25.9607 43.6287 25.2466C43.9614 24.5575 44.4207 23.966 44.9823 23.4731C45.5188 23.0058 46.1821 22.7092 46.8462 22.4642C47.4849 22.2174 48.1994 22.1189 48.9652 22.1189C50.0123 22.1189 50.9574 22.3409 51.7995 22.759C52.6425 23.2021 53.3316 23.8426 53.8673 24.6311C54.1737 25.0738 54.3784 25.5175 54.5317 26.0348C54.6851 26.5513 54.7357 27.0933 54.7357 27.7086C54.7357 27.8565 54.7357 27.9796 54.7357 28.0535C54.7357 28.1275 54.7357 28.3246 54.7357 28.3743Z" fill="#EAEAEA"/>
</g>
<defs>
<filter id="filter0_b_295_16730" x="-4" y="-4" width="138" height="58" filterUnits="userSpaceOnUse" color-interpolation-filters="sRGB">
<feFlood flood-opacity="0" result="BackgroundImageFix"/>
<feGaussianBlur in="BackgroundImageFix" stdDeviation="2"/>
<feComposite in2="SourceAlpha" operator="in" result="effect1_backgroundBlur_295_16730"/>
<feBlend mode="normal" in="SourceGraphic" in2="effect1_backgroundBlur_295_16730" result="shape"/>
</filter>
</defs>
</svg>
