<svg width="130" height="50" viewBox="0 0 130 50" fill="none" xmlns="http://www.w3.org/2000/svg">
<g filter="url(#filter0_b_295_16760)">
<rect width="130" height="50" rx="7" fill="#5C5F8E" fill-opacity="0.2"/>
<path d="M26.7695 16.5657V25.2996C26.7695 25.6989 26.47 25.9983 26.0707 25.9983H25.0227C24.9728 25.9983 24.9229 26.0483 24.9229 26.0982V33.4347C25.1724 33.4347 25.4219 33.4846 25.7214 33.4846C30.4128 33.4846 34.2058 29.6916 34.2058 25.0002C34.2058 20.6582 30.9618 17.0648 26.7695 16.5657ZM26.5698 29.6417C25.9709 29.6417 25.5217 29.1426 25.5217 28.5936C25.5217 27.9947 26.0208 27.5455 26.5698 27.5455C27.1687 27.5455 27.6179 28.0446 27.6179 28.5936C27.6678 29.1426 27.1687 29.6417 26.5698 29.6417ZM29.0652 29.6417C28.4663 29.6417 28.0172 29.1426 28.0172 28.5936C28.0172 27.9947 28.5163 27.5455 29.0652 27.5455C29.6641 27.5455 30.1133 28.0446 30.1133 28.5936C30.1133 29.1426 29.6641 29.6417 29.0652 29.6417ZM31.5607 29.6417C30.9618 29.6417 30.5126 29.1426 30.5126 28.5936C30.5126 27.9947 31.0117 27.5455 31.5607 27.5455C32.1596 27.5455 32.6087 28.0446 32.6087 28.5936C32.6087 29.1426 32.1596 29.6417 31.5607 29.6417Z" fill="#00985F"/>
<path d="M25.7217 16.5156C21.0303 16.5156 17.2373 20.3087 17.2373 25C17.2373 29.0925 20.0821 32.4863 23.925 33.2848V25.6488C23.925 25.2995 24.2245 25 24.5738 24.9501H25.6219C25.6718 24.9501 25.7217 24.9002 25.7217 24.8503V16.5156ZM24.0747 23.5028C23.4758 23.5028 23.0267 23.0037 23.0267 22.4547C23.0267 21.8558 23.5258 21.4066 24.0747 21.4066C24.6736 21.4066 25.1228 21.9057 25.1228 22.4547C25.1228 23.0037 24.6736 23.5028 24.0747 23.5028ZM106.374 24.3512V21.1571H104.228V29.6415H106.374V26.1978H110.666V29.6415H112.762V21.1571H110.666V24.3512H106.374ZM75.3306 22.1054C74.9812 21.3567 74.2825 20.9575 73.5838 20.9575C72.8851 20.9575 72.1864 21.3567 71.837 22.1054L68.3933 29.6415H70.6392L71.3878 27.8448H75.7798L76.5284 29.6415H78.7743L75.3306 22.1054ZM72.0866 26.1479L73.3842 23.0536C73.4341 22.9538 73.484 22.9538 73.5339 22.9538C73.5838 22.9538 73.6836 22.9538 73.6836 23.0536L74.9812 26.1479H72.0866ZM50.077 19.6099C49.0788 19.6099 48.43 20.1589 47.9808 21.207L45.2359 27.5953L42.4909 21.207C42.0417 20.1589 41.3929 19.6099 40.3948 19.6099C39.4465 19.6099 38.4983 20.2587 38.4983 21.7061V29.5916H40.5944V21.9556L43.3893 28.294C43.7386 29.1923 44.3874 29.7413 45.2359 29.7413C46.1342 29.7413 46.7331 29.1923 47.0825 28.294L49.8774 21.9556V29.6415H51.9735V21.756C51.9735 20.3087 51.0252 19.6099 50.077 19.6099ZM55.7166 27.8448C55.6168 27.8448 55.517 27.745 55.517 27.6452V26.1479H60.8073V24.4011H55.517V23.1035C55.517 23.0037 55.6168 22.9039 55.7166 22.9039H60.957V21.1072H54.6686C53.9199 21.1072 53.4208 21.7061 53.4208 22.3549V28.294C53.4208 28.9428 53.9698 29.5417 54.6686 29.5417H60.957V27.745H55.7166V27.8448ZM64.5005 29.6415V23.1534C64.5005 23.0536 64.6003 22.9538 64.7001 22.9538H69.9405V21.1571H63.6521C62.9034 21.1571 62.4043 21.756 62.4043 22.4048V29.5916H64.5005V29.6415ZM102.83 25.3993C102.83 22.4547 101.532 21.0573 98.3383 21.0573H97.5897C94.3956 21.0573 93.098 22.4547 93.098 25.3993C93.098 28.294 94.3956 29.7413 97.5897 29.7413H98.2884C101.532 29.6914 102.83 28.294 102.83 25.3993ZM98.2884 27.9446H97.5897C95.8429 27.9446 95.1442 27.1461 95.1442 25.3993C95.1442 23.7024 95.7431 22.854 97.5897 22.854H98.2884C100.085 22.854 100.734 23.7024 100.734 25.3993C100.734 27.1461 100.085 27.9446 98.2884 27.9446ZM87.2088 19.8096H83.0165C79.8723 19.8096 78.6245 21.4066 78.6245 24.1516C78.6245 24.6008 78.6745 25 78.7244 25.3494C79.0737 27.2958 80.2216 28.4936 83.1662 28.4936H84.1145V29.5916H86.2106V28.4936H87.109C90.0536 28.4936 91.2014 27.2958 91.5508 25.3494C91.6007 25 91.6506 24.6008 91.6506 24.1516C91.6007 21.4066 90.3031 19.8096 87.2088 19.8096ZM84.0146 26.7468H83.0664C81.619 26.7468 81.12 26.1978 80.8205 25.3494C80.7207 25.05 80.7207 24.6008 80.7207 24.1516C80.7207 22.3549 81.5691 21.6063 82.7669 21.6063H84.0646V26.7468H84.0146ZM89.4047 25.3993C89.1053 26.2477 88.5563 26.7967 87.1589 26.7967H86.2106V21.6063H87.5082C88.706 21.6063 89.5545 22.3549 89.5545 24.1516C89.5046 24.6507 89.5046 25.0499 89.4047 25.3993Z" fill="#00985F"/>
</g>
<defs>
<filter id="filter0_b_295_16760" x="-4" y="-4" width="138" height="58" filterUnits="userSpaceOnUse" color-interpolation-filters="sRGB">
<feFlood flood-opacity="0" result="BackgroundImageFix"/>
<feGaussianBlur in="BackgroundImageFix" stdDeviation="2"/>
<feComposite in2="SourceAlpha" operator="in" result="effect1_backgroundBlur_295_16760"/>
<feBlend mode="normal" in="SourceGraphic" in2="effect1_backgroundBlur_295_16760" result="shape"/>
</filter>
</defs>
</svg>
