<svg width="130" height="50" viewBox="0 0 130 50" fill="none" xmlns="http://www.w3.org/2000/svg">
<g filter="url(#filter0_b_295_16764)">
<rect width="130" height="50" rx="7" fill="#5C5F8E" fill-opacity="0.2"/>
<path fill-rule="evenodd" clip-rule="evenodd" d="M32.3176 25.0027L28.3447 30.9848H24.5088L28.474 25.0027H32.3176Z" fill="white"/>
<path fill-rule="evenodd" clip-rule="evenodd" d="M28.4781 25.0023L24.5088 19.0227H28.3447L32.3176 25.0023H28.4781Z" fill="white"/>
<path fill-rule="evenodd" clip-rule="evenodd" d="M16.25 19.0227H16.4228H23.6229V21.8948H19.7826V23.5684H23.2616V26.199H19.7826V28.116H23.6229V30.9844H23.4486H16.25V19.0227Z" fill="white"/>
<path fill-rule="evenodd" clip-rule="evenodd" d="M37.293 19.022H42.5165C43.7969 19.022 44.7542 19.2956 45.3882 19.8429C45.9722 20.3178 46.4135 20.9449 46.6633 21.655C46.741 21.885 46.7991 22.1212 46.837 22.3611C46.9069 22.7976 46.9069 23.2424 46.837 23.6789C46.7986 23.9207 46.7405 24.159 46.6633 24.3914C46.4204 25.1038 45.982 25.7336 45.3983 26.2088C44.7594 26.7587 43.7969 27.0382 42.5165 27.0382H40.821V30.9839H37.293V19.022ZM40.821 24.4024H41.6091C41.9856 24.4326 42.3625 24.3484 42.6903 24.1607C42.8881 24.0365 43.0482 23.8604 43.1531 23.6517C43.1945 23.5366 43.223 23.4172 43.2378 23.2958C43.2467 23.1798 43.2528 23.0886 43.2528 23.0194C43.2528 22.9516 43.251 22.883 43.2446 22.814C43.2405 22.7478 43.2271 22.6826 43.2222 22.6119C43.1516 22.3522 43.0009 22.1214 42.7916 21.9524C42.4439 21.719 42.0258 21.6138 41.6091 21.655H40.821V24.4024Z" fill="white"/>
<path fill-rule="evenodd" clip-rule="evenodd" d="M49.2771 29.4294C48.1944 28.2112 47.6067 26.632 47.6295 25.0024C47.6108 23.3817 48.1862 21.8102 49.247 20.5848C50.3298 19.3143 51.9387 18.6787 54.0734 18.6777H54.246C56.3804 18.6777 57.9874 19.3134 59.0668 20.5848C60.1308 21.8086 60.7077 23.3809 60.6877 25.0024C60.714 26.6232 60.1362 28.1956 59.0668 29.4138C57.9889 30.662 56.3804 31.2986 54.246 31.3087L54.0734 31.3214C51.9718 31.3214 50.373 30.6908 49.2771 29.4294ZM54.5022 28.4318C54.6306 28.4137 54.7566 28.3822 54.8782 28.3376C55.4673 28.1636 55.9898 27.8152 56.377 27.3384C56.8321 26.8198 57.0527 26.0422 57.0527 25.0024C57.0527 23.9653 56.8216 23.1888 56.3726 22.6676C55.982 22.1968 55.4627 21.8497 54.8782 21.6688C54.7534 21.6354 54.6331 21.6076 54.5095 21.5847C54.3933 21.5639 54.2755 21.553 54.1575 21.5519C54.0258 21.5534 53.8943 21.5644 53.7642 21.5847C53.6309 21.6075 53.4995 21.6408 53.3715 21.6844C52.8006 21.8781 52.2974 22.2317 51.9217 22.7032C51.4811 23.2234 51.2633 23.9887 51.2633 25.0024C51.2633 26.0166 51.4811 26.7808 51.9217 27.3032C52.2972 27.7752 52.8004 28.1292 53.3715 28.3231C53.4997 28.3632 53.6239 28.3966 53.7574 28.4252C53.8844 28.447 54.013 28.4578 54.1418 28.4575C54.2624 28.4566 54.3827 28.4481 54.5022 28.4318Z" fill="white"/>
<path fill-rule="evenodd" clip-rule="evenodd" d="M68.6452 22.3742H68.4725C68.4159 22.3262 68.3578 22.2778 68.304 22.2277C68.2449 22.1742 68.1868 22.1268 68.1305 22.0789C67.8617 21.8752 67.575 21.6961 67.274 21.5438C66.9915 21.3999 66.6804 21.3211 66.3634 21.3131C66.1161 21.3061 65.8721 21.3715 65.6614 21.5013C65.5132 21.5986 65.3949 21.7351 65.3196 21.8957C65.2756 21.9699 65.2453 22.0514 65.2303 22.1363C65.2217 22.203 65.2167 22.2701 65.2154 22.3373C65.2101 22.4489 65.2308 22.5601 65.2758 22.6623C65.3208 22.7645 65.389 22.8549 65.4749 22.9262C65.6432 23.0715 65.8407 23.179 66.0542 23.2414C66.1546 23.2792 66.258 23.3083 66.3634 23.3283C66.4708 23.355 66.5583 23.3757 66.6385 23.3962C66.8439 23.4425 67.0811 23.5017 67.3499 23.5739C67.636 23.6581 67.9153 23.7634 68.1858 23.8891C68.7644 24.1696 69.2766 24.5703 69.688 25.0645C70.146 25.5924 70.3783 26.3679 70.3783 27.3988C70.3783 28.7745 69.923 29.7701 69.0125 30.3855C68.0845 31.008 66.9878 31.3306 65.8705 31.3095L65.6978 31.3222C65.3926 31.3193 65.0883 31.2923 64.7875 31.2414C64.4973 31.1956 64.2111 31.1271 63.9317 31.0365C63.4804 30.8864 63.0474 30.6858 62.641 30.4388C62.1386 30.1343 61.6602 29.7919 61.21 29.4146L62.7996 26.8652H62.9724C63.0301 26.9242 63.0882 26.9759 63.1466 27.0295C63.2007 27.0836 63.258 27.1309 63.3154 27.1945C63.6508 27.4782 64.0081 27.735 64.3839 27.9624C64.755 28.1899 65.1648 28.347 65.5928 28.4259L65.7293 28.4488C65.7762 28.4549 65.8233 28.4581 65.8705 28.4582C66.1184 28.4675 66.3631 28.4006 66.5717 28.2666C66.7057 28.1709 66.8122 28.0416 66.8802 27.8917C66.9123 27.8167 66.9346 27.7379 66.9467 27.6572C66.9543 27.5753 66.9637 27.5051 66.9637 27.4518C66.9817 27.2674 66.9479 27.0817 66.8659 26.9155C66.7839 26.7493 66.6571 26.6094 66.4999 26.5116C66.1401 26.3047 65.7533 26.1488 65.3508 26.048L65.2695 26.019L65.1646 25.9929C64.9831 25.9484 64.7853 25.8949 64.5759 25.8252C64.3646 25.7545 64.1465 25.6777 63.9317 25.5841C63.3739 25.3225 62.8776 24.9459 62.4755 24.4791C62.0277 23.9862 61.8066 23.2559 61.8066 22.2845C61.7981 21.8049 61.8908 21.3288 62.0787 20.8874C62.2667 20.446 62.5456 20.0492 62.8973 19.7229C63.6203 19.0255 64.6612 18.6836 66.0215 18.6836H66.1935C66.6895 18.7028 67.183 18.7614 67.6696 18.8591C68.4235 19.0196 69.1349 19.3373 69.7576 19.7915L69.8037 19.8259L69.844 19.8577L68.6452 22.3742Z" fill="white"/>
<path fill-rule="evenodd" clip-rule="evenodd" d="M73.0937 21.8948H70.4561V19.0227H70.6236H79.2624V21.8948H76.6255V30.9844H76.4527H73.0937V21.8948Z" fill="white"/>
<path fill-rule="evenodd" clip-rule="evenodd" d="M80.4355 19.022H85.5734C85.6924 19.022 85.9436 19.0376 86.3443 19.0637C86.7824 19.1022 87.2123 19.2101 87.6162 19.3835C88.1739 19.6209 88.6691 19.983 89.0646 20.4418C89.5443 21.0589 89.7796 21.832 89.7234 22.6119C89.7234 23.6584 89.4748 24.456 88.9782 24.9962C88.5307 25.5027 87.9702 25.8966 87.3415 26.1459L87.2692 26.1771L87.2038 26.1983L90.5607 30.9839H86.3276L83.9638 27.3094V30.9839H80.4355V19.022ZM84.6171 24.4024C84.8336 24.4265 85.0528 24.4037 85.2597 24.3355C85.4667 24.2672 85.6565 24.1552 85.8162 24.007C86.0335 23.7728 86.1669 23.4731 86.1954 23.1548V22.8469C86.1525 22.5388 86.0135 22.2522 85.7984 22.0275C85.6374 21.888 85.4495 21.783 85.2463 21.719C85.0431 21.6549 84.829 21.6331 84.6171 21.655H83.9638V24.4024H84.6171Z" fill="white"/>
<path fill-rule="evenodd" clip-rule="evenodd" d="M92.0631 29.4294C90.9814 28.2106 90.3942 26.6317 90.4166 25.0024C90.3991 23.3813 90.9758 21.8097 92.0378 20.5848C93.1175 19.3143 94.7253 18.6787 96.8614 18.6777H97.0335C99.171 18.6777 100.779 19.3134 101.857 20.5848C102.919 21.8094 103.495 23.3813 103.475 25.0024C103.501 26.6227 102.925 28.1948 101.857 29.4138C100.777 30.662 99.171 31.2986 97.0335 31.3087L96.8614 31.3214C94.759 31.3214 93.1596 30.6908 92.0631 29.4294ZM97.2906 28.4318C97.4191 28.4137 97.5456 28.3822 97.6678 28.3376C98.2564 28.1628 98.779 27.8146 99.1668 27.3384C99.6198 26.8198 99.846 26.0411 99.8446 25.0024C99.8446 23.9653 99.6156 23.1888 99.1583 22.6676C98.7699 22.1964 98.2515 21.8492 97.6678 21.6688C97.5428 21.6354 97.417 21.6076 97.2997 21.5847C97.1831 21.564 97.0644 21.553 96.9457 21.5519C96.8143 21.5533 96.6823 21.5643 96.5523 21.5847C96.4189 21.6066 96.2882 21.6399 96.1604 21.6844C95.5893 21.8778 95.0857 22.2315 94.7099 22.7032C94.273 23.2234 94.0503 23.9887 94.0503 25.0024C94.0503 26.0166 94.273 26.7808 94.7099 27.3032C95.0857 27.7754 95.5893 28.1294 96.1604 28.3231C96.2868 28.3636 96.4147 28.3977 96.5446 28.4252C96.6724 28.447 96.8017 28.4578 96.9316 28.4575C97.0518 28.4564 97.1719 28.4479 97.2906 28.4318Z" fill="white"/>
<path fill-rule="evenodd" clip-rule="evenodd" d="M113.75 19.0227H109.909L107.89 22.0614L105.872 19.0227H102.03L106.172 25.2509V30.9844H109.705V25.1004L113.75 19.0227Z" fill="white"/>
<path fill-rule="evenodd" clip-rule="evenodd" d="M28.4863 25.0027L32.4604 30.9848H36.2974L32.3278 25.0027H28.4863Z" fill="#D59000"/>
<path fill-rule="evenodd" clip-rule="evenodd" d="M32.3278 25.0023L36.2974 19.0227H32.4604L28.4863 25.0023H32.3278Z" fill="#FCCE01"/>
</g>
<defs>
<filter id="filter0_b_295_16764" x="-4" y="-4" width="138" height="58" filterUnits="userSpaceOnUse" color-interpolation-filters="sRGB">
<feFlood flood-opacity="0" result="BackgroundImageFix"/>
<feGaussianBlur in="BackgroundImageFix" stdDeviation="2"/>
<feComposite in2="SourceAlpha" operator="in" result="effect1_backgroundBlur_295_16764"/>
<feBlend mode="normal" in="SourceGraphic" in2="effect1_backgroundBlur_295_16764" result="shape"/>
</filter>
</defs>
</svg>
