<svg width="130" height="50" viewBox="0 0 130 50" fill="none" xmlns="http://www.w3.org/2000/svg">
<g filter="url(#filter0_b_295_16779)">
<rect width="130" height="50" rx="7" fill="#5C5F8E" fill-opacity="0.2"/>
<path fill-rule="evenodd" clip-rule="evenodd" d="M25.4693 16.2112H29.47C29.6062 16.5458 29.7306 16.8858 29.8623 17.2224C31.3582 21.1095 32.8524 24.9972 34.3495 28.8838C34.8079 27.6742 35.2586 26.4613 35.7143 25.2506C36.6977 22.6282 37.6817 20.0061 38.665 17.3837C38.8129 16.9932 38.9564 16.6008 39.1068 16.2112H47.3015C47.4688 16.2266 47.6379 16.2214 47.8055 16.2366C48.7572 16.3001 49.706 16.5292 50.5583 16.9741C51.0159 17.2075 51.4404 17.5053 51.8306 17.8429C52.2712 18.2126 52.6621 18.6485 52.9617 19.1457C53.2878 19.6827 53.4989 20.2905 53.5864 20.9159C53.682 21.6149 53.6526 22.3356 53.4748 23.0189C53.3382 23.5433 53.1083 24.0414 52.8035 24.4853C52.4811 24.9565 52.0799 25.3677 51.6367 25.7199C51.1778 26.0849 50.6702 26.385 50.1323 26.6101C49.5631 26.8499 48.9612 27.0007 48.3523 27.087C49.1054 27.0878 49.8586 27.0872 50.6117 27.0872C51.8427 29.3207 53.0733 31.5545 54.3036 33.7886C52.9202 33.7889 51.537 33.789 50.1538 33.7884C48.9523 31.5792 47.751 29.3698 46.55 27.1602C45.4148 27.1602 44.2794 27.1601 43.1442 27.1603C43.1437 29.3698 43.1445 31.5794 43.1437 33.7888C41.8921 33.7886 40.6405 33.7891 39.389 33.7886C39.3881 28.588 39.3904 23.3875 39.3877 18.187C39.3697 18.2298 39.3534 18.2733 39.3379 18.3173C37.4422 23.4745 35.5455 28.6312 33.6505 33.7886C33.2716 33.7889 32.8929 33.7888 32.5139 33.7888C30.5032 28.5626 28.4929 23.3361 26.4822 18.1099C26.4813 23.3361 26.4821 28.5624 26.4818 33.7886C26.1442 33.7889 25.8066 33.7889 25.469 33.7886C25.469 27.9294 25.4683 22.0704 25.4693 16.2112ZM43.1442 17.0858C43.144 20.1538 43.1439 23.2217 43.1442 26.2895C44.1068 26.2897 45.0693 26.2897 46.0319 26.2895C46.2557 26.2829 46.4792 26.253 46.6968 26.1983C47.2357 26.0645 47.731 25.7628 48.1117 25.3516C48.4875 24.9504 48.7594 24.4567 48.9439 23.9363C49.1829 23.2635 49.282 22.5458 49.2963 21.8323C49.3064 21.068 49.2244 20.2956 48.9867 19.5681C48.8072 19.0171 48.534 18.4914 48.1461 18.0641C47.7789 17.6553 47.3014 17.3482 46.7769 17.2018C46.4687 17.1122 46.1471 17.0831 45.8277 17.0858C44.9332 17.0858 44.0386 17.0858 43.1442 17.0858ZM60.9002 20.8028C61.3997 20.644 61.9235 20.573 62.4457 20.568C63.0156 20.5631 63.5929 20.6255 64.1333 20.8191C64.4988 20.9486 64.8412 21.1507 65.123 21.423C65.4168 21.7018 65.6434 22.0615 65.7385 22.462C65.7749 22.6159 65.7949 22.7743 65.7932 22.9329C65.6768 22.9327 65.5606 22.9333 65.4448 22.9324C65.4464 22.6822 65.4002 22.4299 65.2966 22.2023C65.216 22.0259 65.101 21.8672 64.965 21.7316C64.6018 21.3839 64.1398 21.1447 63.6484 21.0616C63.1557 20.9783 62.6462 20.9871 62.158 21.098C61.6531 21.2139 61.1752 21.4665 60.8075 21.8414C60.4292 22.2214 60.1685 22.7096 60.0041 23.222C59.7976 23.8688 59.729 24.5541 59.7333 25.2317C59.7373 25.8019 59.7956 26.3756 59.9523 26.9243C60.0973 27.4358 60.3354 27.9213 60.663 28.3359C60.9104 28.652 61.2265 28.9207 61.6002 29.0637C61.9181 29.1877 62.2638 29.2243 62.602 29.2039C63.0319 29.178 63.4665 29.0448 63.8059 28.7661C64.051 28.5663 64.236 28.2909 64.3264 27.9834C64.356 27.9068 64.3414 27.8234 64.3448 27.7434C64.3478 27.5058 64.3391 27.2683 64.3408 27.0306C64.3398 26.5852 64.3473 26.1399 64.3451 25.6943C64.9688 25.6948 65.5926 25.6939 66.2163 25.6948C66.2162 26.9418 66.2165 28.1888 66.2162 29.4358C66.1183 29.4361 66.0203 29.436 65.9224 29.436C65.5983 29.1285 65.2713 28.8244 64.9472 28.5168C64.6962 28.8527 64.3353 29.0856 63.9551 29.2401C63.5042 29.423 63.0191 29.5056 62.5357 29.5195C61.9984 29.5323 61.4572 29.47 60.9416 29.3119C60.0285 29.0357 59.2173 28.4415 58.643 27.6676C58.3027 27.2073 58.0602 26.6723 57.936 26.1093C57.8598 25.7635 57.8209 25.4088 57.8239 25.0544C57.8152 24.3984 57.9423 23.7369 58.2202 23.1442C58.4792 22.5878 58.8657 22.099 59.3208 21.6979C59.7794 21.2921 60.3208 20.9852 60.9003 20.8029L60.9002 20.8028ZM80.6564 20.5819C81.3727 20.5328 82.1053 20.6064 82.7823 20.8611C83.2981 21.0531 83.7746 21.3524 84.1805 21.7304C84.6052 22.1235 84.9637 22.5961 85.2051 23.1287C85.479 23.7234 85.5992 24.3841 85.597 25.0391C85.5986 25.7422 85.4563 26.452 85.1394 27.0785C84.8666 27.6215 84.4737 28.0964 84.015 28.4845C83.5692 28.8606 83.048 29.1418 82.4928 29.3047C82.1036 29.4202 81.6999 29.4805 81.2957 29.4962C80.5831 29.5253 79.8587 29.4276 79.1962 29.1494C78.6532 28.9233 78.1595 28.5768 77.7513 28.1468C77.3237 27.7103 76.9858 27.1797 76.7815 26.5974C76.5396 25.9094 76.4817 25.1624 76.5614 24.4385C76.6365 23.7592 76.8709 23.0976 77.252 22.5352C77.5815 22.0495 78.0019 21.6274 78.4846 21.3022C79.128 20.8667 79.8894 20.6333 80.6564 20.5819ZM80.8138 20.9371C80.5039 20.9713 80.2015 21.079 79.9411 21.2548C79.6797 21.4283 79.4598 21.6624 79.2804 21.9222C78.93 22.4334 78.7263 23.036 78.615 23.6462C78.4889 24.3561 78.4722 25.0838 78.5321 25.8017C78.5983 26.5472 78.7747 27.297 79.1517 27.945C79.4064 28.3784 79.7649 28.7657 80.223 28.9706C80.5782 29.1324 80.9782 29.1759 81.3619 29.1253C81.6654 29.0844 81.9592 28.9707 82.2115 28.7939C82.4357 28.6389 82.6265 28.438 82.7866 28.216C82.9839 27.9379 83.1456 27.6334 83.2658 27.3125C83.5229 26.6308 83.6129 25.8955 83.6253 25.1686C83.6307 24.7354 83.6091 24.301 83.5466 23.8723C83.4523 23.2246 83.2577 22.5826 82.9057 22.031C82.6599 21.6326 82.3187 21.2816 81.8913 21.0938C81.5544 20.9419 81.1776 20.8976 80.8138 20.9371ZM68.0365 20.6694C69.3438 20.6693 70.651 20.6694 71.9584 20.6694C72.5731 20.6703 73.1972 20.8022 73.7348 21.1154C73.9792 21.2551 74.2014 21.4325 74.4062 21.6272C74.5946 21.8111 74.7579 22.0232 74.8801 22.2589C75.0224 22.5317 75.1068 22.8347 75.1341 23.1423C75.1697 23.5369 75.1262 23.9423 74.9831 24.3119C74.8128 24.7602 74.4969 25.1374 74.1261 25.4269C73.8622 25.6329 73.5669 25.7965 73.2542 25.9099C73.0166 25.9936 72.7711 26.0613 72.5202 26.0843C72.6965 26.0984 72.8738 26.088 73.0506 26.0913C73.2456 26.0913 73.4406 26.0913 73.6357 26.0913C74.25 27.2058 74.8654 28.3198 75.4774 29.4356C74.787 29.4362 74.0966 29.4357 73.4064 29.4359C72.8067 28.3348 72.2087 27.2331 71.6095 26.1319C71.0437 26.1317 70.4779 26.1316 69.9122 26.1319C69.9121 27.2331 69.9121 28.3343 69.9122 29.4355C69.2871 29.4366 68.662 29.4354 68.037 29.436C68.0358 26.5138 68.0367 23.5915 68.0365 20.6693L68.0365 20.6694ZM69.9124 21.1067C69.9119 22.6358 69.9121 24.1651 69.9122 25.6943C70.3617 25.6947 70.8112 25.6941 71.2607 25.6946C71.4232 25.6947 71.5869 25.6775 71.7431 25.6299C72.0963 25.526 72.3963 25.2736 72.5913 24.9583C72.7711 24.6728 72.8754 24.3438 72.9303 24.0105C72.9862 23.6597 72.9924 23.3011 72.9526 22.9482C72.9142 22.6198 72.8317 22.2935 72.6817 21.9993C72.5525 21.746 72.37 21.5169 72.1364 21.3577C71.8897 21.1865 71.5894 21.1012 71.292 21.1065C70.8321 21.1068 70.3722 21.1067 69.9124 21.1067L69.9124 21.1067ZM87.1558 20.6655C87.7811 20.6652 88.4063 20.6652 89.0316 20.6655C89.0316 22.4418 89.0316 24.2183 89.0316 25.9946C89.0235 26.359 89.0526 26.7263 89.1459 27.0791C89.2795 27.6007 89.5679 28.0885 89.9937 28.4129C90.46 28.7726 91.0545 28.9218 91.6323 28.9134C92.2183 28.9183 92.8214 28.7464 93.2764 28.357C93.4294 28.2268 93.5647 28.0752 93.6779 27.9074C93.6752 26.1197 93.6773 24.3321 93.6768 22.5445C93.6779 21.9193 93.6735 21.2943 93.6811 20.6692C94.3047 20.6695 94.9284 20.6691 95.5525 20.6693C95.5525 23.5914 95.552 26.5134 95.5525 29.4355C95.4539 29.4364 95.3558 29.4355 95.2577 29.4361C94.8044 29.0138 94.357 28.5854 93.9026 28.165C93.5792 28.6528 93.0995 29.0227 92.5621 29.2302C91.9196 29.4806 91.2178 29.524 90.5381 29.4677C89.9193 29.4128 89.3043 29.2359 88.7712 28.9042C88.2888 28.6047 87.8683 28.1915 87.5843 27.6901C87.4048 27.3717 87.283 27.0199 87.2183 26.6583C87.1601 26.3433 87.1515 26.0218 87.1558 25.7021C87.1558 24.0232 87.1558 22.3443 87.1558 20.6654L87.1558 20.6655ZM97.4198 20.6655C98.5873 20.6652 99.7548 20.6655 100.922 20.6653C101.18 20.6664 101.439 20.6594 101.697 20.6823C102.264 20.7288 102.827 20.903 103.303 21.2263C103.705 21.5021 104.072 21.854 104.29 22.3025C104.436 22.5966 104.511 22.9238 104.53 23.2523V23.5393C104.511 23.8911 104.425 24.2413 104.26 24.5518C104.007 25.0339 103.595 25.4131 103.133 25.6808C102.592 25.9925 101.966 26.1266 101.349 26.1279C100.665 26.1276 99.9801 26.1278 99.2955 26.1279C99.2955 27.2291 99.2961 28.3305 99.2955 29.4317C98.6703 29.432 98.045 29.432 97.4203 29.4317C97.4197 26.5096 97.4197 23.5876 97.4197 20.6655L97.4198 20.6655ZM99.2955 21.1028C99.2955 22.6319 99.2955 24.1611 99.2955 25.6902C99.6901 25.6905 100.084 25.6902 100.479 25.6904C100.622 25.6878 100.765 25.6985 100.907 25.6766C101.215 25.6358 101.509 25.4898 101.73 25.266C101.901 25.0985 102.032 24.891 102.128 24.6706C102.271 24.3379 102.339 23.9753 102.358 23.6134C102.372 23.3049 102.359 22.9938 102.299 22.6904C102.239 22.3788 102.132 22.0728 101.958 21.8082C101.825 21.6031 101.649 21.4254 101.44 21.3025C101.217 21.1694 100.958 21.105 100.701 21.1026C100.233 21.1028 99.7639 21.1023 99.2955 21.1028V21.1028Z" fill="white"/>
</g>
<defs>
<filter id="filter0_b_295_16779" x="-4" y="-4" width="138" height="58" filterUnits="userSpaceOnUse" color-interpolation-filters="sRGB">
<feFlood flood-opacity="0" result="BackgroundImageFix"/>
<feGaussianBlur in="BackgroundImageFix" stdDeviation="2"/>
<feComposite in2="SourceAlpha" operator="in" result="effect1_backgroundBlur_295_16779"/>
<feBlend mode="normal" in="SourceGraphic" in2="effect1_backgroundBlur_295_16779" result="shape"/>
</filter>
</defs>
</svg>
