<svg width="130" height="50" viewBox="0 0 130 50" fill="none" xmlns="http://www.w3.org/2000/svg">
<g filter="url(#filter0_b_295_16746)">
<rect width="130" height="50" rx="7" fill="#5C5F8E" fill-opacity="0.2"/>
<path fill-rule="evenodd" clip-rule="evenodd" d="M42.9487 25.6888L35.3857 33.2645H42.9614H50.5372V25.6888C50.5372 21.5221 50.5314 18.113 50.5244 18.113C50.5174 18.113 47.1084 21.5221 42.9487 25.6888Z" fill="#2A8288"/>
<path d="M35.3857 33.2645L42.9487 25.6888C47.1084 21.5221 50.5174 18.113 50.5244 18.113C50.5314 18.113 50.5372 21.5221 50.5372 25.6888V33.2645H42.9614H35.3857Z" fill="#2A8288"/>
<path fill-rule="evenodd" clip-rule="evenodd" d="M41.5972 24.3112L49.1602 16.7355H41.5845H34.0087L34.0087 24.3112C34.0087 28.4779 34.0145 31.887 34.0215 31.887C34.0285 31.887 37.4375 28.4779 41.5972 24.3112Z" fill="#92CFAE"/>
<path d="M49.1602 16.7355L41.5972 24.3112C37.4375 28.4779 34.0285 31.887 34.0215 31.887C34.0145 31.887 34.0087 28.4779 34.0087 24.3112L34.0087 16.7355H41.5845H49.1602Z" fill="#92CFAE"/>
<path fill-rule="evenodd" clip-rule="evenodd" d="M53.9814 24.9968V33.258H55.8155H57.6495V30.272V27.286L59.1865 27.2561C60.1877 27.2367 60.9036 27.198 61.2401 27.1452C62.6889 26.9177 63.9499 26.3065 64.6435 25.4954C65.5136 24.478 65.8701 23.1896 65.7552 21.478C65.6885 20.486 65.4421 19.6888 64.9902 19.0028C64.7251 18.6002 64.1872 18.0563 63.7805 17.7795C63.4116 17.5282 62.7425 17.229 62.2188 17.081C61.1591 16.7815 61.155 16.7813 57.43 16.7575L53.9814 16.7356V24.9968ZM67.3622 25.0036V33.2644L70.8882 33.2425C74.6341 33.2192 74.6903 33.2158 75.6521 32.9522C77.5038 32.4447 78.6689 31.2358 79.0394 29.4375C79.1678 28.8145 79.1937 27.6457 79.0926 27.039C78.7361 24.8991 77.2577 23.5891 74.7853 23.2224C74.3847 23.163 73.819 23.1424 72.5858 23.1424H70.9256L70.9392 21.4005L70.9528 19.6587L74.3496 19.6454L77.7465 19.6322V18.1874V16.7427H72.5543H67.3622V25.0036ZM81.8279 25.0004V33.258H83.739H85.6503L85.6635 29.5625L85.6768 25.8671L88.5957 29.5616L91.5147 33.2561L93.7535 33.2571L95.9922 33.258L95.8387 33.0644C95.7542 32.958 94.1724 31.002 92.3235 28.7178C89.4383 25.1531 88.9715 24.5535 89.0295 24.4857C89.0665 24.4423 90.565 22.6943 92.3594 20.6012C94.1538 18.5081 95.6219 16.7834 95.6219 16.7686C95.6219 16.7537 94.7101 16.7476 93.5957 16.755L91.5694 16.7685L88.649 20.2883C87.0426 22.2242 85.711 23.8093 85.6897 23.8107C85.6684 23.8122 85.6509 22.2224 85.6509 20.278V16.7427H83.7394H81.8279V25.0004ZM60.6081 19.7029C61.4976 19.9535 61.9897 20.4649 62.1732 21.3293C62.3115 21.9813 62.238 22.8248 61.9951 23.3734C61.8406 23.7223 61.4071 24.1513 61.0249 24.3335C60.5118 24.5781 60.0644 24.6391 58.7816 24.6391H57.6495V22.1046V19.57L58.9799 19.5945C59.992 19.6131 60.3814 19.6391 60.6081 19.7029ZM74.0401 25.8745C74.5388 26.002 74.8064 26.1394 75.1123 26.4252C75.5806 26.8628 75.8027 27.655 75.691 28.4891C75.5605 29.4635 75.0773 30.0217 74.1233 30.3C73.9114 30.3618 73.5012 30.3868 72.3864 30.4055L70.927 30.43V28.1022V25.7745H72.2878C73.4651 25.7745 73.7014 25.788 74.0401 25.8745Z" fill="white"/>
</g>
<defs>
<filter id="filter0_b_295_16746" x="-4" y="-4" width="138" height="58" filterUnits="userSpaceOnUse" color-interpolation-filters="sRGB">
<feFlood flood-opacity="0" result="BackgroundImageFix"/>
<feGaussianBlur in="BackgroundImageFix" stdDeviation="2"/>
<feComposite in2="SourceAlpha" operator="in" result="effect1_backgroundBlur_295_16746"/>
<feBlend mode="normal" in="SourceGraphic" in2="effect1_backgroundBlur_295_16746" result="shape"/>
</filter>
</defs>
</svg>
