<svg width="130" height="50" viewBox="0 0 130 50" fill="none" xmlns="http://www.w3.org/2000/svg">
<g filter="url(#filter0_b_284_14364)">
<rect width="130" height="50" rx="7" fill="#5C5F8E" fill-opacity="0.2"/>
<path fill-rule="evenodd" clip-rule="evenodd" d="M82.5696 23.7867C81.8059 23.8896 81.4318 23.9985 80.7589 24.3137C79.501 24.903 78.7704 25.8517 78.5333 27.2035L78.4898 27.4518H79.8207H81.1517L81.2481 27.1875C81.3769 26.8342 81.954 26.3431 82.4213 26.1893C82.647 26.1149 83.053 26.0645 83.4259 26.0645C83.9727 26.0645 84.1143 26.095 84.5466 26.3061C84.8886 26.473 85.1016 26.6377 85.2362 26.8395C85.4637 27.1803 85.6516 27.7532 85.6516 28.1059V28.3538L83.629 28.3874C81.8855 28.4163 81.5251 28.443 81.0167 28.5807C79.1739 29.0801 78.2168 30.178 78.0588 31.9737C77.8522 34.3214 79.6707 36.0833 82.2999 36.0825C83.5426 36.0822 84.465 35.7983 85.3282 35.1506C85.5953 34.9501 85.8254 34.7862 85.8395 34.7862C85.8537 34.7862 85.889 34.9494 85.918 35.1491C86.0312 35.9268 85.9016 35.8558 87.2067 35.8558H88.3598L88.328 31.6347C88.2997 27.8926 88.2808 27.3616 88.1607 26.9552C87.9952 26.3946 87.6614 25.7155 87.371 25.348C87.088 24.9899 86.3717 24.4545 85.8629 24.2207C85.0204 23.8337 83.6051 23.6471 82.5696 23.7867ZM50.5166 29.8966V35.8558H55.4864H60.4561V37.04V38.2242H61.6889H62.9217V35.8176V33.411H62.1133H61.3048L61.285 28.6933L61.2651 23.9756L59.9366 23.9546L58.6081 23.9338L58.5882 28.6532L58.5684 33.3728H55.9101H53.2519L53.232 28.6551L53.2122 23.9374H51.8644H50.5166V29.8966ZM64.848 29.8983V35.8593L66.2096 35.8384L67.5713 35.8176L70.3703 31.8529L73.1694 27.8882V31.872V35.8558H74.5178H75.8662V29.8966V23.9374L74.5371 23.9386L73.208 23.9397L70.3956 27.9286L67.5833 31.9174L67.5633 27.9274L67.5434 23.9374H66.1957H64.848V29.8983ZM90.9681 29.8966V35.8558H92.3154H93.6626L93.683 33.5065L93.7034 31.1572L96.4579 31.1371L99.2125 31.1171V33.4864V35.8558H100.368H101.524V29.8966V23.9374H100.368H99.2125V26.3068V28.6761L96.4579 28.6561L93.7034 28.636L93.683 26.2867L93.6626 23.9374H92.3154H90.9681V29.8966ZM85.6516 30.9964C85.6516 31.2767 85.5827 31.7061 85.4898 32.0042C85.3525 32.4451 85.2566 32.5935 84.8541 32.9871C84.2187 33.6087 83.8132 33.7548 82.7237 33.7548C81.8437 33.7548 81.5212 33.6699 81.1539 33.3415C80.8493 33.0691 80.7204 32.7316 80.7204 32.206C80.7204 31.5662 81.0232 31.1065 81.6245 30.8335C82.1694 30.5862 82.6376 30.5315 84.3225 30.5182L85.6516 30.5078V30.9964Z" fill="white"/>
<path fill-rule="evenodd" clip-rule="evenodd" d="M40.2839 11.8885C38.893 12.2587 37.6887 13.4581 37.31 14.8501C37.2598 15.0348 37.2186 15.4947 37.2186 15.872C37.2186 16.8792 37.4616 17.6082 38.0787 18.4519C38.3857 18.8718 41.298 22.3936 41.3382 22.3936C41.3517 22.3936 42.1207 21.472 43.0471 20.3455C44.9254 18.0615 45.2858 17.4816 45.4332 16.5066C45.7487 14.4202 44.4036 12.4163 42.3286 11.8814C41.7719 11.7379 40.8376 11.7411 40.2839 11.8885ZM42.206 14.1736C43.0863 14.5878 43.5102 15.8075 43.0797 16.6876C42.7618 17.3376 42.0389 17.7949 41.3293 17.7949C39.9265 17.7949 38.9883 16.2792 39.6176 15.0293C40.0983 14.0745 41.2125 13.7061 42.206 14.1736ZM32.6178 28.6517C28.7282 33.3148 28.522 33.5774 28.4998 33.8976L28.4766 34.2347L29.744 35.2883C30.4411 35.8679 31.0184 36.3338 31.0271 36.3239C31.0358 36.3139 32.3152 34.7755 33.8703 32.905C35.4255 31.0346 36.7208 29.4979 36.749 29.4901C36.7772 29.4822 38.0801 31.0191 39.6443 32.9054L42.4883 36.3349L42.7008 36.1658C42.8176 36.0728 43.4582 35.5445 44.1243 34.9919C45.3051 34.0121 45.3319 33.9832 45.2 33.8325C45.1255 33.7475 44.5844 33.0984 43.9974 32.3901L42.9301 31.1022V27.6174V24.1327H41.4074H39.8847V25.7235C39.8847 26.6988 39.8559 27.3045 39.8103 27.2886C39.7693 27.2745 39.0812 26.4803 38.281 25.5239C37.4809 24.5674 36.8006 23.7754 36.7693 23.7639C36.7379 23.7524 34.8698 25.9519 32.6178 28.6517Z" fill="#0468FF"/>
</g>
<defs>
<filter id="filter0_b_284_14364" x="-4" y="-4" width="138" height="58" filterUnits="userSpaceOnUse" color-interpolation-filters="sRGB">
<feFlood flood-opacity="0" result="BackgroundImageFix"/>
<feGaussianBlur in="BackgroundImageFix" stdDeviation="2"/>
<feComposite in2="SourceAlpha" operator="in" result="effect1_backgroundBlur_284_14364"/>
<feBlend mode="normal" in="SourceGraphic" in2="effect1_backgroundBlur_284_14364" result="shape"/>
</filter>
</defs>
</svg>
