<svg width="130" height="50" viewBox="0 0 130 50" fill="none" xmlns="http://www.w3.org/2000/svg">
<g filter="url(#filter0_b_284_14520)">
<rect width="130" height="50" rx="7" fill="#5C5F8E" fill-opacity="0.2"/>
<path d="M91.1648 32.8597C97.6621 29.4265 99.2205 25.0758 97.2194 23.8654C94.2663 22.2053 86.1671 25.176 87.0858 33.3094C86.684 33.551 85.8856 33.9853 85.8856 33.9853L86.4256 35.6299C86.4256 35.6299 87.5541 34.9515 87.8612 34.7408C88.8131 35.5117 89.3045 35.9357 90.7784 35.9666C93.9055 36.0308 96.6078 32.5462 96.6078 32.5462L95.812 31.3178C95.812 31.3178 92.3727 34.6252 91.1648 32.8597ZM92.0272 27.8769C92.9561 26.2219 94.471 24.9293 95.2055 25.4459C95.9399 25.9624 94.4506 28.5759 90.9499 31.3564C90.8091 31.1174 91.0932 29.537 92.0272 27.8769ZM30.5705 35.2316C29.007 33.5972 30.4835 28.0645 30.788 26.8721C30.7947 26.8462 30.7953 26.8192 30.7899 26.793C30.7846 26.7669 30.7733 26.7423 30.757 26.7212C30.7407 26.7001 30.7198 26.6831 30.6959 26.6714C30.672 26.6597 30.6457 26.6536 30.6191 26.6537C30.5868 26.6531 30.555 26.6618 30.5274 26.6786C30.4998 26.6954 30.4775 26.7197 30.463 26.7487C29.8028 28.0825 26.233 35.9563 23.0727 35.9563C23.0138 35.9563 22.9524 35.9563 22.8935 35.9563C19.8407 35.6659 20.2424 31.4283 21.1892 28.8611H26.1127C25.711 29.9713 25.5728 30.66 25.5856 31.0326C25.5802 31.0867 25.5898 31.1413 25.6133 31.1903C25.6368 31.2393 25.6733 31.2808 25.7188 31.3103C25.7643 31.3398 25.8171 31.3561 25.8712 31.3574C25.9254 31.3588 25.9788 31.3451 26.0257 31.3178C26.5375 31.0609 27.3769 29.9456 28.1062 28.6684C29.4394 26.335 31.1514 22.8427 34.107 14H39.5116C37.8994 18.9263 36.62 23.3797 35.8958 28.4731C35.8816 28.5345 35.8881 28.5989 35.9142 28.6562C35.9404 28.7135 35.9847 28.7605 36.0402 28.7898C36.0957 28.8192 36.1594 28.8292 36.2212 28.8184C36.2831 28.8076 36.3396 28.7765 36.382 28.73C37.9174 27.2755 43.5471 15.069 43.8977 14.0077H49.3074C49.3074 14.0077 43.9335 28.9331 44.3916 31.4155C44.453 31.7521 44.801 31.8421 45.0825 31.5183C45.4126 31.1431 45.9244 30.4724 46.2264 30.1203L47.0632 30.9606C45.5227 32.8597 43.0174 36.3109 40.5275 35.8946C40.1305 35.8188 39.7667 35.6213 39.486 35.3293C36.8861 33.0602 40.5096 25.4844 41.1468 23.7061C41.2876 23.3129 41.4257 22.9532 41.5153 22.727C41.5252 22.7003 41.5285 22.6717 41.525 22.6434C41.5215 22.6152 41.5113 22.5882 41.4952 22.5648C41.4792 22.5414 41.4577 22.5222 41.4327 22.5088C41.4077 22.4954 41.3799 22.4883 41.3515 22.488C41.3183 22.4878 41.2857 22.4971 41.2576 22.5148C41.2295 22.5326 41.207 22.5581 41.1929 22.5882C41.0675 22.8452 40.7297 23.5776 40.6145 23.8192C39.0075 27.1445 35.3123 35.9563 32.2697 35.9563C31.6308 35.9466 31.0211 35.6865 30.5705 35.2316ZM82.8763 17.7416C80.4759 17.7725 79.2502 19.0265 79.2502 19.0265L79.3141 20.5041C79.3141 20.5041 80.8495 18.9751 82.582 19.6201C83.7642 20.057 84.9388 21.568 84.1353 24.9165C83.4111 23.0559 80.6141 22.6448 78.3622 25.0758C76.5709 27.016 74.1373 33.4919 77.7225 35.4835C82.17 37.9659 86.0878 30.7036 86.9886 25.7594C87.5567 22.6396 87.8944 17.6748 82.8763 17.7416ZM81.0082 32.7441C80.5271 33.0884 79.6801 33.258 79.5163 31.747C79.2834 29.5652 80.7958 26.9363 81.2513 26.3247C82.0497 25.2814 83.1603 25.2017 83.1833 26.7821C83.2089 28.6041 82.2058 31.8883 81.0082 32.7441ZM67.5607 16.5158C64.9659 15.6061 55.7663 18.5331 52.7544 28.7455C52.3859 28.8483 50.6176 29.3057 50.6176 29.3057L49.8499 31.3949L52.5855 30.5546C52.5855 30.5546 52.2861 35.8021 56.8795 35.9512C60.4902 35.815 62.4248 30.5186 61.2989 27.1136C61.0711 27.2267 58.1231 28.4808 58.1231 28.4808C58.1231 28.4808 58.7143 31.9243 57.4271 32.7209C57.3778 32.7542 57.3224 32.7774 57.2641 32.7891C57.2058 32.8008 57.1458 32.8008 57.0875 32.7891C57.0292 32.7774 56.9738 32.7542 56.9245 32.7209C56.8752 32.6876 56.8329 32.6448 56.8002 32.595C56.4265 32.0811 56.1886 30.7216 56.6082 28.9228C63.2181 25.4767 67.7322 19.3966 68.006 17.3099C68.033 17.1464 68.0035 16.9785 67.9226 16.8341C67.8416 16.6897 67.7139 16.5774 67.5607 16.5158ZM59.3387 25.5641C58.6556 26.0979 57.9268 26.57 57.161 26.9749C57.161 26.9749 57.5013 26.1757 57.7726 25.7131C58.4789 24.5079 61.9028 19.9105 64.7688 19.0445C64.7923 19.0369 64.8174 19.0354 64.8416 19.0401C64.8658 19.0448 64.8885 19.0557 64.9074 19.0716C64.9263 19.0875 64.9409 19.108 64.9498 19.1311C64.9587 19.1543 64.9616 19.1793 64.9582 19.2038C64.9173 20.2086 61.2963 24.053 59.3387 25.5641ZM73.1572 33.2734C73.5922 33.001 74.1808 32.5282 74.1808 32.5282L74.5468 33.6538C74.3292 33.8851 72.561 35.2933 71.4632 35.8073C70.2784 36.3623 69.1857 35.6299 69.0372 34.7357C68.8658 33.7077 69.3955 32.3689 69.3955 32.3689C69.3955 32.3689 67.5044 34.5301 65.58 35.5837C65.1959 35.8275 64.7547 35.9658 64.3006 35.9846C63.0031 35.9537 62.5963 34.6997 62.7396 34.0187C62.9085 33.2143 64.6614 27.7895 64.884 26.9004C64.8885 26.8761 64.8865 26.851 64.8784 26.8277C64.8702 26.8044 64.8561 26.7837 64.8374 26.7676C64.8188 26.7514 64.7963 26.7405 64.7721 26.7359C64.748 26.7312 64.723 26.733 64.6998 26.741C64.1675 26.8875 62.7754 27.7998 62.7754 27.7998V26.281C62.7754 26.281 66.6139 23.665 67.6196 23.3772C68.5562 23.1202 69.3571 23.6342 69.1217 24.716C69.0142 25.4587 66.729 31.7264 66.5883 32.4871C66.5601 32.6361 66.7162 32.649 66.7597 32.6361C67.5044 32.4074 68.876 31.2382 69.9278 29.5729C70.9079 28.0156 71.5809 26.042 72.3946 23.6033H75.9005C75.9005 23.6033 73.257 31.7444 72.9576 33.0936C72.9465 33.1203 72.9439 33.1498 72.9501 33.1782C72.9563 33.2065 72.971 33.2322 72.9922 33.2518C73.0134 33.2714 73.0402 33.284 73.0688 33.2879C73.0974 33.2918 73.1265 33.2867 73.1521 33.2734H73.1572ZM101.135 35.9666C99.2615 35.9666 98.3965 34.3939 98.1816 33.8902C96.0448 28.563 102.307 23.611 102.307 23.611H105.935C105.935 23.611 100.413 28.0491 101.176 31.9885C101.687 33.8979 103.338 33.3968 104.413 31.8935C105.72 30.0663 106.898 26.4635 106.01 26.3658C105.186 26.2759 104.09 28.067 104.09 28.067L103.323 26.8926C103.919 26.1217 105.626 24.0916 107.501 23.4594C107.788 23.3695 109.5 22.9197 109.5 25.4561C109.495 28.1544 106.48 36 101.135 35.9666ZM50.1826 34.4992C50.1831 34.7876 50.0984 35.0697 49.9391 35.3097C49.7799 35.5497 49.5533 35.7369 49.2881 35.8475C49.0229 35.9581 48.7309 35.9871 48.4492 35.931C48.1675 35.8749 47.9088 35.736 47.7057 35.5321C47.5026 35.3282 47.3644 35.0683 47.3085 34.7854C47.2526 34.5025 47.2815 34.2094 47.3916 33.943C47.5018 33.6767 47.6881 33.4491 47.9271 33.2892C48.1661 33.1293 48.447 33.0442 48.7342 33.0447C49.1183 33.0447 49.4868 33.198 49.7584 33.4707C50.03 33.7435 50.1826 34.1135 50.1826 34.4992Z" fill="#E30613"/>
</g>
<defs>
<filter id="filter0_b_284_14520" x="-4" y="-4" width="138" height="58" filterUnits="userSpaceOnUse" color-interpolation-filters="sRGB">
<feFlood flood-opacity="0" result="BackgroundImageFix"/>
<feGaussianBlur in="BackgroundImageFix" stdDeviation="2"/>
<feComposite in2="SourceAlpha" operator="in" result="effect1_backgroundBlur_284_14520"/>
<feBlend mode="normal" in="SourceGraphic" in2="effect1_backgroundBlur_284_14520" result="shape"/>
</filter>
</defs>
</svg>
