<svg width="130" height="50" viewBox="0 0 130 50" fill="none" xmlns="http://www.w3.org/2000/svg">
<g filter="url(#filter0_b_284_14368)">
<rect width="130" height="50" rx="7" fill="#5C5F8E" fill-opacity="0.2"/>
<path d="M28.2651 24.1784C27.6899 23.2227 26.7784 22.6291 25.4227 22.6291C22.6627 22.6291 20.5 25.0518 20.5 27.9922C20.5 31.0361 22.6627 33.4587 25.4227 33.4587C26.7784 33.4587 27.6899 32.8652 28.2651 31.897V33.231H31.6842V16.7484H28.2651V24.1784ZM26.1024 30.4356C24.743 30.4356 23.9603 29.6487 23.9603 28.0336C23.9603 26.4184 24.743 25.6523 26.1024 25.6523C27.4206 25.6523 28.2651 26.4184 28.2651 28.0336C28.2651 29.6487 27.4206 30.4356 26.1024 30.4356Z" fill="white"/>
<path d="M45.7727 30.4147H45.7315L43.2805 22.8774H39.6348L43.3217 33.2308H48.1208L51.787 22.8774H48.2032L45.7727 30.4147Z" fill="white"/>
<path d="M36.4012 16.5C34.8152 16.5 33.7441 17.5767 33.7441 19.0262C33.7441 20.4757 34.8152 21.5525 36.4012 21.5525C37.9666 21.5525 39.017 20.4757 39.017 19.0262C39.017 17.5767 37.9666 16.5 36.4012 16.5Z" fill="white"/>
<path d="M38.09 22.8774H34.6709V33.2308H38.09V22.8774Z" fill="white"/>
<path d="M60.2114 24.1787C59.6362 23.2229 58.7247 22.6294 57.369 22.6294C54.609 22.6294 52.4463 25.0521 52.4463 27.9924C52.4463 31.0363 54.609 33.459 57.369 33.459C58.7247 33.459 59.6362 32.8655 60.2114 31.8972V33.2312H63.6305V22.8779H60.2114V24.1787ZM58.0487 30.4358C56.6893 30.4358 55.9066 29.649 55.9066 28.0338C55.9066 26.4187 56.6893 25.6526 58.0487 25.6526C59.3669 25.6526 60.2114 26.4187 60.2114 28.0338C60.2114 29.649 59.3669 30.4358 58.0487 30.4358Z" fill="white"/>
<path d="M106.081 22.8774V28.1784C106.081 29.6279 105.546 30.2905 104.392 30.2905C103.197 30.2905 102.683 29.6279 102.683 28.1784V22.8774H99.2637V28.1991C99.2637 31.7399 101.323 33.5 104.392 33.5C107.42 33.5 109.5 31.7399 109.5 28.1991V22.8774H106.081Z" fill="white"/>
<path d="M94.5054 22.6294C92.94 22.6294 91.8486 23.7476 91.8486 25.2384C91.8486 26.75 92.94 27.8475 94.5054 27.8475C96.0499 27.8475 97.121 26.75 97.121 25.2384C97.121 23.7476 96.0499 22.6294 94.5054 22.6294Z" fill="white"/>
<path d="M73.1664 22.6704C71.6834 22.6704 70.6537 23.2088 69.9328 24.2442V22.8775H66.5137V33.2309H69.9328V27.7229C69.9328 26.3355 70.4889 25.6729 71.7866 25.6729C73.084 25.6729 73.6404 26.3355 73.6404 27.7229V33.2309H77.0595V27.7229C77.0595 24.4098 75.1849 22.6704 73.1664 22.6704Z" fill="white"/>
<path d="M90.9426 22.8774H87.5234V33.2308H90.9426V22.8774Z" fill="white"/>
<path d="M82.3118 27.8677C80.664 27.8677 79.4902 29.0687 79.4902 30.6424C79.4902 32.2368 80.664 33.4171 82.3118 33.4171C83.9596 33.4171 85.0927 32.2368 85.0927 30.6424C85.0927 29.0687 83.9596 27.8677 82.3118 27.8677Z" fill="white"/>
</g>
<defs>
<filter id="filter0_b_284_14368" x="-4" y="-4" width="138" height="58" filterUnits="userSpaceOnUse" color-interpolation-filters="sRGB">
<feFlood flood-opacity="0" result="BackgroundImageFix"/>
<feGaussianBlur in="BackgroundImageFix" stdDeviation="2"/>
<feComposite in2="SourceAlpha" operator="in" result="effect1_backgroundBlur_284_14368"/>
<feBlend mode="normal" in="SourceGraphic" in2="effect1_backgroundBlur_284_14368" result="shape"/>
</filter>
</defs>
</svg>
