<svg width="130" height="50" viewBox="0 0 130 50" fill="none" xmlns="http://www.w3.org/2000/svg">
<g filter="url(#filter0_b_284_14525)">
<rect width="130" height="50" rx="7" fill="#5C5F8E" fill-opacity="0.2"/>
<mask id="mask0_284_14525" style="mask-type:alpha" maskUnits="userSpaceOnUse" x="69" y="12" width="17" height="26">
<path fill-rule="evenodd" clip-rule="evenodd" d="M69.1411 12.5H85.818V37.5H69.1396V12.5H69.1411Z" fill="white"/>
</mask>
<g mask="url(#mask0_284_14525)">
<path fill-rule="evenodd" clip-rule="evenodd" d="M76.2232 12.5L73.6674 29.666L72.1347 12.5H69.1396L71.8073 37.5H74.9296L77.4774 19.8121L80.0266 37.5H83.1481L85.8165 12.5H82.8207L81.2888 29.666L78.7323 12.5H76.2232Z" fill="white"/>
</g>
<path fill-rule="evenodd" clip-rule="evenodd" d="M94.5927 20.9367H97.5001V17.6405C97.5001 14.1714 95.8337 12.5017 92.3753 12.5017C88.9198 12.501 87.2578 14.1765 87.2578 17.6398V32.3621C87.2578 35.8261 88.919 37.5002 92.3753 37.5002C95.833 37.5002 97.4994 35.8305 97.4994 32.3621L97.5001 25.3828H92.7568V28.3H94.592V32.3621C94.592 33.8024 93.8114 34.5852 92.3753 34.5852C90.9428 34.5845 90.1593 33.7995 90.1593 32.3629V17.6398C90.1593 16.2024 90.9428 15.4174 92.3753 15.4174C93.8114 15.4167 94.5913 16.1995 94.5913 17.6398L94.592 20.9374L94.5927 20.9367ZM57.4363 29.9866V32.3614C57.4363 35.8254 59.0975 37.4995 62.5538 37.4995C66.0123 37.4995 67.6786 35.8298 67.6786 32.3614V30.5209C67.6786 27.8866 66.1862 25.9135 64.161 24.3897C62.7796 23.3489 60.3385 21.364 60.3385 19.4803V17.6398C60.3385 16.2024 61.122 15.4174 62.5545 15.4174C63.9907 15.4167 64.7705 16.1995 64.7705 17.6398V20.0205H67.6786V17.6398C67.6786 14.1707 66.0123 12.501 62.5545 12.501C59.0975 12.5002 57.4355 14.1758 57.4355 17.6383V19.4781C57.4355 22.1109 58.9214 24.0928 60.9474 25.6174C62.3258 26.6545 64.7698 28.6409 64.7698 30.5202V32.3599C64.7698 33.8009 63.9899 34.583 62.5538 34.583C61.1213 34.5823 60.3378 33.798 60.3378 32.3614V29.9859H57.4363V29.9866Z" fill="white"/>
<mask id="mask1_284_14525" style="mask-type:alpha" maskUnits="userSpaceOnUse" x="32" y="12" width="18" height="26">
<path fill-rule="evenodd" clip-rule="evenodd" d="M32.5 12.5H49.7645V37.5H32.5V12.5Z" fill="white"/>
</mask>
<g mask="url(#mask1_284_14525)">
<path fill-rule="evenodd" clip-rule="evenodd" d="M32.5 12.5H41.839L32.5 13.7241V12.5ZM49.7645 37.5H45.3793L49.3464 20.8602L49.7645 37.5ZM44.473 37.5H39.5631L47.6318 20.4952L44.4716 37.5H44.473ZM38.6934 37.5H32.5L46.0312 19.7805L38.6934 37.5ZM32.5 29.1434L44.6134 18.7463L32.5 36.3873V29.1434ZM32.5 23.4116L43.4411 17.4416L32.5 27.8336V23.4116ZM32.5 18.92L42.5647 15.9185L32.5007 22.0901V18.9208L32.5 18.92ZM32.5 15.0082L42.0232 14.2481L32.5 17.619V15.0082Z" fill="#F7991F"/>
</g>
</g>
<defs>
<filter id="filter0_b_284_14525" x="-4" y="-4" width="138" height="58" filterUnits="userSpaceOnUse" color-interpolation-filters="sRGB">
<feFlood flood-opacity="0" result="BackgroundImageFix"/>
<feGaussianBlur in="BackgroundImageFix" stdDeviation="2"/>
<feComposite in2="SourceAlpha" operator="in" result="effect1_backgroundBlur_284_14525"/>
<feBlend mode="normal" in="SourceGraphic" in2="effect1_backgroundBlur_284_14525" result="shape"/>
</filter>
</defs>
</svg>
