<svg width="130" height="50" viewBox="0 0 130 50" fill="none" xmlns="http://www.w3.org/2000/svg">
<g filter="url(#filter0_b_284_14380)">
<rect width="130" height="50" rx="7" fill="#5C5F8E" fill-opacity="0.2"/>
<path d="M103.657 13.559C103.613 14.5255 103.177 15.4384 102.828 15.9754C101.476 17.9085 98.206 18.8214 96.8106 17.4252C96.2001 16.8346 96.2438 15.7606 96.767 15.0625C97.6828 13.8275 99.645 13.559 100.997 13.4516C101.258 13.4516 103.264 13.4516 103.613 13.559C103.7 13.559 103.613 13.5053 103.657 13.559ZM109.5 24.2986C108.497 24.0838 107.538 23.5468 106.927 22.9024C106.317 22.2581 105.75 21.5063 105.445 20.1638C105.052 18.4455 105.445 15.9217 105.75 14.1497C105.837 13.559 106.012 12.9683 106.099 12.3776C105.619 12.2702 104.921 12.2165 104.442 12.1628C102.697 12.0017 100.91 11.948 99.1654 12.1628C96.767 12.4313 95.11 13.1831 93.9326 14.794C93.3658 15.5995 92.9297 16.942 93.6274 18.0696C94.1071 18.8214 95.0664 19.3584 96.0693 19.6269C97.6391 20.0564 99.2962 19.7343 100.779 19.0362C101.215 18.8214 101.607 18.5529 102.043 18.3381C101.913 18.9288 100.997 20.4323 100.648 20.9156C100.212 21.5063 99.7758 22.097 99.2526 22.634C98.8601 23.0098 98.4677 23.3857 97.988 23.6542C95.0228 25.4799 93.3658 22.2044 92.1884 21.56C90.8802 20.8619 89.7464 24.7819 88.6563 22.634C88.0022 21.3452 87.5225 18.4992 85.9527 19.8954C85.6911 20.1101 85.4294 20.3786 85.1678 20.6471C84.819 21.023 84.3829 21.4526 84.0341 21.8285C83.38 22.5803 81.8537 24.0838 81.0688 24.1912C80.6328 24.2449 80.3711 23.869 80.3275 23.3857C80.2839 22.9024 80.4147 22.3655 80.5892 21.9896C80.9816 20.9693 81.941 19.3584 82.5951 18.4455C82.6823 18.3381 82.9003 18.0696 82.9003 18.0159C82.8131 17.9085 82.4642 17.64 82.2898 17.5863C81.4177 17.1031 80.8508 17.2641 80.1531 17.9085C78.9757 18.9825 77.3187 21.1304 77.1443 23.0098C77.1443 23.2246 77.1879 23.3857 77.0571 23.4931C75.5745 25.0504 72.8709 24.7282 72.3912 21.6674C72.304 20.9693 72.304 20.3249 72.1732 19.6269C71.6935 17.0494 70.2109 17.3178 68.7719 18.4992C68.3359 18.8214 67.2893 19.8417 66.9405 20.3249C66.8533 20.4323 66.8097 20.5397 66.6788 20.5934C66.8533 20.1638 68.2923 17.5326 68.5103 17.1031C68.6847 16.7809 69.0772 16.1902 68.5975 15.9217C68.205 15.6532 67.6382 15.868 67.3329 16.0828C67.0277 16.3513 66.8533 16.7809 66.6352 17.1568C66.2428 17.9085 65.8503 18.714 65.4579 19.5195C65.109 20.3249 64.7166 21.1841 64.3677 22.0433C64.2369 22.3655 64.1933 22.3118 63.9753 22.4729C63.452 22.8487 62.9287 23.1172 62.3618 23.332C61.6641 23.6005 60.5304 23.9764 59.7455 23.8153C58.5681 23.5468 59.135 22.2044 59.5274 21.5063C59.7019 21.2378 60.1815 20.5934 59.9635 20.2712C59.2658 19.251 57.0419 22.2581 54.818 23.0635C54.1203 23.332 52.7249 23.7079 52.5505 22.634C52.376 21.56 53.2482 20.5934 53.6406 20.2175C54.1639 19.6806 54.8616 19.251 55.6465 18.8751C58.6989 17.3715 60.1815 19.0362 60.7048 19.0362C60.8792 18.714 60.9228 18.1233 60.7484 17.7474C60.6176 17.4789 60.3559 17.2104 60.0071 17.0494C58.2193 16.1902 55.2976 17.2641 53.6842 18.1233C52.4196 18.8214 51.5475 19.5195 50.5446 20.5934C49.7161 21.5063 48.6259 23.0635 48.7131 24.6208C46.9253 25.641 45.1374 25.1041 44.2217 23.6005C43.0007 21.6137 43.6984 19.7343 42.9571 17.64C42.6519 16.7809 42.1286 16.0828 41.1257 16.0828C39.5995 16.0828 37.8116 18.0159 36.6779 19.1436L35.6749 20.2712C35.5877 20.3786 35.5877 20.4323 35.4569 20.486C35.3697 19.788 35.1516 19.0362 35.0208 18.3381L34.1051 14.096C33.9307 13.3442 33.7126 12.7535 33.3202 12.3776C32.3609 11.3574 31.1835 12.6461 30.3986 13.3979C29.8753 13.9349 28.7415 15.4384 28.3055 16.1365L27.3025 17.5863C26.3432 18.9825 25.3839 20.6471 24.4682 22.097C24.1629 22.5803 23.8577 23.1172 23.5524 23.6542C22.8547 24.7819 21.6338 26.6613 20.7616 27.5742C20.6744 27.6816 20.5436 27.789 20.5 27.8964C21.3721 28.0575 22.8983 27.8427 23.6832 27.5205C24.7734 27.0909 25.2095 26.6076 25.7763 25.7484C26.2996 24.943 26.7357 24.0301 27.2153 23.1709C28.1311 21.4526 29.0032 19.5732 30.0061 17.9085C30.2678 17.4789 30.5294 17.1031 30.8346 16.7272C31.0091 16.5124 31.6195 15.7606 31.9248 16.2976C32.2736 16.8883 32.4045 19.0899 32.4481 20.0027C32.5353 21.2915 32.5789 22.634 32.7533 23.9227C32.8841 24.9967 33.233 26.8761 34.2359 25.7484C34.4103 25.5873 34.5412 25.3726 34.672 25.2115C34.8028 24.9967 34.9772 24.8356 35.108 24.6745C35.2389 24.4597 35.4133 24.2986 35.5441 24.1375C36.2418 23.1709 36.9831 22.3118 37.8116 21.5063C38.4221 20.9693 39.5995 20.1101 40.2536 21.1304C41.3437 22.7413 41.3437 24.8356 43.3496 26.0169C44.8758 26.9298 46.7945 26.7687 48.4079 25.9095C48.5387 25.8021 48.8439 25.5873 48.9748 25.5336C49.1056 25.7484 49.1492 25.8021 49.3672 25.9632C50.5446 26.8224 52.6377 26.178 53.815 25.6947C54.6436 25.3726 55.2104 24.943 55.8209 24.4597C56.2134 24.1375 57.2163 23.332 57.6088 22.9561C57.6088 23.1172 57.5216 23.4931 57.5216 23.6542C57.478 24.3523 57.4779 25.2652 57.914 25.6947C58.7425 26.5002 61.2717 24.943 62.0566 24.406L63.8444 23.2246C63.7136 23.6542 63.4956 24.1375 63.3648 24.5671C62.3182 27.5742 61.4025 31.9237 61.01 35.0919C60.9664 35.5752 60.7048 37.1861 60.9228 37.6694C61.01 37.8305 61.1845 38.0453 61.4025 37.9916C62.0566 37.9379 62.2746 36.2733 62.449 35.4678C63.1903 32.0848 64.2369 27.0909 65.8939 24.406C66.5044 23.4394 67.9434 20.9693 69.5132 21.2378C69.9057 21.2915 70.1673 21.7748 70.2981 22.1507C70.9086 23.4394 71.2139 24.6208 72.4348 25.2652C73.7866 26.0169 75.5309 25.641 76.7518 24.6208C76.8827 24.5134 77.1007 24.2986 77.2315 24.2449C77.4495 24.5134 77.4495 24.8893 78.0164 25.3189C78.3217 25.5873 78.7577 25.7484 79.1938 25.8558C81.6357 26.3928 83.5108 24.7819 85.1678 22.9561C85.3858 22.7413 85.5603 22.4192 85.7783 22.2044C85.8219 22.2581 86.0835 23.0635 86.3452 23.4931C87.6097 25.6947 89.2232 24.7819 90.793 23.8153C91.8395 23.1709 92.1448 23.5468 93.0605 24.2449C93.4094 24.4597 93.7582 24.6745 94.1507 24.8893C95.9385 25.7484 97.8136 25.3189 99.3834 24.406C100.081 23.9764 100.822 23.4394 101.389 22.9024C101.738 22.5266 102.349 21.9896 102.654 21.5063L103.003 20.9693C103.046 21.0767 103.308 22.1507 103.395 22.3655C103.788 23.6005 104.442 24.943 105.27 25.641C106.055 26.3391 106.622 26.2854 107.581 25.7484C108.105 25.4799 108.584 25.1578 109.064 24.7819C109.151 24.7282 109.195 24.6745 109.282 24.5671C109.326 24.5134 109.369 24.5134 109.413 24.4597L109.5 24.2986ZM45.9659 19.1436C45.9223 18.2844 46.4456 17.5326 47.0997 17.4789C47.841 17.4252 48.4079 18.1233 48.4515 18.9288C48.4951 19.788 47.9718 20.486 47.3177 20.5934C46.62 20.6471 46.0532 19.949 45.9659 19.1436ZM47.0125 17.1568C46.2276 17.3178 45.6171 18.177 45.7479 19.3047C45.8787 20.2175 46.5764 21.023 47.4922 20.8082C48.2335 20.6471 48.8876 19.788 48.7567 18.6603C48.5823 17.8011 47.8846 16.9957 47.0125 17.1568ZM46.8817 18.2844C47.1433 18.2844 47.5794 18.177 47.5794 18.6066C47.5794 18.9825 47.1433 18.8751 46.8817 18.8751V18.2844ZM46.4892 20.0564H46.8817V19.1973H47.2741L47.5358 20.0564H47.9282L47.623 19.0899C48.1026 18.8751 47.9718 18.2307 47.7538 18.0696C47.4922 17.8548 46.8381 17.9085 46.4892 17.9085V20.0564Z" fill="#E31E24"/>
<path d="M88.9586 31.2298C88.8714 31.2298 88.2609 31.2298 88.2173 31.2298C88.1301 31.2835 88.0865 31.7668 88.0429 31.9279L87.5196 34.8818C87.476 35.1503 87.258 36.117 87.258 36.3318H91.1826C91.2698 36.117 92.0983 31.3372 92.0547 31.2298H91.2698L90.5285 35.4725H89.7436C89.6999 35.1503 90.4413 31.6057 90.4413 31.2298H89.7C89.6563 31.3909 89.3511 33.0558 89.3075 33.378C89.2639 33.7539 89.1767 34.0762 89.1331 34.4521C89.0895 34.6132 89.0895 34.8281 89.0459 34.9892C89.0459 35.0966 89.0023 35.4725 88.915 35.4725H88.1301L88.9586 31.2298ZM100.514 35.5799C100.514 35.2577 100.732 34.3984 100.776 34.0225C100.82 33.7002 100.82 33.4317 100.95 33.3243C101.125 33.1632 101.343 33.1095 101.43 33.378C101.561 33.8076 101.343 35.1503 100.994 35.5262C100.82 35.7948 100.645 35.6874 100.514 35.5799ZM99.773 33.2169C99.991 33.1095 100.209 33.2706 100.165 33.5928L99.9038 35.0966C99.8602 35.4188 99.8602 35.5799 99.6421 35.6337C99.0753 35.7948 99.2497 34.8281 99.2933 34.3984C99.3369 33.9688 99.4677 33.378 99.773 33.2169ZM101.256 31.4446C100.514 31.4446 100.558 31.3909 100.514 31.6057L100.427 32.0891C100.383 32.3039 100.34 32.5187 100.296 32.7872C100.122 32.6798 100.035 32.465 99.6858 32.5187C99.4677 32.5724 99.2497 32.7335 99.1189 32.8409C98.552 33.4317 97.8979 36.0633 99.0317 36.3318C99.3805 36.3855 99.4677 36.2781 99.6858 36.117L99.4241 37.4597C100.296 37.4597 100.122 37.6208 100.253 36.7615C100.296 36.6004 100.34 36.2244 100.383 36.117C100.601 36.2781 100.645 36.3855 101.038 36.2781C102.171 36.0096 102.433 33.4854 102.128 32.7872C102.04 32.5724 101.866 32.4113 101.604 32.4113C101.343 32.4113 101.168 32.5724 100.994 32.6798L101.256 31.4446ZM67.7225 31.2298H66.9376L66.0654 36.3855H66.8503C66.9376 36.0096 67.0684 35.0966 67.1556 34.6132C67.1992 34.2373 67.1992 34.0762 67.33 34.0762C67.6789 34.0762 67.9405 34.0225 67.9405 34.5058C67.9841 35.1503 67.8533 35.9022 68.1585 36.2244C68.2893 36.3855 68.551 36.4392 68.8126 36.3855C68.8562 36.3318 69.1179 35.7411 69.0743 35.6337C68.987 35.5262 68.9434 35.5799 68.8562 35.5262C68.6382 35.4188 68.7254 34.9892 68.7254 34.6132C68.7254 33.8614 68.5946 33.8614 68.3766 33.6465L68.3329 33.5928C68.7254 33.4854 68.8562 33.1632 68.987 32.6798C69.0306 32.5187 69.1179 32.1965 69.2051 32.0891C69.3359 31.8205 69.4667 31.9279 69.6411 31.7668C69.6847 31.6057 69.6411 31.1761 69.5975 31.0686C69.3359 31.0149 69.0306 31.1761 68.8562 31.3372C68.6818 31.4983 68.5946 31.7668 68.4638 32.0891C68.1149 33.1095 68.2021 33.2169 67.4172 33.2169L67.7225 31.2298ZM97.2874 33.4317C97.2874 33.7002 97.0694 34.7744 96.9822 35.0429C96.7205 35.7411 96.1973 35.9022 96.1101 35.4188C96.0228 34.9892 96.1973 34.1299 96.3281 33.7539C96.5461 33.1632 96.8514 32.9484 97.2874 33.4317ZM97.7671 36.3318C97.7671 35.9559 97.6799 35.7948 97.6799 35.3114C97.7235 34.9892 97.7671 34.6669 97.8107 34.3447C97.8543 33.9688 98.1159 32.7335 98.1159 32.5187H97.4618L97.4182 32.8946C97.2002 32.7335 97.113 32.5187 96.7641 32.5187C96.0228 32.5187 95.5868 33.5391 95.4124 34.3984C95.2815 35.0429 95.2815 35.9559 95.674 36.2781C95.892 36.4929 96.1973 36.3855 96.4589 36.2781C96.5897 36.2244 96.6769 36.1707 96.7641 36.0633L97.0258 35.7948C97.0258 36.5467 96.9822 36.3318 97.7671 36.3318ZM76.4437 32.5187H75.746L75.0483 36.3318H75.746C75.8332 35.9559 75.9204 35.5262 75.964 35.0966C76.0076 34.7207 75.964 34.7207 76.2257 34.7207C76.4437 34.7207 76.6181 34.7207 76.8361 34.7207L76.5745 36.3318H77.2722L77.9699 32.5187C77.2286 32.5187 77.2722 32.465 77.2286 32.6798L77.1414 33.2169C77.0978 33.4854 77.0542 33.7539 77.0106 33.9688H76.1821L76.4437 32.5187ZM80.6735 36.3318C80.6735 35.9559 80.5427 35.7411 80.6299 35.3114C80.7171 34.5595 81.0223 33.378 81.1531 32.5187H80.4554C80.3682 33.1095 80.2374 33.6465 80.1502 34.2373C80.063 34.7744 79.8886 35.4188 79.5397 35.5799C78.8856 35.9022 79.2345 34.6132 79.3217 34.2373C79.4089 33.7002 79.5833 33.0558 79.6269 32.5187H78.9292C78.842 33.0021 78.406 35.0966 78.406 35.4188C78.3624 36.0096 78.624 36.4392 79.1037 36.3318C79.6269 36.2244 79.845 35.7411 79.9758 35.6337C79.9322 36.4929 79.845 36.3318 80.6735 36.3318ZM84.8597 36.3318C84.8161 35.9559 84.7289 35.6874 84.7725 35.3114C84.8597 34.7744 85.2521 32.8409 85.2957 32.5187H84.598C84.4672 33.2169 84.2492 34.7207 83.9875 35.2577C83.9003 35.4188 83.6387 35.7411 83.3771 35.6337C83.159 35.4188 83.4207 34.3984 83.5079 34.0762C83.5951 33.7002 83.7695 32.8409 83.7695 32.5187H83.0718C82.9846 32.7872 82.5485 35.1503 82.5049 35.4188C82.4177 36.5467 83.2899 36.6541 83.9003 35.9022C83.9875 35.7948 83.9875 35.7411 84.0748 35.6874C84.0748 35.9559 84.0748 36.117 84.162 36.3318H84.8597ZM93.5809 32.5187H92.8832L92.1855 36.3318H92.8832L93.1884 34.7207C93.4501 34.7207 93.6245 34.6669 93.7117 34.9355C93.7989 35.3651 93.6681 36.0096 94.017 36.2244C94.1478 36.3318 94.4094 36.3855 94.5838 36.3318C94.6711 36.2244 94.8019 35.7948 94.8019 35.6337C94.4094 35.5262 94.4966 35.5799 94.453 34.9892C94.4094 34.6132 94.3658 34.4521 94.1042 34.3447C94.235 34.2373 94.3658 34.3447 94.6274 33.7002C94.8891 33.0558 94.9327 33.2706 95.1943 33.1632C95.1943 33.0021 95.1943 32.6261 95.1507 32.465C94.6274 32.4113 94.3222 32.7335 94.1914 33.1632C93.9297 33.8614 93.9734 34.0225 93.3629 33.9688L93.5809 32.5187ZM68.8562 37.5134C69.0743 37.8356 69.7719 37.9967 70.2952 37.4597C70.7749 36.9763 71.3418 35.0429 71.6034 34.2373C71.6906 33.9688 71.7778 33.6465 71.9087 33.378C71.9523 33.2169 72.1703 32.6798 72.1703 32.5724H71.4726C71.3418 32.9484 71.1673 33.6465 71.0801 34.0762C70.9929 34.3447 70.7313 35.3651 70.6441 35.5262C70.5569 35.0429 70.5133 34.5595 70.4696 34.0762C70.426 33.7002 70.426 32.8946 70.3388 32.5724H69.7283L70.2516 36.1707C70.3388 36.6004 70.1208 37.0837 69.772 37.1374C69.5103 37.1911 69.4231 37.03 69.2051 36.9763C69.0743 37.03 68.8998 37.406 68.8562 37.5134ZM73.9581 34.3984C74.0454 34.1836 75.0919 32.7872 75.2227 32.5187H74.3506C74.2634 32.7335 74.1326 32.9484 74.0017 33.1632C73.9145 33.3243 73.7401 33.6465 73.6529 33.8076L73.304 32.5724H72.5627C72.5627 32.8409 73.1296 34.0762 73.2168 34.4521C73.1296 34.6132 72.6936 35.204 72.5627 35.4188C72.4319 35.5799 72.3447 35.7411 72.2139 35.9022C72.1703 36.0096 71.9087 36.2781 71.9087 36.3855H72.7372C72.9116 36.1707 73.4349 35.1503 73.5221 35.0429L73.9581 36.3855H74.6994C74.6558 36.2244 74.3942 35.6337 74.3506 35.4188C74.2198 35.0966 74.0017 34.6669 73.9581 34.3984ZM103.392 35.6874C103.436 35.4188 103.479 34.9892 103.567 34.7207C103.61 34.6132 103.61 34.6132 103.654 34.5595C104.352 34.3447 104.439 35.204 104.09 35.5799C103.916 35.7948 103.654 35.7411 103.392 35.6874ZM103.959 32.5187H103.261C103.131 33.3243 102.956 34.1299 102.825 34.9355C102.782 35.1503 102.738 35.3114 102.738 35.5262C102.695 35.7411 102.607 35.9559 102.782 36.0633C103.043 36.2244 103.392 36.3855 103.698 36.3855C105.224 36.4392 105.398 34.5058 104.744 34.0225C104.439 33.7539 104.134 33.8614 103.741 33.9151L103.959 32.5187ZM106.663 32.5187H105.965C105.878 33.1632 105.747 33.8076 105.616 34.3984C105.573 34.7744 105.267 36.0096 105.267 36.3318H105.965L106.663 32.5187Z" fill="white"/>
</g>
<defs>
<filter id="filter0_b_284_14380" x="-4" y="-4" width="138" height="58" filterUnits="userSpaceOnUse" color-interpolation-filters="sRGB">
<feFlood flood-opacity="0" result="BackgroundImageFix"/>
<feGaussianBlur in="BackgroundImageFix" stdDeviation="2"/>
<feComposite in2="SourceAlpha" operator="in" result="effect1_backgroundBlur_284_14380"/>
<feBlend mode="normal" in="SourceGraphic" in2="effect1_backgroundBlur_284_14380" result="shape"/>
</filter>
</defs>
</svg>
