<svg width="130" height="50" viewBox="0 0 130 50" fill="none" xmlns="http://www.w3.org/2000/svg">
<g filter="url(#filter0_b_284_14538)">
<rect width="130" height="50" rx="7" fill="#5C5F8E" fill-opacity="0.2"/>
<path fill-rule="evenodd" clip-rule="evenodd" d="M20.5006 15H25.0042C25.1576 15.3808 25.2976 15.7676 25.4459 16.1505C27.1297 20.5733 28.8118 24.9968 30.4971 29.4189C31.0131 28.0427 31.5205 26.6627 32.0335 25.2852C33.1405 22.3014 34.2481 19.3179 35.3551 16.3341C35.5215 15.8897 35.6831 15.4433 35.8524 15H45.0772C45.2656 15.0175 45.4559 15.0117 45.6445 15.0289C46.7159 15.1012 47.784 15.3618 48.7434 15.868C49.2585 16.1336 49.7364 16.4725 50.1756 16.8565C50.6716 17.2773 51.1116 17.7732 51.4489 18.3389C51.816 18.9499 52.0536 19.6415 52.1521 20.3531C52.2598 21.1484 52.2266 21.9684 52.0265 22.7458C51.8728 23.3426 51.6139 23.9092 51.2708 24.4144C50.9078 24.9505 50.4562 25.4184 49.9573 25.8191C49.4408 26.2344 48.8694 26.5759 48.2638 26.8319C47.6231 27.1048 46.9455 27.2764 46.2601 27.3746C47.1079 27.3754 47.9558 27.3748 48.8035 27.3748C50.1893 29.9161 51.5745 32.4578 52.9594 34.9997C51.4022 35 49.8451 35.0002 48.288 34.9995C46.9355 32.4858 45.5832 29.9719 44.2313 27.4579C42.9533 27.4579 41.6753 27.4577 40.3973 27.458C40.3968 29.9719 40.3976 32.486 40.3968 34.9999C38.9879 34.9997 37.5789 35.0002 36.1701 34.9997C36.1691 29.0824 36.1717 23.1652 36.1686 17.2481C36.1483 17.2968 36.13 17.3463 36.1125 17.3963C33.9786 23.2642 31.8434 29.1316 29.7102 34.9997C29.2837 35.0001 28.8573 34.9999 28.4308 34.9999C26.1673 29.0535 23.9043 23.1068 21.6409 17.1604C21.6398 23.1068 21.6407 29.0533 21.6403 34.9997C21.2603 35.0001 20.8803 35.0001 20.5002 34.9997C20.5002 28.3331 20.4995 21.6667 20.5006 15ZM40.3973 15.9952C40.3971 19.486 40.3969 22.9766 40.3973 26.4672C41.4809 26.4674 42.5644 26.4674 43.648 26.4672C43.8999 26.4597 44.1515 26.4257 44.3964 26.3634C45.0032 26.2112 45.5607 25.8679 45.9893 25.4C46.4122 24.9435 46.7184 24.3818 46.9261 23.7897C47.1951 23.0241 47.3067 22.2075 47.3227 21.3957C47.3341 20.5261 47.2418 19.6473 46.9742 18.8196C46.7721 18.1926 46.4646 17.5944 46.028 17.1083C45.6146 16.6431 45.077 16.2938 44.4866 16.1271C44.1397 16.0252 43.7777 15.992 43.4181 15.9952C42.4111 15.9952 41.4041 15.9952 40.3973 15.9952ZM60.3853 20.2244C60.9476 20.0437 61.5372 19.9629 62.125 19.9572C62.7666 19.9516 63.4164 20.0226 64.0248 20.2429C64.4362 20.3903 64.8216 20.6202 65.1389 20.93C65.4696 21.2472 65.7247 21.6565 65.8318 22.1123C65.8728 22.2874 65.8952 22.4676 65.8933 22.648C65.7623 22.6478 65.6315 22.6485 65.5011 22.6475C65.5029 22.3627 65.4509 22.0757 65.3343 21.8167C65.2436 21.616 65.1141 21.4355 64.9611 21.2812C64.5522 20.8855 64.0321 20.6133 63.4789 20.5188C62.9243 20.4241 62.3507 20.434 61.8012 20.5602C61.2329 20.6922 60.6949 20.9795 60.2809 21.4061C59.8551 21.8384 59.5616 22.3939 59.3766 22.977C59.1441 23.7129 59.0669 24.4926 59.0717 25.2636C59.0762 25.9123 59.1419 26.5651 59.3183 27.1895C59.4815 27.7714 59.7494 28.3238 60.1182 28.7956C60.3967 29.1553 60.7526 29.461 61.1732 29.6237C61.5312 29.7647 61.9203 29.8064 62.301 29.7831C62.7849 29.7537 63.2742 29.6022 63.6562 29.285C63.9322 29.0578 64.1405 28.7443 64.2421 28.3945C64.2755 28.3074 64.2591 28.2125 64.2628 28.1214C64.2663 27.8511 64.2564 27.5809 64.2584 27.3104C64.2573 26.8036 64.2657 26.297 64.2632 25.79C64.9654 25.7905 65.6675 25.7895 66.3697 25.7905C66.3695 27.2093 66.3698 28.6282 66.3695 30.0471C66.2593 30.0474 66.1489 30.0472 66.0388 30.0472C65.674 29.6975 65.3059 29.3514 64.941 29.0014C64.6584 29.3836 64.2522 29.6486 63.8242 29.8244C63.3166 30.0325 62.7705 30.1265 62.2264 30.1423C61.6215 30.1569 61.0123 30.0859 60.4318 29.9061C59.404 29.5919 58.4909 28.9157 57.8443 28.0352C57.4613 27.5114 57.1883 26.9027 57.0485 26.2622C56.9627 25.8687 56.9189 25.4651 56.9223 25.0619C56.9125 24.3155 57.0556 23.5629 57.3684 22.8884C57.6599 22.2554 58.095 21.6992 58.6074 21.2428C59.1236 20.781 59.7331 20.432 60.3854 20.2245L60.3853 20.2244ZM82.6249 19.973C83.4313 19.9172 84.2559 20.0009 85.018 20.2907C85.5987 20.5092 86.135 20.8497 86.592 21.2798C87.0701 21.7271 87.4736 22.2648 87.7454 22.8708C88.0537 23.5475 88.189 24.2992 88.1865 25.0445C88.1884 25.8445 88.0282 26.652 87.6714 27.3649C87.3644 27.9827 86.922 28.5231 86.4057 28.9647C85.9039 29.3926 85.3171 29.7125 84.6922 29.8979C84.2541 30.0293 83.7996 30.0979 83.3445 30.1157C82.5424 30.1489 81.7269 30.0378 80.9811 29.7212C80.3699 29.4639 79.8141 29.0697 79.3546 28.5804C78.8732 28.0838 78.4928 27.48 78.2629 26.8175C77.9906 26.0346 77.9254 25.1847 78.0152 24.3611C78.0997 23.5882 78.3635 22.8354 78.7925 22.1956C79.1635 21.6429 79.6367 21.1626 80.1801 20.7926C80.9044 20.297 81.7615 20.0315 82.6249 19.973ZM82.8021 20.3772C82.4532 20.4161 82.1128 20.5386 81.8197 20.7386C81.5254 20.9361 81.2779 21.2024 81.0759 21.498C80.6815 22.0796 80.4522 22.7654 80.3269 23.4596C80.1849 24.2674 80.1662 25.0954 80.2336 25.9121C80.3081 26.7604 80.5067 27.6135 80.9311 28.3508C81.2178 28.844 81.6213 29.2846 82.137 29.5177C82.5369 29.7018 82.9871 29.7514 83.4191 29.6937C83.7608 29.6472 84.0915 29.5179 84.3754 29.3167C84.6278 29.1403 84.8426 28.9118 85.0228 28.6591C85.2449 28.3427 85.427 27.9962 85.5623 27.6312C85.8517 26.8555 85.953 26.0188 85.967 25.1918C85.973 24.699 85.9488 24.2046 85.8784 23.7169C85.7722 22.9799 85.5532 22.2494 85.1569 21.6218C84.8802 21.1685 84.4962 20.7692 84.015 20.5554C83.6358 20.3827 83.2116 20.3322 82.8021 20.3772ZM68.4186 20.0726C69.8903 20.0724 71.3618 20.0726 72.8335 20.0726C73.5255 20.0736 74.228 20.2237 74.8333 20.5801C75.1083 20.739 75.3585 20.9409 75.5891 21.1624C75.8011 21.3716 75.9849 21.613 76.1225 21.8812C76.2827 22.1915 76.3776 22.5363 76.4085 22.8863C76.4485 23.3352 76.3995 23.7965 76.2385 24.217C76.0468 24.7271 75.6911 25.1563 75.2737 25.4857C74.9767 25.7201 74.6442 25.9062 74.2922 26.0352C74.0247 26.1305 73.7484 26.2075 73.466 26.2337C73.6645 26.2497 73.864 26.2379 74.063 26.2416C74.2826 26.2416 74.502 26.2416 74.7217 26.2416C75.4132 27.5097 76.1059 28.7772 76.7949 30.0468C76.0177 30.0475 75.2406 30.047 74.4636 30.0471C73.7885 28.7943 73.1153 27.5408 72.4408 26.2879C71.8038 26.2877 71.1669 26.2875 70.5301 26.2879C70.53 27.5408 70.53 28.7938 70.5301 30.0468C69.8264 30.0479 69.1228 30.0466 68.4192 30.0473C68.4179 26.7224 68.4188 23.3974 68.4187 20.0725L68.4186 20.0726ZM70.5303 20.5702C70.5298 22.31 70.53 24.0501 70.5301 25.7899C71.0361 25.7904 71.5422 25.7898 72.0481 25.7903C72.2311 25.7904 72.4154 25.7709 72.5912 25.7167C72.9887 25.5984 73.3265 25.3113 73.546 24.9525C73.7484 24.6277 73.8658 24.2533 73.9276 23.8742C73.9905 23.475 73.9975 23.067 73.9528 22.6655C73.9095 22.2917 73.8167 21.9205 73.6477 21.5857C73.5023 21.2975 73.2969 21.0369 73.0339 20.8557C72.7562 20.6609 72.4182 20.5638 72.0834 20.5699C71.5656 20.5703 71.0479 20.5701 70.5303 20.5701L70.5303 20.5702ZM89.9413 20.0681C90.6452 20.0678 91.349 20.0678 92.0529 20.0681C92.0529 22.0892 92.0529 24.1105 92.0529 26.1316C92.0438 26.5463 92.0766 26.9642 92.1815 27.3656C92.332 27.959 92.6566 28.5141 93.136 28.8832C93.6608 29.2925 94.3301 29.4622 94.9806 29.4527C95.6401 29.4582 96.3191 29.2627 96.8312 28.8196C97.0035 28.6715 97.1558 28.499 97.2833 28.308C97.2802 26.274 97.2826 24.2401 97.282 22.2061C97.2833 21.4947 97.2783 20.7835 97.2868 20.0723C97.9889 20.0727 98.6909 20.0722 99.3935 20.0725C99.3935 23.3972 99.3929 26.722 99.3935 30.0467C99.2825 30.0477 99.1721 30.0467 99.0616 30.0474C98.5513 29.5669 98.0477 29.0795 97.5362 28.6011C97.1721 29.1562 96.6321 29.5771 96.0272 29.8132C95.3039 30.0981 94.5139 30.1475 93.7487 30.0833C93.0522 30.0208 92.3598 29.8196 91.7597 29.4422C91.2167 29.1014 90.7434 28.6313 90.4236 28.0608C90.2216 27.6985 90.0844 27.2982 90.0116 26.8868C89.9461 26.5284 89.9364 26.1626 89.9412 25.7988C89.9412 23.8885 89.9412 21.9783 89.9412 20.068L89.9413 20.0681ZM101.495 20.0681C102.81 20.0678 104.124 20.0681 105.438 20.068C105.729 20.0691 106.02 20.0612 106.311 20.0873C106.949 20.1402 107.583 20.3383 108.118 20.7062C108.57 21.02 108.984 21.4205 109.229 21.9308C109.394 22.2654 109.478 22.6377 109.5 23.0114V23.338C109.478 23.7383 109.382 24.1367 109.196 24.49C108.911 25.0386 108.447 25.47 107.927 25.7746C107.318 26.1292 106.614 26.2818 105.919 26.2833C105.148 26.2829 104.378 26.2831 103.607 26.2833C103.607 27.5363 103.608 28.7894 103.607 30.0424C102.903 30.0427 102.199 30.0427 101.496 30.0424C101.495 26.7176 101.495 23.3929 101.495 20.0682L101.495 20.0681ZM103.607 20.5657C103.607 22.3056 103.607 24.0454 103.607 25.7853C104.051 25.7856 104.495 25.7853 104.939 25.7855C105.1 25.7825 105.262 25.7947 105.421 25.7698C105.768 25.7234 106.099 25.5573 106.348 25.3026C106.54 25.1121 106.687 24.876 106.796 24.6252C106.957 24.2467 107.033 23.834 107.055 23.4223C107.07 23.0713 107.056 22.7173 106.989 22.3721C106.921 22.0175 106.8 21.6694 106.604 21.3683C106.454 21.135 106.256 20.9328 106.021 20.7929C105.77 20.6414 105.479 20.5683 105.189 20.5655C104.662 20.5657 104.134 20.5652 103.607 20.5657V20.5657Z" fill="white"/>
</g>
<defs>
<filter id="filter0_b_284_14538" x="-4" y="-4" width="138" height="58" filterUnits="userSpaceOnUse" color-interpolation-filters="sRGB">
<feFlood flood-opacity="0" result="BackgroundImageFix"/>
<feGaussianBlur in="BackgroundImageFix" stdDeviation="2"/>
<feComposite in2="SourceAlpha" operator="in" result="effect1_backgroundBlur_284_14538"/>
<feBlend mode="normal" in="SourceGraphic" in2="effect1_backgroundBlur_284_14538" result="shape"/>
</filter>
</defs>
</svg>
