<svg width="130" height="50" viewBox="0 0 130 50" fill="none" xmlns="http://www.w3.org/2000/svg">
<g filter="url(#filter0_b_284_14455)">
<rect width="130" height="50" rx="7" fill="#5C5F8E" fill-opacity="0.2"/>
<path fill-rule="evenodd" clip-rule="evenodd" d="M50.4037 34.405L50.6012 34.7726C50.4473 34.9232 50.2594 35.0354 50.053 35.0997C49.818 35.1797 49.5711 35.2202 49.3226 35.2195C49.0493 35.2306 48.7766 35.1863 48.5212 35.0891C48.2659 34.992 48.0333 34.8441 47.8379 34.6546C47.6445 34.4564 47.494 34.2213 47.3956 33.9635C47.2972 33.7057 47.2531 33.4307 47.2658 33.1554C47.247 32.6111 47.4437 32.081 47.8141 31.6783C48.0028 31.4812 48.2322 31.3267 48.4866 31.2255C48.7411 31.1242 49.0146 31.0785 49.2885 31.0914C49.7336 31.0683 50.1719 31.2068 50.5212 31.481L50.2948 31.8486C50.003 31.6433 49.6513 31.5385 49.2936 31.5501C49.0914 31.5439 48.8902 31.5805 48.7034 31.6576C48.5167 31.7347 48.3487 31.8504 48.2108 31.997C47.9228 32.3138 47.7713 32.7295 47.7885 33.1554C47.7795 33.368 47.8136 33.5801 47.8887 33.7794C47.9639 33.9787 48.0786 34.161 48.2261 34.3156C48.3746 34.4647 48.5529 34.5814 48.7497 34.6581C48.9465 34.7348 49.1573 34.7697 49.3686 34.7608C49.7454 34.768 50.1124 34.6418 50.4037 34.405ZM54.1325 35.1621V31.6091H51.9327V35.1621H51.4389V31.1504H54.6245V35.1621H54.1325ZM56.3323 35.1621H55.8964V31.1504H56.3885V34.3544L58.8505 31.1504H59.2846V35.1621H58.7909V31.9582L56.3323 35.1621ZM60.0082 31.6091V31.1504H63.3369V31.6091H61.9135V35.1621H61.4231V31.6091H60.0082ZM64.0605 35.1621V31.1504H66.3403V31.6091H64.5525V32.9042H66.17V33.3629H64.5525V34.7119H66.405V35.1689L64.0605 35.1621ZM67.1524 34.8991C67.1505 34.8583 67.1572 34.8175 67.1722 34.7795C67.1871 34.7414 67.21 34.7069 67.2393 34.6782C67.306 34.6206 67.3927 34.5909 67.481 34.5955C67.54 34.5944 67.5983 34.6077 67.6509 34.6341C67.7034 34.6606 67.7486 34.6995 67.7824 34.7473C67.8646 34.8661 67.9052 35.0082 67.8982 35.152C67.905 35.3458 67.8449 35.5362 67.7279 35.6916C67.6103 35.8403 67.4482 35.9483 67.2648 36.0002L67.1371 35.7827C67.2283 35.7579 67.311 35.709 67.3764 35.6413C67.4417 35.5736 67.4873 35.4896 67.5083 35.3982C67.5425 35.3057 67.5425 35.2041 67.5083 35.1115C67.4934 35.1299 67.474 35.1442 67.4519 35.1531C67.4299 35.1619 67.4059 35.165 67.3823 35.1621C67.3525 35.1616 67.3232 35.1544 67.2966 35.1409C67.2701 35.1275 67.2469 35.1082 67.2291 35.0846C67.1843 35.0331 67.1606 34.967 67.1627 34.8991H67.1524ZM72.3863 31.1504V35.1621H71.8942V33.4084C71.5791 33.6221 71.2034 33.7308 70.8216 33.7187C70.501 33.7303 70.1882 33.6192 69.9481 33.4084C69.7217 33.201 69.6076 32.8789 69.6076 32.4388V31.1504H70.0997V32.3072C70.0767 32.569 70.1593 32.8291 70.3295 33.0307C70.4117 33.109 70.5093 33.1698 70.6162 33.2093C70.7231 33.2487 70.8371 33.266 70.951 33.26C71.2899 33.2567 71.6196 33.1508 71.8959 32.9565V31.1504H72.3863ZM73.1082 31.6091V31.1504H76.4385V31.6091H75.0237V35.1621H74.5333V31.6091H73.1082ZM76.6514 33.1554C76.6444 32.884 76.6926 32.6139 76.7932 32.3612C76.8939 32.1086 77.0448 31.8786 77.2371 31.685C77.4288 31.4896 77.6595 31.3359 77.9146 31.2337C78.1696 31.1315 78.4434 31.083 78.7183 31.0914C79.1287 31.1 79.5276 31.2268 79.8663 31.4563C80.205 31.6859 80.4689 32.0083 80.6255 32.384C80.7821 32.7597 80.8248 33.1725 80.7482 33.5719C80.6717 33.9713 80.4793 34.3399 80.1945 34.6326C80.0024 34.8259 79.7723 34.9778 79.5183 35.0791C79.2643 35.1803 78.992 35.2287 78.7183 35.2212C78.4432 35.2295 78.1692 35.1816 77.9135 35.0806C77.6579 34.9796 77.4259 34.8276 77.232 34.634C77.0381 34.4404 76.8866 34.2094 76.7867 33.9553C76.6868 33.7013 76.6407 33.4296 76.6514 33.1571V33.1554ZM77.1724 33.1554C77.1669 33.366 77.2035 33.5755 77.28 33.772C77.3566 33.9685 77.4716 34.1481 77.6185 34.3004C77.7631 34.4456 77.9354 34.5609 78.1254 34.6396C78.3153 34.7183 78.5192 34.7589 78.7252 34.7589C78.9311 34.7589 79.135 34.7183 79.325 34.6396C79.5149 34.5609 79.6872 34.4456 79.8319 34.3004C80.1222 33.9885 80.2775 33.5762 80.2643 33.1521C80.271 32.9406 80.235 32.73 80.1584 32.5325C80.0818 32.335 79.9662 32.1546 79.8182 32.002C79.6735 31.857 79.5012 31.7419 79.3112 31.6633C79.1212 31.5848 78.9174 31.5443 78.7115 31.5443C78.5057 31.5443 78.3018 31.5848 78.1119 31.6633C77.9219 31.7419 77.7496 31.857 77.6048 32.002C77.4582 32.1556 77.3439 32.3365 77.2685 32.5342C77.1931 32.7319 77.1581 32.9425 77.1656 33.1538L77.1724 33.1554ZM81.7405 35.1621V31.1504H84.0322V31.6091H82.2326V32.7609C82.4383 32.7378 82.6452 32.7265 82.8523 32.7271C83.2277 32.7042 83.5989 32.8162 83.8977 33.0425C84.0217 33.1491 84.1197 33.2822 84.1843 33.4317C84.2489 33.5813 84.2784 33.7434 84.2706 33.9058C84.2817 34.0848 84.2503 34.2639 84.1791 34.4287C84.1078 34.5936 83.9987 34.7396 83.8603 34.8552C83.5284 35.0953 83.123 35.2144 82.7127 35.1925C82.5629 35.1925 82.3722 35.1925 82.1628 35.1807C81.9533 35.1689 81.8052 35.1689 81.7405 35.1689V35.1621ZM82.8234 33.1841C82.6259 33.185 82.4287 33.1968 82.2326 33.2195V34.7052C82.4709 34.7186 82.6565 34.7271 82.7876 34.7271C83.0518 34.7469 83.3145 34.6741 83.53 34.5213C83.613 34.45 83.6786 34.3608 83.7217 34.2606C83.7648 34.1604 83.7842 34.0517 83.7785 33.9429C83.7827 33.8392 83.7632 33.7358 83.7213 33.6406C83.6794 33.5454 83.6163 33.4608 83.5368 33.3932C83.3313 33.244 83.0792 33.1717 82.8251 33.1892L82.8234 33.1841ZM88.5254 35.1621V31.1504H89.0175V35.1621H88.5254ZM86.3359 33.0694C86.1679 33.0717 86.0002 33.0836 85.8336 33.1049V34.6984L86.3206 34.7153C87.0016 34.7153 87.3421 34.432 87.3421 33.8603C87.3488 33.7491 87.3286 33.6378 87.2833 33.5358C87.238 33.4338 87.1689 33.3439 87.0816 33.2735C86.8602 33.1241 86.5947 33.0523 86.3274 33.0694H86.3359ZM85.8336 31.1504V32.6411C86.0771 32.6209 86.2559 32.6108 86.3716 32.6108C86.8688 32.6108 87.2434 32.7198 87.4954 32.9379C87.6224 33.0529 87.7221 33.1943 87.7872 33.3521C87.8522 33.5099 87.8811 33.68 87.8716 33.8502C87.882 34.0345 87.8489 34.2186 87.775 34.3881C87.7011 34.5575 87.5885 34.7076 87.446 34.8266C87.1026 35.0781 86.6804 35.2012 86.2542 35.1739H85.7536C85.5442 35.1739 85.4045 35.1739 85.333 35.1739V31.1504H85.8336ZM96.2196 31.1504L94.58 33.0644L96.2826 35.1621H95.7105L94.0436 33.0694L95.6458 31.1504H96.2196ZM93.446 35.1621V31.1504H93.9381V35.1621H93.446ZM92.8092 33.0694L91.1645 31.1504H91.7383L93.3422 33.0694L91.6753 35.1621H91.1015L92.8041 33.0694H92.8092ZM97.4983 35.1621H97.0624V31.1504H97.5545V34.3544L100.016 31.1504H100.451V35.1621H99.9569V31.9582L97.4983 35.1621ZM101.174 31.6091V31.1504H104.503V31.6091H103.085V35.1621H102.593V31.6091H101.174ZM106.251 33.0694C106.073 33.0712 105.895 33.083 105.719 33.1049V34.6984L106.229 34.7153C106.509 34.7336 106.786 34.6575 107.016 34.4994C107.109 34.4217 107.183 34.3234 107.23 34.2123C107.278 34.1013 107.298 33.9807 107.29 33.8603C107.296 33.7479 107.275 33.6357 107.227 33.5334C107.18 33.4311 107.108 33.3419 107.018 33.2735C106.79 33.1249 106.52 33.0534 106.248 33.0694H106.251ZM105.719 31.1504V32.6411C105.961 32.6209 106.15 32.6108 106.285 32.6108C106.796 32.6108 107.179 32.7198 107.433 32.9379C107.562 33.052 107.662 33.1932 107.728 33.3511C107.795 33.509 107.824 33.6796 107.814 33.8502C107.824 34.0358 107.789 34.221 107.712 34.3907C107.635 34.5604 107.519 34.7097 107.373 34.8266C107.086 35.0593 106.682 35.1739 106.166 35.1739H105.656H105.221V31.1504H105.719ZM108.81 33.9311V31.1504H109.303V33.9311H108.81ZM108.734 34.8519C108.734 34.8123 108.743 34.7732 108.759 34.7369C108.775 34.7007 108.798 34.6681 108.828 34.6411C108.86 34.6104 108.898 34.5864 108.94 34.5708C108.982 34.5551 109.026 34.5481 109.071 34.55C109.112 34.5494 109.152 34.5575 109.19 34.5738C109.227 34.5901 109.26 34.6142 109.287 34.6444C109.315 34.6713 109.338 34.7035 109.353 34.7392C109.369 34.7748 109.377 34.8131 109.377 34.8519C109.379 34.937 109.348 35.0195 109.291 35.0829C109.264 35.1145 109.23 35.1397 109.192 35.1566C109.154 35.1735 109.113 35.1818 109.071 35.1807C109.026 35.1827 108.98 35.175 108.938 35.1581C108.896 35.1412 108.859 35.1156 108.828 35.0829C108.767 35.0208 108.734 34.9378 108.736 34.8519H108.734Z" fill="#2DBCB6"/>
<path fill-rule="evenodd" clip-rule="evenodd" d="M82.6854 27.7453C81.2296 27.7453 80.317 26.973 80.317 23.8567C80.317 20.7404 81.233 19.9681 82.6854 19.9681C84.1377 19.9681 85.069 20.7455 85.069 23.8567C85.069 26.9679 84.1479 27.7453 82.6854 27.7453ZM82.6854 18.2296C80.3017 18.2296 77.6064 19.383 77.6064 23.877C77.6064 28.3709 80.443 29.4856 82.6854 29.4856C84.9277 29.4856 87.766 28.3726 87.766 23.877C87.766 19.3813 85.069 18.2296 82.6854 18.2296Z" fill="#2DBCB6"/>
<path fill-rule="evenodd" clip-rule="evenodd" d="M73.275 23.4641L77.0463 18.6126H74.002L70.5354 23.1555H70.498V19.6143C70.4895 19.1421 70.0059 18.3698 68.8362 18.3698C68.5124 18.3704 68.189 18.3957 67.8691 18.4457V29.3459H70.498V23.7525H70.5354L74.5673 29.3459H77.5639L73.2767 23.4641H73.275Z" fill="#2DBCB6"/>
<path fill-rule="evenodd" clip-rule="evenodd" d="M61.2322 22.2956C60.0012 21.8572 59.9263 20.8876 60.5086 20.3581C61.5574 19.402 64.3633 20.3379 65.0614 20.6161L65.7424 19.3413C64.5695 18.6125 63.2111 18.2299 61.8264 18.2384C60.4796 18.2384 59.1346 18.4273 58.1913 19.5571C57.4745 20.4154 57.3945 21.9179 58.2407 23.0005C59.1158 24.1168 62.1141 24.9398 62.9825 25.4001C63.655 25.7559 63.7861 26.2652 63.6942 26.7306C63.5239 27.5552 61.8213 28.6901 58.2662 26.6783C58.2662 26.6783 57.3145 27.9161 57.3145 27.9194C57.9785 28.4017 59.2759 29.4776 61.9115 29.4776C64.1777 29.4776 66.3383 28.2516 66.3383 26.1657C66.34 23.7307 63.4201 23.0697 61.2322 22.2956Z" fill="#2DBCB6"/>
<path fill-rule="evenodd" clip-rule="evenodd" d="M94.9208 18.3648C93.7973 18.341 92.6939 18.6626 91.7625 19.2855C91.4747 18.8841 90.9469 18.5334 90.0054 18.5334C89.8088 18.5346 89.6125 18.5493 89.418 18.5772V29.3459H92.0502V20.7863C92.6257 20.4996 94.6893 19.8875 95.5729 20.7863C96.0718 21.2922 96.1706 22.0088 96.1706 22.6783V29.3459H98.7994V22.1893C98.796 19.6447 96.8176 18.3648 94.9208 18.3648Z" fill="#2DBCB6"/>
<path fill-rule="evenodd" clip-rule="evenodd" d="M106.873 26.896C106.145 27.3643 105.296 27.6133 104.428 27.6126C103.827 27.6126 102.832 27.3276 102.832 25.9128C102.832 23.7207 105.603 23.6397 106.873 23.6397V26.896ZM105 18.2469C103.465 18.2582 101.965 18.7066 100.68 19.5387L101.429 20.7595C102.841 20.1154 104.297 19.8101 105.485 20.085C107.164 20.4661 106.871 22.4037 106.871 22.4037C105.47 22.3581 100.187 21.9753 100.187 26.1135C100.187 27.8723 101.208 29.1488 103.35 29.4254C104.655 29.5965 105.976 29.2578 107.033 28.4811C107.276 28.9634 107.813 29.4473 108.919 29.4473C109.114 29.446 109.308 29.4314 109.5 29.4035V21.6465C109.502 18.9029 106.679 18.2469 105.002 18.2469H105Z" fill="#2DBCB6"/>
<path fill-rule="evenodd" clip-rule="evenodd" d="M53.361 26.896C52.6338 27.364 51.785 27.6129 50.9177 27.6126C50.3167 27.6126 49.3207 27.3276 49.3207 25.9128C49.3207 23.7207 52.0908 23.6397 53.361 23.6397V26.896ZM51.4881 18.2469C49.9535 18.2579 48.4544 18.7063 47.1703 19.5387L47.9177 20.7595C49.3292 20.1154 50.7849 19.8101 51.9751 20.085C53.6522 20.4661 53.3593 22.4037 53.3593 22.4037C51.958 22.3581 46.6748 21.9753 46.6748 26.1135C46.6748 27.8723 47.6964 29.1488 49.8383 29.4254C51.1431 29.5967 52.464 29.258 53.521 28.4811C53.7645 28.9634 54.3008 29.4473 55.4076 29.4473C55.6019 29.446 55.7959 29.4314 55.9881 29.4035V21.6465C55.9898 18.9029 53.1686 18.2469 51.4898 18.2469H51.4881Z" fill="#2DBCB6"/>
<path fill-rule="evenodd" clip-rule="evenodd" d="M23.9139 19.1491C24.0646 19.1491 24.2137 19.1197 24.3528 19.0626C24.492 19.0054 24.6184 18.9217 24.7248 18.8161C24.8312 18.7106 24.9156 18.5853 24.9731 18.4474C25.0306 18.3095 25.06 18.1617 25.0598 18.0126C25.0591 17.7887 24.9915 17.57 24.8654 17.3841C24.7394 17.1982 24.5606 17.0535 24.3515 16.9682C24.1425 16.8829 23.9126 16.8608 23.691 16.9048C23.4693 16.9488 23.2657 17.0568 23.106 17.2153C22.9463 17.3737 22.8375 17.5755 22.7934 17.7951C22.7494 18.0147 22.772 18.2423 22.8584 18.4492C22.9449 18.6561 23.0912 18.833 23.2791 18.9576C23.467 19.0821 23.6879 19.1488 23.9139 19.1491Z" fill="#2DBCB6"/>
<path fill-rule="evenodd" clip-rule="evenodd" d="M21.4659 22.9736C21.3411 22.9683 21.2164 22.988 21.0995 23.0317C20.9825 23.0754 20.8757 23.142 20.7855 23.2276C20.6952 23.3133 20.6234 23.4161 20.5744 23.5299C20.5253 23.6438 20.5 23.7663 20.5 23.8901C20.5 24.0138 20.5253 24.1363 20.5744 24.2502C20.6234 24.364 20.6952 24.4669 20.7855 24.5525C20.8757 24.6381 20.9825 24.7048 21.0995 24.7484C21.2164 24.7921 21.3411 24.8119 21.4659 24.8066C21.5876 24.807 21.7082 24.7836 21.8207 24.7376C21.9331 24.6916 22.0353 24.6241 22.1213 24.5388C22.2072 24.4535 22.2753 24.3522 22.3215 24.2407C22.3677 24.1292 22.3911 24.0097 22.3905 23.8892C22.3896 23.6466 22.2919 23.4143 22.1187 23.2427C21.9455 23.0712 21.7109 22.9744 21.4659 22.9736Z" fill="#2DBCB6"/>
<path fill-rule="evenodd" clip-rule="evenodd" d="M29.8593 30.6179C29.4384 30.6179 29.0348 30.7835 28.7372 31.0782C28.4396 31.373 28.2725 31.7727 28.2725 32.1895C28.2725 32.6064 28.4396 33.0061 28.7372 33.3009C29.0348 33.5956 29.4384 33.7612 29.8593 33.7612C30.2802 33.7612 30.6838 33.5956 30.9814 33.3009C31.279 33.0061 31.4461 32.6064 31.4461 32.1895C31.4461 31.7727 31.279 31.373 30.9814 31.0782C30.6838 30.7835 30.2802 30.6179 29.8593 30.6179Z" fill="#2DBCB6"/>
<path fill-rule="evenodd" clip-rule="evenodd" d="M35.7899 27.6399C35.367 27.639 34.9533 27.7626 34.6014 27.9949C34.2495 28.2272 33.9751 28.5578 33.8132 28.9447C33.6512 29.3316 33.6089 29.7575 33.6917 30.1683C33.7744 30.579 33.9785 30.9562 34.2779 31.2519L34.2916 31.2638C34.6933 31.6552 35.2351 31.8735 35.7986 31.871C36.3622 31.8684 36.9019 31.6453 37.3001 31.2503L37.3427 31.2081C37.721 30.8056 37.9278 30.274 37.9198 29.7241C37.9119 29.1743 37.6899 28.6487 37.3001 28.2571C37.1019 28.0607 36.8664 27.905 36.6072 27.7991C36.348 27.6932 36.0703 27.6391 35.7899 27.6399Z" fill="#2DBCB6"/>
<path fill-rule="evenodd" clip-rule="evenodd" d="M34.2682 19.4926C34.567 19.7886 34.9478 19.9901 35.3622 20.0717C35.7767 20.1534 36.2063 20.1114 36.5968 19.9512C36.9872 19.791 37.3209 19.5198 37.5557 19.1718C37.7904 18.8238 37.9158 18.4146 37.9158 17.9961C37.9158 17.5775 37.7904 17.1684 37.5557 16.8203C37.3209 16.4723 36.9872 16.2011 36.5968 16.0409C36.2063 15.8807 35.7767 15.8388 35.3622 15.9204C34.9478 16.002 34.567 16.2035 34.2682 16.4995C34.0679 16.695 33.9088 16.928 33.8002 17.1849C33.6917 17.4418 33.6357 17.7175 33.6357 17.9961C33.6357 18.2746 33.6917 18.5503 33.8002 18.8072C33.9088 19.0642 34.0679 19.2972 34.2682 19.4926Z" fill="#2DBCB6"/>
<path fill-rule="evenodd" clip-rule="evenodd" d="M23.9281 28.626C23.6632 28.6253 23.4062 28.7156 23.2009 28.8814C22.9956 29.0472 22.8547 29.2784 22.8021 29.5356C22.7495 29.7928 22.7885 30.06 22.9125 30.2919C23.0365 30.5238 23.2378 30.706 23.4821 30.8075C23.7264 30.9089 23.9987 30.9234 24.2526 30.8484C24.5065 30.7734 24.7263 30.6137 24.8746 30.3962C25.0229 30.1788 25.0906 29.9172 25.0661 29.656C25.0416 29.3947 24.9265 29.1499 24.7403 28.9632C24.6341 28.8562 24.5074 28.7713 24.3677 28.7134C24.2279 28.6555 24.0779 28.6258 23.9264 28.626H23.9281Z" fill="#2DBCB6"/>
<path fill-rule="evenodd" clip-rule="evenodd" d="M29.8388 17.1424C30.0515 17.1494 30.2634 17.114 30.4619 17.0383C30.6605 16.9625 30.8416 16.848 30.9946 16.7016C31.1475 16.5551 31.2692 16.3797 31.3523 16.1857C31.4355 15.9917 31.4784 15.7832 31.4785 15.5725C31.4786 15.3617 31.4359 15.1532 31.353 14.9591C31.2701 14.765 31.1486 14.5895 30.9958 14.4429C30.843 14.2962 30.662 14.1815 30.4635 14.1056C30.265 14.0297 30.0532 13.994 29.8405 14.0008C29.4289 14.0142 29.0386 14.1855 28.7522 14.4786C28.4658 14.7718 28.3057 15.1637 28.3057 15.5716C28.3057 15.9795 28.4658 16.3714 28.7522 16.6646C29.0386 16.9577 29.4289 17.129 29.8405 17.1424H29.8388Z" fill="#2DBCB6"/>
<path d="M38.2556 26.6529C39.8072 26.6529 41.0649 25.4072 41.0649 23.8705C41.0649 22.3339 39.8072 21.0881 38.2556 21.0881C36.7041 21.0881 35.4463 22.3339 35.4463 23.8705C35.4463 25.4072 36.7041 26.6529 38.2556 26.6529Z" fill="#2DBCB6"/>
</g>
<defs>
<filter id="filter0_b_284_14455" x="-4" y="-4" width="138" height="58" filterUnits="userSpaceOnUse" color-interpolation-filters="sRGB">
<feFlood flood-opacity="0" result="BackgroundImageFix"/>
<feGaussianBlur in="BackgroundImageFix" stdDeviation="2"/>
<feComposite in2="SourceAlpha" operator="in" result="effect1_backgroundBlur_284_14455"/>
<feBlend mode="normal" in="SourceGraphic" in2="effect1_backgroundBlur_284_14455" result="shape"/>
</filter>
</defs>
</svg>
