<svg width="130" height="50" viewBox="0 0 130 50" fill="none" xmlns="http://www.w3.org/2000/svg">
<g filter="url(#filter0_b_284_14384)">
<rect width="130" height="50" rx="7" fill="#5C5F8E" fill-opacity="0.2"/>
<path d="M37.5685 24.4C37.5685 19.7608 33.7476 16 29.0342 16C24.3209 16 20.5 19.7608 20.5 24.4C20.5 29.0392 24.3209 32.8 29.0342 32.8C33.7476 32.8 37.5685 29.0392 37.5685 24.4Z" fill="#FC3F1D"/>
<path d="M30.1272 20.7591H29.339C27.8937 20.7591 27.1329 21.4797 27.1329 22.5423C27.1329 23.7435 27.6584 24.3075 28.7379 25.0281L29.6298 25.6191L27.0671 29.3889H25.1523L27.4523 26.0169C26.1283 25.0833 25.387 24.1779 25.387 22.6443C25.387 20.7225 26.7482 19.4103 29.3299 19.4103H31.8926V29.3799H30.1272V20.7591Z" fill="white"/>
<path d="M61.5531 31.1555C61.7598 31.2287 62.117 31.3391 62.6254 31.3391C64.3932 31.3391 65.1083 30.1457 66.1056 27.7787L70.0752 18.4001H67.9489L65.2588 25.1543L62.4748 18.4001H60.123L64.1116 27.7967C63.716 28.7327 63.321 29.3747 62.4181 29.3747C62.0042 29.3747 61.7415 29.3201 61.5525 29.2469V31.1549L61.5531 31.1555ZM73.4822 31.3391C74.5167 31.3391 75.25 31.1555 75.7962 30.7697V28.9901C75.2317 29.3759 74.5545 29.6141 73.6139 29.6141C72.0143 29.6141 71.3559 28.4033 71.3559 26.4941C71.3559 24.4937 72.1649 23.4659 73.6328 23.4659C74.4984 23.4659 75.3445 23.7599 75.7962 24.0353V22.1801C75.3256 21.9233 74.4978 21.7397 73.3883 21.7397C70.5287 21.7397 69.0419 23.7401 69.0419 26.5481C69.0419 29.6315 70.4909 31.3385 73.4822 31.3385V31.3391ZM76.4558 29.2649V31.1549C76.4558 31.1549 76.813 31.3391 77.3397 31.3391C79.2587 31.3391 79.7475 30.0173 79.8609 26.9531L79.9926 23.6489H82.2688V31.1549H84.5072V21.9245H78.0925L77.9041 26.8613C77.8292 28.8251 77.6969 29.4311 76.9636 29.4311C76.6435 29.4311 76.4558 29.2649 76.4558 29.2649ZM87.5978 34.0001C89.6863 34.0001 90.4574 32.5505 91.0975 30.6599L94.0509 21.9239H91.8875L89.7991 28.8611L87.7112 21.9239H85.3594L88.614 31.5593C88.3696 31.9997 88.0117 32.2751 87.3912 32.2751C86.9773 32.2751 86.6201 32.1467 86.375 31.9079V33.6881C86.375 33.6881 86.7139 34.0001 87.5978 34.0001ZM94.9001 21.9239V31.1555H97.1391V23.6495H100.6V21.9233H94.9001V21.9239ZM101.918 21.9239V31.1555H103.856L107.317 25.4477V31.1555H109.5V21.9239H107.562L104.101 27.6317V21.9239H101.918Z" fill="white"/>
<path d="M47.3223 32.8C52.0357 32.8 55.8566 29.0392 55.8566 24.4C55.8566 19.7608 52.0357 16 47.3223 16C42.609 16 38.7881 19.7608 38.7881 24.4C38.7881 29.0392 42.609 32.8 47.3223 32.8Z" fill="#242729"/>
<path d="M44.7406 18.9388C43.8141 19.5436 43.1658 20.4822 42.9351 21.5527C42.7044 22.6231 42.9099 23.7399 43.5072 24.6628C44.1046 25.5857 45.0461 26.241 46.1293 26.4876C47.2124 26.7342 48.3507 26.5525 49.2991 25.9816L55.5254 22.0774C55.0978 20.619 54.2772 19.3016 53.1507 18.2648C52.0242 17.228 50.6337 16.5106 49.1266 16.1884L44.7406 18.9388Z" fill="#FF9D7C"/>
<path d="M44.7406 18.9388C43.8141 19.5436 43.1658 20.4822 42.9351 21.5527C42.7044 22.6231 42.9099 23.7399 43.5072 24.6628C44.1046 25.5857 45.0461 26.241 46.1293 26.4876C47.2124 26.7342 48.3507 26.5525 49.2991 25.9816L55.5254 22.0774C55.0978 20.619 54.2772 19.3016 53.1507 18.2648C52.0242 17.228 50.6337 16.5106 49.1266 16.1884L44.7406 18.9388Z" fill="#FF6432"/>
<path d="M44.7406 18.9388C43.8141 19.5436 43.1658 20.4822 42.9351 21.5527C42.7044 22.6231 42.9099 23.7399 43.5072 24.6628C44.1046 25.5857 45.0461 26.241 46.1293 26.4876C47.2124 26.7342 48.3507 26.5525 49.2991 25.9816L55.5254 22.0774C55.0978 20.619 54.2772 19.3016 53.1507 18.2648C52.0242 17.228 50.6337 16.5106 49.1266 16.1884L44.7406 18.9388Z" fill="url(#paint0_radial_284_14384)"/>
<path d="M44.7406 18.9388C43.8141 19.5436 43.1658 20.4822 42.9351 21.5527C42.7044 22.6231 42.9099 23.7399 43.5072 24.6628C44.1046 25.5857 45.0461 26.241 46.1293 26.4876C47.2124 26.7342 48.3507 26.5525 49.2991 25.9816L55.5254 22.0774C55.0978 20.619 54.2772 19.3016 53.1507 18.2648C52.0242 17.228 50.6337 16.5106 49.1266 16.1884L44.7406 18.9388Z" fill="url(#paint1_linear_284_14384)"/>
<path d="M39.1172 26.7182L45.346 22.8122C45.8158 22.5176 46.3401 22.317 46.8887 22.2218C47.4373 22.1266 47.9997 22.1387 48.5436 22.2574C49.0875 22.3761 49.6023 22.5991 50.0586 22.9136C50.515 23.2281 50.9039 23.6281 51.2032 24.0905C51.5025 24.553 51.7064 25.069 51.8031 25.609C51.8998 26.149 51.8875 26.7025 51.7669 27.2378C51.6463 27.7732 51.4198 28.2799 51.1002 28.7291C50.7807 29.1782 50.3743 29.561 49.9045 29.8556L45.5112 32.6102C44.0046 32.287 42.6149 31.5688 41.4892 30.5315C40.3636 29.4943 39.544 28.1766 39.1172 26.7182Z" fill="#FFE66E"/>
<path d="M39.1172 26.7182L45.346 22.8122C45.8158 22.5176 46.3401 22.317 46.8887 22.2218C47.4373 22.1266 47.9997 22.1387 48.5436 22.2574C49.0875 22.3761 49.6023 22.5991 50.0586 22.9136C50.515 23.2281 50.9039 23.6281 51.2032 24.0905C51.5025 24.553 51.7064 25.069 51.8031 25.609C51.8998 26.149 51.8875 26.7025 51.7669 27.2378C51.6463 27.7732 51.4198 28.2799 51.1002 28.7291C50.7807 29.1782 50.3743 29.561 49.9045 29.8556L45.5112 32.6102C44.0046 32.287 42.6149 31.5688 41.4892 30.5315C40.3636 29.4943 39.544 28.1766 39.1172 26.7182Z" fill="url(#paint2_linear_284_14384)"/>
</g>
<defs>
<filter id="filter0_b_284_14384" x="-4" y="-4" width="138" height="58" filterUnits="userSpaceOnUse" color-interpolation-filters="sRGB">
<feFlood flood-opacity="0" result="BackgroundImageFix"/>
<feGaussianBlur in="BackgroundImageFix" stdDeviation="2"/>
<feComposite in2="SourceAlpha" operator="in" result="effect1_backgroundBlur_284_14384"/>
<feBlend mode="normal" in="SourceGraphic" in2="effect1_backgroundBlur_284_14384" result="shape"/>
</filter>
<radialGradient id="paint0_radial_284_14384" cx="0" cy="0" r="1" gradientUnits="userSpaceOnUse" gradientTransform="translate(45.3599 27.7036) rotate(-34.4579) scale(10.1669 7.44028)">
<stop stop-color="#CC0700" stop-opacity="0.97"/>
<stop offset="0.067" stop-color="#CC0700" stop-opacity="0.962"/>
<stop offset="0.133" stop-color="#CC0700" stop-opacity="0.936"/>
<stop offset="0.2" stop-color="#CC0700" stop-opacity="0.891"/>
<stop offset="0.267" stop-color="#CC0700" stop-opacity="0.827"/>
<stop offset="0.333" stop-color="#CC0700" stop-opacity="0.745"/>
<stop offset="0.4" stop-color="#CC0700" stop-opacity="0.648"/>
<stop offset="0.467" stop-color="#CC0700" stop-opacity="0.541"/>
<stop offset="0.533" stop-color="#CC0700" stop-opacity="0.429"/>
<stop offset="0.6" stop-color="#CC0700" stop-opacity="0.322"/>
<stop offset="0.667" stop-color="#CC0700" stop-opacity="0.225"/>
<stop offset="0.733" stop-color="#CC0700" stop-opacity="0.143"/>
<stop offset="0.8" stop-color="#CC0700" stop-opacity="0.079"/>
<stop offset="0.867" stop-color="#CC0700" stop-opacity="0.034"/>
<stop offset="0.933" stop-color="#CC0700" stop-opacity="0.01"/>
<stop offset="1" stop-color="#CC0700" stop-opacity="0"/>
</radialGradient>
<linearGradient id="paint1_linear_284_14384" x1="45.908" y1="25.5412" x2="51.6687" y2="11.4144" gradientUnits="userSpaceOnUse">
<stop stop-color="#FF8140" stop-opacity="0"/>
<stop offset="0.067" stop-color="#FF8140" stop-opacity="0.01"/>
<stop offset="0.133" stop-color="#FF8140" stop-opacity="0.036"/>
<stop offset="0.2" stop-color="#FF8140" stop-opacity="0.082"/>
<stop offset="0.267" stop-color="#FF8140" stop-opacity="0.147"/>
<stop offset="0.333" stop-color="#FF8140" stop-opacity="0.232"/>
<stop offset="0.4" stop-color="#FF8140" stop-opacity="0.332"/>
<stop offset="0.467" stop-color="#FF8140" stop-opacity="0.443"/>
<stop offset="0.533" stop-color="#FF8140" stop-opacity="0.557"/>
<stop offset="0.6" stop-color="#FF8140" stop-opacity="0.668"/>
<stop offset="0.667" stop-color="#FF8140" stop-opacity="0.768"/>
<stop offset="0.733" stop-color="#FF8140" stop-opacity="0.853"/>
<stop offset="0.8" stop-color="#FF8140" stop-opacity="0.918"/>
<stop offset="0.867" stop-color="#FF8140" stop-opacity="0.964"/>
<stop offset="0.933" stop-color="#FF8140" stop-opacity="0.991"/>
<stop offset="1" stop-color="#FF8140"/>
</linearGradient>
<linearGradient id="paint2_linear_284_14384" x1="46.1628" y1="25.5188" x2="40.6566" y2="33.5065" gradientUnits="userSpaceOnUse">
<stop stop-color="#FFD750" stop-opacity="0"/>
<stop offset="1" stop-color="#FFD750"/>
</linearGradient>
</defs>
</svg>
