<svg width="130" height="50" viewBox="0 0 130 50" fill="none" xmlns="http://www.w3.org/2000/svg">
<g filter="url(#filter0_b_284_14472)">
<rect width="130" height="50" rx="7" fill="#5C5F8E" fill-opacity="0.2"/>
<path fill-rule="evenodd" clip-rule="evenodd" d="M36.5536 21.0769C36.6613 21.6224 36.7873 22.0419 36.9349 22.3369C37.0805 22.6276 37.3289 22.7733 37.6783 22.7733L36.7517 25.0829C36.3868 25.9861 36 27.3581 35.5812 29.1892C35.1693 31.0281 35.0384 32.3349 35.1899 33.1179C35.3394 33.8907 35.6907 34.396 36.2384 34.6384C36.7836 34.8748 37.3068 34.9951 37.8129 34.9951C38.5844 34.9951 39.473 34.9071 40.4778 34.7216C41.4798 34.5408 42.235 34.3514 42.7432 34.1551C42.9817 34.0647 43.1303 33.9197 43.2022 33.7287C43.268 33.5399 43.244 33.1461 43.1287 32.5503C43.0668 32.2349 42.9294 32.0771 42.705 32.0771C42.3961 32.0771 42.0412 32.1469 41.6449 32.2886C41.2471 32.4265 40.8441 32.5392 40.4368 32.6215C40.0277 32.7108 39.3836 32.7516 38.502 32.7516C38.2781 32.7516 38.1297 32.725 38.0547 32.6713C37.9819 32.6215 37.931 32.5276 37.9043 32.3928C37.8339 32.031 37.9043 31.4005 38.1131 30.4964C38.3179 29.5898 38.5294 28.8438 38.7394 28.2511L40.5328 28.2053C41.2937 28.1864 41.8008 28.1655 42.0575 28.1339C42.3146 28.1041 42.4783 28.0403 42.5473 27.9425C42.6159 27.8406 42.6408 27.6596 42.6135 27.3949C42.5933 27.1496 42.5905 26.9681 42.5995 26.8476C42.6023 26.8173 42.6089 26.7742 42.6192 26.7245C42.6278 26.6658 42.632 26.618 42.6235 26.5751C42.5561 26.2298 42.1048 26.0555 41.2725 26.0555C40.6289 26.0555 39.917 26.1002 39.1341 26.1953C39.3539 25.4562 39.6639 24.5721 40.066 23.5445C40.2621 23.0268 40.4229 22.6809 40.5438 22.5018C40.6641 22.32 40.8341 22.2107 41.054 22.1628C41.2741 22.1166 41.6973 22.0948 42.3309 22.0948C42.5038 22.0948 43.0618 22.1324 44.0119 22.2107C44.0468 22.2107 44.1124 22.2162 44.2092 22.2233C44.3029 22.2307 44.3758 22.2346 44.4192 22.2346C44.6966 22.2346 44.8161 22.144 44.7797 21.9602C44.7554 21.8377 44.6367 21.5963 44.4235 21.2393C44.0435 20.5989 43.7239 20.1949 43.4578 20.0198C43.1923 19.8455 42.8094 19.7587 42.3102 19.7587C41.2011 19.7587 39.9398 19.8455 38.5258 20.0198C37.108 20.195 36.452 20.5449 36.5536 21.0769Z" fill="#ED1C24"/>
<path fill-rule="evenodd" clip-rule="evenodd" d="M89.3423 33.6058C89.578 33.2382 89.7749 32.951 89.9312 32.7462C90.0945 32.5354 90.4051 32.1372 90.854 31.5472C91.3066 30.9598 91.7528 30.3795 92.193 29.8136C92.6298 29.2483 93.0499 28.7224 93.4448 28.2304C93.8465 27.7415 94.2905 27.2101 94.7808 26.6381L94.1867 29.268C93.9719 30.2542 93.8329 30.9093 93.7718 31.2324C93.7139 31.5544 93.673 31.8829 93.6508 32.2133C93.6292 32.5481 93.6417 32.8441 93.6917 33.1039C93.7558 33.4387 93.9418 33.7494 94.2386 34.0313C94.5387 34.319 94.8631 34.5445 95.2191 34.7156C95.5762 34.8864 95.8472 34.9714 96.0377 34.9714C96.2932 34.9714 96.4578 34.7538 96.5236 34.3149C96.5882 33.8771 96.6647 32.9686 96.7445 31.589C96.8319 30.2142 96.969 28.8693 97.1641 27.5603C97.3568 26.2485 97.6772 24.8877 98.1302 23.4783C99.0799 22.6494 99.5152 22.0356 99.4386 21.6333C99.3885 21.3765 99.2199 21.0653 98.9343 20.6976C98.6443 20.3306 98.3652 20.1474 98.095 20.1474C97.8368 20.1474 97.3155 20.5326 96.5235 21.3064C95.7315 22.0816 94.8602 23.004 93.9045 24.0794C92.9538 25.1567 92.0814 26.1681 91.2888 27.119C90.4936 28.0656 90.0137 28.6635 89.8399 28.9022C90.1118 27.6061 90.3563 26.5405 90.5727 25.7091C90.7942 24.88 91.0227 24.0784 91.257 23.2971C91.4943 22.518 91.6389 22.009 91.7014 21.7705C91.7589 21.5299 91.7734 21.3351 91.7452 21.187C91.7218 21.0652 91.5804 20.8842 91.3285 20.6454C91.0777 20.4057 90.8045 20.1892 90.5125 19.9947C90.2228 19.8008 90.0201 19.7015 89.903 19.7015C89.6976 19.7015 89.511 19.903 89.3417 20.3019C89.1721 20.7019 88.9928 21.2914 88.8136 22.0706C88.6307 22.8466 88.5333 23.2536 88.5243 23.2867C87.5432 27.0753 86.9353 29.6262 86.6973 30.9368C86.4607 32.2459 86.364 33.0234 86.4109 33.2771C86.4502 33.4616 86.6973 33.725 87.1641 34.054C87.625 34.3826 88.0047 34.5474 88.3028 34.5474C88.4966 34.5474 88.6577 34.4836 88.79 34.3535C88.9186 34.2234 89.1026 33.9751 89.3423 33.6058Z" fill="#ED1C24"/>
<path fill-rule="evenodd" clip-rule="evenodd" d="M109.072 21.4014C108.816 21.1716 108.547 20.9605 108.259 20.7694C107.97 20.5779 107.791 20.4823 107.716 20.4823C107.487 20.4823 107.215 20.8435 106.908 21.5561C106.601 22.273 106.318 23.0472 106.066 23.8812C105.811 24.7155 105.633 25.3241 105.539 25.6994L104.83 25.9126C104.6 25.9918 104.265 26.0668 103.826 26.1503C103.392 26.2346 103.075 26.2764 102.884 26.2764C102.61 26.2764 102.441 26.1024 102.376 25.7656C102.334 25.5481 102.394 25.1413 102.548 24.5455C102.707 23.9468 102.874 23.4219 103.047 22.9654C103.186 22.6395 103.303 22.3543 103.411 22.1257C103.51 21.8913 103.585 21.7122 103.624 21.582C103.667 21.4521 103.677 21.3304 103.656 21.2272C103.637 21.1255 103.509 20.9474 103.269 20.6948C103.033 20.4446 102.781 20.2132 102.512 20.0086C102.247 19.8049 102.056 19.7015 101.943 19.7015C101.752 19.7015 101.459 20.1474 101.063 21.0342C100.664 21.9209 100.323 22.8782 100.041 23.913C99.7546 24.9434 99.6622 25.6918 99.7492 26.1462C99.8436 26.6351 100.125 27.1523 100.589 27.709C101.057 28.2652 101.511 28.5428 101.951 28.5428C102.187 28.5428 102.681 28.4412 103.437 28.2412C104.19 28.0436 104.765 27.8748 105.166 27.7375C105.096 27.9711 104.963 28.5306 104.769 29.4067C104.573 30.2833 104.408 31.107 104.277 31.8725C104.142 32.6396 104.097 33.1418 104.142 33.3748C104.209 33.7136 104.516 34.0094 105.06 34.2658C105.335 34.3963 105.602 34.5463 105.853 34.7143C106.109 34.8789 106.27 34.9639 106.342 34.9639C106.555 34.9639 106.708 34.8162 106.789 34.5254C106.869 34.2271 106.929 33.753 106.969 33.1032C107.007 32.452 107.028 32.1004 107.035 32.0375C107.215 30.5729 107.381 29.4174 107.528 28.5666C107.675 27.7177 107.839 26.9773 108.023 26.3361C108.206 25.6994 108.488 24.8283 108.864 23.7301C108.994 23.3409 109.14 22.9696 109.289 22.6195C109.442 22.2729 109.511 22.0623 109.499 21.9902C109.466 21.8327 109.324 21.6348 109.072 21.4014Z" fill="#ED1C24"/>
<path fill-rule="evenodd" clip-rule="evenodd" d="M35.5941 18.5951C35.6085 18.5611 35.6241 18.5117 35.6371 18.4875C35.9531 17.573 36.4521 18.1979 36.7243 18.1502C37.1531 18.0151 37.3986 17.6262 37.489 17.0763C37.5449 16.7471 37.5778 16.0715 37.4045 15.7906C37.3002 15.621 36.9323 15.3372 36.285 15.211C34.8597 14.9304 32.3442 14.9341 30.1683 15.1955C28.552 15.3937 26.4322 15.8595 23.6188 16.9127C22.6573 17.2727 21.1541 17.4656 20.7089 18.6376C20.3482 19.584 20.4851 20.094 20.8866 20.3337C21.7715 20.8604 23.9429 20.0781 24.9239 19.7622C24.951 19.7844 24.9797 19.8066 25.0209 19.839C24.6608 21.9039 23.8654 24.3868 23.6222 26.6728C23.1232 28.1653 22.1621 31.8694 22.9642 33.3345C24.6192 34.3565 25.6291 31.4591 25.5042 31.3615C25.9232 30.0852 27.2351 24.4938 27.3902 22.9812C27.4272 22.6004 27.4588 22.295 27.5169 21.8999C27.6288 21.1316 27.6427 20.3672 27.7705 19.6454C27.8056 19.4442 27.9194 19.278 28.082 19.1437C28.8023 18.5447 30.4925 18.5357 30.7802 18.5357C31.0041 18.4807 31.6269 18.384 32.1232 18.2227C32.3425 18.1523 32.3443 18.4736 32.285 18.8462C32.2256 19.2164 32.1065 19.6383 32.0796 19.7689C32.0169 20.0791 31.956 20.3448 31.8838 20.6718C31.7935 21.0816 31.6069 21.9177 31.1792 23.7833C30.2102 28.2859 29.4609 32.2908 30.2858 34.4644C30.4841 34.7584 31.156 35.0728 31.3503 34.985C31.8476 34.8917 32.2053 34.6722 32.4634 34.3741C32.9151 33.8526 33.0561 33.0883 33.0938 32.3332C33.1618 30.9504 33.3546 28.8326 33.6664 26.7428C33.8733 25.3559 34.527 22.2697 35.0628 20.2619C35.2668 19.4994 35.4608 18.9029 35.5941 18.5951Z" fill="#ED1C24"/>
<path fill-rule="evenodd" clip-rule="evenodd" d="M48.9677 34.9957C49.1492 34.9957 49.2703 34.8572 49.3288 34.5812C49.3834 34.3054 49.5097 33.4968 49.702 32.1591C49.895 30.8258 50.1572 29.3892 50.4895 27.847C50.8215 26.3079 51.306 24.4836 51.9469 22.3686C52.1896 22.3009 52.6502 22.2522 53.3218 22.2144C53.9941 22.1788 54.4899 22.1129 54.8088 22.0197C55.1262 21.9207 55.253 21.7164 55.1906 21.4031C55.1487 21.1812 55.0203 20.9317 54.8066 20.6684C54.592 20.4003 54.3008 20.1726 53.9282 19.9862C53.5591 19.796 53.1428 19.7015 52.6829 19.7015C52.5635 19.7015 52.3805 19.7157 52.1355 19.7458C51.8644 19.7754 51.4499 19.804 50.8962 19.8365C50.3363 19.8657 49.9203 19.8951 49.6448 19.9201C48.0617 20.0406 46.9529 20.1751 46.312 20.3246C45.6727 20.4711 45.3847 20.7215 45.4532 21.0775C45.6605 22.1427 46.0954 22.6734 46.7651 22.6734C46.8694 22.6734 47.6158 22.6148 49.0031 22.4981C48.8403 23.1262 48.6075 24.0608 48.3038 25.3074C48.0046 26.5589 47.7351 27.7248 47.4988 28.8098C47.2553 29.8936 47.0566 30.9005 46.8966 31.8269C46.7316 32.758 46.6768 33.3458 46.7257 33.5973C46.7723 33.8354 46.9418 34.0566 47.2358 34.2761C47.5322 34.4889 47.8567 34.6619 48.2141 34.7957C48.5723 34.9299 48.826 34.9957 48.9677 34.9957Z" fill="#ED1C24"/>
<path fill-rule="evenodd" clip-rule="evenodd" d="M72.7074 27.0205C72.537 28.0338 72.2552 28.9763 71.8671 29.8618C71.4741 30.7474 71.0438 31.4576 70.5753 31.9957C70.1047 32.5375 69.6777 32.8087 69.2959 32.8087C69.1332 32.8087 68.9613 32.6876 68.7761 32.4432C68.5941 32.1991 68.4611 31.8673 68.378 31.4521C68.1883 30.4671 68.1774 29.4334 68.3461 28.3688C68.5136 27.3001 68.7921 26.3236 69.1777 25.4296C69.5678 24.5422 69.9958 23.8245 70.4622 23.2775C70.9291 22.731 71.3385 22.4587 71.6944 22.4587C72.1435 22.4587 72.4797 23.0402 72.7072 24.2063C72.8747 25.0732 72.875 26.0111 72.7074 27.0205ZM74.7506 22.4264C74.4989 21.8464 74.2411 21.4002 73.9868 21.0866C73.7316 20.777 73.5332 20.6203 73.4035 20.6203C73.3292 20.6203 73.172 20.6807 72.9372 20.8087C72.7021 20.9318 72.5315 21.0306 72.4341 21.1001C72.1488 20.7619 71.8148 20.4443 71.4321 20.1455C71.0531 19.8486 70.7421 19.7015 70.5109 19.7015C70.1552 19.7015 69.6439 20.0148 68.9867 20.6444C68.3295 21.2745 67.6963 22.1244 67.0838 23.1882C66.4738 24.2577 66.0233 25.4812 65.731 26.8629C65.437 28.2466 65.4335 29.6627 65.7153 31.107C65.881 31.9705 66.1974 32.6954 66.6535 33.2816C67.1111 33.8692 67.6209 34.2988 68.1775 34.576C68.7342 34.8572 69.2471 34.9958 69.715 34.9958C70.8173 34.9958 71.8767 34.4954 72.8923 33.4966C73.9049 32.4948 74.6532 31.1738 75.1354 29.5368C75.6185 27.9034 75.6927 26.2049 75.3514 24.4487C75.2026 23.6843 75.0036 23.0086 74.7506 22.4264ZM83.4834 24.192C83.163 24.6265 82.7271 25.0301 82.1737 25.4067C81.6227 25.7875 81.0443 26.0855 80.4377 26.299C80.768 24.4387 80.8965 23.3024 80.818 22.8951C80.7731 22.6664 80.6211 22.4408 80.3657 22.2179C80.8838 22.0571 81.4622 21.9783 82.1016 21.9783C82.6071 21.9783 83.0124 22.0739 83.3186 22.2764C83.621 22.4756 83.8 22.7245 83.8571 23.0232C83.9262 23.3724 83.7999 23.7618 83.4834 24.192ZM82.3982 30.5892C82.0472 31.0892 81.5508 31.4995 80.9129 31.8195C80.2732 32.1459 79.6035 32.304 78.9057 32.304C79.2017 31.2871 79.4311 30.5024 79.5978 29.9603C79.7591 29.4138 79.9021 28.8767 80.0162 28.3312C80.4553 28.2009 80.8592 28.1344 81.2297 28.1344C82.1428 28.1344 82.6622 28.4657 82.7896 29.1152C82.8814 29.5953 82.753 30.0884 82.3982 30.5892ZM85.7167 25.3591C86.2039 24.583 86.3687 23.7726 86.2039 22.9353C86.0208 21.9805 85.4842 21.2051 84.5936 20.605C83.709 20.0041 82.6182 19.7016 81.3316 19.7016C80.7709 19.7016 80.004 19.7893 79.0391 19.9638C78.1126 20.1263 77.4256 20.2912 76.9736 20.4552C76.5258 20.6204 76.3355 20.8789 76.4063 21.234C76.4787 21.6079 76.6587 21.9805 76.9508 22.3573C77.2404 22.73 77.6245 22.9583 78.106 23.0452C77.9078 24.7867 77.6706 26.2671 77.3832 27.4896C77.0964 28.7146 76.8242 29.6688 76.563 30.3572C76.3029 31.0406 76.0866 31.636 75.9142 32.1342C75.7402 32.63 75.6877 33.0593 75.7589 33.4232C75.7785 33.5247 75.9246 33.7068 76.1985 33.9657C76.4726 34.2203 76.7665 34.4578 77.078 34.6725C77.3905 34.8854 77.6158 34.9959 77.7567 34.9959C77.9646 34.9959 78.1206 34.9011 78.2293 34.7134C78.3401 34.5226 78.4592 34.1826 78.5865 33.6825C79.3341 34.5614 80.0593 34.9959 80.767 34.9959C81.4393 34.9959 82.1697 34.678 82.9543 34.0315C83.737 33.3856 84.3681 32.6133 84.8436 31.7195C85.3185 30.8195 85.4905 30.0246 85.3559 29.3384C85.2855 28.9746 85.1161 28.5929 84.8498 28.2009C84.5843 27.8047 84.2043 27.4594 83.7091 27.1546C84.5573 26.7284 85.2261 26.1339 85.7167 25.3591ZM62.1974 24.705C61.782 25.2548 61.2369 25.7721 60.5674 26.2607C59.8904 26.7444 59.2598 27.0816 58.6666 27.2622C58.7449 26.6353 58.9036 25.7407 59.1463 24.5729C59.2892 23.8782 59.4 23.4169 59.4804 23.1842C59.5529 22.9488 59.6762 22.7843 59.8392 22.6886C60.0057 22.5905 60.2876 22.5284 60.6918 22.4988C60.7967 22.4853 60.9576 22.4757 61.1732 22.4757C62.0895 22.4757 62.5995 22.7539 62.7082 23.312C62.7837 23.6934 62.613 24.1598 62.1974 24.705ZM64.5216 21.5213C64.0786 21 63.482 20.5644 62.7171 20.2183C61.9593 19.8724 61.0909 19.7016 60.1095 19.7016C59.5478 19.7016 58.957 19.7634 58.3326 19.8872C57.7063 20.0066 57.1858 20.1903 56.7671 20.4275C56.3477 20.6675 56.1672 20.9404 56.2269 21.2546C56.4172 22.2241 56.7652 22.8303 57.279 23.0654C56.8035 25.0971 56.4217 26.6686 56.1426 27.7774C55.8643 28.8891 55.5734 30.0067 55.2754 31.1407C54.9758 32.268 54.8008 32.9747 54.7479 33.2478C54.7 33.5244 54.6891 33.7524 54.7221 33.9266C54.7745 34.1938 54.8854 34.3681 55.0604 34.4527C55.2301 34.538 55.5186 34.6236 55.9182 34.713C56.1204 34.7602 56.3376 34.8182 56.5603 34.8904C56.7819 34.9595 56.9357 34.9956 57.0202 34.9956C57.2669 34.9956 57.4531 34.857 57.573 34.5848C57.6886 34.3125 57.7883 33.893 57.8698 33.3324C57.9492 32.7703 58.0542 32.0163 58.1895 31.0742C58.3241 30.135 58.503 29.2205 58.7158 28.3309C59.3659 29.3077 59.9017 29.7957 60.3224 29.7957C60.8182 29.7957 61.5062 29.3772 62.3783 28.5395C63.2541 27.7016 63.9971 26.7504 64.6095 25.6843C65.2212 24.6185 65.4642 23.7554 65.3329 23.0867C65.2352 22.5702 64.9625 22.0478 64.5216 21.5213Z" fill="#ED1C24"/>
</g>
<defs>
<filter id="filter0_b_284_14472" x="-4" y="-4" width="138" height="58" filterUnits="userSpaceOnUse" color-interpolation-filters="sRGB">
<feFlood flood-opacity="0" result="BackgroundImageFix"/>
<feGaussianBlur in="BackgroundImageFix" stdDeviation="2"/>
<feComposite in2="SourceAlpha" operator="in" result="effect1_backgroundBlur_284_14472"/>
<feBlend mode="normal" in="SourceGraphic" in2="effect1_backgroundBlur_284_14472" result="shape"/>
</filter>
</defs>
</svg>
