<svg width="130" height="50" viewBox="0 0 130 50" fill="none" xmlns="http://www.w3.org/2000/svg">
<g filter="url(#filter0_b_284_14396)">
<rect width="130" height="50" rx="7" fill="#5C5F8E" fill-opacity="0.2"/>
<mask id="mask0_284_14396" style="mask-type:luminance" maskUnits="userSpaceOnUse" x="20" y="18" width="14" height="14">
<path d="M20.5 18.4275H33.6451V31.5726H20.5V18.4275Z" fill="white"/>
</mask>
<g mask="url(#mask0_284_14396)">
<path d="M27.0725 31.5726C30.7024 31.5726 33.6451 28.6299 33.6451 25C33.6451 21.3701 30.7024 18.4275 27.0725 18.4275C23.4426 18.4275 20.5 21.3701 20.5 25C20.5 28.6299 23.4426 31.5726 27.0725 31.5726Z" fill="#FF5226"/>
<path d="M28.1377 29.141V22.104H27.3122C26.7171 22.104 26.2658 22.2302 25.9591 22.483C25.6524 22.7266 25.499 23.0513 25.499 23.4575C25.499 23.7642 25.5529 24.0258 25.6612 24.2423C25.7694 24.4587 25.9276 24.6572 26.1348 24.8377C26.3425 25.0183 26.6041 25.2167 26.92 25.4332L27.7048 25.9608L25.4044 29.1414H23.6719L25.8645 26.1641L26.8929 27.0842L26.0809 26.5698C25.6727 26.3046 25.2838 26.0108 24.9172 25.6904C24.592 25.4012 24.344 25.0857 24.1727 24.7431C24.0014 24.4 23.9155 23.9986 23.9155 23.5386C23.9155 22.7446 24.1999 22.104 24.7682 21.6168C25.3457 21.1207 26.1892 20.8727 27.2986 20.8727H29.748V29.141H28.1377Z" fill="white"/>
</g>
<path d="M41.3372 31.5726C37.7113 31.5726 34.7646 28.6373 34.7646 25.0119C34.7646 21.386 37.7113 18.4275 41.3372 18.4275C44.9626 18.4275 47.9097 21.386 47.9097 25.0119C47.9097 28.6373 44.9626 31.5726 41.3372 31.5726Z" fill="#FF5226"/>
<path d="M40.3196 19.3169L32.9873 30.7575H36.3485L40.5843 24.163L40.4809 24.1162L39.3066 28.8352L41.7928 29.2734L44.3482 26.0616L44.2097 25.9928L43.3465 29.641L48.7636 28.6087L47.6585 26.7886L45.706 27.2355L45.9365 27.5006L46.8457 23.6907L44.7276 22.2745L41.954 25.7624L42.092 25.8316L43.2313 21.2615L40.3196 19.3169Z" fill="#FFDD00"/>
<path d="M40.3196 19.3169L32.9873 30.7575H36.3485L40.5843 24.163L40.4809 24.1162L39.3066 28.8352L41.7928 29.2734L44.3482 26.0616L44.2097 25.9928L43.3465 29.641L45.5242 29.2261L46.8457 23.6907L44.7276 22.2745L41.954 25.7624L42.092 25.8316L43.2313 21.2615L40.3196 19.3169Z" fill="#FFDD00"/>
<path d="M50.4291 29.1408L54.516 20.8725H57.6283L58.2645 25.9066L61.4176 20.8721H64.5031V29.1408H61.4855V24.7021L58.6838 29.1408H55.6661L55.0847 24.6614L52.8649 29.1408H50.4291ZM73.773 27.5033C73.773 27.7833 73.7779 28.0585 73.7866 28.3288C73.7958 28.5996 73.8138 28.8656 73.841 29.1272H71.0393C70.9728 28.9972 70.9185 28.8614 70.8772 28.7214C70.822 28.5361 70.7857 28.3457 70.769 28.1531C70.4802 28.4958 70.1148 28.7797 69.6727 29.0054C69.2397 29.2223 68.6215 29.3305 67.8188 29.3305C67.0068 29.3305 66.357 29.1408 65.8698 28.7622C65.3917 28.3832 65.1529 27.878 65.1529 27.2461C65.1529 26.6598 65.3194 26.209 65.6533 25.893C65.9964 25.5684 66.5284 25.3427 67.2505 25.2165C67.9721 25.0807 68.8967 25.0132 70.0245 25.0132H70.7282V24.8642C70.7282 24.5759 70.6064 24.3546 70.3628 24.2013C70.1191 24.0479 69.6635 23.9712 68.9961 23.9712C68.3376 23.9712 67.7241 24.0571 67.1554 24.2284C66.5963 24.3906 66.1406 24.5531 65.7887 24.7157V22.9021C66.1857 22.7575 66.7181 22.6134 67.3859 22.4692C68.0624 22.3158 68.8336 22.2392 69.6998 22.2392C70.5748 22.2392 71.3145 22.3202 71.9191 22.4828C72.5238 22.6361 72.9839 22.9021 73.2994 23.2811C73.6153 23.6509 73.773 24.1653 73.773 24.8239V27.5033ZM74.6932 22.4425H77.4948L77.657 23.5922C78.0001 23.1413 78.4102 22.8123 78.8887 22.6046C79.3667 22.3969 79.917 22.2935 80.5397 22.2935C81.2434 22.2935 81.8748 22.4197 82.4343 22.6721C82.9815 22.9143 83.4433 23.3151 83.7602 23.8227C84.0853 24.3367 84.2475 24.9865 84.2475 25.7712C84.2475 26.556 84.0853 27.2102 83.7602 27.7334C83.4447 28.2478 83.0026 28.636 82.4343 28.8971C81.8656 29.1592 81.2162 29.2897 80.4854 29.2897C79.9622 29.2931 79.4432 29.1966 78.9561 29.0054C78.4869 28.8073 78.0811 28.4958 77.7385 28.0721V30.8869H74.6932V22.442V22.4425ZM93.0709 25.7712C93.0709 25.1035 93.2514 24.508 93.6125 23.9848C93.9823 23.4616 94.5054 23.0515 95.182 22.7536C95.8677 22.4468 96.6753 22.2935 97.6046 22.2935C98.5699 22.2935 99.3774 22.46 100.027 22.7939C100.685 23.1278 101.145 23.6014 101.407 24.2149C101.678 24.8283 101.714 25.5548 101.515 26.3939H96.1701C96.2783 26.7817 96.5175 27.0748 96.8873 27.2733C97.2663 27.463 97.8255 27.5577 98.5651 27.5577C99.0795 27.5577 99.5575 27.5125 99.9997 27.4218C100.416 27.3299 100.827 27.2172 101.231 27.084V28.6943C100.843 28.8748 100.41 29.0189 99.9322 29.1272C99.4629 29.2354 98.8451 29.2897 98.0783 29.2897C96.3909 29.2897 95.1325 28.9786 94.3026 28.356C93.4814 27.7246 93.0709 26.8632 93.0709 25.7712ZM101.772 22.442H109.5V24.1746H107.091V29.1272H104.046V24.1746H101.772V22.442ZM84.8294 22.442H87.8742V25.4733L90.7569 22.442H93.3824L90.7026 25.2297L93.9371 29.1272H90.2561L87.8742 26.177V29.1272H84.8294V22.442ZM97.6182 23.8091C97.2028 23.8091 96.8738 23.9309 96.6301 24.1746C96.3865 24.409 96.2288 24.7113 96.1565 25.0811H98.8359C98.8271 24.7113 98.7276 24.409 98.5384 24.1741C98.3486 23.9309 98.0419 23.8091 97.6182 23.8091ZM81.1352 25.7712C81.1352 25.2297 80.9862 24.8011 80.6882 24.4857C80.3999 24.161 79.9845 23.9984 79.4434 23.9984C78.9474 23.9984 78.532 24.1518 78.1985 24.4585C77.8647 24.7564 77.6977 25.1937 77.6977 25.7712C77.6977 26.3487 77.8598 26.7952 78.185 27.1112C78.5188 27.4179 78.9382 27.5712 79.4434 27.5712C80.0029 27.5712 80.4223 27.4087 80.7018 27.084C80.9906 26.7593 81.1352 26.3216 81.1352 25.7712ZM70.7282 26.2445H70.0381C69.3795 26.2445 68.9059 26.2992 68.6171 26.4075C68.3376 26.5157 68.1978 26.7229 68.1978 27.0297C68.1978 27.2912 68.288 27.4854 68.4681 27.6115C68.6579 27.729 68.8831 27.7877 69.1451 27.7877C69.5421 27.7877 69.8668 27.7154 70.1191 27.5712C70.3807 27.4179 70.584 27.2417 70.7282 27.0432V26.2445Z" fill="white"/>
</g>
<defs>
<filter id="filter0_b_284_14396" x="-4" y="-4" width="138" height="58" filterUnits="userSpaceOnUse" color-interpolation-filters="sRGB">
<feFlood flood-opacity="0" result="BackgroundImageFix"/>
<feGaussianBlur in="BackgroundImageFix" stdDeviation="2"/>
<feComposite in2="SourceAlpha" operator="in" result="effect1_backgroundBlur_284_14396"/>
<feBlend mode="normal" in="SourceGraphic" in2="effect1_backgroundBlur_284_14396" result="shape"/>
</filter>
</defs>
</svg>
