<svg width="130" height="50" viewBox="0 0 130 50" fill="none" xmlns="http://www.w3.org/2000/svg">
<g filter="url(#filter0_b_284_14480)">
<rect width="130" height="50" rx="7" fill="#5C5F8E" fill-opacity="0.2"/>
<path d="M26.0837 15.6332L22.8457 22.3529L23.9433 23.5353L30.1084 17.1308L27.6021 22.3529L28.6997 23.5353L34.8648 17.1308L32.3585 22.3529L33.4562 23.5353L39.6212 17.1308L37.1149 22.3529L38.2125 23.5353L42.9689 19.9882L41.8713 18.8058L39.7126 20.402L42.9689 13.6823L41.8713 12.4999L35.688 18.9044L38.2125 13.6823L37.1149 12.4999L30.9316 18.9044L33.4562 13.6823L32.3585 12.4999L26.1752 18.9044L28.6997 13.6823L27.6021 12.4999L22.8457 16.047L23.9433 17.2294L26.0837 15.6332Z" fill="white"/>
<path d="M64.6008 23.0152L64.1712 21.093H61.3674L60.9377 23.0152H58.5635L61.3447 12.5226H64.3294L67.0881 23.0152H64.6008ZM62.7919 14.7839H62.7241L61.616 19.2387H63.8546L62.7919 14.7839Z" fill="white"/>
<path d="M73.509 23.0152L70.1625 16.6156H70.1173L70.1851 23.0152H68.0596V12.5226H70.4338L73.7578 19.0126H73.8029L73.7578 12.5226H75.8154V23.0152H73.509Z" fill="white"/>
<path d="M83.2095 23.0152L79.8626 16.8417H79.8174L79.8852 23.0152H77.7598V12.5226H80.1339L83.4581 18.7865H83.5029L83.4581 12.5226H85.5158V23.0152H83.2095Z" fill="white"/>
<path d="M87.4385 23.0152V12.5226H93.182V14.603H89.6994V16.6608H92.9555V18.6282H89.6994V20.8895H93.3852V23.0152H87.4385Z" fill="white"/>
<path d="M100.123 23.0152L98.2689 18.8317H97.5678V23.0152H95.2842V12.5226H98.6532C99.6704 12.5226 100.462 12.7939 101.027 13.3141C101.592 13.8342 101.864 14.6256 101.864 15.6885C101.864 16.0729 101.819 16.4121 101.728 16.7287C101.638 17.0453 101.525 17.294 101.389 17.5201C101.254 17.7463 101.095 17.9272 100.914 18.0629C100.734 18.1985 100.575 18.289 100.394 18.3568L102.633 23.0378H100.123V23.0152ZM99.5347 15.8015C99.5347 15.5302 99.4899 15.3266 99.4218 15.1457C99.3543 14.9874 99.2413 14.8518 99.1277 14.7387C99.0148 14.6482 98.8791 14.5804 98.7434 14.5352C98.6078 14.4899 98.4494 14.4899 98.3137 14.4899H97.5678V17.1357H98.2689C98.6078 17.1357 98.9018 17.0226 99.1504 16.8191C99.3991 16.6156 99.5347 16.2764 99.5347 15.8015Z" fill="white"/>
<path d="M52.9105 17.0226L55.2848 12.4999H57.6137V23.0152H55.5335V16.4799H55.4883L52.9105 21.2966H52.8653L50.2876 16.4799H50.2424V23.0152H48.1621V12.4999H50.4685L52.8653 17.0226H52.9105Z" fill="white"/>
<path d="M76.2684 37.2958L75.8393 35.3736H73.0351L72.6053 37.2958H70.2314L73.0123 26.8032H75.9971L78.7559 37.2958H76.2684ZM74.4826 29.0645H74.4145L73.3064 33.5193H75.5453L74.4826 29.0645Z" fill="white"/>
<path d="M91.9609 37.2958V26.8032H97.7039V28.8836H94.2219V30.9414H97.4779V32.9088H94.2219V35.1701H97.885V37.2958H91.9609Z" fill="white"/>
<path d="M104.646 37.2958L102.791 33.1123H102.091V37.2958H99.8066V26.8032H103.176C104.194 26.8032 104.985 27.0745 105.55 27.5946C106.116 28.1147 106.387 28.9062 106.387 29.969C106.387 30.3535 106.342 30.6927 106.251 31.0092C106.161 31.3258 106.047 31.5746 105.912 31.8007C105.776 32.0269 105.618 32.2078 105.437 32.3434C105.256 32.4791 105.098 32.5696 104.917 32.6374L107.156 37.3184H104.646V37.2958ZM104.035 30.0821C104.035 29.8107 103.99 29.6072 103.922 29.4263C103.855 29.268 103.741 29.1323 103.628 29.0193C103.515 28.9288 103.379 28.861 103.244 28.8158C103.108 28.7705 102.95 28.7705 102.814 28.7705H102.068V31.4163H102.769C103.108 31.4163 103.402 31.3032 103.651 31.0997C103.899 30.8962 104.035 30.557 104.035 30.0821Z" fill="white"/>
<path d="M78.709 26.7805V28.793H80.6311V37.2957H82.9602V28.793H86.4876V37.2957H88.8167V28.793H90.7388V26.7805H78.709Z" fill="white"/>
<path d="M64.5775 31.3033L66.9514 26.7806H69.2805V37.2958H67.2V30.7605H67.1553L64.5775 35.5772H64.5321L61.9544 30.7605H61.9089V37.2958H59.8291V26.7806H62.1575L64.5321 31.3033H64.5775Z" fill="white"/>
<path d="M53.9732 37.2965L53.363 36.4146C53.1592 36.7312 52.8651 36.9799 52.5035 37.1834C52.1193 37.3869 51.6668 37.5 51.1241 37.5C50.1972 37.5 49.4734 37.2286 48.9534 36.6859C48.4107 36.1432 48.1621 35.3517 48.1621 34.3341C48.1621 33.6331 48.3205 33.0226 48.6594 32.5477C48.9761 32.0728 49.4059 31.6883 49.9031 31.417C49.6772 31.1004 49.4734 30.7612 49.3377 30.3994C49.202 30.0376 49.1345 29.6531 49.1345 29.2235C49.1345 28.7938 49.202 28.4094 49.3604 28.0702C49.4961 27.731 49.6999 27.437 49.9485 27.2109C50.1972 26.9848 50.4912 26.7812 50.8301 26.6682C51.1696 26.5325 51.5311 26.4647 51.9381 26.4647C52.3224 26.4647 52.6619 26.5325 52.9781 26.6456C53.2948 26.7586 53.5662 26.9169 53.7921 27.1431C54.0186 27.3692 54.1991 27.6406 54.3348 27.9571C54.4704 28.2737 54.5386 28.6355 54.5386 29.0652C54.5386 29.4044 54.4931 29.6984 54.3802 29.9697C54.2672 30.2411 54.1316 30.4898 53.9505 30.716C53.77 30.9421 53.5662 31.1456 53.3403 31.3265C53.1137 31.5074 52.8651 31.6883 52.6165 31.8466L53.4987 33.0677L54.2218 31.5074H56.4607L54.7645 34.6733L56.6411 37.2738H53.9732V37.2965ZM50.8982 32.9095C50.7625 32.9999 50.6269 33.1356 50.4912 33.3617C50.3555 33.5879 50.2874 33.8592 50.2874 34.1984C50.2874 34.6055 50.3783 34.9447 50.5587 35.1934C50.7398 35.4422 50.9884 35.5552 51.3052 35.5552C51.5538 35.5552 51.757 35.4874 51.9154 35.3291C52.0738 35.1708 52.164 35.0125 52.2322 34.8542L50.8982 32.9095ZM52.5938 29.2235C52.5938 28.9295 52.549 28.7034 52.4354 28.4999C52.3224 28.2963 52.164 28.2059 51.9381 28.2059C51.7122 28.2059 51.5311 28.319 51.3955 28.5225C51.2598 28.726 51.1923 28.9747 51.1923 29.2461C51.1923 29.7436 51.35 30.1959 51.6895 30.6029C51.9154 30.4446 52.1193 30.2637 52.2997 30.0376C52.5035 29.8114 52.5938 29.5401 52.5938 29.2235Z" fill="white"/>
</g>
<defs>
<filter id="filter0_b_284_14480" x="-4" y="-4" width="138" height="58" filterUnits="userSpaceOnUse" color-interpolation-filters="sRGB">
<feFlood flood-opacity="0" result="BackgroundImageFix"/>
<feGaussianBlur in="BackgroundImageFix" stdDeviation="2"/>
<feComposite in2="SourceAlpha" operator="in" result="effect1_backgroundBlur_284_14480"/>
<feBlend mode="normal" in="SourceGraphic" in2="effect1_backgroundBlur_284_14480" result="shape"/>
</filter>
</defs>
</svg>
