<svg width="130" height="50" viewBox="0 0 130 50" fill="none" xmlns="http://www.w3.org/2000/svg">
<g filter="url(#filter0_b_284_14497)">
<rect width="130" height="50" rx="7" fill="#5C5F8E" fill-opacity="0.2"/>
<path d="M26.6806 31.1806C30.094 31.1806 32.8611 28.4134 32.8611 25C32.8611 21.5866 30.094 18.8195 26.6806 18.8195C23.2671 18.8195 20.5 21.5866 20.5 25C20.5 28.4134 23.2671 31.1806 26.6806 31.1806Z" fill="#FC3F1D"/>
<path d="M27.5922 22.2809H26.9666C25.8943 22.2809 25.3582 22.8171 25.3582 23.6213C25.3582 24.515 25.7157 24.9618 26.5199 25.4979L27.1453 25.9447L25.3582 28.7147H23.9287L25.6264 26.2127C24.6435 25.4979 24.1074 24.8723 24.1074 23.7108C24.1074 22.2809 25.0905 21.298 26.9668 21.298H28.8434V28.7147H27.5924V22.2811L27.5922 22.2809Z" fill="white"/>
<path d="M33.6855 25C33.6855 21.5866 36.4527 18.8195 39.8661 18.8195C43.2795 18.8195 46.0467 21.5866 46.0467 25C46.0467 28.4134 43.2795 31.1806 39.8661 31.1806C36.4527 31.1806 33.6855 28.4134 33.6855 25Z" fill="#786565"/>
<path d="M43.0464 27.8847C42.9493 27.9408 42.8392 27.9703 42.727 27.9703C42.6149 27.9703 42.5047 27.9408 42.4076 27.8847L41.208 27.1919V28.5795C41.208 28.8076 41.0864 29.0186 40.8886 29.1326L40.3815 29.4254C40.2844 29.4814 40.1742 29.5109 40.0621 29.5109C39.9499 29.5109 39.8398 29.4814 39.7426 29.4254L36.211 27.3861C36.1139 27.33 36.0333 27.2494 35.9772 27.1523C35.9211 27.0552 35.8916 26.945 35.8916 26.8329V22.9802C35.8916 22.752 36.0132 22.5411 36.211 22.4267L36.7181 22.1343C36.8152 22.0782 36.9254 22.0487 37.0375 22.0487C37.1497 22.0487 37.2598 22.0782 37.357 22.1343L38.5565 22.8268V21.4395C38.5565 21.2111 38.6782 21.0004 38.876 20.8861L39.3831 20.5933C39.4802 20.5373 39.5903 20.5078 39.7025 20.5078C39.8146 20.5078 39.9248 20.5373 40.0219 20.5933L43.5538 22.6329C43.6509 22.689 43.7315 22.7695 43.7875 22.8666C43.8436 22.9636 43.8732 23.0737 43.8732 23.1858V27.0385C43.8732 27.2669 43.7516 27.4776 43.5538 27.592L43.0464 27.8847Z" fill="#FFDD29"/>
<path d="M49.3428 21.2917V28.01H50.5327V25.0919H52.7565V28.01H53.9465V21.2917H52.7565V24.1817H50.5327V21.2917H49.3428ZM58.7179 27.6799V26.7446C58.3536 26.9848 57.7442 27.197 57.1731 27.197C56.3165 27.197 55.9926 26.8006 55.9424 25.9897H58.7661V25.3816C58.7661 23.6889 58.0079 23.0527 56.8398 23.0527C55.4121 23.0527 54.7335 24.1253 54.7335 25.5938C54.7335 27.2839 55.5802 28.1068 57.0746 28.1068C57.8233 28.1068 58.3726 27.9131 58.7179 27.6799ZM56.8184 23.96C57.3985 23.96 57.5765 24.4339 57.5765 25.042V25.1389H55.9424C55.9737 24.3655 56.2592 23.9605 56.8179 23.9605L56.8184 23.96ZM63.9 27.1002H63.3792V23.1492H59.9655V23.5641C59.9655 24.7524 59.8889 26.2893 59.4739 27.1002H59.1113V29.1204H60.1934V28.01H62.818V29.1204H63.9V27.1002ZM62.2086 27.1002H60.5555C60.8819 26.3667 60.9709 25.042 60.9709 24.2007V24.0565H62.2086V27.1002ZM66.5363 28.01C67.6974 28.01 68.3863 27.527 68.3863 26.5979C68.3863 25.9617 67.9928 25.5938 67.3327 25.4784C67.8655 25.3321 68.1988 24.9646 68.1988 24.3844C68.1988 23.5546 67.6376 23.1492 66.5556 23.1492H64.4901V28.01H66.5363ZM66.4188 23.9979C66.8412 23.9979 67.0785 24.1817 67.0785 24.5591C67.0785 24.8982 66.8218 25.101 66.378 25.101H65.6322V23.9979H66.4188ZM66.4382 25.9403C66.9396 25.9403 67.2058 26.115 67.2058 26.5204C67.2058 26.9753 66.9108 27.1591 66.4382 27.1591H65.6318V25.9403H66.4382ZM69.1729 23.1492V28.01H70.2141L72.0065 25.0046V28.01H73.1363V23.1492H72.095L70.3027 26.155V23.1492H69.1729ZM74.9665 28.01L76.5211 25.6222V28.01H77.6893V25.6222L79.2439 28.01H80.5731L78.8508 25.3816L80.3453 23.1492H79.1648L77.6897 25.391V23.15H76.5207V25.3915L75.0456 23.15H73.8343L75.36 25.4294L73.6781 28.0104L74.9665 28.01ZM81.1129 23.1492V28.01H82.1562L83.9461 25.0046V28.01H85.0783V23.1492H84.0346L82.2452 26.155V23.1492H81.1129ZM90.2795 28.01H91.4212L91.4023 23.1492H89.7994L88.7273 26.3857L87.7632 23.1492H86.0619V28.01H87.0549V24.375L88.1274 28.01H89.08L90.2791 24.375L90.2795 28.01ZM94.3912 23.0527C93.1032 23.0527 92.2082 23.951 92.2082 25.5843C92.2082 27.2085 93.1032 28.1068 94.3912 28.1068C95.6796 28.1068 96.5742 27.2085 96.5742 25.5748C96.5742 23.9506 95.6796 23.0527 94.3912 23.0527ZM94.3912 27.197C93.7435 27.197 93.4171 26.7042 93.4171 25.5843C93.4171 24.4528 93.7435 23.96 94.3912 23.96C95.0414 23.96 95.3652 24.4528 95.3652 25.5752C95.3652 26.7042 95.0414 27.197 94.3912 27.197ZM99.4869 28.1068C100.029 28.1068 100.41 28.01 100.696 27.8072V26.869C100.401 27.0717 100.048 27.197 99.5565 27.197C98.7192 27.197 98.376 26.5604 98.376 25.5538C98.376 24.5002 98.7983 23.96 99.566 23.96C100.017 23.96 100.461 24.1158 100.696 24.2596V23.2835C100.451 23.1492 100.017 23.0527 99.4386 23.0527C97.9417 23.0527 97.1671 24.1038 97.1671 25.5843C97.1671 27.2085 97.9228 28.1068 99.4869 28.1068ZM105.065 24.0565V23.1496H101.14V24.0573H102.517V28.0104H103.688V24.0569L105.065 24.0565ZM105.753 23.1492V28.01H107.514C108.675 28.01 109.5 27.4302 109.5 26.2893C109.5 25.2073 108.761 24.637 107.533 24.637H106.924V23.1496L105.753 23.1492ZM107.444 27.1002H106.924V25.5443H107.473C107.986 25.5443 108.291 25.7681 108.291 26.3272C108.291 26.888 107.955 27.1002 107.444 27.1002Z" fill="white"/>
</g>
<defs>
<filter id="filter0_b_284_14497" x="-4" y="-4" width="138" height="58" filterUnits="userSpaceOnUse" color-interpolation-filters="sRGB">
<feFlood flood-opacity="0" result="BackgroundImageFix"/>
<feGaussianBlur in="BackgroundImageFix" stdDeviation="2"/>
<feComposite in2="SourceAlpha" operator="in" result="effect1_backgroundBlur_284_14497"/>
<feBlend mode="normal" in="SourceGraphic" in2="effect1_backgroundBlur_284_14497" result="shape"/>
</filter>
</defs>
</svg>
