<svg width="130" height="50" viewBox="0 0 130 50" fill="none" xmlns="http://www.w3.org/2000/svg">
<g filter="url(#filter0_b_284_14514)">
<rect width="130" height="50" rx="7" fill="#5C5F8E" fill-opacity="0.2"/>
<path fill-rule="evenodd" clip-rule="evenodd" d="M79.4998 39.5C87.5077 39.5 93.9993 33.0081 93.9993 25.0002C93.9993 16.9923 87.5077 10.5004 79.4998 10.5004C71.4915 10.5004 65 16.9919 65 25.0002C65 33.0081 71.4915 39.5 79.4998 39.5Z" fill="#4E67ED"/>
<path fill-rule="evenodd" clip-rule="evenodd" d="M80.4092 24.9135C80.4102 24.5773 80.5441 24.2551 80.7819 24.0174C81.0196 23.7797 81.3418 23.6457 81.678 23.6448C82.0141 23.6457 82.3363 23.7797 82.574 24.0174C82.8117 24.2551 82.9457 24.5773 82.9466 24.9135C82.9457 25.2497 82.8117 25.5718 82.574 25.8095C82.3363 26.0473 82.0141 26.1813 81.678 26.1822C81.3418 26.1813 81.0196 26.0473 80.7819 25.8095C80.5441 25.5718 80.4102 25.2497 80.4092 24.9135ZM79.776 24.9135C79.776 25.1633 79.8252 25.4107 79.9209 25.6413C80.0166 25.8721 80.1567 26.0818 80.3334 26.2584C80.6902 26.6151 81.174 26.8153 81.6785 26.8153C81.9283 26.8153 82.1756 26.766 82.4064 26.6703C82.6371 26.5747 82.8468 26.4346 83.0234 26.2579C83.2 26.0812 83.3401 25.8715 83.4356 25.6407C83.5311 25.4099 83.5803 25.1626 83.5803 24.9128C83.5801 24.4083 83.3797 23.9245 83.0229 23.5678C82.6661 23.2112 82.1823 23.0109 81.6777 23.011C81.1733 23.011 80.6895 23.2116 80.3329 23.5684C79.9762 23.9251 79.7759 24.409 79.776 24.9135ZM76.229 24.9135C76.23 24.5773 76.3639 24.2551 76.6017 24.0174C76.8394 23.7797 77.1615 23.6457 77.4977 23.6448C77.8339 23.6457 78.1561 23.7797 78.3938 24.0174C78.6315 24.2551 78.7654 24.5773 78.7664 24.9135C78.7654 25.2497 78.6315 25.5718 78.3938 25.8095C78.1561 26.0473 77.8339 26.1813 77.4977 26.1822C77.1615 26.1813 76.8394 26.0473 76.6017 25.8095C76.3639 25.5718 76.23 25.2497 76.229 24.9135ZM75.5957 24.9135C75.5958 25.418 75.7963 25.9018 76.153 26.2585C76.5097 26.6152 76.9936 26.8155 77.498 26.8155C78.0026 26.8154 78.4864 26.615 78.8431 26.2582C79.1997 25.9015 79.4001 25.4176 79.4 24.9132C79.4 24.6633 79.3508 24.416 79.2552 24.1852C79.1595 23.9544 79.0195 23.7447 78.8428 23.5681C78.6662 23.3915 78.4564 23.2515 78.2257 23.1559C77.9948 23.0603 77.7475 23.0111 77.4977 23.0111C76.9932 23.0112 76.5094 23.2117 76.1527 23.5684C75.9761 23.745 75.8361 23.9548 75.7404 24.1855C75.6449 24.4163 75.5957 24.6637 75.5957 24.9135ZM75.2861 24.9135C75.2861 24.4091 75.0858 23.9253 74.7291 23.5686C74.3724 23.2119 73.8886 23.0115 73.3842 23.0115C72.7195 23.0115 72.136 23.3539 71.7961 23.8708V21.7435H71.1689V26.6824H71.7961V25.9559C71.9687 26.2197 72.2042 26.4364 72.4814 26.5864C72.7587 26.7364 73.069 26.815 73.3842 26.8151C73.6339 26.8151 73.8812 26.7659 74.112 26.6703C74.3428 26.5747 74.5524 26.4346 74.7291 26.258C74.9057 26.0814 75.0457 25.8718 75.1414 25.641C75.2369 25.4102 75.2861 25.1633 75.2861 24.9135ZM74.6529 24.9132C74.6519 25.2493 74.5179 25.5715 74.2802 25.8092C74.0425 26.0469 73.7204 26.1809 73.3842 26.1818C73.0479 26.1809 72.7258 26.0469 72.4881 25.8092C72.2504 25.5715 72.1164 25.2493 72.1154 24.9132C72.1164 24.5769 72.2504 24.2548 72.4881 24.0171C72.7258 23.7793 73.0479 23.6454 73.3842 23.6444C73.7204 23.6454 74.0425 23.7793 74.2802 24.0171C74.5179 24.2548 74.6519 24.5769 74.6529 24.9132ZM84.0578 23.1528V26.6745H84.6911V23.7857H85.8545V26.6745H86.4878V23.7857H87.6509V26.6745H88.2842V23.1528H84.0578Z" fill="white"/>
<path fill-rule="evenodd" clip-rule="evenodd" d="M36.001 39.5H65.0002V10.5H36.001V39.5Z" fill="black"/>
<path fill-rule="evenodd" clip-rule="evenodd" d="M45.8841 23.6445C46.3916 23.6445 46.8285 23.9905 46.9619 24.4555H44.722C44.8097 24.2177 44.9681 24.0126 45.176 23.8676C45.3838 23.7226 45.6307 23.6447 45.8841 23.6445ZM44.0174 24.8779C44.0174 25.9495 44.8136 26.8153 45.9548 26.8153C46.4668 26.8147 46.9579 26.6124 47.3219 26.2523L46.8778 25.7942C46.7573 25.9166 46.6137 26.014 46.4554 26.0805C46.297 26.1471 46.1269 26.1816 45.9551 26.182C45.2432 26.182 44.757 25.7099 44.6655 25.0892H47.646V24.772C47.6458 24.3049 47.4602 23.8569 47.1299 23.5267C46.7996 23.1964 46.3516 23.0109 45.8845 23.0109C45.3896 23.0116 44.9152 23.2085 44.5652 23.5584C44.2153 23.9084 44.0182 24.383 44.0174 24.8779ZM57.0971 28.3969V23.1439H56.4699V23.8709C56.2972 23.6071 56.0617 23.3904 55.7843 23.2404C55.507 23.0905 55.1967 23.012 54.8815 23.0119C54.3816 23.0188 53.9045 23.2222 53.5535 23.5781C53.2024 23.934 53.0056 24.4139 53.0056 24.9138C53.0056 25.4138 53.2024 25.8936 53.5535 26.2495C53.9045 26.6054 54.3816 26.8088 54.8815 26.8157C55.5464 26.8157 56.1296 26.4733 56.4699 25.9564V27.7702H54.8818V28.3973L57.0971 28.3969ZM56.1502 24.9133C56.1493 25.2495 56.0153 25.5717 55.7776 25.8094C55.5398 26.0471 55.2176 26.1811 54.8815 26.182C54.5452 26.1811 54.2231 26.0471 53.9854 25.8094C53.7476 25.5717 53.6137 25.2495 53.6127 24.9133C53.6137 24.577 53.7476 24.2549 53.9854 24.0172C54.2231 23.7795 54.5452 23.6455 54.8815 23.6445C55.2176 23.6455 55.5398 23.7795 55.7776 24.0172C56.0153 24.2549 56.1493 24.577 56.1502 24.9133ZM51.7561 22.0243C51.7561 22.2568 51.946 22.4468 52.1785 22.4468C52.4106 22.4468 52.6005 22.2568 52.6005 22.0243C52.6005 21.7922 52.4106 21.6023 52.1785 21.6023C51.946 21.6023 51.7561 21.7922 51.7561 22.0243ZM51.8617 26.6744H52.495V23.1525H51.8617V26.6744ZM49.5891 26.2174C48.9897 26.2174 48.6725 25.9355 48.6725 25.6532V25.5833H48.0396V25.6536C48.0396 26.2872 48.6022 26.8153 49.5891 26.8153C50.5756 26.8153 51.1387 26.2872 51.1387 25.6536C51.1387 24.1737 48.6725 24.8643 48.6725 24.1524C48.6725 23.8705 48.9897 23.6095 49.5891 23.6095C50.1881 23.6095 50.5053 23.8914 50.5053 24.1737V24.2435H51.1387V24.1733C51.1387 23.5396 50.5756 23.0115 49.5888 23.0115C48.6022 23.0115 48.0396 23.5396 48.0396 24.1733C48.0396 25.5826 50.5049 24.857 50.5049 25.6745C50.5049 25.9564 50.1877 26.2174 49.5891 26.2174ZM57.7639 26.6823H58.3983V24.529C58.4127 24.0345 58.8221 23.646 59.3873 23.646C59.9665 23.646 60.2351 24.0558 60.2351 24.5644V26.6823H60.8698V24.4223C60.8698 23.6387 60.3904 23.0113 59.4933 23.0113C58.7515 23.0113 58.3983 23.6456 58.3983 23.6456V23.1525H57.7639V26.6823ZM43.5928 26.6744V21.7432H42.9325V23.2296H40.1318V26.6827H43.5849V26.6744H43.5928ZM40.7922 26.022H42.9242V23.89H40.7922V26.022Z" fill="white"/>
</g>
<defs>
<filter id="filter0_b_284_14514" x="-4" y="-4" width="138" height="58" filterUnits="userSpaceOnUse" color-interpolation-filters="sRGB">
<feFlood flood-opacity="0" result="BackgroundImageFix"/>
<feGaussianBlur in="BackgroundImageFix" stdDeviation="2"/>
<feComposite in2="SourceAlpha" operator="in" result="effect1_backgroundBlur_284_14514"/>
<feBlend mode="normal" in="SourceGraphic" in2="effect1_backgroundBlur_284_14514" result="shape"/>
</filter>
</defs>
</svg>
