<svg width="130" height="50" viewBox="0 0 130 50" fill="none" xmlns="http://www.w3.org/2000/svg">
<g filter="url(#filter0_b_284_14431)">
<rect width="130" height="50" rx="7" fill="#5C5F8E" fill-opacity="0.2"/>
<mask id="mask0_284_14431" style="mask-type:luminance" maskUnits="userSpaceOnUse" x="20" y="17" width="90" height="16">
<path d="M109.5 17.4576H20.5V32.5424H109.5V17.4576Z" fill="white"/>
</mask>
<g mask="url(#mask0_284_14431)">
<path d="M35.5333 29.5254L32.527 32.5416L21.4056 32.5424L20.5 31.6335V20.4745L23.5069 17.4576H34.628L35.5333 18.3661V29.5254Z" fill="#ED1C24"/>
<path d="M34.6277 17.4575L31.2463 20.8503V25.8024L28.4765 21.9833H22.6378V23.1834H24.3589V27.7612L20.5 31.6333V32.5423L21.4053 32.5415L25.6559 28.2765V23.1834H27.3764V28.0163H28.6568V24.1971L31.4268 28.0163H32.5267V21.3826L35.5332 18.366L35.5331 17.4575H34.6277Z" fill="white"/>
<path d="M40.3439 23.4805H38.54V22.0152H43.8147V23.4805H42.011V28.0482H40.344L40.3439 23.4805Z" fill="white"/>
<path d="M44.6914 22.0156H49.5274V23.437H46.3407V24.3516H49.2266V25.6706H46.3407V26.6268H49.5706V28.0487H44.6914V22.0156Z" fill="white"/>
<path d="M52.3138 24.9805L50.3376 22.0156H52.2537L53.3186 23.7133L54.393 22.0156H56.265L54.2899 24.9633L56.3515 28.0486H54.4356L53.284 26.2303L52.1247 28.0486H50.252L52.3138 24.9805Z" fill="white"/>
<path d="M57.1396 22.0156H58.8061V24.2738H60.9455V22.0156H62.6119V28.0486H60.9455V25.7558H58.8061V28.0486H57.1396V22.0156Z" fill="white"/>
<path d="M63.6133 25.032C63.6133 23.2992 65.0052 21.8944 66.861 21.8944C68.7161 21.8944 70.0903 23.2823 70.0903 25.032C70.0903 26.7646 68.6987 28.1695 66.8437 28.1695C64.9875 28.1697 63.6133 26.7813 63.6133 25.032ZM68.3895 25.032C68.3895 24.1613 67.7623 23.4024 66.8437 23.4024C65.9322 23.4024 65.3228 24.1438 65.3228 25.032C65.3228 25.9028 65.9503 26.6603 66.8606 26.6603C67.7793 26.6604 68.3895 25.9198 68.3895 25.032Z" fill="white"/>
<path d="M71.0986 22.0156H72.7659V24.2738H74.9045V22.0156H76.5714V28.0486H74.9045V25.7558H72.7659V28.0486H71.0986V22.0156Z" fill="white"/>
<path d="M77.8672 22.0156H79.5171V25.4111L81.8454 22.0156H83.3995V28.0486H81.7504V24.6529L79.422 28.0486H77.8672V22.0156Z" fill="white"/>
<path d="M84.6973 22.0156H86.3634V24.4637L88.4338 22.0156H90.4099L88.1336 24.6096L90.4868 28.0487H88.4858L86.9739 25.8082L86.3634 26.4886V28.0489H84.6973V22.0156Z" fill="white"/>
<path d="M90.5 25.032C90.5 23.2992 91.8912 21.8944 93.7466 21.8944C95.602 21.8944 96.977 23.2823 96.977 25.032C96.977 26.7646 95.5847 28.1695 93.7296 28.1695C91.8738 28.1697 90.5 26.7813 90.5 25.032ZM95.2751 25.032C95.2751 24.1613 94.6491 23.4024 93.73 23.4024C92.8185 23.4024 92.2095 24.1438 92.2095 25.032C92.2095 25.9028 92.8359 26.6603 93.7466 26.6603C94.6657 26.6604 95.2751 25.9198 95.2751 25.032Z" fill="white"/>
<path d="M104.423 22.0156H106.089V23.9111H107C108.443 23.9111 109.5 24.6013 109.5 25.9622C109.5 27.2646 108.555 28.0487 107.086 28.0487H104.423V22.0156ZM106.957 26.644C107.507 26.644 107.833 26.3939 107.833 25.9199C107.833 25.4977 107.507 25.2218 106.965 25.2218H106.089V26.644H106.957Z" fill="white"/>
<path d="M98.452 22.0156V24.6622C98.452 25.2877 98.389 26.1926 97.9776 26.5126C97.7841 26.6625 97.4654 26.7775 97.2637 26.7775V28.1999H97.4217C97.9979 28.1999 98.6435 27.9674 98.8917 27.8094C99.8967 27.1692 100.021 25.9513 100.021 24.5756V23.4807H101.459V28.0484H103.126V22.0156H98.452Z" fill="white"/>
</g>
</g>
<defs>
<filter id="filter0_b_284_14431" x="-4" y="-4" width="138" height="58" filterUnits="userSpaceOnUse" color-interpolation-filters="sRGB">
<feFlood flood-opacity="0" result="BackgroundImageFix"/>
<feGaussianBlur in="BackgroundImageFix" stdDeviation="2"/>
<feComposite in2="SourceAlpha" operator="in" result="effect1_backgroundBlur_284_14431"/>
<feBlend mode="normal" in="SourceGraphic" in2="effect1_backgroundBlur_284_14431" result="shape"/>
</filter>
</defs>
</svg>
