<svg width="130" height="50" viewBox="0 0 130 50" fill="none" xmlns="http://www.w3.org/2000/svg">
<g filter="url(#filter0_b_284_14449)">
<rect width="130" height="50" rx="7" fill="#5C5F8E" fill-opacity="0.2"/>
<path fill-rule="evenodd" clip-rule="evenodd" d="M62.1407 30.5612C62.6958 30.3109 62.7125 29.9375 62.7125 29.6871V26.5614H65V29.8157C65 30.2385 64.8622 30.7117 63.9425 31.099C62.7305 31.6157 60.84 31.636 59.7299 31.636C58.6211 31.636 56.7314 31.6157 55.5169 31.099C54.5995 30.7117 54.4607 30.2385 54.4607 29.8157V26.5614H56.7476V29.6871C56.7476 29.9654 56.7672 30.3031 57.338 30.5612C57.98 30.8479 59.0205 30.8833 59.7299 30.8833C60.3892 30.8833 61.5169 30.8479 62.1407 30.5612ZM22.0296 31.6359C21.6391 31.6359 21.1971 31.6001 20.9255 31.5059C20.7379 31.4401 20.5 31.3029 20.5 31.0857V26.5614H22.7448V30.5995C22.7448 30.6044 22.7447 30.6095 22.7445 30.6148C22.7431 30.6734 22.7411 30.7575 22.8971 30.8169C22.9648 30.8392 24.0575 30.8751 24.4139 30.8751H29.8684V31.635L34.3539 27.1269C34.7781 26.7049 35.2384 26.5614 36.3078 26.5614C37.3278 26.5614 37.8371 26.7049 38.2626 27.1269L42.749 31.636H40.3868L39.1634 30.3682H33.4365L32.2297 31.636H29.8684L22.0296 31.6359ZM35.9815 27.6363L35.9678 27.6507L34.0131 29.6943H38.5855L36.6484 27.6507L36.6328 27.6344C36.5623 27.5606 36.45 27.4431 36.3078 27.4431C36.1648 27.4431 36.0513 27.5627 35.9815 27.6363ZM44.8007 31.636C44.2472 31.636 43.1401 31.6142 43.1401 31.1132C43.1401 30.8024 43.5372 30.5855 43.8844 30.4322L50.4937 27.5694C50.5982 27.5264 50.7018 27.4678 50.7018 27.4171C50.7018 27.3879 50.6502 27.3231 50.3736 27.3231H43.6078V26.5614H52.3116C52.9873 26.5614 53.6796 26.6695 53.6796 27.0837C53.6796 27.4028 53.3462 27.5493 53.0082 27.6979L52.9873 27.707L46.2894 30.6639L46.2878 30.6645C46.2022 30.7009 46.1162 30.7375 46.1162 30.7951C46.1162 30.8606 46.2203 30.8745 46.324 30.8745H53.4888V31.6359L44.8007 31.636ZM66.6633 26.7644C66.1886 26.9601 66.1711 27.2138 66.1711 27.4242L66.1707 31.636H68.4113V27.6855C68.4113 27.5844 68.4113 27.4899 68.6486 27.4033C68.8344 27.3301 69.0054 27.3227 69.2431 27.3227H72.8745C73.2313 27.3227 73.7743 27.3227 74.1295 27.4747C74.368 27.5764 74.5546 27.7797 74.5546 28.1781C74.5546 28.3527 74.5203 28.7143 74.2837 28.8746C73.9781 29.0778 73.4515 29.0992 73.0615 29.0992H70.8217C70.1776 29.0992 69.8204 29.244 69.8204 29.4475V29.563C69.8204 29.7074 70.1421 29.8886 70.3798 29.9906L74.2837 31.6359H77.1005L72.5872 29.8454V29.8088H74.1151C75.4696 29.8088 76.0485 29.534 76.3534 29.2878C76.8292 28.9101 76.8628 28.5114 76.8628 28.1425C76.8628 27.7722 76.8288 27.3736 76.2683 27.0251C75.5738 26.5822 74.5546 26.5614 73.7232 26.5614H68.0885C67.6493 26.5614 67.0896 26.5895 66.6633 26.7644ZM79.8337 26.5614H77.882V31.636H79.8337V26.5614ZM84.9485 27.3217V31.636H87.2344V27.3217H91.5443V26.5614H80.6144V27.3217H84.9485Z" fill="white"/>
<path d="M109.5 17.5833H94.667V32.4166H109.5V17.5833Z" fill="white"/>
<path fill-rule="evenodd" clip-rule="evenodd" d="M98.4021 27.7442C98.4021 28.0281 98.411 28.3119 98.4204 28.5468L98.4509 29.2938H98.9099L98.7963 27.3421H98.1831L97.9614 27.9906C97.8934 28.2078 97.8228 28.4656 97.7638 28.6913H97.7545C97.7084 28.4626 97.6436 28.2192 97.5796 27.9935L97.3758 27.3421H96.7501L96.6182 29.2939H97.0522L97.0893 28.5526C97.0999 28.3875 97.1077 28.196 97.1151 28.0074C97.1186 27.9179 97.1225 27.8291 97.126 27.7442H97.1323C97.1818 27.9993 97.2533 28.2771 97.32 28.5061L97.5425 29.2619H97.9091L98.1612 28.5002C98.242 28.2714 98.3283 27.9935 98.3927 27.7442H98.4021ZM99.5872 28.4684H100.402V28.1095H99.5872V27.7042H100.451V27.3421H99.0864V29.2939H100.496V28.9318H99.5872V28.4684ZM102.089 27.3421V27.6973H101.154V28.0299C101.226 28.0211 101.327 28.0158 101.412 28.0158C101.628 28.0158 101.852 28.0643 102.013 28.1732C102.162 28.2707 102.26 28.4223 102.26 28.6346C102.26 28.8239 102.181 28.9698 102.057 29.0702C101.852 29.2365 101.517 29.2939 101.192 29.2939C100.955 29.2939 100.78 29.2794 100.673 29.265V27.3421H102.089ZM101.15 28.9559C101.204 28.964 101.27 28.9669 101.337 28.9669C101.453 28.9669 101.571 28.9326 101.65 28.8666C101.713 28.8155 101.753 28.7377 101.753 28.6432C101.753 28.5459 101.709 28.4742 101.64 28.4254C101.555 28.3653 101.435 28.3391 101.321 28.3391C101.267 28.3391 101.21 28.3425 101.15 28.3508V28.9559ZM103.05 28.4684H103.763V28.1095H103.05V27.7042H103.806V27.3421H102.612V29.2939H103.846V28.9318H103.05V28.4684ZM105.609 27.3421V29.2654H105.195V27.6988H104.778V28.1555C104.778 28.649 104.718 29.0284 104.439 29.1997C104.347 29.2539 104.221 29.2939 104.074 29.2939L104.022 28.9426C104.112 28.9314 104.186 28.8913 104.232 28.8402C104.344 28.7204 104.371 28.4751 104.371 28.184V27.3421H105.609ZM106.565 28.0126V27.3421H106.138V29.265C106.233 29.2794 106.391 29.2939 106.602 29.2939C106.896 29.2939 107.214 29.2365 107.396 29.0474C107.489 28.9468 107.548 28.8097 107.548 28.6259C107.548 28.1961 107.203 27.9985 106.795 27.9985C106.714 27.9985 106.624 28.0069 106.565 28.0126ZM106.722 28.9669C106.66 28.9669 106.61 28.964 106.562 28.9559V28.3451C106.615 28.3391 106.665 28.3336 106.728 28.3336C106.933 28.3336 107.099 28.4254 107.099 28.646C107.099 28.8642 106.93 28.9669 106.722 28.9669Z" fill="#1257A1"/>
</g>
<defs>
<filter id="filter0_b_284_14449" x="-4" y="-4" width="138" height="58" filterUnits="userSpaceOnUse" color-interpolation-filters="sRGB">
<feFlood flood-opacity="0" result="BackgroundImageFix"/>
<feGaussianBlur in="BackgroundImageFix" stdDeviation="2"/>
<feComposite in2="SourceAlpha" operator="in" result="effect1_backgroundBlur_284_14449"/>
<feBlend mode="normal" in="SourceGraphic" in2="effect1_backgroundBlur_284_14449" result="shape"/>
</filter>
</defs>
</svg>
