<svg width="57" height="24" viewBox="0 0 57 24" fill="none" xmlns="http://www.w3.org/2000/svg">
<g clip-path="url(#clip0_51_3415)">
<path d="M23.9931 11.9052C23.9931 10.4517 23.7187 9.0653 23.2402 7.7794C23.1136 12.012 18.8263 15.289 16.3091 17.4576H22.6097C23.4904 15.8019 23.9931 13.9128 23.9931 11.9052ZM19.4383 2.58534C17.4434 1.027 14.9422 0.0898438 12.218 0.0898438C5.71457 0.0898438 0.442383 5.38005 0.442383 11.9052C0.442383 18.4303 5.71457 23.7203 12.218 23.7203C15.196 23.7203 17.9076 22.6024 19.9813 20.7727H11.4562L11.4301 18.2606C16.5669 13.7799 19.7158 10.7496 19.7158 7.82263C19.7158 6.73487 19.3029 5.36221 17.4447 5.36221C15.9732 5.36221 14.5535 6.21752 14.8115 9.79125H11.8177C11.0689 5.64757 13.3146 2.35798 17.599 2.35798C18.2633 2.35798 18.8776 2.43751 19.4383 2.58534Z" fill="#A3C626"/>
<path d="M34.915 8.25591H37.7002C37.7954 6.13023 37.0815 2.76172 32.4871 2.76172C29.1063 2.76172 26.6543 4.79248 26.6543 9.02031C26.6543 9.59365 26.6779 12.5556 26.6779 14.3948C26.6779 18.9817 29.8445 19.9847 32.5108 19.9847C34.1058 19.9847 36.415 19.6263 37.486 18.4559V11.1463H32.2487V13.7978H34.582V17.0228C32.8201 17.6198 29.6061 17.8589 29.6061 13.7978V9.02031C29.6061 6.17776 30.9157 5.19845 32.3676 5.19845C33.8675 5.19845 34.915 5.96286 34.915 8.25591ZM55.6327 15.3503C55.7515 8.80556 48.2769 10.9789 48.3477 7.32429C48.3715 6.0347 49.2049 5.19845 50.5621 5.19845C52.0141 5.19845 52.8707 6.05839 52.8469 8.30406H55.5847C55.6563 6.27329 55.1801 2.80971 50.6573 2.80971C47.8481 2.80971 45.5391 4.19545 45.4912 7.27675C45.3723 13.5586 52.8949 11.5046 52.7761 15.3027C52.7281 16.8552 51.6089 17.548 50.3476 17.548C48.8719 17.548 47.6814 16.688 47.9197 14.1082H45.1575C44.8482 17.5243 46.3482 19.961 50.3239 19.961C53.6803 19.961 55.5847 18.0973 55.6327 15.3503ZM43.0562 19.7455H40.2476V3.02462H43.0562V19.7455ZM43.0562 19.7455H40.2476V3.02462H43.0562V19.7455Z" fill="#E3E3E3"/>
</g>
<defs>
<clipPath id="clip0_51_3415">
<rect width="56.2649" height="23.6905" fill="white" transform="translate(0.442383 0.0595703)"/>
</clipPath>
</defs>
</svg>
