<svg width="25" height="24" viewBox="0 0 25 24" fill="none" xmlns="http://www.w3.org/2000/svg">
<g clip-path="url(#clip0_51_3449)">
<path d="M12.7395 23.8095C19.2157 23.9043 24.5372 18.6095 24.6324 11.988C24.5253 5.35463 19.2038 0.0598108 12.7395 0.154573C6.26335 0.0598108 0.941918 5.35463 0.84668 11.988C0.941918 18.6095 6.26335 23.9043 12.7395 23.8095Z" fill="#FFC800"/>
<path d="M17.8471 20.8011C13.8114 23.1227 9.43043 23.5373 6.63281 22.1514C10.3471 24.3547 14.9304 24.3783 18.6685 22.2344C22.3709 20.1496 24.6566 16.1459 24.609 11.8105C24.4423 14.914 21.8828 18.4794 17.8471 20.8011Z" fill="black"/>
<path d="M14.2398 1.03068C15.0613 2.44027 13.0851 5.10545 9.82316 6.97699C6.56126 8.84854 3.26364 9.22759 2.44221 7.818C2.4065 7.74693 2.37078 7.67586 2.34697 7.60479C2.19221 6.74009 2.4303 5.86354 3.00173 5.20021C3.09697 5.05807 3.20411 4.92777 3.31126 4.78562C4.26364 3.55372 5.45412 2.52318 6.79935 1.75324C8.14459 0.959613 9.63269 0.462113 11.1684 0.260743C11.347 0.237053 11.5136 0.213363 11.6803 0.201517C12.5374 0.0475292 13.4184 0.272589 14.097 0.84116C14.1446 0.900386 14.2041 0.959613 14.2398 1.03068Z" fill="black"/>
<path d="M19.2985 2.54773C20.7271 5.01154 17.8461 9.32321 12.858 12.1898C7.86993 15.0563 2.66755 15.3761 1.25088 12.9123C1.01279 12.4977 0.881836 12.0358 0.858026 11.5501C0.798503 13.244 1.09612 14.926 1.75088 16.4896C1.84612 16.7265 1.95326 16.9634 2.07231 17.2003L2.08422 17.2358C2.5366 17.9821 3.17946 18.5862 3.94136 18.9771C6.73898 20.4696 11.4652 19.9602 15.8937 17.4135C20.3104 14.8786 23.1199 11.0526 23.2271 7.90178C23.2747 7.03708 23.0723 6.18422 22.6437 5.43797C22.4771 5.20107 22.3104 4.96416 22.1318 4.7391C21.0961 3.41244 19.7985 2.32267 18.3223 1.55273C18.7271 1.80148 19.0604 2.145 19.2985 2.54773Z" fill="black"/>
<path d="M12.7395 23.8095C19.2157 23.9043 24.5372 18.6095 24.6324 11.988C24.5253 5.35463 19.2038 0.0598108 12.7395 0.154573C6.26335 0.0598108 0.941918 5.35463 0.84668 11.988C0.941918 18.6095 6.26335 23.9043 12.7395 23.8095Z" fill="url(#paint0_radial_51_3449)"/>
</g>
<defs>
<radialGradient id="paint0_radial_51_3449" cx="0" cy="0" r="1" gradientUnits="userSpaceOnUse" gradientTransform="translate(12.7371 11.9862) scale(11.8854 11.8299)">
<stop offset="0.5" stop-color="white" stop-opacity="0"/>
<stop offset="1" stop-color="white" stop-opacity="0.35"/>
</radialGradient>
<clipPath id="clip0_51_3449">
<rect width="23.6905" height="23.6905" fill="white" transform="translate(0.942383 0.154297)"/>
</clipPath>
</defs>
</svg>
