<svg width="24" height="24" viewBox="0 0 24 24" fill="none" xmlns="http://www.w3.org/2000/svg">
<g clip-path="url(#clip0_51_3379)">
<path d="M0 12.0952C0 8.95369 1.24798 5.9408 3.46939 3.71939C5.6908 1.49798 8.70369 0.25 11.8452 0.25C14.9868 0.25 17.9997 1.49798 20.2211 3.71939C22.4425 5.9408 23.6905 8.95369 23.6905 12.0952C23.6905 15.2368 22.4425 18.2497 20.2211 20.4711C17.9997 22.6925 14.9868 23.9405 11.8452 23.9405C8.70369 23.9405 5.6908 22.6925 3.46939 20.4711C1.24798 18.2497 0 15.2368 0 12.0952Z" fill="#1A4A7F"/>
<path fill-rule="evenodd" clip-rule="evenodd" d="M9.90811 23.7803C7.53394 23.3904 5.3354 22.2849 3.60645 20.6117L14.279 10.8157L8.17871 12.2964C7.77491 12.3956 7.35539 12.4135 6.94461 12.349C6.53382 12.2844 6.14 12.1387 5.78609 11.9204C5.43218 11.7021 5.12527 11.4156 4.88324 11.0775C4.64121 10.7393 4.46891 10.3564 4.37639 9.95101C4.18882 9.12611 4.33259 8.26054 4.77675 7.54057C5.22092 6.8206 5.92998 6.30377 6.75136 6.10131L19.4495 3.01562C20.996 4.31059 22.1861 5.97902 22.9072 7.86279C23.6283 9.74657 23.8564 11.7833 23.5699 13.7799C23.2834 15.7765 22.4918 17.6669 21.2701 19.2719C20.0484 20.8769 18.4371 22.1433 16.5888 22.9512C16.5533 22.5307 16.5948 22.0924 16.7428 21.666L18.7565 15.6604L9.90811 23.7803Z" fill="url(#paint0_linear_51_3379)"/>
</g>
<defs>
<linearGradient id="paint0_linear_51_3379" x1="29.0559" y1="1.74819" x2="-11.4962" y2="38.96" gradientUnits="userSpaceOnUse">
<stop stop-color="#FFB800"/>
<stop offset="1" stop-color="#FFF11D"/>
</linearGradient>
<clipPath id="clip0_51_3379">
<rect width="23.6905" height="23.6905" fill="white" transform="translate(0 0.25)"/>
</clipPath>
</defs>
</svg>
