<svg width="25" height="24" viewBox="0 0 25 24" fill="none" xmlns="http://www.w3.org/2000/svg">
<g clip-path="url(#clip0_51_3400)">
<path d="M15.0721 14.3797C13.2107 16.3003 13.0753 18.6947 12.9145 23.9405C17.8049 23.9405 21.1808 23.9236 22.9238 22.2314C24.6159 20.4884 24.6329 16.9518 24.6329 12.2222C19.3871 12.3914 16.9927 12.5183 15.0721 14.3797ZM0.942383 12.2222C0.942383 16.9518 0.959305 20.4884 2.65148 22.2314C4.39442 23.9236 7.77032 23.9405 12.6607 23.9405C12.4915 18.6947 12.3646 16.3003 10.5032 14.3797C8.58256 12.5183 6.18813 12.3829 0.942383 12.2222ZM12.6607 0.25C7.77878 0.25 4.39442 0.266922 2.65148 1.9591C0.959305 3.70204 0.942383 7.23869 0.942383 11.9683C6.18813 11.7991 8.58256 11.6722 10.5032 9.8108C12.3646 7.89018 12.5 5.49575 12.6607 0.25ZM15.0721 9.8108C13.2107 7.89018 13.0753 5.49575 12.9145 0.25C17.8049 0.25 21.1808 0.266922 22.9238 1.9591C24.6159 3.70204 24.6329 7.23869 24.6329 11.9683C19.3871 11.7991 16.9927 11.6722 15.0721 9.8108Z" fill="#2C3036"/>
<path d="M24.6329 12.2222V11.9683C19.3871 11.7991 16.9927 11.6722 15.0721 9.8108C13.2107 7.89018 13.0753 5.49575 12.9145 0.25H12.6607C12.4915 5.49575 12.3646 7.89018 10.5032 9.8108C8.58256 11.6722 6.18813 11.8076 0.942383 11.9683V12.2222C6.18813 12.3914 8.58256 12.5183 10.5032 14.3797C12.3646 16.3003 12.5 18.6947 12.6607 23.9405H12.9145C13.0838 18.6947 13.2107 16.3003 15.0721 14.3797C16.9927 12.5183 19.3871 12.3829 24.6329 12.2222Z" fill="white"/>
</g>
<defs>
<clipPath id="clip0_51_3400">
<rect width="23.6905" height="23.6905" fill="white" transform="translate(0.942383 0.25)"/>
</clipPath>
</defs>
</svg>
