<svg width="24" height="24" viewBox="0 0 24 24" fill="none" xmlns="http://www.w3.org/2000/svg">
<g clip-path="url(#clip0_51_3445)">
<path d="M6.00729 23.761C4.5984 23.6969 3.83306 23.4625 3.324 23.2639C2.64949 23.0013 2.16859 22.6887 1.66235 22.1831C1.15611 21.6776 0.842794 21.1967 0.581577 20.5222C0.383024 20.0131 0.148563 19.2478 0.0844907 17.8389C0.0140818 16.316 0 15.859 0 12.0006C0 8.14218 0.01549 7.68594 0.0837866 6.16158C0.147859 4.7527 0.383728 3.98876 0.580873 3.4783C0.843498 2.80378 1.15682 2.32289 1.66165 1.81595C2.16719 1.31041 2.64808 0.996387 3.3233 0.73517C3.83236 0.536617 4.5977 0.302156 6.00658 0.238083C7.53023 0.168379 7.98789 0.154297 11.8449 0.154297C15.7033 0.154297 16.1595 0.169787 17.6839 0.238083C19.0928 0.302156 19.8567 0.538025 20.3672 0.73517C21.0417 0.996387 21.5226 1.31041 22.0288 1.81595C22.5351 2.32148 22.847 2.80308 23.1096 3.4776C23.3082 3.98665 23.5426 4.752 23.6067 6.16088C23.6764 7.68523 23.6905 8.14148 23.6905 11.9999C23.6905 15.8569 23.6764 16.3145 23.6067 17.8389C23.5426 19.2478 23.3067 20.0131 23.1096 20.5222C22.847 21.1967 22.5344 21.6776 22.0288 22.1831C21.5233 22.6887 21.0417 23.0013 20.3672 23.2639C19.8581 23.4625 19.0928 23.6969 17.6839 23.761C16.161 23.8307 15.7033 23.8448 11.8449 23.8448C7.98789 23.8448 7.53023 23.8314 6.00729 23.761Z" fill="url(#paint0_radial_51_3445)"/>
<path d="M6.00729 23.761C4.5984 23.6969 3.83306 23.4625 3.324 23.2639C2.64949 23.0013 2.16859 22.6887 1.66235 22.1831C1.15611 21.6776 0.842794 21.1967 0.581577 20.5222C0.383024 20.0131 0.148563 19.2478 0.0844907 17.8389C0.0140818 16.316 0 15.859 0 12.0006C0 8.14218 0.01549 7.68594 0.0837866 6.16158C0.147859 4.7527 0.383728 3.98876 0.580873 3.4783C0.843498 2.80378 1.15682 2.32289 1.66165 1.81595C2.16719 1.31041 2.64808 0.996387 3.3233 0.73517C3.83236 0.536617 4.5977 0.302156 6.00658 0.238083C7.53023 0.168379 7.98789 0.154297 11.8449 0.154297C15.7033 0.154297 16.1595 0.169787 17.6839 0.238083C19.0928 0.302156 19.8567 0.538025 20.3672 0.73517C21.0417 0.996387 21.5226 1.31041 22.0288 1.81595C22.5351 2.32148 22.847 2.80308 23.1096 3.4776C23.3082 3.98665 23.5426 4.752 23.6067 6.16088C23.6764 7.68523 23.6905 8.14148 23.6905 11.9999C23.6905 15.8569 23.6764 16.3145 23.6067 17.8389C23.5426 19.2478 23.3067 20.0131 23.1096 20.5222C22.847 21.1967 22.5344 21.6776 22.0288 22.1831C21.5233 22.6887 21.0417 23.0013 20.3672 23.2639C19.8581 23.4625 19.0928 23.6969 17.6839 23.761C16.161 23.8307 15.7033 23.8448 11.8449 23.8448C7.98789 23.8448 7.53023 23.8314 6.00729 23.761Z" fill="url(#paint1_radial_51_3445)"/>
<path d="M8.93624 12.0501C8.93624 10.43 10.2493 9.1162 11.8695 9.1162C13.4896 9.1162 14.8034 10.43 14.8034 12.0501C14.8034 13.6703 13.4896 14.9841 11.8695 14.9841C10.2493 14.9841 8.93624 13.6703 8.93624 12.0501ZM7.35021 12.0501C7.35021 14.5461 9.37348 16.5694 11.8695 16.5694C14.3655 16.5694 16.3887 14.5461 16.3887 12.0501C16.3887 9.55414 14.3655 7.53087 11.8695 7.53087C9.37348 7.53087 7.35028 9.554 7.35028 12.0501M15.5116 7.35168C15.5115 7.56056 15.5734 7.76478 15.6893 7.93851C15.8053 8.11223 15.9702 8.24767 16.1632 8.32768C16.3561 8.40769 16.5685 8.42869 16.7733 8.38802C16.9782 8.34735 17.1665 8.24684 17.3142 8.0992C17.462 7.95156 17.5626 7.76341 17.6035 7.55856C17.6443 7.3537 17.6235 7.14134 17.5436 6.94833C17.4638 6.75531 17.3285 6.59031 17.1548 6.47419C16.9812 6.35807 16.777 6.29605 16.5681 6.29597H16.5677C16.2877 6.2961 16.0192 6.40735 15.8212 6.6053C15.6232 6.80324 15.5118 7.07169 15.5116 7.35168ZM8.31382 19.2141C7.45575 19.175 6.98936 19.0321 6.67942 18.9113C6.26851 18.7514 5.97533 18.5608 5.66708 18.253C5.35883 17.9452 5.16802 17.6523 5.00876 17.2414C4.88794 16.9316 4.74501 16.4651 4.706 15.607C4.66333 14.6793 4.65481 14.4006 4.65481 12.0503C4.65481 9.69996 4.66404 9.42205 4.706 8.49357C4.74508 7.6355 4.88906 7.16988 5.00876 6.85917C5.16873 6.44826 5.35925 6.15508 5.66708 5.84683C5.97491 5.53858 6.26781 5.34777 6.67942 5.18851C6.98922 5.06769 7.45575 4.92475 8.31382 4.88575C9.24153 4.84308 9.52021 4.83456 11.8695 4.83456C14.2187 4.83456 14.4977 4.84364 15.4262 4.88589C16.2842 4.92497 16.7499 5.06895 17.0606 5.18865C17.4715 5.34791 17.7647 5.53914 18.0729 5.84697C18.3812 6.1548 18.5713 6.4484 18.7312 6.85931C18.8521 7.16911 18.995 7.63564 19.034 8.49371C19.0767 9.42219 19.0852 9.7001 19.0852 12.0504C19.0852 14.4007 19.0767 14.6786 19.034 15.6071C18.9949 16.4652 18.8513 16.9316 18.7312 17.2415C18.5713 17.6524 18.3807 17.9456 18.0729 18.2532C17.7651 18.5607 17.4715 18.7515 17.0606 18.9115C16.7508 19.0323 16.2842 19.1752 15.4262 19.2142C14.4985 19.2569 14.2198 19.2654 11.8695 19.2654C9.51915 19.2654 9.24125 19.2569 8.31382 19.2142M8.24095 3.30232C7.30402 3.34499 6.66379 3.49355 6.10467 3.71112C5.52598 3.93579 5.03544 4.23721 4.54561 4.72627C4.05577 5.21533 3.75513 5.70594 3.53045 6.28534C3.31289 6.84481 3.16433 7.48468 3.12166 8.42161C3.07829 9.36002 3.06836 9.66003 3.06836 12.0501C3.06836 14.4402 3.07829 14.7402 3.12166 15.6787C3.16433 16.6157 3.31289 17.2555 3.53045 17.8149C3.75513 18.3936 4.05584 18.8851 4.54561 19.374C5.03537 19.8628 5.52528 20.1638 6.10467 20.3892C6.66485 20.6067 7.30402 20.7553 8.24095 20.7979C9.17985 20.8406 9.47937 20.8512 11.8695 20.8512C14.2596 20.8512 14.5596 20.8413 15.498 20.7979C16.435 20.7553 17.0748 20.6067 17.6343 20.3892C18.213 20.1638 18.7035 19.8631 19.1933 19.374C19.6832 18.8849 19.9832 18.3936 20.2085 17.8149C20.426 17.2555 20.5753 16.6156 20.6173 15.6787C20.6599 14.7395 20.6699 14.4402 20.6699 12.0501C20.6699 9.66003 20.6599 9.36002 20.6173 8.42161C20.5746 7.48461 20.426 6.84445 20.2085 6.28534C19.9832 5.70665 19.6824 5.21611 19.1933 4.72627C18.7043 4.23644 18.213 3.93579 17.635 3.71112C17.0748 3.49355 16.4349 3.34429 15.4987 3.30232C14.5601 3.25944 14.2603 3.24902 11.8705 3.24902C9.48078 3.24902 9.1802 3.25895 8.2413 3.30232" fill="white"/>
</g>
<defs>
<radialGradient id="paint0_radial_51_3445" cx="0" cy="0" r="1" gradientUnits="userSpaceOnUse" gradientTransform="translate(1.53322 23.3258) scale(30.0781)">
<stop offset="0.09" stop-color="#FA8F21"/>
<stop offset="0.78" stop-color="#D82D7E"/>
</radialGradient>
<radialGradient id="paint1_radial_51_3445" cx="0" cy="0" r="1" gradientUnits="userSpaceOnUse" gradientTransform="translate(16.4096 22.5651) scale(26.469)">
<stop offset="0.64" stop-color="#8C3AAA" stop-opacity="0"/>
<stop offset="1" stop-color="#8C3AAA"/>
</radialGradient>
<clipPath id="clip0_51_3445">
<rect width="23.6905" height="23.6905" fill="white" transform="translate(0 0.154297)"/>
</clipPath>
</defs>
</svg>
