<svg width="137" height="40" viewBox="0 0 137 40" fill="none" xmlns="http://www.w3.org/2000/svg">
<path d="M122.047 27V16.3652H124.068V18.0742H124.225C124.459 17.4688 124.833 17 125.348 16.668C125.868 16.3294 126.48 16.1602 127.184 16.1602C127.893 16.1602 128.499 16.3294 129 16.668C129.501 17.0065 129.872 17.4753 130.113 18.0742H130.279C130.553 17.4883 130.976 17.0228 131.549 16.6777C132.128 16.3327 132.783 16.1602 133.512 16.1602C134.586 16.1602 135.419 16.4694 136.012 17.0879C136.611 17.7064 136.91 18.569 136.91 19.6758V27H134.811V20.2227C134.811 18.7969 134.124 18.084 132.75 18.084C132.079 18.084 131.536 18.2956 131.119 18.7188C130.709 19.1419 130.504 19.6725 130.504 20.3105V27H128.443V20.0176C128.443 19.4186 128.258 18.9466 127.887 18.6016C127.516 18.2565 127.018 18.084 126.393 18.084C125.755 18.084 125.221 18.3151 124.791 18.7773C124.361 19.2396 124.146 19.8125 124.146 20.4961V27H122.047Z" fill="white"/>
<path d="M114.215 25.4082C115.003 25.4082 115.657 25.1868 116.178 24.7441C116.705 24.3014 116.969 23.748 116.969 23.084V22.1953L114.371 22.3613C113.642 22.4069 113.105 22.5566 112.76 22.8105C112.415 23.0645 112.242 23.4258 112.242 23.8945C112.242 24.3633 112.424 24.7344 112.789 25.0078C113.154 25.2747 113.629 25.4082 114.215 25.4082ZM113.678 27.1758C112.636 27.1758 111.783 26.8861 111.119 26.3066C110.462 25.7207 110.133 24.9492 110.133 23.9922C110.133 23.0417 110.475 22.2962 111.158 21.7559C111.842 21.209 112.818 20.8965 114.088 20.8184L116.969 20.6523V19.7344C116.969 19.168 116.783 18.735 116.412 18.4355C116.041 18.1296 115.501 17.9766 114.791 17.9766C114.205 17.9766 113.717 18.0807 113.326 18.2891C112.942 18.4909 112.691 18.7806 112.574 19.1582H110.543C110.647 18.2467 111.093 17.5208 111.881 16.9805C112.675 16.4336 113.678 16.1602 114.889 16.1602C116.217 16.1602 117.242 16.4759 117.965 17.1074C118.694 17.7324 119.059 18.6081 119.059 19.7344V27H117.037V25.5059H116.871C116.552 26.0397 116.113 26.4531 115.553 26.7461C114.999 27.0326 114.374 27.1758 113.678 27.1758Z" fill="white"/>
<path d="M102.926 27V16.3652H104.947V17.9961H105.104C105.253 17.4688 105.595 17.0358 106.129 16.6973C106.663 16.3587 107.275 16.1895 107.965 16.1895C108.355 16.1895 108.665 16.2188 108.893 16.2773V18.3477C108.652 18.263 108.264 18.2207 107.73 18.2207C106.936 18.2207 106.285 18.4518 105.777 18.9141C105.276 19.3763 105.025 19.9785 105.025 20.7207V27H102.926Z" fill="white"/>
<path d="M97.8184 21.5508C97.8184 20.4896 97.5612 19.6465 97.0469 19.0215C96.5326 18.39 95.8294 18.0742 94.9375 18.0742C94.0456 18.0742 93.3522 18.3867 92.8574 19.0117C92.3626 19.6302 92.1152 20.4766 92.1152 21.5508C92.1152 22.625 92.3626 23.4746 92.8574 24.0996C93.3522 24.7181 94.0456 25.0273 94.9375 25.0273C95.8294 25.0273 96.5326 24.7148 97.0469 24.0898C97.5612 23.4648 97.8184 22.6185 97.8184 21.5508ZM94.9668 31.0625C93.6517 31.0625 92.584 30.7891 91.7637 30.2422C90.9434 29.7018 90.4779 28.9759 90.3672 28.0645H92.5156C92.6068 28.4551 92.8672 28.7643 93.2969 28.9922C93.7331 29.2201 94.2995 29.334 94.9961 29.334C95.8685 29.334 96.5488 29.1354 97.0371 28.7383C97.5319 28.3477 97.7793 27.8008 97.7793 27.0977V25.0566H97.623C97.304 25.6296 96.8613 26.0723 96.2949 26.3848C95.7285 26.6908 95.0775 26.8438 94.3418 26.8438C92.9941 26.8438 91.9232 26.3652 91.1289 25.4082C90.3411 24.4447 89.9473 23.1621 89.9473 21.5605C89.9473 19.9329 90.3444 18.6309 91.1387 17.6543C91.9329 16.6777 93.0072 16.1895 94.3613 16.1895C95.0905 16.1895 95.7546 16.3587 96.3535 16.6973C96.9525 17.0293 97.4017 17.485 97.7012 18.0645H97.8672V16.3652H99.8789V27.0879C99.8789 28.3053 99.4362 29.2721 98.5508 29.9883C97.6654 30.7044 96.4707 31.0625 94.9668 31.0625Z" fill="white"/>
<path d="M85.0742 18.6992C84.6055 18.1979 83.9837 17.9473 83.209 17.9473C82.4342 17.9473 81.7962 18.1979 81.2949 18.6992C80.7936 19.2005 80.5137 19.8678 80.4551 20.7012H85.8262C85.8001 19.8613 85.5495 19.194 85.0742 18.6992ZM85.8164 24.1289H87.8379C87.597 25.0859 87.0697 25.8379 86.2559 26.3848C85.4486 26.9316 84.4395 27.2051 83.2285 27.2051C81.7051 27.2051 80.5039 26.7168 79.625 25.7402C78.7526 24.7572 78.3164 23.416 78.3164 21.7168C78.3164 20.0176 78.7591 18.6667 79.6445 17.6641C80.5299 16.6615 81.7214 16.1602 83.2188 16.1602C84.6966 16.1602 85.8555 16.6354 86.6953 17.5859C87.5417 18.5365 87.9648 19.8483 87.9648 21.5215V22.2539H80.4551V22.3711C80.4876 23.3086 80.7578 24.0508 81.2656 24.5977C81.7734 25.1445 82.4473 25.418 83.2871 25.418C84.5697 25.418 85.4128 24.9883 85.8164 24.1289Z" fill="white"/>
<path d="M73.5898 27V12.2148H75.6895V27H73.5898Z" fill="white"/>
<path d="M68.082 18.6992C67.6133 18.1979 66.9915 17.9473 66.2168 17.9473C65.4421 17.9473 64.804 18.1979 64.3027 18.6992C63.8014 19.2005 63.5215 19.8678 63.4629 20.7012H68.834C68.8079 19.8613 68.5573 19.194 68.082 18.6992ZM68.8242 24.1289H70.8457C70.6048 25.0859 70.0775 25.8379 69.2637 26.3848C68.4564 26.9316 67.4473 27.2051 66.2363 27.2051C64.7129 27.2051 63.5117 26.7168 62.6328 25.7402C61.7604 24.7572 61.3242 23.416 61.3242 21.7168C61.3242 20.0176 61.7669 18.6667 62.6523 17.6641C63.5378 16.6615 64.7292 16.1602 66.2266 16.1602C67.7044 16.1602 68.8633 16.6354 69.7031 17.5859C70.5495 18.5365 70.9727 19.8483 70.9727 21.5215V22.2539H63.4629V22.3711C63.4954 23.3086 63.7656 24.0508 64.2734 24.5977C64.7812 25.1445 65.4551 25.418 66.2949 25.418C67.5775 25.418 68.4206 24.9883 68.8242 24.1289Z" fill="white"/>
<path d="M56.5293 27H54.3418V14.9004H49.9082V12.9082H60.9531V14.9004H56.5293V27Z" fill="white"/>
<path d="M20 40C31.0457 40 40 31.0457 40 20C40 8.95431 31.0457 0 20 0C8.95431 0 0 8.95431 0 20C0 31.0457 8.95431 40 20 40Z" fill="url(#paint0_linear_110_5243)"/>
<path d="M29.9803 11.7288C30.1583 10.5781 29.0643 9.66988 28.0412 10.1191L7.6635 19.066C6.9298 19.3881 6.98347 20.4995 7.74443 20.7418L11.9468 22.0801C12.7489 22.3355 13.6173 22.2034 14.3178 21.7195L23.7923 15.1738C24.078 14.9764 24.3895 15.3827 24.1453 15.6342L17.3253 22.6657C16.6638 23.3478 16.795 24.5037 17.5909 25.0027L25.2266 29.791C26.083 30.328 27.1848 29.7885 27.3449 28.7535L29.9803 11.7288Z" fill="white"/>
<defs>
<linearGradient id="paint0_linear_110_5243" x1="20" y1="0" x2="20" y2="40" gradientUnits="userSpaceOnUse">
<stop stop-color="#37BBFE"/>
<stop offset="1" stop-color="#007DBB"/>
</linearGradient>
</defs>
</svg>
