<svg width="182" height="33" viewBox="0 0 182 33" fill="none" xmlns="http://www.w3.org/2000/svg">
<mask id="mask0_109_5155" style="mask-type:luminance" maskUnits="userSpaceOnUse" x="0" y="0" width="182" height="33">
<path d="M181.837 0H0V32.1449H181.837V0Z" fill="white"/>
</mask>
<g mask="url(#mask0_109_5155)">
<path d="M55.065 19.9433C55.065 22.3836 52.8259 24.1507 49.6745 24.1507H42.2939V9.00391H49.4258C52.4943 9.00391 54.6503 10.6869 54.6503 13.0431C54.6503 14.6419 53.821 15.6517 52.5773 16.2407C53.904 16.7456 55.065 18.092 55.065 19.9433ZM45.5281 11.7808V15.0626H49.3428C50.5039 15.0626 51.2502 14.3894 51.2502 13.4638C51.2502 12.5382 50.4209 11.7808 49.3428 11.7808H45.5281ZM49.6745 21.3738C50.9186 21.3738 51.8309 20.6165 51.8309 19.5225C51.8309 18.4286 51.0015 17.6713 49.6745 17.6713H45.5281V21.3738H49.6745Z" fill="white"/>
<path d="M67.2557 24.0665L62.1142 18.092H61.2848V24.0665H57.9674V9.00391H61.2848V14.8102H62.1142L67.0897 9.00391H70.9875L64.7676 16.2407L71.5678 24.0665H67.2557Z" fill="white"/>
<path d="M71.5682 16.5778C71.5682 12.0338 74.8853 8.75195 79.5292 8.75195C84.1733 8.75195 87.4904 12.0338 87.4904 16.5778C87.4904 21.1218 84.1733 24.4036 79.5292 24.4036C74.8853 24.4036 71.5682 21.1218 71.5682 16.5778ZM84.0076 16.5778C84.0076 13.7168 82.1829 11.7813 79.5292 11.7813C76.8754 11.7813 75.051 13.7168 75.051 16.5778C75.051 19.4389 76.8754 21.3743 79.5292 21.3743C82.1829 21.3743 84.0076 19.4389 84.0076 16.5778Z" fill="white"/>
<path d="M100.179 9.00391H103.496V24.0665H100.179V18.0078H93.5443V24.0665H90.2272V9.00391H93.5443V14.9785H100.179V9.00391Z" fill="white"/>
<path d="M110.628 24.0665V12.0333H105.486V9.00391H119.004V12.0333H113.862V24.0665H110.628Z" fill="white"/>
<path d="M133.267 15.6522V24.067H130.862L130.199 21.7109C129.453 22.9731 127.877 24.4036 125.472 24.4036C122.486 24.4036 120.33 22.3841 120.33 19.6072C120.33 16.8302 122.486 14.8948 126.882 14.8948H130.116C129.95 12.9594 128.955 11.613 127.131 11.613C125.638 11.613 124.643 12.4545 124.145 13.3801L121.16 12.8753C121.906 10.2667 124.477 8.75195 127.297 8.75195C130.945 8.75195 133.267 11.2764 133.267 15.6522ZM130.033 17.5035H126.965C124.477 17.5035 123.647 18.3449 123.647 19.4389C123.647 20.7011 124.643 21.5426 126.301 21.5426C128.458 21.5426 130.033 19.9438 130.033 17.5035Z" fill="white"/>
<path d="M146.039 24.0665L140.897 18.092H140.068V24.0665H136.751V9.00391H140.068V14.8102H140.897L145.873 9.00391H149.77L143.551 16.2407L150.351 24.0665H146.039Z" fill="white"/>
<path d="M156.322 24.0665V12.0333H151.18V9.00391H164.698V12.0333H159.556V24.0665H156.322Z" fill="white"/>
<path d="M181.283 17.5035H169.342C169.673 19.8596 171.332 21.3743 173.82 21.3743C175.561 21.3743 176.888 20.6169 177.634 19.523L180.703 20.0279C179.625 22.889 176.722 24.4036 173.571 24.4036C169.093 24.4036 165.858 21.1218 165.858 16.5778C165.858 12.0338 169.093 8.75195 173.571 8.75195C178.049 8.75195 181.283 12.0338 181.283 16.4095C181.366 16.8302 181.283 17.1669 181.283 17.5035ZM169.59 14.8948H177.8C177.22 13.0435 175.727 11.6972 173.654 11.6972C171.664 11.613 170.088 12.9594 169.59 14.8948Z" fill="white"/>
<path d="M0 15.4295C0 8.15599 0 4.51921 2.22686 2.2596C4.45372 0 8.03778 0 15.2059 0H16.4731C23.6412 0 27.2253 0 29.4521 2.2596C31.679 4.51921 31.679 8.15599 31.679 15.4295V16.7153C31.679 23.9889 31.679 27.6256 29.4521 29.8853C27.2253 32.1449 23.6412 32.1449 16.4731 32.1449H15.2059C8.03778 32.1449 4.45372 32.1449 2.22686 29.8853C0 27.6256 0 23.9889 0 16.7153V15.4295Z" fill="#0077FF"/>
<path d="M16.8559 23.1576C9.63576 23.1576 5.51752 18.135 5.34595 9.77734H8.96261C9.08141 15.9116 11.7477 18.51 13.8596 19.0458V9.77734H17.2652V15.0678C19.3507 14.8401 21.5416 12.4293 22.2808 9.77734H25.6864C25.1188 13.0454 22.7428 15.4562 21.0533 16.4474C22.7428 17.251 25.4489 19.3538 26.4785 23.1576H22.7297C21.9245 20.6128 19.9183 18.644 17.2652 18.3761V23.1576H16.8559Z" fill="white"/>
</g>
</svg>
