<svg width="98" height="40" viewBox="0 0 98 40" fill="none" xmlns="http://www.w3.org/2000/svg">
<path d="M88.2578 27V16.3652H90.3574V20.623H95.3379V16.3652H97.4375V27H95.3379V22.3906H90.3574V27H88.2578Z" fill="white"/>
<path d="M82.6523 18.6992C82.1836 18.1979 81.5618 17.9473 80.7871 17.9473C80.0124 17.9473 79.3743 18.1979 78.873 18.6992C78.3717 19.2005 78.0918 19.8678 78.0332 20.7012H83.4043C83.3783 19.8613 83.1276 19.194 82.6523 18.6992ZM83.3945 24.1289H85.416C85.1751 25.0859 84.6478 25.8379 83.834 26.3848C83.0267 26.9316 82.0176 27.2051 80.8066 27.2051C79.2832 27.2051 78.082 26.7168 77.2031 25.7402C76.3307 24.7572 75.8945 23.416 75.8945 21.7168C75.8945 20.0176 76.3372 18.6667 77.2227 17.6641C78.1081 16.6615 79.2995 16.1602 80.7969 16.1602C82.2747 16.1602 83.4336 16.6354 84.2734 17.5859C85.1198 18.5365 85.543 19.8483 85.543 21.5215V22.2539H78.0332V22.3711C78.0658 23.3086 78.3359 24.0508 78.8438 24.5977C79.3516 25.1445 80.0254 25.418 80.8652 25.418C82.1478 25.418 82.9909 24.9883 83.3945 24.1289Z" fill="white"/>
<path d="M69.4395 27.1953C68.235 27.1953 67.2292 26.9186 66.4219 26.3652C65.6211 25.8118 65.1719 25.0176 65.0742 23.9824H67.1641C67.2747 24.4447 67.5286 24.7995 67.9258 25.0469C68.3229 25.2878 68.8275 25.4082 69.4395 25.4082C70.1361 25.4082 70.6764 25.2682 71.0605 24.9883C71.4512 24.7018 71.6465 24.3177 71.6465 23.8359C71.6465 22.8268 70.9141 22.3223 69.4492 22.3223H67.8867V20.6914H69.4199C70.6569 20.6914 71.2754 20.2324 71.2754 19.3145C71.2754 18.9043 71.1191 18.5723 70.8066 18.3184C70.4941 18.0645 70.0319 17.9375 69.4199 17.9375C68.8275 17.9375 68.3392 18.0579 67.9551 18.2988C67.5775 18.5332 67.3561 18.8587 67.291 19.2754H65.2598C65.3704 18.3184 65.7936 17.5599 66.5293 17C67.265 16.4401 68.2253 16.1602 69.4102 16.1602C70.6602 16.1602 71.627 16.4238 72.3105 16.9512C72.9941 17.472 73.3359 18.1882 73.3359 19.0996C73.3359 19.6335 73.1797 20.099 72.8672 20.4961C72.5612 20.8932 72.1576 21.1536 71.6562 21.2773V21.4434C72.3398 21.5996 72.8574 21.8893 73.209 22.3125C73.5671 22.7292 73.7461 23.237 73.7461 23.8359C73.7461 24.8516 73.3555 25.6654 72.5742 26.2773C71.793 26.8893 70.748 27.1953 69.4395 27.1953Z" fill="white"/>
<path d="M53.9121 21.4629C53.86 22.3158 53.7656 23.0059 53.6289 23.5332C53.4922 24.054 53.2708 24.5 52.9648 24.8711V25.0078H59.3906V14.9004H54.3418L53.9121 21.4629ZM51.3926 27V29.7832H49.3906V25.0078H50.416C50.8978 24.7148 51.2461 24.2786 51.4609 23.6992C51.6823 23.1133 51.8223 22.3288 51.8809 21.3457L52.3984 12.9082H61.5781V25.0078H63.3359V29.7832H61.334V27H51.3926Z" fill="white"/>
<path d="M0.265794 19.7613H9.99734e-05L0 20.2177L0.763591 20.2404C8.26291 20.4636 11.2486 20.8853 13.5906 22.052C15.5191 23.0128 16.9338 24.4106 17.8931 26.3028C18.8867 28.2626 19.3474 30.6437 19.5872 35.0571C19.662 36.4343 19.7715 39.2038 19.772 39.7308L19.7722 39.9891L20.2387 40V39.7515C20.2387 38.6682 20.4366 34.509 20.5572 33.0576C20.9026 28.9 21.6707 26.4838 23.2661 24.5355C24.4639 23.0728 26.1369 21.9825 28.0811 21.3976C30.3314 20.7205 32.4628 20.4878 38.4671 20.2636C38.8428 20.2495 39.3414 20.2357 39.5751 20.2329L40 20.2278V19.7613L39.7584 19.761C39.234 19.7605 36.464 19.6499 35.118 19.5757C30.6674 19.3304 28.3857 18.8984 26.4204 17.929C25.3576 17.4048 24.3312 16.6552 23.6644 15.9164C21.596 13.6244 20.7935 11.0421 20.4577 5.59847C20.3742 4.24421 20.239 0.947674 20.2388 0.258263L20.2387 0H19.7722V0.243633C19.7722 0.857699 19.6364 4.12994 19.5541 5.4985C19.2274 10.9334 18.4428 13.5385 16.453 15.7957C15.5294 16.8434 14.1425 17.7766 12.6741 18.3385C10.9948 18.9811 8.86988 19.3392 5.52609 19.5431C4.12311 19.6287 0.926513 19.7613 0.265794 19.7613Z" fill="white"/>
<path d="M14.8235 0.035357C11.2841 0.103538 8.89014 0.338974 7.02568 0.802281C5.19131 1.25809 3.73701 2.01038 2.81753 2.97912C1.55524 4.30902 0.763591 6.42574 0.379763 9.4974C0.140861 11.4091 0.0542852 13.2644 0.0216941 17.1703L9.99734e-05 19.7613H0.265794C0.926513 19.7613 4.12311 19.6287 5.52609 19.5431C8.86988 19.3392 10.9948 18.9811 12.6741 18.3385C14.1425 17.7766 15.5294 16.8434 16.453 15.7957C18.4428 13.5385 19.2274 10.9334 19.5541 5.4985C19.6364 4.12994 19.7722 0.857699 19.7722 0.243633V0L17.931 0.0054985C16.9184 0.00849768 15.52 0.0219607 14.8235 0.035357Z" fill="black"/>
<path d="M20.2388 0.258263C20.239 0.947674 20.3742 4.24421 20.4577 5.59847C20.7935 11.0421 21.596 13.6244 23.6644 15.9164C24.3312 16.6552 25.3576 17.4048 26.4204 17.929C28.3857 18.8984 30.6674 19.3304 35.118 19.5757C36.464 19.6499 39.234 19.7605 39.7584 19.761L40 19.7613L39.9994 18.2367C39.9973 13.2011 39.8083 10.0492 39.3793 7.89784C38.7842 4.91369 37.7394 3.09319 36.0066 2.02131C34.1249 0.857365 31.6417 0.310115 27.2868 0.0996394C26.2587 0.0499197 23.5442 0.00106638 21.78 0.000499863L20.2387 0L20.2388 0.258263Z" fill="black"/>
<path d="M38.4671 20.2636C32.4628 20.4878 30.3314 20.7205 28.0811 21.3976C26.1369 21.9825 24.4639 23.0728 23.2661 24.5355C21.6707 26.4838 20.9026 28.9 20.5572 33.0576C20.4366 34.509 20.2387 38.6682 20.2387 39.7515V40L22.8797 39.9781C25.6125 39.9554 26.7617 39.925 28.1861 39.8377C31.4342 39.6384 33.5289 39.211 35.1847 38.4095C35.7357 38.1427 36.1085 37.9215 36.4879 37.6359C38.2687 36.2956 39.2679 33.8948 39.6969 29.9252C39.8955 28.0876 39.9979 25.3216 39.9994 21.7524L40 20.2278L39.5751 20.2329C39.3414 20.2357 38.8428 20.2495 38.4671 20.2636Z" fill="black"/>
<path d="M0.0216607 22.8137C0.0542852 26.7249 0.140762 28.5792 0.379763 30.4917C0.822708 34.0364 1.8117 36.3208 3.44569 37.5733C5.30272 38.9967 7.98855 39.6671 12.7241 39.8891C13.798 39.9394 16.4642 39.9875 18.231 39.9883L19.7722 39.9891L19.772 39.7308C19.7715 39.2038 19.662 36.4343 19.5872 35.0571C19.3474 30.6437 18.8867 28.2626 17.8931 26.3028C16.9338 24.4106 15.5191 23.0128 13.5906 22.052C11.2486 20.8853 8.26291 20.4636 0.763591 20.2404L0 20.2177L0.0216607 22.8137Z" fill="black"/>
</svg>
