<svg width="143" height="32" viewBox="0 0 143 32" fill="none" xmlns="http://www.w3.org/2000/svg">
<path d="M44.6265 5.005C44.1011 3.04816 42.5622 1.50526 40.6105 0.97842C37.0449 0 22.7824 0 22.7824 0C22.7824 0 8.51995 0 4.95433 0.940789C3.04016 1.46763 1.46378 3.04816 0.93832 5.005C0 8.57999 0 15.9934 0 15.9934C0 15.9934 0 23.4445 0.93832 26.9818C1.46378 28.9387 3.00263 30.4816 4.95433 31.0084C8.55748 31.9868 22.7824 31.9868 22.7824 31.9868C22.7824 31.9868 37.0449 31.9868 40.6105 31.046C42.5622 30.5192 44.1011 28.9763 44.6265 27.0195C45.5648 23.4445 45.5648 16.031 45.5648 16.031C45.5648 16.031 45.6024 8.57999 44.6265 5.005Z" fill="#FF0000"/>
<path d="M18.2408 9.14453V22.8424L30.1012 15.9935L18.2408 9.14453Z" fill="white"/>
<path d="M66.1703 29.1268C65.2695 28.5246 64.6314 27.5839 64.2561 26.2668C63.8808 24.9873 63.6931 23.2562 63.6931 21.1489V18.2512C63.6931 16.1062 63.9183 14.3752 64.3312 13.0581C64.7816 11.741 65.4572 10.8002 66.3579 10.1981C67.2963 9.59597 68.4973 9.29492 69.9986 9.29492C71.4624 9.29492 72.6635 9.59597 73.5642 10.1981C74.465 10.8002 75.1031 11.7786 75.516 13.0581C75.9288 14.3376 76.154 16.0686 76.154 18.2512V21.1489C76.154 23.2939 75.9663 24.9873 75.5535 26.3044C75.1406 27.5839 74.5026 28.5623 73.6018 29.1644C72.701 29.7665 71.4624 30.0675 69.9236 30.0675C68.3472 30.0299 67.0711 29.7289 66.1703 29.1268ZM71.2372 25.9657C71.4999 25.326 71.6125 24.2346 71.6125 22.767V16.5202C71.6125 15.0902 71.4999 14.0365 71.2372 13.3591C70.9745 12.6818 70.5616 12.3807 69.9236 12.3807C69.323 12.3807 68.8726 12.7194 68.6474 13.3591C68.3847 14.0365 68.2721 15.0902 68.2721 16.5202V22.767C68.2721 24.2346 68.3847 25.326 68.6474 25.9657C68.8726 26.6054 69.323 26.9441 69.9611 26.9441C70.5616 26.9441 70.9745 26.6431 71.2372 25.9657Z" fill="white"/>
<path d="M135.456 21.1875V22.2036C135.456 23.4831 135.493 24.4615 135.568 25.1012C135.644 25.741 135.794 26.2302 136.056 26.4936C136.282 26.7946 136.657 26.9452 137.182 26.9452C137.858 26.9452 138.308 26.6817 138.571 26.1549C138.834 25.6281 138.946 24.7625 138.984 23.5207L142.85 23.7465C142.887 23.9346 142.887 24.1604 142.887 24.4615C142.887 26.3054 142.399 27.6978 141.386 28.601C140.373 29.5041 138.946 29.9557 137.107 29.9557C134.893 29.9557 133.354 29.2407 132.453 27.8483C131.552 26.456 131.102 24.311 131.102 21.3757V17.876C131.102 14.8654 131.552 12.6828 132.491 11.2904C133.429 9.89807 135.005 9.2207 137.22 9.2207C138.759 9.2207 139.96 9.52176 140.786 10.0862C141.611 10.6507 142.174 11.5539 142.512 12.7204C142.85 13.9246 143 15.5804 143 17.6878V21.1123H135.456V21.1875ZM136.019 12.7581C135.794 13.0591 135.644 13.5107 135.568 14.1504C135.493 14.7902 135.456 15.7686 135.456 17.0857V18.5157H138.759V17.0857C138.759 15.8062 138.721 14.8278 138.646 14.1504C138.571 13.4731 138.383 13.0215 138.158 12.7581C137.933 12.4946 137.558 12.3441 137.107 12.3441C136.582 12.3065 136.244 12.457 136.019 12.7581Z" fill="white"/>
<path d="M55.2107 20.8102L50.1062 2.25781H54.5726L56.3742 10.6496C56.8246 12.7194 57.1624 14.4881 57.3876 15.9557H57.5002C57.6503 14.902 57.9881 13.171 58.5135 10.6873L60.3902 2.25781H64.8566L59.6771 20.8102V29.6912H55.2482V20.8102H55.2107Z" fill="white"/>
<path d="M90.6791 9.67188V29.7295H87.151L86.7757 27.2834H86.6631C85.7248 29.1274 84.261 30.0682 82.3468 30.0682C81.0332 30.0682 80.0573 29.6166 79.4193 28.7511C78.7812 27.8856 78.481 26.5308 78.481 24.6492V9.67188H82.9849V24.3858C82.9849 25.289 83.0975 25.9287 83.2852 26.305C83.4728 26.6813 83.8106 26.8695 84.261 26.8695C84.6363 26.8695 85.0117 26.7566 85.387 26.4932C85.7623 26.2674 86.0251 25.9663 86.1752 25.59V9.67188H90.6791Z" fill="white"/>
<path d="M113.762 9.67188V29.7295H110.234L109.859 27.2834H109.746C108.808 29.1274 107.344 30.0682 105.43 30.0682C104.116 30.0682 103.14 29.6166 102.502 28.7511C101.864 27.8856 101.564 26.5308 101.564 24.6492V9.67188H106.068V24.3858C106.068 25.289 106.18 25.9287 106.368 26.305C106.556 26.6813 106.894 26.8695 107.344 26.8695C107.719 26.8695 108.095 26.7566 108.47 26.4932C108.845 26.2674 109.108 25.9663 109.258 25.59V9.67188H113.762Z" fill="white"/>
<path d="M102.915 5.90807H98.4486V29.6912H94.0572V5.90807H89.5908V2.25781H102.915V5.90807Z" fill="white"/>
<path d="M128.662 12.8703C128.4 11.5909 127.949 10.6877 127.349 10.1232C126.748 9.55876 125.885 9.25771 124.834 9.25771C124.008 9.25771 123.22 9.4835 122.507 9.97271C121.794 10.4243 121.231 11.064 120.856 11.8167H120.818V1.24219H116.464V29.6916H120.18L120.63 27.8101H120.743C121.081 28.4874 121.606 29.0143 122.319 29.4282C123.032 29.8045 123.783 30.0303 124.646 30.0303C126.185 30.0303 127.274 29.3153 127.987 27.923C128.7 26.5306 129.075 24.3103 129.075 21.3374V18.1764C129.038 15.8809 128.925 14.1122 128.662 12.8703ZM124.534 21.0364C124.534 22.504 124.459 23.633 124.346 24.4609C124.234 25.2888 124.008 25.8909 123.746 26.2295C123.445 26.5682 123.07 26.7564 122.62 26.7564C122.244 26.7564 121.906 26.6811 121.606 26.493C121.306 26.3048 121.043 26.0414 120.856 25.7027V14.338C121.006 13.8111 121.268 13.3595 121.644 12.9832C122.019 12.6445 122.432 12.4564 122.845 12.4564C123.295 12.4564 123.671 12.6445 123.896 12.9832C124.158 13.3595 124.309 13.9617 124.421 14.7895C124.534 15.6551 124.571 16.8593 124.571 18.4022V21.0364H124.534Z" fill="white"/>
</svg>
