<svg width="186" height="48" viewBox="0 0 186 48" fill="none" xmlns="http://www.w3.org/2000/svg">
<path opacity="0.7" d="M3.75111 42.0864C3.46911 41.8914 3.18711 41.6994 2.90511 41.5104C2.62611 41.3214 2.34411 41.1309 2.05911 40.9389C1.75911 40.7709 1.45911 40.6044 1.15911 40.4394C0.862113 40.2744 0.563613 40.1094 0.263613 39.9444L0.538113 39.4809C0.823113 39.6699 1.10511 39.8619 1.38411 40.0569C1.66611 40.2489 1.95111 40.4409 2.23911 40.6329C2.53311 40.7949 2.83011 40.9584 3.13011 41.1234C3.43011 41.2884 3.73011 41.4534 4.03011 41.6184L3.75111 42.0864ZM0.538113 42.0864L0.263613 41.6184C0.560613 41.4504 0.859113 41.2839 1.15911 41.1189C1.45911 40.9539 1.75911 40.7904 2.05911 40.6284C2.34411 40.4334 2.62611 40.2414 2.90511 40.0524C3.18711 39.8604 3.46911 39.6699 3.75111 39.4809L4.03011 39.9444C3.73011 40.1094 3.43011 40.2744 3.13011 40.4394C2.83011 40.6044 2.53311 40.7679 2.23911 40.9299C1.95711 41.1219 1.67361 41.3139 1.38861 41.5059C1.10661 41.6979 0.823113 41.8914 0.538113 42.0864ZM1.87011 42.8289C1.88811 42.4869 1.90461 42.1464 1.91961 41.8074C1.93761 41.4654 1.95411 41.1219 1.96911 40.7769C1.95411 40.4379 1.93761 40.0989 1.91961 39.7599C1.90461 39.4179 1.88811 39.0759 1.87011 38.7339H2.41911C2.40111 39.0759 2.38461 39.4179 2.36961 39.7599C2.35461 40.0989 2.33811 40.4379 2.32011 40.7769C2.33511 41.1219 2.35161 41.4654 2.36961 41.8074C2.38761 42.1464 2.40411 42.4869 2.41911 42.8289H1.87011ZM7.97802 45.5424C7.43502 45.5424 6.95952 45.4554 6.55152 45.2814C6.14352 45.1044 5.80302 44.8629 5.53002 44.5569C5.26002 44.2479 5.05752 43.8939 4.92252 43.4949C4.78752 43.0959 4.72002 42.6744 4.72002 42.2304C4.72002 41.6064 4.84602 41.0439 5.09802 40.5429C5.35302 40.0419 5.72052 39.6444 6.20052 39.3504C6.68052 39.0564 7.26402 38.9094 7.95102 38.9094C8.47302 38.9094 8.93352 38.9949 9.33252 39.1659C9.73452 39.3369 10.072 39.5739 10.345 39.8769C10.618 40.1799 10.8235 40.5324 10.9615 40.9344C11.0995 41.3364 11.1685 41.7669 11.1685 42.2259C11.1685 42.8589 11.0425 43.4259 10.7905 43.9269C10.5385 44.4249 10.174 44.8194 9.69702 45.1104C9.22002 45.3984 8.64702 45.5424 7.97802 45.5424ZM7.95552 44.8404C8.36652 44.8404 8.72052 44.7699 9.01752 44.6289C9.31452 44.4849 9.55902 44.2899 9.75102 44.0439C9.94602 43.7979 10.09 43.5189 10.183 43.2069C10.276 42.8919 10.3225 42.5649 10.3225 42.2259C10.3225 41.8599 10.2715 41.5194 10.1695 41.2044C10.0705 40.8864 9.92052 40.6089 9.71952 40.3719C9.52152 40.1319 9.27552 39.9459 8.98152 39.8139C8.68752 39.6789 8.34552 39.6114 7.95552 39.6114C7.55352 39.6114 7.20252 39.6819 6.90252 39.8229C6.60552 39.9639 6.35802 40.1574 6.16002 40.4034C5.96202 40.6464 5.81352 40.9254 5.71452 41.2404C5.61552 41.5524 5.56602 41.8809 5.56602 42.2259C5.56602 42.5739 5.61402 42.9039 5.71002 43.2159C5.80602 43.5279 5.95152 43.8069 6.14652 44.0529C6.34452 44.2959 6.59352 44.4879 6.89352 44.6289C7.19352 44.7699 7.54752 44.8404 7.95552 44.8404ZM12.333 47.1984C12.333 46.8684 12.333 46.5444 12.333 46.2264C12.333 45.9114 12.333 45.5694 12.333 45.2004V43.0224C12.333 42.6924 12.333 42.3549 12.333 42.0099C12.333 41.6649 12.333 41.3214 12.333 40.9794L13.008 40.9344L13.026 41.5149H13.1025C13.1925 41.3979 13.3065 41.2914 13.4445 41.1954C13.5825 41.0964 13.74 41.0184 13.917 40.9614C14.097 40.9014 14.2935 40.8714 14.5065 40.8714C14.9145 40.8714 15.261 40.9734 15.546 41.1774C15.834 41.3784 16.053 41.6544 16.203 42.0054C16.353 42.3564 16.428 42.7539 16.428 43.1979C16.428 43.6149 16.3575 44.0019 16.2165 44.3589C16.0785 44.7129 15.867 44.9994 15.582 45.2184C15.3 45.4344 14.946 45.5424 14.52 45.5424C14.322 45.5424 14.139 45.5154 13.971 45.4614C13.803 45.4104 13.65 45.3369 13.512 45.2409C13.377 45.1419 13.254 45.0219 13.143 44.8809H13.0755V45.2319C13.0755 45.5829 13.0755 45.9099 13.0755 46.2129C13.0755 46.5189 13.0755 46.8384 13.0755 47.1714L12.333 47.1984ZM14.295 44.8764C14.616 44.8764 14.877 44.7969 15.078 44.6379C15.282 44.4789 15.4305 44.2734 15.5235 44.0214C15.6195 43.7664 15.6675 43.4934 15.6675 43.2024C15.6675 42.8994 15.6165 42.6234 15.5145 42.3744C15.4155 42.1224 15.264 41.9214 15.06 41.7714C14.856 41.6214 14.5965 41.5464 14.2815 41.5464C14.1255 41.5464 13.9725 41.5704 13.8225 41.6184C13.6725 41.6634 13.533 41.7324 13.404 41.8254C13.278 41.9154 13.1685 42.0279 13.0755 42.1629V44.1474C13.1655 44.3004 13.269 44.4309 13.386 44.5389C13.506 44.6469 13.641 44.7309 13.791 44.7909C13.941 44.8479 14.109 44.8764 14.295 44.8764ZM17.5976 45.4434C17.5976 45.1104 17.5976 44.7909 17.5976 44.4849C17.5976 44.1789 17.5976 43.8414 17.5976 43.4724V43.0224C17.5976 42.7554 17.5976 42.5094 17.5976 42.2844C17.5976 42.0564 17.5976 41.8374 17.5976 41.6274C17.5976 41.4144 17.5976 41.1984 17.5976 40.9794H20.6036V41.5869C20.3066 41.5869 20.0066 41.5869 19.7036 41.5869C19.4006 41.5869 19.1051 41.5869 18.8171 41.5869H17.8991L18.3401 41.0964C18.3401 41.3094 18.3401 41.5149 18.3401 41.7129C18.3401 41.9079 18.3401 42.1119 18.3401 42.3249C18.3401 42.5349 18.3401 42.7674 18.3401 43.0224V43.4724C18.3401 43.8414 18.3401 44.1789 18.3401 44.4849C18.3401 44.7909 18.3401 45.1104 18.3401 45.4434H17.5976ZM22.6554 45.5334C22.3884 45.5334 22.1544 45.4824 21.9534 45.3804C21.7524 45.2754 21.5949 45.1269 21.4809 44.9349C21.3699 44.7429 21.3144 44.5119 21.3144 44.2419C21.3144 43.9989 21.3579 43.7949 21.4449 43.6299C21.5319 43.4619 21.6459 43.3254 21.7869 43.2204C21.9279 43.1154 22.0839 43.0344 22.2549 42.9774C22.4259 42.9174 22.5969 42.8724 22.7679 42.8424L24.1674 42.5994C24.1794 42.2964 24.1389 42.0684 24.0459 41.9154C23.9559 41.7594 23.8284 41.6544 23.6634 41.6004C23.4984 41.5464 23.3154 41.5194 23.1144 41.5194C23.0124 41.5194 22.9029 41.5269 22.7859 41.5419C22.6689 41.5569 22.5444 41.5809 22.4124 41.6139C22.2834 41.6439 22.1469 41.6829 22.0029 41.7309C21.8589 41.7789 21.7074 41.8374 21.5484 41.9064L21.5079 41.2269C21.6159 41.1819 21.7374 41.1384 21.8724 41.0964C22.0104 41.0544 22.1559 41.0169 22.3089 40.9839C22.4649 40.9479 22.6239 40.9209 22.7859 40.9029C22.9479 40.8849 23.1114 40.8759 23.2764 40.8759C23.6094 40.8759 23.8959 40.9284 24.1359 41.0334C24.3789 41.1384 24.5649 41.3034 24.6939 41.5284C24.8229 41.7534 24.8874 42.0474 24.8874 42.4104C24.8874 42.5484 24.8874 42.7239 24.8874 42.9369C24.8874 43.1499 24.8874 43.3524 24.8874 43.5444V44.1249C24.8874 44.3289 24.8874 44.5374 24.8874 44.7504C24.8874 44.9604 24.8874 45.1914 24.8874 45.4434H24.2124L24.1719 44.8089H24.0999C24.0069 44.9289 23.8899 45.0444 23.7489 45.1554C23.6079 45.2664 23.4444 45.3579 23.2584 45.4299C23.0754 45.4989 22.8744 45.5334 22.6554 45.5334ZM22.8714 44.9169C23.0304 44.9169 23.1894 44.8839 23.3484 44.8179C23.5074 44.7519 23.6559 44.6544 23.7939 44.5254C23.9349 44.3934 24.0534 44.2284 24.1494 44.0304L24.1539 43.0674C24.1059 43.0944 24.0414 43.1214 23.9604 43.1484C23.8824 43.1754 23.7639 43.2069 23.6049 43.2429C23.4489 43.2759 23.2314 43.3179 22.9524 43.3689C22.7814 43.3989 22.6299 43.4484 22.4979 43.5174C22.3659 43.5834 22.2609 43.6749 22.1829 43.7919C22.1079 43.9059 22.0704 44.0454 22.0704 44.2104C22.0704 44.4684 22.1469 44.6514 22.2999 44.7594C22.4559 44.8644 22.6464 44.9169 22.8714 44.9169ZM26.2109 45.4434C26.2109 45.1104 26.2109 44.7909 26.2109 44.4849C26.2109 44.1789 26.2109 43.8414 26.2109 43.4724V43.0224C26.2109 42.7554 26.2109 42.5094 26.2109 42.2844C26.2109 42.0564 26.2109 41.8374 26.2109 41.6274C26.2109 41.4144 26.2109 41.1984 26.2109 40.9794L26.9489 40.9479C26.9489 41.1699 26.9489 41.3889 26.9489 41.6049C26.9489 41.8209 26.9489 42.0444 26.9489 42.2754C26.9489 42.5034 26.9489 42.7524 26.9489 43.0224V43.4724C26.9489 43.8414 26.9489 44.1789 26.9489 44.4849C26.9489 44.7909 26.9489 45.1104 26.9489 45.4434H26.2109ZM26.6519 43.4904V42.8874H29.5184V43.4904H26.6519ZM29.1854 45.4434C29.1854 45.1104 29.1854 44.7909 29.1854 44.4849C29.1854 44.1789 29.1854 43.8414 29.1854 43.4724V43.0224C29.1854 42.7554 29.1854 42.5094 29.1854 42.2844C29.1854 42.0564 29.1854 41.8374 29.1854 41.6274C29.1854 41.4144 29.1854 41.1984 29.1854 40.9794H29.9234C29.9234 41.1984 29.9234 41.4144 29.9234 41.6274C29.9234 41.8374 29.9234 42.0564 29.9234 42.2844C29.9234 42.5094 29.9234 42.7554 29.9234 43.0224V43.4724C29.9234 43.8414 29.9234 44.1789 29.9234 44.4849C29.9234 44.7909 29.9234 45.1104 29.9234 45.4434H29.1854ZM31.3349 45.4434C31.3349 45.1104 31.3349 44.7909 31.3349 44.4849C31.3349 44.1789 31.3349 43.8414 31.3349 43.4724V43.0224C31.3349 42.7554 31.3349 42.5094 31.3349 42.2844C31.3349 42.0564 31.3349 41.8374 31.3349 41.6274C31.3349 41.4144 31.3349 41.1984 31.3349 40.9794L32.0549 40.9524C32.0549 41.1654 32.0549 41.3754 32.0549 41.5824C32.0549 41.7894 32.0549 42.0039 32.0549 42.2259C32.0549 42.4449 32.0549 42.6834 32.0549 42.9414V44.3634H32.1179L33.0764 42.8829C33.2834 42.5649 33.4904 42.2454 33.6974 41.9244C33.9044 41.6034 34.1099 41.2884 34.3139 40.9794H35.0834C35.0834 41.1984 35.0834 41.4144 35.0834 41.6274C35.0834 41.8374 35.0834 42.0564 35.0834 42.2844C35.0834 42.5094 35.0834 42.7554 35.0834 43.0224V43.4724C35.0834 43.8414 35.0834 44.1789 35.0834 44.4849C35.0834 44.7909 35.0834 45.1104 35.0834 45.4434H34.3679C34.3679 45.1164 34.3679 44.8014 34.3679 44.4984C34.3679 44.1924 34.3679 43.8579 34.3679 43.4949V42.0549H34.3049L33.3554 43.5174C33.1454 43.8414 32.9369 44.1639 32.7299 44.4849C32.5229 44.8059 32.3159 45.1254 32.1089 45.4434H31.3349ZM37.8756 45.5334C37.6806 45.5334 37.4961 45.5229 37.3221 45.5019C37.1511 45.4809 36.9936 45.4539 36.8496 45.4209C36.7086 45.3849 36.5826 45.3459 36.4716 45.3039C36.3606 45.2619 36.2676 45.2214 36.1926 45.1824L36.2601 44.5119C36.3831 44.5839 36.5271 44.6484 36.6921 44.7054C36.8571 44.7594 37.0341 44.8029 37.2231 44.8359C37.4151 44.8689 37.6101 44.8854 37.8081 44.8854C38.1021 44.8854 38.3331 44.8524 38.5011 44.7864C38.6721 44.7204 38.7921 44.6334 38.8611 44.5254C38.9331 44.4174 38.9691 44.3004 38.9691 44.1744C38.9691 44.0244 38.9211 43.8969 38.8251 43.7919C38.7291 43.6839 38.5986 43.6029 38.4336 43.5489C38.2686 43.4949 38.0796 43.4679 37.8666 43.4679C37.6866 43.4679 37.5276 43.4679 37.3896 43.4679C37.2546 43.4679 37.1196 43.4679 36.9846 43.4679V42.9054C37.1016 42.9054 37.2216 42.9054 37.3446 42.9054C37.4706 42.9054 37.6176 42.9054 37.7856 42.9054C38.1456 42.9054 38.4096 42.8364 38.5776 42.6984C38.7486 42.5604 38.8341 42.3849 38.8341 42.1719C38.8341 42.0219 38.7906 41.9004 38.7036 41.8074C38.6166 41.7114 38.4936 41.6409 38.3346 41.5959C38.1756 41.5509 37.9881 41.5284 37.7721 41.5284C37.6221 41.5284 37.4706 41.5404 37.3176 41.5644C37.1646 41.5854 37.0071 41.6229 36.8451 41.6769C36.6861 41.7279 36.5181 41.7984 36.3411 41.8884L36.2736 41.2269C36.3966 41.1669 36.5421 41.1099 36.7101 41.0559C36.8811 41.0019 37.0671 40.9584 37.2681 40.9254C37.4721 40.8924 37.6806 40.8759 37.8936 40.8759C38.2746 40.8759 38.5896 40.9254 38.8386 41.0244C39.0906 41.1234 39.2781 41.2599 39.4011 41.4339C39.5271 41.6079 39.5901 41.8059 39.5901 42.0279C39.5901 42.3279 39.5106 42.5634 39.3516 42.7344C39.1956 42.9054 39.0186 43.0209 38.8206 43.0809V43.1529C38.9526 43.1889 39.0876 43.2474 39.2256 43.3284C39.3636 43.4094 39.4806 43.5249 39.5766 43.6749C39.6726 43.8219 39.7206 44.0079 39.7206 44.2329C39.7206 44.4579 39.6651 44.6694 39.5541 44.8674C39.4431 45.0654 39.2526 45.2259 38.9826 45.3489C38.7156 45.4719 38.3466 45.5334 37.8756 45.5334ZM41.9562 45.5334C41.6892 45.5334 41.4552 45.4824 41.2542 45.3804C41.0532 45.2754 40.8957 45.1269 40.7817 44.9349C40.6707 44.7429 40.6152 44.5119 40.6152 44.2419C40.6152 43.9989 40.6587 43.7949 40.7457 43.6299C40.8327 43.4619 40.9467 43.3254 41.0877 43.2204C41.2287 43.1154 41.3847 43.0344 41.5557 42.9774C41.7267 42.9174 41.8977 42.8724 42.0687 42.8424L43.4682 42.5994C43.4802 42.2964 43.4397 42.0684 43.3467 41.9154C43.2567 41.7594 43.1292 41.6544 42.9642 41.6004C42.7992 41.5464 42.6162 41.5194 42.4152 41.5194C42.3132 41.5194 42.2037 41.5269 42.0867 41.5419C41.9697 41.5569 41.8452 41.5809 41.7132 41.6139C41.5842 41.6439 41.4477 41.6829 41.3037 41.7309C41.1597 41.7789 41.0082 41.8374 40.8492 41.9064L40.8087 41.2269C40.9167 41.1819 41.0382 41.1384 41.1732 41.0964C41.3112 41.0544 41.4567 41.0169 41.6097 40.9839C41.7657 40.9479 41.9247 40.9209 42.0867 40.9029C42.2487 40.8849 42.4122 40.8759 42.5772 40.8759C42.9102 40.8759 43.1967 40.9284 43.4367 41.0334C43.6797 41.1384 43.8657 41.3034 43.9947 41.5284C44.1237 41.7534 44.1882 42.0474 44.1882 42.4104C44.1882 42.5484 44.1882 42.7239 44.1882 42.9369C44.1882 43.1499 44.1882 43.3524 44.1882 43.5444V44.1249C44.1882 44.3289 44.1882 44.5374 44.1882 44.7504C44.1882 44.9604 44.1882 45.1914 44.1882 45.4434H43.5132L43.4727 44.8089H43.4007C43.3077 44.9289 43.1907 45.0444 43.0497 45.1554C42.9087 45.2664 42.7452 45.3579 42.5592 45.4299C42.3762 45.4989 42.1752 45.5334 41.9562 45.5334ZM42.1722 44.9169C42.3312 44.9169 42.4902 44.8839 42.6492 44.8179C42.8082 44.7519 42.9567 44.6544 43.0947 44.5254C43.2357 44.3934 43.3542 44.2284 43.4502 44.0304L43.4547 43.0674C43.4067 43.0944 43.3422 43.1214 43.2612 43.1484C43.1832 43.1754 43.0647 43.2069 42.9057 43.2429C42.7497 43.2759 42.5322 43.3179 42.2532 43.3689C42.0822 43.3989 41.9307 43.4484 41.7987 43.5174C41.6667 43.5834 41.5617 43.6749 41.4837 43.7919C41.4087 43.9059 41.3712 44.0454 41.3712 44.2104C41.3712 44.4684 41.4477 44.6514 41.6007 44.7594C41.7567 44.8644 41.9472 44.9169 42.1722 44.9169ZM49.2197 46.6854L49.1837 45.3444L49.3502 45.4434H45.5117C45.5117 45.1104 45.5117 44.7909 45.5117 44.4849C45.5117 44.1789 45.5117 43.8414 45.5117 43.4724V43.0224C45.5117 42.7554 45.5117 42.5094 45.5117 42.2844C45.5117 42.0564 45.5117 41.8374 45.5117 41.6274C45.5117 41.4144 45.5117 41.1984 45.5117 40.9794L46.2542 40.9479C46.2542 41.1699 46.2542 41.3889 46.2542 41.6049C46.2542 41.8209 46.2542 42.0444 46.2542 42.2754C46.2542 42.5034 46.2542 42.7524 46.2542 43.0224V43.4724C46.2542 43.7154 46.2542 43.9389 46.2542 44.1429C46.2542 44.3469 46.2542 44.5434 46.2542 44.7324C46.2542 44.9214 46.2542 45.1194 46.2542 45.3264L45.8042 44.8314H47.9192C48.2312 44.8314 48.5537 44.8314 48.8867 44.8314C49.2197 44.8314 49.5482 44.8314 49.8722 44.8314C49.8722 44.9874 49.8722 45.1479 49.8722 45.3129C49.8722 45.4749 49.8722 45.6324 49.8722 45.7854C49.8722 45.9354 49.8722 46.0854 49.8722 46.2354C49.8722 46.3854 49.8722 46.5354 49.8722 46.6854H49.2197ZM48.4457 45.3264C48.4457 45.1194 48.4457 44.9214 48.4457 44.7324C48.4457 44.5434 48.4457 44.3469 48.4457 44.1429C48.4457 43.9389 48.4457 43.7154 48.4457 43.4724V43.0224C48.4457 42.7554 48.4457 42.5094 48.4457 42.2844C48.4457 42.0564 48.4457 41.8374 48.4457 41.6274C48.4457 41.4144 48.4457 41.1984 48.4457 40.9794H49.1882C49.1882 41.1984 49.1882 41.4144 49.1882 41.6274C49.1882 41.8374 49.1882 42.0564 49.1882 42.2844C49.1882 42.5094 49.1882 42.7554 49.1882 43.0224V43.4724C49.1882 43.7154 49.1882 43.9389 49.1882 44.1429C49.1882 44.3469 49.1882 44.5434 49.1882 44.7324C49.1882 44.9214 49.1882 45.1194 49.1882 45.3264H48.4457ZM50.7412 45.4434C50.7412 45.1104 50.7412 44.7909 50.7412 44.4849C50.7412 44.1789 50.7412 43.8414 50.7412 43.4724V43.0224C50.7412 42.7554 50.7412 42.5094 50.7412 42.2844C50.7412 42.0564 50.7412 41.8374 50.7412 41.6274C50.7412 41.4144 50.7412 41.1984 50.7412 40.9794L51.4612 40.9524C51.4612 41.1654 51.4612 41.3754 51.4612 41.5824C51.4612 41.7894 51.4612 42.0039 51.4612 42.2259C51.4612 42.4449 51.4612 42.6834 51.4612 42.9414V44.3634H51.5242L52.4827 42.8829C52.6897 42.5649 52.8967 42.2454 53.1037 41.9244C53.3107 41.6034 53.5162 41.2884 53.7202 40.9794H54.4897C54.4897 41.1984 54.4897 41.4144 54.4897 41.6274C54.4897 41.8374 54.4897 42.0564 54.4897 42.2844C54.4897 42.5094 54.4897 42.7554 54.4897 43.0224V43.4724C54.4897 43.8414 54.4897 44.1789 54.4897 44.4849C54.4897 44.7909 54.4897 45.1104 54.4897 45.4434H53.7742C53.7742 45.1164 53.7742 44.8014 53.7742 44.4984C53.7742 44.1924 53.7742 43.8579 53.7742 43.4949V42.0549H53.7112L52.7617 43.5174C52.5517 43.8414 52.3432 44.1639 52.1362 44.4849C51.9292 44.8059 51.7222 45.1254 51.5152 45.4434H50.7412ZM55.5178 45.4434C55.6798 45.2274 55.8403 45.0114 55.9993 44.7954C56.1583 44.5764 56.3158 44.3634 56.4718 44.1564L57.1288 43.2654L57.2548 43.6119C56.8678 43.6119 56.5588 43.5579 56.3278 43.4499C56.0968 43.3389 55.9303 43.1859 55.8283 42.9909C55.7263 42.7959 55.6753 42.5724 55.6753 42.3204C55.6753 42.0054 55.7413 41.7504 55.8733 41.5554C56.0053 41.3574 56.2003 41.2119 56.4583 41.1189C56.7163 41.0259 57.0358 40.9794 57.4168 40.9794C57.6298 40.9794 57.8488 40.9794 58.0738 40.9794C58.2988 40.9794 58.5118 40.9794 58.7128 40.9794C58.9138 40.9794 59.0818 40.9794 59.2168 40.9794C59.2168 41.1984 59.2168 41.4144 59.2168 41.6274C59.2168 41.8374 59.2168 42.0564 59.2168 42.2844C59.2168 42.5094 59.2168 42.7554 59.2168 43.0224V43.4724C59.2168 43.8414 59.2168 44.1789 59.2168 44.4849C59.2168 44.7909 59.2168 45.1104 59.2168 45.4434H58.4923C58.4923 45.2484 58.4923 45.0594 58.4923 44.8764C58.4923 44.6934 58.4923 44.5059 58.4923 44.3139C58.4923 44.1189 58.4923 43.9149 58.4923 43.7019V43.0224C58.4923 42.7584 58.4923 42.5109 58.4923 42.2799C58.4923 42.0459 58.4923 41.8119 58.4923 41.5779H57.4798C57.3178 41.5779 57.1558 41.5974 56.9938 41.6364C56.8318 41.6754 56.6968 41.7549 56.5888 41.8749C56.4808 41.9919 56.4268 42.1689 56.4268 42.4059C56.4268 42.5979 56.4643 42.7479 56.5393 42.8559C56.6143 42.9609 56.7088 43.0374 56.8228 43.0854C56.9398 43.1304 57.0613 43.1589 57.1873 43.1709C57.3163 43.1829 57.4333 43.1889 57.5383 43.1889H58.6183V43.7289H57.4078L57.8128 43.4364L57.2458 44.2194C57.0988 44.4234 56.9518 44.6289 56.8048 44.8359C56.6578 45.0399 56.5108 45.2424 56.3638 45.4434H55.5178ZM63.733 45.5334C63.538 45.5334 63.3535 45.5229 63.1795 45.5019C63.0085 45.4809 62.851 45.4539 62.707 45.4209C62.566 45.3849 62.44 45.3459 62.329 45.3039C62.218 45.2619 62.125 45.2214 62.05 45.1824L62.1175 44.5119C62.2405 44.5839 62.3845 44.6484 62.5495 44.7054C62.7145 44.7594 62.8915 44.8029 63.0805 44.8359C63.2725 44.8689 63.4675 44.8854 63.6655 44.8854C63.9595 44.8854 64.1905 44.8524 64.3585 44.7864C64.5295 44.7204 64.6495 44.6334 64.7185 44.5254C64.7905 44.4174 64.8265 44.3004 64.8265 44.1744C64.8265 44.0244 64.7785 43.8969 64.6825 43.7919C64.5865 43.6839 64.456 43.6029 64.291 43.5489C64.126 43.4949 63.937 43.4679 63.724 43.4679C63.544 43.4679 63.385 43.4679 63.247 43.4679C63.112 43.4679 62.977 43.4679 62.842 43.4679V42.9054C62.959 42.9054 63.079 42.9054 63.202 42.9054C63.328 42.9054 63.475 42.9054 63.643 42.9054C64.003 42.9054 64.267 42.8364 64.435 42.6984C64.606 42.5604 64.6915 42.3849 64.6915 42.1719C64.6915 42.0219 64.648 41.9004 64.561 41.8074C64.474 41.7114 64.351 41.6409 64.192 41.5959C64.033 41.5509 63.8455 41.5284 63.6295 41.5284C63.4795 41.5284 63.328 41.5404 63.175 41.5644C63.022 41.5854 62.8645 41.6229 62.7025 41.6769C62.5435 41.7279 62.3755 41.7984 62.1985 41.8884L62.131 41.2269C62.254 41.1669 62.3995 41.1099 62.5675 41.0559C62.7385 41.0019 62.9245 40.9584 63.1255 40.9254C63.3295 40.8924 63.538 40.8759 63.751 40.8759C64.132 40.8759 64.447 40.9254 64.696 41.0244C64.948 41.1234 65.1355 41.2599 65.2585 41.4339C65.3845 41.6079 65.4475 41.8059 65.4475 42.0279C65.4475 42.3279 65.368 42.5634 65.209 42.7344C65.053 42.9054 64.876 43.0209 64.678 43.0809V43.1529C64.81 43.1889 64.945 43.2474 65.083 43.3284C65.221 43.4094 65.338 43.5249 65.434 43.6749C65.53 43.8219 65.578 44.0079 65.578 44.2329C65.578 44.4579 65.5225 44.6694 65.4115 44.8674C65.3005 45.0654 65.11 45.2259 64.84 45.3489C64.573 45.4719 64.204 45.5334 63.733 45.5334ZM67.8136 45.5334C67.5466 45.5334 67.3126 45.4824 67.1116 45.3804C66.9106 45.2754 66.7531 45.1269 66.6391 44.9349C66.5281 44.7429 66.4726 44.5119 66.4726 44.2419C66.4726 43.9989 66.5161 43.7949 66.6031 43.6299C66.6901 43.4619 66.8041 43.3254 66.9451 43.2204C67.0861 43.1154 67.2421 43.0344 67.4131 42.9774C67.5841 42.9174 67.7551 42.8724 67.9261 42.8424L69.3256 42.5994C69.3376 42.2964 69.2971 42.0684 69.2041 41.9154C69.1141 41.7594 68.9866 41.6544 68.8216 41.6004C68.6566 41.5464 68.4736 41.5194 68.2726 41.5194C68.1706 41.5194 68.0611 41.5269 67.9441 41.5419C67.8271 41.5569 67.7026 41.5809 67.5706 41.6139C67.4416 41.6439 67.3051 41.6829 67.1611 41.7309C67.0171 41.7789 66.8656 41.8374 66.7066 41.9064L66.6661 41.2269C66.7741 41.1819 66.8956 41.1384 67.0306 41.0964C67.1686 41.0544 67.3141 41.0169 67.4671 40.9839C67.6231 40.9479 67.7821 40.9209 67.9441 40.9029C68.1061 40.8849 68.2696 40.8759 68.4346 40.8759C68.7676 40.8759 69.0541 40.9284 69.2941 41.0334C69.5371 41.1384 69.7231 41.3034 69.8521 41.5284C69.9811 41.7534 70.0456 42.0474 70.0456 42.4104C70.0456 42.5484 70.0456 42.7239 70.0456 42.9369C70.0456 43.1499 70.0456 43.3524 70.0456 43.5444V44.1249C70.0456 44.3289 70.0456 44.5374 70.0456 44.7504C70.0456 44.9604 70.0456 45.1914 70.0456 45.4434H69.3706L69.3301 44.8089H69.2581C69.1651 44.9289 69.0481 45.0444 68.9071 45.1554C68.7661 45.2664 68.6026 45.3579 68.4166 45.4299C68.2336 45.4989 68.0326 45.5334 67.8136 45.5334ZM68.0296 44.9169C68.1886 44.9169 68.3476 44.8839 68.5066 44.8179C68.6656 44.7519 68.8141 44.6544 68.9521 44.5254C69.0931 44.3934 69.2116 44.2284 69.3076 44.0304L69.3121 43.0674C69.2641 43.0944 69.1996 43.1214 69.1186 43.1484C69.0406 43.1754 68.9221 43.2069 68.7631 43.2429C68.6071 43.2759 68.3896 43.3179 68.1106 43.3689C67.9396 43.3989 67.7881 43.4484 67.6561 43.5174C67.5241 43.5834 67.4191 43.6749 67.3411 43.7919C67.2661 43.9059 67.2286 44.0454 67.2286 44.2104C67.2286 44.4684 67.3051 44.6514 67.4581 44.7594C67.6141 44.8644 67.8046 44.9169 68.0296 44.9169ZM71.3691 45.4434C71.3691 45.1104 71.3691 44.7909 71.3691 44.4849C71.3691 44.1789 71.3691 43.8414 71.3691 43.4724V43.0224C71.3691 42.7554 71.3691 42.5094 71.3691 42.2844C71.3691 42.0564 71.3691 41.8374 71.3691 41.6274C71.3691 41.4144 71.3691 41.1984 71.3691 40.9794H75.0816C75.0816 41.1984 75.0816 41.4144 75.0816 41.6274C75.0816 41.8374 75.0816 42.0564 75.0816 42.2844C75.0816 42.5094 75.0816 42.7554 75.0816 43.0224V43.4724C75.0816 43.8414 75.0816 44.1789 75.0816 44.4849C75.0816 44.7909 75.0816 45.1104 75.0816 45.4434H74.3346C74.3346 45.1104 74.3346 44.7909 74.3346 44.4849C74.3346 44.1789 74.3346 43.8414 74.3346 43.4724V43.0224C74.3346 42.7674 74.3346 42.5349 74.3346 42.3249C74.3346 42.1119 74.3346 41.9079 74.3346 41.7129C74.3346 41.5149 74.3346 41.3094 74.3346 41.0964L74.6676 41.5869H71.7831L72.1116 41.0964C72.1116 41.3094 72.1116 41.5149 72.1116 41.7129C72.1116 41.9079 72.1116 42.1119 72.1116 42.3249C72.1116 42.5349 72.1116 42.7674 72.1116 43.0224V43.4724C72.1116 43.8414 72.1116 44.1789 72.1116 44.4849C72.1116 44.7909 72.1116 45.1104 72.1116 45.4434H71.3691ZM76.4931 47.1984C76.4931 46.8684 76.4931 46.5444 76.4931 46.2264C76.4931 45.9114 76.4931 45.5694 76.4931 45.2004V43.0224C76.4931 42.6924 76.4931 42.3549 76.4931 42.0099C76.4931 41.6649 76.4931 41.3214 76.4931 40.9794L77.1681 40.9344L77.1861 41.5149H77.2626C77.3526 41.3979 77.4666 41.2914 77.6046 41.1954C77.7426 41.0964 77.9001 41.0184 78.0771 40.9614C78.2571 40.9014 78.4536 40.8714 78.6666 40.8714C79.0746 40.8714 79.4211 40.9734 79.7061 41.1774C79.9941 41.3784 80.2131 41.6544 80.3631 42.0054C80.5131 42.3564 80.5881 42.7539 80.5881 43.1979C80.5881 43.6149 80.5176 44.0019 80.3766 44.3589C80.2386 44.7129 80.0271 44.9994 79.7421 45.2184C79.4601 45.4344 79.1061 45.5424 78.6801 45.5424C78.4821 45.5424 78.2991 45.5154 78.1311 45.4614C77.9631 45.4104 77.8101 45.3369 77.6721 45.2409C77.5371 45.1419 77.4141 45.0219 77.3031 44.8809H77.2356V45.2319C77.2356 45.5829 77.2356 45.9099 77.2356 46.2129C77.2356 46.5189 77.2356 46.8384 77.2356 47.1714L76.4931 47.1984ZM78.4551 44.8764C78.7761 44.8764 79.0371 44.7969 79.2381 44.6379C79.4421 44.4789 79.5906 44.2734 79.6836 44.0214C79.7796 43.7664 79.8276 43.4934 79.8276 43.2024C79.8276 42.8994 79.7766 42.6234 79.6746 42.3744C79.5756 42.1224 79.4241 41.9214 79.2201 41.7714C79.0161 41.6214 78.7566 41.5464 78.4416 41.5464C78.2856 41.5464 78.1326 41.5704 77.9826 41.6184C77.8326 41.6634 77.6931 41.7324 77.5641 41.8254C77.4381 41.9154 77.3286 42.0279 77.2356 42.1629V44.1474C77.3256 44.3004 77.4291 44.4309 77.5461 44.5389C77.6661 44.6469 77.8011 44.7309 77.9511 44.7909C78.1011 44.8479 78.2691 44.8764 78.4551 44.8764ZM83.8413 45.5424C83.3073 45.5424 82.8678 45.4404 82.5228 45.2364C82.1778 45.0324 81.9213 44.7534 81.7533 44.3994C81.5853 44.0454 81.5013 43.6404 81.5013 43.1844C81.5013 42.7344 81.5838 42.3354 81.7488 41.9874C81.9138 41.6394 82.1508 41.3679 82.4598 41.1729C82.7688 40.9749 83.1378 40.8759 83.5668 40.8759C83.9448 40.8759 84.2688 40.9494 84.5388 41.0964C84.8118 41.2434 85.0218 41.4594 85.1688 41.7444C85.3158 42.0264 85.3893 42.3759 85.3893 42.7929C85.3893 42.9039 85.3863 43.0044 85.3803 43.0944C85.3773 43.1814 85.3683 43.2699 85.3533 43.3599L84.7008 43.0314C84.7068 42.9834 84.7098 42.9384 84.7098 42.8964C84.7128 42.8514 84.7143 42.8079 84.7143 42.7659C84.7143 42.3429 84.6093 42.0219 84.3993 41.8029C84.1893 41.5809 83.9148 41.4699 83.5758 41.4699C83.3028 41.4699 83.0673 41.5404 82.8693 41.6814C82.6743 41.8194 82.5228 42.0114 82.4148 42.2574C82.3068 42.5034 82.2528 42.7839 82.2528 43.0989V43.2024C82.2528 43.5504 82.3128 43.8504 82.4328 44.1024C82.5528 44.3544 82.7343 44.5494 82.9773 44.6874C83.2233 44.8224 83.5353 44.8899 83.9133 44.8899C84.0543 44.8899 84.2028 44.8794 84.3588 44.8584C84.5178 44.8344 84.6738 44.7984 84.8268 44.7504C84.9828 44.7024 85.1313 44.6394 85.2723 44.5614L85.3038 45.2319C85.1898 45.2949 85.0578 45.3504 84.9078 45.3984C84.7578 45.4434 84.5928 45.4779 84.4128 45.5019C84.2328 45.5289 84.0423 45.5424 83.8413 45.5424ZM81.8118 43.3599V42.8289L84.8988 42.8019L85.3533 42.9729V43.3599H81.8118ZM92.5969 46.6854L92.5654 45.3444L92.7319 45.4434H86.5039C86.5039 45.1104 86.5039 44.7909 86.5039 44.4849C86.5039 44.1789 86.5039 43.8414 86.5039 43.4724V43.0224C86.5039 42.7554 86.5039 42.5094 86.5039 42.2844C86.5039 42.0564 86.5039 41.8374 86.5039 41.6274C86.5039 41.4144 86.5039 41.1984 86.5039 40.9794L87.2464 40.9479C87.2464 41.1699 87.2464 41.3889 87.2464 41.6049C87.2464 41.8209 87.2464 42.0444 87.2464 42.2754C87.2464 42.5034 87.2464 42.7524 87.2464 43.0224V43.4724C87.2464 43.7154 87.2464 43.9389 87.2464 44.1429C87.2464 44.3469 87.2464 44.5434 87.2464 44.7324C87.2464 44.9214 87.2464 45.1194 87.2464 45.3264L86.7964 44.8314H91.0399C91.3939 44.8314 91.7584 44.8314 92.1334 44.8314C92.5084 44.8314 92.8804 44.8314 93.2494 44.8314C93.2494 44.9874 93.2494 45.1479 93.2494 45.3129C93.2494 45.4749 93.2494 45.6324 93.2494 45.7854C93.2494 45.9354 93.2494 46.0854 93.2494 46.2354C93.2494 46.3854 93.2494 46.5354 93.2494 46.6854H92.5969ZM89.1769 45.3264C89.1769 45.1194 89.1769 44.9214 89.1769 44.7324C89.1769 44.5434 89.1769 44.3469 89.1769 44.1429C89.1769 43.9389 89.1769 43.7154 89.1769 43.4724V43.0224C89.1769 42.7554 89.1769 42.5094 89.1769 42.2844C89.1769 42.0564 89.1769 41.8374 89.1769 41.6274C89.1769 41.4144 89.1769 41.1984 89.1769 40.9794H89.8879C89.8879 41.1984 89.8879 41.4144 89.8879 41.6274C89.8879 41.8374 89.8879 42.0564 89.8879 42.2844C89.8879 42.5094 89.8879 42.7554 89.8879 43.0224V43.4724C89.8879 43.7154 89.8879 43.9389 89.8879 44.1429C89.8879 44.3469 89.8879 44.5434 89.8879 44.7324C89.8879 44.9214 89.8879 45.1194 89.8879 45.3264H89.1769ZM91.8229 45.3264C91.8229 45.1194 91.8229 44.9214 91.8229 44.7324C91.8229 44.5434 91.8229 44.3469 91.8229 44.1429C91.8229 43.9389 91.8229 43.7154 91.8229 43.4724V43.0224C91.8229 42.7554 91.8229 42.5094 91.8229 42.2844C91.8229 42.0564 91.8229 41.8374 91.8229 41.6274C91.8229 41.4144 91.8229 41.1984 91.8229 40.9794H92.5654C92.5654 41.1984 92.5654 41.4144 92.5654 41.6274C92.5654 41.8374 92.5654 42.0564 92.5654 42.2844C92.5654 42.5094 92.5654 42.7554 92.5654 43.0224V43.4724C92.5654 43.7154 92.5654 43.9389 92.5654 44.1429C92.5654 44.3469 92.5654 44.5434 92.5654 44.7324C92.5654 44.9214 92.5654 45.1194 92.5654 45.3264H91.8229ZM96.2075 45.5424C95.6735 45.5424 95.234 45.4404 94.889 45.2364C94.544 45.0324 94.2875 44.7534 94.1195 44.3994C93.9515 44.0454 93.8675 43.6404 93.8675 43.1844C93.8675 42.7344 93.95 42.3354 94.115 41.9874C94.28 41.6394 94.517 41.3679 94.826 41.1729C95.135 40.9749 95.504 40.8759 95.933 40.8759C96.311 40.8759 96.635 40.9494 96.905 41.0964C97.178 41.2434 97.388 41.4594 97.535 41.7444C97.682 42.0264 97.7555 42.3759 97.7555 42.7929C97.7555 42.9039 97.7525 43.0044 97.7465 43.0944C97.7435 43.1814 97.7345 43.2699 97.7195 43.3599L97.067 43.0314C97.073 42.9834 97.076 42.9384 97.076 42.8964C97.079 42.8514 97.0805 42.8079 97.0805 42.7659C97.0805 42.3429 96.9755 42.0219 96.7655 41.8029C96.5555 41.5809 96.281 41.4699 95.942 41.4699C95.669 41.4699 95.4335 41.5404 95.2355 41.6814C95.0405 41.8194 94.889 42.0114 94.781 42.2574C94.673 42.5034 94.619 42.7839 94.619 43.0989V43.2024C94.619 43.5504 94.679 43.8504 94.799 44.1024C94.919 44.3544 95.1005 44.5494 95.3435 44.6874C95.5895 44.8224 95.9015 44.8899 96.2795 44.8899C96.4205 44.8899 96.569 44.8794 96.725 44.8584C96.884 44.8344 97.04 44.7984 97.193 44.7504C97.349 44.7024 97.4975 44.6394 97.6385 44.5614L97.67 45.2319C97.556 45.2949 97.424 45.3504 97.274 45.3984C97.124 45.4434 96.959 45.4779 96.779 45.5019C96.599 45.5289 96.4085 45.5424 96.2075 45.5424ZM94.178 43.3599V42.8289L97.265 42.8019L97.7195 42.9729V43.3599H94.178ZM98.8701 45.4434C98.8701 45.1104 98.8701 44.7909 98.8701 44.4849C98.8701 44.1789 98.8701 43.8414 98.8701 43.4724V43.0224C98.8701 42.7554 98.8701 42.5094 98.8701 42.2844C98.8701 42.0564 98.8701 41.8374 98.8701 41.6274C98.8701 41.4144 98.8701 41.1984 98.8701 40.9794L99.6081 40.9479C99.6081 41.1699 99.6081 41.3889 99.6081 41.6049C99.6081 41.8209 99.6081 42.0444 99.6081 42.2754C99.6081 42.5034 99.6081 42.7524 99.6081 43.0224V43.4724C99.6081 43.8414 99.6081 44.1789 99.6081 44.4849C99.6081 44.7909 99.6081 45.1104 99.6081 45.4434H98.8701ZM99.3111 43.4904V42.8874H102.178V43.4904H99.3111ZM101.845 45.4434C101.845 45.1104 101.845 44.7909 101.845 44.4849C101.845 44.1789 101.845 43.8414 101.845 43.4724V43.0224C101.845 42.7554 101.845 42.5094 101.845 42.2844C101.845 42.0564 101.845 41.8374 101.845 41.6274C101.845 41.4144 101.845 41.1984 101.845 40.9794H102.583C102.583 41.1984 102.583 41.4144 102.583 41.6274C102.583 41.8374 102.583 42.0564 102.583 42.2844C102.583 42.5094 102.583 42.7554 102.583 43.0224V43.4724C102.583 43.8414 102.583 44.1789 102.583 44.4849C102.583 44.7909 102.583 45.1104 102.583 45.4434H101.845ZM105.106 45.5334C104.839 45.5334 104.605 45.4824 104.404 45.3804C104.203 45.2754 104.045 45.1269 103.931 44.9349C103.82 44.7429 103.765 44.5119 103.765 44.2419C103.765 43.9989 103.808 43.7949 103.895 43.6299C103.982 43.4619 104.096 43.3254 104.237 43.2204C104.378 43.1154 104.534 43.0344 104.705 42.9774C104.876 42.9174 105.047 42.8724 105.218 42.8424L106.618 42.5994C106.63 42.2964 106.589 42.0684 106.496 41.9154C106.406 41.7594 106.279 41.6544 106.114 41.6004C105.949 41.5464 105.766 41.5194 105.565 41.5194C105.463 41.5194 105.353 41.5269 105.236 41.5419C105.119 41.5569 104.995 41.5809 104.863 41.6139C104.734 41.6439 104.597 41.6829 104.453 41.7309C104.309 41.7789 104.158 41.8374 103.999 41.9064L103.958 41.2269C104.066 41.1819 104.188 41.1384 104.323 41.0964C104.461 41.0544 104.606 41.0169 104.759 40.9839C104.915 40.9479 105.074 40.9209 105.236 40.9029C105.398 40.8849 105.562 40.8759 105.727 40.8759C106.06 40.8759 106.346 40.9284 106.586 41.0334C106.829 41.1384 107.015 41.3034 107.144 41.5284C107.273 41.7534 107.338 42.0474 107.338 42.4104C107.338 42.5484 107.338 42.7239 107.338 42.9369C107.338 43.1499 107.338 43.3524 107.338 43.5444V44.1249C107.338 44.3289 107.338 44.5374 107.338 44.7504C107.338 44.9604 107.338 45.1914 107.338 45.4434H106.663L106.622 44.8089H106.55C106.457 44.9289 106.34 45.0444 106.199 45.1554C106.058 45.2664 105.895 45.3579 105.709 45.4299C105.526 45.4989 105.325 45.5334 105.106 45.5334ZM105.322 44.9169C105.481 44.9169 105.64 44.8839 105.799 44.8179C105.958 44.7519 106.106 44.6544 106.244 44.5254C106.385 44.3934 106.504 44.2284 106.6 44.0304L106.604 43.0674C106.556 43.0944 106.492 43.1214 106.411 43.1484C106.333 43.1754 106.214 43.2069 106.055 43.2429C105.899 43.2759 105.682 43.3179 105.403 43.3689C105.232 43.3989 105.08 43.4484 104.948 43.5174C104.816 43.5834 104.711 43.6749 104.633 43.7919C104.558 43.9059 104.521 44.0454 104.521 44.2104C104.521 44.4684 104.597 44.6514 104.75 44.7594C104.906 44.8644 105.097 44.9169 105.322 44.9169ZM110.384 45.4434C110.384 45.1104 110.384 44.7909 110.384 44.4849C110.384 44.1789 110.384 43.8414 110.384 43.4724V43.0224C110.384 42.7554 110.384 42.5094 110.384 42.2844C110.384 42.0564 110.384 41.8374 110.384 41.6274C110.384 41.4144 110.384 41.1984 110.384 40.9794L111.122 40.9479C111.122 41.1699 111.122 41.3889 111.122 41.6049C111.122 41.8209 111.122 42.0444 111.122 42.2754C111.122 42.5034 111.122 42.7524 111.122 43.0224V43.4724C111.122 43.8414 111.122 44.1789 111.122 44.4849C111.122 44.7909 111.122 45.1104 111.122 45.4434H110.384ZM110.825 43.4904V42.8874H113.691V43.4904H110.825ZM113.358 45.4434C113.358 45.1104 113.358 44.7909 113.358 44.4849C113.358 44.1789 113.358 43.8414 113.358 43.4724V43.0224C113.358 42.7554 113.358 42.5094 113.358 42.2844C113.358 42.0564 113.358 41.8374 113.358 41.6274C113.358 41.4144 113.358 41.1984 113.358 40.9794H114.096C114.096 41.1984 114.096 41.4144 114.096 41.6274C114.096 41.8374 114.096 42.0564 114.096 42.2844C114.096 42.5094 114.096 42.7554 114.096 43.0224V43.4724C114.096 43.8414 114.096 44.1789 114.096 44.4849C114.096 44.7909 114.096 45.1104 114.096 45.4434H113.358ZM116.619 45.5334C116.352 45.5334 116.118 45.4824 115.917 45.3804C115.716 45.2754 115.559 45.1269 115.445 44.9349C115.334 44.7429 115.278 44.5119 115.278 44.2419C115.278 43.9989 115.322 43.7949 115.409 43.6299C115.496 43.4619 115.61 43.3254 115.751 43.2204C115.892 43.1154 116.048 43.0344 116.219 42.9774C116.39 42.9174 116.561 42.8724 116.732 42.8424L118.131 42.5994C118.143 42.2964 118.103 42.0684 118.01 41.9154C117.92 41.7594 117.792 41.6544 117.627 41.6004C117.462 41.5464 117.279 41.5194 117.078 41.5194C116.976 41.5194 116.867 41.5269 116.75 41.5419C116.633 41.5569 116.508 41.5809 116.376 41.6139C116.247 41.6439 116.111 41.6829 115.967 41.7309C115.823 41.7789 115.671 41.8374 115.512 41.9064L115.472 41.2269C115.58 41.1819 115.701 41.1384 115.836 41.0964C115.974 41.0544 116.12 41.0169 116.273 40.9839C116.429 40.9479 116.588 40.9209 116.75 40.9029C116.912 40.8849 117.075 40.8759 117.24 40.8759C117.573 40.8759 117.86 40.9284 118.1 41.0334C118.343 41.1384 118.529 41.3034 118.658 41.5284C118.787 41.7534 118.851 42.0474 118.851 42.4104C118.851 42.5484 118.851 42.7239 118.851 42.9369C118.851 43.1499 118.851 43.3524 118.851 43.5444V44.1249C118.851 44.3289 118.851 44.5374 118.851 44.7504C118.851 44.9604 118.851 45.1914 118.851 45.4434H118.176L118.136 44.8089H118.064C117.971 44.9289 117.854 45.0444 117.713 45.1554C117.572 45.2664 117.408 45.3579 117.222 45.4299C117.039 45.4989 116.838 45.5334 116.619 45.5334ZM116.835 44.9169C116.994 44.9169 117.153 44.8839 117.312 44.8179C117.471 44.7519 117.62 44.6544 117.758 44.5254C117.899 44.3934 118.017 44.2284 118.113 44.0304L118.118 43.0674C118.07 43.0944 118.005 43.1214 117.924 43.1484C117.846 43.1754 117.728 43.2069 117.569 43.2429C117.413 43.2759 117.195 43.3179 116.916 43.3689C116.745 43.3989 116.594 43.4484 116.462 43.5174C116.33 43.5834 116.225 43.6749 116.147 43.7919C116.072 43.9059 116.034 44.0454 116.034 44.2104C116.034 44.4684 116.111 44.6514 116.264 44.7594C116.42 44.8644 116.61 44.9169 116.835 44.9169ZM122.937 45.4434C122.937 45.1104 122.937 44.7909 122.937 44.4849C122.937 44.1789 122.937 43.8414 122.937 43.4724V43.0224C122.937 42.7674 122.937 42.5349 122.937 42.3249C122.937 42.1119 122.937 41.9079 122.937 41.7129C122.937 41.5149 122.937 41.3094 122.937 41.0964L123.184 41.5869H123.013C122.752 41.5869 122.484 41.5869 122.208 41.5869C121.932 41.5869 121.66 41.5869 121.393 41.5869V40.9794H125.223V41.5869C124.956 41.5869 124.684 41.5869 124.408 41.5869C124.132 41.5869 123.864 41.5869 123.603 41.5869H123.432L123.679 41.0964C123.679 41.3094 123.679 41.5149 123.679 41.7129C123.679 41.9079 123.679 42.1119 123.679 42.3249C123.679 42.5349 123.679 42.7674 123.679 43.0224V43.4724C123.679 43.8414 123.679 44.1789 123.679 44.4849C123.679 44.7909 123.679 45.1104 123.679 45.4434H122.937ZM128.156 45.5424C127.622 45.5424 127.182 45.4404 126.837 45.2364C126.492 45.0324 126.236 44.7534 126.068 44.3994C125.9 44.0454 125.816 43.6404 125.816 43.1844C125.816 42.7344 125.898 42.3354 126.063 41.9874C126.228 41.6394 126.465 41.3679 126.774 41.1729C127.083 40.9749 127.452 40.8759 127.881 40.8759C128.259 40.8759 128.583 40.9494 128.853 41.0964C129.126 41.2434 129.336 41.4594 129.483 41.7444C129.63 42.0264 129.704 42.3759 129.704 42.7929C129.704 42.9039 129.701 43.0044 129.695 43.0944C129.692 43.1814 129.683 43.2699 129.668 43.3599L129.015 43.0314C129.021 42.9834 129.024 42.9384 129.024 42.8964C129.027 42.8514 129.029 42.8079 129.029 42.7659C129.029 42.3429 128.924 42.0219 128.714 41.8029C128.504 41.5809 128.229 41.4699 127.89 41.4699C127.617 41.4699 127.382 41.5404 127.184 41.6814C126.989 41.8194 126.837 42.0114 126.729 42.2574C126.621 42.5034 126.567 42.7839 126.567 43.0989V43.2024C126.567 43.5504 126.627 43.8504 126.747 44.1024C126.867 44.3544 127.049 44.5494 127.292 44.6874C127.538 44.8224 127.85 44.8899 128.228 44.8899C128.369 44.8899 128.517 44.8794 128.673 44.8584C128.832 44.8344 128.988 44.7984 129.141 44.7504C129.297 44.7024 129.446 44.6394 129.587 44.5614L129.618 45.2319C129.504 45.2949 129.372 45.3504 129.222 45.3984C129.072 45.4434 128.907 45.4779 128.727 45.5019C128.547 45.5289 128.357 45.5424 128.156 45.5424ZM126.126 43.3599V42.8289L129.213 42.8019L129.668 42.9729V43.3599H126.126ZM130.818 47.1984C130.818 46.8684 130.818 46.5444 130.818 46.2264C130.818 45.9114 130.818 45.5694 130.818 45.2004V43.0224C130.818 42.6924 130.818 42.3549 130.818 42.0099C130.818 41.6649 130.818 41.3214 130.818 40.9794L131.493 40.9344L131.511 41.5149H131.588C131.678 41.3979 131.792 41.2914 131.93 41.1954C132.068 41.0964 132.225 41.0184 132.402 40.9614C132.582 40.9014 132.779 40.8714 132.992 40.8714C133.4 40.8714 133.746 40.9734 134.031 41.1774C134.319 41.3784 134.538 41.6544 134.688 42.0054C134.838 42.3564 134.913 42.7539 134.913 43.1979C134.913 43.6149 134.843 44.0019 134.702 44.3589C134.564 44.7129 134.352 44.9994 134.067 45.2184C133.785 45.4344 133.431 45.5424 133.005 45.5424C132.807 45.5424 132.624 45.5154 132.456 45.4614C132.288 45.4104 132.135 45.3369 131.997 45.2409C131.862 45.1419 131.739 45.0219 131.628 44.8809H131.561V45.2319C131.561 45.5829 131.561 45.9099 131.561 46.2129C131.561 46.5189 131.561 46.8384 131.561 47.1714L130.818 47.1984ZM132.78 44.8764C133.101 44.8764 133.362 44.7969 133.563 44.6379C133.767 44.4789 133.916 44.2734 134.009 44.0214C134.105 43.7664 134.153 43.4934 134.153 43.2024C134.153 42.8994 134.102 42.6234 134 42.3744C133.901 42.1224 133.749 41.9214 133.545 41.7714C133.341 41.6214 133.082 41.5464 132.767 41.5464C132.611 41.5464 132.458 41.5704 132.308 41.6184C132.158 41.6634 132.018 41.7324 131.889 41.8254C131.763 41.9154 131.654 42.0279 131.561 42.1629V44.1474C131.651 44.3004 131.754 44.4309 131.871 44.5389C131.991 44.6469 132.126 44.7309 132.276 44.7909C132.426 44.8479 132.594 44.8764 132.78 44.8764ZM136.083 47.1984C136.083 46.8684 136.083 46.5444 136.083 46.2264C136.083 45.9114 136.083 45.5694 136.083 45.2004V43.0224C136.083 42.6924 136.083 42.3549 136.083 42.0099C136.083 41.6649 136.083 41.3214 136.083 40.9794L136.758 40.9344L136.776 41.5149H136.852C136.942 41.3979 137.056 41.2914 137.194 41.1954C137.332 41.0964 137.49 41.0184 137.667 40.9614C137.847 40.9014 138.043 40.8714 138.256 40.8714C138.664 40.8714 139.011 40.9734 139.296 41.1774C139.584 41.3784 139.803 41.6544 139.953 42.0054C140.103 42.3564 140.178 42.7539 140.178 43.1979C140.178 43.6149 140.107 44.0019 139.966 44.3589C139.828 44.7129 139.617 44.9994 139.332 45.2184C139.05 45.4344 138.696 45.5424 138.27 45.5424C138.072 45.5424 137.889 45.5154 137.721 45.4614C137.553 45.4104 137.4 45.3369 137.262 45.2409C137.127 45.1419 137.004 45.0219 136.893 44.8809H136.825V45.2319C136.825 45.5829 136.825 45.9099 136.825 46.2129C136.825 46.5189 136.825 46.8384 136.825 47.1714L136.083 47.1984ZM138.045 44.8764C138.366 44.8764 138.627 44.7969 138.828 44.6379C139.032 44.4789 139.18 44.2734 139.273 44.0214C139.369 43.7664 139.417 43.4934 139.417 43.2024C139.417 42.8994 139.366 42.6234 139.264 42.3744C139.165 42.1224 139.014 41.9214 138.81 41.7714C138.606 41.6214 138.346 41.5464 138.031 41.5464C137.875 41.5464 137.722 41.5704 137.572 41.6184C137.422 41.6634 137.283 41.7324 137.154 41.8254C137.028 41.9154 136.918 42.0279 136.825 42.1629V44.1474C136.915 44.3004 137.019 44.4309 137.136 44.5389C137.256 44.6469 137.391 44.7309 137.541 44.7909C137.691 44.8479 137.859 44.8764 138.045 44.8764ZM141.348 45.4434C141.348 45.1104 141.348 44.7909 141.348 44.4849C141.348 44.1789 141.348 43.8414 141.348 43.4724V43.0224C141.348 42.7554 141.348 42.5094 141.348 42.2844C141.348 42.0564 141.348 41.8374 141.348 41.6274C141.348 41.4144 141.348 41.1984 141.348 40.9794L142.068 40.9524C142.068 41.1654 142.068 41.3754 142.068 41.5824C142.068 41.7894 142.068 42.0039 142.068 42.2259C142.068 42.4449 142.068 42.6834 142.068 42.9414V44.3634H142.131L143.089 42.8829C143.296 42.5649 143.503 42.2454 143.71 41.9244C143.917 41.6034 144.123 41.2884 144.327 40.9794H145.096C145.096 41.1984 145.096 41.4144 145.096 41.6274C145.096 41.8374 145.096 42.0564 145.096 42.2844C145.096 42.5094 145.096 42.7554 145.096 43.0224V43.4724C145.096 43.8414 145.096 44.1789 145.096 44.4849C145.096 44.7909 145.096 45.1104 145.096 45.4434H144.381C144.381 45.1164 144.381 44.8014 144.381 44.4984C144.381 44.1924 144.381 43.8579 144.381 43.4949V42.0549H144.318L143.368 43.5174C143.158 43.8414 142.95 44.1639 142.743 44.4849C142.536 44.8059 142.329 45.1254 142.122 45.4434H141.348ZM147.546 45.4434C147.546 45.1104 147.546 44.7909 147.546 44.4849C147.546 44.1789 147.546 43.8414 147.546 43.4724V43.0224C147.546 42.7674 147.546 42.5349 147.546 42.3249C147.546 42.1119 147.546 41.9079 147.546 41.7129C147.546 41.5149 147.546 41.3094 147.546 41.0964L147.794 41.5869H147.623C147.362 41.5869 147.093 41.5869 146.817 41.5869C146.541 41.5869 146.27 41.5869 146.003 41.5869V40.9794H149.832V41.5869C149.565 41.5869 149.294 41.5869 149.018 41.5869C148.742 41.5869 148.473 41.5869 148.212 41.5869H148.041L148.289 41.0964C148.289 41.3094 148.289 41.5149 148.289 41.7129C148.289 41.9079 148.289 42.1119 148.289 42.3249C148.289 42.5349 148.289 42.7674 148.289 43.0224V43.4724C148.289 43.8414 148.289 44.1789 148.289 44.4849C148.289 44.7909 148.289 45.1104 148.289 45.4434H147.546ZM152.68 45.5424C152.311 45.5424 151.985 45.4794 151.703 45.3534C151.424 45.2244 151.19 45.0504 151.001 44.8314C150.812 44.6124 150.668 44.3619 150.569 44.0799C150.473 43.7949 150.425 43.4964 150.425 43.1844C150.425 42.7374 150.515 42.3414 150.695 41.9964C150.878 41.6484 151.136 41.3739 151.469 41.1729C151.805 40.9719 152.204 40.8714 152.666 40.8714C153.023 40.8714 153.34 40.9299 153.616 41.0469C153.892 41.1639 154.126 41.3274 154.318 41.5374C154.51 41.7474 154.655 41.9934 154.754 42.2754C154.853 42.5544 154.903 42.8574 154.903 43.1844C154.903 43.6254 154.813 44.0244 154.633 44.3814C154.453 44.7384 154.196 45.0219 153.863 45.2319C153.533 45.4389 153.139 45.5424 152.68 45.5424ZM152.68 44.8944C153.007 44.8944 153.278 44.8134 153.494 44.6514C153.71 44.4894 153.872 44.2779 153.98 44.0169C154.088 43.7559 154.142 43.4784 154.142 43.1844C154.142 42.8484 154.082 42.5559 153.962 42.3069C153.842 42.0579 153.673 41.8644 153.454 41.7264C153.235 41.5884 152.975 41.5194 152.675 41.5194C152.351 41.5194 152.078 41.5929 151.856 41.7399C151.634 41.8869 151.466 42.0864 151.352 42.3384C151.241 42.5904 151.186 42.8724 151.186 43.1844C151.186 43.4784 151.24 43.7559 151.348 44.0169C151.459 44.2779 151.625 44.4894 151.847 44.6514C152.069 44.8134 152.347 44.8944 152.68 44.8944ZM156.061 47.1984C156.061 46.8684 156.061 46.5444 156.061 46.2264C156.061 45.9114 156.061 45.5694 156.061 45.2004V43.0224C156.061 42.6924 156.061 42.3549 156.061 42.0099C156.061 41.6649 156.061 41.3214 156.061 40.9794L156.736 40.9344L156.754 41.5149H156.83C156.92 41.3979 157.034 41.2914 157.172 41.1954C157.31 41.0964 157.468 41.0184 157.645 40.9614C157.825 40.9014 158.021 40.8714 158.234 40.8714C158.642 40.8714 158.989 40.9734 159.274 41.1774C159.562 41.3784 159.781 41.6544 159.931 42.0054C160.081 42.3564 160.156 42.7539 160.156 43.1979C160.156 43.6149 160.085 44.0019 159.944 44.3589C159.806 44.7129 159.595 44.9994 159.31 45.2184C159.028 45.4344 158.674 45.5424 158.248 45.5424C158.05 45.5424 157.867 45.5154 157.699 45.4614C157.531 45.4104 157.378 45.3369 157.24 45.2409C157.105 45.1419 156.982 45.0219 156.871 44.8809H156.803V45.2319C156.803 45.5829 156.803 45.9099 156.803 46.2129C156.803 46.5189 156.803 46.8384 156.803 47.1714L156.061 47.1984ZM158.023 44.8764C158.344 44.8764 158.605 44.7969 158.806 44.6379C159.01 44.4789 159.158 44.2734 159.251 44.0214C159.347 43.7664 159.395 43.4934 159.395 43.2024C159.395 42.8994 159.344 42.6234 159.242 42.3744C159.143 42.1224 158.992 41.9214 158.788 41.7714C158.584 41.6214 158.324 41.5464 158.009 41.5464C157.853 41.5464 157.7 41.5704 157.55 41.6184C157.4 41.6634 157.261 41.7324 157.132 41.8254C157.006 41.9154 156.896 42.0279 156.803 42.1629V44.1474C156.893 44.3004 156.997 44.4309 157.114 44.5389C157.234 44.6469 157.369 44.7309 157.519 44.7909C157.669 44.8479 157.837 44.8764 158.023 44.8764ZM161.325 45.4434C161.325 45.1104 161.325 44.7909 161.325 44.4849C161.325 44.1789 161.325 43.8414 161.325 43.4724V43.0224C161.325 42.7554 161.325 42.5094 161.325 42.2844C161.325 42.0564 161.325 41.8374 161.325 41.6274C161.325 41.4144 161.325 41.1984 161.325 40.9794L162.045 40.9524C162.045 41.1654 162.045 41.3754 162.045 41.5824C162.045 41.7894 162.045 42.0039 162.045 42.2259C162.045 42.4449 162.045 42.6834 162.045 42.9414V44.3634H162.108L163.067 42.8829C163.274 42.5649 163.481 42.2454 163.688 41.9244C163.895 41.6034 164.1 41.2884 164.304 40.9794H165.074C165.074 41.1984 165.074 41.4144 165.074 41.6274C165.074 41.8374 165.074 42.0564 165.074 42.2844C165.074 42.5094 165.074 42.7554 165.074 43.0224V43.4724C165.074 43.8414 165.074 44.1789 165.074 44.4849C165.074 44.7909 165.074 45.1104 165.074 45.4434H164.358C164.358 45.1164 164.358 44.8014 164.358 44.4984C164.358 44.1924 164.358 43.8579 164.358 43.4949V42.0549H164.295L163.346 43.5174C163.136 43.8414 162.927 44.1639 162.72 44.4849C162.513 44.8059 162.306 45.1254 162.099 45.4434H161.325ZM166.484 45.4434C166.484 45.1104 166.484 44.7909 166.484 44.4849C166.484 44.1789 166.484 43.8414 166.484 43.4724V43.0224C166.484 42.7554 166.484 42.5094 166.484 42.2844C166.484 42.0564 166.484 41.8374 166.484 41.6274C166.484 41.4144 166.484 41.1984 166.484 40.9794L167.204 40.9524C167.204 41.1654 167.204 41.3754 167.204 41.5824C167.204 41.7894 167.204 42.0039 167.204 42.2259C167.204 42.4449 167.204 42.6834 167.204 42.9414V44.3634H167.267L168.226 42.8829C168.433 42.5649 168.64 42.2454 168.847 41.9244C169.054 41.6034 169.259 41.2884 169.463 40.9794H170.233C170.233 41.1984 170.233 41.4144 170.233 41.6274C170.233 41.8374 170.233 42.0564 170.233 42.2844C170.233 42.5094 170.233 42.7554 170.233 43.0224V43.4724C170.233 43.8414 170.233 44.1789 170.233 44.4849C170.233 44.7909 170.233 45.1104 170.233 45.4434H169.517C169.517 45.1164 169.517 44.8014 169.517 44.4984C169.517 44.1924 169.517 43.8579 169.517 43.4949V42.0549H169.454L168.505 43.5174C168.295 43.8414 168.086 44.1639 167.879 44.4849C167.672 44.8059 167.465 45.1254 167.258 45.4434H166.484ZM173.492 45.4434C173.492 45.0864 173.492 44.7429 173.492 44.4129C173.492 44.0829 173.492 43.7199 173.492 43.3239V41.1684C173.492 40.7694 173.492 40.4019 173.492 40.0659C173.492 39.7299 173.492 39.3834 173.492 39.0264C173.735 39.0264 174.049 39.0264 174.433 39.0264C174.82 39.0264 175.262 39.0264 175.76 39.0264C176.249 39.0264 176.653 39.0909 176.971 39.2199C177.292 39.3489 177.532 39.5499 177.691 39.8229C177.85 40.0929 177.929 40.4394 177.929 40.8624C177.929 41.2554 177.856 41.6049 177.709 41.9109C177.565 42.2139 177.322 42.4524 176.98 42.6264C176.641 42.8004 176.177 42.8874 175.589 42.8874C175.439 42.8874 175.279 42.8874 175.108 42.8874C174.937 42.8874 174.77 42.8874 174.608 42.8874C174.446 42.8874 174.305 42.8874 174.185 42.8874V42.2124H175.436C175.82 42.2124 176.134 42.1674 176.377 42.0774C176.623 41.9874 176.804 41.8434 176.921 41.6454C177.038 41.4474 177.097 41.1879 177.097 40.8669C177.097 40.6029 177.053 40.3929 176.966 40.2369C176.882 40.0809 176.77 39.9654 176.629 39.8904C176.491 39.8124 176.341 39.7614 176.179 39.7374C176.017 39.7134 175.859 39.7014 175.706 39.7014H173.897L174.293 39.1434C174.293 39.5034 174.293 39.8514 174.293 40.1874C174.293 40.5204 174.293 40.8864 174.293 41.2854V43.3239C174.293 43.7199 174.293 44.0829 174.293 44.4129C174.293 44.7429 174.293 45.0864 174.293 45.4434H173.492ZM182.195 44.8809L182.204 44.2239H182.505C183.033 44.2239 183.462 44.1489 183.792 43.9989C184.125 43.8489 184.371 43.6284 184.53 43.3374C184.689 43.0434 184.769 42.6789 184.769 42.2439C184.769 41.8029 184.691 41.4354 184.535 41.1414C184.379 40.8444 184.137 40.6209 183.81 40.4709C183.486 40.3209 183.066 40.2459 182.55 40.2459H182.249L182.24 39.5889H182.559C183.288 39.5889 183.876 39.7014 184.323 39.9264C184.77 40.1514 185.096 40.4634 185.3 40.8624C185.507 41.2584 185.61 41.7189 185.61 42.2439C185.61 42.7479 185.508 43.1994 185.304 43.5984C185.103 43.9944 184.775 44.3079 184.319 44.5389C183.866 44.7669 183.258 44.8809 182.496 44.8809H182.195ZM181.794 44.8809C181.221 44.8809 180.737 44.8149 180.341 44.6829C179.945 44.5509 179.624 44.3664 179.378 44.1294C179.135 43.8894 178.958 43.6104 178.847 43.2924C178.736 42.9714 178.68 42.6219 178.68 42.2439C178.68 41.7189 178.782 41.2584 178.986 40.8624C179.19 40.4634 179.516 40.1514 179.963 39.9264C180.413 39.7014 181.002 39.5889 181.731 39.5889H182.046L182.037 40.2459H181.736C181.226 40.2459 180.807 40.3209 180.48 40.4709C180.153 40.6209 179.912 40.8444 179.756 41.1414C179.6 41.4354 179.522 41.8029 179.522 42.2439C179.522 42.6789 179.6 43.0434 179.756 43.3374C179.915 43.6284 180.161 43.8489 180.494 43.9989C180.827 44.1489 181.256 44.2239 181.781 44.2239H182.082L182.091 44.8809H181.794ZM181.736 45.6324C181.736 45.4674 181.736 45.3114 181.736 45.1644C181.736 45.0174 181.736 44.8674 181.736 44.7144L181.754 44.6964C181.754 44.4894 181.754 44.2779 181.754 44.0619C181.754 43.8429 181.754 43.6149 181.754 43.3779V41.0919C181.754 40.8549 181.754 40.6284 181.754 40.4124C181.754 40.1934 181.754 39.9804 181.754 39.7734L181.736 39.7554C181.736 39.6024 181.736 39.4524 181.736 39.3054C181.736 39.1554 181.736 38.9994 181.736 38.8374H182.55C182.55 38.9994 182.55 39.1554 182.55 39.3054C182.55 39.4524 182.55 39.6024 182.55 39.7554L182.532 39.7734C182.532 39.9804 182.532 40.1934 182.532 40.4124C182.532 40.6284 182.532 40.8549 182.532 41.0919V43.3779C182.532 43.6149 182.532 43.8414 182.532 44.0574C182.532 44.2734 182.532 44.4864 182.532 44.6964L182.55 44.7144C182.55 44.8644 182.55 45.0144 182.55 45.1644C182.55 45.3114 182.55 45.4674 182.55 45.6324H181.736Z" fill="#9A9A9A"/>
<g clip-path="url(#clip0_111_5246)">
<path d="M28.2161 28.9157C26.5237 28.8387 25.6044 28.5571 24.9929 28.3185C24.1826 28.0031 23.605 27.6275 22.9969 27.0203C22.3888 26.413 22.0124 25.8354 21.6986 25.0251C21.4601 24.4136 21.1785 23.4943 21.1015 21.8019C21.0169 19.9725 21 19.4236 21 14.7887C21 10.1539 21.0186 9.60582 21.1006 7.77473C21.1776 6.08234 21.4609 5.16467 21.6978 4.55149C22.0132 3.74124 22.3896 3.16357 22.996 2.55462C23.6033 1.94735 24.181 1.57014 24.992 1.25636C25.6035 1.01785 26.5229 0.736206 28.2153 0.659241C30.0455 0.575509 30.5953 0.558594 35.2284 0.558594C39.8633 0.558594 40.4113 0.577201 42.2424 0.659241C43.9348 0.736206 44.8525 1.01954 45.4657 1.25636C46.2759 1.57014 46.8536 1.94735 47.4617 2.55462C48.0698 3.16188 48.4445 3.74039 48.76 4.55064C48.9985 5.16213 49.2801 6.08149 49.3571 7.77388C49.4408 9.60498 49.4577 10.153 49.4577 14.7879C49.4577 19.421 49.4408 19.9708 49.3571 21.8019C49.2801 23.4943 48.9968 24.4136 48.76 25.0251C48.4445 25.8354 48.069 26.413 47.4617 27.0203C46.8544 27.6275 46.2759 28.0031 45.4657 28.3185C44.8542 28.5571 43.9348 28.8387 42.2424 28.9157C40.413 28.9994 39.8633 29.0163 35.2284 29.0163C30.5953 29.0163 30.0455 29.0002 28.2161 28.9157Z" fill="url(#paint0_radial_111_5246)"/>
<path d="M28.2161 28.9157C26.5237 28.8387 25.6044 28.5571 24.9929 28.3185C24.1826 28.0031 23.605 27.6275 22.9969 27.0203C22.3888 26.413 22.0124 25.8354 21.6986 25.0251C21.4601 24.4136 21.1785 23.4943 21.1015 21.8019C21.0169 19.9725 21 19.4236 21 14.7887C21 10.1539 21.0186 9.60582 21.1006 7.77473C21.1776 6.08234 21.4609 5.16467 21.6978 4.55149C22.0132 3.74124 22.3896 3.16357 22.996 2.55462C23.6033 1.94735 24.181 1.57014 24.992 1.25636C25.6035 1.01785 26.5229 0.736206 28.2153 0.659241C30.0455 0.575509 30.5953 0.558594 35.2284 0.558594C39.8633 0.558594 40.4113 0.577201 42.2424 0.659241C43.9348 0.736206 44.8525 1.01954 45.4657 1.25636C46.2759 1.57014 46.8536 1.94735 47.4617 2.55462C48.0698 3.16188 48.4445 3.74039 48.76 4.55064C48.9985 5.16213 49.2801 6.08149 49.3571 7.77388C49.4408 9.60498 49.4577 10.153 49.4577 14.7879C49.4577 19.421 49.4408 19.9708 49.3571 21.8019C49.2801 23.4943 48.9968 24.4136 48.76 25.0251C48.4445 25.8354 48.069 26.413 47.4617 27.0203C46.8544 27.6275 46.2759 28.0031 45.4657 28.3185C44.8542 28.5571 43.9348 28.8387 42.2424 28.9157C40.413 28.9994 39.8633 29.0163 35.2284 29.0163C30.5953 29.0163 30.0455 29.0002 28.2161 28.9157Z" fill="url(#paint1_radial_111_5246)"/>
<path d="M31.7349 14.8475C31.7349 12.9013 33.3122 11.3232 35.2584 11.3232C37.2046 11.3232 38.7828 12.9013 38.7828 14.8475C38.7828 16.7938 37.2046 18.3719 35.2584 18.3719C33.3122 18.3719 31.7349 16.7938 31.7349 14.8475ZM29.8298 14.8475C29.8298 17.8458 32.2602 20.2762 35.2584 20.2762C38.2567 20.2762 40.6871 17.8458 40.6871 14.8475C40.6871 11.8493 38.2567 9.41887 35.2584 9.41887C32.2602 9.41887 29.8298 11.8491 29.8298 14.8475M39.6334 9.20362C39.6333 9.45454 39.7077 9.69985 39.847 9.90854C39.9863 10.1172 40.1844 10.2799 40.4161 10.376C40.6479 10.4721 40.903 10.4974 41.1491 10.4485C41.3952 10.3997 41.6213 10.2789 41.7988 10.1016C41.9763 9.92421 42.0972 9.69821 42.1463 9.45213C42.1953 9.20606 42.1703 8.95096 42.0744 8.71911C41.9785 8.48725 41.8159 8.28905 41.6074 8.14956C41.3988 8.01008 41.1535 7.93557 40.9026 7.93547H40.9021C40.5658 7.93563 40.2433 8.06927 40.0054 8.30705C39.7675 8.54482 39.6337 8.86729 39.6334 9.20362ZM30.9873 23.4531C29.9565 23.4062 29.3963 23.2345 29.024 23.0894C28.5304 22.8973 28.1782 22.6684 27.8079 22.2986C27.4377 21.9289 27.2085 21.577 27.0171 21.0834C26.872 20.7113 26.7003 20.1509 26.6535 19.1201C26.6022 18.0057 26.592 17.671 26.592 14.8477C26.592 12.0244 26.6031 11.6906 26.6535 10.5753C26.7004 9.54455 26.8734 8.98524 27.0171 8.61201C27.2093 8.11841 27.4382 7.76623 27.8079 7.39595C28.1777 7.02567 28.5296 6.79647 29.024 6.60516C29.3961 6.46002 29.9565 6.28833 30.9873 6.24147C32.1017 6.19022 32.4364 6.17999 35.2584 6.17999C38.0804 6.17999 38.4155 6.1909 39.5309 6.24164C40.5616 6.28858 41.1209 6.46154 41.4941 6.60533C41.9877 6.79664 42.3399 7.02635 42.7102 7.39612C43.0805 7.76589 43.3088 8.11858 43.501 8.61217C43.6461 8.98431 43.8178 9.54472 43.8647 10.5755C43.9159 11.6908 43.9262 12.0246 43.9262 14.8479C43.9262 17.6712 43.9159 18.005 43.8647 19.1203C43.8177 20.1511 43.6452 20.7113 43.501 21.0836C43.3088 21.5772 43.08 21.9294 42.7102 22.2988C42.3404 22.6682 41.9877 22.8974 41.4941 23.0896C41.122 23.2347 40.5616 23.4064 39.5309 23.4533C38.4165 23.5045 38.0817 23.5148 35.2584 23.5148C32.4352 23.5148 32.1013 23.5045 30.9873 23.4533M30.8997 4.33942C29.7743 4.39067 29.0052 4.56913 28.3336 4.83047C27.6384 5.10036 27.0492 5.46243 26.4608 6.04991C25.8724 6.63738 25.5112 7.22671 25.2414 7.9227C24.98 8.59475 24.8016 9.36339 24.7503 10.4889C24.6982 11.6161 24.6863 11.9765 24.6863 14.8475C24.6863 17.7186 24.6982 18.079 24.7503 19.2062C24.8016 20.3318 24.98 21.1003 25.2414 21.7724C25.5112 22.4675 25.8725 23.058 26.4608 23.6452C27.0491 24.2324 27.6376 24.594 28.3336 24.8646C29.0065 25.126 29.7743 25.3044 30.8997 25.3557C32.0276 25.4069 32.3874 25.4197 35.2584 25.4197C38.1295 25.4197 38.4899 25.4078 39.6171 25.3557C40.7427 25.3044 41.5112 25.126 42.1833 24.8646C42.8784 24.594 43.4677 24.2327 44.0561 23.6452C44.6445 23.0577 45.0049 22.4675 45.2755 21.7724C45.5369 21.1003 45.7162 20.3317 45.7666 19.2062C45.8178 18.0781 45.8297 17.7186 45.8297 14.8475C45.8297 11.9765 45.8178 11.6161 45.7666 10.4889C45.7153 9.36331 45.5369 8.59433 45.2755 7.9227C45.0049 7.22756 44.6436 6.63831 44.0561 6.04991C43.4686 5.4615 42.8784 5.10036 42.1841 4.83047C41.5112 4.56913 40.7426 4.38982 39.618 4.33942C38.4906 4.28791 38.1303 4.27539 35.2597 4.27539C32.3891 4.27539 32.028 4.28732 30.9002 4.33942" fill="white"/>
</g>
<path d="M62.1038 3.51035C59.9042 4.43434 57.4855 7.04198 56.7221 10.3218C55.7536 14.4739 59.7804 16.2274 60.1094 15.6553C60.4965 14.9768 59.3855 14.749 59.1586 12.5961C58.8667 9.81208 60.1527 6.70161 61.7755 5.33676C62.0782 5.08727 62.0636 5.43936 62.0636 6.08838C62.0636 7.25889 61.9985 17.7313 61.9985 19.9176C61.9985 22.8773 61.8777 23.8092 61.6548 24.7294C61.4356 25.6652 61.0811 26.2963 61.3482 26.5419C61.6509 26.8132 62.9369 26.1673 63.6825 25.1227C64.5744 23.8713 64.8887 22.3674 64.9468 20.7352C65.0126 18.7696 65.0087 15.6444 65.0126 13.8653C65.0126 12.2292 65.0381 7.44618 64.987 4.56655C64.9723 3.86244 63.0213 3.12481 62.1038 3.51035ZM163.515 19.048C163.2 19.048 163.051 19.3782 162.93 19.9324C162.514 21.8654 162.075 22.3014 161.509 22.3014C160.877 22.3014 160.31 21.3447 160.161 19.4295C160.048 17.9256 160.065 15.1525 160.212 12.3941C160.241 11.8291 160.087 11.2686 158.574 10.7145C157.921 10.4798 156.974 10.1277 156.503 11.2718C155.169 14.4965 154.65 17.0637 154.526 18.102C154.523 18.1564 154.457 18.1642 154.445 18.0398C154.369 17.2067 154.194 15.6918 154.172 12.5076C154.164 11.892 154.037 11.3596 153.35 10.9267C152.908 10.6484 151.563 10.1494 151.077 10.7402C150.66 11.2243 150.175 12.5231 149.667 14.0636C149.257 15.318 148.972 16.1691 148.972 16.1691C148.972 16.1691 148.975 12.7866 148.983 11.5026C148.983 11.0184 148.654 10.8575 148.556 10.8279C148.106 10.6959 147.218 10.4798 146.846 10.4798C146.382 10.4798 146.272 10.7402 146.272 11.1179C146.272 11.1653 146.195 15.5667 146.195 18.6446V19.0775C145.943 20.4936 145.111 22.4157 144.208 22.4157C143.305 22.4157 142.878 21.612 142.878 17.9443C142.878 15.8053 142.943 14.8742 142.973 13.326C142.991 12.4345 143.027 11.749 143.024 11.5912C143.016 11.1179 142.194 10.8754 141.814 10.7875C141.431 10.6959 141.098 10.6663 140.835 10.6772C140.47 10.6997 140.21 10.9414 140.21 11.2795V11.7925C139.739 11.0448 138.975 10.5233 138.464 10.3733C137.097 9.96603 135.668 10.329 134.59 11.8399C133.736 13.0439 133.22 14.404 133.019 16.3595C132.869 17.7904 132.917 19.2392 133.184 20.464C132.862 21.8467 132.27 22.4157 131.623 22.4157C130.68 22.4157 130.001 20.8744 130.078 18.2077C130.133 16.4551 130.48 15.2263 130.863 13.4433C131.028 12.684 130.893 12.2884 130.56 11.9028C130.257 11.5578 129.607 11.3782 128.675 11.5943C128.013 11.7521 127.06 11.9207 126.194 12.0497C126.194 12.0497 126.245 11.8399 126.289 11.47C126.512 9.52919 124.411 9.68699 123.742 10.3072C123.34 10.6772 123.066 11.114 122.964 11.899C122.8 13.1465 123.811 13.7332 123.811 13.7332C123.479 15.259 122.668 17.2541 121.824 18.6959C121.374 19.47 121.03 20.0389 120.585 20.6475C120.581 20.4236 120.581 20.1959 120.581 19.9728C120.573 16.7629 120.614 14.2361 120.632 13.326C120.651 12.4345 120.687 11.7669 120.687 11.6091C120.68 11.264 120.479 11.1287 120.055 10.9671C119.682 10.8209 119.24 10.7145 118.783 10.6772C118.21 10.6337 117.859 10.9414 117.87 11.3044V11.7925C117.395 11.0448 116.631 10.5233 116.127 10.3733C114.757 9.96603 113.328 10.329 112.25 11.8399C111.399 13.0439 110.836 14.7273 110.675 16.3409C110.529 17.8526 110.555 19.1287 110.759 20.2076C110.54 21.2856 109.915 22.4157 109.207 22.4157C108.304 22.4157 107.789 21.612 107.789 17.9443C107.789 15.8053 107.854 14.8742 107.888 13.326C107.906 12.4345 107.939 11.749 107.935 11.5912C107.931 11.1179 107.11 10.8754 106.726 10.7875C106.328 10.6927 105.98 10.6632 105.717 10.6772C105.366 10.7067 105.121 11.0184 105.121 11.257V11.7925C104.647 11.0448 103.883 10.5233 103.375 10.3733C102.008 9.96603 100.591 10.3368 99.5051 11.8399C98.7967 12.82 98.223 13.9089 97.9273 16.323C97.8467 17.0201 97.8065 17.6723 97.8103 18.2816C97.5285 20.0125 96.2828 22.0084 95.267 22.0084C94.6677 22.0084 94.0979 20.8488 94.0979 18.3733C94.0979 15.0794 94.3023 10.3842 94.3387 9.92949C94.3387 9.92949 95.6247 9.90693 95.8771 9.90384C96.5166 9.89993 97.1011 9.91474 97.9528 9.87043C98.384 9.84869 98.7967 8.3043 98.3507 8.11001C98.1533 8.02525 96.7357 7.94831 96.1728 7.93747C95.6982 7.92657 94.3859 7.82788 94.3859 7.82788C94.3859 7.82788 94.5036 4.7135 94.5292 4.38707C94.5508 4.10802 94.2001 3.96894 93.9957 3.88418C93.5017 3.672 93.0597 3.57255 92.5409 3.46605C91.8139 3.31606 91.4888 3.46296 91.4268 4.07462C91.3316 5.00339 91.2805 7.72528 91.2805 7.72528C90.747 7.72528 88.9385 7.61803 88.4081 7.61803C87.9157 7.61803 87.3814 9.74604 88.0651 9.77169C88.8509 9.80124 90.2136 9.8308 91.1195 9.85563C91.1195 9.85563 91.0792 14.6286 91.0792 16.0991V16.5538C90.579 19.1614 88.8285 20.5705 88.8285 20.5705C89.2047 18.8428 88.4375 17.5479 87.0493 16.4551C86.5375 16.0478 85.5295 15.2807 84.3999 14.4483C84.3999 14.4483 85.0541 13.7993 85.6348 12.5006C86.0444 11.5796 86.063 10.5202 85.0541 10.2886C83.388 9.90384 82.0176 11.1326 81.6049 12.4454C81.2906 13.4581 81.4555 14.2136 82.0796 14.9947L82.222 15.1711C81.8496 15.897 81.3308 16.8763 80.8957 17.6357C79.6794 19.7451 78.7619 21.4107 78.0713 21.4107C77.5162 21.4107 77.5232 19.7195 77.5232 18.1347C77.5232 16.7699 77.6254 14.7125 77.7059 12.5853C77.7315 11.8842 77.3808 11.4808 76.7931 11.1179C76.4346 10.8979 75.6743 10.465 75.2323 10.465C74.5749 10.465 72.6672 10.5528 70.8664 15.7797C70.6395 16.4403 70.1935 17.6396 70.1935 17.6396L70.2338 11.3526C70.2338 11.2057 70.1572 11.0666 69.9783 10.9671C69.6748 10.8023 68.8603 10.465 68.1442 10.465C67.7965 10.465 67.6247 10.6267 67.6247 10.9453L67.5666 20.7757C67.5666 21.5242 67.5844 22.397 67.658 22.7787C67.7307 23.1602 67.8515 23.4719 67.9978 23.6585C68.1442 23.8388 68.3153 23.9779 68.5932 24.0401C68.8526 24.0952 70.2811 24.2748 70.3546 23.7284C70.446 23.0716 70.449 22.3644 71.1985 19.7125C72.3676 15.5892 73.8882 13.5793 74.6043 12.8635C74.7321 12.7392 74.8746 12.7314 74.8668 12.9374C74.8343 13.8428 74.7282 16.0991 74.6554 18.0173C74.4619 23.1564 75.3894 24.1061 76.7234 24.1061C77.7392 24.1061 79.1715 23.0903 80.7099 20.5231C81.6708 18.9197 82.599 17.3536 83.2711 16.2204C83.7317 16.6525 84.2574 17.1188 84.78 17.6178C85.9971 18.7728 86.3951 19.8734 86.1288 20.9156C85.9274 21.7146 85.1641 22.5362 83.8084 21.7371C83.4135 21.5056 83.2455 21.326 82.8476 21.0617C82.6354 20.9187 82.3064 20.8783 82.1128 21.0252C81.6011 21.4107 81.3123 21.898 81.1443 22.5035C80.9871 23.0942 81.5755 23.402 82.1856 23.6732C82.7082 23.9119 83.8339 24.1209 84.5532 24.1465C87.3559 24.2421 89.5996 22.7895 91.1597 19.048C91.4415 22.2797 92.6284 24.11 94.6933 24.11C96.0776 24.11 97.4627 22.3162 98.0697 20.5519C98.2408 21.2708 98.5001 21.8941 98.8331 22.4266C100.426 24.9572 103.517 24.4147 105.066 22.2649C105.549 21.5972 105.622 21.3587 105.622 21.3587C105.848 23.388 107.478 24.1022 108.41 24.1022C109.459 24.1022 110.533 23.6041 111.289 21.8941C111.38 22.0815 111.475 22.2579 111.585 22.4266C113.175 24.9572 116.266 24.4147 117.819 22.2649C117.888 22.1584 117.954 22.0706 118.008 21.9859L118.056 23.3211C118.056 23.3211 117.168 24.1357 116.624 24.6378C114.231 26.8428 112.411 28.5154 112.276 30.4592C112.108 32.9425 114.11 33.8635 115.63 33.9839C117.238 34.113 118.619 33.2215 119.466 31.967C120.212 30.8665 120.702 28.5006 120.666 26.1604C120.651 25.2214 120.628 24.0331 120.607 22.753C121.451 21.7775 122.401 20.5371 123.271 19.0853C124.224 17.5075 125.24 15.3833 125.758 13.7294C125.758 13.7294 126.647 13.7371 127.59 13.6781C127.893 13.6594 127.981 13.7224 127.922 13.9423C127.856 14.2097 126.731 18.5715 127.758 21.4768C128.463 23.4642 130.045 24.1061 130.988 24.1061C132.087 24.1061 133.14 23.2698 133.702 22.0302C133.772 22.1662 133.841 22.3014 133.922 22.4266C135.511 24.9572 138.591 24.4108 140.155 22.2649C140.51 21.7775 140.707 21.3587 140.707 21.3587C141.043 23.461 142.673 24.11 143.604 24.11C144.58 24.11 145.501 23.7105 146.25 21.9346C146.279 22.7165 146.327 23.3546 146.407 23.5559C146.454 23.681 146.732 23.8349 146.93 23.9119C147.821 24.2421 148.728 24.0844 149.06 24.0144C149.294 23.967 149.476 23.7836 149.499 23.2994C149.564 22.0302 149.523 19.899 149.907 18.3111C150.554 15.6554 151.153 14.6247 151.438 14.1149C151.596 13.8281 151.778 13.7807 151.782 14.0815C151.793 14.6939 151.826 16.4916 152.078 18.9127C152.257 20.6879 152.502 21.7402 152.692 22.0745C153.225 23.0242 153.89 23.0685 154.427 23.0685C154.771 23.0685 155.487 22.9729 155.425 22.3675C155.392 22.0745 155.447 20.2511 156.079 17.6326C156.495 15.9196 157.186 14.3753 157.435 13.8102C157.53 13.6011 157.57 13.7628 157.57 13.7954C157.515 14.9729 157.398 18.828 157.873 20.9335C158.524 23.7914 160.398 24.11 161.052 24.11C162.444 24.11 163.588 23.046 163.971 20.2441C164.067 19.5687 163.927 19.048 163.515 19.048ZM105.092 17.317C105.015 18.7984 104.726 20.0389 104.267 20.9373C103.426 22.5695 101.771 23.0832 101.043 20.7321C100.514 19.0339 100.693 16.7154 100.916 15.4641C101.237 13.6081 102.052 12.2953 103.324 12.4158C104.624 12.5448 105.26 14.2283 105.092 17.317ZM117.841 17.3388C117.768 18.7362 117.406 20.1445 117.011 20.9373C116.197 22.5804 114.494 23.0941 113.788 20.7321C113.307 19.1139 113.42 17.0271 113.66 15.7136C113.972 14.0045 114.72 12.4158 116.069 12.4158C117.381 12.4158 118.027 13.8614 117.841 17.3388ZM118.173 26.8901C118.155 29.4472 117.757 31.6848 116.901 32.3377C115.681 33.2619 114.041 32.5647 114.38 30.7017C114.68 29.0508 116.102 27.3674 118.177 25.3092C118.177 25.3092 118.184 25.7787 118.173 26.8901ZM140.185 17.3535C140.111 18.8909 139.771 20.0902 139.352 20.9373C138.536 22.5804 136.849 23.0902 136.129 20.7321C135.738 19.4443 135.719 17.2945 136.001 15.5014C136.286 13.6741 137.086 12.2953 138.409 12.4158C139.716 12.5409 140.327 14.2283 140.185 17.3535Z" fill="white"/>
<defs>
<radialGradient id="paint0_radial_111_5246" cx="0" cy="0" r="1" gradientUnits="userSpaceOnUse" gradientTransform="translate(22.8418 28.3929) scale(36.1307)">
<stop offset="0.09" stop-color="#FA8F21"/>
<stop offset="0.78" stop-color="#D82D7E"/>
</radialGradient>
<radialGradient id="paint1_radial_111_5246" cx="0" cy="0" r="1" gradientUnits="userSpaceOnUse" gradientTransform="translate(40.7117 27.4791) scale(31.7954)">
<stop offset="0.64" stop-color="#8C3AAA" stop-opacity="0"/>
<stop offset="1" stop-color="#8C3AAA"/>
</radialGradient>
<clipPath id="clip0_111_5246">
<rect width="28.4577" height="28.4577" fill="white" transform="translate(21 0.558594)"/>
</clipPath>
</defs>
</svg>
