<svg width="25" height="24" viewBox="0 0 25 24" fill="none" xmlns="http://www.w3.org/2000/svg">
<g clip-path="url(#clip0_51_3389)">
<path d="M39.1385 18.1733H36.1714L31.9495 6.21996H34.1368L37.5108 16.0709H37.85L41.3427 6.21996H43.496L39.1385 18.1733Z" fill="black"/>
<path d="M49.145 11.9847L54.6385 18.1733H51.9596L47.4834 13.0529H46.9747V18.1733H44.9401V6.21996H46.9747V11.0861H47.4664L51.7052 6.21996H54.2146L49.145 11.9847Z" fill="black"/>
<path d="M59.4778 18.1733V6.21996H63.7166C64.5305 6.21996 65.2652 6.39516 65.9208 6.74557C66.5877 7.08467 67.1077 7.55941 67.4807 8.1698C67.8537 8.78019 68.0402 9.47535 68.0402 10.2553C68.0402 11.0239 67.8537 11.7191 67.4807 12.3408C67.1077 12.9512 66.5877 13.4316 65.9208 13.782C65.2652 14.1211 64.5305 14.2906 63.7166 14.2906H61.5125V18.1733H59.4778ZM63.7166 12.4255C64.3835 12.4255 64.9205 12.2277 65.3274 11.8321C65.7456 11.4252 65.9547 10.8996 65.9547 10.2553C65.9547 9.61099 65.7456 9.09103 65.3274 8.69541C64.9205 8.28849 64.3835 8.08502 63.7166 8.08502H61.5125V12.4255H63.7166Z" fill="black"/>
<path d="M77.8901 13.6633C77.8901 13.8328 77.8788 14.0419 77.8562 14.2906H70.7689C70.8594 14.9801 71.1419 15.534 71.6167 15.9522C72.0914 16.3591 72.6962 16.5626 73.4309 16.5626C73.9282 16.5626 74.3747 16.4665 74.7703 16.2744C75.1773 16.0822 75.4881 15.8222 75.7029 15.4944L77.534 15.7996C77.2175 16.6135 76.6693 17.2408 75.8894 17.6816C75.1207 18.1225 74.2617 18.3429 73.3122 18.3429C72.4305 18.3429 71.6393 18.1507 70.9385 17.7664C70.249 17.3708 69.7064 16.8282 69.3108 16.1387C68.9265 15.4379 68.7343 14.6467 68.7343 13.765C68.7343 12.8833 68.9265 12.0977 69.3108 11.4082C69.7064 10.7074 70.249 10.1649 70.9385 9.78054C71.6393 9.38492 72.4305 9.18711 73.3122 9.18711C74.1939 9.18711 74.9795 9.38492 75.669 9.78054C76.3698 10.1649 76.9123 10.7018 77.2967 11.3913C77.6923 12.0695 77.8901 12.8268 77.8901 13.6633ZM73.3122 10.8826C72.7244 10.8826 72.2101 11.0522 71.7693 11.3913C71.3397 11.7304 71.0459 12.1882 70.8876 12.7646H75.7707C75.6011 12.1995 75.296 11.7473 74.8551 11.4082C74.4256 11.0578 73.9113 10.8826 73.3122 10.8826Z" fill="black"/>
<path d="M87.4462 18.1733H84.886L81.834 14.6636H81.3593V18.1733H79.4094V9.35666H81.3593V12.7816H81.834L84.7842 9.35666H87.1071L83.3939 13.5955L87.4462 18.1733Z" fill="black"/>
<path d="M89.8379 9.35666H96.2978V18.1733H94.348V11.137H91.6521L91.4487 14.8501C91.3921 15.9353 91.1039 16.7774 90.5839 17.3765C90.0753 17.9642 89.3801 18.2581 88.4985 18.2581C88.2724 18.2581 88.0124 18.2412 87.7185 18.2073L87.532 16.3422C87.6677 16.3535 87.9107 16.3591 88.2611 16.3591C88.6906 16.3591 88.9958 16.2518 89.1767 16.037C89.3688 15.8109 89.4819 15.4266 89.5158 14.884L89.8379 9.35666Z" fill="black"/>
<path d="M102.095 9.18711C103.225 9.18711 104.113 9.54317 104.757 10.2553C105.413 10.9561 105.74 11.9451 105.74 13.2224V18.1733H104.299L103.892 16.783C103.644 17.2012 103.276 17.5686 102.79 17.8851C102.304 18.1903 101.728 18.3429 101.061 18.3429C100.473 18.3429 99.9417 18.2242 99.467 17.9868C99.0035 17.7495 98.6418 17.416 98.3819 16.9865C98.1219 16.557 97.9919 16.0709 97.9919 15.5283C97.9919 14.6919 98.3197 14.025 98.9753 13.5276C99.6422 13.019 100.609 12.7646 101.875 12.7646H103.774C103.728 12.1769 103.548 11.7134 103.231 11.3743C102.926 11.0239 102.513 10.8487 101.993 10.8487C101.575 10.8487 101.213 10.9504 100.908 11.1539C100.603 11.3574 100.377 11.606 100.23 11.8999L98.4327 11.5947C98.6475 10.8487 99.0883 10.2609 99.7552 9.83141C100.433 9.40188 101.213 9.18711 102.095 9.18711ZM101.519 16.6982C102.197 16.6982 102.745 16.4778 103.163 16.037C103.581 15.5962 103.791 15.014 103.791 14.2906H101.942C100.62 14.2906 99.9587 14.6749 99.9587 15.4436C99.9587 15.8279 100.1 16.1331 100.383 16.3591C100.665 16.5852 101.044 16.6982 101.519 16.6982Z" fill="black"/>
<path d="M109.721 18.1733H107.856V9.35666H110.891L112.925 15.4097H113.197L115.316 9.35666H118.283V18.1733H116.418V11.6287H116.147L113.841 18.1733H112.196L109.992 11.6287H109.721V18.1733Z" fill="black"/>
<path d="M124.084 9.18711C125.214 9.18711 126.101 9.54317 126.746 10.2553C127.401 10.9561 127.729 11.9451 127.729 13.2224V18.1733H126.288L125.881 16.783C125.632 17.2012 125.265 17.5686 124.779 17.8851C124.293 18.1903 123.716 18.3429 123.049 18.3429C122.462 18.3429 121.93 18.2242 121.456 17.9868C120.992 17.7495 120.631 17.416 120.371 16.9865C120.111 16.557 119.981 16.0709 119.981 15.5283C119.981 14.6919 120.308 14.025 120.964 13.5276C121.631 13.019 122.597 12.7646 123.863 12.7646H125.762C125.717 12.1769 125.536 11.7134 125.22 11.3743C124.915 11.0239 124.502 10.8487 123.982 10.8487C123.564 10.8487 123.202 10.9504 122.897 11.1539C122.592 11.3574 122.366 11.606 122.219 11.8999L120.421 11.5947C120.636 10.8487 121.077 10.2609 121.744 9.83141C122.422 9.40188 123.202 9.18711 124.084 9.18711ZM123.507 16.6982C124.185 16.6982 124.734 16.4778 125.152 16.037C125.57 15.5962 125.779 15.014 125.779 14.2906H123.931C122.609 14.2906 121.947 14.6749 121.947 15.4436C121.947 15.8279 122.089 16.1331 122.371 16.3591C122.654 16.5852 123.033 16.6982 123.507 16.6982Z" fill="black"/>
<path d="M0.442383 11.6214C0.442383 6.26089 0.442383 3.58062 2.10769 1.91531C3.773 0.25 6.45327 0.25 11.8138 0.25H12.7614C18.122 0.25 20.8022 0.25 22.4676 1.91531C24.1329 3.58062 24.1329 6.26089 24.1329 11.6214V12.569C24.1329 17.9296 24.1329 20.6099 22.4676 22.2752C20.8022 23.9405 18.122 23.9405 12.7614 23.9405H11.8138C6.45327 23.9405 3.773 23.9405 2.10769 22.2752C0.442383 20.6099 0.442383 17.9296 0.442383 12.569V11.6214Z" fill="#0077FF"/>
<path d="M19.8686 12.0952C19.8686 16.2821 16.4745 19.6762 12.2876 19.6762C8.10078 19.6762 4.70667 16.2821 4.70667 12.0952C4.70667 7.90839 8.10078 4.51429 12.2876 4.51429C16.4745 4.51429 19.8686 7.90839 19.8686 12.0952Z" fill="#00D3E6"/>
<path d="M21.5878 6.83101C22.1635 6.25532 21.7931 5.26958 20.9807 5.21543L19.2562 5.11408L19.1829 3.41764C19.1288 2.60529 18.1431 2.23491 17.5674 2.81061L15.3451 5.0329C15.0891 5.28884 14.9643 5.64776 15.0061 6.0073L15.1905 7.59342L13.334 9.44986C13.0096 9.321 12.6557 9.25016 12.2853 9.25016C10.7152 9.25016 9.44245 10.523 9.44245 12.093C9.44245 13.6631 10.7152 14.9359 12.2853 14.9359C13.8554 14.9359 15.1282 13.6631 15.1282 12.093C15.1282 11.767 15.0733 11.4537 14.9722 11.162L16.8657 9.26859L18.3911 9.39232C18.7506 9.43413 19.1095 9.30925 19.3655 9.05331L21.5878 6.83101Z" fill="white"/>
</g>
<defs>
<clipPath id="clip0_51_3389">
<rect width="23.6905" height="23.6905" fill="white" transform="translate(0.442383 0.25)"/>
</clipPath>
</defs>
</svg>
