<svg width="25" height="24" viewBox="0 0 25 24" fill="none" xmlns="http://www.w3.org/2000/svg">
<g clip-path="url(#clip0_51_3439)">
<path fill-rule="evenodd" clip-rule="evenodd" d="M14.0529 12.4813V0.241211C20.2783 0.999016 24.8342 6.47796 24.4437 12.7373C24.0531 18.9966 18.8515 23.8667 12.5801 23.8447C12.2089 23.8447 11.8457 23.8289 11.4864 23.7934V13.571C11.4853 13.5358 11.4985 13.5016 11.5231 13.4763C11.5477 13.451 11.5814 13.4367 11.6167 13.4367H13.0855C13.6151 13.4368 14.0463 13.0109 14.0529 12.4813ZM13.7998 18.4592C12.982 18.4592 12.3192 17.7964 12.3192 16.9785C12.3192 16.1608 12.982 15.4979 13.7998 15.4979C14.6176 15.4979 15.2804 16.1608 15.2804 16.9785C15.2815 17.3716 15.1258 17.7488 14.848 18.0267C14.57 18.3046 14.1928 18.4603 13.7998 18.4592ZM15.7906 16.9785C15.7906 17.7964 16.4534 18.4592 17.2712 18.4592C17.6642 18.4603 18.0413 18.3046 18.3193 18.0267C18.5972 17.7488 18.7529 17.3716 18.7518 16.9785C18.7518 16.1608 18.0889 15.4979 17.2712 15.4979C16.4534 15.4979 15.7906 16.1608 15.7906 16.9785ZM19.2607 16.9785C19.2607 17.7964 19.9237 18.4592 20.7414 18.4592C21.1343 18.4603 21.5116 18.3046 21.7895 18.0267C22.0673 17.7488 22.223 17.3716 22.222 16.9785C22.222 16.1608 21.5591 15.4979 20.7414 15.4979C19.9237 15.4979 19.2607 16.1608 19.2607 16.9785Z" fill="#00B956"/>
<path fill-rule="evenodd" clip-rule="evenodd" d="M0.845078 10.7321C1.49078 4.73155 6.54474 0.175877 12.5799 0.154297H12.6035V11.8732C12.6015 11.9436 12.5437 11.9995 12.4732 11.9995H10.9886C10.4775 12.0203 10.0708 12.4355 10.0608 12.9472V23.5643C4.16843 22.2593 0.19938 16.7327 0.845078 10.7321ZM8.82935 8.44249C8.82935 9.26022 9.49226 9.92313 10.31 9.92313C10.7027 9.92313 11.0793 9.76714 11.3569 9.48947C11.6346 9.21179 11.7907 8.83518 11.7907 8.44249C11.7907 7.62475 11.1277 6.96183 10.31 6.96183C9.49226 6.96183 8.82935 7.62475 8.82935 8.44249Z" fill="#00B956"/>
</g>
<defs>
<clipPath id="clip0_51_3439">
<rect width="23.6905" height="23.6905" fill="white" transform="translate(0.776367 0.154297)"/>
</clipPath>
</defs>
</svg>
