<svg width="25" height="24" viewBox="0 0 25 24" fill="none" xmlns="http://www.w3.org/2000/svg">
<g clip-path="url(#clip0_51_3395)">
<path d="M24.2999 0.25H0.609375V23.9405H24.2999V0.25Z" fill="#FF0032"/>
<path d="M16.3926 2.05566V3.16089H18.7735V7.48492L18.7741 7.55611H20.107V3.16089H22.488V2.05566H16.3926Z" fill="white"/>
<path d="M7.81677 2.07227L6.07536 5.68788L4.33393 2.07227H2.43262V7.53931H3.76558V3.62666L5.46775 6.93217H6.683L8.38561 3.62666V7.53931H9.71857V2.07227H7.81677Z" fill="white"/>
<path d="M21.1517 20.2948C21.1269 20.4967 21.0348 20.6844 20.8905 20.8278C20.7406 20.9642 20.5564 21.0571 20.3576 21.0967C20.0671 21.1543 19.7713 21.1811 19.4752 21.1766C19.1599 21.1823 18.8458 21.1363 18.5454 21.0405C18.2991 20.9605 18.0867 20.8003 17.9421 20.5855C17.7968 20.3704 17.725 20.0598 17.725 19.6649V19.1048C17.725 18.707 17.7983 18.3964 17.9421 18.1813C18.0864 17.9669 18.2982 17.8069 18.5439 17.7268C18.8443 17.6309 19.1585 17.5849 19.4738 17.5906C19.7699 17.5862 20.0656 17.613 20.3561 17.6706C20.5549 17.7102 20.7391 17.8031 20.8891 17.9395C21.0334 18.0828 21.1254 18.2706 21.1502 18.4724H22.4842C22.46 18.0519 22.2997 17.6507 22.0272 17.3295C21.7586 17.034 21.4108 16.8217 21.0253 16.7179C20.5195 16.5845 19.9976 16.5221 19.4747 16.5323C18.8356 16.5323 18.2813 16.6244 17.8273 16.8056C17.3781 16.9785 17.0019 17.3003 16.7613 17.7171C16.5263 18.1207 16.4027 18.6595 16.3945 19.3199V19.3805L16.4658 19.3834H16.3945V19.4439C16.4027 20.1043 16.5263 20.6432 16.7613 21.0468C17.0019 21.4636 17.3781 21.7853 17.8273 21.9582C18.2818 22.1394 18.8366 22.2315 19.4747 22.2315C19.9977 22.242 20.5196 22.1796 21.0253 22.0459C21.411 21.9424 21.7589 21.7302 22.0272 21.4344C22.2998 21.1132 22.4602 20.7119 22.4842 20.2914L21.1517 20.2948Z" fill="white"/>
</g>
<defs>
<clipPath id="clip0_51_3395">
<rect width="23.6905" height="23.6905" fill="white" transform="translate(0.609375 0.25)"/>
</clipPath>
</defs>
</svg>
