<svg width="40" height="24" viewBox="0 0 40 24" fill="none" xmlns="http://www.w3.org/2000/svg">
<g clip-path="url(#clip0_51_3383)">
<path d="M16.8207 13.2747C15.1988 15.495 13.7901 14.9502 12.6576 12.7514C12.1787 13.2514 11.6596 13.7084 11.1073 14.1205C9.91185 14.8893 8.63074 14.1689 8.5521 12.7102C8.52413 12.1708 8.5521 11.6224 8.52763 11.0741C8.47869 10.8805 8.39829 10.6996 8.28818 10.5347C8.10817 10.6279 7.8495 10.6745 7.76211 10.825C7.55587 11.2192 7.3776 11.6296 7.23254 12.0507C7.02106 12.5704 6.83405 13.1062 6.61033 13.6116C6.38138 14.1313 5.82209 14.4072 5.28204 14.2693C4.74547 14.2155 4.3365 13.7514 4.34174 13.1976C4.30154 12.4987 4.37844 11.7909 4.34174 11.0884C4.29805 10.8573 4.22289 10.6315 4.11803 10.4218C3.93451 10.5777 3.6706 10.6924 3.57622 10.8913C3.21793 11.6887 2.89809 12.5507 2.5398 13.3679C2.43144 13.6474 2.28113 13.9073 2.09237 14.1366C1.70787 14.5864 1.04022 14.633 0.601535 14.2388C0.423263 14.0793 0.302668 13.8607 0.258974 13.6223C0.225766 13.5059 0.204793 13.3876 0.19955 13.2675C0.19955 11.6314 0.147117 9.96483 0.175081 8.31259C0.189063 7.87354 0.328884 7.44704 0.573571 7.08685C0.828744 6.74815 1.18703 6.50444 1.59077 6.39154C2.20423 6.22309 2.50834 6.52236 2.53631 7.2087C2.56077 7.73556 2.53631 8.26779 2.53631 8.79822L2.80371 8.87528C2.99946 8.67995 3.17773 8.46849 3.33853 8.24091C3.6741 7.67642 3.96423 7.07968 4.2998 6.51161C4.54273 5.9973 5.116 5.74462 5.64732 5.91487C6.1699 6.03852 6.51596 6.55103 6.4443 7.09581V8.8699L6.67151 8.94338C6.8323 8.79464 6.98436 8.63336 7.12243 8.46132C7.60131 7.87713 8.04699 7.25888 8.54161 6.69081C8.74785 6.44889 9.00651 6.25893 9.29489 6.13528C9.8734 5.84498 10.569 6.09048 10.8521 6.68364C10.9605 6.90944 10.9955 7.1639 10.9535 7.4112C10.8731 8.59752 10.8015 9.78204 10.7385 10.9684C10.7368 11.1834 10.7473 11.4002 10.77 11.6135C11.6316 11.3286 12.2626 10.5687 12.4007 9.65122C12.4601 8.67278 12.5754 7.69972 12.7467 6.73561C12.8376 6.15141 13.3078 5.7052 13.8828 5.6604C14.3984 5.55109 14.9297 5.76075 15.239 6.1998C15.5886 6.71411 15.6026 7.39328 15.2705 7.92013C14.7916 8.73729 14.8231 9.62434 14.9314 10.4988C14.9839 10.8823 15.1936 11.2228 15.5064 11.4397C15.9416 11.6565 16.3034 11.264 16.4747 10.8716C16.7805 10.0688 17.048 9.24981 17.2717 8.41832C17.4395 7.84129 17.5076 7.232 17.6702 6.66035C17.9166 5.8629 18.4671 5.51166 19.1295 5.67115C19.8304 5.84856 20.2813 6.54745 20.166 7.27859C20.1188 7.68717 19.9632 8.05454 19.9021 8.45236C19.7098 9.65481 19.5438 10.8608 19.355 12.1314C20.2568 11.8411 20.9734 11.592 21.7075 11.3913C22.0518 11.3178 22.4048 11.2927 22.7561 11.3214C23.4185 11.3214 23.7296 11.6601 23.9516 12.4289C24.6804 14.8535 26.2604 16.305 28.7038 16.7261C32.2203 17.3354 35.569 14.1008 35.2194 10.4594C35.195 10.2175 35.1635 9.97737 35.1478 9.73545C35.0062 9.07419 35.4152 8.42011 36.0601 8.27495C36.705 8.1298 37.3429 8.54913 37.4845 9.21039C37.5002 9.28744 37.5107 9.3645 37.5125 9.44335C37.9949 12.755 36.9777 15.5057 34.3945 17.5451C30.836 20.3263 25.7518 19.622 23.0393 15.9735C22.8173 15.6742 22.6146 15.3588 22.4328 15.0309C21.8858 14.0578 21.711 14.0005 20.7183 14.4879C20.6676 14.5183 20.6134 14.5452 20.5592 14.5703C19.5665 14.9502 19.196 15.6652 19.1033 16.7655C18.9722 18.5074 18.7048 20.2367 18.3063 21.9373C17.7715 24.1074 16.4764 24.4927 14.7182 23.163C12.5457 21.5395 12.1472 19.0306 13.8094 16.8999C14.5277 16.0487 15.3386 15.2853 16.23 14.6277C16.6879 14.3553 16.9256 13.8105 16.8207 13.2747ZM16.6565 17.339L16.41 17.2279C16.0692 17.6956 15.7546 18.183 15.4697 18.6866C15.2355 19.1758 15.3439 19.7654 15.7371 20.1345C15.9923 20.4159 16.2562 20.4947 16.3279 19.9948C16.4572 19.097 16.5341 18.226 16.6565 17.339Z" fill="#FF2D39"/>
<path d="M33.4315 4.20678C33.3301 3.3484 33.6779 2.49898 34.3438 1.97034C34.8384 1.51696 35.2806 0.993687 35.7717 0.531347C35.9552 0.405906 36.158 0.310929 36.3694 0.25C36.4568 0.438162 36.518 0.637076 36.553 0.843158C36.5774 1.56713 36.5722 2.29111 36.553 3.01867C36.553 3.52581 36.7714 3.74981 37.2661 3.74623H39.4438C39.6255 3.77848 39.8021 3.83941 39.9663 3.92543C39.9192 4.12793 39.8405 4.31967 39.7304 4.4935C39.1519 5.1225 38.5349 5.71924 37.9477 6.33748C37.5439 6.76936 36.9602 6.97007 36.3852 6.8733C35.5812 6.74786 34.7755 7.08834 34.2914 7.76035C33.6727 8.48791 32.9473 9.1169 32.2972 9.82475C32.1137 10.038 32.014 10.314 32.014 10.5971C32.1171 12.0074 31.0842 13.235 29.7105 13.3389C28.335 13.4446 27.1378 12.3855 27.0364 10.977C27.0294 10.8892 27.0277 10.7996 27.0312 10.7118C27.0784 9.32478 28.2144 8.23882 29.5672 8.2872C29.6353 8.28899 29.7052 8.29437 29.7734 8.30333C30.1195 8.36246 30.4725 8.23165 30.7032 7.95926C31.3691 7.24783 32.0385 6.5364 32.7568 5.87873C33.2794 5.42176 33.5993 4.93075 33.4315 4.20678Z" fill="#FF2D39"/>
<path d="M22.2074 7.33365C22.2755 7.11682 22.3612 6.90715 22.4625 6.70466C24.1893 3.65643 27.5957 2.04362 30.9794 2.67441C31.8043 2.83748 32.271 3.41093 32.1521 4.12236C32.0333 4.83379 31.4058 5.2585 30.5564 5.09901C28.2302 4.66176 25.8794 5.72621 24.628 7.78524C24.5249 7.98057 24.4043 8.16515 24.2697 8.33718C23.9394 8.7368 23.3889 8.86045 22.9257 8.63645C22.4503 8.43037 22.1986 8.03433 22.2074 7.33365Z" fill="#FF2D39"/>
</g>
<defs>
<clipPath id="clip0_51_3383">
<rect width="39.8" height="23.6905" fill="white" transform="translate(0.166016 0.25)"/>
</clipPath>
</defs>
</svg>
