<svg width="25" height="24" viewBox="0 0 25 24" fill="none" xmlns="http://www.w3.org/2000/svg">
<g clip-path="url(#clip0_51_3442)">
<path d="M1.00391 11.5351C1.00391 6.3173 1.00391 3.70819 2.6055 2.0921C4.22159 0.46875 6.80898 0.46875 11.9905 0.46875H12.9109C18.0924 0.46875 20.6869 0.46875 22.2958 2.0921C23.9047 3.71545 23.9047 6.3244 23.9047 11.5351V12.4628C23.9047 17.6806 23.9047 20.2897 22.2958 21.9058C20.687 23.5291 18.0924 23.5291 12.9109 23.5291H11.9905C6.80898 23.5291 4.22159 23.5291 2.6055 21.9058C1.00391 20.2824 1.00391 17.6735 1.00391 12.4628V11.5351Z" fill="#FF7700"/>
<path d="M15.2011 10.5208C14.8419 10.8841 14.4141 11.1726 13.9427 11.3694C13.4712 11.5663 12.9653 11.6676 12.4544 11.6676C11.9435 11.6676 11.4376 11.5663 10.9661 11.3694C10.4947 11.1726 10.0669 10.8841 9.70769 10.5208C9.16613 9.97407 8.79779 9.2798 8.64873 8.52483C8.49967 7.76986 8.5765 6.9877 8.86963 6.27617C9.16275 5.56464 9.65914 4.95532 10.2967 4.52441C10.9343 4.09351 11.6848 3.86015 12.4543 3.85352C13.2253 3.85878 13.9775 4.09166 14.6166 4.52292C15.2557 4.95418 15.7532 5.5646 16.0466 6.27758C16.34 6.99056 16.4162 7.77432 16.2658 8.53048C16.1154 9.28665 15.7449 9.98153 15.201 10.5279L15.2011 10.5208ZM12.4472 5.98408C11.9787 5.98629 11.5302 6.17395 11.1997 6.50601C10.8692 6.83806 10.6836 7.28749 10.6836 7.75599C10.6836 8.22448 10.8692 8.67391 11.1997 9.00597C11.5302 9.33803 11.9787 9.52569 12.4472 9.5279C12.9157 9.52569 13.3643 9.33803 13.6947 9.00597C14.0252 8.67391 14.2108 8.22448 14.2108 7.75599C14.2108 7.28749 14.0252 6.83806 13.6947 6.50601C13.3643 6.17395 12.9157 5.98629 12.4472 5.98408ZM16.5346 11.6805L17.6724 13.2458C17.7304 13.3256 17.7159 13.4343 17.6434 13.4922C16.701 14.2607 15.5954 14.8035 14.4112 15.0793L16.6071 19.3405C16.6222 19.3681 16.6298 19.3992 16.6293 19.4307C16.6287 19.4622 16.6199 19.493 16.6038 19.52C16.5877 19.5471 16.5649 19.5695 16.5375 19.585C16.5101 19.6006 16.4791 19.6087 16.4476 19.6086H14.0923C14.0198 19.6086 13.9546 19.5651 13.9256 19.4999L12.4545 15.9851L10.976 19.4999C10.9619 19.5323 10.9386 19.5599 10.909 19.5792C10.8793 19.5985 10.8447 19.6087 10.8094 19.6086H8.45406C8.31637 19.6086 8.23665 19.4637 8.29462 19.3405L10.4977 15.0793C9.33819 14.804 8.22213 14.2822 7.26551 13.4922C7.22911 13.4636 7.20508 13.4221 7.19834 13.3763C7.1916 13.3304 7.20267 13.2838 7.22927 13.2458L8.37431 11.6877C8.38929 11.6674 8.4082 11.6503 8.42991 11.6375C8.45163 11.6246 8.4757 11.6162 8.50071 11.6128C8.52572 11.6095 8.55115 11.6111 8.5755 11.6178C8.59985 11.6244 8.62262 11.6359 8.64245 11.6515C9.68997 12.5987 11.0426 13.1387 12.4544 13.1734C13.8676 13.1734 15.1866 12.5791 16.2664 11.6515C16.3388 11.579 16.4693 11.5935 16.5345 11.6805L16.5346 11.6805Z" fill="white"/>
</g>
<defs>
<clipPath id="clip0_51_3442">
<rect width="23.6905" height="23.6905" fill="white" transform="translate(0.609375 0.154297)"/>
</clipPath>
</defs>
</svg>
