<svg width="48" height="47" viewBox="0 0 48 47" fill="none" xmlns="http://www.w3.org/2000/svg">
<mask id="mask0_52_3607" style="mask-type:luminance" maskUnits="userSpaceOnUse" x="0" y="0" width="48" height="47">
<path d="M38.0541 47H9.85347C4.66036 47 0.452148 42.7918 0.452148 37.602V9.40133C0.452148 4.20821 4.66036 0 9.85347 0H38.0541C43.2473 0 47.4555 4.20821 47.4555 9.40133V37.602C47.4521 42.7918 43.2439 47 38.0541 47Z" fill="white"/>
</mask>
<g mask="url(#mask0_52_3607)">
<path d="M47.4521 0H0.452148V47H47.4521V0Z" fill="#005BFF"/>
</g>
<mask id="mask1_52_3607" style="mask-type:luminance" maskUnits="userSpaceOnUse" x="0" y="0" width="48" height="47">
<path d="M38.0541 47H9.85347C4.66036 47 0.452148 42.7918 0.452148 37.602V9.40133C0.452148 4.20821 4.66036 0 9.85347 0H38.0541C43.2473 0 47.4555 4.20821 47.4555 9.40133V37.602C47.4521 42.7918 43.2439 47 38.0541 47Z" fill="white"/>
</mask>
<g mask="url(#mask1_52_3607)">
<path d="M42.4775 -8.34277C39.8478 -3.50117 38.0903 -0.990837 32.99 4.72955C32.2107 5.84046 31.2755 6.76567 30.2741 7.64114C25.6115 11.7167 20.959 15.8287 16.2832 19.8844C14.9003 21.0849 13.4478 22.1792 12.0153 23.3166C11.163 23.9931 10.1416 24.3646 9.14346 24.7061C5.81072 25.8436 2.49787 26.918 -0.82493 28.082C-2.3172 28.6059 -3.78626 29.2493 -5.25201 29.8561C-6.2767 30.2806 -7.07258 31.0632 -7.84193 31.8624C-9.69567 33.7957 -10.6938 35.5898 -12.2955 38.6771C-12.2989 38.571 -12.7333 29.047 -12.7333 29.047C-10.7237 26.4637 -8.29293 24.4077 -5.88208 22.5108C-4.82091 21.6751 -3.67683 21.0053 -2.53939 20.289C-0.529791 19.0255 1.28083 17.4371 2.99529 15.7624C4.62353 14.1773 5.95663 12.3202 7.26319 10.44C9.33248 7.45875 11.4349 4.4941 13.67 1.64551C14.7909 0.216247 16.1008 -1.024 17.404 -2.25761C19.0754 -3.83942 22.6137 -7.44409 22.6137 -7.44409C22.627 -7.44409 28.7685 -7.72265 28.7685 -7.72265C28.5861 -7.51042 28.4004 -7.18875 28.3308 -7.07268C27.588 -5.80591 26.8087 -4.57561 26.1189 -3.28231C25.6812 -2.4599 25.396 -1.51811 25.0047 -0.665853C24.2221 1.02539 23.2803 2.5873 21.8908 3.79439C21.4332 4.19233 20.8959 4.54384 20.362 4.80913C19.2511 5.35962 18.2762 6.09249 17.3543 6.92485C15.9582 8.18499 14.7047 9.59436 13.4578 11.017C11.4946 13.2521 9.63757 15.5701 7.8601 17.971C7.68766 18.2031 7.49201 18.422 7.33947 18.6707C7.26651 18.7901 7.23998 18.9459 7.18692 19.0819L7.23335 19.1681C7.41242 19.1051 7.61802 19.062 7.7772 18.9625C8.37411 18.5977 8.99755 18.2694 9.55466 17.8483C11.6637 16.2532 13.7828 14.6382 15.8421 12.9735C16.9033 12.1146 17.8351 11.0899 18.8631 10.1813C19.4965 9.6242 20.2161 9.17321 20.876 8.64925C21.9604 7.79037 23.0349 6.94806 24.0761 6.02948C25.6613 4.63669 27.2431 3.19748 28.7718 1.7251C31.9554 -1.3523 31.3286 -4.75137 34.3861 -7.978L42.4775 -8.34277Z" fill="#F91155"/>
<path d="M52.652 40.2683C52.1612 40.7724 51.9125 41.167 51.3919 41.6379C50.9707 42.0193 50.4534 42.3177 50.0057 42.6725C48.3576 43.9791 46.8321 45.5974 45.0049 46.6155C43.6254 47.3848 42.1895 47.9254 40.6409 48.1044C40.3656 48.1376 40.0639 48.1011 39.7919 48.0348C39.4371 47.9486 39.3011 47.6269 39.3409 47.2489C39.4039 46.6652 39.6991 46.2242 40.0539 45.803C40.4419 45.3421 40.8332 44.8214 41.3074 44.4765C42.4117 43.6807 43.2739 42.6759 44.0267 41.5384C44.5672 40.7193 45.058 39.8903 45.6085 39.0778C46.2717 38.0929 47.1405 37.3103 47.9762 36.4978C49.9626 34.5745 51.8561 32.4986 53.9553 30.7178C53.9519 30.7708 52.6984 39.9201 52.652 40.2683Z" fill="#F91155"/>
<path d="M43.4858 -8.40588C43.4858 -8.40588 43.3134 -7.96815 43.1575 -7.65975C41.5027 -3.95891 40.0304 -0.529992 37.918 2.90555C36.1007 5.86026 34.2238 8.75195 32.0616 11.4414C31.3055 12.3832 30.5395 13.3482 29.5679 14.0545C28.0457 15.1621 26.5269 16.2299 24.9916 17.3143C22.8162 18.8497 20.6209 20.3718 18.6113 22.1493C17.8187 22.849 17.0626 23.5918 16.4359 24.4706C15.955 25.1438 15.4775 25.8302 14.9171 26.4271C12.6388 28.8678 10.1119 31.02 7.56512 33.1357C4.93871 35.3144 2.29241 37.4666 -0.357201 39.6122C-2.00534 40.9486 -3.68663 42.2319 -5.49726 43.3197C-5.85872 43.5352 -6.26329 43.6977 -6.65128 43.8536C-6.71097 43.8768 -10.4383 45.3624 -10.7401 45.6376C-10.7169 45.9494 -10.3952 50.4627 -10.3853 50.5224C-10.3322 50.4925 -9.26774 49.6369 -9.0555 49.4811C-7.53007 48.3271 -6.73087 47.4715 -5.04626 46.6225C-3.13283 45.6575 -1.21277 44.7655 0.664177 43.7309C4.96193 41.3465 9.21656 38.803 13.3618 36.1402C15.2818 34.9065 17.182 33.6696 19.049 32.3465C21.2874 30.768 23.234 28.8512 25.1342 26.8582C27.4588 24.4175 29.7403 21.9271 32.0052 19.4201C33.5506 17.7089 35.0594 15.9314 36.565 14.1772C37.5731 13.0033 38.5812 11.8393 39.5462 10.6256C41.1612 8.58614 42.5241 6.37758 43.9335 4.17896C44.8023 2.82265 45.6911 1.46302 46.6693 0.196248C49.1664 -3.04033 51.4247 -6.16416 54.5054 -9.20508L43.4858 -8.40588Z" fill="#F91155"/>
<path d="M9.05106 2.48794C6.95193 4.70977 4.90254 6.93492 2.84983 9.20318C1.73228 10.4434 0.724169 11.7798 -0.380114 13.04C-2.35323 15.2917 -4.39599 17.5168 -6.72725 19.3573C-9.09168 21.221 -11.6352 23.1045 -14.046 24.9085C-14.0527 24.7726 -14.3379 18.452 -14.3445 18.3094C-13.3231 16.5783 -12.2951 14.6185 -11.5357 12.7382C-11.088 11.6273 -10.6934 10.46 -10.2424 9.34909C-9.38018 7.21016 -8.24937 5.25363 -6.58466 3.69503C-5.65613 2.82288 -4.58833 2.20607 -3.49068 1.61911C-0.197724 -0.145091 3.09191 -1.93914 6.3915 -3.68675C8.35798 -4.73135 9.84694 -6.55192 11.6012 -7.92813L18.5618 -8.24316C15.4015 -4.64513 12.344 -0.997345 9.05106 2.48794Z" fill="#F91155"/>
<path d="M23.6753 53.8846C24.2159 53.3573 24.7233 52.8798 25.2207 52.3724C27.5453 49.9981 30.1783 48.0481 32.7683 46.0286C33.3254 45.5942 33.8725 45.1299 34.3998 44.6524C34.5855 44.4766 34.7248 44.2644 34.8309 44.029C34.9006 43.8797 34.9569 43.6376 34.8773 43.5348C34.7745 43.4022 34.5258 43.2696 34.37 43.306C33.9919 43.3856 33.5874 43.4884 33.2624 43.6973C31.3921 44.9011 29.5483 46.1347 27.6978 47.365C27.0678 47.7862 26.441 48.2703 25.8143 48.6915C24.6669 49.4542 23.6588 50.4192 22.8098 51.5334C22.2693 52.2464 21.7553 52.7704 21.175 53.4469C21.1053 53.5298 20.9163 53.7122 20.787 53.8481C20.3559 53.8448 13.9258 53.7718 13.8197 53.7718C14.5692 53.2844 15.4181 52.6742 15.7265 52.4454C19.0791 49.935 21.7951 48.4096 25.3765 46.3072C28.5534 44.4402 31.6872 42.4936 34.8309 40.5702C35.9253 39.9003 37.0428 39.2271 37.8752 38.1759C38.419 37.4895 38.9861 36.8296 39.5133 36.1265C41.2145 33.8583 42.8958 31.527 44.6037 29.2621C45.6914 27.8195 46.7791 26.3936 48.0923 25.1666C49.0407 24.2779 50.0554 23.472 51.0105 22.5933C52.9007 20.8556 52.4066 18.5542 55.8985 13.1986C57.8418 10.2173 59.1285 9.22581 60.1797 8.08836C60.8529 7.35881 62.816 6.24457 63.6053 5.6543C63.5986 6.13514 63.5821 7.78659 63.5787 8.12484C62.1362 9.36177 59.7983 12.7973 59.533 14.7273C58.5813 21.615 52.3038 25.7801 49.1037 29.8988C47.6048 31.8354 45.897 33.5167 44.0731 35.1018C42.8759 36.1431 41.7186 37.2242 40.7635 38.5241C40.3789 39.0481 40.1202 39.6682 39.7687 40.222C38.6147 42.026 37.4407 43.83 36.2668 45.6207C35.3914 46.9472 34.5192 48.3002 33.5476 49.5471C32.3902 51.0327 31.5048 52.0441 30.2745 53.4668C30.2148 53.5364 30.0026 53.7984 29.8434 53.9576L23.6753 53.8846Z" fill="#F91155"/>
<path d="M-12.4178 56.4775C-8.86292 53.9605 -4.7774 51.8514 -1.03345 49.6097C0.687636 48.5784 2.45515 47.62 4.22267 46.6782C6.16594 45.6436 8.11253 44.5758 10.1155 43.6904C13.3786 42.2478 16.32 40.3211 19.0592 37.9899C19.9678 37.2172 20.7803 36.3053 21.6027 35.4232C23.3304 33.5694 25.078 31.6892 26.766 29.7956C28.4307 27.9286 30.0291 26.0152 31.6739 24.1283C32.5261 23.15 33.4547 22.2381 34.5125 21.5119C34.7446 21.3593 35.0133 21.2731 35.2719 21.1836C35.5405 21.0874 35.7229 21.2034 35.6599 21.492C35.5538 21.9794 35.4079 22.51 35.1791 22.9411C34.3998 24.3803 33.6039 25.7731 32.7516 27.1692C31.6905 28.9102 30.5 30.5981 29.1901 32.1368C28.0095 33.5263 26.7228 34.7467 25.267 35.8078C24.2722 36.5241 23.3138 37.3432 22.4218 38.1988C21.029 39.5518 19.4306 40.5964 17.8554 41.7007C14.5094 44.0485 11.0274 46.2073 7.57199 48.3695C3.96732 50.6245 1.15853 52.9856 -2.47599 56.2918L-12.4178 56.4775Z" fill="#F91155"/>
<path d="M54.5057 6.04244C56.9331 4.93484 60.8595 1.57888 62.5739 -0.128946L61.8908 -10.3096C61.1447 -9.69608 59.9608 -8.85046 59.281 -8.26681C58.5647 -7.65996 57.6527 -6.8276 56.9961 -6.15442C54.3067 -3.39205 53.4777 -2.07553 50.974 0.86922C48.6891 3.55531 46.2352 6.30441 44.6567 9.53436C44.1228 10.632 43.6685 11.7396 43.1312 12.8339C41.692 15.782 40.0439 18.6372 38.4322 21.4825C37.2417 23.5816 35.9816 25.5979 34.4893 27.4682C33.1761 29.113 31.8662 30.7611 30.5166 32.3728C29.6079 33.4605 28.696 34.5349 27.7044 35.5331C26.3017 36.9491 24.6901 38.0865 23.0519 39.1776C21.354 40.315 19.6395 41.4126 17.9085 42.4937C15.8061 43.8069 14.0253 45.5678 12.271 47.332C11.5381 48.0715 10.8152 48.8342 10.0326 49.5074C8.08934 51.1788 6.33177 52.2001 4.5941 54.1069C4.43493 54.2794 4.0403 54.6906 3.9574 54.7801L12.3506 54.2164C12.6922 53.9842 13.236 53.2911 13.5013 52.9695C14.1878 51.9282 14.6321 51.4639 15.2423 50.3762C15.9188 49.1692 16.8341 48.2042 17.9914 47.5343C18.9034 47.007 19.7821 46.4764 20.6974 45.9558C21.9509 45.2428 23.284 44.626 24.4712 43.8102C26.8787 42.1555 29.2498 40.4211 31.5777 38.6503C33.7598 36.9856 35.8655 35.2181 38.0011 33.4903C38.7572 32.8802 39.4006 32.207 39.9013 31.3348C41.0984 29.2456 42.0402 27.0105 42.866 24.739C43.5259 22.925 44.1161 21.0779 44.7562 19.2507C45.9367 15.8848 47.5583 12.7477 49.3988 9.74991C50.8314 7.43191 52.0816 7.15003 54.5057 6.04244Z" fill="#F91155"/>
</g>
<mask id="mask2_52_3607" style="mask-type:luminance" maskUnits="userSpaceOnUse" x="0" y="0" width="48" height="47">
<path d="M38.0541 47H9.85347C4.66036 47 0.452148 42.7918 0.452148 37.602V9.40133C0.452148 4.20821 4.66036 0 9.85347 0H38.0541C43.2473 0 47.4555 4.20821 47.4555 9.40133V37.602C47.4521 42.7918 43.2439 47 38.0541 47Z" fill="white"/>
</mask>
<g mask="url(#mask2_52_3607)">
<mask id="mask3_52_3607" style="mask-type:luminance" maskUnits="userSpaceOnUse" x="0" y="0" width="48" height="47">
<path d="M47.4521 0H0.452148V47H47.4521V0Z" fill="white"/>
</mask>
<g mask="url(#mask3_52_3607)">
<path d="M5.44939 31.4207C3.68188 32.1503 1.70876 30.9731 1.43352 29.0232C1.24781 27.6967 1.97737 26.3868 3.18445 25.8894C4.95197 25.1598 6.92509 26.3371 7.20033 28.287C7.38272 29.6134 6.65316 30.9233 5.44939 31.4207ZM3.40995 23.1237C-0.00569799 23.6775 -2.01198 27.2722 -0.7651 30.6083C0.156794 33.0755 2.69698 34.5943 5.22389 34.1831C8.63954 33.6326 10.6458 30.0346 9.39894 26.6985C8.47705 24.2313 5.93687 22.7158 3.40995 23.1237Z" fill="white"/>
<path d="M11.0435 21.1796C10.2742 21.3852 9.85964 22.2574 10.2377 23.0234C10.5129 23.5838 11.1695 23.8425 11.7664 23.6833L15.2252 22.7581L11.7764 31.41C11.6636 31.6952 11.919 31.9903 12.2141 31.9107L20.6538 29.6491C21.2507 29.4899 21.6884 28.9361 21.6453 28.3127C21.5889 27.4604 20.793 26.9132 20.027 27.1188L15.8155 28.2463L19.261 19.6011C19.3737 19.3159 19.1151 19.0175 18.8199 19.097L11.0435 21.1796Z" fill="white"/>
<path d="M44.7493 12.097C44.2055 12.3755 43.9534 13.0255 44.1126 13.6224L45.2368 17.8107L37.0425 14.216C36.7574 14.09 36.4556 14.352 36.5385 14.6571L38.8565 23.3056C39.0157 23.9025 39.5595 24.3403 40.1697 24.3071C41.0219 24.2607 41.5691 23.4548 41.3569 22.6722L40.2261 18.4474L48.4203 22.0422C48.7055 22.1682 49.0073 21.9062 48.9244 21.6011L46.5997 12.9194C46.3875 12.1335 45.512 11.709 44.7493 12.097Z" fill="white"/>
<path d="M27.1575 16.5834C23.0521 17.681 20.3759 20.9972 21.1784 23.9884C21.9809 26.9796 25.957 28.5116 30.0591 27.4107C34.1612 26.3097 36.8407 22.9968 36.0382 20.0057C35.2356 17.0145 31.2596 15.4824 27.1575 16.5834ZM27.834 19.1103C30.6693 18.3509 33.1962 19.306 33.561 20.6689C33.9258 22.0318 32.2179 24.1243 29.3826 24.8837C26.5473 25.6431 24.0204 24.6881 23.6556 23.3251C23.2875 21.9589 24.9986 19.8697 27.834 19.1103Z" fill="white"/>
</g>
</g>
</svg>
