<svg width="25" height="24" viewBox="0 0 25 24" fill="none" xmlns="http://www.w3.org/2000/svg">
<g clip-path="url(#clip0_51_3436)">
<path d="M23.7838 11.9666C23.7838 18.3367 18.618 23.5026 12.2479 23.5026C5.87775 23.5026 0.711914 18.3367 0.711914 11.9666C0.711914 5.5965 5.87775 0.430664 12.2479 0.430664C18.618 0.430664 23.7838 5.5965 23.7838 11.9666Z" fill="#CA2127"/>
<path d="M11.2808 4.29385C8.02993 4.64263 4.79223 7.14329 4.66062 10.7232C4.57507 12.908 5.48978 14.5466 7.67457 15.0072C7.92464 13.974 7.9707 13.4147 7.9707 13.4147C7.9707 13.4147 7.00992 12.4934 6.91121 11.9077C6.10837 7.19594 12.6167 3.97798 16.032 7.26833C18.3879 9.55182 16.8349 16.5734 13.0313 15.843C9.38555 15.1454 14.8146 9.5584 11.906 8.45943C9.54349 7.56446 8.28658 11.1904 9.40529 12.9869C8.74723 16.0799 7.33238 18.9951 7.9049 22.8711C9.76723 21.5879 10.3924 19.1267 10.9057 16.5603C11.8401 17.0999 12.3403 17.6658 13.5314 17.7514C17.9273 18.0738 20.3819 13.5726 19.783 9.41363C19.2434 5.72844 15.3871 3.85295 11.2808 4.29385Z" fill="white"/>
</g>
<defs>
<clipPath id="clip0_51_3436">
<rect width="23.6905" height="23.6905" fill="white" transform="translate(0.442383 0.154297)"/>
</clipPath>
</defs>
</svg>
