<svg width="25" height="24" viewBox="0 0 25 24" fill="none" xmlns="http://www.w3.org/2000/svg">
<path d="M12.6216 23.9405C19.1636 23.9405 24.4668 18.6372 24.4668 12.0952C24.4668 5.55329 19.1636 0.25 12.6216 0.25C6.07966 0.25 0.776367 5.55329 0.776367 12.0952C0.776367 18.6372 6.07966 23.9405 12.6216 23.9405Z" fill="url(#paint0_linear_51_3392)"/>
<path d="M18.5329 7.1956C18.6383 6.5141 17.9904 5.97618 17.3844 6.24223L5.3155 11.5411C4.88096 11.7319 4.91275 12.3902 5.36343 12.5337L7.85231 13.3263C8.32739 13.4776 8.84173 13.3993 9.25657 13.1127L14.868 9.23595C15.0372 9.11902 15.2217 9.35964 15.0771 9.50864L11.0378 13.6731C10.646 14.0771 10.7238 14.7617 11.1951 15.0572L15.7175 17.8931C16.2247 18.2112 16.8772 17.8917 16.972 17.2787L18.5329 7.1956Z" fill="white"/>
<defs>
<linearGradient id="paint0_linear_51_3392" x1="12.6216" y1="0.25" x2="12.6216" y2="23.9405" gradientUnits="userSpaceOnUse">
<stop stop-color="#37BBFE"/>
<stop offset="1" stop-color="#007DBB"/>
</linearGradient>
</defs>
</svg>
