<svg width="24" height="24" viewBox="0 0 24 24" fill="none" xmlns="http://www.w3.org/2000/svg">
<g clip-path="url(#clip0_51_3403)">
<path fill-rule="evenodd" clip-rule="evenodd" d="M2.47842 0.25H21.4308C22.7393 0.25 23.7999 1.31058 23.7999 2.61905V21.5714C23.7999 22.8799 22.7393 23.9405 21.4308 23.9405H2.47842C1.16995 23.9405 0.109375 22.8799 0.109375 21.5714V2.61905C0.109375 1.31058 1.16995 0.25 2.47842 0.25Z" fill="#010101"/>
<path fill-rule="evenodd" clip-rule="evenodd" d="M14.9847 22.0454C15.7056 22.0454 16.29 21.4658 16.29 20.7508C16.29 20.0358 15.7056 19.4561 14.9847 19.4561H14.7881C15.5089 19.4561 16.0933 20.0358 16.0933 20.7508C16.0933 21.4658 15.5089 22.0454 14.7881 22.0454H14.9847Z" fill="#EE1D51"/>
<path fill-rule="evenodd" clip-rule="evenodd" d="M14.7707 19.4561H14.574C13.8532 19.4561 13.2687 20.0358 13.2687 20.7508C13.2687 21.4658 13.8532 22.0454 14.574 22.0454H14.7707C14.0497 22.0454 13.4653 21.4658 13.4653 20.7508C13.4653 20.0358 14.0497 19.4561 14.7707 19.4561Z" fill="#66C8CF"/>
<path d="M14.7796 21.3801C15.1302 21.3801 15.4144 21.0983 15.4144 20.7506C15.4144 20.4029 15.1302 20.1211 14.7796 20.1211C14.429 20.1211 14.1448 20.4029 14.1448 20.7506C14.1448 21.0983 14.429 21.3801 14.7796 21.3801Z" fill="#010101"/>
<path fill-rule="evenodd" clip-rule="evenodd" d="M4.84741 18.8711V19.5273H5.61612V22.0279H6.38511V19.545H7.01083L7.22537 18.8711H4.84741ZM11.141 18.8711V19.5273H11.9097V22.0279H12.6787V19.545H13.3044L13.519 18.8711H11.141ZM7.36855 19.2435C7.36855 19.0379 7.53638 18.8711 7.74372 18.8711C7.95124 18.8711 8.11926 19.0379 8.11926 19.2435C8.11926 19.4491 7.95134 19.6159 7.74372 19.6159C7.53638 19.6158 7.36855 19.4491 7.36855 19.2435ZM7.36855 19.882H8.11926V22.0279H7.36855V19.882ZM8.44116 18.8711V22.0279H9.19215V21.2122L9.4246 20.9992L10.1576 22.0456H10.9621L9.90713 20.5204L10.8547 19.5981H9.94295L9.19215 20.3429V18.8711H8.44116ZM16.5405 18.8711V22.0279H17.2915V21.2122L17.5239 20.9992L18.2571 22.0456H19.0617L18.0067 20.5204L18.9543 19.5981H18.0425L17.2915 20.3429V18.8711H16.5405Z" fill="white"/>
<path fill-rule="evenodd" clip-rule="evenodd" d="M15.3823 7.9437C16.4194 8.68465 17.69 9.12065 19.0621 9.12065V6.48143C18.8024 6.48153 18.5434 6.45444 18.2893 6.4006V8.47807C16.9173 8.47807 15.6469 8.04207 14.6095 7.30112V12.6869C14.6095 15.3812 12.4243 17.5652 9.72883 17.5652C8.72312 17.5652 7.78829 17.2613 7.01172 16.7401C7.89803 17.6458 9.13401 18.2077 10.5014 18.2077C13.1971 18.2077 15.3824 16.0238 15.3824 13.3294L15.3823 7.9437ZM16.3356 5.28108C15.8056 4.70237 15.4577 3.95442 15.3823 3.12752V2.78809H14.65C14.8343 3.839 15.4631 4.73686 16.3356 5.28108ZM8.71658 14.6727C8.42049 14.2846 8.26044 13.8098 8.26115 13.3217C8.26115 12.0894 9.2607 11.0904 10.4938 11.0904C10.7236 11.0902 10.9521 11.1255 11.1711 11.1949V8.49673C10.9152 8.46168 10.6569 8.44682 10.3986 8.45229V10.5524C10.1795 10.483 9.95093 10.4477 9.72106 10.4479C8.48792 10.4479 7.48847 11.447 7.48847 12.6793C7.48847 13.5507 7.98805 14.3052 8.71658 14.6727Z" fill="#EE1D52"/>
<path fill-rule="evenodd" clip-rule="evenodd" d="M14.609 7.30112C15.6464 8.04207 16.9168 8.47807 18.2888 8.47807V6.4006C17.523 6.23761 16.845 5.83752 16.3351 5.28108C15.4626 4.73686 14.8338 3.839 14.6495 2.78809H12.7259V13.3293C12.7216 14.5582 11.7237 15.5532 10.4932 15.5532C9.76813 15.5532 9.12394 15.2078 8.71599 14.6727C7.98746 14.3052 7.48787 13.5507 7.48787 12.6793C7.48787 11.447 8.48733 10.4479 9.72047 10.4479C9.95671 10.4479 10.1844 10.4846 10.398 10.5524V8.45229C7.74989 8.50697 5.62012 10.6696 5.62012 13.3294C5.62012 14.6571 6.1505 15.8608 7.01122 16.7402C7.7878 17.2614 8.72262 17.5653 9.72833 17.5653C12.4238 17.5653 14.609 15.3812 14.609 12.687V7.30112Z" fill="white"/>
<path fill-rule="evenodd" clip-rule="evenodd" d="M18.2888 6.40051V5.83876C17.5981 5.8398 16.9211 5.64648 16.3351 5.2809C16.8538 5.8485 17.5369 6.23993 18.2888 6.40051ZM14.6495 2.78799C14.6319 2.68757 14.6184 2.58647 14.609 2.48495V2.14551H11.953V12.6868C11.9488 13.9156 10.951 14.9106 9.72045 14.9106C9.35912 14.9106 9.01807 14.8249 8.71597 14.6726C9.12392 15.2077 9.76811 15.5531 10.4932 15.5531C11.7236 15.5531 12.7216 14.5581 12.7259 13.3292V2.78799H14.6495ZM10.3981 8.4522V7.85415C10.1762 7.82381 9.95241 7.80865 9.72841 7.80876C7.03262 7.80876 4.84741 9.99284 4.84741 12.6868C4.84741 14.3759 5.70624 15.8644 7.0113 16.74C6.15058 15.8606 5.6202 14.6569 5.6202 13.3292C5.6202 10.6695 7.74987 8.50688 10.3981 8.4522Z" fill="#69C9D0"/>
<path fill-rule="evenodd" clip-rule="evenodd" d="M14.7879 22.0454C15.5088 22.0454 16.0933 21.4658 16.0933 20.7508C16.0933 20.0358 15.5088 19.4561 14.7879 19.4561H14.7701C14.0492 19.4561 13.4648 20.0358 13.4648 20.7508C13.4648 21.4658 14.0492 22.0454 14.7701 22.0454H14.7879ZM14.1443 20.7508C14.1443 20.403 14.4286 20.1213 14.7792 20.1213C15.1295 20.1213 15.4138 20.403 15.4138 20.7508C15.4138 21.0986 15.1295 21.3805 14.7792 21.3805C14.4286 21.3804 14.1443 21.0986 14.1443 20.7508Z" fill="white"/>
</g>
<defs>
<clipPath id="clip0_51_3403">
<rect width="23.6905" height="23.6905" fill="white" transform="translate(0.109375 0.25)"/>
</clipPath>
</defs>
</svg>
