<svg width="24" height="24" viewBox="0 0 24 24" fill="none" xmlns="http://www.w3.org/2000/svg">
<g clip-path="url(#clip0_51_3423)">
<path fill-rule="evenodd" clip-rule="evenodd" d="M11.8452 0.0595225C18.3872 0.0595225 23.6905 5.36282 23.6905 11.9048C23.6905 18.4467 18.3872 23.75 11.8452 23.75C5.30329 23.75 0 18.4467 0 11.9048C0 5.36282 5.30329 0.0595225 11.8452 0.0595225ZM12.5547 4.88455C13.3601 4.98507 14.011 5.17909 14.7251 5.52742C15.4275 5.87109 15.877 6.19603 16.4717 6.78748C17.029 7.34622 17.338 7.76939 17.6658 8.4263C18.1224 9.34273 18.3823 10.4321 18.4267 11.6314C18.4432 12.0405 18.4314 12.1317 18.3378 12.2486C18.1598 12.4754 17.7688 12.4379 17.6354 12.1831C17.5932 12.099 17.5815 12.0265 17.5675 11.6992C17.544 11.1966 17.509 10.8716 17.4387 10.4836C17.1624 8.96167 16.4319 7.746 15.2659 6.87399C14.2943 6.14461 13.2898 5.78925 11.974 5.71211C11.5292 5.6864 11.4519 5.67006 11.3512 5.5929C11.1639 5.44562 11.1546 5.09964 11.3348 4.93833C11.4449 4.83779 11.5221 4.82376 11.9038 4.83545C12.1028 4.84246 12.3955 4.86585 12.5547 4.88455ZM7.20237 5.13704C7.28433 5.16508 7.41077 5.23053 7.48336 5.2773C7.92818 5.57187 9.16674 7.15452 9.57181 7.94472C9.80358 8.3959 9.88085 8.73021 9.80831 8.97802C9.73334 9.24452 9.6093 9.3848 9.05438 9.83132C8.83195 10.0113 8.62354 10.196 8.59079 10.2451C8.50649 10.3667 8.43858 10.6051 8.43858 10.7734C8.44095 11.1639 8.69382 11.8722 9.0263 12.4169C9.28382 12.8401 9.74503 13.3824 10.2016 13.7986C10.7378 14.2895 11.2107 14.6238 11.7446 14.888C12.4306 15.2293 12.8497 15.3158 13.1564 15.1732C13.2337 15.1381 13.3156 15.0914 13.3414 15.0703C13.3648 15.0493 13.5451 14.8295 13.7417 14.5864C14.121 14.1095 14.2077 14.0324 14.4676 13.9435C14.7977 13.8313 15.1348 13.8617 15.4743 14.0347C15.7319 14.1679 16.2938 14.5163 16.6567 14.7687C17.1343 15.1031 18.1551 15.9353 18.2933 16.1013C18.5368 16.4006 18.579 16.7839 18.415 17.2071C18.2418 17.6536 17.5675 18.4905 17.0969 18.8482C16.6707 19.1708 16.3687 19.2947 15.9707 19.3134C15.6429 19.3298 15.5071 19.3017 15.088 19.1287C11.8008 17.7752 9.17613 15.7553 7.09231 12.9803C6.00361 11.5309 5.17476 10.0277 4.60814 8.4684C4.27803 7.55901 4.26167 7.16389 4.53323 6.69867C4.65032 6.5023 5.14901 6.01604 5.51191 5.74487C6.116 5.296 6.39461 5.13 6.61704 5.08326C6.76922 5.05052 7.03377 5.07625 7.20237 5.13704ZM12.7162 6.57943C14.1374 6.78748 15.2378 7.44678 15.959 8.51748C16.364 9.12063 16.6169 9.82897 16.7035 10.5888C16.7339 10.867 16.7339 11.3743 16.7012 11.4584C16.6707 11.5379 16.5724 11.6454 16.4881 11.6898C16.3968 11.7366 16.2025 11.732 16.0948 11.6758C15.9145 11.5847 15.8606 11.4397 15.8606 11.047C15.8606 10.4415 15.7038 9.80326 15.4322 9.30764C15.1231 8.74189 14.6736 8.27436 14.1257 7.94939C13.6551 7.66885 12.9597 7.4608 12.3252 7.40938C12.0958 7.39066 11.9693 7.3439 11.8827 7.24337C11.7493 7.09141 11.7352 6.88569 11.8476 6.71504C11.9693 6.52568 12.1566 6.49526 12.7162 6.57943ZM13.2149 8.34447C13.6762 8.44266 14.0297 8.618 14.3317 8.90088C14.7204 9.26789 14.9335 9.71208 15.0271 10.3503C15.0903 10.7664 15.0646 10.9301 14.9171 11.0657C14.7789 11.1919 14.5238 11.1966 14.3692 11.0773C14.2568 10.9932 14.2217 10.9044 14.1959 10.6636C14.1655 10.3433 14.1093 10.1189 14.0134 9.91079C13.8073 9.46895 13.4444 9.23985 12.831 9.16504C12.5429 9.12997 12.4563 9.09725 12.3627 8.98739C12.1918 8.78399 12.2573 8.45436 12.4938 8.33279C12.5828 8.28837 12.6203 8.2837 12.8169 8.29539C12.9386 8.3024 13.119 8.32342 13.2149 8.34447Z" fill="#7F4DA0"/>
</g>
<defs>
<clipPath id="clip0_51_3423">
<rect width="23.6905" height="23.6905" fill="white" transform="translate(0 0.0595703)"/>
</clipPath>
</defs>
</svg>
