<svg width="25" height="24" viewBox="0 0 25 24" fill="none" xmlns="http://www.w3.org/2000/svg">
<g clip-path="url(#clip0_51_3419)">
<path fill-rule="evenodd" clip-rule="evenodd" d="M12.5369 0.0595703C6.0068 0.0595703 0.695068 5.37279 0.695068 11.9047C0.695068 14.4952 1.53047 16.8976 2.9506 18.8476L1.47468 23.2485L6.02762 21.7934C7.90023 23.0329 10.1349 23.75 12.5437 23.75C19.0738 23.75 24.3855 18.4366 24.3855 11.9049C24.3855 5.373 19.0738 0.0597661 12.5437 0.0597661L12.5369 0.0595703ZM9.22998 6.07637C9.0003 5.52628 8.82623 5.50545 8.47827 5.4913C8.35979 5.48443 8.22776 5.47755 8.08138 5.47755C7.6287 5.47755 7.1554 5.60982 6.86992 5.90226C6.52196 6.25739 5.65863 7.08596 5.65863 8.78517C5.65863 10.4844 6.89781 12.1278 7.06482 12.3577C7.2389 12.5873 9.48067 16.1248 12.9614 17.5666C15.6834 18.6947 16.4911 18.5901 17.1106 18.4578C18.0156 18.2629 19.1505 17.5941 19.4359 16.7866C19.7214 15.9786 19.7214 15.2892 19.6377 15.143C19.5542 14.9967 19.3243 14.9134 18.9764 14.7391C18.6284 14.565 16.9366 13.7293 16.6163 13.6179C16.3029 13.4996 16.0037 13.5414 15.7671 13.8757C15.4329 14.3423 15.1058 14.8159 14.8411 15.1013C14.6323 15.3242 14.291 15.3521 14.0057 15.2336C13.6228 15.0736 12.5508 14.6972 11.228 13.5204C10.2045 12.6083 9.5084 11.4733 9.30662 11.1321C9.10464 10.7841 9.28577 10.5819 9.4457 10.394C9.61978 10.178 9.7868 10.0249 9.96088 9.82285C10.135 9.62101 10.2324 9.51646 10.3438 9.27964C10.4623 9.04989 10.3786 8.81307 10.2951 8.63895C10.2116 8.46482 9.51546 6.76561 9.22998 6.07637Z" fill="#67C15E"/>
</g>
<defs>
<clipPath id="clip0_51_3419">
<rect width="23.6905" height="23.6905" fill="white" transform="translate(0.695068 0.0595703)"/>
</clipPath>
</defs>
</svg>
