<svg width="25" height="24" viewBox="0 0 25 24" fill="none" xmlns="http://www.w3.org/2000/svg">
<g clip-path="url(#clip0_51_3428)">
<path d="M12.4815 0.551758C7.37862 0.551758 3.24219 4.72311 3.24219 9.86905C3.24219 12.4411 4.2756 14.7699 5.94699 16.4559C7.61884 18.1428 11.5575 20.5839 11.7885 23.1462C11.8232 23.5304 12.099 23.845 12.4815 23.845C12.864 23.845 13.1398 23.5304 13.1744 23.1462C13.4054 20.5839 17.3441 18.1428 19.016 16.4559C20.6873 14.7699 21.7208 12.4411 21.7208 9.86905C21.7208 4.72311 17.5843 0.551758 12.4815 0.551758Z" fill="#FF4433"/>
<path d="M12.4808 13.1295C14.2668 13.1295 15.7145 11.6695 15.7145 9.86847C15.7145 8.06744 14.2668 6.60742 12.4808 6.60742C10.6949 6.60742 9.24707 8.06744 9.24707 9.86847C9.24707 11.6695 10.6949 13.1295 12.4808 13.1295Z" fill="white"/>
</g>
<defs>
<clipPath id="clip0_51_3428">
<rect width="24.6381" height="23.6905" fill="white" transform="translate(0.162109 0.154297)"/>
</clipPath>
</defs>
</svg>
