<svg width="36" height="24" viewBox="0 0 36 24" fill="none" xmlns="http://www.w3.org/2000/svg">
<g clip-path="url(#clip0_51_3431)">
<path d="M34.331 3.85384C33.9271 2.39687 32.7409 1.2519 31.2318 0.86189C28.4991 0.154297 17.5363 0.154297 17.5363 0.154297C17.5363 0.154297 6.5737 0.154297 3.84096 0.86189C2.33176 1.2519 1.14575 2.39687 0.741751 3.85384C0.00878928 6.49198 0.00878906 11.9995 0.00878906 11.9995C0.00878906 11.9995 0.00878928 17.5071 0.741751 20.1452C1.14575 21.6022 2.33176 22.7471 3.84096 23.1371C6.5737 23.8447 17.5363 23.8447 17.5363 23.8447C17.5363 23.8447 28.4991 23.8447 31.2318 23.1371C32.7409 22.7471 33.9271 21.6022 34.331 20.1452C35.064 17.5071 35.064 11.9995 35.064 11.9995C35.064 11.9995 35.0611 6.49198 34.331 3.85384Z" fill="#FF0000"/>
<path d="M14.0283 17.0753L23.1355 11.9996L14.0283 6.92383V17.0753Z" fill="white"/>
</g>
<defs>
<clipPath id="clip0_51_3431">
<rect width="35.0619" height="23.6905" fill="white" transform="translate(0.00976562 0.154297)"/>
</clipPath>
</defs>
</svg>
